<svg xmlns="http://www.w3.org/2000/svg" viewBox="0 0 64 64" fill="none">
  <rect x="6.5" y="6.5" width="51" height="51" rx="4.5" fill="#121417" stroke="#34383f" />
  <path d="M13 17.5H51M13 25H51M13 32.5H51M13 40H51M13 47.5H51" stroke="rgba(106,145,255,.13)" stroke-width="1" />
  <path d="M19 10.5V53.5M45 10.5V53.5" stroke="rgba(106,145,255,.13)" stroke-width="1" />
  <path d="M6.5 19.5H12.5V13.5M57.5 19.5H51.5V13.5M6.5 44.5H12.5V50.5M57.5 44.5H51.5V50.5" stroke="#565d68" stroke-width="1.35" stroke-linecap="square" />
  <path d="M32 32C22.9 28.8 18.3 24.4 18.3 18.6C18.3 12.2 23.9 8.4 32 8.4C40.1 8.4 45.7 12.2 45.7 18.6C45.7 24.4 41.1 28.8 32 32ZM32 32C41.9 35.4 47.1 40 47.1 46.1C47.1 52.7 41.1 56.8 32 56.8C22.9 56.8 16.9 52.7 16.9 46.1C16.9 40 22.1 35.4 32 32Z" stroke="#6a91ff" stroke-width="4.7" stroke-linecap="round" stroke-linejoin="round" />
  <path d="M32 32C24.7 29.3 20.8 25.5 20.8 20C20.8 14.9 25.1 11.8 32 11.8C38.9 11.8 43.2 14.9 43.2 20C43.2 25.5 39.3 29.3 32 32ZM32 32C40.1 34.7 44.6 38.7 44.6 44.9C44.6 50.4 39.6 53.5 32 53.5C24.4 53.5 19.4 50.4 19.4 44.9C19.4 38.7 23.9 34.7 32 32Z" stroke="#121417" stroke-width="1.5" stroke-linecap="round" stroke-linejoin="round" opacity=".9" />
  <path d="M32 12.25V51.75" stroke="rgba(106,145,255,.24)" stroke-width="1" stroke-dasharray="2 4" stroke-linecap="round" />
  <circle cx="32" cy="20.5" r="3.3" fill="#121417" stroke="#6a91ff" stroke-width="1.25" />
  <circle cx="32" cy="43.5" r="3.3" fill="#121417" stroke="#6a91ff" stroke-width="1.25" />
  <circle cx="32" cy="32" r="1.7" fill="#6a91ff" />
</svg>
