<svg xmlns="http://www.w3.org/2000/svg" viewBox="0 0 512 512">
  <defs>
    <clipPath id="favicon-clip">
      <circle cx="256" cy="256" r="256" />
    </clipPath>
    <pattern id="favicon-grid" width="64" height="64" patternUnits="userSpaceOnUse">
      <path
        d="M 64 0 L 0 0 0 64"
        fill="none"
        stroke="#1e69f6"
        stroke-width="2"
        opacity="0.1"
      />
      <circle cx="64" cy="64" r="2" fill="#1e69f6" opacity="0.3" />
    </pattern>
    <pattern
      id="favicon-hatch"
      width="12"
      height="12"
      patternUnits="userSpaceOnUse"
      patternTransform="rotate(45)"
    >
      <line
        x1="0"
        y1="0"
        x2="0"
        y2="12"
        stroke="#ffffff"
        stroke-width="2"
        opacity="0.15"
      />
    </pattern>
    <linearGradient id="favicon-eight" x1="0%" y1="0%" x2="100%" y2="100%">
      <stop offset="0%" stop-color="#60a5fa" />
      <stop offset="40%" stop-color="#3b82f6" />
      <stop offset="100%" stop-color="#1e3a8a" />
    </linearGradient>
    <linearGradient id="favicon-glow" x1="0%" y1="0%" x2="100%" y2="100%">
      <stop offset="0%" stop-color="#93c5fd" />
      <stop offset="100%" stop-color="#2563eb" />
    </linearGradient>
    <linearGradient id="favicon-ring" x1="0%" y1="0%" x2="100%" y2="100%">
      <stop offset="0%" stop-color="#3b82f6" stop-opacity="0.4" />
      <stop offset="100%" stop-color="#1e3a8a" stop-opacity="0.1" />
    </linearGradient>
    <filter id="favicon-blur" x="-20%" y="-20%" width="140%" height="140%">
      <feGaussianBlur stdDeviation="16" result="blur" />
      <feComposite in="SourceGraphic" in2="blur" operator="over" />
    </filter>
  </defs>
  <g clip-path="url(#favicon-clip)">
    <circle cx="256" cy="256" r="256" fill="#090a0f" />
    <circle cx="256" cy="256" r="256" fill="url(#favicon-grid)" />
    <path
      d="M -50 300 C 150 100, 350 500, 562 300"
      fill="none"
      stroke="#1e69f6"
      stroke-width="60"
      opacity="0.03"
    />
    <path
      d="M -50 350 C 150 150, 350 550, 562 350"
      fill="none"
      stroke="#1e69f6"
      stroke-width="20"
      opacity="0.05"
    />
    <circle
      cx="256"
      cy="256"
      r="232"
      fill="none"
      stroke="url(#favicon-ring)"
      stroke-width="2"
    />
    <g filter="url(#favicon-blur)" opacity="0.35">
      <path
        fill-rule="evenodd"
        fill="url(#favicon-glow)"
        d="M 192 64 L 320 64 L 384 128 L 384 208 L 352 240 L 352 272 L 384 304 L 384 384 L 320 448 L 192 448 L 128 384 L 128 304 L 160 272 L 160 240 L 128 208 L 128 128 Z M 224 128 L 288 128 L 320 160 L 320 192 L 288 224 L 224 224 L 192 192 L 192 160 Z M 224 288 L 288 288 L 320 320 L 320 352 L 288 384 L 224 384 L 192 352 L 192 320 Z M 256 240 L 272 256 L 256 272 L 240 256 Z"
      />
    </g>
    <path
      fill-rule="evenodd"
      fill="url(#favicon-eight)"
      d="M 192 64 L 320 64 L 384 128 L 384 208 L 352 240 L 352 272 L 384 304 L 384 384 L 320 448 L 192 448 L 128 384 L 128 304 L 160 272 L 160 240 L 128 208 L 128 128 Z M 224 128 L 288 128 L 320 160 L 320 192 L 288 224 L 224 224 L 192 192 L 192 160 Z M 224 288 L 288 288 L 320 320 L 320 352 L 288 384 L 224 384 L 192 352 L 192 320 Z M 256 240 L 272 256 L 256 272 L 240 256 Z"
    />
    <path
      fill-rule="evenodd"
      fill="url(#favicon-hatch)"
      d="M 192 64 L 320 64 L 384 128 L 384 208 L 352 240 L 352 272 L 384 304 L 384 384 L 320 448 L 192 448 L 128 384 L 128 304 L 160 272 L 160 240 L 128 208 L 128 128 Z M 224 128 L 288 128 L 320 160 L 320 192 L 288 224 L 224 224 L 192 192 L 192 160 Z M 224 288 L 288 288 L 320 320 L 320 352 L 288 384 L 224 384 L 192 352 L 192 320 Z M 256 240 L 272 256 L 256 272 L 240 256 Z"
    />
    <path
      fill-rule="evenodd"
      fill="none"
      stroke="#93c5fd"
      stroke-width="2"
      opacity="0.5"
      d="M 192 64 L 320 64 L 384 128 L 384 208 L 352 240 L 352 272 L 384 304 L 384 384 L 320 448 L 192 448 L 128 384 L 128 304 L 160 272 L 160 240 L 128 208 L 128 128 Z M 224 128 L 288 128 L 320 160 L 320 192 L 288 224 L 224 224 L 192 192 L 192 160 Z M 224 288 L 288 288 L 320 320 L 320 352 L 288 384 L 224 384 L 192 352 L 192 320 Z M 256 240 L 272 256 L 256 272 L 240 256 Z"
    />
    <line x1="24" y1="360" x2="360" y2="24" stroke="#090a0f" stroke-width="12" />
    <line x1="152" y1="488" x2="488" y2="152" stroke="#090a0f" stroke-width="12" />
    <rect x="392" y="104" width="8" height="8" fill="#60a5fa" transform="rotate(45 396 108)" />
    <rect x="112" y="400" width="8" height="8" fill="#60a5fa" transform="rotate(45 116 404)" />
    <circle cx="256" cy="256" r="4" fill="#ffffff" opacity="0.8" />
    <path
      d="M 128 64 L 112 64 L 112 80"
      fill="none"
      stroke="#60a5fa"
      stroke-width="4"
      opacity="0.6"
    />
    <path
      d="M 384 448 L 400 448 L 400 432"
      fill="none"
      stroke="#60a5fa"
      stroke-width="4"
      opacity="0.6"
    />
  </g>
</svg>
