<svg xmlns="http://www.w3.org/2000/svg" viewBox="0 0 32 32" fill="none">
  <rect width="32" height="32" rx="8" fill="#121316" />
  <g transform="translate(16 17)">
    <g fill="#1e69f6">
      <path
        transform="rotate(0)"
        d="M 0 -10.5 C -5.5 -10.5 -9 -4 -6 3 C -4.5 6 -1.5 7.5 0 5.5 C 1.5 7.5 4.5 6 6 3 C 9 -4 5.5 -10.5 0 -10.5 Z"
      />
      <path
        transform="rotate(90)"
        d="M 0 -10.5 C -5.5 -10.5 -9 -4 -6 3 C -4.5 6 -1.5 7.5 0 5.5 C 1.5 7.5 4.5 6 6 3 C 9 -4 5.5 -10.5 0 -10.5 Z"
      />
      <path
        transform="rotate(180)"
        d="M 0 -10.5 C -5.5 -10.5 -9 -4 -6 3 C -4.5 6 -1.5 7.5 0 5.5 C 1.5 7.5 4.5 6 6 3 C 9 -4 5.5 -10.5 0 -10.5 Z"
      />
      <path
        transform="rotate(-90)"
        d="M 0 -10.5 C -5.5 -10.5 -9 -4 -6 3 C -4.5 6 -1.5 7.5 0 5.5 C 1.5 7.5 4.5 6 6 3 C 9 -4 5.5 -10.5 0 -10.5 Z"
      />
    </g>
    <circle r="2.35" fill="#4f8fff" />
  </g>
</svg>
