<svg xmlns="http://www.w3.org/2000/svg" viewBox="0 0 64 64" fill="none">
  <style>
    :root {
      --bg: #f7f7f2;
      --frame: #cfd1d4;
      --frame-strong: #aeb3bd;
      --accent: #1e69f6;
      --grid: rgba(30, 105, 246, 0.11);
    }

    @media (prefers-color-scheme: dark) {
      :root {
        --bg: #121417;
        --frame: #34383f;
        --frame-strong: #565d68;
        --accent: #6a91ff;
        --grid: rgba(106, 145, 255, 0.13);
      }
    }
  </style>
  <rect x="6.5" y="6.5" width="51" height="51" rx="4.5" fill="var(--bg)" stroke="var(--frame)" />
  <path d="M13 17.5H51M13 25H51M13 32.5H51M13 40H51M13 47.5H51" stroke="var(--grid)" stroke-width="1" />
  <path d="M6.5 19.5H12.5V13.5M57.5 19.5H51.5V13.5M6.5 44.5H12.5V50.5M57.5 44.5H51.5V50.5" stroke="var(--frame-strong)" stroke-width="1.35" stroke-linecap="square" />
  <path d="M32 32C22.9 28.8 18.3 24.4 18.3 18.6C18.3 12.2 23.9 8.4 32 8.4C40.1 8.4 45.7 12.2 45.7 18.6C45.7 24.4 41.1 28.8 32 32ZM32 32C41.9 35.4 47.1 40 47.1 46.1C47.1 52.7 41.1 56.8 32 56.8C22.9 56.8 16.9 52.7 16.9 46.1C16.9 40 22.1 35.4 32 32Z" stroke="var(--accent)" stroke-width="4.7" stroke-linecap="round" stroke-linejoin="round" />
  <circle cx="32" cy="20.5" r="3.3" fill="var(--bg)" stroke="var(--accent)" stroke-width="1.25" />
  <circle cx="32" cy="43.5" r="3.3" fill="var(--bg)" stroke="var(--accent)" stroke-width="1.25" />
  <circle cx="32" cy="32" r="1.7" fill="var(--accent)" />
</svg>
