<svg width="1174.2890625" height="1213.199951171875" id="my-svg" xmlns="http://www.w3.org/2000/svg" xmlns:xlink="http://www.w3.org/1999/xlink" class="flowchart" style="max-width: 1174.29px; background-color: white;" viewBox="0 0 1174.2890625 1213.199951171875" role="graphics-document document" aria-roledescription="flowchart-v2"><style>#my-svg{font-family:"trebuchet ms",verdana,arial,sans-serif;font-size:16px;fill:#000000;}@keyframes edge-animation-frame{from{stroke-dashoffset:0;}}@keyframes dash{to{stroke-dashoffset:0;}}#my-svg .edge-animation-slow{stroke-dasharray:9,5!important;stroke-dashoffset:900;animation:dash 50s linear infinite;stroke-linecap:round;}#my-svg .edge-animation-fast{stroke-dasharray:9,5!important;stroke-dashoffset:900;animation:dash 20s linear infinite;stroke-linecap:round;}#my-svg .error-icon{fill:#552222;}#my-svg .error-text{fill:#552222;stroke:#552222;}#my-svg .edge-thickness-normal{stroke-width:1px;}#my-svg .edge-thickness-thick{stroke-width:3.5px;}#my-svg .edge-pattern-solid{stroke-dasharray:0;}#my-svg .edge-thickness-invisible{stroke-width:0;fill:none;}#my-svg .edge-pattern-dashed{stroke-dasharray:3;}#my-svg .edge-pattern-dotted{stroke-dasharray:2;}#my-svg .marker{fill:#666;stroke:#666;}#my-svg .marker.cross{stroke:#666;}#my-svg svg{font-family:"trebuchet ms",verdana,arial,sans-serif;font-size:16px;}#my-svg p{margin:0;}#my-svg .label{font-family:"trebuchet ms",verdana,arial,sans-serif;color:#000000;}#my-svg .cluster-label text{fill:#333;}#my-svg .cluster-label span{color:#333;}#my-svg .cluster-label span p{background-color:transparent;}#my-svg .label text,#my-svg span{fill:#000000;color:#000000;}#my-svg .node rect,#my-svg .node circle,#my-svg .node ellipse,#my-svg .node polygon,#my-svg .node path{fill:#eee;stroke:#999;stroke-width:1px;}#my-svg .rough-node .label text,#my-svg .node .label text,#my-svg .image-shape .label,#my-svg .icon-shape .label{text-anchor:middle;}#my-svg .node .katex path{fill:#000;stroke:#000;stroke-width:1px;}#my-svg .rough-node .label,#my-svg .node .label,#my-svg .image-shape .label,#my-svg .icon-shape .label{text-align:center;}#my-svg .node.clickable{cursor:pointer;}#my-svg .root .anchor path{fill:#666!important;stroke-width:0;stroke:#666;}#my-svg .arrowheadPath{fill:#333333;}#my-svg .edgePath .path{stroke:#666;stroke-width:1px;}#my-svg .flowchart-link{stroke:#666;fill:none;}#my-svg .edgeLabel{background-color:white;text-align:center;}#my-svg .edgeLabel p{background-color:white;}#my-svg .edgeLabel rect{opacity:0.5;background-color:white;fill:white;}#my-svg .labelBkg{background-color:rgba(255, 255, 255, 0.5);}#my-svg .cluster rect{fill:hsl(0, 0%, 98.9215686275%);stroke:#707070;stroke-width:1px;}#my-svg .cluster text{fill:#333;}#my-svg .cluster span{color:#333;}#my-svg div.mermaidTooltip{position:absolute;text-align:center;max-width:200px;padding:2px;font-family:"trebuchet ms",verdana,arial,sans-serif;font-size:12px;background:hsl(-160, 0%, 93.3333333333%);border:1px solid #707070;border-radius:2px;pointer-events:none;z-index:100;}#my-svg .flowchartTitleText{text-anchor:middle;font-size:18px;fill:#000000;}#my-svg rect.text{fill:none;stroke-width:0;}#my-svg .icon-shape,#my-svg .image-shape{background-color:white;text-align:center;}#my-svg .icon-shape p,#my-svg .image-shape p{background-color:white;padding:2px;}#my-svg .icon-shape .label rect,#my-svg .image-shape .label rect{opacity:0.5;background-color:white;fill:white;}#my-svg .label-icon{display:inline-block;height:1em;overflow:visible;vertical-align:-0.125em;}#my-svg .node .label-icon path{fill:currentColor;stroke:revert;stroke-width:revert;}#my-svg .node .neo-node{stroke:#999;}#my-svg [data-look="neo"].node rect,#my-svg [data-look="neo"].cluster rect,#my-svg [data-look="neo"].node polygon{stroke:url(#my-svg-gradient);filter:drop-shadow( 1px 2px 2px rgba(185,185,185,1));}#my-svg [data-look="neo"].swimlane.cluster rect{filter:none;}#my-svg [data-look="neo"].node path{stroke:url(#my-svg-gradient);stroke-width:1px;}#my-svg [data-look="neo"].node .outer-path{filter:drop-shadow( 1px 2px 2px rgba(185,185,185,1));}#my-svg [data-look="neo"].node .neo-line path{stroke:#999;filter:none;}#my-svg [data-look="neo"].node circle{stroke:url(#my-svg-gradient);filter:drop-shadow( 1px 2px 2px rgba(185,185,185,1));}#my-svg [data-look="neo"].node circle .state-start{fill:#000000;}#my-svg [data-look="neo"].icon-shape .icon{fill:url(#my-svg-gradient);filter:drop-shadow( 1px 2px 2px rgba(185,185,185,1));}#my-svg [data-look="neo"].icon-shape .icon-neo path{stroke:url(#my-svg-gradient);filter:drop-shadow( 1px 2px 2px rgba(185,185,185,1));}#my-svg :root{--mermaid-font-family:"trebuchet ms",verdana,arial,sans-serif;}</style><g><marker id="my-svg_flowchart-v2-pointEnd" class="marker flowchart-v2" viewBox="0 0 10 10" refX="5" refY="5" markerUnits="userSpaceOnUse" markerWidth="8" markerHeight="8" orient="auto"><path d="M 0 0 L 10 5 L 0 10 z" class="arrowMarkerPath" style="stroke-width: 1; stroke-dasharray: 1, 0;"/></marker><marker id="my-svg_flowchart-v2-pointStart" class="marker flowchart-v2" viewBox="0 0 10 10" refX="4.5" refY="5" markerUnits="userSpaceOnUse" markerWidth="8" markerHeight="8" orient="auto"><path d="M 0 5 L 10 10 L 10 0 z" class="arrowMarkerPath" style="stroke-width: 1; stroke-dasharray: 1, 0;"/></marker><marker id="my-svg_flowchart-v2-pointEnd-margin" class="marker flowchart-v2" viewBox="0 0 11.5 14" refX="11.5" refY="7" markerUnits="userSpaceOnUse" markerWidth="10.5" markerHeight="14" orient="auto"><path d="M 0 0 L 11.5 7 L 0 14 z" class="arrowMarkerPath" style="stroke-width: 0; stroke-dasharray: 1, 0;"/></marker><marker id="my-svg_flowchart-v2-pointStart-margin" class="marker flowchart-v2" viewBox="0 0 11.5 14" refX="1" refY="7" markerUnits="userSpaceOnUse" markerWidth="11.5" markerHeight="14" orient="auto"><polygon points="0,7 11.5,14 11.5,0" class="arrowMarkerPath" style="stroke-width: 0; stroke-dasharray: 1, 0;"/></marker><marker id="my-svg_flowchart-v2-circleEnd" class="marker flowchart-v2" viewBox="0 0 10 10" refX="11" refY="5" markerUnits="userSpaceOnUse" markerWidth="11" markerHeight="11" orient="auto"><circle cx="5" cy="5" r="5" class="arrowMarkerPath" style="stroke-width: 1; stroke-dasharray: 1, 0;"/></marker><marker id="my-svg_flowchart-v2-circleStart" class="marker flowchart-v2" viewBox="0 0 10 10" refX="-1" refY="5" markerUnits="userSpaceOnUse" markerWidth="11" markerHeight="11" orient="auto"><circle cx="5" cy="5" r="5" class="arrowMarkerPath" style="stroke-width: 1; stroke-dasharray: 1, 0;"/></marker><marker id="my-svg_flowchart-v2-circleEnd-margin" class="marker flowchart-v2" viewBox="0 0 10 10" refY="5" refX="12.25" markerUnits="userSpaceOnUse" markerWidth="14" markerHeight="14" orient="auto"><circle cx="5" cy="5" r="5" class="arrowMarkerPath" style="stroke-width: 0; stroke-dasharray: 1, 0;"/></marker><marker id="my-svg_flowchart-v2-circleStart-margin" class="marker flowchart-v2" viewBox="0 0 10 10" refX="-2" refY="5" markerUnits="userSpaceOnUse" markerWidth="14" markerHeight="14" orient="auto"><circle cx="5" cy="5" r="5" class="arrowMarkerPath" style="stroke-width: 0; stroke-dasharray: 1, 0;"/></marker><marker id="my-svg_flowchart-v2-crossEnd" class="marker cross flowchart-v2" viewBox="0 0 11 11" refX="12" refY="5.2" markerUnits="userSpaceOnUse" markerWidth="11" markerHeight="11" orient="auto"><path d="M 1,1 l 9,9 M 10,1 l -9,9" class="arrowMarkerPath" style="stroke-width: 2; stroke-dasharray: 1, 0;"/></marker><marker id="my-svg_flowchart-v2-crossStart" class="marker cross flowchart-v2" viewBox="0 0 11 11" refX="-1" refY="5.2" markerUnits="userSpaceOnUse" markerWidth="11" markerHeight="11" orient="auto"><path d="M 1,1 l 9,9 M 10,1 l -9,9" class="arrowMarkerPath" style="stroke-width: 2; stroke-dasharray: 1, 0;"/></marker><marker id="my-svg_flowchart-v2-crossEnd-margin" class="marker cross flowchart-v2" viewBox="0 0 15 15" refX="17.7" refY="7.5" markerUnits="userSpaceOnUse" markerWidth="12" markerHeight="12" orient="auto"><path d="M 1,1 L 14,14 M 1,14 L 14,1" class="arrowMarkerPath" style="stroke-width: 2.5;"/></marker><marker id="my-svg_flowchart-v2-crossStart-margin" class="marker cross flowchart-v2" viewBox="0 0 15 15" refX="-3.5" refY="7.5" markerUnits="userSpaceOnUse" markerWidth="12" markerHeight="12" orient="auto"><path d="M 1,1 L 14,14 M 1,14 L 14,1" class="arrowMarkerPath" style="stroke-width: 2.5; stroke-dasharray: 1, 0;"/></marker><g class="root"><g class="clusters"/><g class="edgePaths"><path d="M682.289,40.5L682.206,44.583C682.122,48.667,681.956,56.833,681.872,64.417C681.789,72,681.789,79,681.789,82.5L681.789,86" id="my-svg-L_Start_Request_0" class="edge-thickness-normal edge-pattern-solid edge-thickness-normal edge-pattern-solid flowchart-link" style=";" data-edge="true" data-et="edge" data-id="L_Start_Request_0" data-points="W3sieCI6NjgyLjI4OTA2MjUsInkiOjQwLjV9LHsieCI6NjgxLjc4OTA2MjUsInkiOjY1fSx7IngiOjY4MS43ODkwNjI1LCJ5Ijo5MH1d" data-look="classic" marker-end="url(#my-svg_flowchart-v2-pointEnd)"/><path d="M681.789,137L681.789,141.167C681.789,145.333,681.789,153.667,681.789,161.333C681.789,169,681.789,176,681.789,179.5L681.789,183" id="my-svg-L_Request_Check_0" class="edge-thickness-normal edge-pattern-solid edge-thickness-normal edge-pattern-solid flowchart-link" style=";" data-edge="true" data-et="edge" data-id="L_Request_Check_0" data-points="W3sieCI6NjgxLjc4OTA2MjUsInkiOjEzN30seyJ4Ijo2ODEuNzg5MDYyNSwieSI6MTYyfSx7IngiOjY4MS43ODkwNjI1LCJ5IjoxODd9XQ==" data-look="classic" marker-end="url(#my-svg_flowchart-v2-pointEnd)"/><path d="M615.601,279.812L531.334,296.76C447.067,313.708,278.534,347.604,194.267,376.335C110,405.067,110,428.633,110,440.417L110,452.2" id="my-svg-L_Check_Done_0" class="edge-thickness-normal edge-pattern-solid edge-thickness-normal edge-pattern-solid flowchart-link" style=";" data-edge="true" data-et="edge" data-id="L_Check_Done_0" data-points="W3sieCI6NjE1LjYwMTAxMDA4MjE1ODgsInkiOjI3OS44MTE5NDc1ODIxNTg4NH0seyJ4IjoxMTAsInkiOjM4MS41fSx7IngiOjExMCwieSI6NDU2LjIwMDAwMDc2MjkzOTQ1fV0=" data-look="classic" marker-end="url(#my-svg_flowchart-v2-pointEnd)"/><path d="M622.023,286.234L573.936,302.112C525.849,317.989,429.674,349.745,381.587,370.872C333.5,392,333.5,402.5,333.5,407.75L333.5,413" id="my-svg-L_Check_L1_0" class="edge-thickness-normal edge-pattern-solid edge-thickness-normal edge-pattern-solid flowchart-link" style=";" data-edge="true" data-et="edge" data-id="L_Check_L1_0" data-points="W3sieCI6NjIyLjAyMjk2MjQzNDIzMzgsInkiOjI4Ni4yMzM4OTk5MzQyMzM4fSx7IngiOjMzMy41LCJ5IjozODEuNX0seyJ4IjozMzMuNSwieSI6NDE3fV0=" data-look="classic" marker-end="url(#my-svg_flowchart-v2-pointEnd)"/><path d="M296.974,523.474L284.436,535.478C271.899,547.482,246.825,571.491,234.287,596.612C221.75,621.733,221.75,647.967,221.75,661.083L221.75,674.2" id="my-svg-L_L1_L2_0" class="edge-thickness-normal edge-pattern-solid edge-thickness-normal edge-pattern-solid flowchart-link" style=";" data-edge="true" data-et="edge" data-id="L_L1_L2_0" data-points="W3sieCI6Mjk2Ljk3MzcxNDI4NTcxNDI3LCJ5Ijo1MjMuNDczNzE0Mjg1NzE0M30seyJ4IjoyMjEuNzUsInkiOjU5NS41fSx7IngiOjIyMS43NSwieSI6Njc4LjIwMDAwMDc2MjkzOTV9XQ==" data-look="classic" marker-end="url(#my-svg_flowchart-v2-pointEnd)"/><path d="M373.602,519.898L389.696,532.498C405.79,545.098,437.977,570.299,454.07,588.15C470.164,606,470.164,616.5,470.164,621.75L470.164,627" id="my-svg-L_L1_L3_0" class="edge-thickness-normal edge-pattern-solid edge-thickness-normal edge-pattern-solid flowchart-link" style=";" data-edge="true" data-et="edge" data-id="L_L1_L3_0" data-points="W3sieCI6MzczLjYwMjI2MzYxODU4MzUsInkiOjUxOS44OTc3MzYzODE0MTY1fSx7IngiOjQ3MC4xNjQwNjI1LCJ5Ijo1OTUuNX0seyJ4Ijo0NzAuMTY0MDYyNSwieSI6NjMxfV0=" data-look="classic" marker-end="url(#my-svg_flowchart-v2-pointEnd)"/><path d="M432.339,752.175L421.248,764.396C410.156,776.617,387.972,801.058,376.881,835.113C365.789,869.167,365.789,912.833,365.789,956.5C365.789,1000.167,365.789,1043.833,408.245,1075.81C450.701,1107.786,535.612,1128.072,578.068,1138.215L620.524,1148.358" id="my-svg-L_L3_Stop_0" class="edge-thickness-normal edge-pattern-solid edge-thickness-normal edge-pattern-solid flowchart-link" style=";" data-edge="true" data-et="edge" data-id="L_L3_Stop_0" data-points="W3sieCI6NDMyLjMzOTI3NjE3NTIxMzcsInkiOjc1Mi4xNzUyMTM2NzUyMTM2fSx7IngiOjM2NS43ODkwNjI1LCJ5Ijo4MjUuNX0seyJ4IjozNjUuNzg5MDYyNSwieSI6OTU2LjV9LHsieCI6MzY1Ljc4OTA2MjUsInkiOjEwODcuNX0seyJ4Ijo2MjQuNDE0MDYyNSwieSI6MTE0OS4yODc2NzkwODEwNzQ3fV0=" data-look="classic" marker-end="url(#my-svg_flowchart-v2-pointEnd)"/><path d="M500.312,759.852L506.996,770.794C513.679,781.735,527.047,803.617,533.73,819.809C540.414,836,540.414,846.5,540.414,851.75L540.414,857" id="my-svg-L_L3_L4_0" class="edge-thickness-normal edge-pattern-solid edge-thickness-normal edge-pattern-solid flowchart-link" style=";" data-edge="true" data-et="edge" data-id="L_L3_L4_0" data-points="W3sieCI6NTAwLjMxMTgzNTc3OTM1MjI0LCJ5Ijo3NTkuODUyMjI2NzIwNjQ3OH0seyJ4Ijo1NDAuNDE0MDYyNSwieSI6ODI1LjV9LHsieCI6NTQwLjQxNDA2MjUsInkiOjg2MX1d" data-look="classic" marker-end="url(#my-svg_flowchart-v2-pointEnd)"/><path d="M501.683,1013.269L493.243,1025.641C484.802,1038.013,467.92,1062.756,426.29,1084.176C384.659,1105.595,318.279,1123.69,285.088,1132.738L251.898,1141.785" id="my-svg-L_L4_L5_0" class="edge-thickness-normal edge-pattern-solid edge-thickness-normal edge-pattern-solid flowchart-link" style=";" data-edge="true" data-et="edge" data-id="L_L4_L5_0" data-points="W3sieCI6NTAxLjY4MzIwNjAwNTM4ODU3LCJ5IjoxMDEzLjI2OTE0MzUwNTM4ODZ9LHsieCI6NDUxLjAzOTA2MjUsInkiOjEwODcuNX0seyJ4IjoyNDguMDM5MDYyNSwieSI6MTE0Mi44MzczNjU0NDU3MTczfV0=" data-look="classic" marker-end="url(#my-svg_flowchart-v2-pointEnd)"/><path d="M578.919,1013.495L587.251,1025.83C595.584,1038.164,612.249,1062.832,626.825,1083.483C641.4,1104.134,653.886,1120.767,660.129,1129.084L666.372,1137.401" id="my-svg-L_L4_Stop_0" class="edge-thickness-normal edge-pattern-solid edge-thickness-normal edge-pattern-solid flowchart-link" style=";" data-edge="true" data-et="edge" data-id="L_L4_Stop_0" data-points="W3sieCI6NTc4LjkxODYxODMwODY1NiwieSI6MTAxMy40OTU0NDQxOTEzNDR9LHsieCI6NjI4LjkxNDA2MjUsInkiOjEwODcuNX0seyJ4Ijo2NjguNzczNzIyNzIzMDE1MywieSI6MTE0MC41OTk5OTg0NzQxMjF9XQ==" data-look="classic" marker-end="url(#my-svg_flowchart-v2-pointEnd)"/><path d="M716.363,311.426L725.35,323.105C734.338,334.784,752.314,358.142,761.301,387.654C770.289,417.167,770.289,452.833,770.289,488.5C770.289,524.167,770.289,559.833,770.289,596.833C770.289,633.833,770.289,672.167,770.289,710.5C770.289,748.833,770.289,787.167,770.289,815.583C770.289,844,770.289,862.5,770.289,871.75L770.289,881" id="my-svg-L_Check_C1_0" class="edge-thickness-normal edge-pattern-solid edge-thickness-normal edge-pattern-solid flowchart-link" style=";" data-edge="true" data-et="edge" data-id="L_Check_C1_0" data-points="W3sieCI6NzE2LjM2Mjc3MjU3MzcxMDEsInkiOjMxMS40MjYyODk5MjYyODk5NH0seyJ4Ijo3NzAuMjg5MDYyNSwieSI6MzgxLjV9LHsieCI6NzcwLjI4OTA2MjUsInkiOjQ4OC41fSx7IngiOjc3MC4yODkwNjI1LCJ5Ijo1OTUuNX0seyJ4Ijo3NzAuMjg5MDYyNSwieSI6NzEwLjV9LHsieCI6NzcwLjI4OTA2MjUsInkiOjgyNS41fSx7IngiOjc3MC4yODkwNjI1LCJ5Ijo4ODV9XQ==" data-look="classic" marker-end="url(#my-svg_flowchart-v2-pointEnd)"/><path d="M739.097,996.808L727.4,1011.923C715.703,1027.038,692.308,1057.269,649.692,1080.84C607.075,1104.41,545.236,1121.32,514.317,1129.775L483.397,1138.229" id="my-svg-L_C1_C2_0" class="edge-thickness-normal edge-pattern-solid edge-thickness-normal edge-pattern-solid flowchart-link" style=";" data-edge="true" data-et="edge" data-id="L_C1_C2_0" data-points="W3sieCI6NzM5LjA5Njc1NDgwNzY5MjMsInkiOjk5Ni44MDc2OTIzMDc2OTIzfSx7IngiOjY2OC45MTQwNjI1LCJ5IjoxMDg3LjV9LHsieCI6NDc5LjUzOTA2MjUsInkiOjExMzkuMjg0NDcwMTg2NjU0N31d" data-look="classic" marker-end="url(#my-svg_flowchart-v2-pointEnd)"/><path d="M799.117,999.172L809.062,1013.893C819.008,1028.615,838.898,1058.057,829.538,1081.358C820.177,1104.659,781.564,1121.817,762.258,1130.396L742.952,1138.976" id="my-svg-L_C1_Stop_0" class="edge-thickness-normal edge-pattern-solid edge-thickness-normal edge-pattern-solid flowchart-link" style=";" data-edge="true" data-et="edge" data-id="L_C1_Stop_0" data-points="W3sieCI6Nzk5LjExNzA4MDcyMzIzNDYsInkiOjk5OS4xNzE5ODE3NzY3NjU0fSx7IngiOjg1OC43ODkwNjI1LCJ5IjoxMDg3LjV9LHsieCI6NzM5LjI5NjczMzI2NjIyMTMsInkiOjExNDAuNTk5OTk4NDc0MTIxfV0=" data-look="classic" marker-end="url(#my-svg_flowchart-v2-pointEnd)"/><path d="M740.272,287.517L783.858,303.181C827.444,318.845,914.617,350.172,958.203,383.67C1001.789,417.167,1001.789,452.833,1001.789,488.5C1001.789,524.167,1001.789,559.833,1001.789,596.833C1001.789,633.833,1001.789,672.167,1001.789,710.5C1001.789,748.833,1001.789,787.167,1001.789,811.583C1001.789,836,1001.789,846.5,1001.789,851.75L1001.789,857" id="my-svg-L_Check_R1_0" class="edge-thickness-normal edge-pattern-solid edge-thickness-normal edge-pattern-solid flowchart-link" style=";" data-edge="true" data-et="edge" data-id="L_Check_R1_0" data-points="W3sieCI6NzQwLjI3MTgyMTEyMDY4OTcsInkiOjI4Ny41MTcyNDEzNzkzMTAzNX0seyJ4IjoxMDAxLjc4OTA2MjUsInkiOjM4MS41fSx7IngiOjEwMDEuNzg5MDYyNSwieSI6NDg4LjV9LHsieCI6MTAwMS43ODkwNjI1LCJ5Ijo1OTUuNX0seyJ4IjoxMDAxLjc4OTA2MjUsInkiOjcxMC41fSx7IngiOjEwMDEuNzg5MDYyNSwieSI6ODI1LjV9LHsieCI6MTAwMS43ODkwNjI1LCJ5Ijo4NjF9XQ==" data-look="classic" marker-end="url(#my-svg_flowchart-v2-pointEnd)"/><path d="M989.14,1039.351L987.915,1047.376C986.69,1055.401,984.239,1071.45,989.103,1084.946C993.967,1098.442,1006.145,1109.384,1012.234,1114.855L1018.323,1120.327" id="my-svg-L_R1_R2_0" class="edge-thickness-normal edge-pattern-solid edge-thickness-normal edge-pattern-solid flowchart-link" style=";" data-edge="true" data-et="edge" data-id="L_R1_R2_0" data-points="W3sieCI6OTg5LjE0MDA1NTg3NzQ4MzQsInkiOjEwMzkuMzUwOTkzMzc3NDgzNX0seyJ4Ijo5ODEuNzg5MDYyNSwieSI6MTA4Ny41fSx7IngiOjEwMjEuMjk3ODc1Mjk3NDYzLCJ5IjoxMTIzfV0=" data-look="classic" marker-end="url(#my-svg_flowchart-v2-pointEnd)"/><path d="M1028.266,1025.523L1032.228,1035.853C1036.19,1046.182,1044.115,1066.841,998.125,1087.636C952.136,1108.43,852.232,1129.36,802.281,1139.825L752.329,1150.291" id="my-svg-L_R1_Stop_0" class="edge-thickness-normal edge-pattern-solid edge-thickness-normal edge-pattern-solid flowchart-link" style=";" data-edge="true" data-et="edge" data-id="L_R1_Stop_0" data-points="W3sieCI6MTAyOC4yNjU2MTQyMjQxMzc4LCJ5IjoxMDI1LjUyMzQ0ODI3NTg2MjJ9LHsieCI6MTA1Mi4wMzkwNjI1LCJ5IjoxMDg3LjV9LHsieCI6NzQ4LjQxNDA2MjUsInkiOjExNTEuMTEwNzMzNzc1NjAzNH1d" data-look="classic" marker-end="url(#my-svg_flowchart-v2-pointEnd)"/><path d="M745.122,282.667L809.65,299.139C874.178,315.611,1003.233,348.556,1067.761,382.861C1132.289,417.167,1132.289,452.833,1132.289,488.5C1132.289,524.167,1132.289,559.833,1132.289,596.833C1132.289,633.833,1132.289,672.167,1132.289,710.5C1132.289,748.833,1132.289,787.167,1132.289,828.167C1132.289,869.167,1132.289,912.833,1132.289,956.5C1132.289,1000.167,1132.289,1043.833,1068.967,1076.545C1005.645,1109.257,879.001,1131.014,815.678,1141.893L752.356,1152.771" id="my-svg-L_Check_Stop_0" class="edge-thickness-normal edge-pattern-solid edge-thickness-normal edge-pattern-solid flowchart-link" style=";" data-edge="true" data-et="edge" data-id="L_Check_Stop_0" data-points="W3sieCI6NzQ1LjEyMTk1Mzc0NjY4NDMsInkiOjI4Mi42NjcxMDg3NTMzMTU2M30seyJ4IjoxMTMyLjI4OTA2MjUsInkiOjM4MS41fSx7IngiOjExMzIuMjg5MDYyNSwieSI6NDg4LjV9LHsieCI6MTEzMi4yODkwNjI1LCJ5Ijo1OTUuNX0seyJ4IjoxMTMyLjI4OTA2MjUsInkiOjcxMC41fSx7IngiOjExMzIuMjg5MDYyNSwieSI6ODI1LjV9LHsieCI6MTEzMi4yODkwNjI1LCJ5Ijo5NTYuNX0seyJ4IjoxMTMyLjI4OTA2MjUsInkiOjEwODcuNX0seyJ4Ijo3NDguNDE0MDYyNSwieSI6MTE1My40NDg1ODI5MzA3NjE0fV0=" data-look="classic" marker-end="url(#my-svg_flowchart-v2-pointEnd)"/></g><g class="edgeLabels"><g class="edgeLabel"><g class="label" data-id="L_Start_Request_0" transform="translate(0, 0)"><text y="-10.1" text-anchor="middle"><tspan class="text-outer-tspan row" x="0" y="-0.1em" dy="1.1em" text-anchor="middle"/></text></g></g><g><rect class="background" style="stroke: none"/></g><g class="edgeLabel"><g class="label" data-id="L_Request_Check_0" transform="translate(0, 0)"><text y="-10.1" text-anchor="middle"><tspan class="text-outer-tspan row" x="0" y="-0.1em" dy="1.1em" text-anchor="middle"/></text></g></g><g><rect class="background" style="stroke: none"/></g><g class="edgeLabel" transform="translate(110, 381.5)"><g class="label" data-id="L_Check_Done_0" transform="translate(-0.046875, -10.5)"><g><rect class="background" style="" x="-52.6875" y="0" width="105.46875" height="21"/><text y="-10.1" text-anchor="middle" style=""><tspan class="text-outer-tspan row" x="0" y="-0.1em" dy="1.1em" text-anchor="middle"><tspan font-style="normal" class="text-inner-tspan" font-weight="normal">完整</tspan><tspan font-style="normal" class="text-inner-tspan" font-weight="normal"> message</tspan></tspan></text></g></g></g><g class="edgeLabel" transform="translate(333.5, 381.5)"><g class="label" data-id="L_Check_L1_0" transform="translate(0, -10.5)"><g><rect class="background" style="" x="-34" y="0" width="68" height="21"/><text y="-10.1" text-anchor="middle" style=""><tspan class="text-outer-tspan row" x="0" y="-0.1em" dy="1.1em" text-anchor="middle"><tspan font-style="normal" class="text-inner-tspan" font-weight="normal">输出截断</tspan></tspan></text></g></g></g><g class="edgeLabel" transform="translate(221.75, 595.5)"><g class="label" data-id="L_L1_L2_0" transform="translate(0, -10.5)"><g><rect class="background" style="" x="-10" y="0" width="20" height="21"/><text y="-10.1" text-anchor="middle" style=""><tspan class="text-outer-tspan row" x="0" y="-0.1em" dy="1.1em" text-anchor="middle"><tspan font-style="normal" class="text-inner-tspan" font-weight="normal">是</tspan></tspan></text></g></g></g><g class="edgeLabel" transform="translate(470.1640625, 595.5)"><g class="label" data-id="L_L1_L3_0" transform="translate(0, -10.5)"><g><rect class="background" style="" x="-10" y="0" width="20" height="21"/><text y="-10.1" text-anchor="middle" style=""><tspan class="text-outer-tspan row" x="0" y="-0.1em" dy="1.1em" text-anchor="middle"><tspan font-style="normal" class="text-inner-tspan" font-weight="normal">否</tspan></tspan></text></g></g></g><g class="edgeLabel" transform="translate(365.7890625, 956.5)"><g class="label" data-id="L_L3_Stop_0" transform="translate(0, -10.5)"><g><rect class="background" style="" x="-10" y="0" width="20" height="21"/><text y="-10.1" text-anchor="middle" style=""><tspan class="text-outer-tspan row" x="0" y="-0.1em" dy="1.1em" text-anchor="middle"><tspan font-style="normal" class="text-inner-tspan" font-weight="normal">否</tspan></tspan></text></g></g></g><g class="edgeLabel" transform="translate(540.4140625, 825.5)"><g class="label" data-id="L_L3_L4_0" transform="translate(0, -10.5)"><g><rect class="background" style="" x="-10" y="0" width="20" height="21"/><text y="-10.1" text-anchor="middle" style=""><tspan class="text-outer-tspan row" x="0" y="-0.1em" dy="1.1em" text-anchor="middle"><tspan font-style="normal" class="text-inner-tspan" font-weight="normal">是</tspan></tspan></text></g></g></g><g class="edgeLabel" transform="translate(392.88794, 1103.35187)"><g class="label" data-id="L_L4_L5_0" transform="translate(0, -10.5)"><g><rect class="background" style="" x="-10" y="0" width="20" height="21"/><text y="-10.1" text-anchor="middle" style=""><tspan class="text-outer-tspan row" x="0" y="-0.1em" dy="1.1em" text-anchor="middle"><tspan font-style="normal" class="text-inner-tspan" font-weight="normal">是</tspan></tspan></text></g></g></g><g class="edgeLabel" transform="translate(622.50048, 1078.00645)"><g class="label" data-id="L_L4_Stop_0" transform="translate(0, -10.5)"><g><rect class="background" style="" x="-10" y="0" width="20" height="21"/><text y="-10.1" text-anchor="middle" style=""><tspan class="text-outer-tspan row" x="0" y="-0.1em" dy="1.1em" text-anchor="middle"><tspan font-style="normal" class="text-inner-tspan" font-weight="normal">否</tspan></tspan></text></g></g></g><g class="edgeLabel" transform="translate(770.2890625, 595.5)"><g class="label" data-id="L_Check_C1_0" transform="translate(0, -10.5)"><g><rect class="background" style="" x="-42" y="0" width="84" height="21"/><text y="-10.1" text-anchor="middle" style=""><tspan class="text-outer-tspan row" x="0" y="-0.1em" dy="1.1em" text-anchor="middle"><tspan font-style="normal" class="text-inner-tspan" font-weight="normal">上下文超限</tspan></tspan></text></g></g></g><g class="edgeLabel" transform="translate(629.53429, 1098.26837)"><g class="label" data-id="L_C1_C2_0" transform="translate(0, -10.5)"><g><rect class="background" style="" x="-10" y="0" width="20" height="21"/><text y="-10.1" text-anchor="middle" style=""><tspan class="text-outer-tspan row" x="0" y="-0.1em" dy="1.1em" text-anchor="middle"><tspan font-style="normal" class="text-inner-tspan" font-weight="normal">否</tspan></tspan></text></g></g></g><g class="edgeLabel" transform="translate(847.74813, 1092.40637)"><g class="label" data-id="L_C1_Stop_0" transform="translate(0, -10.5)"><g><rect class="background" style="" x="-10" y="0" width="20" height="21"/><text y="-10.1" text-anchor="middle" style=""><tspan class="text-outer-tspan row" x="0" y="-0.1em" dy="1.1em" text-anchor="middle"><tspan font-style="normal" class="text-inner-tspan" font-weight="normal">是</tspan></tspan></text></g></g></g><g class="edgeLabel" transform="translate(1001.7890625, 595.5)"><g class="label" data-id="L_Check_R1_0" transform="translate(-0.05078125, -10.5)"><g><rect class="background" style="" x="-35.3671875" y="0" width="70.8359375" height="21"/><text y="-10.1" text-anchor="middle" style=""><tspan class="text-outer-tspan row" x="0" y="-0.1em" dy="1.1em" text-anchor="middle"><tspan font-style="normal" class="text-inner-tspan" font-weight="normal">429</tspan><tspan font-style="normal" class="text-inner-tspan" font-weight="normal"> /</tspan><tspan font-style="normal" class="text-inner-tspan" font-weight="normal"> 529</tspan></tspan></text></g></g></g><g class="edgeLabel" transform="translate(983.42848, 1088.97307)"><g class="label" data-id="L_R1_R2_0" transform="translate(0, -10.5)"><g><rect class="background" style="" x="-10" y="0" width="20" height="21"/><text y="-10.1" text-anchor="middle" style=""><tspan class="text-outer-tspan row" x="0" y="-0.1em" dy="1.1em" text-anchor="middle"><tspan font-style="normal" class="text-inner-tspan" font-weight="normal">是</tspan></tspan></text></g></g></g><g class="edgeLabel" transform="translate(1052.0390625, 1087.5)"><g class="label" data-id="L_R1_Stop_0" transform="translate(0, -10.5)"><g><rect class="background" style="" x="-10" y="0" width="20" height="21"/><text y="-10.1" text-anchor="middle" style=""><tspan class="text-outer-tspan row" x="0" y="-0.1em" dy="1.1em" text-anchor="middle"><tspan font-style="normal" class="text-inner-tspan" font-weight="normal">否</tspan></tspan></text></g></g></g><g class="edgeLabel" transform="translate(1132.2890625, 710.5)"><g class="label" data-id="L_Check_Stop_0" transform="translate(0, -10.5)"><g><rect class="background" style="" x="-34" y="0" width="68" height="21"/><text y="-10.1" text-anchor="middle" style=""><tspan class="text-outer-tspan row" x="0" y="-0.1em" dy="1.1em" text-anchor="middle"><tspan font-style="normal" class="text-inner-tspan" font-weight="normal">普通错误</tspan></tspan></text></g></g></g></g><g class="nodes"><g class="node default" id="my-svg-flowchart-Start-0" data-look="classic" transform="translate(681.7890625, 24)"><g class="basic label-container outer-path"><path d="M-11.5 -16 C-5.100994584881909 -16, 1.2980108302361817 -16, 11.5 -16 C11.5 -16, 11.5 -16, 11.499999999999998 -16 C11.75143836707625 -15.991936860962957, 12.002876734152505 -15.983873721925912, 12.525123519691405 -15.967126284005381 C12.896452553379659 -15.931304618713977, 13.267781587067912 -15.895482953422572, 13.546034586952095 -15.868640221171939 C13.831951992953028 -15.822415312292307, 14.117869398953964 -15.776190403412675, 14.558538059221954 -15.704946511857047 C14.835578269304536 -15.641713891762022, 15.11261847938712 -15.578481271666995, 15.558473342552116 -15.476717808624471 C15.945890486237152 -15.361734433972838, 16.33330762992219 -15.246751059321204, 16.54173148837793 -15.184891952170698 C16.79336959051272 -15.092286804467978, 17.045007692647513 -14.999681656765258, 17.504272078069985 -14.830668117536348 C17.692142443606446 -14.747503479689742, 17.88001280914291 -14.664338841843135, 18.44213982588093 -14.415501886438706 C18.674123272627934 -14.294476270863283, 18.90610671937494 -14.17345065528786, 19.351480832063 -13.941099265974232 C19.661075306386746 -13.753421276260099, 19.97066978071049 -13.565743286545967, 20.228558419368778 -13.409409678269451 C20.473626729798188 -13.23846063375007, 20.718695040227594 -13.067511589230689, 21.069768487859456 -12.822617949887306 C21.389343368432982 -12.567765486874647, 21.708918249006505 -12.31291302386199, 21.871654324924613 -12.183135333906153 C22.069385621615766 -12.00356100193467, 22.267116918306918 -11.823986669963189, 22.630920809655784 -11.493589601563642 C22.90342140378556 -11.212210365409794, 23.175921997915335 -10.930831129255948, 23.344447953205048 -10.756814244181072 C23.525318719091405 -10.544353150732823, 23.706189484977763 -10.331892057284572, 24.00930371948848 -9.975836829739738 C24.215312304675493 -9.699804093357336, 24.42132088986251 -9.423771356974934, 24.62275607355129 -9.153866561954718 C24.76394504986873 -8.936962379782448, 24.905134026186175 -8.72005819761018, 25.182284208085537 -8.294281092968403 C25.283446759769515 -8.114656738634343, 25.38460931145349 -7.935032384300284, 25.685588901968003 -7.400612643853364 C25.796707465346717 -7.169872569441086, 25.907826028725427 -6.939132495028808, 26.130601968252996 -6.476533489958305 C26.25424004507896 -6.171145049818584, 26.377878121904917 -5.865756609678862, 26.515494752796165 -5.52584087074093 C26.584803173835365 -5.317094949368114, 26.654111594874564 -5.108349027995298, 26.83868564858657 -4.552441386096524 C26.908888180940217 -4.284728704262077, 26.979090713293864 -4.017016022427631, 27.098846594909176 -3.560334943301032 C27.157098491064616 -3.261223768085463, 27.215350387220056 -2.962112592869894, 27.2949085346312 -2.5535983205340735 C27.326078740226286 -2.3118483611918994, 27.35724894582137 -2.070098401849725, 27.42606580718717 -1.536368414522911 C27.451408551507143 -1.1416347154443125, 27.476751295827118 -0.746901016365714, 27.491779459211006 -0.5128252411464826 C27.491779459211006 -0.2616833172624221, 27.491779459211006 -0.010541393378361574, 27.491779459211006 0.5128252411464788 C27.47429206239093 0.785205562191793, 27.456804665570857 1.0575858832371074, 27.42606580718717 1.5363684145229002 C27.379274210997846 1.8992747945215276, 27.332482614808523 2.2621811745201548, 27.294908534631205 2.5535983205340624 C27.246990352621143 2.799648057644368, 27.199072170611082 3.0456977947546733, 27.098846594909176 3.5603349433010285 C27.00141195926135 3.931895437464403, 26.903977323613525 4.303455931627777, 26.83868564858657 4.552441386096513 C26.75032788817537 4.818560882557739, 26.66197012776417 5.084680379018963, 26.515494752796165 5.525840870740919 C26.413952772107695 5.7766515262220866, 26.312410791419225 6.027462181703255, 26.130601968253 6.4765334899583005 C25.95370994301956 6.84385356523855, 25.776817917786122 7.211173640518799, 25.685588901968003 7.400612643853361 C25.48681001684468 7.753564682934605, 25.288031131721358 8.106516722015849, 25.18228420808554 8.294281092968399 C25.032422785038133 8.524508482195918, 24.882561361990724 8.754735871423437, 24.622756073551297 9.15386656195471 C24.386390863743536 9.470574409783513, 24.150025653935774 9.787282257612318, 24.00930371948848 9.975836829739734 C23.7745439698957 10.251598989819588, 23.53978422030292 10.52736114989944, 23.344447953205055 10.756814244181063 C23.090677718949234 11.018852845973907, 22.836907484693413 11.280891447766752, 22.630920809655784 11.493589601563638 C22.400953372016055 11.702439943823068, 22.170985934376326 11.9112902860825, 21.871654324924627 12.183135333906142 C21.643282383834904 12.365255879692615, 21.41491044274518 12.54737642547909, 21.06976848785946 12.822617949887304 C20.7339815225109 13.05684840093101, 20.398194557162338 13.291078851974715, 20.228558419368788 13.409409678269446 C20.05097301950893 13.517062991272141, 19.873387619649073 13.624716304274834, 19.351480832063004 13.94109926597423 C19.01791849855048 14.115118521710844, 18.68435616503795 14.289137777447458, 18.442139825880933 14.415501886438705 C18.096076158959686 14.5686940061708, 17.75001249203844 14.721886125902893, 17.50427207806999 14.830668117536346 C17.18488707002513 14.948204752859505, 16.86550206198027 15.065741388182664, 16.54173148837794 15.184891952170695 C16.249783794638418 15.27154049520787, 15.957836100898891 15.358189038245046, 15.558473342552134 15.476717808624468 C15.222279060163864 15.55345195970687, 14.886084777775594 15.630186110789271, 14.558538059221961 15.704946511857045 C14.260864537922668 15.75307205828808, 13.963191016623375 15.801197604719114, 13.546034586952105 15.868640221171937 C13.14037773582709 15.907773449726225, 12.734720884702075 15.946906678280513, 12.525123519691405 15.967126284005381 C12.283738169572851 15.974867042355601, 12.042352819454297 15.982607800705823, 11.500000000000004 16 C11.500000000000002 16, 11.5 16, 11.5 16 C4.92824396072226 16, -1.6435120785554798 16, -11.499999999999996 16 C-11.88210956126233 15.987746490101458, -12.264219122524667 15.975492980202917, -12.5251235196914 15.967126284005381 C-12.87389713056255 15.933480513226279, -13.222670741433701 15.899834742447174, -13.5460345869521 15.868640221171937 C-13.801624533636222 15.827318420721689, -14.057214480320344 15.785996620271439, -14.558538059221956 15.704946511857045 C-14.784773697924917 15.653309703648606, -15.011009336627877 15.601672895440169, -15.558473342552112 15.476717808624471 C-15.923669328588252 15.368329556921795, -16.288865314624392 15.259941305219117, -16.541731488377923 15.184891952170702 C-16.892381864704898 15.055849372305829, -17.243032241031877 14.926806792440955, -17.504272078069988 14.830668117536348 C-17.82444719943058 14.688936088967537, -18.144622320791175 14.547204060398725, -18.44213982588093 14.415501886438708 C-18.72506761768738 14.267898638677183, -19.00799540949383 14.120295390915658, -19.351480832063 13.941099265974234 C-19.650899419272786 13.759589958828734, -19.95031800648257 13.578080651683232, -20.228558419368767 13.409409678269457 C-20.49394737524671 13.224285831151745, -20.75933633112465 13.039161984034031, -21.069768487859456 12.822617949887308 C-21.292538223067517 12.6449650142105, -21.515307958275574 12.467312078533693, -21.871654324924613 12.183135333906154 C-22.049044294847402 12.022034456703686, -22.22643426477019 11.86093357950122, -22.630920809655777 11.493589601563649 C-22.832961569987262 11.284965928666473, -23.035002330318747 11.0763422557693, -23.344447953205048 10.756814244181069 C-23.54514320661427 10.521066179643169, -23.74583846002349 10.285318115105268, -24.009303719488475 9.97583682973974 C-24.172682208832803 9.756924538104913, -24.336060698177132 9.538012246470087, -24.62275607355129 9.15386656195472 C-24.832293522239496 8.831960772086303, -25.041830970927705 8.510054982217886, -25.182284208085534 8.29428109296841 C-25.355821021568183 7.986148908122105, -25.52935783505083 7.678016723275799, -25.685588901968 7.400612643853366 C-25.78075605664418 7.2029960109173725, -25.875923211320355 7.005379377981379, -26.130601968252996 6.476533489958307 C-26.23254723860717 6.224726701205775, -26.33449250896135 5.972919912453243, -26.515494752796165 5.525840870740931 C-26.616908909328366 5.220397589417459, -26.71832306586057 4.914954308093986, -26.83868564858657 4.552441386096519 C-26.93529067190592 4.18404456329787, -27.031895695225277 3.8156477404992204, -27.098846594909176 3.5603349433010343 C-27.159037022950322 3.251269816561215, -27.219227450991472 2.942204689821396, -27.2949085346312 2.5535983205340753 C-27.338062280579095 2.2189063886332097, -27.38121602652699 1.884214456732344, -27.42606580718717 1.5363684145229202 C-27.451279342750844 1.143647246119133, -27.476492878314517 0.7509260777153457, -27.491779459211006 0.5128252411464846 C-27.491779459211006 0.22964583955450735, -27.491779459211006 -0.05353356203746995, -27.491779459211006 -0.5128252411464769 C-27.474866327465907 -0.7762609201105941, -27.457953195720812 -1.0396965990747113, -27.42606580718717 -1.5363684145228982 C-27.373736537384236 -1.942223897531342, -27.321407267581304 -2.3480793805397857, -27.294908534631205 -2.5535983205340678 C-27.23956568209337 -2.8377721715998097, -27.184222829555537 -3.121946022665552, -27.098846594909176 -3.5603349433010267 C-27.000186769972256 -3.9365676152241242, -26.901526945035332 -4.312800287147222, -26.838685648586573 -4.552441386096511 C-26.714850812350587 -4.9254121824375945, -26.591015976114598 -5.298382978778678, -26.515494752796172 -5.525840870740911 C-26.390179487616642 -5.835371998540183, -26.264864222437108 -6.144903126339456, -26.130601968253 -6.476533489958299 C-25.96307181769614 -6.824413432160606, -25.79554166713928 -7.172293374362914, -25.685588901968003 -7.400612643853359 C-25.496281253333823 -7.736747543481438, -25.306973604699643 -8.072882443109517, -25.182284208085537 -8.294281092968404 C-25.038958599008986 -8.514467716824894, -24.895632989932437 -8.734654340681384, -24.622756073551294 -9.153866561954715 C-24.43325949643241 -9.407774711800698, -24.24376291931353 -9.661682861646682, -24.00930371948848 -9.975836829739734 C-23.832868128990512 -10.183088113808154, -23.656432538492542 -10.390339397876572, -23.344447953205055 -10.756814244181063 C-23.165439078857116 -10.941655603847218, -22.98643020450918 -11.126496963513373, -22.63092080965579 -11.493589601563633 C-22.45751848743626 -11.651069002629377, -22.28411616521673 -11.808548403695124, -21.871654324924627 -12.18313533390614 C-21.671291364540558 -12.342919462930135, -21.470928404156485 -12.502703591954132, -21.069768487859463 -12.822617949887302 C-20.872115627200113 -12.960492029228828, -20.674462766540767 -13.098366108570355, -20.228558419368788 -13.409409678269444 C-19.938677290351404 -13.585137322210388, -19.648796161334015 -13.760864966151331, -19.351480832063007 -13.941099265974229 C-19.130594909394958 -14.056335310345965, -18.90970898672691 -14.1715713547177, -18.442139825880936 -14.415501886438705 C-18.24730105169642 -14.501751232083306, -18.052462277511907 -14.588000577727906, -17.504272078069995 -14.830668117536344 C-17.207631636097773 -14.939834542296309, -16.91099119412555 -15.049000967056273, -16.54173148837794 -15.184891952170695 C-16.160284939744603 -15.298103285551278, -15.778838391111265 -15.41131461893186, -15.558473342552134 -15.476717808624466 C-15.266963927004744 -15.543252930446444, -14.975454511457356 -15.609788052268422, -14.558538059221963 -15.704946511857043 C-14.214168732923811 -15.760621473908918, -13.869799406625658 -15.816296435960792, -13.546034586952107 -15.868640221171937 C-13.178576324436158 -15.904088477823633, -12.81111806192021 -15.939536734475329, -12.525123519691407 -15.967126284005381 C-12.189035225460184 -15.977903981445197, -11.852946931228963 -15.988681678885014, -11.500000000000005 -16 C-11.500000000000004 -16, -11.500000000000002 -16, -11.5 -16" stroke="none" stroke-width="0" fill="#eee" style=""/><path d="M-11.5 -16 C-5.758422110056567 -16, -0.0168442201131338 -16, 11.5 -16 M-11.5 -16 C-2.9270088392738245 -16, 5.645982321452351 -16, 11.5 -16 M11.5 -16 C11.5 -16, 11.499999999999998 -16, 11.499999999999998 -16 M11.5 -16 C11.5 -16, 11.5 -16, 11.499999999999998 -16 M11.499999999999998 -16 C11.746702992510755 -15.992088715208425, 11.993405985021512 -15.984177430416848, 12.525123519691405 -15.967126284005381 M11.499999999999998 -16 C11.739080329481245 -15.992333159175168, 11.978160658962492 -15.984666318350335, 12.525123519691405 -15.967126284005381 M12.525123519691405 -15.967126284005381 C12.792669712684795 -15.941316424538684, 13.060215905678183 -15.915506565071984, 13.546034586952095 -15.868640221171939 M12.525123519691405 -15.967126284005381 C12.91498996547605 -15.929516336863538, 13.304856411260694 -15.891906389721694, 13.546034586952095 -15.868640221171939 M13.546034586952095 -15.868640221171939 C13.761326496732822 -15.833833494812287, 13.976618406513548 -15.799026768452634, 14.558538059221954 -15.704946511857047 M13.546034586952095 -15.868640221171939 C13.8314517581488 -15.822496186376076, 14.116868929345506 -15.776352151580213, 14.558538059221954 -15.704946511857047 M14.558538059221954 -15.704946511857047 C14.89558051248393 -15.628018771307554, 15.232622965745906 -15.55109103075806, 15.558473342552116 -15.476717808624471 M14.558538059221954 -15.704946511857047 C14.911050565086605 -15.624487832752521, 15.263563070951255 -15.544029153647994, 15.558473342552116 -15.476717808624471 M15.558473342552116 -15.476717808624471 C15.875599269637691 -15.382596498093433, 16.192725196723266 -15.288475187562394, 16.54173148837793 -15.184891952170698 M15.558473342552116 -15.476717808624471 C15.919028188658558 -15.369707022891086, 16.279583034765 -15.262696237157703, 16.54173148837793 -15.184891952170698 M16.54173148837793 -15.184891952170698 C16.73470172510792 -15.113877121256747, 16.927671961837913 -15.042862290342796, 17.504272078069985 -14.830668117536348 M16.54173148837793 -15.184891952170698 C16.740610424918092 -15.111702665107183, 16.939489361458254 -15.038513378043668, 17.504272078069985 -14.830668117536348 M17.504272078069985 -14.830668117536348 C17.698053553647423 -14.744886806621452, 17.89183502922486 -14.659105495706555, 18.44213982588093 -14.415501886438706 M17.504272078069985 -14.830668117536348 C17.841397198503252 -14.68143282718192, 18.178522318936523 -14.532197536827494, 18.44213982588093 -14.415501886438706 M18.44213982588093 -14.415501886438706 C18.696152075933213 -14.282983858289041, 18.950164325985494 -14.150465830139376, 19.351480832063 -13.941099265974232 M18.44213982588093 -14.415501886438706 C18.73222649647113 -14.264163856201177, 19.022313167061334 -14.11282582596365, 19.351480832063 -13.941099265974232 M19.351480832063 -13.941099265974232 C19.578522800697982 -13.803465090341, 19.805564769332964 -13.665830914707765, 20.228558419368778 -13.409409678269451 M19.351480832063 -13.941099265974232 C19.701141473414992 -13.729132930352643, 20.050802114766988 -13.517166594731052, 20.228558419368778 -13.409409678269451 M20.228558419368778 -13.409409678269451 C20.44294815916493 -13.259860676569911, 20.65733789896108 -13.11031167487037, 21.069768487859456 -12.822617949887306 M20.228558419368778 -13.409409678269451 C20.484034508354274 -13.231200617974816, 20.73951059733977 -13.05299155768018, 21.069768487859456 -12.822617949887306 M21.069768487859456 -12.822617949887306 C21.36495102040998 -12.587217735315349, 21.660133552960502 -12.351817520743394, 21.871654324924613 -12.183135333906153 M21.069768487859456 -12.822617949887306 C21.30547448816077 -12.6346486870471, 21.541180488462086 -12.446679424206893, 21.871654324924613 -12.183135333906153 M21.871654324924613 -12.183135333906153 C22.063892243487462 -12.008549942603976, 22.25613016205031 -11.833964551301799, 22.630920809655784 -11.493589601563642 M21.871654324924613 -12.183135333906153 C22.07959090863349 -11.994292830282271, 22.28752749234237 -11.805450326658388, 22.630920809655784 -11.493589601563642 M22.630920809655784 -11.493589601563642 C22.910241405570478 -11.205168153634308, 23.18956200148517 -10.916746705704972, 23.344447953205048 -10.756814244181072 M22.630920809655784 -11.493589601563642 C22.894457627690606 -11.221466200167537, 23.157994445725432 -10.949342798771433, 23.344447953205048 -10.756814244181072 M23.344447953205048 -10.756814244181072 C23.519025519764266 -10.551745500755667, 23.693603086323485 -10.34667675733026, 24.00930371948848 -9.975836829739738 M23.344447953205048 -10.756814244181072 C23.532441907917512 -10.535985847816752, 23.720435862629976 -10.31515745145243, 24.00930371948848 -9.975836829739738 M24.00930371948848 -9.975836829739738 C24.223483560244592 -9.688855355311443, 24.4376634010007 -9.401873880883148, 24.62275607355129 -9.153866561954718 M24.00930371948848 -9.975836829739738 C24.215441971122125 -9.699630352131704, 24.421580222755775 -9.423423874523671, 24.62275607355129 -9.153866561954718 M24.62275607355129 -9.153866561954718 C24.825351985234736 -8.842624836989295, 25.02794789691818 -8.531383112023871, 25.182284208085537 -8.294281092968403 M24.62275607355129 -9.153866561954718 C24.788837730332236 -8.898720537969865, 24.954919387113186 -8.643574513985012, 25.182284208085537 -8.294281092968403 M25.182284208085537 -8.294281092968403 C25.31883207445942 -8.051826529250764, 25.455379940833296 -7.809371965533125, 25.685588901968003 -7.400612643853364 M25.182284208085537 -8.294281092968403 C25.300498486813254 -8.084379670593588, 25.418712765540967 -7.874478248218773, 25.685588901968003 -7.400612643853364 M25.685588901968003 -7.400612643853364 C25.831129305100234 -7.09839488268352, 25.976669708232468 -6.796177121513676, 26.130601968252996 -6.476533489958305 M25.685588901968003 -7.400612643853364 C25.81140858734985 -7.139345375047962, 25.937228272731694 -6.878078106242559, 26.130601968252996 -6.476533489958305 M26.130601968252996 -6.476533489958305 C26.232309390053036 -6.225314191732983, 26.334016811853072 -5.974094893507662, 26.515494752796165 -5.52584087074093 M26.130601968252996 -6.476533489958305 C26.213590736306326 -6.271549628387903, 26.296579504359656 -6.066565766817501, 26.515494752796165 -5.52584087074093 M26.515494752796165 -5.52584087074093 C26.63623471835471 -5.162191331779626, 26.756974683913256 -4.798541792818322, 26.83868564858657 -4.552441386096524 M26.515494752796165 -5.52584087074093 C26.61312550288668 -5.231792606815863, 26.7107562529772 -4.937744342890796, 26.83868564858657 -4.552441386096524 M26.83868564858657 -4.552441386096524 C26.90579128122295 -4.296538525088851, 26.972896913859326 -4.040635664081178, 27.098846594909176 -3.560334943301032 M26.83868564858657 -4.552441386096524 C26.8953281732103 -4.336438890680778, 26.951970697834028 -4.120436395265033, 27.098846594909176 -3.560334943301032 M27.098846594909176 -3.560334943301032 C27.146741306999697 -3.31440571926719, 27.19463601909022 -3.068476495233348, 27.2949085346312 -2.5535983205340735 M27.098846594909176 -3.560334943301032 C27.163391881142992 -3.228908540141458, 27.227937167376812 -2.8974821369818837, 27.2949085346312 -2.5535983205340735 M27.2949085346312 -2.5535983205340735 C27.3388415211419 -2.2128627527065268, 27.382774507652606 -1.8721271848789804, 27.42606580718717 -1.536368414522911 M27.2949085346312 -2.5535983205340735 C27.343393640530156 -2.1775574136488975, 27.391878746429107 -1.8015165067637213, 27.42606580718717 -1.536368414522911 M27.42606580718717 -1.536368414522911 C27.447916228680096 -1.196030462427819, 27.46976665017302 -0.855692510332727, 27.491779459211006 -0.5128252411464826 M27.42606580718717 -1.536368414522911 C27.449625988015267 -1.169399580689649, 27.473186168843363 -0.802430746856387, 27.491779459211006 -0.5128252411464826 M27.491779459211006 -0.5128252411464826 C27.491779459211006 -0.18055611152515139, 27.491779459211006 0.15171301809617987, 27.491779459211006 0.5128252411464788 M27.491779459211006 -0.5128252411464826 C27.491779459211006 -0.2880252491450201, 27.491779459211006 -0.06322525714355753, 27.491779459211006 0.5128252411464788 M27.491779459211006 0.5128252411464788 C27.476753628074377 0.7468646897320963, 27.461727796937744 0.980904138317714, 27.42606580718717 1.5363684145229002 M27.491779459211006 0.5128252411464788 C27.469024602688943 0.8672504988672022, 27.44626974616688 1.2216757565879255, 27.42606580718717 1.5363684145229002 M27.42606580718717 1.5363684145229002 C27.393337628058593 1.790201708934186, 27.360609448930017 2.0440350033454715, 27.294908534631205 2.5535983205340624 M27.42606580718717 1.5363684145229002 C27.384706233975123 1.8571450969840257, 27.34334666076308 2.177921779445151, 27.294908534631205 2.5535983205340624 M27.294908534631205 2.5535983205340624 C27.251403954781438 2.776985143366397, 27.207899374931674 3.0003719661987307, 27.098846594909176 3.5603349433010285 M27.294908534631205 2.5535983205340624 C27.246098585339453 2.8042270941607597, 27.197288636047706 3.054855867787457, 27.098846594909176 3.5603349433010285 M27.098846594909176 3.5603349433010285 C27.024916724867033 3.84226157918008, 26.95098685482489 4.124188215059132, 26.83868564858657 4.552441386096513 M27.098846594909176 3.5603349433010285 C27.017199618897305 3.871690248857534, 26.935552642885437 4.18304555441404, 26.83868564858657 4.552441386096513 M26.83868564858657 4.552441386096513 C26.752943492494015 4.810683099089932, 26.66720133640146 5.068924812083352, 26.515494752796165 5.525840870740919 M26.83868564858657 4.552441386096513 C26.744133793273097 4.837216509508383, 26.649581937959628 5.121991632920253, 26.515494752796165 5.525840870740919 M26.515494752796165 5.525840870740919 C26.418298558352326 5.765917350177785, 26.321102363908487 6.005993829614651, 26.130601968253 6.4765334899583005 M26.515494752796165 5.525840870740919 C26.384093236300583 5.850405156960504, 26.252691719805 6.174969443180089, 26.130601968253 6.4765334899583005 M26.130601968253 6.4765334899583005 C26.008785649001027 6.729487683336707, 25.886969329749057 6.982441876715114, 25.685588901968003 7.400612643853361 M26.130601968253 6.4765334899583005 C26.02382975528625 6.6982482747431344, 25.9170575423195 6.919963059527969, 25.685588901968003 7.400612643853361 M25.685588901968003 7.400612643853361 C25.54167776123754 7.656141446803494, 25.397766620507078 7.911670249753627, 25.18228420808554 8.294281092968399 M25.685588901968003 7.400612643853361 C25.49055384146254 7.746917143222247, 25.295518780957075 8.093221642591134, 25.18228420808554 8.294281092968399 M25.18228420808554 8.294281092968399 C24.965475037684133 8.627358200118982, 24.748665867282725 8.960435307269563, 24.622756073551297 9.15386656195471 M25.18228420808554 8.294281092968399 C24.981100463578528 8.603353349930838, 24.77991671907152 8.912425606893278, 24.622756073551297 9.15386656195471 M24.622756073551297 9.15386656195471 C24.46422907181084 9.366278302179962, 24.30570207007038 9.578690042405213, 24.00930371948848 9.975836829739734 M24.622756073551297 9.15386656195471 C24.405139230150482 9.445453306809524, 24.187522386749666 9.737040051664339, 24.00930371948848 9.975836829739734 M24.00930371948848 9.975836829739734 C23.868501843335057 10.141230725323263, 23.727699967181636 10.30662462090679, 23.344447953205055 10.756814244181063 M24.00930371948848 9.975836829739734 C23.795833519881665 10.22659107299636, 23.58236332027485 10.477345316252986, 23.344447953205055 10.756814244181063 M23.344447953205055 10.756814244181063 C23.07070151272095 11.03947991898164, 22.79695507223685 11.322145593782215, 22.630920809655784 11.493589601563638 M23.344447953205055 10.756814244181063 C23.065423346339415 11.044930059116096, 22.786398739473775 11.33304587405113, 22.630920809655784 11.493589601563638 M22.630920809655784 11.493589601563638 C22.350687591510788 11.74808999571828, 22.07045437336579 12.00259038987292, 21.871654324924627 12.183135333906142 M22.630920809655784 11.493589601563638 C22.413118204526004 11.691392164801362, 22.195315599396224 11.889194728039088, 21.871654324924627 12.183135333906142 M21.871654324924627 12.183135333906142 C21.5737543641181 12.420702625198459, 21.27585440331157 12.658269916490777, 21.06976848785946 12.822617949887304 M21.871654324924627 12.183135333906142 C21.631752122588225 12.374450956203704, 21.391849920251822 12.565766578501268, 21.06976848785946 12.822617949887304 M21.06976848785946 12.822617949887304 C20.784619430911253 13.021525588110647, 20.49947037396305 13.220433226333988, 20.228558419368788 13.409409678269446 M21.06976848785946 12.822617949887304 C20.8996066690807 12.941315468480953, 20.729444850301945 13.060012987074602, 20.228558419368788 13.409409678269446 M20.228558419368788 13.409409678269446 C19.96132200034124 13.571409965939461, 19.694085581313693 13.733410253609476, 19.351480832063004 13.94109926597423 M20.228558419368788 13.409409678269446 C20.047745033277526 13.51901981549537, 19.866931647186263 13.628629952721294, 19.351480832063004 13.94109926597423 M19.351480832063004 13.94109926597423 C19.07780115326113 14.083877779104967, 18.804121474459258 14.226656292235702, 18.442139825880933 14.415501886438705 M19.351480832063004 13.94109926597423 C19.050551616787775 14.098093844828956, 18.749622401512543 14.255088423683683, 18.442139825880933 14.415501886438705 M18.442139825880933 14.415501886438705 C18.091579394728907 14.570684590303994, 17.741018963576877 14.725867294169284, 17.50427207806999 14.830668117536346 M18.442139825880933 14.415501886438705 C18.19443067050255 14.525155381493697, 17.946721515124164 14.63480887654869, 17.50427207806999 14.830668117536346 M17.50427207806999 14.830668117536346 C17.2897713021408 14.909606385901725, 17.075270526211607 14.988544654267104, 16.54173148837794 15.184891952170695 M17.50427207806999 14.830668117536346 C17.236135477350985 14.929344865228506, 16.96799887663198 15.028021612920666, 16.54173148837794 15.184891952170695 M16.54173148837794 15.184891952170695 C16.164223731838938 15.296934272732821, 15.78671597529993 15.408976593294948, 15.558473342552134 15.476717808624468 M16.54173148837794 15.184891952170695 C16.235076210334046 15.275905629027722, 15.92842093229015 15.36691930588475, 15.558473342552134 15.476717808624468 M15.558473342552134 15.476717808624468 C15.351552823461763 15.523946066824267, 15.144632304371394 15.571174325024067, 14.558538059221961 15.704946511857045 M15.558473342552134 15.476717808624468 C15.184287182576027 15.562123357846122, 14.810101022599918 15.647528907067779, 14.558538059221961 15.704946511857045 M14.558538059221961 15.704946511857045 C14.224412228721368 15.758965384947865, 13.890286398220775 15.812984258038687, 13.546034586952105 15.868640221171937 M14.558538059221961 15.704946511857045 C14.176558593742119 15.76670198954083, 13.794579128262278 15.828457467224613, 13.546034586952105 15.868640221171937 M13.546034586952105 15.868640221171937 C13.216190021131707 15.900459929740501, 12.886345455311309 15.932279638309067, 12.525123519691405 15.967126284005381 M13.546034586952105 15.868640221171937 C13.309712674834078 15.89143791181528, 13.073390762716052 15.914235602458625, 12.525123519691405 15.967126284005381 M12.525123519691405 15.967126284005381 C12.289488237147989 15.974682648880295, 12.05385295460457 15.982239013755208, 11.500000000000004 16 M12.525123519691405 15.967126284005381 C12.15773911194637 15.978907586891395, 11.790354704201334 15.99068888977741, 11.500000000000004 16 M11.500000000000004 16 C11.500000000000002 16, 11.500000000000002 16, 11.5 16 M11.500000000000004 16 C11.500000000000004 16, 11.500000000000002 16, 11.5 16 M11.5 16 C4.012119493247882 16, -3.4757610135042363 16, -11.499999999999996 16 M11.5 16 C6.4035962190189215 16, 1.307192438037843 16, -11.499999999999996 16 M-11.499999999999996 16 C-11.718967126473128 15.992978150447662, -11.937934252946262 15.985956300895326, -12.5251235196914 15.967126284005381 M-11.499999999999996 16 C-11.905416881457425 15.986999069707748, -12.310833762914854 15.973998139415498, -12.5251235196914 15.967126284005381 M-12.5251235196914 15.967126284005381 C-12.90267831539078 15.930704026940338, -13.280233111090162 15.894281769875294, -13.5460345869521 15.868640221171937 M-12.5251235196914 15.967126284005381 C-12.890939987428373 15.931836409321466, -13.256756455165347 15.896546534637551, -13.5460345869521 15.868640221171937 M-13.5460345869521 15.868640221171937 C-13.778654066845823 15.83103210765373, -14.011273546739545 15.793423994135521, -14.558538059221956 15.704946511857045 M-13.5460345869521 15.868640221171937 C-13.886271040787292 15.81363342988897, -14.226507494622487 15.758626638606001, -14.558538059221956 15.704946511857045 M-14.558538059221956 15.704946511857045 C-14.942468946673271 15.617316792179464, -15.326399834124587 15.529687072501881, -15.558473342552112 15.476717808624471 M-14.558538059221956 15.704946511857045 C-14.797203584042359 15.650472663254888, -15.035869108862762 15.59599881465273, -15.558473342552112 15.476717808624471 M-15.558473342552112 15.476717808624471 C-15.9199747024337 15.369426102570976, -16.28147606231529 15.262134396517483, -16.541731488377923 15.184891952170702 M-15.558473342552112 15.476717808624471 C-15.951487614629631 15.360073235645876, -16.34450188670715 15.243428662667283, -16.541731488377923 15.184891952170702 M-16.541731488377923 15.184891952170702 C-16.841706848664963 15.074498246643238, -17.141682208952005 14.964104541115773, -17.504272078069988 14.830668117536348 M-16.541731488377923 15.184891952170702 C-16.838675471171978 15.075613821582403, -17.135619453966036 14.966335690994104, -17.504272078069988 14.830668117536348 M-17.504272078069988 14.830668117536348 C-17.69363896536663 14.74684101389925, -17.883005852663278 14.663013910262153, -18.44213982588093 14.415501886438708 M-17.504272078069988 14.830668117536348 C-17.8491902422956 14.677983077867482, -18.194108406521206 14.525298038198617, -18.44213982588093 14.415501886438708 M-18.44213982588093 14.415501886438708 C-18.776850240669965 14.240883677435521, -19.111560655458998 14.066265468432334, -19.351480832063 13.941099265974234 M-18.44213982588093 14.415501886438708 C-18.689347145716983 14.286533986024084, -18.936554465553037 14.15756608560946, -19.351480832063 13.941099265974234 M-19.351480832063 13.941099265974234 C-19.678899751289993 13.742615993011684, -20.00631867051699 13.544132720049136, -20.228558419368767 13.409409678269457 M-19.351480832063 13.941099265974234 C-19.619969978717375 13.77833956745499, -19.88845912537175 13.615579868935747, -20.228558419368767 13.409409678269457 M-20.228558419368767 13.409409678269457 C-20.55126471788428 13.184303734155547, -20.873971016399793 12.959197790041637, -21.069768487859456 12.822617949887308 M-20.228558419368767 13.409409678269457 C-20.470090263804256 13.240927519336289, -20.711622108239748 13.07244536040312, -21.069768487859456 12.822617949887308 M-21.069768487859456 12.822617949887308 C-21.272839338707065 12.660674350278631, -21.475910189554675 12.498730750669955, -21.871654324924613 12.183135333906154 M-21.069768487859456 12.822617949887308 C-21.273263394613878 12.660336176977552, -21.476758301368296 12.498054404067794, -21.871654324924613 12.183135333906154 M-21.871654324924613 12.183135333906154 C-22.121901544563702 11.955867430208535, -22.372148764202795 11.728599526510916, -22.630920809655777 11.493589601563649 M-21.871654324924613 12.183135333906154 C-22.115176477363185 11.961974958304518, -22.358698629801758 11.740814582702882, -22.630920809655777 11.493589601563649 M-22.630920809655777 11.493589601563649 C-22.870727413286723 11.24596959482638, -23.110534016917672 10.998349588089113, -23.344447953205048 10.756814244181069 M-22.630920809655777 11.493589601563649 C-22.799877083265525 11.319128377493545, -22.96883335687527 11.144667153423441, -23.344447953205048 10.756814244181069 M-23.344447953205048 10.756814244181069 C-23.548402434129393 10.517237705548604, -23.75235691505374 10.27766116691614, -24.009303719488475 9.97583682973974 M-23.344447953205048 10.756814244181069 C-23.54316388521085 10.523391203190204, -23.74187981721665 10.28996816219934, -24.009303719488475 9.97583682973974 M-24.009303719488475 9.97583682973974 C-24.167919620922284 9.763305972024325, -24.326535522356092 9.55077511430891, -24.62275607355129 9.15386656195472 M-24.009303719488475 9.97583682973974 C-24.141204662308457 9.799101582784054, -24.273105605128443 9.622366335828367, -24.62275607355129 9.15386656195472 M-24.62275607355129 9.15386656195472 C-24.818499395235897 8.853152255405579, -25.0142427169205 8.552437948856438, -25.182284208085534 8.29428109296841 M-24.62275607355129 9.15386656195472 C-24.806143543858255 8.872134161132296, -24.989531014165216 8.590401760309874, -25.182284208085534 8.29428109296841 M-25.182284208085534 8.29428109296841 C-25.379594487001828 7.943936712920249, -25.576904765918123 7.593592332872089, -25.685588901968 7.400612643853366 M-25.182284208085534 8.29428109296841 C-25.29019238542541 8.102679197213632, -25.398100562765286 7.911077301458854, -25.685588901968 7.400612643853366 M-25.685588901968 7.400612643853366 C-25.85899524104046 7.040530670468126, -26.032401580112918 6.680448697082885, -26.130601968252996 6.476533489958307 M-25.685588901968 7.400612643853366 C-25.857733468031235 7.043150769119397, -26.02987803409447 6.685688894385428, -26.130601968252996 6.476533489958307 M-26.130601968252996 6.476533489958307 C-26.217493941736524 6.261908635511973, -26.304385915220053 6.047283781065638, -26.515494752796165 5.525840870740931 M-26.130601968252996 6.476533489958307 C-26.220725322763652 6.253927061900467, -26.310848677274308 6.031320633842627, -26.515494752796165 5.525840870740931 M-26.515494752796165 5.525840870740931 C-26.59506036780457 5.286201915394789, -26.674625982812973 5.046562960048647, -26.83868564858657 4.552441386096519 M-26.515494752796165 5.525840870740931 C-26.622881765833533 5.202408297269344, -26.730268778870904 4.878975723797758, -26.83868564858657 4.552441386096519 M-26.83868564858657 4.552441386096519 C-26.939856336443995 4.166633705642665, -27.041027024301425 3.7808260251888117, -27.098846594909176 3.5603349433010343 M-26.83868564858657 4.552441386096519 C-26.930498179938255 4.20232041224974, -27.022310711289943 3.8521994384029625, -27.098846594909176 3.5603349433010343 M-27.098846594909176 3.5603349433010343 C-27.144042965263957 3.328261133785496, -27.189239335618737 3.0961873242699576, -27.2949085346312 2.5535983205340753 M-27.098846594909176 3.5603349433010343 C-27.161073916345305 3.2408107994755544, -27.223301237781435 2.921286655650074, -27.2949085346312 2.5535983205340753 M-27.2949085346312 2.5535983205340753 C-27.331393099080703 2.2706312433558877, -27.36787766353021 1.9876641661777004, -27.42606580718717 1.5363684145229202 M-27.2949085346312 2.5535983205340753 C-27.32456127549999 2.32361751795175, -27.35421401636878 2.0936367153694246, -27.42606580718717 1.5363684145229202 M-27.42606580718717 1.5363684145229202 C-27.44579064775145 1.2291381011295188, -27.46551548831573 0.9219077877361176, -27.491779459211006 0.5128252411464846 M-27.42606580718717 1.5363684145229202 C-27.449581991143532 1.1700848674805673, -27.473098175099892 0.8038013204382144, -27.491779459211006 0.5128252411464846 M-27.491779459211006 0.5128252411464846 C-27.491779459211006 0.1793494812082006, -27.491779459211006 -0.15412627873008344, -27.491779459211006 -0.5128252411464769 M-27.491779459211006 0.5128252411464846 C-27.491779459211006 0.15560091241955865, -27.491779459211006 -0.20162341630736735, -27.491779459211006 -0.5128252411464769 M-27.491779459211006 -0.5128252411464769 C-27.4685252743567 -0.8750279406924637, -27.445271089502395 -1.2372306402384505, -27.42606580718717 -1.5363684145228982 M-27.491779459211006 -0.5128252411464769 C-27.46777058423078 -0.8867828485785705, -27.443761709250555 -1.260740456010664, -27.42606580718717 -1.5363684145228982 M-27.42606580718717 -1.5363684145228982 C-27.39006680903301 -1.8155695354003623, -27.354067810878842 -2.0947706562778263, -27.294908534631205 -2.5535983205340678 M-27.42606580718717 -1.5363684145228982 C-27.374972649219067 -1.9326368582382814, -27.323879491250967 -2.3289053019536645, -27.294908534631205 -2.5535983205340678 M-27.294908534631205 -2.5535983205340678 C-27.223052654489962 -2.9225630783136953, -27.15119677434872 -3.2915278360933233, -27.098846594909176 -3.5603349433010267 M-27.294908534631205 -2.5535983205340678 C-27.24566987838491 -2.806428413765101, -27.196431222138617 -3.059258506996134, -27.098846594909176 -3.5603349433010267 M-27.098846594909176 -3.5603349433010267 C-27.02745000531717 -3.8326010828930155, -26.956053415725165 -4.104867222485004, -26.838685648586573 -4.552441386096511 M-27.098846594909176 -3.5603349433010267 C-27.017367556646324 -3.8710498294358513, -26.93588851838347 -4.181764715570676, -26.838685648586573 -4.552441386096511 M-26.838685648586573 -4.552441386096511 C-26.725561453241937 -4.893153438581721, -26.6124372578973 -5.233865491066931, -26.515494752796172 -5.525840870740911 M-26.838685648586573 -4.552441386096511 C-26.729277374975826 -4.88196167437097, -26.619869101365083 -5.211481962645429, -26.515494752796172 -5.525840870740911 M-26.515494752796172 -5.525840870740911 C-26.41319781311334 -5.778516289534295, -26.3109008734305 -6.031191708327679, -26.130601968253 -6.476533489958299 M-26.515494752796172 -5.525840870740911 C-26.423733077937488 -5.752493981733151, -26.331971403078807 -5.979147092725391, -26.130601968253 -6.476533489958299 M-26.130601968253 -6.476533489958299 C-25.988003348766885 -6.772642574442896, -25.845404729280766 -7.068751658927495, -25.685588901968003 -7.400612643853359 M-26.130601968253 -6.476533489958299 C-25.955239835320633 -6.840676711140921, -25.779877702388266 -7.204819932323542, -25.685588901968003 -7.400612643853359 M-25.685588901968003 -7.400612643853359 C-25.57489127209216 -7.597167495048445, -25.464193642216316 -7.79372234624353, -25.182284208085537 -8.294281092968404 M-25.685588901968003 -7.400612643853359 C-25.541804712287586 -7.655916032358948, -25.39802052260717 -7.911219420864537, -25.182284208085537 -8.294281092968404 M-25.182284208085537 -8.294281092968404 C-25.045964413964786 -8.503704903728062, -24.909644619844034 -8.71312871448772, -24.622756073551294 -9.153866561954715 M-25.182284208085537 -8.294281092968404 C-24.96522509064755 -8.627742185887351, -24.74816597320956 -8.961203278806298, -24.622756073551294 -9.153866561954715 M-24.622756073551294 -9.153866561954715 C-24.416004610337886 -9.430894687214902, -24.209253147124475 -9.70792281247509, -24.00930371948848 -9.975836829739734 M-24.622756073551294 -9.153866561954715 C-24.40507080845665 -9.445544985645913, -24.187385543362005 -9.737223409337114, -24.00930371948848 -9.975836829739734 M-24.00930371948848 -9.975836829739734 C-23.865226572010336 -10.145078045389498, -23.721149424532193 -10.314319261039264, -23.344447953205055 -10.756814244181063 M-24.00930371948848 -9.975836829739734 C-23.835770615523618 -10.1796786879702, -23.66223751155876 -10.383520546200668, -23.344447953205055 -10.756814244181063 M-23.344447953205055 -10.756814244181063 C-23.09913511579271 -11.010119889367823, -22.853822278380363 -11.263425534554585, -22.63092080965579 -11.493589601563633 M-23.344447953205055 -10.756814244181063 C-23.115145833041222 -10.993587509304401, -22.885843712877392 -11.230360774427739, -22.63092080965579 -11.493589601563633 M-22.63092080965579 -11.493589601563633 C-22.440007248330776 -11.666972246662981, -22.249093687005765 -11.84035489176233, -21.871654324924627 -12.18313533390614 M-22.63092080965579 -11.493589601563633 C-22.47458347339256 -11.635571033898652, -22.318246137129332 -11.777552466233672, -21.871654324924627 -12.18313533390614 M-21.871654324924627 -12.18313533390614 C-21.665123820762442 -12.347837914967949, -21.45859331660026 -12.512540496029757, -21.069768487859463 -12.822617949887302 M-21.871654324924627 -12.18313533390614 C-21.6346512165155 -12.372139005944831, -21.397648108106374 -12.56114267798352, -21.069768487859463 -12.822617949887302 M-21.069768487859463 -12.822617949887302 C-20.83202542829836 -12.988457216505955, -20.59428236873725 -13.154296483124607, -20.228558419368788 -13.409409678269444 M-21.069768487859463 -12.822617949887302 C-20.750276781059824 -13.045481533977652, -20.430785074260186 -13.268345118068002, -20.228558419368788 -13.409409678269444 M-20.228558419368788 -13.409409678269444 C-20.021701352597823 -13.53480764777306, -19.814844285826855 -13.660205617276679, -19.351480832063007 -13.941099265974229 M-20.228558419368788 -13.409409678269444 C-20.008185890932065 -13.543000800060511, -19.787813362495342 -13.67659192185158, -19.351480832063007 -13.941099265974229 M-19.351480832063007 -13.941099265974229 C-19.01127318878455 -14.118585375559206, -18.671065545506092 -14.296071485144182, -18.442139825880936 -14.415501886438705 M-19.351480832063007 -13.941099265974229 C-19.07297406668937 -14.08639606707756, -18.79446730131573 -14.23169286818089, -18.442139825880936 -14.415501886438705 M-18.442139825880936 -14.415501886438705 C-18.204588182029436 -14.520658952452619, -17.967036538177933 -14.625816018466534, -17.504272078069995 -14.830668117536344 M-18.442139825880936 -14.415501886438705 C-18.077094563206085 -14.577096595541887, -17.712049300531234 -14.73869130464507, -17.504272078069995 -14.830668117536344 M-17.504272078069995 -14.830668117536344 C-17.23203342835833 -14.930854457176729, -16.959794778646664 -15.031040796817113, -16.54173148837794 -15.184891952170695 M-17.504272078069995 -14.830668117536344 C-17.159342912003833 -14.957605239138951, -16.81441374593767 -15.084542360741557, -16.54173148837794 -15.184891952170695 M-16.54173148837794 -15.184891952170695 C-16.17378729942243 -15.29409585607423, -15.805843110466917 -15.403299759977767, -15.558473342552134 -15.476717808624466 M-16.54173148837794 -15.184891952170695 C-16.186904641746278 -15.290202697726848, -15.832077795114618 -15.395513443282999, -15.558473342552134 -15.476717808624466 M-15.558473342552134 -15.476717808624466 C-15.164169443196723 -15.566715100578929, -14.769865543841313 -15.656712392533391, -14.558538059221963 -15.704946511857043 M-15.558473342552134 -15.476717808624466 C-15.324588704542354 -15.5301004510103, -15.090704066532576 -15.583483093396135, -14.558538059221963 -15.704946511857043 M-14.558538059221963 -15.704946511857043 C-14.30168431141098 -15.74647263387256, -14.044830563599998 -15.787998755888076, -13.546034586952107 -15.868640221171937 M-14.558538059221963 -15.704946511857043 C-14.292845742189273 -15.747901585200196, -14.027153425156586 -15.790856658543351, -13.546034586952107 -15.868640221171937 M-13.546034586952107 -15.868640221171937 C-13.19690247603114 -15.902320576019687, -12.847770365110172 -15.936000930867436, -12.525123519691407 -15.967126284005381 M-13.546034586952107 -15.868640221171937 C-13.184518068823811 -15.903515284888549, -12.823001550695516 -15.93839034860516, -12.525123519691407 -15.967126284005381 M-12.525123519691407 -15.967126284005381 C-12.190249447507016 -15.977865043707496, -11.855375375322625 -15.988603803409609, -11.500000000000005 -16 M-12.525123519691407 -15.967126284005381 C-12.204966286981614 -15.977393103310135, -11.884809054271823 -15.987659922614888, -11.500000000000005 -16 M-11.500000000000005 -16 C-11.500000000000004 -16, -11.500000000000002 -16, -11.5 -16 M-11.500000000000005 -16 C-11.500000000000004 -16, -11.500000000000002 -16, -11.5 -16" stroke="#999" stroke-width="1.3" fill="none" stroke-dasharray="0 0" style=""/></g><g class="label" style="" transform="translate(0, -8.5)"><rect/><g><rect class="background" style="stroke: none"/><text y="-10.1" style=""><tspan class="text-outer-tspan row" x="0" y="-0.1em" dy="1.1em"><tspan font-style="normal" class="text-inner-tspan" font-weight="normal">开始</tspan></tspan></text></g></g></g><g class="node default" id="my-svg-flowchart-Request-1" data-look="classic" transform="translate(681.7890625, 113.5)"><rect class="basic label-container" style="" x="-86.08203125" y="-23.5" width="172.1640625" height="47"/><g class="label" style="" transform="translate(0, -8.5)"><rect/><g><rect class="background" style="stroke: none"/><text y="-10.1" style=""><tspan class="text-outer-tspan row" x="0" y="-0.1em" dy="1.1em"><tspan font-style="normal" class="text-inner-tspan" font-weight="normal">请求</tspan><tspan font-style="normal" class="text-inner-tspan" font-weight="normal"> DeepSeek</tspan></tspan></text></g></g></g><g class="node default" id="my-svg-flowchart-Check-3" data-look="classic" transform="translate(681.7890625, 266.5)"><polygon points="79.5,0 159,-79.5 79.5,-159 0,-79.5" class="label-container" transform="translate(-79, 79.5)"/><g class="label" style="" transform="translate(0, -8.5)"><rect/><g><rect class="background" style="stroke: none"/><text y="-10.1" style=""><tspan class="text-outer-tspan row" x="0" y="-0.1em" dy="1.1em"><tspan font-style="normal" class="text-inner-tspan" font-weight="normal">返回什么信号？</tspan></tspan></text></g></g></g><g class="node default" id="my-svg-flowchart-Done-5" data-look="classic" transform="translate(110, 488.5)"><rect class="basic label-container" style="" x="-102" y="-32.29999923706055" width="204" height="64.5999984741211"/><g class="label" style="" transform="translate(0, -17.299999237060547)"><rect/><g><rect class="background" style="stroke: none"/><text y="-10.1" style=""><tspan class="text-outer-tspan row" x="0" y="-0.1em" dy="1.1em"><tspan font-style="normal" class="text-inner-tspan" font-weight="normal">回到</tspan><tspan font-style="normal" class="text-inner-tspan" font-weight="normal"> Agent</tspan><tspan font-style="normal" class="text-inner-tspan" font-weight="normal"> Loop</tspan></tspan><tspan class="text-outer-tspan row" x="0" y="1em" dy="1.1em"><tspan font-style="normal" class="text-inner-tspan" font-weight="normal">执行工具或输出答案</tspan></tspan></text></g></g></g><g class="node default" id="my-svg-flowchart-L1-7" data-look="classic" transform="translate(333.5, 488.5)"><polygon points="71.5,0 143,-71.5 71.5,-143 0,-71.5" class="label-container" transform="translate(-71, 71.5)"/><g class="label" style="" transform="translate(0, -8.5)"><rect/><g><rect class="background" style="stroke: none"/><text y="-10.1" style=""><tspan class="text-outer-tspan row" x="0" y="-0.1em" dy="1.1em"><tspan font-style="normal" class="text-inner-tspan" font-weight="normal">第一次截断？</tspan></tspan></text></g></g></g><g class="node default" id="my-svg-flowchart-L2-9" data-look="classic" transform="translate(221.75, 710.5)"><rect class="basic label-container" style="" x="-118.9140625" y="-32.29999923706055" width="237.828125" height="64.5999984741211"/><g class="label" style="" transform="translate(0, -17.299999237060547)"><rect/><g><rect class="background" style="stroke: none"/><text y="-10.1" style=""><tspan class="text-outer-tspan row" x="0" y="-0.1em" dy="1.1em"><tspan font-style="normal" class="text-inner-tspan" font-weight="normal">扩大输出上限</tspan></tspan><tspan class="text-outer-tspan row" x="0" y="1em" dy="1.1em"><tspan font-style="normal" class="text-inner-tspan" font-weight="normal">用原</tspan><tspan font-style="normal" class="text-inner-tspan" font-weight="normal"> messages</tspan><tspan font-style="normal" class="text-inner-tspan" font-weight="normal"> 重新请求</tspan></tspan></text></g></g></g><g class="node default" id="my-svg-flowchart-L3-11" data-look="classic" transform="translate(470.1640625, 710.5)"><polygon points="79.5,0 159,-79.5 79.5,-159 0,-79.5" class="label-container" transform="translate(-79, 79.5)"/><g class="label" style="" transform="translate(0, -8.5)"><rect/><g><rect class="background" style="stroke: none"/><text y="-10.1" style=""><tspan class="text-outer-tspan row" x="0" y="-0.1em" dy="1.1em"><tspan font-style="normal" class="text-inner-tspan" font-weight="normal">工具调用完整？</tspan></tspan></text></g></g></g><g class="node default" id="my-svg-flowchart-Stop-13" data-look="classic" transform="translate(686.4140625, 1164.099998474121)"><rect class="basic label-container" style="" x="-62" y="-23.5" width="124" height="47"/><g class="label" style="" transform="translate(0, -8.5)"><rect/><g><rect class="background" style="stroke: none"/><text y="-10.1" style=""><tspan class="text-outer-tspan row" x="0" y="-0.1em" dy="1.1em"><tspan font-style="normal" class="text-inner-tspan" font-weight="normal">明确停止</tspan></tspan></text></g></g></g><g class="node default" id="my-svg-flowchart-L4-15" data-look="classic" transform="translate(540.4140625, 956.5)"><polygon points="95.5,0 191,-95.5 95.5,-191 0,-95.5" class="label-container" transform="translate(-95, 95.5)"/><g class="label" style="" transform="translate(0, -8.5)"><rect/><g><rect class="background" style="stroke: none"/><text y="-10.1" style=""><tspan class="text-outer-tspan row" x="0" y="-0.1em" dy="1.1em"><tspan font-style="normal" class="text-inner-tspan" font-weight="normal">续写次数还没用完？</tspan></tspan></text></g></g></g><g class="node default" id="my-svg-flowchart-L5-17" data-look="classic" transform="translate(170.0390625, 1164.099998474121)"><rect class="basic label-container" style="" x="-78" y="-41.099998474121094" width="156" height="82.19999694824219"/><g class="label" style="" transform="translate(0, -26.099998474121094)"><rect/><g><rect class="background" style="stroke: none"/><text y="-10.1" style=""><tspan class="text-outer-tspan row" x="0" y="-0.1em" dy="1.1em"><tspan font-style="normal" class="text-inner-tspan" font-weight="normal">保存文本片段</tspan></tspan><tspan class="text-outer-tspan row" x="0" y="1em" dy="1.1em"><tspan font-style="normal" class="text-inner-tspan" font-weight="normal">追加续写提示</tspan></tspan><tspan class="text-outer-tspan row" x="0" y="2.1em" dy="1.1em"><tspan font-style="normal" class="text-inner-tspan" font-weight="normal">重新请求</tspan></tspan></text></g></g></g><g class="node default" id="my-svg-flowchart-C1-21" data-look="classic" transform="translate(770.2890625, 956.5)"><polygon points="71.5,0 143,-71.5 71.5,-143 0,-71.5" class="label-container" transform="translate(-71, 71.5)"/><g class="label" style="" transform="translate(0, -8.5)"><rect/><g><rect class="background" style="stroke: none"/><text y="-10.1" style=""><tspan class="text-outer-tspan row" x="0" y="-0.1em" dy="1.1em"><tspan font-style="normal" class="text-inner-tspan" font-weight="normal">已经压缩过？</tspan></tspan></text></g></g></g><g class="node default" id="my-svg-flowchart-C2-23" data-look="classic" transform="translate(388.7890625, 1164.099998474121)"><rect class="basic label-container" style="" x="-90.75" y="-32.29999923706055" width="181.5" height="64.5999984741211"/><g class="label" style="" transform="translate(0, -17.299999237060547)"><rect/><g><rect class="background" style="stroke: none"/><text y="-10.1" style=""><tspan class="text-outer-tspan row" x="0" y="-0.1em" dy="1.1em"><tspan font-style="normal" class="text-inner-tspan" font-weight="normal">reactive</tspan><tspan font-style="normal" class="text-inner-tspan" font-weight="normal"> compact</tspan></tspan><tspan class="text-outer-tspan row" x="0" y="1em" dy="1.1em"><tspan font-style="normal" class="text-inner-tspan" font-weight="normal">重新请求</tspan></tspan></text></g></g></g><g class="node default" id="my-svg-flowchart-R1-27" data-look="classic" transform="translate(1001.7890625, 956.5)"><polygon points="95.5,0 191,-95.5 95.5,-191 0,-95.5" class="label-container" transform="translate(-95, 95.5)"/><g class="label" style="" transform="translate(0, -8.5)"><rect/><g><rect class="background" style="stroke: none"/><text y="-10.1" style=""><tspan class="text-outer-tspan row" x="0" y="-0.1em" dy="1.1em"><tspan font-style="normal" class="text-inner-tspan" font-weight="normal">重试次数还没用完？</tspan></tspan></text></g></g></g><g class="node default" id="my-svg-flowchart-R2-29" data-look="classic" transform="translate(1067.0390625, 1164.099998474121)"><rect class="basic label-container" style="" x="-94" y="-41.099998474121094" width="188" height="82.19999694824219"/><g class="label" style="" transform="translate(0, -26.099998474121094)"><rect/><g><rect class="background" style="stroke: none"/><text y="-10.1" style=""><tspan class="text-outer-tspan row" x="0" y="-0.1em" dy="1.1em"><tspan font-style="normal" class="text-inner-tspan" font-weight="normal">等待</tspan><tspan font-style="normal" class="text-inner-tspan" font-weight="normal"> +</tspan><tspan font-style="normal" class="text-inner-tspan" font-weight="normal"> 抖动</tspan></tspan><tspan class="text-outer-tspan row" x="0" y="1em" dy="1.1em"><tspan font-style="normal" class="text-inner-tspan" font-weight="normal">必要时切备用模型</tspan></tspan><tspan class="text-outer-tspan row" x="0" y="2.1em" dy="1.1em"><tspan font-style="normal" class="text-inner-tspan" font-weight="normal">重新请求</tspan></tspan></text></g></g></g></g></g></g><defs><filter id="my-svg-drop-shadow" height="130%" width="130%"><feDropShadow dx="4" dy="4" stdDeviation="0" flood-opacity="0.06" flood-color="#000000"/></filter></defs><defs><filter id="my-svg-drop-shadow-small" height="150%" width="150%"><feDropShadow dx="2" dy="2" stdDeviation="0" flood-opacity="0.06" flood-color="#000000"/></filter></defs><linearGradient id="my-svg-gradient" gradientUnits="objectBoundingBox" x1="0%" y1="0%" x2="100%" y2="0%"><stop offset="0%" stop-color="hsl(0, 0%, 83.3333333333%)" stop-opacity="1"/><stop offset="100%" stop-color="hsl(0, 0%, 88.9215686275%)" stop-opacity="1"/></linearGradient></svg>