<svg width="1174.2890625" height="1213.199951171875" id="my-svg" xmlns="http://www.w3.org/2000/svg" xmlns:xlink="http://www.w3.org/1999/xlink" class="flowchart" style="max-width: 1174.29px; background-color: white;" viewBox="0 0 1174.2890625 1213.199951171875" role="graphics-document document" aria-roledescription="flowchart-v2"><style>#my-svg{font-family:"trebuchet ms",verdana,arial,sans-serif;font-size:16px;fill:#000000;}@keyframes edge-animation-frame{from{stroke-dashoffset:0;}}@keyframes dash{to{stroke-dashoffset:0;}}#my-svg .edge-animation-slow{stroke-dasharray:9,5!important;stroke-dashoffset:900;animation:dash 50s linear infinite;stroke-linecap:round;}#my-svg .edge-animation-fast{stroke-dasharray:9,5!important;stroke-dashoffset:900;animation:dash 20s linear infinite;stroke-linecap:round;}#my-svg .error-icon{fill:#552222;}#my-svg .error-text{fill:#552222;stroke:#552222;}#my-svg .edge-thickness-normal{stroke-width:1px;}#my-svg .edge-thickness-thick{stroke-width:3.5px;}#my-svg .edge-pattern-solid{stroke-dasharray:0;}#my-svg .edge-thickness-invisible{stroke-width:0;fill:none;}#my-svg .edge-pattern-dashed{stroke-dasharray:3;}#my-svg .edge-pattern-dotted{stroke-dasharray:2;}#my-svg .marker{fill:#666;stroke:#666;}#my-svg .marker.cross{stroke:#666;}#my-svg svg{font-family:"trebuchet ms",verdana,arial,sans-serif;font-size:16px;}#my-svg p{margin:0;}#my-svg .label{font-family:"trebuchet ms",verdana,arial,sans-serif;color:#000000;}#my-svg .cluster-label text{fill:#333;}#my-svg .cluster-label span{color:#333;}#my-svg .cluster-label span p{background-color:transparent;}#my-svg .label text,#my-svg span{fill:#000000;color:#000000;}#my-svg .node rect,#my-svg .node circle,#my-svg .node ellipse,#my-svg .node polygon,#my-svg .node path{fill:#eee;stroke:#999;stroke-width:1px;}#my-svg .rough-node .label text,#my-svg .node .label text,#my-svg .image-shape .label,#my-svg .icon-shape .label{text-anchor:middle;}#my-svg .node .katex path{fill:#000;stroke:#000;stroke-width:1px;}#my-svg .rough-node .label,#my-svg .node .label,#my-svg .image-shape .label,#my-svg .icon-shape .label{text-align:center;}#my-svg .node.clickable{cursor:pointer;}#my-svg .root .anchor path{fill:#666!important;stroke-width:0;stroke:#666;}#my-svg .arrowheadPath{fill:#333333;}#my-svg .edgePath .path{stroke:#666;stroke-width:1px;}#my-svg .flowchart-link{stroke:#666;fill:none;}#my-svg .edgeLabel{background-color:white;text-align:center;}#my-svg .edgeLabel p{background-color:white;}#my-svg .edgeLabel rect{opacity:0.5;background-color:white;fill:white;}#my-svg .labelBkg{background-color:rgba(255, 255, 255, 0.5);}#my-svg .cluster rect{fill:hsl(0, 0%, 98.9215686275%);stroke:#707070;stroke-width:1px;}#my-svg .cluster text{fill:#333;}#my-svg .cluster span{color:#333;}#my-svg div.mermaidTooltip{position:absolute;text-align:center;max-width:200px;padding:2px;font-family:"trebuchet ms",verdana,arial,sans-serif;font-size:12px;background:hsl(-160, 0%, 93.3333333333%);border:1px solid #707070;border-radius:2px;pointer-events:none;z-index:100;}#my-svg .flowchartTitleText{text-anchor:middle;font-size:18px;fill:#000000;}#my-svg rect.text{fill:none;stroke-width:0;}#my-svg .icon-shape,#my-svg .image-shape{background-color:white;text-align:center;}#my-svg .icon-shape p,#my-svg .image-shape p{background-color:white;padding:2px;}#my-svg .icon-shape .label rect,#my-svg .image-shape .label rect{opacity:0.5;background-color:white;fill:white;}#my-svg .label-icon{display:inline-block;height:1em;overflow:visible;vertical-align:-0.125em;}#my-svg .node .label-icon path{fill:currentColor;stroke:revert;stroke-width:revert;}#my-svg .node .neo-node{stroke:#999;}#my-svg [data-look="neo"].node rect,#my-svg [data-look="neo"].cluster rect,#my-svg [data-look="neo"].node polygon{stroke:url(#my-svg-gradient);filter:drop-shadow( 1px 2px 2px rgba(185,185,185,1));}#my-svg [data-look="neo"].swimlane.cluster rect{filter:none;}#my-svg [data-look="neo"].node path{stroke:url(#my-svg-gradient);stroke-width:1px;}#my-svg [data-look="neo"].node .outer-path{filter:drop-shadow( 1px 2px 2px rgba(185,185,185,1));}#my-svg [data-look="neo"].node .neo-line path{stroke:#999;filter:none;}#my-svg [data-look="neo"].node circle{stroke:url(#my-svg-gradient);filter:drop-shadow( 1px 2px 2px rgba(185,185,185,1));}#my-svg [data-look="neo"].node circle .state-start{fill:#000000;}#my-svg [data-look="neo"].icon-shape .icon{fill:url(#my-svg-gradient);filter:drop-shadow( 1px 2px 2px rgba(185,185,185,1));}#my-svg [data-look="neo"].icon-shape .icon-neo path{stroke:url(#my-svg-gradient);filter:drop-shadow( 1px 2px 2px rgba(185,185,185,1));}#my-svg :root{--mermaid-font-family:"trebuchet ms",verdana,arial,sans-serif;}</style><g><marker id="my-svg_flowchart-v2-pointEnd" class="marker flowchart-v2" viewBox="0 0 10 10" refX="5" refY="5" markerUnits="userSpaceOnUse" markerWidth="8" markerHeight="8" orient="auto"><path d="M 0 0 L 10 5 L 0 10 z" class="arrowMarkerPath" style="stroke-width: 1; stroke-dasharray: 1, 0;"/></marker><marker id="my-svg_flowchart-v2-pointStart" class="marker flowchart-v2" viewBox="0 0 10 10" refX="4.5" refY="5" markerUnits="userSpaceOnUse" markerWidth="8" markerHeight="8" orient="auto"><path d="M 0 5 L 10 10 L 10 0 z" class="arrowMarkerPath" style="stroke-width: 1; stroke-dasharray: 1, 0;"/></marker><marker id="my-svg_flowchart-v2-pointEnd-margin" class="marker flowchart-v2" viewBox="0 0 11.5 14" refX="11.5" refY="7" markerUnits="userSpaceOnUse" markerWidth="10.5" markerHeight="14" orient="auto"><path d="M 0 0 L 11.5 7 L 0 14 z" class="arrowMarkerPath" style="stroke-width: 0; stroke-dasharray: 1, 0;"/></marker><marker id="my-svg_flowchart-v2-pointStart-margin" class="marker flowchart-v2" viewBox="0 0 11.5 14" refX="1" refY="7" markerUnits="userSpaceOnUse" markerWidth="11.5" markerHeight="14" orient="auto"><polygon points="0,7 11.5,14 11.5,0" class="arrowMarkerPath" style="stroke-width: 0; stroke-dasharray: 1, 0;"/></marker><marker id="my-svg_flowchart-v2-circleEnd" class="marker flowchart-v2" viewBox="0 0 10 10" refX="11" refY="5" markerUnits="userSpaceOnUse" markerWidth="11" markerHeight="11" orient="auto"><circle cx="5" cy="5" r="5" class="arrowMarkerPath" style="stroke-width: 1; stroke-dasharray: 1, 0;"/></marker><marker id="my-svg_flowchart-v2-circleStart" class="marker flowchart-v2" viewBox="0 0 10 10" refX="-1" refY="5" markerUnits="userSpaceOnUse" markerWidth="11" markerHeight="11" orient="auto"><circle cx="5" cy="5" r="5" class="arrowMarkerPath" style="stroke-width: 1; stroke-dasharray: 1, 0;"/></marker><marker id="my-svg_flowchart-v2-circleEnd-margin" class="marker flowchart-v2" viewBox="0 0 10 10" refY="5" refX="12.25" markerUnits="userSpaceOnUse" markerWidth="14" markerHeight="14" orient="auto"><circle cx="5" cy="5" r="5" class="arrowMarkerPath" style="stroke-width: 0; stroke-dasharray: 1, 0;"/></marker><marker id="my-svg_flowchart-v2-circleStart-margin" class="marker flowchart-v2" viewBox="0 0 10 10" refX="-2" refY="5" markerUnits="userSpaceOnUse" markerWidth="14" markerHeight="14" orient="auto"><circle cx="5" cy="5" r="5" class="arrowMarkerPath" style="stroke-width: 0; stroke-dasharray: 1, 0;"/></marker><marker id="my-svg_flowchart-v2-crossEnd" class="marker cross flowchart-v2" viewBox="0 0 11 11" refX="12" refY="5.2" markerUnits="userSpaceOnUse" markerWidth="11" markerHeight="11" orient="auto"><path d="M 1,1 l 9,9 M 10,1 l -9,9" class="arrowMarkerPath" style="stroke-width: 2; stroke-dasharray: 1, 0;"/></marker><marker id="my-svg_flowchart-v2-crossStart" class="marker cross flowchart-v2" viewBox="0 0 11 11" refX="-1" refY="5.2" markerUnits="userSpaceOnUse" markerWidth="11" markerHeight="11" orient="auto"><path d="M 1,1 l 9,9 M 10,1 l -9,9" class="arrowMarkerPath" style="stroke-width: 2; stroke-dasharray: 1, 0;"/></marker><marker id="my-svg_flowchart-v2-crossEnd-margin" class="marker cross flowchart-v2" viewBox="0 0 15 15" refX="17.7" refY="7.5" markerUnits="userSpaceOnUse" markerWidth="12" markerHeight="12" orient="auto"><path d="M 1,1 L 14,14 M 1,14 L 14,1" class="arrowMarkerPath" style="stroke-width: 2.5;"/></marker><marker id="my-svg_flowchart-v2-crossStart-margin" class="marker cross flowchart-v2" viewBox="0 0 15 15" refX="-3.5" refY="7.5" markerUnits="userSpaceOnUse" markerWidth="12" markerHeight="12" orient="auto"><path d="M 1,1 L 14,14 M 1,14 L 14,1" class="arrowMarkerPath" style="stroke-width: 2.5; stroke-dasharray: 1, 0;"/></marker><g class="root"><g class="clusters"/><g class="edgePaths"><path d="M682.289,40.5L682.206,44.583C682.122,48.667,681.956,56.833,681.872,64.417C681.789,72,681.789,79,681.789,82.5L681.789,86" id="my-svg-L_Start_Request_0" class="edge-thickness-normal edge-pattern-solid edge-thickness-normal edge-pattern-solid flowchart-link" style=";" data-edge="true" data-et="edge" data-id="L_Start_Request_0" data-points="W3sieCI6NjgyLjI4OTA2MjUsInkiOjQwLjV9LHsieCI6NjgxLjc4OTA2MjUsInkiOjY1fSx7IngiOjY4MS43ODkwNjI1LCJ5Ijo5MH1d" data-look="classic" marker-end="url(#my-svg_flowchart-v2-pointEnd)"/><path d="M681.789,137L681.789,141.167C681.789,145.333,681.789,153.667,681.789,161.333C681.789,169,681.789,176,681.789,179.5L681.789,183" id="my-svg-L_Request_Check_0" class="edge-thickness-normal edge-pattern-solid edge-thickness-normal edge-pattern-solid flowchart-link" style=";" data-edge="true" data-et="edge" data-id="L_Request_Check_0" data-points="W3sieCI6NjgxLjc4OTA2MjUsInkiOjEzN30seyJ4Ijo2ODEuNzg5MDYyNSwieSI6MTYyfSx7IngiOjY4MS43ODkwNjI1LCJ5IjoxODd9XQ==" data-look="classic" marker-end="url(#my-svg_flowchart-v2-pointEnd)"/><path d="M615.601,279.812L531.334,296.76C447.067,313.708,278.534,347.604,194.267,376.335C110,405.067,110,428.633,110,440.417L110,452.2" id="my-svg-L_Check_Done_0" class="edge-thickness-normal edge-pattern-solid edge-thickness-normal edge-pattern-solid flowchart-link" style=";" data-edge="true" data-et="edge" data-id="L_Check_Done_0" data-points="W3sieCI6NjE1LjYwMTAxMDA4MjE1ODgsInkiOjI3OS44MTE5NDc1ODIxNTg4NH0seyJ4IjoxMTAsInkiOjM4MS41fSx7IngiOjExMCwieSI6NDU2LjIwMDAwMDc2MjkzOTQ1fV0=" data-look="classic" marker-end="url(#my-svg_flowchart-v2-pointEnd)"/><path d="M622.023,286.234L573.936,302.112C525.849,317.989,429.674,349.745,381.587,370.872C333.5,392,333.5,402.5,333.5,407.75L333.5,413" id="my-svg-L_Check_L1_0" class="edge-thickness-normal edge-pattern-solid edge-thickness-normal edge-pattern-solid flowchart-link" style=";" data-edge="true" data-et="edge" data-id="L_Check_L1_0" data-points="W3sieCI6NjIyLjAyMjk2MjQzNDIzMzgsInkiOjI4Ni4yMzM4OTk5MzQyMzM4fSx7IngiOjMzMy41LCJ5IjozODEuNX0seyJ4IjozMzMuNSwieSI6NDE3fV0=" data-look="classic" marker-end="url(#my-svg_flowchart-v2-pointEnd)"/><path d="M296.974,523.474L284.436,535.478C271.899,547.482,246.825,571.491,234.287,596.612C221.75,621.733,221.75,647.967,221.75,661.083L221.75,674.2" id="my-svg-L_L1_L2_0" class="edge-thickness-normal edge-pattern-solid edge-thickness-normal edge-pattern-solid flowchart-link" style=";" data-edge="true" data-et="edge" data-id="L_L1_L2_0" data-points="W3sieCI6Mjk2Ljk3MzcxNDI4NTcxNDI3LCJ5Ijo1MjMuNDczNzE0Mjg1NzE0M30seyJ4IjoyMjEuNzUsInkiOjU5NS41fSx7IngiOjIyMS43NSwieSI6Njc4LjIwMDAwMDc2MjkzOTV9XQ==" data-look="classic" marker-end="url(#my-svg_flowchart-v2-pointEnd)"/><path d="M373.602,519.898L389.696,532.498C405.79,545.098,437.977,570.299,454.07,588.15C470.164,606,470.164,616.5,470.164,621.75L470.164,627" id="my-svg-L_L1_L3_0" class="edge-thickness-normal edge-pattern-solid edge-thickness-normal edge-pattern-solid flowchart-link" style=";" data-edge="true" data-et="edge" data-id="L_L1_L3_0" data-points="W3sieCI6MzczLjYwMjI2MzYxODU4MzUsInkiOjUxOS44OTc3MzYzODE0MTY1fSx7IngiOjQ3MC4xNjQwNjI1LCJ5Ijo1OTUuNX0seyJ4Ijo0NzAuMTY0MDYyNSwieSI6NjMxfV0=" data-look="classic" marker-end="url(#my-svg_flowchart-v2-pointEnd)"/><path d="M432.339,752.175L421.248,764.396C410.156,776.617,387.972,801.058,376.881,835.113C365.789,869.167,365.789,912.833,365.789,956.5C365.789,1000.167,365.789,1043.833,408.245,1075.81C450.701,1107.786,535.612,1128.072,578.068,1138.215L620.524,1148.358" id="my-svg-L_L3_Stop_0" class="edge-thickness-normal edge-pattern-solid edge-thickness-normal edge-pattern-solid flowchart-link" style=";" data-edge="true" data-et="edge" data-id="L_L3_Stop_0" data-points="W3sieCI6NDMyLjMzOTI3NjE3NTIxMzcsInkiOjc1Mi4xNzUyMTM2NzUyMTM2fSx7IngiOjM2NS43ODkwNjI1LCJ5Ijo4MjUuNX0seyJ4IjozNjUuNzg5MDYyNSwieSI6OTU2LjV9LHsieCI6MzY1Ljc4OTA2MjUsInkiOjEwODcuNX0seyJ4Ijo2MjQuNDE0MDYyNSwieSI6MTE0OS4yODc2NzkwODEwNzQ3fV0=" data-look="classic" marker-end="url(#my-svg_flowchart-v2-pointEnd)"/><path d="M500.312,759.852L506.996,770.794C513.679,781.735,527.047,803.617,533.73,819.809C540.414,836,540.414,846.5,540.414,851.75L540.414,857" id="my-svg-L_L3_L4_0" class="edge-thickness-normal edge-pattern-solid edge-thickness-normal edge-pattern-solid flowchart-link" style=";" data-edge="true" data-et="edge" data-id="L_L3_L4_0" data-points="W3sieCI6NTAwLjMxMTgzNTc3OTM1MjI0LCJ5Ijo3NTkuODUyMjI2NzIwNjQ3OH0seyJ4Ijo1NDAuNDE0MDYyNSwieSI6ODI1LjV9LHsieCI6NTQwLjQxNDA2MjUsInkiOjg2MX1d" data-look="classic" marker-end="url(#my-svg_flowchart-v2-pointEnd)"/><path d="M501.683,1013.269L493.243,1025.641C484.802,1038.013,467.92,1062.756,426.29,1084.176C384.659,1105.595,318.279,1123.69,285.088,1132.738L251.898,1141.785" id="my-svg-L_L4_L5_0" class="edge-thickness-normal edge-pattern-solid edge-thickness-normal edge-pattern-solid flowchart-link" style=";" data-edge="true" data-et="edge" data-id="L_L4_L5_0" data-points="W3sieCI6NTAxLjY4MzIwNjAwNTM4ODU3LCJ5IjoxMDEzLjI2OTE0MzUwNTM4ODZ9LHsieCI6NDUxLjAzOTA2MjUsInkiOjEwODcuNX0seyJ4IjoyNDguMDM5MDYyNSwieSI6MTE0Mi44MzczNjU0NDU3MTczfV0=" data-look="classic" marker-end="url(#my-svg_flowchart-v2-pointEnd)"/><path d="M578.919,1013.495L587.251,1025.83C595.584,1038.164,612.249,1062.832,626.825,1083.483C641.4,1104.134,653.886,1120.767,660.129,1129.084L666.372,1137.401" id="my-svg-L_L4_Stop_0" class="edge-thickness-normal edge-pattern-solid edge-thickness-normal edge-pattern-solid flowchart-link" style=";" data-edge="true" data-et="edge" data-id="L_L4_Stop_0" data-points="W3sieCI6NTc4LjkxODYxODMwODY1NiwieSI6MTAxMy40OTU0NDQxOTEzNDR9LHsieCI6NjI4LjkxNDA2MjUsInkiOjEwODcuNX0seyJ4Ijo2NjguNzczNzIyNzIzMDE1MywieSI6MTE0MC41OTk5OTg0NzQxMjF9XQ==" data-look="classic" marker-end="url(#my-svg_flowchart-v2-pointEnd)"/><path d="M716.363,311.426L725.35,323.105C734.338,334.784,752.314,358.142,761.301,387.654C770.289,417.167,770.289,452.833,770.289,488.5C770.289,524.167,770.289,559.833,770.289,596.833C770.289,633.833,770.289,672.167,770.289,710.5C770.289,748.833,770.289,787.167,770.289,815.583C770.289,844,770.289,862.5,770.289,871.75L770.289,881" id="my-svg-L_Check_C1_0" class="edge-thickness-normal edge-pattern-solid edge-thickness-normal edge-pattern-solid flowchart-link" style=";" data-edge="true" data-et="edge" data-id="L_Check_C1_0" data-points="W3sieCI6NzE2LjM2Mjc3MjU3MzcxMDEsInkiOjMxMS40MjYyODk5MjYyODk5NH0seyJ4Ijo3NzAuMjg5MDYyNSwieSI6MzgxLjV9LHsieCI6NzcwLjI4OTA2MjUsInkiOjQ4OC41fSx7IngiOjc3MC4yODkwNjI1LCJ5Ijo1OTUuNX0seyJ4Ijo3NzAuMjg5MDYyNSwieSI6NzEwLjV9LHsieCI6NzcwLjI4OTA2MjUsInkiOjgyNS41fSx7IngiOjc3MC4yODkwNjI1LCJ5Ijo4ODV9XQ==" data-look="classic" marker-end="url(#my-svg_flowchart-v2-pointEnd)"/><path d="M739.097,996.808L727.4,1011.923C715.703,1027.038,692.308,1057.269,649.692,1080.84C607.075,1104.41,545.236,1121.32,514.317,1129.775L483.397,1138.229" id="my-svg-L_C1_C2_0" class="edge-thickness-normal edge-pattern-solid edge-thickness-normal edge-pattern-solid flowchart-link" style=";" data-edge="true" data-et="edge" data-id="L_C1_C2_0" data-points="W3sieCI6NzM5LjA5Njc1NDgwNzY5MjMsInkiOjk5Ni44MDc2OTIzMDc2OTIzfSx7IngiOjY2OC45MTQwNjI1LCJ5IjoxMDg3LjV9LHsieCI6NDc5LjUzOTA2MjUsInkiOjExMzkuMjg0NDcwMTg2NjU0N31d" data-look="classic" marker-end="url(#my-svg_flowchart-v2-pointEnd)"/><path d="M799.117,999.172L809.062,1013.893C819.008,1028.615,838.898,1058.057,829.538,1081.358C820.177,1104.659,781.564,1121.817,762.258,1130.396L742.952,1138.976" id="my-svg-L_C1_Stop_0" class="edge-thickness-normal edge-pattern-solid edge-thickness-normal edge-pattern-solid flowchart-link" style=";" data-edge="true" data-et="edge" data-id="L_C1_Stop_0" data-points="W3sieCI6Nzk5LjExNzA4MDcyMzIzNDYsInkiOjk5OS4xNzE5ODE3NzY3NjU0fSx7IngiOjg1OC43ODkwNjI1LCJ5IjoxMDg3LjV9LHsieCI6NzM5LjI5NjczMzI2NjIyMTMsInkiOjExNDAuNTk5OTk4NDc0MTIxfV0=" data-look="classic" marker-end="url(#my-svg_flowchart-v2-pointEnd)"/><path d="M740.272,287.517L783.858,303.181C827.444,318.845,914.617,350.172,958.203,383.67C1001.789,417.167,1001.789,452.833,1001.789,488.5C1001.789,524.167,1001.789,559.833,1001.789,596.833C1001.789,633.833,1001.789,672.167,1001.789,710.5C1001.789,748.833,1001.789,787.167,1001.789,811.583C1001.789,836,1001.789,846.5,1001.789,851.75L1001.789,857" id="my-svg-L_Check_R1_0" class="edge-thickness-normal edge-pattern-solid edge-thickness-normal edge-pattern-solid flowchart-link" style=";" data-edge="true" data-et="edge" data-id="L_Check_R1_0" data-points="W3sieCI6NzQwLjI3MTgyMTEyMDY4OTcsInkiOjI4Ny41MTcyNDEzNzkzMTAzNX0seyJ4IjoxMDAxLjc4OTA2MjUsInkiOjM4MS41fSx7IngiOjEwMDEuNzg5MDYyNSwieSI6NDg4LjV9LHsieCI6MTAwMS43ODkwNjI1LCJ5Ijo1OTUuNX0seyJ4IjoxMDAxLjc4OTA2MjUsInkiOjcxMC41fSx7IngiOjEwMDEuNzg5MDYyNSwieSI6ODI1LjV9LHsieCI6MTAwMS43ODkwNjI1LCJ5Ijo4NjF9XQ==" data-look="classic" marker-end="url(#my-svg_flowchart-v2-pointEnd)"/><path d="M989.14,1039.351L987.915,1047.376C986.69,1055.401,984.239,1071.45,989.103,1084.946C993.967,1098.442,1006.145,1109.384,1012.234,1114.855L1018.323,1120.327" id="my-svg-L_R1_R2_0" class="edge-thickness-normal edge-pattern-solid edge-thickness-normal edge-pattern-solid flowchart-link" style=";" data-edge="true" data-et="edge" data-id="L_R1_R2_0" data-points="W3sieCI6OTg5LjE0MDA1NTg3NzQ4MzQsInkiOjEwMzkuMzUwOTkzMzc3NDgzNX0seyJ4Ijo5ODEuNzg5MDYyNSwieSI6MTA4Ny41fSx7IngiOjEwMjEuMjk3ODc1Mjk3NDYzLCJ5IjoxMTIzfV0=" data-look="classic" marker-end="url(#my-svg_flowchart-v2-pointEnd)"/><path d="M1028.266,1025.523L1032.228,1035.853C1036.19,1046.182,1044.115,1066.841,998.125,1087.636C952.136,1108.43,852.232,1129.36,802.281,1139.825L752.329,1150.291" id="my-svg-L_R1_Stop_0" class="edge-thickness-normal edge-pattern-solid edge-thickness-normal edge-pattern-solid flowchart-link" style=";" data-edge="true" data-et="edge" data-id="L_R1_Stop_0" data-points="W3sieCI6MTAyOC4yNjU2MTQyMjQxMzc4LCJ5IjoxMDI1LjUyMzQ0ODI3NTg2MjJ9LHsieCI6MTA1Mi4wMzkwNjI1LCJ5IjoxMDg3LjV9LHsieCI6NzQ4LjQxNDA2MjUsInkiOjExNTEuMTEwNzMzNzc1NjAzNH1d" data-look="classic" marker-end="url(#my-svg_flowchart-v2-pointEnd)"/><path d="M745.122,282.667L809.65,299.139C874.178,315.611,1003.233,348.556,1067.761,382.861C1132.289,417.167,1132.289,452.833,1132.289,488.5C1132.289,524.167,1132.289,559.833,1132.289,596.833C1132.289,633.833,1132.289,672.167,1132.289,710.5C1132.289,748.833,1132.289,787.167,1132.289,828.167C1132.289,869.167,1132.289,912.833,1132.289,956.5C1132.289,1000.167,1132.289,1043.833,1068.967,1076.545C1005.645,1109.257,879.001,1131.014,815.678,1141.893L752.356,1152.771" id="my-svg-L_Check_Stop_0" class="edge-thickness-normal edge-pattern-solid edge-thickness-normal edge-pattern-solid flowchart-link" style=";" data-edge="true" data-et="edge" data-id="L_Check_Stop_0" data-points="W3sieCI6NzQ1LjEyMTk1Mzc0NjY4NDMsInkiOjI4Mi42NjcxMDg3NTMzMTU2M30seyJ4IjoxMTMyLjI4OTA2MjUsInkiOjM4MS41fSx7IngiOjExMzIuMjg5MDYyNSwieSI6NDg4LjV9LHsieCI6MTEzMi4yODkwNjI1LCJ5Ijo1OTUuNX0seyJ4IjoxMTMyLjI4OTA2MjUsInkiOjcxMC41fSx7IngiOjExMzIuMjg5MDYyNSwieSI6ODI1LjV9LHsieCI6MTEzMi4yODkwNjI1LCJ5Ijo5NTYuNX0seyJ4IjoxMTMyLjI4OTA2MjUsInkiOjEwODcuNX0seyJ4Ijo3NDguNDE0MDYyNSwieSI6MTE1My40NDg1ODI5MzA3NjE0fV0=" data-look="classic" marker-end="url(#my-svg_flowchart-v2-pointEnd)"/></g><g class="edgeLabels"><g class="edgeLabel"><g class="label" data-id="L_Start_Request_0" transform="translate(0, 0)"><text y="-10.1" text-anchor="middle"><tspan class="text-outer-tspan row" x="0" y="-0.1em" dy="1.1em" text-anchor="middle"/></text></g></g><g><rect class="background" style="stroke: none"/></g><g class="edgeLabel"><g class="label" data-id="L_Request_Check_0" transform="translate(0, 0)"><text y="-10.1" text-anchor="middle"><tspan class="text-outer-tspan row" x="0" y="-0.1em" dy="1.1em" text-anchor="middle"/></text></g></g><g><rect class="background" style="stroke: none"/></g><g class="edgeLabel" transform="translate(110, 381.5)"><g class="label" data-id="L_Check_Done_0" transform="translate(-0.046875, -10.5)"><g><rect class="background" style="" x="-52.6875" y="0" width="105.46875" height="21"/><text y="-10.1" text-anchor="middle" style=""><tspan class="text-outer-tspan row" x="0" y="-0.1em" dy="1.1em" text-anchor="middle"><tspan font-style="normal" class="text-inner-tspan" font-weight="normal">完整</tspan><tspan font-style="normal" class="text-inner-tspan" font-weight="normal"> message</tspan></tspan></text></g></g></g><g class="edgeLabel" transform="translate(333.5, 381.5)"><g class="label" data-id="L_Check_L1_0" transform="translate(0, -10.5)"><g><rect class="background" style="" x="-34" y="0" width="68" height="21"/><text y="-10.1" text-anchor="middle" style=""><tspan class="text-outer-tspan row" x="0" y="-0.1em" dy="1.1em" text-anchor="middle"><tspan font-style="normal" class="text-inner-tspan" font-weight="normal">输出截断</tspan></tspan></text></g></g></g><g class="edgeLabel" transform="translate(221.75, 595.5)"><g class="label" data-id="L_L1_L2_0" transform="translate(0, -10.5)"><g><rect class="background" style="" x="-10" y="0" width="20" height="21"/><text y="-10.1" text-anchor="middle" style=""><tspan class="text-outer-tspan row" x="0" y="-0.1em" dy="1.1em" text-anchor="middle"><tspan font-style="normal" class="text-inner-tspan" font-weight="normal">是</tspan></tspan></text></g></g></g><g class="edgeLabel" transform="translate(470.1640625, 595.5)"><g class="label" data-id="L_L1_L3_0" transform="translate(0, -10.5)"><g><rect class="background" style="" x="-10" y="0" width="20" height="21"/><text y="-10.1" text-anchor="middle" style=""><tspan class="text-outer-tspan row" x="0" y="-0.1em" dy="1.1em" text-anchor="middle"><tspan font-style="normal" class="text-inner-tspan" font-weight="normal">否</tspan></tspan></text></g></g></g><g class="edgeLabel" transform="translate(365.7890625, 956.5)"><g class="label" data-id="L_L3_Stop_0" transform="translate(0, -10.5)"><g><rect class="background" style="" x="-10" y="0" width="20" height="21"/><text y="-10.1" text-anchor="middle" style=""><tspan class="text-outer-tspan row" x="0" y="-0.1em" dy="1.1em" text-anchor="middle"><tspan font-style="normal" class="text-inner-tspan" font-weight="normal">否</tspan></tspan></text></g></g></g><g class="edgeLabel" transform="translate(540.4140625, 825.5)"><g class="label" data-id="L_L3_L4_0" transform="translate(0, -10.5)"><g><rect class="background" style="" x="-10" y="0" width="20" height="21"/><text y="-10.1" text-anchor="middle" style=""><tspan class="text-outer-tspan row" x="0" y="-0.1em" dy="1.1em" text-anchor="middle"><tspan font-style="normal" class="text-inner-tspan" font-weight="normal">是</tspan></tspan></text></g></g></g><g class="edgeLabel" transform="translate(392.88794, 1103.35187)"><g class="label" data-id="L_L4_L5_0" transform="translate(0, -10.5)"><g><rect class="background" style="" x="-10" y="0" width="20" height="21"/><text y="-10.1" text-anchor="middle" style=""><tspan class="text-outer-tspan row" x="0" y="-0.1em" dy="1.1em" text-anchor="middle"><tspan font-style="normal" class="text-inner-tspan" font-weight="normal">是</tspan></tspan></text></g></g></g><g class="edgeLabel" transform="translate(622.50048, 1078.00645)"><g class="label" data-id="L_L4_Stop_0" transform="translate(0, -10.5)"><g><rect class="background" style="" x="-10" y="0" width="20" height="21"/><text y="-10.1" text-anchor="middle" style=""><tspan class="text-outer-tspan row" x="0" y="-0.1em" dy="1.1em" text-anchor="middle"><tspan font-style="normal" class="text-inner-tspan" font-weight="normal">否</tspan></tspan></text></g></g></g><g class="edgeLabel" transform="translate(770.2890625, 595.5)"><g class="label" data-id="L_Check_C1_0" transform="translate(0, -10.5)"><g><rect class="background" style="" x="-42" y="0" width="84" height="21"/><text y="-10.1" text-anchor="middle" style=""><tspan class="text-outer-tspan row" x="0" y="-0.1em" dy="1.1em" text-anchor="middle"><tspan font-style="normal" class="text-inner-tspan" font-weight="normal">上下文超限</tspan></tspan></text></g></g></g><g class="edgeLabel" transform="translate(629.53429, 1098.26837)"><g class="label" data-id="L_C1_C2_0" transform="translate(0, -10.5)"><g><rect class="background" style="" x="-10" y="0" width="20" height="21"/><text y="-10.1" text-anchor="middle" style=""><tspan class="text-outer-tspan row" x="0" y="-0.1em" dy="1.1em" text-anchor="middle"><tspan font-style="normal" class="text-inner-tspan" font-weight="normal">否</tspan></tspan></text></g></g></g><g class="edgeLabel" transform="translate(847.74813, 1092.40637)"><g class="label" data-id="L_C1_Stop_0" transform="translate(0, -10.5)"><g><rect class="background" style="" x="-10" y="0" width="20" height="21"/><text y="-10.1" text-anchor="middle" style=""><tspan class="text-outer-tspan row" x="0" y="-0.1em" dy="1.1em" text-anchor="middle"><tspan font-style="normal" class="text-inner-tspan" font-weight="normal">是</tspan></tspan></text></g></g></g><g class="edgeLabel" transform="translate(1001.7890625, 595.5)"><g class="label" data-id="L_Check_R1_0" transform="translate(-0.05078125, -10.5)"><g><rect class="background" style="" x="-35.3671875" y="0" width="70.8359375" height="21"/><text y="-10.1" text-anchor="middle" style=""><tspan class="text-outer-tspan row" x="0" y="-0.1em" dy="1.1em" text-anchor="middle"><tspan font-style="normal" class="text-inner-tspan" font-weight="normal">429</tspan><tspan font-style="normal" class="text-inner-tspan" font-weight="normal"> /</tspan><tspan font-style="normal" class="text-inner-tspan" font-weight="normal"> 529</tspan></tspan></text></g></g></g><g class="edgeLabel" transform="translate(983.42848, 1088.97307)"><g class="label" data-id="L_R1_R2_0" transform="translate(0, -10.5)"><g><rect class="background" style="" x="-10" y="0" width="20" height="21"/><text y="-10.1" text-anchor="middle" style=""><tspan class="text-outer-tspan row" x="0" y="-0.1em" dy="1.1em" text-anchor="middle"><tspan font-style="normal" class="text-inner-tspan" font-weight="normal">是</tspan></tspan></text></g></g></g><g class="edgeLabel" transform="translate(1052.0390625, 1087.5)"><g class="label" data-id="L_R1_Stop_0" transform="translate(0, -10.5)"><g><rect class="background" style="" x="-10" y="0" width="20" height="21"/><text y="-10.1" text-anchor="middle" style=""><tspan class="text-outer-tspan row" x="0" y="-0.1em" dy="1.1em" text-anchor="middle"><tspan font-style="normal" class="text-inner-tspan" font-weight="normal">否</tspan></tspan></text></g></g></g><g class="edgeLabel" transform="translate(1132.2890625, 710.5)"><g class="label" data-id="L_Check_Stop_0" transform="translate(0, -10.5)"><g><rect class="background" style="" x="-34" y="0" width="68" height="21"/><text y="-10.1" text-anchor="middle" style=""><tspan class="text-outer-tspan row" x="0" y="-0.1em" dy="1.1em" text-anchor="middle"><tspan font-style="normal" class="text-inner-tspan" font-weight="normal">普通错误</tspan></tspan></text></g></g></g></g><g class="nodes"><g class="node default" id="my-svg-flowchart-Start-0" data-look="classic" transform="translate(681.7890625, 24)"><g class="basic label-container outer-path"><path d="M-11.5 -16 C-5.054896333137722 -16, 1.3902073337245557 -16, 11.5 -16 C11.5 -16, 11.499999999999998 -16, 11.499999999999998 -16 C11.809448060337491 -15.990076603009086, 12.118896120674984 -15.980153206018173, 12.525123519691405 -15.967126284005381 C12.822867141308832 -15.938403314917045, 13.120610762926256 -15.909680345828706, 13.546034586952095 -15.868640221171939 C13.868500748934817 -15.816506392865007, 14.19096691091754 -15.764372564558077, 14.558538059221954 -15.704946511857047 C14.928801806961372 -15.620436227632284, 15.29906555470079 -15.53592594340752, 15.558473342552116 -15.476717808624471 C15.914099527925273 -15.371169823525658, 16.26972571329843 -15.265621838426844, 16.54173148837793 -15.184891952170698 C16.922427600944385 -15.044792263629956, 17.303123713510836 -14.904692575089213, 17.504272078069985 -14.830668117536348 C17.75162902796069 -14.721170533402947, 17.99898597785139 -14.611672949269547, 18.44213982588093 -14.415501886438706 C18.770787561276833 -14.244046573391584, 19.099435296672738 -14.072591260344462, 19.351480832063 -13.941099265974232 C19.593451810457566 -13.79441503689214, 19.83542278885213 -13.64773080781005, 20.228558419368778 -13.409409678269451 C20.526363947200885 -13.201673433847294, 20.824169475032996 -12.993937189425136, 21.069768487859456 -12.822617949887306 C21.356634362051803 -12.593850049040421, 21.64350023624415 -12.365082148193537, 21.871654324924613 -12.183135333906153 C22.124363202216955 -11.953631817859742, 22.3770720795093 -11.72412830181333, 22.630920809655784 -11.493589601563642 C22.788506309915196 -11.330869634535613, 22.94609181017461 -11.168149667507583, 23.344447953205048 -10.756814244181072 C23.604303726393226 -10.451572866781868, 23.864159499581405 -10.146331489382664, 24.00930371948848 -9.975836829739738 C24.14551486780821 -9.793326300082185, 24.281726016127944 -9.610815770424635, 24.62275607355129 -9.153866561954718 C24.808379272367578 -8.868699481764805, 24.99400247118387 -8.583532401574892, 25.182284208085537 -8.294281092968403 C25.29482312977719 -8.094456841703336, 25.40736205146884 -7.8946325904382695, 25.685588901968003 -7.400612643853364 C25.801989343953725 -7.1589046354995345, 25.918389785939446 -6.917196627145704, 26.130601968252996 -6.476533489958305 C26.279766545857132 -6.10809409937517, 26.428931123461272 -5.7396547087920355, 26.515494752796165 -5.52584087074093 C26.601312458383248 -5.267371614707161, 26.687130163970334 -5.008902358673393, 26.83868564858657 -4.552441386096524 C26.940035172117394 -4.165951727712128, 27.041384695648222 -3.7794620693277317, 27.098846594909176 -3.560334943301032 C27.163270772429087 -3.2295304077910347, 27.227694949948997 -2.8987258722810374, 27.2949085346312 -2.5535983205340735 C27.345309581897993 -2.1626977507453473, 27.39571062916479 -1.771797180956621, 27.42606580718717 -1.536368414522911 C27.45235116768907 -1.1269527075447405, 27.478636528190968 -0.7175370005665701, 27.491779459211006 -0.5128252411464826 C27.491779459211006 -0.10672769244349906, 27.491779459211006 0.29936985625948453, 27.491779459211006 0.5128252411464788 C27.467354361749283 0.8932658496966408, 27.44292926428756 1.2737064582468027, 27.42606580718717 1.5363684145229002 C27.380776203164853 1.8876256398761184, 27.335486599142538 2.2388828652293364, 27.294908534631205 2.5535983205340624 C27.21902896401282 2.943223878506525, 27.143149393394438 3.3328494364789876, 27.098846594909176 3.5603349433010285 C27.036723540486864 3.797237074115407, 26.974600486064553 4.034139204929786, 26.83868564858657 4.552441386096513 C26.749397714922377 4.821362416192776, 26.660109781258182 5.090283446289039, 26.515494752796165 5.525840870740919 C26.371567780135567 5.881343275851318, 26.227640807474966 6.236845680961716, 26.130601968253 6.4765334899583005 C25.992165286017013 6.7640002226918154, 25.853728603781025 7.0514669554253295, 25.685588901968003 7.400612643853361 C25.562218474242528 7.619669330890404, 25.43884804651705 7.838726017927448, 25.18228420808554 8.294281092968399 C25.01840935842672 8.54603686860298, 24.854534508767898 8.79779264423756, 24.622756073551297 9.15386656195471 C24.449617954562463 9.385855868192621, 24.276479835573628 9.617845174430535, 24.00930371948848 9.975836829739734 C23.808638813504444 10.211549246465193, 23.607973907520414 10.447261663190652, 23.344447953205055 10.756814244181063 C23.06001575000315 11.050513846305206, 22.775583546801244 11.34421344842935, 22.630920809655784 11.493589601563638 C22.477038559301736 11.633341389833953, 22.323156308947688 11.773093178104267, 21.871654324924627 12.183135333906142 C21.588121657518364 12.409245091041482, 21.3045889901121 12.635354848176823, 21.06976848785946 12.822617949887304 C20.80063229697971 13.01035570592709, 20.531496106099965 13.198093461966875, 20.228558419368788 13.409409678269446 C20.0524849762287 13.51614643422337, 19.876411533088618 13.622883190177294, 19.351480832063004 13.94109926597423 C18.99968097523709 14.124633025941746, 18.64788111841118 14.308166785909261, 18.442139825880933 14.415501886438705 C18.23152491627166 14.508734859253416, 18.02091000666239 14.601967832068127, 17.50427207806999 14.830668117536346 C17.197046530337122 14.943729959063873, 16.889820982604252 15.0567918005914, 16.54173148837794 15.184891952170695 C16.3382216705218 15.245292597865564, 16.134711852665664 15.305693243560434, 15.558473342552134 15.476717808624468 C15.32976722240389 15.528918488101393, 15.101061102255647 15.58111916757832, 14.558538059221961 15.704946511857045 C14.199481919189035 15.762995924055616, 13.840425779156107 15.821045336254187, 13.546034586952105 15.868640221171937 C13.21882133690562 15.900206089872412, 12.891608086859133 15.931771958572888, 12.525123519691405 15.967126284005381 C12.203792204695924 15.977430753843825, 11.882460889700443 15.987735223682268, 11.500000000000004 16 C11.500000000000004 16, 11.500000000000002 16, 11.5 16 C2.945179391789903 16, -5.609641216420194 16, -11.499999999999996 16 C-11.808219176822913 15.990116010911523, -12.116438353645831 15.980232021823044, -12.5251235196914 15.967126284005381 C-12.848601054564572 15.93592079525482, -13.172078589437742 15.90471530650426, -13.5460345869521 15.868640221171937 C-13.876870372489167 15.815153257036139, -14.207706158026234 15.761666292900342, -14.558538059221956 15.704946511857045 C-14.835748420017628 15.641675055972094, -15.112958780813301 15.578403600087142, -15.558473342552112 15.476717808624471 C-15.826630406139792 15.397130199736798, -16.09478746972747 15.317542590849127, -16.541731488377923 15.184891952170702 C-16.747608403507837 15.109127344297553, -16.953485318637746 15.033362736424404, -17.504272078069988 14.830668117536348 C-17.84113948782153 14.681546908056006, -18.178006897573066 14.532425698575667, -18.44213982588093 14.415501886438708 C-18.709225714127832 14.276163349616974, -18.97631160237474 14.13682481279524, -19.351480832063 13.941099265974234 C-19.558713828728315 13.815473405559453, -19.765946825393627 13.689847545144675, -20.228558419368767 13.409409678269457 C-20.469986267899447 13.241000062377575, -20.711414116430124 13.072590446485693, -21.069768487859456 12.822617949887308 C-21.353527540877113 12.596327656251255, -21.637286593894768 12.370037362615204, -21.871654324924613 12.183135333906154 C-22.030063685932852 12.03927214352049, -22.188473046941088 11.895408953134826, -22.630920809655777 11.493589601563649 C-22.799881229252346 11.31912409642176, -22.968841648848915 11.144658591279871, -23.344447953205048 10.756814244181069 C-23.514755976731276 10.556760748946093, -23.685064000257505 10.35670725371112, -24.009303719488475 9.97583682973974 C-24.19938678893059 9.721142833611173, -24.389469858372706 9.46644883748261, -24.62275607355129 9.15386656195472 C-24.778798970483507 8.91414276888198, -24.934841867415727 8.67441897580924, -25.182284208085534 8.29428109296841 C-25.35964451283003 7.979359912216222, -25.537004817574523 7.664438731464035, -25.685588901968 7.400612643853366 C-25.80562192910469 7.151361494708685, -25.925654956241377 6.9021103455640045, -26.130601968252996 6.476533489958307 C-26.22669104861036 6.239191603719635, -26.32278012896772 6.001849717480964, -26.515494752796165 5.525840870740931 C-26.606223046422173 5.252581705929873, -26.696951340048184 4.9793225411188144, -26.83868564858657 4.552441386096519 C-26.93662340994708 4.17896225553461, -27.034561171307594 3.805483124972701, -27.098846594909176 3.5603349433010343 C-27.144879771736168 3.3239643094097993, -27.19091294856316 3.0875936755185647, -27.2949085346312 2.5535983205340753 C-27.32321964234834 2.3340229597404996, -27.351530750065482 2.114447598946924, -27.42606580718717 1.5363684145229202 C-27.44390495998766 1.2585092101503772, -27.461744112788143 0.9806500057778345, -27.491779459211006 0.5128252411464846 C-27.491779459211006 0.199568614324156, -27.491779459211006 -0.11368801249817262, -27.491779459211006 -0.5128252411464769 C-27.474524682056526 -0.7815823231329393, -27.457269904902045 -1.0503394051194017, -27.42606580718717 -1.5363684145228982 C-27.390448072403352 -1.8126125319889308, -27.354830337619532 -2.0888566494549634, -27.294908534631205 -2.5535983205340678 C-27.21649992369678 -2.956209966016533, -27.13809131276236 -3.358821611498998, -27.098846594909176 -3.5603349433010267 C-27.03547862437781 -3.801984478789284, -26.972110653846446 -4.04363401427754, -26.838685648586573 -4.552441386096511 C-26.773371901530606 -4.749155985896703, -26.708058154474635 -4.945870585696894, -26.515494752796172 -5.525840870740911 C-26.36797844213569 -5.890209010106143, -26.22046213147521 -6.254577149471375, -26.130601968253 -6.476533489958299 C-26.00606278646815 -6.735141765646157, -25.881523604683295 -6.993750041334016, -25.685588901968003 -7.400612643853359 C-25.548712334155816 -7.643650850259346, -25.411835766343625 -7.886689056665333, -25.182284208085537 -8.294281092968404 C-24.988578932347522 -8.591864413651619, -24.794873656609504 -8.889447734334835, -24.622756073551294 -9.153866561954715 C-24.43481653341307 -9.405688424095601, -24.24687699327485 -9.657510286236487, -24.00930371948848 -9.975836829739734 C-23.767307831121453 -10.260098970171779, -23.525311942754424 -10.544361110603823, -23.344447953205055 -10.756814244181063 C-23.08557646571604 -11.024120308757857, -22.82670497822703 -11.29142637333465, -22.63092080965579 -11.493589601563633 C-22.462226179378153 -11.646793601366454, -22.293531549100518 -11.799997601169274, -21.871654324924627 -12.18313533390614 C-21.654471310903006 -12.35633300810566, -21.43728829688138 -12.529530682305179, -21.069768487859463 -12.822617949887302 C-20.80115231719879 -13.009992962333573, -20.53253614653812 -13.197367974779842, -20.228558419368788 -13.409409678269444 C-19.99733159330355 -13.54958073906985, -19.766104767238314 -13.689751799870256, -19.351480832063007 -13.941099265974229 C-19.117966628574678 -14.062923476361105, -18.884452425086344 -14.184747686747983, -18.442139825880936 -14.415501886438705 C-18.17551058938322 -14.53353074016096, -17.9088813528855 -14.651559593883215, -17.504272078069995 -14.830668117536344 C-17.240421091783766 -14.927767719501457, -16.97657010549754 -15.02486732146657, -16.54173148837794 -15.184891952170695 C-16.197377025927644 -15.287094549072485, -15.853022563477344 -15.389297145974274, -15.558473342552134 -15.476717808624466 C-15.222812474411647 -15.553330211385665, -14.887151606271159 -15.629942614146863, -14.558538059221963 -15.704946511857043 C-14.242071316915197 -15.756110400516961, -13.92560457460843 -15.80727428917688, -13.546034586952107 -15.868640221171937 C-13.228818850569462 -15.899241641753031, -12.91160311418682 -15.929843062334125, -12.525123519691407 -15.967126284005381 C-12.150033552992197 -15.979154689169096, -11.774943586292986 -15.99118309433281, -11.500000000000005 -16 C-11.500000000000004 -16, -11.500000000000002 -16, -11.5 -16" stroke="none" stroke-width="0" fill="#eee" style=""/><path d="M-11.5 -16 C-3.923125327611883 -16, 3.6537493447762337 -16, 11.5 -16 M-11.5 -16 C-5.5548687601015105 -16, 0.3902624797969789 -16, 11.5 -16 M11.5 -16 C11.5 -16, 11.5 -16, 11.499999999999998 -16 M11.5 -16 C11.5 -16, 11.499999999999998 -16, 11.499999999999998 -16 M11.499999999999998 -16 C11.756846991161199 -15.9917634169158, 12.013693982322401 -15.9835268338316, 12.525123519691405 -15.967126284005381 M11.499999999999998 -16 C11.82795304113693 -15.989483184292608, 12.155906082273859 -15.978966368585217, 12.525123519691405 -15.967126284005381 M12.525123519691405 -15.967126284005381 C12.870864809164782 -15.933773037624622, 13.216606098638158 -15.900419791243861, 13.546034586952095 -15.868640221171939 M12.525123519691405 -15.967126284005381 C12.76400600360932 -15.944081578080041, 13.002888487527233 -15.9210368721547, 13.546034586952095 -15.868640221171939 M13.546034586952095 -15.868640221171939 C13.864865472582405 -15.817094116153676, 14.183696358212716 -15.765548011135413, 14.558538059221954 -15.704946511857047 M13.546034586952095 -15.868640221171939 C13.936137480859788 -15.805571410578068, 14.32624037476748 -15.742502599984197, 14.558538059221954 -15.704946511857047 M14.558538059221954 -15.704946511857047 C14.88384393468183 -15.630697568602555, 15.209149810141703 -15.556448625348064, 15.558473342552116 -15.476717808624471 M14.558538059221954 -15.704946511857047 C14.829560297457713 -15.643087454565123, 15.100582535693471 -15.581228397273199, 15.558473342552116 -15.476717808624471 M15.558473342552116 -15.476717808624471 C15.926270716015807 -15.367557478788257, 16.2940680894795 -15.258397148952044, 16.54173148837793 -15.184891952170698 M15.558473342552116 -15.476717808624471 C15.878250378018553 -15.381809663041945, 16.19802741348499 -15.286901517459418, 16.54173148837793 -15.184891952170698 M16.54173148837793 -15.184891952170698 C16.87477202693509 -15.062329955388673, 17.20781256549225 -14.939767958606648, 17.504272078069985 -14.830668117536348 M16.54173148837793 -15.184891952170698 C16.77218697724354 -15.100082201960968, 17.002642466109148 -15.015272451751239, 17.504272078069985 -14.830668117536348 M17.504272078069985 -14.830668117536348 C17.823124816917492 -14.689521468478997, 18.141977555765 -14.548374819421644, 18.44213982588093 -14.415501886438706 M17.504272078069985 -14.830668117536348 C17.72694332816894 -14.732098160425487, 17.949614578267898 -14.633528203314627, 18.44213982588093 -14.415501886438706 M18.44213982588093 -14.415501886438706 C18.77422725142786 -14.24225208924302, 19.10631467697479 -14.069002292047333, 19.351480832063 -13.941099265974232 M18.44213982588093 -14.415501886438706 C18.653104178702645 -14.305441918700733, 18.864068531524364 -14.19538195096276, 19.351480832063 -13.941099265974232 M19.351480832063 -13.941099265974232 C19.555504769866236 -13.817418755900169, 19.759528707669467 -13.693738245826106, 20.228558419368778 -13.409409678269451 M19.351480832063 -13.941099265974232 C19.66237615475282 -13.75263269433595, 19.97327147744264 -13.564166122697669, 20.228558419368778 -13.409409678269451 M20.228558419368778 -13.409409678269451 C20.441016109582204 -13.261208390721741, 20.653473799795634 -13.113007103174033, 21.069768487859456 -12.822617949887306 M20.228558419368778 -13.409409678269451 C20.532641421606794 -13.197294539449219, 20.836724423844814 -12.985179400628985, 21.069768487859456 -12.822617949887306 M21.069768487859456 -12.822617949887306 C21.368863356808717 -12.584097751149, 21.667958225757978 -12.345577552410695, 21.871654324924613 -12.183135333906153 M21.069768487859456 -12.822617949887306 C21.243129207088263 -12.68436738962482, 21.41648992631707 -12.546116829362333, 21.871654324924613 -12.183135333906153 M21.871654324924613 -12.183135333906153 C22.174237894270487 -11.908336942148765, 22.476821463616357 -11.633538550391378, 22.630920809655784 -11.493589601563642 M21.871654324924613 -12.183135333906153 C22.05865204900508 -12.013308948584928, 22.245649773085542 -11.843482563263704, 22.630920809655784 -11.493589601563642 M22.630920809655784 -11.493589601563642 C22.822979353550682 -11.295273386692454, 23.015037897445584 -11.096957171821266, 23.344447953205048 -10.756814244181072 M22.630920809655784 -11.493589601563642 C22.90846197598506 -11.207005560775139, 23.18600314231433 -10.920421519986638, 23.344447953205048 -10.756814244181072 M23.344447953205048 -10.756814244181072 C23.581743846157256 -10.478072985800589, 23.819039739109467 -10.199331727420105, 24.00930371948848 -9.975836829739738 M23.344447953205048 -10.756814244181072 C23.558236978280572 -10.505685490387217, 23.772026003356096 -10.254556736593363, 24.00930371948848 -9.975836829739738 M24.00930371948848 -9.975836829739738 C24.204924341226832 -9.713723018015607, 24.40054496296518 -9.451609206291474, 24.62275607355129 -9.153866561954718 M24.00930371948848 -9.975836829739738 C24.197407091552023 -9.723795447744314, 24.385510463615567 -9.47175406574889, 24.62275607355129 -9.153866561954718 M24.62275607355129 -9.153866561954718 C24.78755301263557 -8.90069420934695, 24.952349951719853 -8.647521856739184, 25.182284208085537 -8.294281092968403 M24.62275607355129 -9.153866561954718 C24.74068619434169 -8.972694227749196, 24.858616315132096 -8.791521893543674, 25.182284208085537 -8.294281092968403 M25.182284208085537 -8.294281092968403 C25.35214732553508 -7.992671927430946, 25.522010442984616 -7.691062761893489, 25.685588901968003 -7.400612643853364 M25.182284208085537 -8.294281092968403 C25.362449637798147 -7.974379128785625, 25.54261506751076 -7.654477164602846, 25.685588901968003 -7.400612643853364 M25.685588901968003 -7.400612643853364 C25.86319887468454 -7.0318017352628495, 26.04080884740107 -6.662990826672334, 26.130601968252996 -6.476533489958305 M25.685588901968003 -7.400612643853364 C25.83647157812496 -7.087301538441344, 25.987354254281918 -6.773990433029323, 26.130601968252996 -6.476533489958305 M26.130601968252996 -6.476533489958305 C26.249163025994175 -6.18368538511548, 26.367724083735357 -5.890837280272655, 26.515494752796165 -5.52584087074093 M26.130601968252996 -6.476533489958305 C26.23821223398019 -6.210734053109193, 26.345822499707378 -5.944934616260081, 26.515494752796165 -5.52584087074093 M26.515494752796165 -5.52584087074093 C26.58840897784261 -5.306234842205129, 26.66132320288906 -5.0866288136693285, 26.83868564858657 -4.552441386096524 M26.515494752796165 -5.52584087074093 C26.596515853589445 -5.281818224110916, 26.67753695438272 -5.037795577480901, 26.83868564858657 -4.552441386096524 M26.83868564858657 -4.552441386096524 C26.91648157371853 -4.255771806601116, 26.994277498850494 -3.9591022271057077, 27.098846594909176 -3.560334943301032 M26.83868564858657 -4.552441386096524 C26.903030517172667 -4.307066514935279, 26.967375385758764 -4.061691643774036, 27.098846594909176 -3.560334943301032 M27.098846594909176 -3.560334943301032 C27.170458273442666 -3.19262410916519, 27.242069951976152 -2.824913275029348, 27.2949085346312 -2.5535983205340735 M27.098846594909176 -3.560334943301032 C27.150598009287283 -3.294602368134751, 27.202349423665392 -3.02886979296847, 27.2949085346312 -2.5535983205340735 M27.2949085346312 -2.5535983205340735 C27.330646251998242 -2.276423641845826, 27.36638396936528 -1.9992489631575785, 27.42606580718717 -1.536368414522911 M27.2949085346312 -2.5535983205340735 C27.339909620552806 -2.204578784595661, 27.384910706474408 -1.855559248657248, 27.42606580718717 -1.536368414522911 M27.42606580718717 -1.536368414522911 C27.439713437981414 -1.3237955487332733, 27.453361068775656 -1.1112226829436354, 27.491779459211006 -0.5128252411464826 M27.42606580718717 -1.536368414522911 C27.44771293344478 -1.1991969498148314, 27.46936005970239 -0.8620254851067517, 27.491779459211006 -0.5128252411464826 M27.491779459211006 -0.5128252411464826 C27.491779459211006 -0.23060021582145906, 27.491779459211006 0.05162480950356452, 27.491779459211006 0.5128252411464788 M27.491779459211006 -0.5128252411464826 C27.491779459211006 -0.17582031939959114, 27.491779459211006 0.16118460234730037, 27.491779459211006 0.5128252411464788 M27.491779459211006 0.5128252411464788 C27.477361428550193 0.7373977067135538, 27.462943397889376 0.9619701722806286, 27.42606580718717 1.5363684145229002 M27.491779459211006 0.5128252411464788 C27.474164428783155 0.7871935586568877, 27.456549398355307 1.0615618761672967, 27.42606580718717 1.5363684145229002 M27.42606580718717 1.5363684145229002 C27.37934834950786 1.8986997908781706, 27.332630891828547 2.2610311672334413, 27.294908534631205 2.5535983205340624 M27.42606580718717 1.5363684145229002 C27.385616494478448 1.8500852962715255, 27.34516718176972 2.1638021780201506, 27.294908534631205 2.5535983205340624 M27.294908534631205 2.5535983205340624 C27.246567494143587 2.8018193465554506, 27.19822645365597 3.050040372576839, 27.098846594909176 3.5603349433010285 M27.294908534631205 2.5535983205340624 C27.242116778045325 2.824672833060849, 27.189325021459442 3.0957473455876348, 27.098846594909176 3.5603349433010285 M27.098846594909176 3.5603349433010285 C27.012360769764356 3.8901428777719453, 26.92587494461954 4.219950812242862, 26.83868564858657 4.552441386096513 M27.098846594909176 3.5603349433010285 C27.030888192992524 3.8194897831669268, 26.962929791075872 4.078644623032825, 26.83868564858657 4.552441386096513 M26.83868564858657 4.552441386096513 C26.72138353174842 4.905736672458795, 26.60408141491027 5.259031958821078, 26.515494752796165 5.525840870740919 M26.83868564858657 4.552441386096513 C26.713218087858966 4.930329688467018, 26.587750527131366 5.308217990837524, 26.515494752796165 5.525840870740919 M26.515494752796165 5.525840870740919 C26.40502626188337 5.798700179058495, 26.29455777097058 6.071559487376072, 26.130601968253 6.4765334899583005 M26.515494752796165 5.525840870740919 C26.412098550147597 5.781231490312474, 26.308702347499025 6.036622109884029, 26.130601968253 6.4765334899583005 M26.130601968253 6.4765334899583005 C26.024614462465195 6.696618813496012, 25.91862695667739 6.916704137033723, 25.685588901968003 7.400612643853361 M26.130601968253 6.4765334899583005 C26.027325653312726 6.690988967690924, 25.924049338372452 6.905444445423547, 25.685588901968003 7.400612643853361 M25.685588901968003 7.400612643853361 C25.57839736404695 7.590942073752407, 25.4712058261259 7.781271503651452, 25.18228420808554 8.294281092968399 M25.685588901968003 7.400612643853361 C25.495771532589718 7.73765260427742, 25.30595416321143 8.07469256470148, 25.18228420808554 8.294281092968399 M25.18228420808554 8.294281092968399 C24.985134519851766 8.59715595619936, 24.78798483161799 8.900030819430324, 24.622756073551297 9.15386656195471 M25.18228420808554 8.294281092968399 C25.06448364107834 8.47525439777286, 24.946683074071142 8.65622770257732, 24.622756073551297 9.15386656195471 M24.622756073551297 9.15386656195471 C24.409147021196684 9.44008323192489, 24.195537968842068 9.726299901895068, 24.00930371948848 9.975836829739734 M24.622756073551297 9.15386656195471 C24.485881648626723 9.337265821837006, 24.34900722370215 9.520665081719303, 24.00930371948848 9.975836829739734 M24.00930371948848 9.975836829739734 C23.756279211288565 10.273053814573736, 23.503254703088647 10.570270799407737, 23.344447953205055 10.756814244181063 M24.00930371948848 9.975836829739734 C23.801967745619322 10.219385462397575, 23.594631771750166 10.462934095055415, 23.344447953205055 10.756814244181063 M23.344447953205055 10.756814244181063 C23.09298729486926 11.01646801921677, 22.841526636533466 11.276121794252477, 22.630920809655784 11.493589601563638 M23.344447953205055 10.756814244181063 C23.154898208111785 10.952539918313356, 22.965348463018515 11.14826559244565, 22.630920809655784 11.493589601563638 M22.630920809655784 11.493589601563638 C22.38911182287858 11.713194125439504, 22.14730283610137 11.932798649315368, 21.871654324924627 12.183135333906142 M22.630920809655784 11.493589601563638 C22.393895735963078 11.708849502151562, 22.156870662270375 11.924109402739488, 21.871654324924627 12.183135333906142 M21.871654324924627 12.183135333906142 C21.647683100170525 12.36174642552294, 21.42371187541642 12.540357517139737, 21.06976848785946 12.822617949887304 M21.871654324924627 12.183135333906142 C21.70179471019719 12.31859385649709, 21.531935095469755 12.454052379088036, 21.06976848785946 12.822617949887304 M21.06976848785946 12.822617949887304 C20.738573493110106 13.053645241024205, 20.407378498360757 13.284672532161107, 20.228558419368788 13.409409678269446 M21.06976848785946 12.822617949887304 C20.83124559147617 12.989001196914522, 20.592722695092878 13.155384443941738, 20.228558419368788 13.409409678269446 M20.228558419368788 13.409409678269446 C19.997179616961187 13.549672868021704, 19.76580081455359 13.689936057773961, 19.351480832063004 13.94109926597423 M20.228558419368788 13.409409678269446 C20.034907279154638 13.526802137487683, 19.841256138940484 13.64419459670592, 19.351480832063004 13.94109926597423 M19.351480832063004 13.94109926597423 C19.127605461799632 14.057894903241612, 18.90373009153626 14.174690540508996, 18.442139825880933 14.415501886438705 M19.351480832063004 13.94109926597423 C19.11029793026545 14.066924231356994, 18.869115028467892 14.192749196739758, 18.442139825880933 14.415501886438705 M18.442139825880933 14.415501886438705 C18.148556486683688 14.545462521860992, 17.854973147486447 14.67542315728328, 17.50427207806999 14.830668117536346 M18.442139825880933 14.415501886438705 C18.106824090415085 14.563936215741553, 17.77150835494924 14.7123705450444, 17.50427207806999 14.830668117536346 M17.50427207806999 14.830668117536346 C17.201922507959434 14.94193555422582, 16.899572937848877 15.053202990915292, 16.54173148837794 15.184891952170695 M17.50427207806999 14.830668117536346 C17.286277594827478 14.910892102488503, 17.068283111584968 14.99111608744066, 16.54173148837794 15.184891952170695 M16.54173148837794 15.184891952170695 C16.32588661263312 15.248953578298885, 16.110041736888302 15.313015204427074, 15.558473342552134 15.476717808624468 M16.54173148837794 15.184891952170695 C16.202818921794982 15.285479422944153, 15.86390635521202 15.386066893717611, 15.558473342552134 15.476717808624468 M15.558473342552134 15.476717808624468 C15.282295742391675 15.539753543633825, 15.006118142231214 15.602789278643181, 14.558538059221961 15.704946511857045 M15.558473342552134 15.476717808624468 C15.346199516533932 15.525167924196952, 15.133925690515731 15.573618039769437, 14.558538059221961 15.704946511857045 M14.558538059221961 15.704946511857045 C14.305932930544595 15.745785750079571, 14.053327801867226 15.786624988302098, 13.546034586952105 15.868640221171937 M14.558538059221961 15.704946511857045 C14.320625691113666 15.743410338494824, 14.082713323005368 15.781874165132603, 13.546034586952105 15.868640221171937 M13.546034586952105 15.868640221171937 C13.234369223297492 15.898706203971258, 12.922703859642876 15.928772186770578, 12.525123519691405 15.967126284005381 M13.546034586952105 15.868640221171937 C13.254193935994692 15.896793737780063, 12.96235328503728 15.924947254388192, 12.525123519691405 15.967126284005381 M12.525123519691405 15.967126284005381 C12.292866437857404 15.974574316558813, 12.0606093560234 15.982022349112244, 11.500000000000004 16 M12.525123519691405 15.967126284005381 C12.27806488650358 15.975048973501258, 12.031006253315756 15.982971662997135, 11.500000000000004 16 M11.500000000000004 16 C11.500000000000004 16, 11.500000000000002 16, 11.5 16 M11.500000000000004 16 C11.500000000000004 16, 11.500000000000002 16, 11.5 16 M11.5 16 C6.765402332694796 16, 2.030804665389592 16, -11.499999999999996 16 M11.5 16 C6.81599129063523 16, 2.13198258127046 16, -11.499999999999996 16 M-11.499999999999996 16 C-11.799069787130337 15.990409414030756, -12.098139574260678 15.980818828061514, -12.5251235196914 15.967126284005381 M-11.499999999999996 16 C-11.880977700005579 15.987782786688928, -12.26195540001116 15.975565573377857, -12.5251235196914 15.967126284005381 M-12.5251235196914 15.967126284005381 C-12.91390957610038 15.92962056072725, -13.30269563250936 15.892114837449117, -13.5460345869521 15.868640221171937 M-12.5251235196914 15.967126284005381 C-12.90361700140567 15.930613473029416, -13.282110483119943 15.89410066205345, -13.5460345869521 15.868640221171937 M-13.5460345869521 15.868640221171937 C-13.780607049056776 15.830716364635466, -14.015179511161453 15.792792508098994, -14.558538059221956 15.704946511857045 M-13.5460345869521 15.868640221171937 C-13.834487777280797 15.822005346347494, -14.122940967609495 15.77537047152305, -14.558538059221956 15.704946511857045 M-14.558538059221956 15.704946511857045 C-14.811616178145243 15.64718308270187, -15.06469429706853 15.589419653546695, -15.558473342552112 15.476717808624471 M-14.558538059221956 15.704946511857045 C-14.884579003556828 15.63052979392861, -15.2106199478917 15.556113076000171, -15.558473342552112 15.476717808624471 M-15.558473342552112 15.476717808624471 C-15.774672211212268 15.412551119257158, -15.990871079872424 15.348384429889844, -16.541731488377923 15.184891952170702 M-15.558473342552112 15.476717808624471 C-15.790363882706464 15.407893913524944, -16.022254422860815 15.339070018425417, -16.541731488377923 15.184891952170702 M-16.541731488377923 15.184891952170702 C-16.901807392197618 15.052380691059886, -17.261883296017317 14.91986942994907, -17.504272078069988 14.830668117536348 M-16.541731488377923 15.184891952170702 C-16.9131966453402 15.048189340622313, -17.28466180230248 14.911486729073927, -17.504272078069988 14.830668117536348 M-17.504272078069988 14.830668117536348 C-17.85178099483428 14.676836228570552, -18.199289911598566 14.523004339604757, -18.44213982588093 14.415501886438708 M-17.504272078069988 14.830668117536348 C-17.83358368478113 14.684891637927057, -18.16289529149227 14.539115158317767, -18.44213982588093 14.415501886438708 M-18.44213982588093 14.415501886438708 C-18.630912255485946 14.317019430828283, -18.819684685090962 14.218536975217857, -19.351480832063 13.941099265974234 M-18.44213982588093 14.415501886438708 C-18.799221380428314 14.22921266815299, -19.1563029349757 14.04292344986727, -19.351480832063 13.941099265974234 M-19.351480832063 13.941099265974234 C-19.696388727188612 13.732014073045313, -20.041296622314224 13.522928880116392, -20.228558419368767 13.409409678269457 M-19.351480832063 13.941099265974234 C-19.66560560623196 13.750674981870935, -19.97973038040092 13.560250697767634, -20.228558419368767 13.409409678269457 M-20.228558419368767 13.409409678269457 C-20.450880720337757 13.254327265290785, -20.673203021306747 13.099244852312111, -21.069768487859456 12.822617949887308 M-20.228558419368767 13.409409678269457 C-20.43140235530538 13.26791452953254, -20.63424629124199 13.126419380795623, -21.069768487859456 12.822617949887308 M-21.069768487859456 12.822617949887308 C-21.356395540854543 12.59404050258994, -21.64302259384963 12.365463055292572, -21.871654324924613 12.183135333906154 M-21.069768487859456 12.822617949887308 C-21.255123143356368 12.674802544623054, -21.44047779885328 12.5269871393588, -21.871654324924613 12.183135333906154 M-21.871654324924613 12.183135333906154 C-22.098010795150103 11.977564376711374, -22.324367265375596 11.771993419516594, -22.630920809655777 11.493589601563649 M-21.871654324924613 12.183135333906154 C-22.11663743742218 11.960648153033821, -22.361620549919753 11.738160972161488, -22.630920809655777 11.493589601563649 M-22.630920809655777 11.493589601563649 C-22.830355384223427 11.287657029439465, -23.029789958791078 11.081724457315282, -23.344447953205048 10.756814244181069 M-22.630920809655777 11.493589601563649 C-22.787374291647595 11.33203853633734, -22.943827773639413 11.17048747111103, -23.344447953205048 10.756814244181069 M-23.344447953205048 10.756814244181069 C-23.531965166659575 10.536545855225667, -23.7194823801141 10.316277466270266, -24.009303719488475 9.97583682973974 M-23.344447953205048 10.756814244181069 C-23.494912606269978 10.580069901009702, -23.645377259334904 10.403325557838338, -24.009303719488475 9.97583682973974 M-24.009303719488475 9.97583682973974 C-24.245555427610025 9.65928106383024, -24.481807135731575 9.342725297920744, -24.62275607355129 9.15386656195472 M-24.009303719488475 9.97583682973974 C-24.148293878944376 9.789602678332846, -24.287284038400276 9.603368526925955, -24.62275607355129 9.15386656195472 M-24.62275607355129 9.15386656195472 C-24.746726549503354 8.963414620158419, -24.870697025455414 8.772962678362116, -25.182284208085534 8.29428109296841 M-24.62275607355129 9.15386656195472 C-24.752655567763824 8.954306055946004, -24.882555061976362 8.754745549937287, -25.182284208085534 8.29428109296841 M-25.182284208085534 8.29428109296841 C-25.304691284377874 8.07693493395081, -25.427098360670215 7.85958877493321, -25.685588901968 7.400612643853366 M-25.182284208085534 8.29428109296841 C-25.35800702799338 7.982267432357008, -25.53372984790123 7.670253771745607, -25.685588901968 7.400612643853366 M-25.685588901968 7.400612643853366 C-25.862537215445393 7.033175684830168, -26.03948552892279 6.6657387258069685, -26.130601968252996 6.476533489958307 M-25.685588901968 7.400612643853366 C-25.843055681937212 7.073629505997948, -26.000522461906424 6.746646368142531, -26.130601968252996 6.476533489958307 M-26.130601968252996 6.476533489958307 C-26.216348360625638 6.264738243004167, -26.30209475299828 6.052942996050027, -26.515494752796165 5.525840870740931 M-26.130601968252996 6.476533489958307 C-26.248717482005258 6.1847858873821195, -26.366832995757516 5.8930382848059315, -26.515494752796165 5.525840870740931 M-26.515494752796165 5.525840870740931 C-26.586871498103736 5.310865486214501, -26.658248243411304 5.095890101688071, -26.83868564858657 4.552441386096519 M-26.515494752796165 5.525840870740931 C-26.600904668990434 5.268599811385899, -26.686314585184707 5.011358752030866, -26.83868564858657 4.552441386096519 M-26.83868564858657 4.552441386096519 C-26.89836034822738 4.32487589318767, -26.958035047868197 4.097310400278821, -27.098846594909176 3.5603349433010343 M-26.83868564858657 4.552441386096519 C-26.923423791880996 4.229298119971246, -27.008161935175426 3.9061548538459734, -27.098846594909176 3.5603349433010343 M-27.098846594909176 3.5603349433010343 C-27.14042778494658 3.3468243206465926, -27.182008974983983 3.133313697992151, -27.2949085346312 2.5535983205340753 M-27.098846594909176 3.5603349433010343 C-27.166268513789486 3.2141376394782406, -27.2336904326698 2.8679403356554465, -27.2949085346312 2.5535983205340753 M-27.2949085346312 2.5535983205340753 C-27.34133535250167 2.193521089142884, -27.387762170372138 1.8334438577516923, -27.42606580718717 1.5363684145229202 M-27.2949085346312 2.5535983205340753 C-27.332801855297888 2.2597052083257942, -27.370695175964574 1.9658120961175132, -27.42606580718717 1.5363684145229202 M-27.42606580718717 1.5363684145229202 C-27.44414676645296 1.2547428792706503, -27.462227725718748 0.9731173440183803, -27.491779459211006 0.5128252411464846 M-27.42606580718717 1.5363684145229202 C-27.44510117218681 1.2398772395835036, -27.464136537186445 0.9433860646440869, -27.491779459211006 0.5128252411464846 M-27.491779459211006 0.5128252411464846 C-27.491779459211006 0.27322323084638217, -27.491779459211006 0.033621220546279695, -27.491779459211006 -0.5128252411464769 M-27.491779459211006 0.5128252411464846 C-27.491779459211006 0.282876622060488, -27.491779459211006 0.05292800297449146, -27.491779459211006 -0.5128252411464769 M-27.491779459211006 -0.5128252411464769 C-27.47794135575657 -0.7283648723654039, -27.46410325230213 -0.9439045035843309, -27.42606580718717 -1.5363684145228982 M-27.491779459211006 -0.5128252411464769 C-27.475019210218033 -0.7738796478415497, -27.458258961225056 -1.0349340545366226, -27.42606580718717 -1.5363684145228982 M-27.42606580718717 -1.5363684145228982 C-27.38065205042846 -1.8885885439828682, -27.335238293669747 -2.2408086734428383, -27.294908534631205 -2.5535983205340678 M-27.42606580718717 -1.5363684145228982 C-27.38602461767445 -1.8469199733563562, -27.34598342816173 -2.157471532189814, -27.294908534631205 -2.5535983205340678 M-27.294908534631205 -2.5535983205340678 C-27.23045600433744 -2.8845484415454417, -27.166003474043674 -3.2154985625568155, -27.098846594909176 -3.5603349433010267 M-27.294908534631205 -2.5535983205340678 C-27.23378237404956 -2.867468236102187, -27.172656213467917 -3.1813381516703063, -27.098846594909176 -3.5603349433010267 M-27.098846594909176 -3.5603349433010267 C-27.02802097248722 -3.8304237376148773, -26.957195350065266 -4.100512531928728, -26.838685648586573 -4.552441386096511 M-27.098846594909176 -3.5603349433010267 C-27.029189848753813 -3.8259663058161775, -26.959533102598453 -4.091597668331328, -26.838685648586573 -4.552441386096511 M-26.838685648586573 -4.552441386096511 C-26.76341050713329 -4.7791581186887555, -26.688135365680008 -5.005874851281, -26.515494752796172 -5.525840870740911 M-26.838685648586573 -4.552441386096511 C-26.720317059444337 -4.908948717119419, -26.601948470302098 -5.265456048142327, -26.515494752796172 -5.525840870740911 M-26.515494752796172 -5.525840870740911 C-26.435896112980405 -5.722451050020868, -26.356297473164634 -5.919061229300824, -26.130601968253 -6.476533489958299 M-26.515494752796172 -5.525840870740911 C-26.416433833967105 -5.770523255461287, -26.317372915138034 -6.015205640181661, -26.130601968253 -6.476533489958299 M-26.130601968253 -6.476533489958299 C-25.97433766874124 -6.801019651414857, -25.81807336922948 -7.125505812871415, -25.685588901968003 -7.400612643853359 M-26.130601968253 -6.476533489958299 C-26.028837844484407 -6.687848870367215, -25.927073720715818 -6.899164250776132, -25.685588901968003 -7.400612643853359 M-25.685588901968003 -7.400612643853359 C-25.57045407050972 -7.6050461957734505, -25.455319239051434 -7.809479747693543, -25.182284208085537 -8.294281092968404 M-25.685588901968003 -7.400612643853359 C-25.535029740275377 -7.667945681206936, -25.38447057858275 -7.935278718560512, -25.182284208085537 -8.294281092968404 M-25.182284208085537 -8.294281092968404 C-25.05710910218639 -8.486583669851862, -24.931933996287242 -8.678886246735322, -24.622756073551294 -9.153866561954715 M-25.182284208085537 -8.294281092968404 C-25.031692607913534 -8.525630230339312, -24.88110100774153 -8.756979367710219, -24.622756073551294 -9.153866561954715 M-24.622756073551294 -9.153866561954715 C-24.402763758674745 -9.448636222177107, -24.182771443798195 -9.7434058823995, -24.00930371948848 -9.975836829739734 M-24.622756073551294 -9.153866561954715 C-24.40617530428592 -9.444065061856332, -24.189594535020547 -9.734263561757949, -24.00930371948848 -9.975836829739734 M-24.00930371948848 -9.975836829739734 C-23.84911859817675 -10.163999388024102, -23.688933476865024 -10.35216194630847, -23.344447953205055 -10.756814244181063 M-24.00930371948848 -9.975836829739734 C-23.83527920682182 -10.180255924593283, -23.66125469415516 -10.384675019446831, -23.344447953205055 -10.756814244181063 M-23.344447953205055 -10.756814244181063 C-23.140526656225582 -10.967379725562212, -22.936605359246112 -11.177945206943363, -22.63092080965579 -11.493589601563633 M-23.344447953205055 -10.756814244181063 C-23.117285628188945 -10.99137799513393, -22.89012330317283 -11.2259417460868, -22.63092080965579 -11.493589601563633 M-22.63092080965579 -11.493589601563633 C-22.43489383353649 -11.671616114685614, -22.238866857417182 -11.849642627807594, -21.871654324924627 -12.18313533390614 M-22.63092080965579 -11.493589601563633 C-22.33707938948724 -11.76044860474277, -22.04323796931869 -12.027307607921907, -21.871654324924627 -12.18313533390614 M-21.871654324924627 -12.18313533390614 C-21.703266903920365 -12.317419821179577, -21.534879482916104 -12.451704308453014, -21.069768487859463 -12.822617949887302 M-21.871654324924627 -12.18313533390614 C-21.564059530837856 -12.428433996749103, -21.256464736751084 -12.673732659592066, -21.069768487859463 -12.822617949887302 M-21.069768487859463 -12.822617949887302 C-20.744789385549044 -13.049309303540449, -20.41981028323863 -13.276000657193594, -20.228558419368788 -13.409409678269444 M-21.069768487859463 -12.822617949887302 C-20.855326634198075 -12.972203303963257, -20.640884780536688 -13.121788658039213, -20.228558419368788 -13.409409678269444 M-20.228558419368788 -13.409409678269444 C-19.966749433035375 -13.56811982434514, -19.70494044670196 -13.72682997042084, -19.351480832063007 -13.941099265974229 M-20.228558419368788 -13.409409678269444 C-19.91003909645594 -13.602497963646524, -19.59151977354309 -13.795586249023605, -19.351480832063007 -13.941099265974229 M-19.351480832063007 -13.941099265974229 C-18.99745823382873 -14.125792628710757, -18.64343563559445 -14.310485991447283, -18.442139825880936 -14.415501886438705 M-19.351480832063007 -13.941099265974229 C-19.07727285795511 -14.08415339042773, -18.80306488384721 -14.227207514881233, -18.442139825880936 -14.415501886438705 M-18.442139825880936 -14.415501886438705 C-18.228365292695994 -14.510133530883461, -18.014590759511055 -14.604765175328218, -17.504272078069995 -14.830668117536344 M-18.442139825880936 -14.415501886438705 C-18.251878744248117 -14.499724823383096, -18.061617662615298 -14.583947760327485, -17.504272078069995 -14.830668117536344 M-17.504272078069995 -14.830668117536344 C-17.1358249010615 -14.966260084563839, -16.767377724053006 -15.101852051591335, -16.54173148837794 -15.184891952170695 M-17.504272078069995 -14.830668117536344 C-17.2123049244765 -14.938114728973533, -16.920337770883 -15.045561340410723, -16.54173148837794 -15.184891952170695 M-16.54173148837794 -15.184891952170695 C-16.320864579738448 -15.250444091300835, -16.099997671098954 -15.315996230430974, -15.558473342552134 -15.476717808624466 M-16.54173148837794 -15.184891952170695 C-16.212891429239072 -15.282489955606417, -15.884051370100206 -15.38008795904214, -15.558473342552134 -15.476717808624466 M-15.558473342552134 -15.476717808624466 C-15.254221911699727 -15.546161212290393, -14.94997048084732 -15.615604615956322, -14.558538059221963 -15.704946511857043 M-15.558473342552134 -15.476717808624466 C-15.275593113489922 -15.541283374941907, -14.992712884427709 -15.605848941259348, -14.558538059221963 -15.704946511857043 M-14.558538059221963 -15.704946511857043 C-14.20151690652615 -15.762666923084513, -13.844495753830337 -15.820387334311983, -13.546034586952107 -15.868640221171937 M-14.558538059221963 -15.704946511857043 C-14.314608473833966 -15.744383155520389, -14.07067888844597 -15.783819799183732, -13.546034586952107 -15.868640221171937 M-13.546034586952107 -15.868640221171937 C-13.264005812401038 -15.895847197863652, -12.981977037849969 -15.923054174555368, -12.525123519691407 -15.967126284005381 M-13.546034586952107 -15.868640221171937 C-13.220969589033224 -15.899998850573313, -12.895904591114343 -15.931357479974691, -12.525123519691407 -15.967126284005381 M-12.525123519691407 -15.967126284005381 C-12.134959862778143 -15.979638073075103, -11.744796205864878 -15.992149862144823, -11.500000000000005 -16 M-12.525123519691407 -15.967126284005381 C-12.229743479492454 -15.976598546972191, -11.9343634392935 -15.986070809939003, -11.500000000000005 -16 M-11.500000000000005 -16 C-11.500000000000004 -16, -11.500000000000002 -16, -11.5 -16 M-11.500000000000005 -16 C-11.500000000000004 -16, -11.500000000000004 -16, -11.5 -16" stroke="#999" stroke-width="1.3" fill="none" stroke-dasharray="0 0" style=""/></g><g class="label" style="" transform="translate(0, -8.5)"><rect/><g><rect class="background" style="stroke: none"/><text y="-10.1" style=""><tspan class="text-outer-tspan row" x="0" y="-0.1em" dy="1.1em"><tspan font-style="normal" class="text-inner-tspan" font-weight="normal">开始</tspan></tspan></text></g></g></g><g class="node default" id="my-svg-flowchart-Request-1" data-look="classic" transform="translate(681.7890625, 113.5)"><rect class="basic label-container" style="" x="-86.08203125" y="-23.5" width="172.1640625" height="47"/><g class="label" style="" transform="translate(0, -8.5)"><rect/><g><rect class="background" style="stroke: none"/><text y="-10.1" style=""><tspan class="text-outer-tspan row" x="0" y="-0.1em" dy="1.1em"><tspan font-style="normal" class="text-inner-tspan" font-weight="normal">请求</tspan><tspan font-style="normal" class="text-inner-tspan" font-weight="normal"> DeepSeek</tspan></tspan></text></g></g></g><g class="node default" id="my-svg-flowchart-Check-3" data-look="classic" transform="translate(681.7890625, 266.5)"><polygon points="79.5,0 159,-79.5 79.5,-159 0,-79.5" class="label-container" transform="translate(-79, 79.5)"/><g class="label" style="" transform="translate(0, -8.5)"><rect/><g><rect class="background" style="stroke: none"/><text y="-10.1" style=""><tspan class="text-outer-tspan row" x="0" y="-0.1em" dy="1.1em"><tspan font-style="normal" class="text-inner-tspan" font-weight="normal">返回什么信号？</tspan></tspan></text></g></g></g><g class="node default" id="my-svg-flowchart-Done-5" data-look="classic" transform="translate(110, 488.5)"><rect class="basic label-container" style="" x="-102" y="-32.29999923706055" width="204" height="64.5999984741211"/><g class="label" style="" transform="translate(0, -17.299999237060547)"><rect/><g><rect class="background" style="stroke: none"/><text y="-10.1" style=""><tspan class="text-outer-tspan row" x="0" y="-0.1em" dy="1.1em"><tspan font-style="normal" class="text-inner-tspan" font-weight="normal">回到</tspan><tspan font-style="normal" class="text-inner-tspan" font-weight="normal"> Agent</tspan><tspan font-style="normal" class="text-inner-tspan" font-weight="normal"> Loop</tspan></tspan><tspan class="text-outer-tspan row" x="0" y="1em" dy="1.1em"><tspan font-style="normal" class="text-inner-tspan" font-weight="normal">执行工具或输出答案</tspan></tspan></text></g></g></g><g class="node default" id="my-svg-flowchart-L1-7" data-look="classic" transform="translate(333.5, 488.5)"><polygon points="71.5,0 143,-71.5 71.5,-143 0,-71.5" class="label-container" transform="translate(-71, 71.5)"/><g class="label" style="" transform="translate(0, -8.5)"><rect/><g><rect class="background" style="stroke: none"/><text y="-10.1" style=""><tspan class="text-outer-tspan row" x="0" y="-0.1em" dy="1.1em"><tspan font-style="normal" class="text-inner-tspan" font-weight="normal">第一次截断？</tspan></tspan></text></g></g></g><g class="node default" id="my-svg-flowchart-L2-9" data-look="classic" transform="translate(221.75, 710.5)"><rect class="basic label-container" style="" x="-118.9140625" y="-32.29999923706055" width="237.828125" height="64.5999984741211"/><g class="label" style="" transform="translate(0, -17.299999237060547)"><rect/><g><rect class="background" style="stroke: none"/><text y="-10.1" style=""><tspan class="text-outer-tspan row" x="0" y="-0.1em" dy="1.1em"><tspan font-style="normal" class="text-inner-tspan" font-weight="normal">扩大输出上限</tspan></tspan><tspan class="text-outer-tspan row" x="0" y="1em" dy="1.1em"><tspan font-style="normal" class="text-inner-tspan" font-weight="normal">用原</tspan><tspan font-style="normal" class="text-inner-tspan" font-weight="normal"> messages</tspan><tspan font-style="normal" class="text-inner-tspan" font-weight="normal"> 重新请求</tspan></tspan></text></g></g></g><g class="node default" id="my-svg-flowchart-L3-11" data-look="classic" transform="translate(470.1640625, 710.5)"><polygon points="79.5,0 159,-79.5 79.5,-159 0,-79.5" class="label-container" transform="translate(-79, 79.5)"/><g class="label" style="" transform="translate(0, -8.5)"><rect/><g><rect class="background" style="stroke: none"/><text y="-10.1" style=""><tspan class="text-outer-tspan row" x="0" y="-0.1em" dy="1.1em"><tspan font-style="normal" class="text-inner-tspan" font-weight="normal">工具调用完整？</tspan></tspan></text></g></g></g><g class="node default" id="my-svg-flowchart-Stop-13" data-look="classic" transform="translate(686.4140625, 1164.099998474121)"><rect class="basic label-container" style="" x="-62" y="-23.5" width="124" height="47"/><g class="label" style="" transform="translate(0, -8.5)"><rect/><g><rect class="background" style="stroke: none"/><text y="-10.1" style=""><tspan class="text-outer-tspan row" x="0" y="-0.1em" dy="1.1em"><tspan font-style="normal" class="text-inner-tspan" font-weight="normal">明确停止</tspan></tspan></text></g></g></g><g class="node default" id="my-svg-flowchart-L4-15" data-look="classic" transform="translate(540.4140625, 956.5)"><polygon points="95.5,0 191,-95.5 95.5,-191 0,-95.5" class="label-container" transform="translate(-95, 95.5)"/><g class="label" style="" transform="translate(0, -8.5)"><rect/><g><rect class="background" style="stroke: none"/><text y="-10.1" style=""><tspan class="text-outer-tspan row" x="0" y="-0.1em" dy="1.1em"><tspan font-style="normal" class="text-inner-tspan" font-weight="normal">续写次数还没用完？</tspan></tspan></text></g></g></g><g class="node default" id="my-svg-flowchart-L5-17" data-look="classic" transform="translate(170.0390625, 1164.099998474121)"><rect class="basic label-container" style="" x="-78" y="-41.099998474121094" width="156" height="82.19999694824219"/><g class="label" style="" transform="translate(0, -26.099998474121094)"><rect/><g><rect class="background" style="stroke: none"/><text y="-10.1" style=""><tspan class="text-outer-tspan row" x="0" y="-0.1em" dy="1.1em"><tspan font-style="normal" class="text-inner-tspan" font-weight="normal">保存文本片段</tspan></tspan><tspan class="text-outer-tspan row" x="0" y="1em" dy="1.1em"><tspan font-style="normal" class="text-inner-tspan" font-weight="normal">追加续写提示</tspan></tspan><tspan class="text-outer-tspan row" x="0" y="2.1em" dy="1.1em"><tspan font-style="normal" class="text-inner-tspan" font-weight="normal">重新请求</tspan></tspan></text></g></g></g><g class="node default" id="my-svg-flowchart-C1-21" data-look="classic" transform="translate(770.2890625, 956.5)"><polygon points="71.5,0 143,-71.5 71.5,-143 0,-71.5" class="label-container" transform="translate(-71, 71.5)"/><g class="label" style="" transform="translate(0, -8.5)"><rect/><g><rect class="background" style="stroke: none"/><text y="-10.1" style=""><tspan class="text-outer-tspan row" x="0" y="-0.1em" dy="1.1em"><tspan font-style="normal" class="text-inner-tspan" font-weight="normal">已经压缩过？</tspan></tspan></text></g></g></g><g class="node default" id="my-svg-flowchart-C2-23" data-look="classic" transform="translate(388.7890625, 1164.099998474121)"><rect class="basic label-container" style="" x="-90.75" y="-32.29999923706055" width="181.5" height="64.5999984741211"/><g class="label" style="" transform="translate(0, -17.299999237060547)"><rect/><g><rect class="background" style="stroke: none"/><text y="-10.1" style=""><tspan class="text-outer-tspan row" x="0" y="-0.1em" dy="1.1em"><tspan font-style="normal" class="text-inner-tspan" font-weight="normal">reactive</tspan><tspan font-style="normal" class="text-inner-tspan" font-weight="normal"> compact</tspan></tspan><tspan class="text-outer-tspan row" x="0" y="1em" dy="1.1em"><tspan font-style="normal" class="text-inner-tspan" font-weight="normal">重新请求</tspan></tspan></text></g></g></g><g class="node default" id="my-svg-flowchart-R1-27" data-look="classic" transform="translate(1001.7890625, 956.5)"><polygon points="95.5,0 191,-95.5 95.5,-191 0,-95.5" class="label-container" transform="translate(-95, 95.5)"/><g class="label" style="" transform="translate(0, -8.5)"><rect/><g><rect class="background" style="stroke: none"/><text y="-10.1" style=""><tspan class="text-outer-tspan row" x="0" y="-0.1em" dy="1.1em"><tspan font-style="normal" class="text-inner-tspan" font-weight="normal">重试次数还没用完？</tspan></tspan></text></g></g></g><g class="node default" id="my-svg-flowchart-R2-29" data-look="classic" transform="translate(1067.0390625, 1164.099998474121)"><rect class="basic label-container" style="" x="-94" y="-41.099998474121094" width="188" height="82.19999694824219"/><g class="label" style="" transform="translate(0, -26.099998474121094)"><rect/><g><rect class="background" style="stroke: none"/><text y="-10.1" style=""><tspan class="text-outer-tspan row" x="0" y="-0.1em" dy="1.1em"><tspan font-style="normal" class="text-inner-tspan" font-weight="normal">等待</tspan><tspan font-style="normal" class="text-inner-tspan" font-weight="normal"> +</tspan><tspan font-style="normal" class="text-inner-tspan" font-weight="normal"> 抖动</tspan></tspan><tspan class="text-outer-tspan row" x="0" y="1em" dy="1.1em"><tspan font-style="normal" class="text-inner-tspan" font-weight="normal">必要时切备用模型</tspan></tspan><tspan class="text-outer-tspan row" x="0" y="2.1em" dy="1.1em"><tspan font-style="normal" class="text-inner-tspan" font-weight="normal">重新请求</tspan></tspan></text></g></g></g></g></g></g><defs><filter id="my-svg-drop-shadow" height="130%" width="130%"><feDropShadow dx="4" dy="4" stdDeviation="0" flood-opacity="0.06" flood-color="#000000"/></filter></defs><defs><filter id="my-svg-drop-shadow-small" height="150%" width="150%"><feDropShadow dx="2" dy="2" stdDeviation="0" flood-opacity="0.06" flood-color="#000000"/></filter></defs><linearGradient id="my-svg-gradient" gradientUnits="objectBoundingBox" x1="0%" y1="0%" x2="100%" y2="0%"><stop offset="0%" stop-color="hsl(0, 0%, 83.3333333333%)" stop-opacity="1"/><stop offset="100%" stop-color="hsl(0, 0%, 88.9215686275%)" stop-opacity="1"/></linearGradient></svg>