<svg width="1174.2890625" height="1213.199951171875" id="my-svg" xmlns="http://www.w3.org/2000/svg" xmlns:xlink="http://www.w3.org/1999/xlink" class="flowchart" style="max-width: 1174.29px; background-color: white;" viewBox="0 0 1174.2890625 1213.199951171875" role="graphics-document document" aria-roledescription="flowchart-v2"><style>#my-svg{font-family:"trebuchet ms",verdana,arial,sans-serif;font-size:16px;fill:#000000;}@keyframes edge-animation-frame{from{stroke-dashoffset:0;}}@keyframes dash{to{stroke-dashoffset:0;}}#my-svg .edge-animation-slow{stroke-dasharray:9,5!important;stroke-dashoffset:900;animation:dash 50s linear infinite;stroke-linecap:round;}#my-svg .edge-animation-fast{stroke-dasharray:9,5!important;stroke-dashoffset:900;animation:dash 20s linear infinite;stroke-linecap:round;}#my-svg .error-icon{fill:#552222;}#my-svg .error-text{fill:#552222;stroke:#552222;}#my-svg .edge-thickness-normal{stroke-width:1px;}#my-svg .edge-thickness-thick{stroke-width:3.5px;}#my-svg .edge-pattern-solid{stroke-dasharray:0;}#my-svg .edge-thickness-invisible{stroke-width:0;fill:none;}#my-svg .edge-pattern-dashed{stroke-dasharray:3;}#my-svg .edge-pattern-dotted{stroke-dasharray:2;}#my-svg .marker{fill:#666;stroke:#666;}#my-svg .marker.cross{stroke:#666;}#my-svg svg{font-family:"trebuchet ms",verdana,arial,sans-serif;font-size:16px;}#my-svg p{margin:0;}#my-svg .label{font-family:"trebuchet ms",verdana,arial,sans-serif;color:#000000;}#my-svg .cluster-label text{fill:#333;}#my-svg .cluster-label span{color:#333;}#my-svg .cluster-label span p{background-color:transparent;}#my-svg .label text,#my-svg span{fill:#000000;color:#000000;}#my-svg .node rect,#my-svg .node circle,#my-svg .node ellipse,#my-svg .node polygon,#my-svg .node path{fill:#eee;stroke:#999;stroke-width:1px;}#my-svg .rough-node .label text,#my-svg .node .label text,#my-svg .image-shape .label,#my-svg .icon-shape .label{text-anchor:middle;}#my-svg .node .katex path{fill:#000;stroke:#000;stroke-width:1px;}#my-svg .rough-node .label,#my-svg .node .label,#my-svg .image-shape .label,#my-svg .icon-shape .label{text-align:center;}#my-svg .node.clickable{cursor:pointer;}#my-svg .root .anchor path{fill:#666!important;stroke-width:0;stroke:#666;}#my-svg .arrowheadPath{fill:#333333;}#my-svg .edgePath .path{stroke:#666;stroke-width:1px;}#my-svg .flowchart-link{stroke:#666;fill:none;}#my-svg .edgeLabel{background-color:white;text-align:center;}#my-svg .edgeLabel p{background-color:white;}#my-svg .edgeLabel rect{opacity:0.5;background-color:white;fill:white;}#my-svg .labelBkg{background-color:rgba(255, 255, 255, 0.5);}#my-svg .cluster rect{fill:hsl(0, 0%, 98.9215686275%);stroke:#707070;stroke-width:1px;}#my-svg .cluster text{fill:#333;}#my-svg .cluster span{color:#333;}#my-svg div.mermaidTooltip{position:absolute;text-align:center;max-width:200px;padding:2px;font-family:"trebuchet ms",verdana,arial,sans-serif;font-size:12px;background:hsl(-160, 0%, 93.3333333333%);border:1px solid #707070;border-radius:2px;pointer-events:none;z-index:100;}#my-svg .flowchartTitleText{text-anchor:middle;font-size:18px;fill:#000000;}#my-svg rect.text{fill:none;stroke-width:0;}#my-svg .icon-shape,#my-svg .image-shape{background-color:white;text-align:center;}#my-svg .icon-shape p,#my-svg .image-shape p{background-color:white;padding:2px;}#my-svg .icon-shape .label rect,#my-svg .image-shape .label rect{opacity:0.5;background-color:white;fill:white;}#my-svg .label-icon{display:inline-block;height:1em;overflow:visible;vertical-align:-0.125em;}#my-svg .node .label-icon path{fill:currentColor;stroke:revert;stroke-width:revert;}#my-svg .node .neo-node{stroke:#999;}#my-svg [data-look="neo"].node rect,#my-svg [data-look="neo"].cluster rect,#my-svg [data-look="neo"].node polygon{stroke:url(#my-svg-gradient);filter:drop-shadow( 1px 2px 2px rgba(185,185,185,1));}#my-svg [data-look="neo"].swimlane.cluster rect{filter:none;}#my-svg [data-look="neo"].node path{stroke:url(#my-svg-gradient);stroke-width:1px;}#my-svg [data-look="neo"].node .outer-path{filter:drop-shadow( 1px 2px 2px rgba(185,185,185,1));}#my-svg [data-look="neo"].node .neo-line path{stroke:#999;filter:none;}#my-svg [data-look="neo"].node circle{stroke:url(#my-svg-gradient);filter:drop-shadow( 1px 2px 2px rgba(185,185,185,1));}#my-svg [data-look="neo"].node circle .state-start{fill:#000000;}#my-svg [data-look="neo"].icon-shape .icon{fill:url(#my-svg-gradient);filter:drop-shadow( 1px 2px 2px rgba(185,185,185,1));}#my-svg [data-look="neo"].icon-shape .icon-neo path{stroke:url(#my-svg-gradient);filter:drop-shadow( 1px 2px 2px rgba(185,185,185,1));}#my-svg :root{--mermaid-font-family:"trebuchet ms",verdana,arial,sans-serif;}</style><g><marker id="my-svg_flowchart-v2-pointEnd" class="marker flowchart-v2" viewBox="0 0 10 10" refX="5" refY="5" markerUnits="userSpaceOnUse" markerWidth="8" markerHeight="8" orient="auto"><path d="M 0 0 L 10 5 L 0 10 z" class="arrowMarkerPath" style="stroke-width: 1; stroke-dasharray: 1, 0;"/></marker><marker id="my-svg_flowchart-v2-pointStart" class="marker flowchart-v2" viewBox="0 0 10 10" refX="4.5" refY="5" markerUnits="userSpaceOnUse" markerWidth="8" markerHeight="8" orient="auto"><path d="M 0 5 L 10 10 L 10 0 z" class="arrowMarkerPath" style="stroke-width: 1; stroke-dasharray: 1, 0;"/></marker><marker id="my-svg_flowchart-v2-pointEnd-margin" class="marker flowchart-v2" viewBox="0 0 11.5 14" refX="11.5" refY="7" markerUnits="userSpaceOnUse" markerWidth="10.5" markerHeight="14" orient="auto"><path d="M 0 0 L 11.5 7 L 0 14 z" class="arrowMarkerPath" style="stroke-width: 0; stroke-dasharray: 1, 0;"/></marker><marker id="my-svg_flowchart-v2-pointStart-margin" class="marker flowchart-v2" viewBox="0 0 11.5 14" refX="1" refY="7" markerUnits="userSpaceOnUse" markerWidth="11.5" markerHeight="14" orient="auto"><polygon points="0,7 11.5,14 11.5,0" class="arrowMarkerPath" style="stroke-width: 0; stroke-dasharray: 1, 0;"/></marker><marker id="my-svg_flowchart-v2-circleEnd" class="marker flowchart-v2" viewBox="0 0 10 10" refX="11" refY="5" markerUnits="userSpaceOnUse" markerWidth="11" markerHeight="11" orient="auto"><circle cx="5" cy="5" r="5" class="arrowMarkerPath" style="stroke-width: 1; stroke-dasharray: 1, 0;"/></marker><marker id="my-svg_flowchart-v2-circleStart" class="marker flowchart-v2" viewBox="0 0 10 10" refX="-1" refY="5" markerUnits="userSpaceOnUse" markerWidth="11" markerHeight="11" orient="auto"><circle cx="5" cy="5" r="5" class="arrowMarkerPath" style="stroke-width: 1; stroke-dasharray: 1, 0;"/></marker><marker id="my-svg_flowchart-v2-circleEnd-margin" class="marker flowchart-v2" viewBox="0 0 10 10" refY="5" refX="12.25" markerUnits="userSpaceOnUse" markerWidth="14" markerHeight="14" orient="auto"><circle cx="5" cy="5" r="5" class="arrowMarkerPath" style="stroke-width: 0; stroke-dasharray: 1, 0;"/></marker><marker id="my-svg_flowchart-v2-circleStart-margin" class="marker flowchart-v2" viewBox="0 0 10 10" refX="-2" refY="5" markerUnits="userSpaceOnUse" markerWidth="14" markerHeight="14" orient="auto"><circle cx="5" cy="5" r="5" class="arrowMarkerPath" style="stroke-width: 0; stroke-dasharray: 1, 0;"/></marker><marker id="my-svg_flowchart-v2-crossEnd" class="marker cross flowchart-v2" viewBox="0 0 11 11" refX="12" refY="5.2" markerUnits="userSpaceOnUse" markerWidth="11" markerHeight="11" orient="auto"><path d="M 1,1 l 9,9 M 10,1 l -9,9" class="arrowMarkerPath" style="stroke-width: 2; stroke-dasharray: 1, 0;"/></marker><marker id="my-svg_flowchart-v2-crossStart" class="marker cross flowchart-v2" viewBox="0 0 11 11" refX="-1" refY="5.2" markerUnits="userSpaceOnUse" markerWidth="11" markerHeight="11" orient="auto"><path d="M 1,1 l 9,9 M 10,1 l -9,9" class="arrowMarkerPath" style="stroke-width: 2; stroke-dasharray: 1, 0;"/></marker><marker id="my-svg_flowchart-v2-crossEnd-margin" class="marker cross flowchart-v2" viewBox="0 0 15 15" refX="17.7" refY="7.5" markerUnits="userSpaceOnUse" markerWidth="12" markerHeight="12" orient="auto"><path d="M 1,1 L 14,14 M 1,14 L 14,1" class="arrowMarkerPath" style="stroke-width: 2.5;"/></marker><marker id="my-svg_flowchart-v2-crossStart-margin" class="marker cross flowchart-v2" viewBox="0 0 15 15" refX="-3.5" refY="7.5" markerUnits="userSpaceOnUse" markerWidth="12" markerHeight="12" orient="auto"><path d="M 1,1 L 14,14 M 1,14 L 14,1" class="arrowMarkerPath" style="stroke-width: 2.5; stroke-dasharray: 1, 0;"/></marker><g class="root"><g class="clusters"/><g class="edgePaths"><path d="M682.289,40.5L682.206,44.583C682.122,48.667,681.956,56.833,681.872,64.417C681.789,72,681.789,79,681.789,82.5L681.789,86" id="my-svg-L_Start_Request_0" class="edge-thickness-normal edge-pattern-solid edge-thickness-normal edge-pattern-solid flowchart-link" style=";" data-edge="true" data-et="edge" data-id="L_Start_Request_0" data-points="W3sieCI6NjgyLjI4OTA2MjUsInkiOjQwLjV9LHsieCI6NjgxLjc4OTA2MjUsInkiOjY1fSx7IngiOjY4MS43ODkwNjI1LCJ5Ijo5MH1d" data-look="classic" marker-end="url(#my-svg_flowchart-v2-pointEnd)"/><path d="M681.789,137L681.789,141.167C681.789,145.333,681.789,153.667,681.789,161.333C681.789,169,681.789,176,681.789,179.5L681.789,183" id="my-svg-L_Request_Check_0" class="edge-thickness-normal edge-pattern-solid edge-thickness-normal edge-pattern-solid flowchart-link" style=";" data-edge="true" data-et="edge" data-id="L_Request_Check_0" data-points="W3sieCI6NjgxLjc4OTA2MjUsInkiOjEzN30seyJ4Ijo2ODEuNzg5MDYyNSwieSI6MTYyfSx7IngiOjY4MS43ODkwNjI1LCJ5IjoxODd9XQ==" data-look="classic" marker-end="url(#my-svg_flowchart-v2-pointEnd)"/><path d="M615.601,279.812L531.334,296.76C447.067,313.708,278.534,347.604,194.267,376.335C110,405.067,110,428.633,110,440.417L110,452.2" id="my-svg-L_Check_Done_0" class="edge-thickness-normal edge-pattern-solid edge-thickness-normal edge-pattern-solid flowchart-link" style=";" data-edge="true" data-et="edge" data-id="L_Check_Done_0" data-points="W3sieCI6NjE1LjYwMTAxMDA4MjE1ODgsInkiOjI3OS44MTE5NDc1ODIxNTg4NH0seyJ4IjoxMTAsInkiOjM4MS41fSx7IngiOjExMCwieSI6NDU2LjIwMDAwMDc2MjkzOTQ1fV0=" data-look="classic" marker-end="url(#my-svg_flowchart-v2-pointEnd)"/><path d="M622.023,286.234L573.936,302.112C525.849,317.989,429.674,349.745,381.587,370.872C333.5,392,333.5,402.5,333.5,407.75L333.5,413" id="my-svg-L_Check_L1_0" class="edge-thickness-normal edge-pattern-solid edge-thickness-normal edge-pattern-solid flowchart-link" style=";" data-edge="true" data-et="edge" data-id="L_Check_L1_0" data-points="W3sieCI6NjIyLjAyMjk2MjQzNDIzMzgsInkiOjI4Ni4yMzM4OTk5MzQyMzM4fSx7IngiOjMzMy41LCJ5IjozODEuNX0seyJ4IjozMzMuNSwieSI6NDE3fV0=" data-look="classic" marker-end="url(#my-svg_flowchart-v2-pointEnd)"/><path d="M296.974,523.474L284.436,535.478C271.899,547.482,246.825,571.491,234.287,596.612C221.75,621.733,221.75,647.967,221.75,661.083L221.75,674.2" id="my-svg-L_L1_L2_0" class="edge-thickness-normal edge-pattern-solid edge-thickness-normal edge-pattern-solid flowchart-link" style=";" data-edge="true" data-et="edge" data-id="L_L1_L2_0" data-points="W3sieCI6Mjk2Ljk3MzcxNDI4NTcxNDI3LCJ5Ijo1MjMuNDczNzE0Mjg1NzE0M30seyJ4IjoyMjEuNzUsInkiOjU5NS41fSx7IngiOjIyMS43NSwieSI6Njc4LjIwMDAwMDc2MjkzOTV9XQ==" data-look="classic" marker-end="url(#my-svg_flowchart-v2-pointEnd)"/><path d="M373.602,519.898L389.696,532.498C405.79,545.098,437.977,570.299,454.07,588.15C470.164,606,470.164,616.5,470.164,621.75L470.164,627" id="my-svg-L_L1_L3_0" class="edge-thickness-normal edge-pattern-solid edge-thickness-normal edge-pattern-solid flowchart-link" style=";" data-edge="true" data-et="edge" data-id="L_L1_L3_0" data-points="W3sieCI6MzczLjYwMjI2MzYxODU4MzUsInkiOjUxOS44OTc3MzYzODE0MTY1fSx7IngiOjQ3MC4xNjQwNjI1LCJ5Ijo1OTUuNX0seyJ4Ijo0NzAuMTY0MDYyNSwieSI6NjMxfV0=" data-look="classic" marker-end="url(#my-svg_flowchart-v2-pointEnd)"/><path d="M432.339,752.175L421.248,764.396C410.156,776.617,387.972,801.058,376.881,835.113C365.789,869.167,365.789,912.833,365.789,956.5C365.789,1000.167,365.789,1043.833,408.245,1075.81C450.701,1107.786,535.612,1128.072,578.068,1138.215L620.524,1148.358" id="my-svg-L_L3_Stop_0" class="edge-thickness-normal edge-pattern-solid edge-thickness-normal edge-pattern-solid flowchart-link" style=";" data-edge="true" data-et="edge" data-id="L_L3_Stop_0" data-points="W3sieCI6NDMyLjMzOTI3NjE3NTIxMzcsInkiOjc1Mi4xNzUyMTM2NzUyMTM2fSx7IngiOjM2NS43ODkwNjI1LCJ5Ijo4MjUuNX0seyJ4IjozNjUuNzg5MDYyNSwieSI6OTU2LjV9LHsieCI6MzY1Ljc4OTA2MjUsInkiOjEwODcuNX0seyJ4Ijo2MjQuNDE0MDYyNSwieSI6MTE0OS4yODc2NzkwODEwNzQ3fV0=" data-look="classic" marker-end="url(#my-svg_flowchart-v2-pointEnd)"/><path d="M500.312,759.852L506.996,770.794C513.679,781.735,527.047,803.617,533.73,819.809C540.414,836,540.414,846.5,540.414,851.75L540.414,857" id="my-svg-L_L3_L4_0" class="edge-thickness-normal edge-pattern-solid edge-thickness-normal edge-pattern-solid flowchart-link" style=";" data-edge="true" data-et="edge" data-id="L_L3_L4_0" data-points="W3sieCI6NTAwLjMxMTgzNTc3OTM1MjI0LCJ5Ijo3NTkuODUyMjI2NzIwNjQ3OH0seyJ4Ijo1NDAuNDE0MDYyNSwieSI6ODI1LjV9LHsieCI6NTQwLjQxNDA2MjUsInkiOjg2MX1d" data-look="classic" marker-end="url(#my-svg_flowchart-v2-pointEnd)"/><path d="M501.683,1013.269L493.243,1025.641C484.802,1038.013,467.92,1062.756,426.29,1084.176C384.659,1105.595,318.279,1123.69,285.088,1132.738L251.898,1141.785" id="my-svg-L_L4_L5_0" class="edge-thickness-normal edge-pattern-solid edge-thickness-normal edge-pattern-solid flowchart-link" style=";" data-edge="true" data-et="edge" data-id="L_L4_L5_0" data-points="W3sieCI6NTAxLjY4MzIwNjAwNTM4ODU3LCJ5IjoxMDEzLjI2OTE0MzUwNTM4ODZ9LHsieCI6NDUxLjAzOTA2MjUsInkiOjEwODcuNX0seyJ4IjoyNDguMDM5MDYyNSwieSI6MTE0Mi44MzczNjU0NDU3MTczfV0=" data-look="classic" marker-end="url(#my-svg_flowchart-v2-pointEnd)"/><path d="M578.919,1013.495L587.251,1025.83C595.584,1038.164,612.249,1062.832,626.825,1083.483C641.4,1104.134,653.886,1120.767,660.129,1129.084L666.372,1137.401" id="my-svg-L_L4_Stop_0" class="edge-thickness-normal edge-pattern-solid edge-thickness-normal edge-pattern-solid flowchart-link" style=";" data-edge="true" data-et="edge" data-id="L_L4_Stop_0" data-points="W3sieCI6NTc4LjkxODYxODMwODY1NiwieSI6MTAxMy40OTU0NDQxOTEzNDR9LHsieCI6NjI4LjkxNDA2MjUsInkiOjEwODcuNX0seyJ4Ijo2NjguNzczNzIyNzIzMDE1MywieSI6MTE0MC41OTk5OTg0NzQxMjF9XQ==" data-look="classic" marker-end="url(#my-svg_flowchart-v2-pointEnd)"/><path d="M716.363,311.426L725.35,323.105C734.338,334.784,752.314,358.142,761.301,387.654C770.289,417.167,770.289,452.833,770.289,488.5C770.289,524.167,770.289,559.833,770.289,596.833C770.289,633.833,770.289,672.167,770.289,710.5C770.289,748.833,770.289,787.167,770.289,815.583C770.289,844,770.289,862.5,770.289,871.75L770.289,881" id="my-svg-L_Check_C1_0" class="edge-thickness-normal edge-pattern-solid edge-thickness-normal edge-pattern-solid flowchart-link" style=";" data-edge="true" data-et="edge" data-id="L_Check_C1_0" data-points="W3sieCI6NzE2LjM2Mjc3MjU3MzcxMDEsInkiOjMxMS40MjYyODk5MjYyODk5NH0seyJ4Ijo3NzAuMjg5MDYyNSwieSI6MzgxLjV9LHsieCI6NzcwLjI4OTA2MjUsInkiOjQ4OC41fSx7IngiOjc3MC4yODkwNjI1LCJ5Ijo1OTUuNX0seyJ4Ijo3NzAuMjg5MDYyNSwieSI6NzEwLjV9LHsieCI6NzcwLjI4OTA2MjUsInkiOjgyNS41fSx7IngiOjc3MC4yODkwNjI1LCJ5Ijo4ODV9XQ==" data-look="classic" marker-end="url(#my-svg_flowchart-v2-pointEnd)"/><path d="M739.097,996.808L727.4,1011.923C715.703,1027.038,692.308,1057.269,649.692,1080.84C607.075,1104.41,545.236,1121.32,514.317,1129.775L483.397,1138.229" id="my-svg-L_C1_C2_0" class="edge-thickness-normal edge-pattern-solid edge-thickness-normal edge-pattern-solid flowchart-link" style=";" data-edge="true" data-et="edge" data-id="L_C1_C2_0" data-points="W3sieCI6NzM5LjA5Njc1NDgwNzY5MjMsInkiOjk5Ni44MDc2OTIzMDc2OTIzfSx7IngiOjY2OC45MTQwNjI1LCJ5IjoxMDg3LjV9LHsieCI6NDc5LjUzOTA2MjUsInkiOjExMzkuMjg0NDcwMTg2NjU0N31d" data-look="classic" marker-end="url(#my-svg_flowchart-v2-pointEnd)"/><path d="M799.117,999.172L809.062,1013.893C819.008,1028.615,838.898,1058.057,829.538,1081.358C820.177,1104.659,781.564,1121.817,762.258,1130.396L742.952,1138.976" id="my-svg-L_C1_Stop_0" class="edge-thickness-normal edge-pattern-solid edge-thickness-normal edge-pattern-solid flowchart-link" style=";" data-edge="true" data-et="edge" data-id="L_C1_Stop_0" data-points="W3sieCI6Nzk5LjExNzA4MDcyMzIzNDYsInkiOjk5OS4xNzE5ODE3NzY3NjU0fSx7IngiOjg1OC43ODkwNjI1LCJ5IjoxMDg3LjV9LHsieCI6NzM5LjI5NjczMzI2NjIyMTMsInkiOjExNDAuNTk5OTk4NDc0MTIxfV0=" data-look="classic" marker-end="url(#my-svg_flowchart-v2-pointEnd)"/><path d="M740.272,287.517L783.858,303.181C827.444,318.845,914.617,350.172,958.203,383.67C1001.789,417.167,1001.789,452.833,1001.789,488.5C1001.789,524.167,1001.789,559.833,1001.789,596.833C1001.789,633.833,1001.789,672.167,1001.789,710.5C1001.789,748.833,1001.789,787.167,1001.789,811.583C1001.789,836,1001.789,846.5,1001.789,851.75L1001.789,857" id="my-svg-L_Check_R1_0" class="edge-thickness-normal edge-pattern-solid edge-thickness-normal edge-pattern-solid flowchart-link" style=";" data-edge="true" data-et="edge" data-id="L_Check_R1_0" data-points="W3sieCI6NzQwLjI3MTgyMTEyMDY4OTcsInkiOjI4Ny41MTcyNDEzNzkzMTAzNX0seyJ4IjoxMDAxLjc4OTA2MjUsInkiOjM4MS41fSx7IngiOjEwMDEuNzg5MDYyNSwieSI6NDg4LjV9LHsieCI6MTAwMS43ODkwNjI1LCJ5Ijo1OTUuNX0seyJ4IjoxMDAxLjc4OTA2MjUsInkiOjcxMC41fSx7IngiOjEwMDEuNzg5MDYyNSwieSI6ODI1LjV9LHsieCI6MTAwMS43ODkwNjI1LCJ5Ijo4NjF9XQ==" data-look="classic" marker-end="url(#my-svg_flowchart-v2-pointEnd)"/><path d="M989.14,1039.351L987.915,1047.376C986.69,1055.401,984.239,1071.45,989.103,1084.946C993.967,1098.442,1006.145,1109.384,1012.234,1114.855L1018.323,1120.327" id="my-svg-L_R1_R2_0" class="edge-thickness-normal edge-pattern-solid edge-thickness-normal edge-pattern-solid flowchart-link" style=";" data-edge="true" data-et="edge" data-id="L_R1_R2_0" data-points="W3sieCI6OTg5LjE0MDA1NTg3NzQ4MzQsInkiOjEwMzkuMzUwOTkzMzc3NDgzNX0seyJ4Ijo5ODEuNzg5MDYyNSwieSI6MTA4Ny41fSx7IngiOjEwMjEuMjk3ODc1Mjk3NDYzLCJ5IjoxMTIzfV0=" data-look="classic" marker-end="url(#my-svg_flowchart-v2-pointEnd)"/><path d="M1028.266,1025.523L1032.228,1035.853C1036.19,1046.182,1044.115,1066.841,998.125,1087.636C952.136,1108.43,852.232,1129.36,802.281,1139.825L752.329,1150.291" id="my-svg-L_R1_Stop_0" class="edge-thickness-normal edge-pattern-solid edge-thickness-normal edge-pattern-solid flowchart-link" style=";" data-edge="true" data-et="edge" data-id="L_R1_Stop_0" data-points="W3sieCI6MTAyOC4yNjU2MTQyMjQxMzc4LCJ5IjoxMDI1LjUyMzQ0ODI3NTg2MjJ9LHsieCI6MTA1Mi4wMzkwNjI1LCJ5IjoxMDg3LjV9LHsieCI6NzQ4LjQxNDA2MjUsInkiOjExNTEuMTEwNzMzNzc1NjAzNH1d" data-look="classic" marker-end="url(#my-svg_flowchart-v2-pointEnd)"/><path d="M745.122,282.667L809.65,299.139C874.178,315.611,1003.233,348.556,1067.761,382.861C1132.289,417.167,1132.289,452.833,1132.289,488.5C1132.289,524.167,1132.289,559.833,1132.289,596.833C1132.289,633.833,1132.289,672.167,1132.289,710.5C1132.289,748.833,1132.289,787.167,1132.289,828.167C1132.289,869.167,1132.289,912.833,1132.289,956.5C1132.289,1000.167,1132.289,1043.833,1068.967,1076.545C1005.645,1109.257,879.001,1131.014,815.678,1141.893L752.356,1152.771" id="my-svg-L_Check_Stop_0" class="edge-thickness-normal edge-pattern-solid edge-thickness-normal edge-pattern-solid flowchart-link" style=";" data-edge="true" data-et="edge" data-id="L_Check_Stop_0" data-points="W3sieCI6NzQ1LjEyMTk1Mzc0NjY4NDMsInkiOjI4Mi42NjcxMDg3NTMzMTU2M30seyJ4IjoxMTMyLjI4OTA2MjUsInkiOjM4MS41fSx7IngiOjExMzIuMjg5MDYyNSwieSI6NDg4LjV9LHsieCI6MTEzMi4yODkwNjI1LCJ5Ijo1OTUuNX0seyJ4IjoxMTMyLjI4OTA2MjUsInkiOjcxMC41fSx7IngiOjExMzIuMjg5MDYyNSwieSI6ODI1LjV9LHsieCI6MTEzMi4yODkwNjI1LCJ5Ijo5NTYuNX0seyJ4IjoxMTMyLjI4OTA2MjUsInkiOjEwODcuNX0seyJ4Ijo3NDguNDE0MDYyNSwieSI6MTE1My40NDg1ODI5MzA3NjE0fV0=" data-look="classic" marker-end="url(#my-svg_flowchart-v2-pointEnd)"/></g><g class="edgeLabels"><g class="edgeLabel"><g class="label" data-id="L_Start_Request_0" transform="translate(0, 0)"><text y="-10.1" text-anchor="middle"><tspan class="text-outer-tspan row" x="0" y="-0.1em" dy="1.1em" text-anchor="middle"/></text></g></g><g><rect class="background" style="stroke: none"/></g><g class="edgeLabel"><g class="label" data-id="L_Request_Check_0" transform="translate(0, 0)"><text y="-10.1" text-anchor="middle"><tspan class="text-outer-tspan row" x="0" y="-0.1em" dy="1.1em" text-anchor="middle"/></text></g></g><g><rect class="background" style="stroke: none"/></g><g class="edgeLabel" transform="translate(110, 381.5)"><g class="label" data-id="L_Check_Done_0" transform="translate(-0.046875, -10.5)"><g><rect class="background" style="" x="-52.6875" y="0" width="105.46875" height="21"/><text y="-10.1" text-anchor="middle" style=""><tspan class="text-outer-tspan row" x="0" y="-0.1em" dy="1.1em" text-anchor="middle"><tspan font-style="normal" class="text-inner-tspan" font-weight="normal">完整</tspan><tspan font-style="normal" class="text-inner-tspan" font-weight="normal"> message</tspan></tspan></text></g></g></g><g class="edgeLabel" transform="translate(333.5, 381.5)"><g class="label" data-id="L_Check_L1_0" transform="translate(0, -10.5)"><g><rect class="background" style="" x="-34" y="0" width="68" height="21"/><text y="-10.1" text-anchor="middle" style=""><tspan class="text-outer-tspan row" x="0" y="-0.1em" dy="1.1em" text-anchor="middle"><tspan font-style="normal" class="text-inner-tspan" font-weight="normal">输出截断</tspan></tspan></text></g></g></g><g class="edgeLabel" transform="translate(221.75, 595.5)"><g class="label" data-id="L_L1_L2_0" transform="translate(0, -10.5)"><g><rect class="background" style="" x="-10" y="0" width="20" height="21"/><text y="-10.1" text-anchor="middle" style=""><tspan class="text-outer-tspan row" x="0" y="-0.1em" dy="1.1em" text-anchor="middle"><tspan font-style="normal" class="text-inner-tspan" font-weight="normal">是</tspan></tspan></text></g></g></g><g class="edgeLabel" transform="translate(470.1640625, 595.5)"><g class="label" data-id="L_L1_L3_0" transform="translate(0, -10.5)"><g><rect class="background" style="" x="-10" y="0" width="20" height="21"/><text y="-10.1" text-anchor="middle" style=""><tspan class="text-outer-tspan row" x="0" y="-0.1em" dy="1.1em" text-anchor="middle"><tspan font-style="normal" class="text-inner-tspan" font-weight="normal">否</tspan></tspan></text></g></g></g><g class="edgeLabel" transform="translate(365.7890625, 956.5)"><g class="label" data-id="L_L3_Stop_0" transform="translate(0, -10.5)"><g><rect class="background" style="" x="-10" y="0" width="20" height="21"/><text y="-10.1" text-anchor="middle" style=""><tspan class="text-outer-tspan row" x="0" y="-0.1em" dy="1.1em" text-anchor="middle"><tspan font-style="normal" class="text-inner-tspan" font-weight="normal">否</tspan></tspan></text></g></g></g><g class="edgeLabel" transform="translate(540.4140625, 825.5)"><g class="label" data-id="L_L3_L4_0" transform="translate(0, -10.5)"><g><rect class="background" style="" x="-10" y="0" width="20" height="21"/><text y="-10.1" text-anchor="middle" style=""><tspan class="text-outer-tspan row" x="0" y="-0.1em" dy="1.1em" text-anchor="middle"><tspan font-style="normal" class="text-inner-tspan" font-weight="normal">是</tspan></tspan></text></g></g></g><g class="edgeLabel" transform="translate(392.88794, 1103.35187)"><g class="label" data-id="L_L4_L5_0" transform="translate(0, -10.5)"><g><rect class="background" style="" x="-10" y="0" width="20" height="21"/><text y="-10.1" text-anchor="middle" style=""><tspan class="text-outer-tspan row" x="0" y="-0.1em" dy="1.1em" text-anchor="middle"><tspan font-style="normal" class="text-inner-tspan" font-weight="normal">是</tspan></tspan></text></g></g></g><g class="edgeLabel" transform="translate(622.50048, 1078.00645)"><g class="label" data-id="L_L4_Stop_0" transform="translate(0, -10.5)"><g><rect class="background" style="" x="-10" y="0" width="20" height="21"/><text y="-10.1" text-anchor="middle" style=""><tspan class="text-outer-tspan row" x="0" y="-0.1em" dy="1.1em" text-anchor="middle"><tspan font-style="normal" class="text-inner-tspan" font-weight="normal">否</tspan></tspan></text></g></g></g><g class="edgeLabel" transform="translate(770.2890625, 595.5)"><g class="label" data-id="L_Check_C1_0" transform="translate(0, -10.5)"><g><rect class="background" style="" x="-42" y="0" width="84" height="21"/><text y="-10.1" text-anchor="middle" style=""><tspan class="text-outer-tspan row" x="0" y="-0.1em" dy="1.1em" text-anchor="middle"><tspan font-style="normal" class="text-inner-tspan" font-weight="normal">上下文超限</tspan></tspan></text></g></g></g><g class="edgeLabel" transform="translate(629.53429, 1098.26837)"><g class="label" data-id="L_C1_C2_0" transform="translate(0, -10.5)"><g><rect class="background" style="" x="-10" y="0" width="20" height="21"/><text y="-10.1" text-anchor="middle" style=""><tspan class="text-outer-tspan row" x="0" y="-0.1em" dy="1.1em" text-anchor="middle"><tspan font-style="normal" class="text-inner-tspan" font-weight="normal">否</tspan></tspan></text></g></g></g><g class="edgeLabel" transform="translate(847.74813, 1092.40637)"><g class="label" data-id="L_C1_Stop_0" transform="translate(0, -10.5)"><g><rect class="background" style="" x="-10" y="0" width="20" height="21"/><text y="-10.1" text-anchor="middle" style=""><tspan class="text-outer-tspan row" x="0" y="-0.1em" dy="1.1em" text-anchor="middle"><tspan font-style="normal" class="text-inner-tspan" font-weight="normal">是</tspan></tspan></text></g></g></g><g class="edgeLabel" transform="translate(1001.7890625, 595.5)"><g class="label" data-id="L_Check_R1_0" transform="translate(-0.05078125, -10.5)"><g><rect class="background" style="" x="-35.3671875" y="0" width="70.8359375" height="21"/><text y="-10.1" text-anchor="middle" style=""><tspan class="text-outer-tspan row" x="0" y="-0.1em" dy="1.1em" text-anchor="middle"><tspan font-style="normal" class="text-inner-tspan" font-weight="normal">429</tspan><tspan font-style="normal" class="text-inner-tspan" font-weight="normal"> /</tspan><tspan font-style="normal" class="text-inner-tspan" font-weight="normal"> 529</tspan></tspan></text></g></g></g><g class="edgeLabel" transform="translate(983.42848, 1088.97307)"><g class="label" data-id="L_R1_R2_0" transform="translate(0, -10.5)"><g><rect class="background" style="" x="-10" y="0" width="20" height="21"/><text y="-10.1" text-anchor="middle" style=""><tspan class="text-outer-tspan row" x="0" y="-0.1em" dy="1.1em" text-anchor="middle"><tspan font-style="normal" class="text-inner-tspan" font-weight="normal">是</tspan></tspan></text></g></g></g><g class="edgeLabel" transform="translate(1052.0390625, 1087.5)"><g class="label" data-id="L_R1_Stop_0" transform="translate(0, -10.5)"><g><rect class="background" style="" x="-10" y="0" width="20" height="21"/><text y="-10.1" text-anchor="middle" style=""><tspan class="text-outer-tspan row" x="0" y="-0.1em" dy="1.1em" text-anchor="middle"><tspan font-style="normal" class="text-inner-tspan" font-weight="normal">否</tspan></tspan></text></g></g></g><g class="edgeLabel" transform="translate(1132.2890625, 710.5)"><g class="label" data-id="L_Check_Stop_0" transform="translate(0, -10.5)"><g><rect class="background" style="" x="-34" y="0" width="68" height="21"/><text y="-10.1" text-anchor="middle" style=""><tspan class="text-outer-tspan row" x="0" y="-0.1em" dy="1.1em" text-anchor="middle"><tspan font-style="normal" class="text-inner-tspan" font-weight="normal">普通错误</tspan></tspan></text></g></g></g></g><g class="nodes"><g class="node default" id="my-svg-flowchart-Start-0" data-look="classic" transform="translate(681.7890625, 24)"><g class="basic label-container outer-path"><path d="M-11.5 -16 C-4.355837329369098 -16, 2.788325341261803 -16, 11.5 -16 C11.5 -16, 11.5 -16, 11.499999999999998 -16 C11.834198637535888 -15.98928290017241, 12.168397275071776 -15.97856580034482, 12.525123519691405 -15.967126284005381 C12.840436447216796 -15.936708425106284, 13.155749374742186 -15.906290566207186, 13.546034586952095 -15.868640221171939 C13.805886714355097 -15.826629344396766, 14.0657388417581 -15.784618467621593, 14.558538059221954 -15.704946511857047 C14.93937796203023 -15.618022289253679, 15.320217864838504 -15.53109806665031, 15.558473342552116 -15.476717808624471 C15.783890656121324 -15.409815133196755, 16.009307969690532 -15.342912457769037, 16.54173148837793 -15.184891952170698 C16.828856817083324 -15.07922717704967, 17.115982145788713 -14.973562401928643, 17.504272078069985 -14.830668117536348 C17.692480994113133 -14.747353613423176, 17.88068991015628 -14.664039109310004, 18.44213982588093 -14.415501886438706 C18.772335126364492 -14.243239209676615, 19.102530426848055 -14.070976532914523, 19.351480832063 -13.941099265974232 C19.595984817754132 -13.79287951298336, 19.84048880344526 -13.644659759992487, 20.228558419368778 -13.409409678269451 C20.466695551967693 -13.24329552335877, 20.704832684566608 -13.077181368448088, 21.069768487859456 -12.822617949887306 C21.386230889019796 -12.570247606380107, 21.702693290180132 -12.31787726287291, 21.871654324924613 -12.183135333906153 C22.05424858023639 -12.017308062411253, 22.236842835548163 -11.851480790916355, 22.630920809655784 -11.493589601563642 C22.80493310195337 -11.31390762309149, 22.97894539425096 -11.134225644619336, 23.344447953205048 -10.756814244181072 C23.530966305004224 -10.537719174962884, 23.7174846568034 -10.318624105744698, 24.00930371948848 -9.975836829739738 C24.159335637494483 -9.774807727800603, 24.309367555500486 -9.573778625861467, 24.62275607355129 -9.153866561954718 C24.782848971242633 -8.907920880138485, 24.94294186893397 -8.661975198322253, 25.182284208085537 -8.294281092968403 C25.322076227097615 -8.046066207735569, 25.46186824610969 -7.797851322502734, 25.685588901968003 -7.400612643853364 C25.791782026689557 -7.180100348200184, 25.897975151411107 -6.959588052547004, 26.130601968252996 -6.476533489958305 C26.22345745895111 -6.247178632695184, 26.316312949649223 -6.0178237754320625, 26.515494752796165 -5.52584087074093 C26.627031707454496 -5.189909334310416, 26.738568662112826 -4.853977797879902, 26.83868564858657 -4.552441386096524 C26.929223887245218 -4.207179842570246, 27.019762125903863 -3.8619182990439684, 27.098846594909176 -3.560334943301032 C27.16555301587504 -3.217811570048387, 27.232259436840902 -2.875288196795742, 27.2949085346312 -2.5535983205340735 C27.344284270096345 -2.1706498666082092, 27.393660005561493 -1.7877014126823452, 27.42606580718717 -1.536368414522911 C27.447035037502733 -1.2097557262999845, 27.468004267818294 -0.8831430380770579, 27.491779459211006 -0.5128252411464826 C27.491779459211006 -0.21285466460129143, 27.491779459211006 0.08711591194389978, 27.491779459211006 0.5128252411464788 C27.472490171431104 0.8132714683513169, 27.4532008836512 1.1137176955561552, 27.42606580718717 1.5363684145229002 C27.393244108097168 1.790927031287396, 27.360422409007164 2.0454856480518915, 27.294908534631205 2.5535983205340624 C27.25536552987113 2.756643292560029, 27.215822525111054 2.9596882645859957, 27.098846594909176 3.5603349433010285 C27.006645855181443 3.9119363239362457, 26.91444511545371 4.263537704571463, 26.83868564858657 4.552441386096513 C26.75637407556134 4.8003507294803365, 26.67406250253611 5.048260072864161, 26.515494752796165 5.525840870740919 C26.39090421834656 5.833581899625566, 26.26631368389695 6.141322928510212, 26.130601968253 6.4765334899583005 C25.98131720904286 6.786526486640307, 25.83203244983272 7.0965194833223135, 25.685588901968003 7.400612643853361 C25.582214874708562 7.584163697007841, 25.478840847449124 7.767714750162321, 25.18228420808554 8.294281092968399 C25.00677685005134 8.563907525233427, 24.831269492017142 8.833533957498457, 24.622756073551297 9.15386656195471 C24.37892803933477 9.480573914613972, 24.13510000511824 9.807281267273234, 24.00930371948848 9.975836829739734 C23.821174273133128 10.196824382297484, 23.633044826777773 10.417811934855235, 23.344447953205055 10.756814244181063 C23.183844521550647 10.922650473151199, 23.023241089896242 11.088486702121335, 22.630920809655784 11.493589601563638 C22.38285833203226 11.718873380367826, 22.134795854408736 11.944157159172017, 21.871654324924627 12.183135333906142 C21.63032161402816 12.375591748712925, 21.388988903131693 12.568048163519707, 21.06976848785946 12.822617949887304 C20.78951763861223 13.01810881045844, 20.509266789365 13.213599671029574, 20.228558419368788 13.409409678269446 C19.915468789169157 13.599206452015355, 19.602379158969526 13.789003225761267, 19.351480832063004 13.94109926597423 C19.02209867580595 14.112937725914195, 18.692716519548895 14.284776185854161, 18.442139825880933 14.415501886438705 C18.244488086298624 14.502996448421255, 18.04683634671631 14.590491010403808, 17.50427207806999 14.830668117536346 C17.260799027795922 14.920268450677408, 17.017325977521857 15.009868783818469, 16.54173148837794 15.184891952170695 C16.161089573960194 15.297864474339702, 15.780447659542446 15.410836996508708, 15.558473342552134 15.476717808624468 C15.215317038842002 15.55504099564215, 14.87216073513187 15.633364182659832, 14.558538059221961 15.704946511857045 C14.32623501339423 15.742503466769447, 14.093931967566498 15.780060421681847, 13.546034586952105 15.868640221171937 C13.338769438297161 15.888634840789868, 13.131504289642217 15.9086294604078, 12.525123519691405 15.967126284005381 C12.275464020205286 15.975132378221165, 12.025804520719165 15.983138472436949, 11.500000000000004 16 C11.500000000000002 16, 11.500000000000002 16, 11.5 16 C5.102464436989421 16, -1.295071126021158 16, -11.499999999999996 16 C-11.743965839112445 15.992176490390362, -11.987931678224891 15.984352980780724, -12.5251235196914 15.967126284005381 C-12.912469652189365 15.929759468455183, -13.29981578468733 15.892392652904986, -13.5460345869521 15.868640221171937 C-13.82276239775042 15.823901014778288, -14.09949020854874 15.77916180838464, -14.558538059221956 15.704946511857045 C-14.771055021893963 15.656440901929944, -14.98357198456597 15.607935292002844, -15.558473342552112 15.476717808624471 C-15.933901755463749 15.365292626336252, -16.309330168375386 15.253867444048032, -16.541731488377923 15.184891952170702 C-16.77557549914945 15.09883519457644, -17.009419509920978 15.01277843698218, -17.504272078069988 14.830668117536348 C-17.709237910038127 14.739935823819433, -17.91420374200626 14.649203530102518, -18.44213982588093 14.415501886438708 C-18.654360224710594 14.304786640302925, -18.86658062354026 14.19407139416714, -19.351480832063 13.941099265974234 C-19.58621691249086 13.79880087455654, -19.82095299291872 13.656502483138842, -20.228558419368767 13.409409678269457 C-20.435019711577446 13.265391218389976, -20.641481003786122 13.121372758510494, -21.069768487859456 12.822617949887308 C-21.232253699405554 12.693040317592367, -21.394738910951656 12.563462685297424, -21.871654324924613 12.183135333906154 C-22.147788654315686 11.932357442067175, -22.42392298370676 11.681579550228195, -22.630920809655777 11.493589601563649 C-22.906931060798897 11.208586356395324, -23.182941311942013 10.923583111227, -23.344447953205048 10.756814244181069 C-23.606376760552475 10.449137762899428, -23.868305567899903 10.141461281617785, -24.009303719488475 9.97583682973974 C-24.253282833659735 9.648927043704804, -24.497261947830996 9.322017257669868, -24.62275607355129 9.15386656195472 C-24.79905727646132 8.883020570783218, -24.97535847937135 8.612174579611715, -25.182284208085534 8.29428109296841 C-25.339078257154434 8.015877381727451, -25.495872306223337 7.737473670486494, -25.685588901968 7.400612643853366 C-25.812927369616922 7.136191591173647, -25.94026583726584 6.871770538493928, -26.130601968252996 6.476533489958307 C-26.25612568972723 6.16648747108089, -26.381649411201465 5.856441452203472, -26.515494752796165 5.525840870740931 C-26.621881946565615 5.2054195936047485, -26.728269140335065 4.884998316468565, -26.83868564858657 4.552441386096519 C-26.934470561657538 4.187171999112995, -27.030255474728506 3.8219026121294704, -27.098846594909176 3.5603349433010343 C-27.169326627847827 3.1984348701212957, -27.23980666078648 2.836534796941557, -27.2949085346312 2.5535983205340753 C-27.333952109760364 2.2507840618582557, -27.372995684889528 1.9479698031824357, -27.42606580718717 1.5363684145229202 C-27.442757088038096 1.2763882423103805, -27.459448368889017 1.016408070097841, -27.491779459211006 0.5128252411464846 C-27.491779459211006 0.2647098559777565, -27.491779459211006 0.016594470809028317, -27.491779459211006 -0.5128252411464769 C-27.467487726527253 -0.8911885856296239, -27.443195993843503 -1.269551930112771, -27.42606580718717 -1.5363684145228982 C-27.385557579185114 -1.850542231652464, -27.345049351183057 -2.16471604878203, -27.294908534631205 -2.5535983205340678 C-27.225499970292823 -2.9099966289063794, -27.15609140595444 -3.266394937278691, -27.098846594909176 -3.5603349433010267 C-27.028517489091715 -3.8285303046102808, -26.958188383274255 -4.096725665919535, -26.838685648586573 -4.552441386096511 C-26.736567371225128 -4.86000536717124, -26.634449093863687 -5.167569348245969, -26.515494752796172 -5.525840870740911 C-26.41860742166992 -5.7651544518118705, -26.321720090543668 -6.00446803288283, -26.130601968253 -6.476533489958299 C-26.021081395284174 -6.703955303092926, -25.911560822315348 -6.931377116227555, -25.685588901968003 -7.400612643853359 C-25.531587284420965 -7.674058110162898, -25.377585666873927 -7.947503576472437, -25.182284208085537 -8.294281092968404 C-25.0653153161698 -8.473976721496348, -24.948346424254062 -8.653672350024289, -24.622756073551294 -9.153866561954715 C-24.43700847128437 -9.402751427037712, -24.25126086901744 -9.65163629212071, -24.00930371948848 -9.975836829739734 C-23.797551256764496 -10.224573321511787, -23.585798794040514 -10.47330981328384, -23.344447953205055 -10.756814244181063 C-23.16092316947679 -10.946318651045463, -22.977398385748522 -11.135823057909862, -22.63092080965579 -11.493589601563633 C-22.44880449478323 -11.65898282019725, -22.266688179910666 -11.824376038830867, -21.871654324924627 -12.18313533390614 C-21.572231015302094 -12.421917455341209, -21.272807705679558 -12.660699576776278, -21.069768487859463 -12.822617949887302 C-20.854313348150516 -12.972910128445587, -20.638858208441572 -13.123202307003874, -20.228558419368788 -13.409409678269444 C-20.001492879763415 -13.547058142763447, -19.77442734015804 -13.68470660725745, -19.351480832063007 -13.941099265974229 C-19.034355303335673 -14.106543451182684, -18.71722977460834 -14.271987636391138, -18.442139825880936 -14.415501886438705 C-18.10473979366107 -14.564858872086088, -17.76733976144121 -14.714215857733473, -17.504272078069995 -14.830668117536344 C-17.119632874403642 -14.972218900051384, -16.73499367073729 -15.113769682566424, -16.54173148837794 -15.184891952170695 C-16.222103401560314 -15.279755890576102, -15.902475314742691 -15.374619828981508, -15.558473342552134 -15.476717808624466 C-15.201610608035436 -15.558169399030927, -14.844747873518736 -15.639620989437388, -14.558538059221963 -15.704946511857043 C-14.23538495035261 -15.757191400409253, -13.912231841483258 -15.809436288961463, -13.546034586952107 -15.868640221171937 C-13.148303109466832 -15.907008898462855, -12.750571631981556 -15.945377575753774, -12.525123519691407 -15.967126284005381 C-12.227037991165819 -15.976685306716913, -11.928952462640229 -15.986244329428446, -11.500000000000005 -16 C-11.500000000000004 -16, -11.500000000000002 -16, -11.5 -16" stroke="none" stroke-width="0" fill="#eee" style=""/><path d="M-11.5 -16 C-4.115446933756065 -16, 3.2691061324878703 -16, 11.5 -16 M-11.5 -16 C-3.283617261333319 -16, 4.932765477333362 -16, 11.5 -16 M11.5 -16 C11.5 -16, 11.499999999999998 -16, 11.499999999999998 -16 M11.5 -16 C11.5 -16, 11.499999999999998 -16, 11.499999999999998 -16 M11.499999999999998 -16 C11.803970476966262 -15.990252258446333, 12.107940953932523 -15.980504516892665, 12.525123519691405 -15.967126284005381 M11.499999999999998 -16 C11.806542286168483 -15.99016978553094, 12.113084572336968 -15.980339571061881, 12.525123519691405 -15.967126284005381 M12.525123519691405 -15.967126284005381 C12.787645188137375 -15.941801134378897, 13.050166856583347 -15.916475984752415, 13.546034586952095 -15.868640221171939 M12.525123519691405 -15.967126284005381 C12.906558913320435 -15.930329670325166, 13.287994306949463 -15.893533056644952, 13.546034586952095 -15.868640221171939 M13.546034586952095 -15.868640221171939 C13.933415225716848 -15.806011523678174, 14.320795864481601 -15.74338282618441, 14.558538059221954 -15.704946511857047 M13.546034586952095 -15.868640221171939 C13.803210792205027 -15.827061966737903, 14.06038699745796 -15.785483712303868, 14.558538059221954 -15.704946511857047 M14.558538059221954 -15.704946511857047 C14.904406775990507 -15.626004234258929, 15.250275492759062 -15.547061956660812, 15.558473342552116 -15.476717808624471 M14.558538059221954 -15.704946511857047 C14.85454537269024 -15.63738477418615, 15.150552686158525 -15.569823036515256, 15.558473342552116 -15.476717808624471 M15.558473342552116 -15.476717808624471 C15.873649372819052 -15.383175217233987, 16.18882540308599 -15.289632625843502, 16.54173148837793 -15.184891952170698 M15.558473342552116 -15.476717808624471 C15.783697544585252 -15.409872447686999, 16.008921746618388 -15.343027086749524, 16.54173148837793 -15.184891952170698 M16.54173148837793 -15.184891952170698 C16.80433604211442 -15.088251048905786, 17.06694059585091 -14.991610145640873, 17.504272078069985 -14.830668117536348 M16.54173148837793 -15.184891952170698 C16.855257802476316 -15.069511370377015, 17.1687841165747 -14.954130788583333, 17.504272078069985 -14.830668117536348 M17.504272078069985 -14.830668117536348 C17.848038052867924 -14.678493117948626, 18.191804027665864 -14.526318118360905, 18.44213982588093 -14.415501886438706 M17.504272078069985 -14.830668117536348 C17.836853497886807 -14.683444188660733, 18.169434917703626 -14.536220259785118, 18.44213982588093 -14.415501886438706 M18.44213982588093 -14.415501886438706 C18.738159625105865 -14.261068546792787, 19.034179424330805 -14.106635207146867, 19.351480832063 -13.941099265974232 M18.44213982588093 -14.415501886438706 C18.759278533389114 -14.250050825868723, 19.0764172408973 -14.084599765298739, 19.351480832063 -13.941099265974232 M19.351480832063 -13.941099265974232 C19.530096163130796 -13.832821602620738, 19.708711494198596 -13.724543939267244, 20.228558419368778 -13.409409678269451 M19.351480832063 -13.941099265974232 C19.646069982444143 -13.762517591815177, 19.94065913282528 -13.583935917656122, 20.228558419368778 -13.409409678269451 M20.228558419368778 -13.409409678269451 C20.553513332182792 -13.182735198161849, 20.878468244996807 -12.956060718054246, 21.069768487859456 -12.822617949887306 M20.228558419368778 -13.409409678269451 C20.425736495433764 -13.27186678810786, 20.62291457149875 -13.134323897946267, 21.069768487859456 -12.822617949887306 M21.069768487859456 -12.822617949887306 C21.26086705385127 -12.670221928855245, 21.45196561984309 -12.517825907823182, 21.871654324924613 -12.183135333906153 M21.069768487859456 -12.822617949887306 C21.254769472149857 -12.675084587998661, 21.439770456440254 -12.527551226110017, 21.871654324924613 -12.183135333906153 M21.871654324924613 -12.183135333906153 C22.097810601830265 -11.977746186987627, 22.323966878735916 -11.7723570400691, 22.630920809655784 -11.493589601563642 M21.871654324924613 -12.183135333906153 C22.143004463592245 -11.936702317499451, 22.41435460225988 -11.69026930109275, 22.630920809655784 -11.493589601563642 M22.630920809655784 -11.493589601563642 C22.8824158087462 -11.233900366879363, 23.13391080783661 -10.974211132195084, 23.344447953205048 -10.756814244181072 M22.630920809655784 -11.493589601563642 C22.83263820713644 -11.285299827358532, 23.034355604617097 -11.077010053153423, 23.344447953205048 -10.756814244181072 M23.344447953205048 -10.756814244181072 C23.608730089661606 -10.446373408619623, 23.873012226118167 -10.135932573058176, 24.00930371948848 -9.975836829739738 M23.344447953205048 -10.756814244181072 C23.507457835365887 -10.56533356106989, 23.670467717526726 -10.373852877958708, 24.00930371948848 -9.975836829739738 M24.00930371948848 -9.975836829739738 C24.160691212451866 -9.772991380853126, 24.312078705415257 -9.570145931966517, 24.62275607355129 -9.153866561954718 M24.00930371948848 -9.975836829739738 C24.240857192329887 -9.66557627108759, 24.472410665171296 -9.35531571243544, 24.62275607355129 -9.153866561954718 M24.62275607355129 -9.153866561954718 C24.81014651264363 -8.86598452613033, 24.997536951735974 -8.578102490305941, 25.182284208085537 -8.294281092968403 M24.62275607355129 -9.153866561954718 C24.7518562510557 -8.955534021056275, 24.880956428560108 -8.757201480157832, 25.182284208085537 -8.294281092968403 M25.182284208085537 -8.294281092968403 C25.370518254724 -7.960052482397711, 25.558752301362464 -7.625823871827019, 25.685588901968003 -7.400612643853364 M25.182284208085537 -8.294281092968403 C25.31128096956358 -8.06523428062561, 25.440277731041622 -7.836187468282816, 25.685588901968003 -7.400612643853364 M25.685588901968003 -7.400612643853364 C25.80406097887274 -7.154602841264309, 25.922533055777482 -6.908593038675253, 26.130601968252996 -6.476533489958305 M25.685588901968003 -7.400612643853364 C25.827244091129177 -7.106462612624682, 25.96889928029035 -6.812312581396001, 26.130601968252996 -6.476533489958305 M26.130601968252996 -6.476533489958305 C26.266465245045357 -6.140948569543413, 26.40232852183772 -5.805363649128522, 26.515494752796165 -5.52584087074093 M26.130601968252996 -6.476533489958305 C26.219905574000812 -6.25595185719344, 26.309209179748628 -6.0353702244285765, 26.515494752796165 -5.52584087074093 M26.515494752796165 -5.52584087074093 C26.594784229864764 -5.2870335988728785, 26.674073706933363 -5.048226327004826, 26.83868564858657 -4.552441386096524 M26.515494752796165 -5.52584087074093 C26.589836202147957 -5.301936269994742, 26.66417765149975 -5.078031669248554, 26.83868564858657 -4.552441386096524 M26.83868564858657 -4.552441386096524 C26.89148259523903 -4.351103746169271, 26.944279541891486 -4.149766106242019, 27.098846594909176 -3.560334943301032 M26.83868564858657 -4.552441386096524 C26.932387314974 -4.195116321602148, 27.02608898136143 -3.8377912571077735, 27.098846594909176 -3.560334943301032 M27.098846594909176 -3.560334943301032 C27.146807840393414 -3.314064084352301, 27.19476908587765 -3.06779322540357, 27.2949085346312 -2.5535983205340735 M27.098846594909176 -3.560334943301032 C27.1504779077739 -3.2952190640225094, 27.202109220638626 -3.0301031847439868, 27.2949085346312 -2.5535983205340735 M27.2949085346312 -2.5535983205340735 C27.321797143772194 -2.345055577792987, 27.348685752913184 -2.1365128350519003, 27.42606580718717 -1.536368414522911 M27.2949085346312 -2.5535983205340735 C27.33099368082942 -2.2737290524388096, 27.367078827027633 -1.9938597843435455, 27.42606580718717 -1.536368414522911 M27.42606580718717 -1.536368414522911 C27.440714805033775 -1.3081984486038227, 27.455363802880377 -1.0800284826847344, 27.491779459211006 -0.5128252411464826 M27.42606580718717 -1.536368414522911 C27.449475813670578 -1.1717386673267167, 27.472885820153987 -0.8071089201305225, 27.491779459211006 -0.5128252411464826 M27.491779459211006 -0.5128252411464826 C27.491779459211006 -0.17859064899669863, 27.491779459211006 0.15564394315308538, 27.491779459211006 0.5128252411464788 M27.491779459211006 -0.5128252411464826 C27.491779459211006 -0.27618711330840134, 27.491779459211006 -0.03954898547032004, 27.491779459211006 0.5128252411464788 M27.491779459211006 0.5128252411464788 C27.473578890263767 0.7963137937345839, 27.455378321316523 1.0798023463226891, 27.42606580718717 1.5363684145229002 M27.491779459211006 0.5128252411464788 C27.470152606225753 0.8496809332733404, 27.4485257532405 1.186536625400202, 27.42606580718717 1.5363684145229002 M27.42606580718717 1.5363684145229002 C27.381524946186172 1.881818536858816, 27.336984085185172 2.2272686591947317, 27.294908534631205 2.5535983205340624 M27.42606580718717 1.5363684145229002 C27.38734828151058 1.8366538980303304, 27.348630755833987 2.1369393815377604, 27.294908534631205 2.5535983205340624 M27.294908534631205 2.5535983205340624 C27.24347529688952 2.817697125918963, 27.192042059147834 3.081795931303864, 27.098846594909176 3.5603349433010285 M27.294908534631205 2.5535983205340624 C27.240686187397415 2.8320186136824175, 27.186463840163626 3.1104389068307725, 27.098846594909176 3.5603349433010285 M27.098846594909176 3.5603349433010285 C27.028654799055143 3.828006682209213, 26.95846300320111 4.095678421117397, 26.83868564858657 4.552441386096513 M27.098846594909176 3.5603349433010285 C27.044752854670467 3.766617819206544, 26.99065911443176 3.9729006951120596, 26.83868564858657 4.552441386096513 M26.83868564858657 4.552441386096513 C26.768734125445267 4.7631242285364594, 26.698782602303964 4.973807070976406, 26.515494752796165 5.525840870740919 M26.83868564858657 4.552441386096513 C26.767872043191705 4.765720682930036, 26.69705843779684 4.978999979763559, 26.515494752796165 5.525840870740919 M26.515494752796165 5.525840870740919 C26.39400810376128 5.825915242641661, 26.272521454726395 6.1259896145424015, 26.130601968253 6.4765334899583005 M26.515494752796165 5.525840870740919 C26.380154238771294 5.860134557013185, 26.24481372474642 6.1944282432854525, 26.130601968253 6.4765334899583005 M26.130601968253 6.4765334899583005 C25.96095198964359 6.828815300468779, 25.79130201103418 7.181097110979258, 25.685588901968003 7.400612643853361 M26.130601968253 6.4765334899583005 C26.00625783266322 6.734736748048774, 25.881913697073436 6.992940006139247, 25.685588901968003 7.400612643853361 M25.685588901968003 7.400612643853361 C25.501005014391318 7.728360027391179, 25.316421126814635 8.056107410928998, 25.18228420808554 8.294281092968399 M25.685588901968003 7.400612643853361 C25.540424430252997 7.658366862880072, 25.395259958537995 7.916121081906784, 25.18228420808554 8.294281092968399 M25.18228420808554 8.294281092968399 C24.99540263546475 8.581381373242705, 24.808521062843962 8.86848165351701, 24.622756073551297 9.15386656195471 M25.18228420808554 8.294281092968399 C24.981004721686542 8.603500435187225, 24.779725235287547 8.912719777406052, 24.622756073551297 9.15386656195471 M24.622756073551297 9.15386656195471 C24.399485792600604 9.453028398087605, 24.176215511649907 9.7521902342205, 24.00930371948848 9.975836829739734 M24.622756073551297 9.15386656195471 C24.413918101929305 9.433690418397573, 24.205080130307312 9.713514274840435, 24.00930371948848 9.975836829739734 M24.00930371948848 9.975836829739734 C23.750913252619135 10.279356974958544, 23.49252278574979 10.582877120177352, 23.344447953205055 10.756814244181063 M24.00930371948848 9.975836829739734 C23.79428612694675 10.22840872878686, 23.579268534405028 10.480980627833985, 23.344447953205055 10.756814244181063 M23.344447953205055 10.756814244181063 C23.07853954481276 11.031386507332448, 22.81263113642046 11.305958770483832, 22.630920809655784 11.493589601563638 M23.344447953205055 10.756814244181063 C23.112061990702706 10.996771829707084, 22.879676028200358 11.236729415233103, 22.630920809655784 11.493589601563638 M22.630920809655784 11.493589601563638 C22.345982100765312 11.752363397912857, 22.06104339187484 12.011137194262076, 21.871654324924627 12.183135333906142 M22.630920809655784 11.493589601563638 C22.383866017914656 11.717958226711342, 22.136811226173528 11.942326851859049, 21.871654324924627 12.183135333906142 M21.871654324924627 12.183135333906142 C21.61404081684045 12.388575251219915, 21.35642730875627 12.59401516853369, 21.06976848785946 12.822617949887304 M21.871654324924627 12.183135333906142 C21.557910940083474 12.433337334254853, 21.24416755524232 12.683539334603564, 21.06976848785946 12.822617949887304 M21.06976848785946 12.822617949887304 C20.889013069641248 12.948705104860387, 20.70825765142304 13.074792259833469, 20.228558419368788 13.409409678269446 M21.06976848785946 12.822617949887304 C20.753407084170053 13.043297970036594, 20.43704568048065 13.263977990185882, 20.228558419368788 13.409409678269446 M20.228558419368788 13.409409678269446 C19.903511864445477 13.606454810049541, 19.578465309522162 13.803499941829637, 19.351480832063004 13.94109926597423 M20.228558419368788 13.409409678269446 C19.896764335418826 13.610545201798377, 19.564970251468868 13.81168072532731, 19.351480832063004 13.94109926597423 M19.351480832063004 13.94109926597423 C19.040173237294393 14.103508238762984, 18.72886564252578 14.265917211551738, 18.442139825880933 14.415501886438705 M19.351480832063004 13.94109926597423 C19.120334988428873 14.061687904542177, 18.88918914479474 14.182276543110126, 18.442139825880933 14.415501886438705 M18.442139825880933 14.415501886438705 C18.18603914596 14.528870060482953, 17.929938466039065 14.6422382345272, 17.50427207806999 14.830668117536346 M18.442139825880933 14.415501886438705 C18.2038705854661 14.52097661116446, 17.96560134505127 14.626451335890216, 17.50427207806999 14.830668117536346 M17.50427207806999 14.830668117536346 C17.225188775059614 14.933373352861938, 16.946105472049236 15.03607858818753, 16.54173148837794 15.184891952170695 M17.50427207806999 14.830668117536346 C17.30652492467362 14.903440897940857, 17.108777771277254 14.976213678345369, 16.54173148837794 15.184891952170695 M16.54173148837794 15.184891952170695 C16.29375539674241 15.258489954515055, 16.04577930510688 15.332087956859413, 15.558473342552134 15.476717808624468 M16.54173148837794 15.184891952170695 C16.28630101004546 15.260702377357834, 16.03087053171298 15.336512802544974, 15.558473342552134 15.476717808624468 M15.558473342552134 15.476717808624468 C15.190114733118296 15.560793257463171, 14.82175612368446 15.644868706301875, 14.558538059221961 15.704946511857045 M15.558473342552134 15.476717808624468 C15.198523994820066 15.558873898355303, 14.838574647088 15.641029988086139, 14.558538059221961 15.704946511857045 M14.558538059221961 15.704946511857045 C14.351948540019814 15.738346303196, 14.145359020817667 15.771746094534953, 13.546034586952105 15.868640221171937 M14.558538059221961 15.704946511857045 C14.214504346623261 15.760567214488715, 13.870470634024562 15.816187917120384, 13.546034586952105 15.868640221171937 M13.546034586952105 15.868640221171937 C13.280371887108425 15.894268382319714, 13.014709187264746 15.919896543467493, 12.525123519691405 15.967126284005381 M13.546034586952105 15.868640221171937 C13.169614857528867 15.904952979758438, 12.79319512810563 15.941265738344939, 12.525123519691405 15.967126284005381 M12.525123519691405 15.967126284005381 C12.305919583707084 15.97415572757782, 12.086715647722762 15.98118517115026, 11.500000000000004 16 M12.525123519691405 15.967126284005381 C12.236821231533757 15.976371577240236, 11.948518943376108 15.985616870475091, 11.500000000000004 16 M11.500000000000004 16 C11.500000000000002 16, 11.500000000000002 16, 11.5 16 M11.500000000000004 16 C11.500000000000004 16, 11.500000000000002 16, 11.5 16 M11.5 16 C5.396495904120613 16, -0.7070081917587743 16, -11.499999999999996 16 M11.5 16 C3.9598867722750786 16, -3.580226455449843 16, -11.499999999999996 16 M-11.499999999999996 16 C-11.791718537321788 15.990645154303778, -12.083437074643578 15.981290308607553, -12.5251235196914 15.967126284005381 M-11.499999999999996 16 C-11.895125565531634 15.987329092178657, -12.290251131063272 15.974658184357315, -12.5251235196914 15.967126284005381 M-12.5251235196914 15.967126284005381 C-12.866057885276826 15.93423675579092, -13.206992250862251 15.901347227576458, -13.5460345869521 15.868640221171937 M-12.5251235196914 15.967126284005381 C-12.869506182421809 15.933904102712528, -13.213888845152217 15.900681921419674, -13.5460345869521 15.868640221171937 M-13.5460345869521 15.868640221171937 C-13.917175645724296 15.808637013031547, -14.28831670449649 15.748633804891154, -14.558538059221956 15.704946511857045 M-13.5460345869521 15.868640221171937 C-13.946086676157995 15.803962901839414, -14.346138765363888 15.739285582506893, -14.558538059221956 15.704946511857045 M-14.558538059221956 15.704946511857045 C-14.807237597467077 15.648182465168752, -15.0559371357122 15.59141841848046, -15.558473342552112 15.476717808624471 M-14.558538059221956 15.704946511857045 C-14.901735650973247 15.626613901113398, -15.244933242724537 15.54828129036975, -15.558473342552112 15.476717808624471 M-15.558473342552112 15.476717808624471 C-15.812393331410679 15.40135568878447, -16.066313320269245 15.325993568944467, -16.541731488377923 15.184891952170702 M-15.558473342552112 15.476717808624471 C-15.875501329465116 15.382625566222554, -16.19252931637812 15.288533323820637, -16.541731488377923 15.184891952170702 M-16.541731488377923 15.184891952170702 C-16.792388622235205 15.092647809862076, -17.04304575609249 15.000403667553451, -17.504272078069988 14.830668117536348 M-16.541731488377923 15.184891952170702 C-16.911274213757032 15.048896813215682, -17.280816939136145 14.912901674260663, -17.504272078069988 14.830668117536348 M-17.504272078069988 14.830668117536348 C-17.830038066363755 14.686461178023396, -18.155804054657523 14.542254238510443, -18.44213982588093 14.415501886438708 M-17.504272078069988 14.830668117536348 C-17.812113507256882 14.694395848626854, -18.119954936443772 14.558123579717362, -18.44213982588093 14.415501886438708 M-18.44213982588093 14.415501886438708 C-18.662276068925518 14.30065694944634, -18.882412311970104 14.185812012453972, -19.351480832063 13.941099265974234 M-18.44213982588093 14.415501886438708 C-18.670631411515526 14.296297972568984, -18.899122997150123 14.17709405869926, -19.351480832063 13.941099265974234 M-19.351480832063 13.941099265974234 C-19.613845601235422 13.782052201075388, -19.876210370407843 13.623005136176541, -20.228558419368767 13.409409678269457 M-19.351480832063 13.941099265974234 C-19.66029732645004 13.753892892269649, -19.969113820837077 13.566686518565064, -20.228558419368767 13.409409678269457 M-20.228558419368767 13.409409678269457 C-20.50031271190567 13.219845647849434, -20.772067004442576 13.03028161742941, -21.069768487859456 12.822617949887308 M-20.228558419368767 13.409409678269457 C-20.46020008374629 13.247826480805733, -20.69184174812381 13.086243283342009, -21.069768487859456 12.822617949887308 M-21.069768487859456 12.822617949887308 C-21.25176994984857 12.677476627213297, -21.433771411837686 12.532335304539286, -21.871654324924613 12.183135333906154 M-21.069768487859456 12.822617949887308 C-21.243905524538285 12.683748297117102, -21.418042561217113 12.544878644346898, -21.871654324924613 12.183135333906154 M-21.871654324924613 12.183135333906154 C-22.10818757180015 11.968322097420558, -22.34472081867569 11.75350886093496, -22.630920809655777 11.493589601563649 M-21.871654324924613 12.183135333906154 C-22.103684775961774 11.97241141746352, -22.335715226998936 11.761687501020887, -22.630920809655777 11.493589601563649 M-22.630920809655777 11.493589601563649 C-22.8502105006814 11.267154991561233, -23.069500191707018 11.040720381558815, -23.344447953205048 10.756814244181069 M-22.630920809655777 11.493589601563649 C-22.889650860951324 11.226429581468734, -23.14838091224687 10.95926956137382, -23.344447953205048 10.756814244181069 M-23.344447953205048 10.756814244181069 C-23.51201930505586 10.55997539921707, -23.67959065690667 10.363136554253071, -24.009303719488475 9.97583682973974 M-23.344447953205048 10.756814244181069 C-23.536041867237067 10.53175713075651, -23.727635781269086 10.306700017331952, -24.009303719488475 9.97583682973974 M-24.009303719488475 9.97583682973974 C-24.231150730979838 9.678582045019834, -24.4529977424712 9.381327260299926, -24.62275607355129 9.15386656195472 M-24.009303719488475 9.97583682973974 C-24.17585596710279 9.752671991158456, -24.342408214717107 9.529507152577173, -24.62275607355129 9.15386656195472 M-24.62275607355129 9.15386656195472 C-24.786832581076496 8.901800985684654, -24.950909088601698 8.649735409414589, -25.182284208085534 8.29428109296841 M-24.62275607355129 9.15386656195472 C-24.754278885945904 8.951812203296365, -24.88580169834052 8.749757844638008, -25.182284208085534 8.29428109296841 M-25.182284208085534 8.29428109296841 C-25.28956844198448 8.10378707197413, -25.396852675883423 7.913293050979851, -25.685588901968 7.400612643853366 M-25.182284208085534 8.29428109296841 C-25.344668242376862 8.005951796917646, -25.507052276668194 7.717622500866883, -25.685588901968 7.400612643853366 M-25.685588901968 7.400612643853366 C-25.78538435417074 7.193385252073763, -25.885179806373483 6.986157860294159, -26.130601968252996 6.476533489958307 M-25.685588901968 7.400612643853366 C-25.809656599665235 7.1429834149615905, -25.933724297362467 6.885354186069814, -26.130601968252996 6.476533489958307 M-26.130601968252996 6.476533489958307 C-26.262134608782173 6.151645324840642, -26.393667249311346 5.826757159722976, -26.515494752796165 5.525840870740931 M-26.130601968252996 6.476533489958307 C-26.219070097593463 6.258015500072438, -26.307538226933925 6.039497510186569, -26.515494752796165 5.525840870740931 M-26.515494752796165 5.525840870740931 C-26.58516178739674 5.316014862458569, -26.65482882199731 5.106188854176206, -26.83868564858657 4.552441386096519 M-26.515494752796165 5.525840870740931 C-26.634237950850654 5.168205277360148, -26.752981148905143 4.810569683979364, -26.83868564858657 4.552441386096519 M-26.83868564858657 4.552441386096519 C-26.90821260792348 4.287304956970089, -26.97773956726039 4.022168527843658, -27.098846594909176 3.5603349433010343 M-26.83868564858657 4.552441386096519 C-26.921900554458347 4.2351068844390864, -27.005115460330124 3.9177723827816546, -27.098846594909176 3.5603349433010343 M-27.098846594909176 3.5603349433010343 C-27.16548317159172 3.218170205681634, -27.23211974827427 2.8760054680622336, -27.2949085346312 2.5535983205340753 M-27.098846594909176 3.5603349433010343 C-27.152554531415813 3.2845560405158567, -27.20626246792245 3.0087771377306796, -27.2949085346312 2.5535983205340753 M-27.2949085346312 2.5535983205340753 C-27.341420705326613 2.1928591094874355, -27.387932876022028 1.8321198984407951, -27.42606580718717 1.5363684145229202 M-27.2949085346312 2.5535983205340753 C-27.324261626336167 2.3259415376939385, -27.353614718041133 2.0982847548538017, -27.42606580718717 1.5363684145229202 M-27.42606580718717 1.5363684145229202 C-27.443270599839334 1.2683898815068342, -27.460475392491496 1.000411348490748, -27.491779459211006 0.5128252411464846 M-27.42606580718717 1.5363684145229202 C-27.44400112265285 1.2570113990188825, -27.46193643811853 0.9776543835148448, -27.491779459211006 0.5128252411464846 M-27.491779459211006 0.5128252411464846 C-27.491779459211006 0.28221055046809657, -27.491779459211006 0.05159585978970849, -27.491779459211006 -0.5128252411464769 M-27.491779459211006 0.5128252411464846 C-27.491779459211006 0.26700201138016266, -27.491779459211006 0.02117878161384068, -27.491779459211006 -0.5128252411464769 M-27.491779459211006 -0.5128252411464769 C-27.478150055415963 -0.7251142067109974, -27.46452065162092 -0.9374031722755178, -27.42606580718717 -1.5363684145228982 M-27.491779459211006 -0.5128252411464769 C-27.473855482981964 -0.7920056388869896, -27.455931506752925 -1.0711860366275023, -27.42606580718717 -1.5363684145228982 M-27.42606580718717 -1.5363684145228982 C-27.388570318194315 -1.8271760228297247, -27.35107482920146 -2.117983631136551, -27.294908534631205 -2.5535983205340678 M-27.42606580718717 -1.5363684145228982 C-27.37852212161229 -1.9051078512790696, -27.330978436037405 -2.273847288035241, -27.294908534631205 -2.5535983205340678 M-27.294908534631205 -2.5535983205340678 C-27.229869639313204 -2.887559302016606, -27.1648307439952 -3.221520283499144, -27.098846594909176 -3.5603349433010267 M-27.294908534631205 -2.5535983205340678 C-27.25246710926319 -2.7715260698003874, -27.210025683895175 -2.9894538190667075, -27.098846594909176 -3.5603349433010267 M-27.098846594909176 -3.5603349433010267 C-27.001759458997324 -3.930570270363806, -26.904672323085467 -4.300805597426585, -26.838685648586573 -4.552441386096511 M-27.098846594909176 -3.5603349433010267 C-27.042262498848352 -3.7761146252833093, -26.98567840278753 -3.991894307265592, -26.838685648586573 -4.552441386096511 M-26.838685648586573 -4.552441386096511 C-26.76507228218627 -4.774153116997076, -26.69145891578597 -4.995864847897641, -26.515494752796172 -5.525840870740911 M-26.838685648586573 -4.552441386096511 C-26.762717146658616 -4.781246409966483, -26.68674864473066 -5.010051433836455, -26.515494752796172 -5.525840870740911 M-26.515494752796172 -5.525840870740911 C-26.37554423563715 -5.871521353882876, -26.235593718478125 -6.217201837024842, -26.130601968253 -6.476533489958299 M-26.515494752796172 -5.525840870740911 C-26.38402170427299 -5.850581842451645, -26.252548655749806 -6.175322814162379, -26.130601968253 -6.476533489958299 M-26.130601968253 -6.476533489958299 C-25.98149024214109 -6.786167179709521, -25.832378516029173 -7.095800869460743, -25.685588901968003 -7.400612643853359 M-26.130601968253 -6.476533489958299 C-25.95574071805117 -6.839636617433788, -25.78087946784934 -7.202739744909277, -25.685588901968003 -7.400612643853359 M-25.685588901968003 -7.400612643853359 C-25.543481711328308 -7.65293835074758, -25.401374520688613 -7.905264057641801, -25.182284208085537 -8.294281092968404 M-25.685588901968003 -7.400612643853359 C-25.58067668709435 -7.5868949048752645, -25.475764472220693 -7.77317716589717, -25.182284208085537 -8.294281092968404 M-25.182284208085537 -8.294281092968404 C-24.99218304106955 -8.586327534815883, -24.80208187405356 -8.878373976663362, -24.622756073551294 -9.153866561954715 M-25.182284208085537 -8.294281092968404 C-25.02868377024166 -8.530252612989353, -24.875083332397786 -8.7662241330103, -24.622756073551294 -9.153866561954715 M-24.622756073551294 -9.153866561954715 C-24.479521571349032 -9.345787745974151, -24.336287069146774 -9.537708929993586, -24.00930371948848 -9.975836829739734 M-24.622756073551294 -9.153866561954715 C-24.393551776583724 -9.460979438950243, -24.16434747961615 -9.768092315945774, -24.00930371948848 -9.975836829739734 M-24.00930371948848 -9.975836829739734 C-23.855883970362015 -10.156052396894708, -23.702464221235555 -10.336267964049682, -23.344447953205055 -10.756814244181063 M-24.00930371948848 -9.975836829739734 C-23.765040539337903 -10.262762260113293, -23.520777359187328 -10.549687690486852, -23.344447953205055 -10.756814244181063 M-23.344447953205055 -10.756814244181063 C-23.07210243637713 -11.038033350288668, -22.799756919549203 -11.31925245639627, -22.63092080965579 -11.493589601563633 M-23.344447953205055 -10.756814244181063 C-23.188489972891475 -10.917853663243148, -23.03253199257789 -11.078893082305235, -22.63092080965579 -11.493589601563633 M-22.63092080965579 -11.493589601563633 C-22.474143806637944 -11.635970327612252, -22.317366803620093 -11.778351053660872, -21.871654324924627 -12.18313533390614 M-22.63092080965579 -11.493589601563633 C-22.393653116057816 -11.709069843130152, -22.15638542245984 -11.924550084696671, -21.871654324924627 -12.18313533390614 M-21.871654324924627 -12.18313533390614 C-21.632554637658497 -12.373810971790984, -21.393454950392368 -12.56448660967583, -21.069768487859463 -12.822617949887302 M-21.871654324924627 -12.18313533390614 C-21.65084607827174 -12.3592240346576, -21.43003783161885 -12.535312735409061, -21.069768487859463 -12.822617949887302 M-21.069768487859463 -12.822617949887302 C-20.830215646276397 -12.989719642100274, -20.590662804693327 -13.156821334313246, -20.228558419368788 -13.409409678269444 M-21.069768487859463 -12.822617949887302 C-20.83596804193351 -12.985707019907068, -20.60216759600755 -13.148796089926833, -20.228558419368788 -13.409409678269444 M-20.228558419368788 -13.409409678269444 C-19.992955232507978 -13.552233714702478, -19.757352045647167 -13.695057751135511, -19.351480832063007 -13.941099265974229 M-20.228558419368788 -13.409409678269444 C-20.020254702548215 -13.535684615534592, -19.81195098572764 -13.66195955279974, -19.351480832063007 -13.941099265974229 M-19.351480832063007 -13.941099265974229 C-19.09890017524517 -14.072870432850463, -18.846319518427332 -14.204641599726697, -18.442139825880936 -14.415501886438705 M-19.351480832063007 -13.941099265974229 C-19.159015348736293 -14.04150838534575, -18.966549865409583 -14.14191750471727, -18.442139825880936 -14.415501886438705 M-18.442139825880936 -14.415501886438705 C-18.19886940856155 -14.523190483825465, -17.955598991242166 -14.630879081212225, -17.504272078069995 -14.830668117536344 M-18.442139825880936 -14.415501886438705 C-18.14320469985294 -14.547831599135849, -17.84426957382495 -14.680161311832995, -17.504272078069995 -14.830668117536344 M-17.504272078069995 -14.830668117536344 C-17.14904848906759 -14.961393681940091, -16.793824900065186 -15.092119246343836, -16.54173148837794 -15.184891952170695 M-17.504272078069995 -14.830668117536344 C-17.272449888062997 -14.915980826399753, -17.040627698056 -15.001293535263162, -16.54173148837794 -15.184891952170695 M-16.54173148837794 -15.184891952170695 C-16.229320002084524 -15.277614041421225, -15.91690851579111 -15.370336130671756, -15.558473342552134 -15.476717808624466 M-16.54173148837794 -15.184891952170695 C-16.333691539342794 -15.24663711702035, -16.125651590307648 -15.308382281870005, -15.558473342552134 -15.476717808624466 M-15.558473342552134 -15.476717808624466 C-15.34266934320415 -15.52597366322294, -15.126865343856165 -15.575229517821413, -14.558538059221963 -15.704946511857043 M-15.558473342552134 -15.476717808624466 C-15.280586300941701 -15.54014371248963, -15.00269925933127 -15.603569616354797, -14.558538059221963 -15.704946511857043 M-14.558538059221963 -15.704946511857043 C-14.305796036300658 -15.7458078820793, -14.053054013379352 -15.786669252301555, -13.546034586952107 -15.868640221171937 M-14.558538059221963 -15.704946511857043 C-14.222069503232872 -15.759344138636738, -13.88560094724378 -15.813741765416433, -13.546034586952107 -15.868640221171937 M-13.546034586952107 -15.868640221171937 C-13.306105179272622 -15.891785922573447, -13.066175771593137 -15.914931623974956, -12.525123519691407 -15.967126284005381 M-13.546034586952107 -15.868640221171937 C-13.31309666159196 -15.891111462682588, -13.080158736231812 -15.913582704193239, -12.525123519691407 -15.967126284005381 M-12.525123519691407 -15.967126284005381 C-12.142390757296655 -15.979399778751253, -11.759657994901904 -15.991673273497122, -11.500000000000005 -16 M-12.525123519691407 -15.967126284005381 C-12.276314698089182 -15.975105098637172, -12.02750587648696 -15.983083913268965, -11.500000000000005 -16 M-11.500000000000005 -16 C-11.500000000000004 -16, -11.500000000000002 -16, -11.5 -16 M-11.500000000000005 -16 C-11.500000000000004 -16, -11.500000000000004 -16, -11.5 -16" stroke="#999" stroke-width="1.3" fill="none" stroke-dasharray="0 0" style=""/></g><g class="label" style="" transform="translate(0, -8.5)"><rect/><g><rect class="background" style="stroke: none"/><text y="-10.1" style=""><tspan class="text-outer-tspan row" x="0" y="-0.1em" dy="1.1em"><tspan font-style="normal" class="text-inner-tspan" font-weight="normal">开始</tspan></tspan></text></g></g></g><g class="node default" id="my-svg-flowchart-Request-1" data-look="classic" transform="translate(681.7890625, 113.5)"><rect class="basic label-container" style="" x="-86.08203125" y="-23.5" width="172.1640625" height="47"/><g class="label" style="" transform="translate(0, -8.5)"><rect/><g><rect class="background" style="stroke: none"/><text y="-10.1" style=""><tspan class="text-outer-tspan row" x="0" y="-0.1em" dy="1.1em"><tspan font-style="normal" class="text-inner-tspan" font-weight="normal">请求</tspan><tspan font-style="normal" class="text-inner-tspan" font-weight="normal"> DeepSeek</tspan></tspan></text></g></g></g><g class="node default" id="my-svg-flowchart-Check-3" data-look="classic" transform="translate(681.7890625, 266.5)"><polygon points="79.5,0 159,-79.5 79.5,-159 0,-79.5" class="label-container" transform="translate(-79, 79.5)"/><g class="label" style="" transform="translate(0, -8.5)"><rect/><g><rect class="background" style="stroke: none"/><text y="-10.1" style=""><tspan class="text-outer-tspan row" x="0" y="-0.1em" dy="1.1em"><tspan font-style="normal" class="text-inner-tspan" font-weight="normal">返回什么信号？</tspan></tspan></text></g></g></g><g class="node default" id="my-svg-flowchart-Done-5" data-look="classic" transform="translate(110, 488.5)"><rect class="basic label-container" style="" x="-102" y="-32.29999923706055" width="204" height="64.5999984741211"/><g class="label" style="" transform="translate(0, -17.299999237060547)"><rect/><g><rect class="background" style="stroke: none"/><text y="-10.1" style=""><tspan class="text-outer-tspan row" x="0" y="-0.1em" dy="1.1em"><tspan font-style="normal" class="text-inner-tspan" font-weight="normal">回到</tspan><tspan font-style="normal" class="text-inner-tspan" font-weight="normal"> Agent</tspan><tspan font-style="normal" class="text-inner-tspan" font-weight="normal"> Loop</tspan></tspan><tspan class="text-outer-tspan row" x="0" y="1em" dy="1.1em"><tspan font-style="normal" class="text-inner-tspan" font-weight="normal">执行工具或输出答案</tspan></tspan></text></g></g></g><g class="node default" id="my-svg-flowchart-L1-7" data-look="classic" transform="translate(333.5, 488.5)"><polygon points="71.5,0 143,-71.5 71.5,-143 0,-71.5" class="label-container" transform="translate(-71, 71.5)"/><g class="label" style="" transform="translate(0, -8.5)"><rect/><g><rect class="background" style="stroke: none"/><text y="-10.1" style=""><tspan class="text-outer-tspan row" x="0" y="-0.1em" dy="1.1em"><tspan font-style="normal" class="text-inner-tspan" font-weight="normal">第一次截断？</tspan></tspan></text></g></g></g><g class="node default" id="my-svg-flowchart-L2-9" data-look="classic" transform="translate(221.75, 710.5)"><rect class="basic label-container" style="" x="-118.9140625" y="-32.29999923706055" width="237.828125" height="64.5999984741211"/><g class="label" style="" transform="translate(0, -17.299999237060547)"><rect/><g><rect class="background" style="stroke: none"/><text y="-10.1" style=""><tspan class="text-outer-tspan row" x="0" y="-0.1em" dy="1.1em"><tspan font-style="normal" class="text-inner-tspan" font-weight="normal">扩大输出上限</tspan></tspan><tspan class="text-outer-tspan row" x="0" y="1em" dy="1.1em"><tspan font-style="normal" class="text-inner-tspan" font-weight="normal">用原</tspan><tspan font-style="normal" class="text-inner-tspan" font-weight="normal"> messages</tspan><tspan font-style="normal" class="text-inner-tspan" font-weight="normal"> 重新请求</tspan></tspan></text></g></g></g><g class="node default" id="my-svg-flowchart-L3-11" data-look="classic" transform="translate(470.1640625, 710.5)"><polygon points="79.5,0 159,-79.5 79.5,-159 0,-79.5" class="label-container" transform="translate(-79, 79.5)"/><g class="label" style="" transform="translate(0, -8.5)"><rect/><g><rect class="background" style="stroke: none"/><text y="-10.1" style=""><tspan class="text-outer-tspan row" x="0" y="-0.1em" dy="1.1em"><tspan font-style="normal" class="text-inner-tspan" font-weight="normal">工具调用完整？</tspan></tspan></text></g></g></g><g class="node default" id="my-svg-flowchart-Stop-13" data-look="classic" transform="translate(686.4140625, 1164.099998474121)"><rect class="basic label-container" style="" x="-62" y="-23.5" width="124" height="47"/><g class="label" style="" transform="translate(0, -8.5)"><rect/><g><rect class="background" style="stroke: none"/><text y="-10.1" style=""><tspan class="text-outer-tspan row" x="0" y="-0.1em" dy="1.1em"><tspan font-style="normal" class="text-inner-tspan" font-weight="normal">明确停止</tspan></tspan></text></g></g></g><g class="node default" id="my-svg-flowchart-L4-15" data-look="classic" transform="translate(540.4140625, 956.5)"><polygon points="95.5,0 191,-95.5 95.5,-191 0,-95.5" class="label-container" transform="translate(-95, 95.5)"/><g class="label" style="" transform="translate(0, -8.5)"><rect/><g><rect class="background" style="stroke: none"/><text y="-10.1" style=""><tspan class="text-outer-tspan row" x="0" y="-0.1em" dy="1.1em"><tspan font-style="normal" class="text-inner-tspan" font-weight="normal">续写次数还没用完？</tspan></tspan></text></g></g></g><g class="node default" id="my-svg-flowchart-L5-17" data-look="classic" transform="translate(170.0390625, 1164.099998474121)"><rect class="basic label-container" style="" x="-78" y="-41.099998474121094" width="156" height="82.19999694824219"/><g class="label" style="" transform="translate(0, -26.099998474121094)"><rect/><g><rect class="background" style="stroke: none"/><text y="-10.1" style=""><tspan class="text-outer-tspan row" x="0" y="-0.1em" dy="1.1em"><tspan font-style="normal" class="text-inner-tspan" font-weight="normal">保存文本片段</tspan></tspan><tspan class="text-outer-tspan row" x="0" y="1em" dy="1.1em"><tspan font-style="normal" class="text-inner-tspan" font-weight="normal">追加续写提示</tspan></tspan><tspan class="text-outer-tspan row" x="0" y="2.1em" dy="1.1em"><tspan font-style="normal" class="text-inner-tspan" font-weight="normal">重新请求</tspan></tspan></text></g></g></g><g class="node default" id="my-svg-flowchart-C1-21" data-look="classic" transform="translate(770.2890625, 956.5)"><polygon points="71.5,0 143,-71.5 71.5,-143 0,-71.5" class="label-container" transform="translate(-71, 71.5)"/><g class="label" style="" transform="translate(0, -8.5)"><rect/><g><rect class="background" style="stroke: none"/><text y="-10.1" style=""><tspan class="text-outer-tspan row" x="0" y="-0.1em" dy="1.1em"><tspan font-style="normal" class="text-inner-tspan" font-weight="normal">已经压缩过？</tspan></tspan></text></g></g></g><g class="node default" id="my-svg-flowchart-C2-23" data-look="classic" transform="translate(388.7890625, 1164.099998474121)"><rect class="basic label-container" style="" x="-90.75" y="-32.29999923706055" width="181.5" height="64.5999984741211"/><g class="label" style="" transform="translate(0, -17.299999237060547)"><rect/><g><rect class="background" style="stroke: none"/><text y="-10.1" style=""><tspan class="text-outer-tspan row" x="0" y="-0.1em" dy="1.1em"><tspan font-style="normal" class="text-inner-tspan" font-weight="normal">reactive</tspan><tspan font-style="normal" class="text-inner-tspan" font-weight="normal"> compact</tspan></tspan><tspan class="text-outer-tspan row" x="0" y="1em" dy="1.1em"><tspan font-style="normal" class="text-inner-tspan" font-weight="normal">重新请求</tspan></tspan></text></g></g></g><g class="node default" id="my-svg-flowchart-R1-27" data-look="classic" transform="translate(1001.7890625, 956.5)"><polygon points="95.5,0 191,-95.5 95.5,-191 0,-95.5" class="label-container" transform="translate(-95, 95.5)"/><g class="label" style="" transform="translate(0, -8.5)"><rect/><g><rect class="background" style="stroke: none"/><text y="-10.1" style=""><tspan class="text-outer-tspan row" x="0" y="-0.1em" dy="1.1em"><tspan font-style="normal" class="text-inner-tspan" font-weight="normal">重试次数还没用完？</tspan></tspan></text></g></g></g><g class="node default" id="my-svg-flowchart-R2-29" data-look="classic" transform="translate(1067.0390625, 1164.099998474121)"><rect class="basic label-container" style="" x="-94" y="-41.099998474121094" width="188" height="82.19999694824219"/><g class="label" style="" transform="translate(0, -26.099998474121094)"><rect/><g><rect class="background" style="stroke: none"/><text y="-10.1" style=""><tspan class="text-outer-tspan row" x="0" y="-0.1em" dy="1.1em"><tspan font-style="normal" class="text-inner-tspan" font-weight="normal">等待</tspan><tspan font-style="normal" class="text-inner-tspan" font-weight="normal"> +</tspan><tspan font-style="normal" class="text-inner-tspan" font-weight="normal"> 抖动</tspan></tspan><tspan class="text-outer-tspan row" x="0" y="1em" dy="1.1em"><tspan font-style="normal" class="text-inner-tspan" font-weight="normal">必要时切备用模型</tspan></tspan><tspan class="text-outer-tspan row" x="0" y="2.1em" dy="1.1em"><tspan font-style="normal" class="text-inner-tspan" font-weight="normal">重新请求</tspan></tspan></text></g></g></g></g></g></g><defs><filter id="my-svg-drop-shadow" height="130%" width="130%"><feDropShadow dx="4" dy="4" stdDeviation="0" flood-opacity="0.06" flood-color="#000000"/></filter></defs><defs><filter id="my-svg-drop-shadow-small" height="150%" width="150%"><feDropShadow dx="2" dy="2" stdDeviation="0" flood-opacity="0.06" flood-color="#000000"/></filter></defs><linearGradient id="my-svg-gradient" gradientUnits="objectBoundingBox" x1="0%" y1="0%" x2="100%" y2="0%"><stop offset="0%" stop-color="hsl(0, 0%, 83.3333333333%)" stop-opacity="1"/><stop offset="100%" stop-color="hsl(0, 0%, 88.9215686275%)" stop-opacity="1"/></linearGradient></svg>