<svg width="283.16015625" height="717.0999755859375" id="my-svg" xmlns="http://www.w3.org/2000/svg" xmlns:xlink="http://www.w3.org/1999/xlink" class="classDiagram" style="max-width: 283.16px; background-color: white;" viewBox="0 0 283.16015625 717.0999755859375" role="graphics-document document" aria-roledescription="class"><style>#my-svg{font-family:"trebuchet ms",verdana,arial,sans-serif;font-size:16px;fill:#000000;}@keyframes edge-animation-frame{from{stroke-dashoffset:0;}}@keyframes dash{to{stroke-dashoffset:0;}}#my-svg .edge-animation-slow{stroke-dasharray:9,5!important;stroke-dashoffset:900;animation:dash 50s linear infinite;stroke-linecap:round;}#my-svg .edge-animation-fast{stroke-dasharray:9,5!important;stroke-dashoffset:900;animation:dash 20s linear infinite;stroke-linecap:round;}#my-svg .error-icon{fill:#552222;}#my-svg .error-text{fill:#552222;stroke:#552222;}#my-svg .edge-thickness-normal{stroke-width:1px;}#my-svg .edge-thickness-thick{stroke-width:3.5px;}#my-svg .edge-pattern-solid{stroke-dasharray:0;}#my-svg .edge-thickness-invisible{stroke-width:0;fill:none;}#my-svg .edge-pattern-dashed{stroke-dasharray:3;}#my-svg .edge-pattern-dotted{stroke-dasharray:2;}#my-svg .marker{fill:#666;stroke:#666;}#my-svg .marker.cross{stroke:#666;}#my-svg svg{font-family:"trebuchet ms",verdana,arial,sans-serif;font-size:16px;}#my-svg p{margin:0;}#my-svg g.classGroup text{fill:#999;stroke:none;font-family:"trebuchet ms",verdana,arial,sans-serif;font-size:10px;}#my-svg g.classGroup text .title{font-weight:bolder;}#my-svg .cluster-label text{fill:#333;}#my-svg .cluster-label span{color:#333;}#my-svg .cluster-label span p{background-color:transparent;}#my-svg .cluster rect{fill:hsl(0, 0%, 98.9215686275%);stroke:#707070;stroke-width:1px;}#my-svg .cluster text{fill:#333;}#my-svg .cluster span{color:#333;}#my-svg .nodeLabel,#my-svg .edgeLabel{color:#111111;}#my-svg .noteLabel .nodeLabel,#my-svg .noteLabel .edgeLabel{color:#fff;}#my-svg .edgeLabel .label rect{fill:#eee;}#my-svg .label text{fill:#111111;}#my-svg .labelBkg{background:#eee;}#my-svg .edgeLabel .label span{background:#eee;}#my-svg .classTitle{font-weight:bolder;}#my-svg .node rect,#my-svg .node circle,#my-svg .node ellipse,#my-svg .node polygon,#my-svg .node path{fill:#eee;stroke:#999;stroke-width:1;}#my-svg .divider{stroke:#999;stroke-width:1;}#my-svg g.clickable{cursor:pointer;}#my-svg g.classGroup rect{fill:#eee;stroke:#999;}#my-svg g.classGroup line{stroke:#999;stroke-width:1;}#my-svg .classLabel .box{stroke:none;stroke-width:0;fill:#eee;opacity:0.5;}#my-svg .classLabel .label{fill:#999;font-size:10px;}#my-svg .relation{stroke:#666;stroke-width:1;fill:none;}#my-svg .dashed-line{stroke-dasharray:3;}#my-svg .dotted-line{stroke-dasharray:1 2;}#my-svg [id$="-compositionStart"],#my-svg .composition{fill:#666!important;stroke:#666!important;stroke-width:1;}#my-svg [id$="-compositionEnd"],#my-svg .composition{fill:#666!important;stroke:#666!important;stroke-width:1;}#my-svg [id$="-dependencyStart"],#my-svg .dependency{fill:#666!important;stroke:#666!important;stroke-width:1;}#my-svg [id$="-dependencyEnd"],#my-svg .dependency{fill:#666!important;stroke:#666!important;stroke-width:1;}#my-svg [id$="-extensionStart"],#my-svg .extension{fill:transparent!important;stroke:#666!important;stroke-width:1;}#my-svg [id$="-extensionEnd"],#my-svg .extension{fill:transparent!important;stroke:#666!important;stroke-width:1;}#my-svg [id$="-aggregationStart"],#my-svg .aggregation{fill:transparent!important;stroke:#666!important;stroke-width:1;}#my-svg [id$="-aggregationEnd"],#my-svg .aggregation{fill:transparent!important;stroke:#666!important;stroke-width:1;}#my-svg [id$="-lollipopStart"],#my-svg .lollipop{fill:#eee!important;stroke:#666!important;stroke-width:1;}#my-svg [id$="-lollipopEnd"],#my-svg .lollipop{fill:#eee!important;stroke:#666!important;stroke-width:1;}#my-svg .edgeTerminals{font-size:11px;line-height:initial;}#my-svg .classTitleText{text-anchor:middle;font-size:18px;fill:#000000;}#my-svg .edgeLabel[data-look="neo"]{background-color:white;text-align:center;}#my-svg .edgeLabel[data-look="neo"] p{background-color:white;}#my-svg .edgeLabel[data-look="neo"] rect{opacity:0.5;background-color:white;fill:white;}#my-svg .label-icon{display:inline-block;height:1em;overflow:visible;vertical-align:-0.125em;}#my-svg .node .label-icon path{fill:currentColor;stroke:revert;stroke-width:revert;}#my-svg .node .neo-node{stroke:#999;}#my-svg [data-look="neo"].node rect,#my-svg [data-look="neo"].cluster rect,#my-svg [data-look="neo"].node polygon{stroke:url(#my-svg-gradient);filter:drop-shadow( 1px 2px 2px rgba(185,185,185,1));}#my-svg [data-look="neo"].swimlane.cluster rect{filter:none;}#my-svg [data-look="neo"].node path{stroke:url(#my-svg-gradient);stroke-width:1px;}#my-svg [data-look="neo"].node .outer-path{filter:drop-shadow( 1px 2px 2px rgba(185,185,185,1));}#my-svg [data-look="neo"].node .neo-line path{stroke:#999;filter:none;}#my-svg [data-look="neo"].node circle{stroke:url(#my-svg-gradient);filter:drop-shadow( 1px 2px 2px rgba(185,185,185,1));}#my-svg [data-look="neo"].node circle .state-start{fill:#000000;}#my-svg [data-look="neo"].icon-shape .icon{fill:url(#my-svg-gradient);filter:drop-shadow( 1px 2px 2px rgba(185,185,185,1));}#my-svg [data-look="neo"].icon-shape .icon-neo path{stroke:url(#my-svg-gradient);filter:drop-shadow( 1px 2px 2px rgba(185,185,185,1));}#my-svg :root{--mermaid-font-family:"trebuchet ms",verdana,arial,sans-serif;}</style><g><defs><marker id="my-svg_class-aggregationStart" class="marker aggregation class" refX="18" refY="7" markerWidth="190" markerHeight="240" orient="auto"><path d="M 18,7 L9,13 L1,7 L9,1 Z"/></marker></defs><defs><marker id="my-svg_class-aggregationEnd" class="marker aggregation class" refX="1" refY="7" markerWidth="20" markerHeight="28" orient="auto"><path d="M 18,7 L9,13 L1,7 L9,1 Z"/></marker></defs><defs><marker id="my-svg_class-aggregationStart-margin" class="marker aggregation class" refX="15" refY="7" markerWidth="190" markerHeight="240" orient="auto" markerUnits="userSpaceOnUse"><path d="M 18,7 L9,13 L1,7 L9,1 Z" style="stroke-width: 2;"/></marker></defs><defs><marker id="my-svg_class-aggregationEnd-margin" class="marker aggregation class" refX="1" refY="7" markerWidth="20" markerHeight="28" orient="auto" markerUnits="userSpaceOnUse"><path d="M 18,7 L9,13 L1,7 L9,1 Z" style="stroke-width: 2;"/></marker></defs><defs><marker id="my-svg_class-extensionStart" class="marker extension class" refX="18" refY="7" markerWidth="20" markerHeight="28" orient="auto" markerUnits="userSpaceOnUse"><path d="M 1,7 L18,13 V 1 Z"/></marker></defs><defs><marker id="my-svg_class-extensionEnd" class="marker extension class" refX="1" refY="7" markerWidth="20" markerHeight="28" orient="auto"><path d="M 1,1 V 13 L18,7 Z"/></marker></defs><marker id="my-svg_class-extensionStart-margin" class="marker extension class" refX="18" refY="7" markerWidth="20" markerHeight="28" orient="auto" markerUnits="userSpaceOnUse" viewBox="0 0 20 14"><polygon points="10,7 18,13 18,1" style="stroke-width: 2; stroke-dasharray: 0;"/></marker><defs><marker id="my-svg_class-extensionEnd-margin" class="marker extension class" refX="9" refY="7" markerWidth="20" markerHeight="28" orient="auto" markerUnits="userSpaceOnUse" viewBox="0 0 20 14"><polygon points="10,1 10,13 18,7" style="stroke-width: 2; stroke-dasharray: 0;"/></marker></defs><defs><marker id="my-svg_class-compositionStart" class="marker composition class" refX="18" refY="7" markerWidth="190" markerHeight="240" orient="auto"><path d="M 18,7 L9,13 L1,7 L9,1 Z"/></marker></defs><defs><marker id="my-svg_class-compositionEnd" class="marker composition class" refX="1" refY="7" markerWidth="20" markerHeight="28" orient="auto"><path d="M 18,7 L9,13 L1,7 L9,1 Z"/></marker></defs><defs><marker id="my-svg_class-compositionStart-margin" class="marker composition class" refX="15" refY="7" markerWidth="190" markerHeight="240" orient="auto" markerUnits="userSpaceOnUse"><path viewBox="0 0 15 15" d="M 18,7 L9,13 L1,7 L9,1 Z" style="stroke-width: 0;"/></marker></defs><defs><marker id="my-svg_class-compositionEnd-margin" class="marker composition class" refX="3.5" refY="7" markerWidth="20" markerHeight="28" orient="auto" markerUnits="userSpaceOnUse"><path d="M 18,7 L9,13 L1,7 L9,1 Z" style="stroke-width: 0;"/></marker></defs><defs><marker id="my-svg_class-dependencyStart" class="marker dependency class" refX="6" refY="7" markerWidth="190" markerHeight="240" orient="auto"><path d="M 5,7 L9,13 L1,7 L9,1 Z"/></marker></defs><defs><marker id="my-svg_class-dependencyEnd" class="marker dependency class" refX="13" refY="7" markerWidth="20" markerHeight="28" orient="auto"><path d="M 18,7 L9,13 L14,7 L9,1 Z"/></marker></defs><defs><marker id="my-svg_class-dependencyStart-margin" class="marker dependency class" refX="4" refY="7" markerWidth="190" markerHeight="240" orient="auto" markerUnits="userSpaceOnUse"><path d="M 5,7 L9,13 L1,7 L9,1 Z" style="stroke-width: 0;"/></marker></defs><defs><marker id="my-svg_class-dependencyEnd-margin" class="marker dependency class" refX="16" refY="7" markerWidth="20" markerHeight="28" orient="auto" markerUnits="userSpaceOnUse"><path d="M 18,7 L9,13 L14,7 L9,1 Z" style="stroke-width: 0;"/></marker></defs><defs><marker id="my-svg_class-lollipopStart" class="marker lollipop class" refX="13" refY="7" markerWidth="190" markerHeight="240" orient="auto"><circle fill="transparent" cx="7" cy="7" r="6"/></marker></defs><defs><marker id="my-svg_class-lollipopEnd" class="marker lollipop class" refX="1" refY="7" markerWidth="190" markerHeight="240" orient="auto"><circle fill="transparent" cx="7" cy="7" r="6"/></marker></defs><defs><marker id="my-svg_class-lollipopStart-margin" class="marker lollipop class" refX="13" refY="7" markerWidth="190" markerHeight="240" orient="auto" markerUnits="userSpaceOnUse"><circle fill="transparent" cx="7" cy="7" r="6" stroke-width="2"/></marker></defs><defs><marker id="my-svg_class-lollipopEnd-margin" class="marker lollipop class" refX="1" refY="7" markerWidth="190" markerHeight="240" orient="auto" markerUnits="userSpaceOnUse"><circle fill="transparent" cx="7" cy="7" r="6" stroke-width="2"/></marker></defs><g class="root"><g class="clusters"/><g class="edgePaths"><path d="M68.318,234L65.265,241.467C62.212,248.933,56.106,263.867,53.053,287.633C50,311.4,50,344,50,375.05C50,406.1,50,435.6,52.313,455.359C54.625,475.118,59.25,485.135,61.563,490.144L63.875,495.153" id="my-svg-id_BackgroundTask_TaskNotification_1" class="edge-thickness-normal edge-pattern-solid relation" style=";;;" data-edge="true" data-et="edge" data-id="id_BackgroundTask_TaskNotification_1" data-points="W3sieCI6NjguMzE3ODg2MzQxODg0OTksInkiOjIzNH0seyJ4Ijo1MCwieSI6Mjc4Ljc5OTk5OTIzNzA2MDU1fSx7IngiOjUwLCJ5IjozNzYuNTk5OTk4NDc0MTIxMX0seyJ4Ijo1MCwieSI6NDY1LjA5OTk5ODQ3NDEyMTF9LHsieCI6NjYuMzkwMDcyOTUzOTM1NiwieSI6NTAwLjU5OTk5ODQ3NDEyMTF9XQ==" data-look="classic" marker-end="url(#my-svg_class-dependencyEnd)"/><path d="M160.725,234L163.778,241.467C166.831,248.933,172.937,263.867,175.99,277.8C179.043,291.733,179.043,304.667,179.043,311.133L179.043,317.6" id="my-svg-id_BackgroundTask_OutputFile_2" class="edge-thickness-normal edge-pattern-solid relation" style=";;;" data-edge="true" data-et="edge" data-id="id_BackgroundTask_OutputFile_2" data-points="W3sieCI6MTYwLjcyNTA4MjQwODExNTAxLCJ5IjoyMzR9LHsieCI6MTc5LjA0Mjk2ODc1LCJ5IjoyNzguNzk5OTk5MjM3MDYwNTV9LHsieCI6MTc5LjA0Mjk2ODc1LCJ5IjozMjMuNTk5OTk4NDc0MTIxMX1d" data-look="classic" marker-end="url(#my-svg_class-dependencyEnd)"/><path d="M179.043,429.6L179.043,435.517C179.043,441.433,179.043,453.267,176.73,464.192C174.418,475.118,169.793,485.135,167.48,490.144L165.168,495.153" id="my-svg-id_OutputFile_TaskNotification_3" class="edge-thickness-normal edge-pattern-solid relation" style=";;;" data-edge="true" data-et="edge" data-id="id_OutputFile_TaskNotification_3" data-points="W3sieCI6MTc5LjA0Mjk2ODc1LCJ5Ijo0MjkuNTk5OTk4NDc0MTIxMX0seyJ4IjoxNzkuMDQyOTY4NzUsInkiOjQ2NS4wOTk5OTg0NzQxMjExfSx7IngiOjE2Mi42NTI4OTU3OTYwNjQ0LCJ5Ijo1MDAuNTk5OTk4NDc0MTIxMX1d" data-look="classic" marker-end="url(#my-svg_class-dependencyEnd)"/></g><g class="edgeLabels"><g class="edgeLabel" transform="translate(50, 376.5999984741211)"><g class="label" data-id="id_BackgroundTask_TaskNotification_1" transform="translate(0, -10.5)"><g><rect class="background" style="" x="-42" y="0" width="84" height="21"/><text y="-10.1" text-anchor="middle" style=""><tspan class="text-outer-tspan row" x="0" y="-0.1em" dy="1.1em" text-anchor="middle"><tspan font-style="normal" class="text-inner-tspan" font-weight="normal">完成后转换</tspan></tspan></text></g></g></g><g class="edgeLabel" transform="translate(179.04296875, 278.79999923706055)"><g class="label" data-id="id_BackgroundTask_OutputFile_2" transform="translate(-0.2734375, -19.799999237060547)"><g><rect class="background" style="" x="-95.84375" y="0" width="192.234375" height="39.599998474121094"/><text y="-10.1" text-anchor="middle" style=""><tspan class="text-outer-tspan row" x="0" y="-0.1em" dy="1.1em" text-anchor="middle"><tspan font-style="normal" class="text-inner-tspan" font-weight="normal">大输出落盘到</tspan></tspan><tspan class="text-outer-tspan row" x="0" y="1em" dy="1.1em" text-anchor="middle"><tspan font-style="normal" class="text-inner-tspan" font-weight="normal">.task_outputs/background/</tspan></tspan></text></g></g></g><g class="edgeLabel" transform="translate(179.04296875, 465.0999984741211)"><g class="label" data-id="id_OutputFile_TaskNotification_3" transform="translate(0, -10.5)"><g><rect class="background" style="" x="-58" y="0" width="116" height="21"/><text y="-10.1" text-anchor="middle" style=""><tspan class="text-outer-tspan row" x="0" y="-0.1em" dy="1.1em" text-anchor="middle"><tspan font-style="normal" class="text-inner-tspan" font-weight="normal">只回填文件路径</tspan></tspan></text></g></g></g></g><g class="nodes"><g class="node default" id="my-svg-classId-BackgroundTask-0" data-look="classic" transform="translate(114.521484375, 121)"><g class="basic label-container outer-path"><path d="M-88.927734375 -113 L88.927734375 -113 L88.927734375 113 L-88.927734375 113" stroke="none" stroke-width="0" fill="#eee" style=""/><path d="M-88.927734375 -113 C-30.117127486103236 -113, 28.69347940279353 -113, 88.927734375 -113 M-88.927734375 -113 C-35.40857172758276 -113, 18.11059091983448 -113, 88.927734375 -113 M88.927734375 -113 C88.927734375 -49.42324749547431, 88.927734375 14.153505009051386, 88.927734375 113 M88.927734375 -113 C88.927734375 -53.02068350997871, 88.927734375 6.95863298004258, 88.927734375 113 M88.927734375 113 C27.113225871565966 113, -34.70128263186807 113, -88.927734375 113 M88.927734375 113 C17.8803301147845 113, -53.167074145431 113, -88.927734375 113 M-88.927734375 113 C-88.927734375 61.23163881073675, -88.927734375 9.463277621473495, -88.927734375 -113 M-88.927734375 113 C-88.927734375 55.00530687908248, -88.927734375 -2.989386241835035, -88.927734375 -113" stroke="#999" stroke-width="1.3" fill="none" stroke-dasharray="0 0" style=""/></g><g class="annotation-group text" transform="translate(0, -93)"/><g class="label-group text" transform="translate(-64.36328125, -93)"><g class="label" style="font-weight: bolder" transform="translate(0,-8.5)"><g><rect class="background" style="stroke: none"/><text y="-10.1" style=""><tspan class="text-outer-tspan row" x="0" y="-0.1em" dy="1.1em" font-weight=""><tspan font-style="normal" class="text-inner-tspan" font-weight="">BackgroundTask</tspan></tspan></text></g></g></g><g class="members-group text" transform="translate(-76.927734375, -52)"><g class="label" style="" transform="translate(0,-8.5)"><g><rect class="background" style="stroke: none"/><text y="-10.1" style=""><tspan class="text-outer-tspan row" x="0" y="-0.1em" dy="1.1em"><tspan font-style="normal" class="text-inner-tspan" font-weight="normal">id</tspan></tspan></text></g></g><g class="label" style="" transform="translate(0,11.5)"><g><rect class="background" style="stroke: none"/><text y="-10.1" style=""><tspan class="text-outer-tspan row" x="0" y="-0.1em" dy="1.1em"><tspan font-style="normal" class="text-inner-tspan" font-weight="normal">toolCallId</tspan></tspan></text></g></g><g class="label" style="" transform="translate(0,31.5)"><g><rect class="background" style="stroke: none"/><text y="-10.1" style=""><tspan class="text-outer-tspan row" x="0" y="-0.1em" dy="1.1em"><tspan font-style="normal" class="text-inner-tspan" font-weight="normal">command</tspan></tspan></text></g></g><g class="label" style="" transform="translate(0,51.5)"><g><rect class="background" style="stroke: none"/><text y="-10.1" style=""><tspan class="text-outer-tspan row" x="0" y="-0.1em" dy="1.1em"><tspan font-style="normal" class="text-inner-tspan" font-weight="normal">status</tspan></tspan></text></g></g><g class="label" style="" transform="translate(0,71.5)"><g><rect class="background" style="stroke: none"/><text y="-10.1" style=""><tspan class="text-outer-tspan row" x="0" y="-0.1em" dy="1.1em"><tspan font-style="normal" class="text-inner-tspan" font-weight="normal">startedAt</tspan></tspan></text></g></g><g class="label" style="" transform="translate(0,91.5)"><g><rect class="background" style="stroke: none"/><text y="-10.1" style=""><tspan class="text-outer-tspan row" x="0" y="-0.1em" dy="1.1em"><tspan font-style="normal" class="text-inner-tspan" font-weight="normal">completedAt</tspan></tspan></text></g></g><g class="label" style="" transform="translate(0,111.5)"><g><rect class="background" style="stroke: none"/><text y="-10.1" style=""><tspan class="text-outer-tspan row" x="0" y="-0.1em" dy="1.1em"><tspan font-style="normal" class="text-inner-tspan" font-weight="normal">output</tspan></tspan></text></g></g></g><g class="methods-group text" transform="translate(-76.927734375, 109)"/><g class="divider" style=""><path d="M-88.927734375 -72 C-40.141339807850166 -71.99972569640444, 8.645054759299668 -71.9994513928089, 88.927734375 -71.999 M-88.927734375 -72 C-48.64976342593003 -71.99977353538111, -8.371792476860065 -71.9995470707622, 88.927734375 -71.999" stroke="#999" stroke-width="1.3" fill="none" stroke-dasharray="0 0" style=""/></g><g class="divider" style=""><path d="M-88.927734375 89 C-48.00327039335652 89.00023009955369, -7.078806411713046 89.0004601991074, 88.927734375 89.001 M-88.927734375 89 C-45.02699472891843 89.00024683379125, -1.1262550828368632 89.0004936675825, 88.927734375 89.001" stroke="#999" stroke-width="1.3" fill="none" stroke-dasharray="0 0" style=""/></g></g><g class="node default" id="my-svg-classId-TaskNotification-1" data-look="classic" transform="translate(114.521484375, 604.8499984741211)"><g class="basic label-container outer-path"><path d="M-89.078125 -104.25 L89.078125 -104.25 L89.078125 104.25 L-89.078125 104.25" stroke="none" stroke-width="0" fill="#eee" style=""/><path d="M-89.078125 -104.25 C-49.06035393304984 -104.25, -9.042582866099679 -104.25, 89.078125 -104.25 M-89.078125 -104.25 C-31.41591361740258 -104.25, 26.24629776519484 -104.25, 89.078125 -104.25 M89.078125 -104.25 C89.078125 -40.213215217301794, 89.078125 23.82356956539641, 89.078125 104.25 M89.078125 -104.25 C89.078125 -27.161287550397063, 89.078125 49.927424899205874, 89.078125 104.25 M89.078125 104.25 C50.29868289989132 104.25, 11.519240799782636 104.25, -89.078125 104.25 M89.078125 104.25 C31.552227150764438 104.25, -25.973670698471125 104.25, -89.078125 104.25 M-89.078125 104.25 C-89.078125 45.227638794041106, -89.078125 -13.794722411917789, -89.078125 -104.25 M-89.078125 104.25 C-89.078125 27.37972439436321, -89.078125 -49.49055121127358, -89.078125 -104.25" stroke="#999" stroke-width="1.3" fill="none" stroke-dasharray="0 0" style=""/></g><g class="annotation-group text" transform="translate(0, -84.25)"/><g class="label-group text" transform="translate(-61.640625, -84.25)"><g class="label" style="font-weight: bolder" transform="translate(0,-8.5)"><g><rect class="background" style="stroke: none"/><text y="-10.1" style=""><tspan class="text-outer-tspan row" x="0" y="-0.1em" dy="1.1em" font-weight=""><tspan font-style="normal" class="text-inner-tspan" font-weight="">TaskNotification</tspan></tspan></text></g></g></g><g class="members-group text" transform="translate(-77.078125, -43.25)"><g class="label" style="" transform="translate(0,-9)"><g><rect class="background" style="stroke: none"/><text y="-10.1" style=""><tspan class="text-outer-tspan row" x="0" y="-0.1em" dy="1.1em"><tspan font-style="normal" class="text-inner-tspan" font-weight="normal">task_id</tspan></tspan></text></g></g><g class="label" style="" transform="translate(0,12.5)"><g><rect class="background" style="stroke: none"/><text y="-10.1" style=""><tspan class="text-outer-tspan row" x="0" y="-0.1em" dy="1.1em"><tspan font-style="normal" class="text-inner-tspan" font-weight="normal">status</tspan></tspan></text></g></g><g class="label" style="" transform="translate(0,32.5)"><g><rect class="background" style="stroke: none"/><text y="-10.1" style=""><tspan class="text-outer-tspan row" x="0" y="-0.1em" dy="1.1em"><tspan font-style="normal" class="text-inner-tspan" font-weight="normal">command</tspan></tspan></text></g></g><g class="label" style="" transform="translate(0,52)"><g><rect class="background" style="stroke: none"/><text y="-10.1" style=""><tspan class="text-outer-tspan row" x="0" y="-0.1em" dy="1.1em"><tspan font-style="normal" class="text-inner-tspan" font-weight="normal">output_chars</tspan></tspan></text></g></g><g class="label" style="" transform="translate(0,73.5)"><g><rect class="background" style="stroke: none"/><text y="-10.1" style=""><tspan class="text-outer-tspan row" x="0" y="-0.1em" dy="1.1em"><tspan font-style="normal" class="text-inner-tspan" font-weight="normal">summary</tspan></tspan></text></g></g><g class="label" style="" transform="translate(0,93)"><g><rect class="background" style="stroke: none"/><text y="-10.1" style=""><tspan class="text-outer-tspan row" x="0" y="-0.1em" dy="1.1em"><tspan font-style="normal" class="text-inner-tspan" font-weight="normal">output_path</tspan></tspan></text></g></g></g><g class="methods-group text" transform="translate(-77.078125, 100.75)"/><g class="divider" style=""><path d="M-89.078125 -63.25 C-52.76852757019107 -63.249796192401725, -16.458930140382137 -63.24959238480346, 89.078125 -63.249 M-89.078125 -63.25 C-52.15612708780321 -63.24979275496699, -15.234129175606427 -63.24958550993398, 89.078125 -63.249" stroke="#999" stroke-width="1.3" fill="none" stroke-dasharray="0 0" style=""/></g><g class="divider" style=""><path d="M-89.078125 80.75 C-48.691989759554204 80.75022668941023, -8.305854519108408 80.75045337882045, 89.078125 80.751 M-89.078125 80.75 C-34.0544754386253 80.750308850515, 20.969174122749394 80.75061770102998, 89.078125 80.751" stroke="#999" stroke-width="1.3" fill="none" stroke-dasharray="0 0" style=""/></g></g><g class="node default" id="my-svg-classId-OutputFile-2" data-look="classic" transform="translate(179.04296875, 376.5999984741211)"><g class="basic label-container outer-path"><path d="M-52.04296875 -53 L52.04296875 -53 L52.04296875 53 L-52.04296875 53" stroke="none" stroke-width="0" fill="#eee" style=""/><path d="M-52.04296875 -53 C-21.761355475411598 -53, 8.520257799176804 -53, 52.04296875 -53 M-52.04296875 -53 C-16.49200209793922 -53, 19.05896455412156 -53, 52.04296875 -53 M52.04296875 -53 C52.04296875 -28.554195650942603, 52.04296875 -4.108391301885206, 52.04296875 53 M52.04296875 -53 C52.04296875 -25.53924410345348, 52.04296875 1.921511793093039, 52.04296875 53 M52.04296875 53 C27.045236220326103 53, 2.0475036906522064 53, -52.04296875 53 M52.04296875 53 C21.98161632577136 53, -8.079736098457282 53, -52.04296875 53 M-52.04296875 53 C-52.04296875 13.857007600406725, -52.04296875 -25.28598479918655, -52.04296875 -53 M-52.04296875 53 C-52.04296875 30.514637094969814, -52.04296875 8.029274189939628, -52.04296875 -53" stroke="#999" stroke-width="1.3" fill="none" stroke-dasharray="0 0" style=""/></g><g class="annotation-group text" transform="translate(0, -33)"/><g class="label-group text" transform="translate(-40.04296875, -33)"><g class="label" style="font-weight: bolder" transform="translate(0,-8.5)"><g><rect class="background" style="stroke: none"/><text y="-10.1" style=""><tspan class="text-outer-tspan row" x="0" y="-0.1em" dy="1.1em" font-weight=""><tspan font-style="normal" class="text-inner-tspan" font-weight="">OutputFile</tspan></tspan></text></g></g></g><g class="members-group text" transform="translate(-40.04296875, 8)"><g class="label" style="" transform="translate(0,-8.5)"><g><rect class="background" style="stroke: none"/><text y="-10.1" style=""><tspan class="text-outer-tspan row" x="0" y="-0.1em" dy="1.1em"><tspan font-style="normal" class="text-inner-tspan" font-weight="normal">path</tspan></tspan></text></g></g></g><g class="methods-group text" transform="translate(-40.04296875, 49)"/><g class="divider" style=""><path d="M-52.04296875 -12 C-11.961514165819317 -11.999614919598681, 28.119940418361367 -11.999229839197362, 52.04296875 -11.999 M-52.04296875 -12 C-15.79840084109727 -11.999651782279342, 20.44616706780546 -11.999303564558682, 52.04296875 -11.999" stroke="#999" stroke-width="1.3" fill="none" stroke-dasharray="0 0" style=""/></g><g class="divider" style=""><path d="M-52.04296875 29 C-29.05438529117891 29.00022086156892, -6.0658018323578204 29.000441723137843, 52.04296875 29.001 M-52.04296875 29 C-15.22501043235279 29.000353726537917, 21.59294788529442 29.000707453075833, 52.04296875 29.001" stroke="#999" stroke-width="1.3" fill="none" stroke-dasharray="0 0" style=""/></g></g></g></g></g><defs><filter id="my-svg-drop-shadow" height="130%" width="130%"><feDropShadow dx="4" dy="4" stdDeviation="0" flood-opacity="0.06" flood-color="#000000"/></filter></defs><defs><filter id="my-svg-drop-shadow-small" height="150%" width="150%"><feDropShadow dx="2" dy="2" stdDeviation="0" flood-opacity="0.06" flood-color="#000000"/></filter></defs><linearGradient id="my-svg-gradient" gradientUnits="objectBoundingBox" x1="0%" y1="0%" x2="100%" y2="0%"><stop offset="0%" stop-color="hsl(0, 0%, 83.3333333333%)" stop-opacity="1"/><stop offset="100%" stop-color="hsl(0, 0%, 88.9215686275%)" stop-opacity="1"/></linearGradient></svg>