<svg width="1174.2890625" height="1213.199951171875" id="my-svg" xmlns="http://www.w3.org/2000/svg" xmlns:xlink="http://www.w3.org/1999/xlink" class="flowchart" style="max-width: 1174.29px; background-color: white;" viewBox="0 0 1174.2890625 1213.199951171875" role="graphics-document document" aria-roledescription="flowchart-v2"><style>#my-svg{font-family:"trebuchet ms",verdana,arial,sans-serif;font-size:16px;fill:#000000;}@keyframes edge-animation-frame{from{stroke-dashoffset:0;}}@keyframes dash{to{stroke-dashoffset:0;}}#my-svg .edge-animation-slow{stroke-dasharray:9,5!important;stroke-dashoffset:900;animation:dash 50s linear infinite;stroke-linecap:round;}#my-svg .edge-animation-fast{stroke-dasharray:9,5!important;stroke-dashoffset:900;animation:dash 20s linear infinite;stroke-linecap:round;}#my-svg .error-icon{fill:#552222;}#my-svg .error-text{fill:#552222;stroke:#552222;}#my-svg .edge-thickness-normal{stroke-width:1px;}#my-svg .edge-thickness-thick{stroke-width:3.5px;}#my-svg .edge-pattern-solid{stroke-dasharray:0;}#my-svg .edge-thickness-invisible{stroke-width:0;fill:none;}#my-svg .edge-pattern-dashed{stroke-dasharray:3;}#my-svg .edge-pattern-dotted{stroke-dasharray:2;}#my-svg .marker{fill:#666;stroke:#666;}#my-svg .marker.cross{stroke:#666;}#my-svg svg{font-family:"trebuchet ms",verdana,arial,sans-serif;font-size:16px;}#my-svg p{margin:0;}#my-svg .label{font-family:"trebuchet ms",verdana,arial,sans-serif;color:#000000;}#my-svg .cluster-label text{fill:#333;}#my-svg .cluster-label span{color:#333;}#my-svg .cluster-label span p{background-color:transparent;}#my-svg .label text,#my-svg span{fill:#000000;color:#000000;}#my-svg .node rect,#my-svg .node circle,#my-svg .node ellipse,#my-svg .node polygon,#my-svg .node path{fill:#eee;stroke:#999;stroke-width:1px;}#my-svg .rough-node .label text,#my-svg .node .label text,#my-svg .image-shape .label,#my-svg .icon-shape .label{text-anchor:middle;}#my-svg .node .katex path{fill:#000;stroke:#000;stroke-width:1px;}#my-svg .rough-node .label,#my-svg .node .label,#my-svg .image-shape .label,#my-svg .icon-shape .label{text-align:center;}#my-svg .node.clickable{cursor:pointer;}#my-svg .root .anchor path{fill:#666!important;stroke-width:0;stroke:#666;}#my-svg .arrowheadPath{fill:#333333;}#my-svg .edgePath .path{stroke:#666;stroke-width:1px;}#my-svg .flowchart-link{stroke:#666;fill:none;}#my-svg .edgeLabel{background-color:white;text-align:center;}#my-svg .edgeLabel p{background-color:white;}#my-svg .edgeLabel rect{opacity:0.5;background-color:white;fill:white;}#my-svg .labelBkg{background-color:rgba(255, 255, 255, 0.5);}#my-svg .cluster rect{fill:hsl(0, 0%, 98.9215686275%);stroke:#707070;stroke-width:1px;}#my-svg .cluster text{fill:#333;}#my-svg .cluster span{color:#333;}#my-svg div.mermaidTooltip{position:absolute;text-align:center;max-width:200px;padding:2px;font-family:"trebuchet ms",verdana,arial,sans-serif;font-size:12px;background:hsl(-160, 0%, 93.3333333333%);border:1px solid #707070;border-radius:2px;pointer-events:none;z-index:100;}#my-svg .flowchartTitleText{text-anchor:middle;font-size:18px;fill:#000000;}#my-svg rect.text{fill:none;stroke-width:0;}#my-svg .icon-shape,#my-svg .image-shape{background-color:white;text-align:center;}#my-svg .icon-shape p,#my-svg .image-shape p{background-color:white;padding:2px;}#my-svg .icon-shape .label rect,#my-svg .image-shape .label rect{opacity:0.5;background-color:white;fill:white;}#my-svg .label-icon{display:inline-block;height:1em;overflow:visible;vertical-align:-0.125em;}#my-svg .node .label-icon path{fill:currentColor;stroke:revert;stroke-width:revert;}#my-svg .node .neo-node{stroke:#999;}#my-svg [data-look="neo"].node rect,#my-svg [data-look="neo"].cluster rect,#my-svg [data-look="neo"].node polygon{stroke:url(#my-svg-gradient);filter:drop-shadow( 1px 2px 2px rgba(185,185,185,1));}#my-svg [data-look="neo"].swimlane.cluster rect{filter:none;}#my-svg [data-look="neo"].node path{stroke:url(#my-svg-gradient);stroke-width:1px;}#my-svg [data-look="neo"].node .outer-path{filter:drop-shadow( 1px 2px 2px rgba(185,185,185,1));}#my-svg [data-look="neo"].node .neo-line path{stroke:#999;filter:none;}#my-svg [data-look="neo"].node circle{stroke:url(#my-svg-gradient);filter:drop-shadow( 1px 2px 2px rgba(185,185,185,1));}#my-svg [data-look="neo"].node circle .state-start{fill:#000000;}#my-svg [data-look="neo"].icon-shape .icon{fill:url(#my-svg-gradient);filter:drop-shadow( 1px 2px 2px rgba(185,185,185,1));}#my-svg [data-look="neo"].icon-shape .icon-neo path{stroke:url(#my-svg-gradient);filter:drop-shadow( 1px 2px 2px rgba(185,185,185,1));}#my-svg :root{--mermaid-font-family:"trebuchet ms",verdana,arial,sans-serif;}</style><g><marker id="my-svg_flowchart-v2-pointEnd" class="marker flowchart-v2" viewBox="0 0 10 10" refX="5" refY="5" markerUnits="userSpaceOnUse" markerWidth="8" markerHeight="8" orient="auto"><path d="M 0 0 L 10 5 L 0 10 z" class="arrowMarkerPath" style="stroke-width: 1; stroke-dasharray: 1, 0;"/></marker><marker id="my-svg_flowchart-v2-pointStart" class="marker flowchart-v2" viewBox="0 0 10 10" refX="4.5" refY="5" markerUnits="userSpaceOnUse" markerWidth="8" markerHeight="8" orient="auto"><path d="M 0 5 L 10 10 L 10 0 z" class="arrowMarkerPath" style="stroke-width: 1; stroke-dasharray: 1, 0;"/></marker><marker id="my-svg_flowchart-v2-pointEnd-margin" class="marker flowchart-v2" viewBox="0 0 11.5 14" refX="11.5" refY="7" markerUnits="userSpaceOnUse" markerWidth="10.5" markerHeight="14" orient="auto"><path d="M 0 0 L 11.5 7 L 0 14 z" class="arrowMarkerPath" style="stroke-width: 0; stroke-dasharray: 1, 0;"/></marker><marker id="my-svg_flowchart-v2-pointStart-margin" class="marker flowchart-v2" viewBox="0 0 11.5 14" refX="1" refY="7" markerUnits="userSpaceOnUse" markerWidth="11.5" markerHeight="14" orient="auto"><polygon points="0,7 11.5,14 11.5,0" class="arrowMarkerPath" style="stroke-width: 0; stroke-dasharray: 1, 0;"/></marker><marker id="my-svg_flowchart-v2-circleEnd" class="marker flowchart-v2" viewBox="0 0 10 10" refX="11" refY="5" markerUnits="userSpaceOnUse" markerWidth="11" markerHeight="11" orient="auto"><circle cx="5" cy="5" r="5" class="arrowMarkerPath" style="stroke-width: 1; stroke-dasharray: 1, 0;"/></marker><marker id="my-svg_flowchart-v2-circleStart" class="marker flowchart-v2" viewBox="0 0 10 10" refX="-1" refY="5" markerUnits="userSpaceOnUse" markerWidth="11" markerHeight="11" orient="auto"><circle cx="5" cy="5" r="5" class="arrowMarkerPath" style="stroke-width: 1; stroke-dasharray: 1, 0;"/></marker><marker id="my-svg_flowchart-v2-circleEnd-margin" class="marker flowchart-v2" viewBox="0 0 10 10" refY="5" refX="12.25" markerUnits="userSpaceOnUse" markerWidth="14" markerHeight="14" orient="auto"><circle cx="5" cy="5" r="5" class="arrowMarkerPath" style="stroke-width: 0; stroke-dasharray: 1, 0;"/></marker><marker id="my-svg_flowchart-v2-circleStart-margin" class="marker flowchart-v2" viewBox="0 0 10 10" refX="-2" refY="5" markerUnits="userSpaceOnUse" markerWidth="14" markerHeight="14" orient="auto"><circle cx="5" cy="5" r="5" class="arrowMarkerPath" style="stroke-width: 0; stroke-dasharray: 1, 0;"/></marker><marker id="my-svg_flowchart-v2-crossEnd" class="marker cross flowchart-v2" viewBox="0 0 11 11" refX="12" refY="5.2" markerUnits="userSpaceOnUse" markerWidth="11" markerHeight="11" orient="auto"><path d="M 1,1 l 9,9 M 10,1 l -9,9" class="arrowMarkerPath" style="stroke-width: 2; stroke-dasharray: 1, 0;"/></marker><marker id="my-svg_flowchart-v2-crossStart" class="marker cross flowchart-v2" viewBox="0 0 11 11" refX="-1" refY="5.2" markerUnits="userSpaceOnUse" markerWidth="11" markerHeight="11" orient="auto"><path d="M 1,1 l 9,9 M 10,1 l -9,9" class="arrowMarkerPath" style="stroke-width: 2; stroke-dasharray: 1, 0;"/></marker><marker id="my-svg_flowchart-v2-crossEnd-margin" class="marker cross flowchart-v2" viewBox="0 0 15 15" refX="17.7" refY="7.5" markerUnits="userSpaceOnUse" markerWidth="12" markerHeight="12" orient="auto"><path d="M 1,1 L 14,14 M 1,14 L 14,1" class="arrowMarkerPath" style="stroke-width: 2.5;"/></marker><marker id="my-svg_flowchart-v2-crossStart-margin" class="marker cross flowchart-v2" viewBox="0 0 15 15" refX="-3.5" refY="7.5" markerUnits="userSpaceOnUse" markerWidth="12" markerHeight="12" orient="auto"><path d="M 1,1 L 14,14 M 1,14 L 14,1" class="arrowMarkerPath" style="stroke-width: 2.5; stroke-dasharray: 1, 0;"/></marker><g class="root"><g class="clusters"/><g class="edgePaths"><path d="M682.289,40.5L682.206,44.583C682.122,48.667,681.956,56.833,681.872,64.417C681.789,72,681.789,79,681.789,82.5L681.789,86" id="my-svg-L_Start_Request_0" class="edge-thickness-normal edge-pattern-solid edge-thickness-normal edge-pattern-solid flowchart-link" style=";" data-edge="true" data-et="edge" data-id="L_Start_Request_0" data-points="W3sieCI6NjgyLjI4OTA2MjUsInkiOjQwLjV9LHsieCI6NjgxLjc4OTA2MjUsInkiOjY1fSx7IngiOjY4MS43ODkwNjI1LCJ5Ijo5MH1d" data-look="classic" marker-end="url(#my-svg_flowchart-v2-pointEnd)"/><path d="M681.789,137L681.789,141.167C681.789,145.333,681.789,153.667,681.789,161.333C681.789,169,681.789,176,681.789,179.5L681.789,183" id="my-svg-L_Request_Check_0" class="edge-thickness-normal edge-pattern-solid edge-thickness-normal edge-pattern-solid flowchart-link" style=";" data-edge="true" data-et="edge" data-id="L_Request_Check_0" data-points="W3sieCI6NjgxLjc4OTA2MjUsInkiOjEzN30seyJ4Ijo2ODEuNzg5MDYyNSwieSI6MTYyfSx7IngiOjY4MS43ODkwNjI1LCJ5IjoxODd9XQ==" data-look="classic" marker-end="url(#my-svg_flowchart-v2-pointEnd)"/><path d="M615.601,279.812L531.334,296.76C447.067,313.708,278.534,347.604,194.267,376.335C110,405.067,110,428.633,110,440.417L110,452.2" id="my-svg-L_Check_Done_0" class="edge-thickness-normal edge-pattern-solid edge-thickness-normal edge-pattern-solid flowchart-link" style=";" data-edge="true" data-et="edge" data-id="L_Check_Done_0" data-points="W3sieCI6NjE1LjYwMTAxMDA4MjE1ODgsInkiOjI3OS44MTE5NDc1ODIxNTg4NH0seyJ4IjoxMTAsInkiOjM4MS41fSx7IngiOjExMCwieSI6NDU2LjIwMDAwMDc2MjkzOTQ1fV0=" data-look="classic" marker-end="url(#my-svg_flowchart-v2-pointEnd)"/><path d="M622.023,286.234L573.936,302.112C525.849,317.989,429.674,349.745,381.587,370.872C333.5,392,333.5,402.5,333.5,407.75L333.5,413" id="my-svg-L_Check_L1_0" class="edge-thickness-normal edge-pattern-solid edge-thickness-normal edge-pattern-solid flowchart-link" style=";" data-edge="true" data-et="edge" data-id="L_Check_L1_0" data-points="W3sieCI6NjIyLjAyMjk2MjQzNDIzMzgsInkiOjI4Ni4yMzM4OTk5MzQyMzM4fSx7IngiOjMzMy41LCJ5IjozODEuNX0seyJ4IjozMzMuNSwieSI6NDE3fV0=" data-look="classic" marker-end="url(#my-svg_flowchart-v2-pointEnd)"/><path d="M296.974,523.474L284.436,535.478C271.899,547.482,246.825,571.491,234.287,596.612C221.75,621.733,221.75,647.967,221.75,661.083L221.75,674.2" id="my-svg-L_L1_L2_0" class="edge-thickness-normal edge-pattern-solid edge-thickness-normal edge-pattern-solid flowchart-link" style=";" data-edge="true" data-et="edge" data-id="L_L1_L2_0" data-points="W3sieCI6Mjk2Ljk3MzcxNDI4NTcxNDI3LCJ5Ijo1MjMuNDczNzE0Mjg1NzE0M30seyJ4IjoyMjEuNzUsInkiOjU5NS41fSx7IngiOjIyMS43NSwieSI6Njc4LjIwMDAwMDc2MjkzOTV9XQ==" data-look="classic" marker-end="url(#my-svg_flowchart-v2-pointEnd)"/><path d="M373.602,519.898L389.696,532.498C405.79,545.098,437.977,570.299,454.07,588.15C470.164,606,470.164,616.5,470.164,621.75L470.164,627" id="my-svg-L_L1_L3_0" class="edge-thickness-normal edge-pattern-solid edge-thickness-normal edge-pattern-solid flowchart-link" style=";" data-edge="true" data-et="edge" data-id="L_L1_L3_0" data-points="W3sieCI6MzczLjYwMjI2MzYxODU4MzUsInkiOjUxOS44OTc3MzYzODE0MTY1fSx7IngiOjQ3MC4xNjQwNjI1LCJ5Ijo1OTUuNX0seyJ4Ijo0NzAuMTY0MDYyNSwieSI6NjMxfV0=" data-look="classic" marker-end="url(#my-svg_flowchart-v2-pointEnd)"/><path d="M432.339,752.175L421.248,764.396C410.156,776.617,387.972,801.058,376.881,835.113C365.789,869.167,365.789,912.833,365.789,956.5C365.789,1000.167,365.789,1043.833,408.245,1075.81C450.701,1107.786,535.612,1128.072,578.068,1138.215L620.524,1148.358" id="my-svg-L_L3_Stop_0" class="edge-thickness-normal edge-pattern-solid edge-thickness-normal edge-pattern-solid flowchart-link" style=";" data-edge="true" data-et="edge" data-id="L_L3_Stop_0" data-points="W3sieCI6NDMyLjMzOTI3NjE3NTIxMzcsInkiOjc1Mi4xNzUyMTM2NzUyMTM2fSx7IngiOjM2NS43ODkwNjI1LCJ5Ijo4MjUuNX0seyJ4IjozNjUuNzg5MDYyNSwieSI6OTU2LjV9LHsieCI6MzY1Ljc4OTA2MjUsInkiOjEwODcuNX0seyJ4Ijo2MjQuNDE0MDYyNSwieSI6MTE0OS4yODc2NzkwODEwNzQ3fV0=" data-look="classic" marker-end="url(#my-svg_flowchart-v2-pointEnd)"/><path d="M500.312,759.852L506.996,770.794C513.679,781.735,527.047,803.617,533.73,819.809C540.414,836,540.414,846.5,540.414,851.75L540.414,857" id="my-svg-L_L3_L4_0" class="edge-thickness-normal edge-pattern-solid edge-thickness-normal edge-pattern-solid flowchart-link" style=";" data-edge="true" data-et="edge" data-id="L_L3_L4_0" data-points="W3sieCI6NTAwLjMxMTgzNTc3OTM1MjI0LCJ5Ijo3NTkuODUyMjI2NzIwNjQ3OH0seyJ4Ijo1NDAuNDE0MDYyNSwieSI6ODI1LjV9LHsieCI6NTQwLjQxNDA2MjUsInkiOjg2MX1d" data-look="classic" marker-end="url(#my-svg_flowchart-v2-pointEnd)"/><path d="M501.683,1013.269L493.243,1025.641C484.802,1038.013,467.92,1062.756,426.29,1084.176C384.659,1105.595,318.279,1123.69,285.088,1132.738L251.898,1141.785" id="my-svg-L_L4_L5_0" class="edge-thickness-normal edge-pattern-solid edge-thickness-normal edge-pattern-solid flowchart-link" style=";" data-edge="true" data-et="edge" data-id="L_L4_L5_0" data-points="W3sieCI6NTAxLjY4MzIwNjAwNTM4ODU3LCJ5IjoxMDEzLjI2OTE0MzUwNTM4ODZ9LHsieCI6NDUxLjAzOTA2MjUsInkiOjEwODcuNX0seyJ4IjoyNDguMDM5MDYyNSwieSI6MTE0Mi44MzczNjU0NDU3MTczfV0=" data-look="classic" marker-end="url(#my-svg_flowchart-v2-pointEnd)"/><path d="M578.919,1013.495L587.251,1025.83C595.584,1038.164,612.249,1062.832,626.825,1083.483C641.4,1104.134,653.886,1120.767,660.129,1129.084L666.372,1137.401" id="my-svg-L_L4_Stop_0" class="edge-thickness-normal edge-pattern-solid edge-thickness-normal edge-pattern-solid flowchart-link" style=";" data-edge="true" data-et="edge" data-id="L_L4_Stop_0" data-points="W3sieCI6NTc4LjkxODYxODMwODY1NiwieSI6MTAxMy40OTU0NDQxOTEzNDR9LHsieCI6NjI4LjkxNDA2MjUsInkiOjEwODcuNX0seyJ4Ijo2NjguNzczNzIyNzIzMDE1MywieSI6MTE0MC41OTk5OTg0NzQxMjF9XQ==" data-look="classic" marker-end="url(#my-svg_flowchart-v2-pointEnd)"/><path d="M716.363,311.426L725.35,323.105C734.338,334.784,752.314,358.142,761.301,387.654C770.289,417.167,770.289,452.833,770.289,488.5C770.289,524.167,770.289,559.833,770.289,596.833C770.289,633.833,770.289,672.167,770.289,710.5C770.289,748.833,770.289,787.167,770.289,815.583C770.289,844,770.289,862.5,770.289,871.75L770.289,881" id="my-svg-L_Check_C1_0" class="edge-thickness-normal edge-pattern-solid edge-thickness-normal edge-pattern-solid flowchart-link" style=";" data-edge="true" data-et="edge" data-id="L_Check_C1_0" data-points="W3sieCI6NzE2LjM2Mjc3MjU3MzcxMDEsInkiOjMxMS40MjYyODk5MjYyODk5NH0seyJ4Ijo3NzAuMjg5MDYyNSwieSI6MzgxLjV9LHsieCI6NzcwLjI4OTA2MjUsInkiOjQ4OC41fSx7IngiOjc3MC4yODkwNjI1LCJ5Ijo1OTUuNX0seyJ4Ijo3NzAuMjg5MDYyNSwieSI6NzEwLjV9LHsieCI6NzcwLjI4OTA2MjUsInkiOjgyNS41fSx7IngiOjc3MC4yODkwNjI1LCJ5Ijo4ODV9XQ==" data-look="classic" marker-end="url(#my-svg_flowchart-v2-pointEnd)"/><path d="M739.097,996.808L727.4,1011.923C715.703,1027.038,692.308,1057.269,649.692,1080.84C607.075,1104.41,545.236,1121.32,514.317,1129.775L483.397,1138.229" id="my-svg-L_C1_C2_0" class="edge-thickness-normal edge-pattern-solid edge-thickness-normal edge-pattern-solid flowchart-link" style=";" data-edge="true" data-et="edge" data-id="L_C1_C2_0" data-points="W3sieCI6NzM5LjA5Njc1NDgwNzY5MjMsInkiOjk5Ni44MDc2OTIzMDc2OTIzfSx7IngiOjY2OC45MTQwNjI1LCJ5IjoxMDg3LjV9LHsieCI6NDc5LjUzOTA2MjUsInkiOjExMzkuMjg0NDcwMTg2NjU0N31d" data-look="classic" marker-end="url(#my-svg_flowchart-v2-pointEnd)"/><path d="M799.117,999.172L809.062,1013.893C819.008,1028.615,838.898,1058.057,829.538,1081.358C820.177,1104.659,781.564,1121.817,762.258,1130.396L742.952,1138.976" id="my-svg-L_C1_Stop_0" class="edge-thickness-normal edge-pattern-solid edge-thickness-normal edge-pattern-solid flowchart-link" style=";" data-edge="true" data-et="edge" data-id="L_C1_Stop_0" data-points="W3sieCI6Nzk5LjExNzA4MDcyMzIzNDYsInkiOjk5OS4xNzE5ODE3NzY3NjU0fSx7IngiOjg1OC43ODkwNjI1LCJ5IjoxMDg3LjV9LHsieCI6NzM5LjI5NjczMzI2NjIyMTMsInkiOjExNDAuNTk5OTk4NDc0MTIxfV0=" data-look="classic" marker-end="url(#my-svg_flowchart-v2-pointEnd)"/><path d="M740.272,287.517L783.858,303.181C827.444,318.845,914.617,350.172,958.203,383.67C1001.789,417.167,1001.789,452.833,1001.789,488.5C1001.789,524.167,1001.789,559.833,1001.789,596.833C1001.789,633.833,1001.789,672.167,1001.789,710.5C1001.789,748.833,1001.789,787.167,1001.789,811.583C1001.789,836,1001.789,846.5,1001.789,851.75L1001.789,857" id="my-svg-L_Check_R1_0" class="edge-thickness-normal edge-pattern-solid edge-thickness-normal edge-pattern-solid flowchart-link" style=";" data-edge="true" data-et="edge" data-id="L_Check_R1_0" data-points="W3sieCI6NzQwLjI3MTgyMTEyMDY4OTcsInkiOjI4Ny41MTcyNDEzNzkzMTAzNX0seyJ4IjoxMDAxLjc4OTA2MjUsInkiOjM4MS41fSx7IngiOjEwMDEuNzg5MDYyNSwieSI6NDg4LjV9LHsieCI6MTAwMS43ODkwNjI1LCJ5Ijo1OTUuNX0seyJ4IjoxMDAxLjc4OTA2MjUsInkiOjcxMC41fSx7IngiOjEwMDEuNzg5MDYyNSwieSI6ODI1LjV9LHsieCI6MTAwMS43ODkwNjI1LCJ5Ijo4NjF9XQ==" data-look="classic" marker-end="url(#my-svg_flowchart-v2-pointEnd)"/><path d="M989.14,1039.351L987.915,1047.376C986.69,1055.401,984.239,1071.45,989.103,1084.946C993.967,1098.442,1006.145,1109.384,1012.234,1114.855L1018.323,1120.327" id="my-svg-L_R1_R2_0" class="edge-thickness-normal edge-pattern-solid edge-thickness-normal edge-pattern-solid flowchart-link" style=";" data-edge="true" data-et="edge" data-id="L_R1_R2_0" data-points="W3sieCI6OTg5LjE0MDA1NTg3NzQ4MzQsInkiOjEwMzkuMzUwOTkzMzc3NDgzNX0seyJ4Ijo5ODEuNzg5MDYyNSwieSI6MTA4Ny41fSx7IngiOjEwMjEuMjk3ODc1Mjk3NDYzLCJ5IjoxMTIzfV0=" data-look="classic" marker-end="url(#my-svg_flowchart-v2-pointEnd)"/><path d="M1028.266,1025.523L1032.228,1035.853C1036.19,1046.182,1044.115,1066.841,998.125,1087.636C952.136,1108.43,852.232,1129.36,802.281,1139.825L752.329,1150.291" id="my-svg-L_R1_Stop_0" class="edge-thickness-normal edge-pattern-solid edge-thickness-normal edge-pattern-solid flowchart-link" style=";" data-edge="true" data-et="edge" data-id="L_R1_Stop_0" data-points="W3sieCI6MTAyOC4yNjU2MTQyMjQxMzc4LCJ5IjoxMDI1LjUyMzQ0ODI3NTg2MjJ9LHsieCI6MTA1Mi4wMzkwNjI1LCJ5IjoxMDg3LjV9LHsieCI6NzQ4LjQxNDA2MjUsInkiOjExNTEuMTEwNzMzNzc1NjAzNH1d" data-look="classic" marker-end="url(#my-svg_flowchart-v2-pointEnd)"/><path d="M745.122,282.667L809.65,299.139C874.178,315.611,1003.233,348.556,1067.761,382.861C1132.289,417.167,1132.289,452.833,1132.289,488.5C1132.289,524.167,1132.289,559.833,1132.289,596.833C1132.289,633.833,1132.289,672.167,1132.289,710.5C1132.289,748.833,1132.289,787.167,1132.289,828.167C1132.289,869.167,1132.289,912.833,1132.289,956.5C1132.289,1000.167,1132.289,1043.833,1068.967,1076.545C1005.645,1109.257,879.001,1131.014,815.678,1141.893L752.356,1152.771" id="my-svg-L_Check_Stop_0" class="edge-thickness-normal edge-pattern-solid edge-thickness-normal edge-pattern-solid flowchart-link" style=";" data-edge="true" data-et="edge" data-id="L_Check_Stop_0" data-points="W3sieCI6NzQ1LjEyMTk1Mzc0NjY4NDMsInkiOjI4Mi42NjcxMDg3NTMzMTU2M30seyJ4IjoxMTMyLjI4OTA2MjUsInkiOjM4MS41fSx7IngiOjExMzIuMjg5MDYyNSwieSI6NDg4LjV9LHsieCI6MTEzMi4yODkwNjI1LCJ5Ijo1OTUuNX0seyJ4IjoxMTMyLjI4OTA2MjUsInkiOjcxMC41fSx7IngiOjExMzIuMjg5MDYyNSwieSI6ODI1LjV9LHsieCI6MTEzMi4yODkwNjI1LCJ5Ijo5NTYuNX0seyJ4IjoxMTMyLjI4OTA2MjUsInkiOjEwODcuNX0seyJ4Ijo3NDguNDE0MDYyNSwieSI6MTE1My40NDg1ODI5MzA3NjE0fV0=" data-look="classic" marker-end="url(#my-svg_flowchart-v2-pointEnd)"/></g><g class="edgeLabels"><g class="edgeLabel"><g class="label" data-id="L_Start_Request_0" transform="translate(0, 0)"><text y="-10.1" text-anchor="middle"><tspan class="text-outer-tspan row" x="0" y="-0.1em" dy="1.1em" text-anchor="middle"/></text></g></g><g><rect class="background" style="stroke: none"/></g><g class="edgeLabel"><g class="label" data-id="L_Request_Check_0" transform="translate(0, 0)"><text y="-10.1" text-anchor="middle"><tspan class="text-outer-tspan row" x="0" y="-0.1em" dy="1.1em" text-anchor="middle"/></text></g></g><g><rect class="background" style="stroke: none"/></g><g class="edgeLabel" transform="translate(110, 381.5)"><g class="label" data-id="L_Check_Done_0" transform="translate(-0.046875, -10.5)"><g><rect class="background" style="" x="-52.6875" y="0" width="105.46875" height="21"/><text y="-10.1" text-anchor="middle" style=""><tspan class="text-outer-tspan row" x="0" y="-0.1em" dy="1.1em" text-anchor="middle"><tspan font-style="normal" class="text-inner-tspan" font-weight="normal">完整</tspan><tspan font-style="normal" class="text-inner-tspan" font-weight="normal"> message</tspan></tspan></text></g></g></g><g class="edgeLabel" transform="translate(333.5, 381.5)"><g class="label" data-id="L_Check_L1_0" transform="translate(0, -10.5)"><g><rect class="background" style="" x="-34" y="0" width="68" height="21"/><text y="-10.1" text-anchor="middle" style=""><tspan class="text-outer-tspan row" x="0" y="-0.1em" dy="1.1em" text-anchor="middle"><tspan font-style="normal" class="text-inner-tspan" font-weight="normal">输出截断</tspan></tspan></text></g></g></g><g class="edgeLabel" transform="translate(221.75, 595.5)"><g class="label" data-id="L_L1_L2_0" transform="translate(0, -10.5)"><g><rect class="background" style="" x="-10" y="0" width="20" height="21"/><text y="-10.1" text-anchor="middle" style=""><tspan class="text-outer-tspan row" x="0" y="-0.1em" dy="1.1em" text-anchor="middle"><tspan font-style="normal" class="text-inner-tspan" font-weight="normal">是</tspan></tspan></text></g></g></g><g class="edgeLabel" transform="translate(470.1640625, 595.5)"><g class="label" data-id="L_L1_L3_0" transform="translate(0, -10.5)"><g><rect class="background" style="" x="-10" y="0" width="20" height="21"/><text y="-10.1" text-anchor="middle" style=""><tspan class="text-outer-tspan row" x="0" y="-0.1em" dy="1.1em" text-anchor="middle"><tspan font-style="normal" class="text-inner-tspan" font-weight="normal">否</tspan></tspan></text></g></g></g><g class="edgeLabel" transform="translate(365.7890625, 956.5)"><g class="label" data-id="L_L3_Stop_0" transform="translate(0, -10.5)"><g><rect class="background" style="" x="-10" y="0" width="20" height="21"/><text y="-10.1" text-anchor="middle" style=""><tspan class="text-outer-tspan row" x="0" y="-0.1em" dy="1.1em" text-anchor="middle"><tspan font-style="normal" class="text-inner-tspan" font-weight="normal">否</tspan></tspan></text></g></g></g><g class="edgeLabel" transform="translate(540.4140625, 825.5)"><g class="label" data-id="L_L3_L4_0" transform="translate(0, -10.5)"><g><rect class="background" style="" x="-10" y="0" width="20" height="21"/><text y="-10.1" text-anchor="middle" style=""><tspan class="text-outer-tspan row" x="0" y="-0.1em" dy="1.1em" text-anchor="middle"><tspan font-style="normal" class="text-inner-tspan" font-weight="normal">是</tspan></tspan></text></g></g></g><g class="edgeLabel" transform="translate(392.88794, 1103.35187)"><g class="label" data-id="L_L4_L5_0" transform="translate(0, -10.5)"><g><rect class="background" style="" x="-10" y="0" width="20" height="21"/><text y="-10.1" text-anchor="middle" style=""><tspan class="text-outer-tspan row" x="0" y="-0.1em" dy="1.1em" text-anchor="middle"><tspan font-style="normal" class="text-inner-tspan" font-weight="normal">是</tspan></tspan></text></g></g></g><g class="edgeLabel" transform="translate(622.50048, 1078.00645)"><g class="label" data-id="L_L4_Stop_0" transform="translate(0, -10.5)"><g><rect class="background" style="" x="-10" y="0" width="20" height="21"/><text y="-10.1" text-anchor="middle" style=""><tspan class="text-outer-tspan row" x="0" y="-0.1em" dy="1.1em" text-anchor="middle"><tspan font-style="normal" class="text-inner-tspan" font-weight="normal">否</tspan></tspan></text></g></g></g><g class="edgeLabel" transform="translate(770.2890625, 595.5)"><g class="label" data-id="L_Check_C1_0" transform="translate(0, -10.5)"><g><rect class="background" style="" x="-42" y="0" width="84" height="21"/><text y="-10.1" text-anchor="middle" style=""><tspan class="text-outer-tspan row" x="0" y="-0.1em" dy="1.1em" text-anchor="middle"><tspan font-style="normal" class="text-inner-tspan" font-weight="normal">上下文超限</tspan></tspan></text></g></g></g><g class="edgeLabel" transform="translate(629.53429, 1098.26837)"><g class="label" data-id="L_C1_C2_0" transform="translate(0, -10.5)"><g><rect class="background" style="" x="-10" y="0" width="20" height="21"/><text y="-10.1" text-anchor="middle" style=""><tspan class="text-outer-tspan row" x="0" y="-0.1em" dy="1.1em" text-anchor="middle"><tspan font-style="normal" class="text-inner-tspan" font-weight="normal">否</tspan></tspan></text></g></g></g><g class="edgeLabel" transform="translate(847.74813, 1092.40637)"><g class="label" data-id="L_C1_Stop_0" transform="translate(0, -10.5)"><g><rect class="background" style="" x="-10" y="0" width="20" height="21"/><text y="-10.1" text-anchor="middle" style=""><tspan class="text-outer-tspan row" x="0" y="-0.1em" dy="1.1em" text-anchor="middle"><tspan font-style="normal" class="text-inner-tspan" font-weight="normal">是</tspan></tspan></text></g></g></g><g class="edgeLabel" transform="translate(1001.7890625, 595.5)"><g class="label" data-id="L_Check_R1_0" transform="translate(-0.05078125, -10.5)"><g><rect class="background" style="" x="-35.3671875" y="0" width="70.8359375" height="21"/><text y="-10.1" text-anchor="middle" style=""><tspan class="text-outer-tspan row" x="0" y="-0.1em" dy="1.1em" text-anchor="middle"><tspan font-style="normal" class="text-inner-tspan" font-weight="normal">429</tspan><tspan font-style="normal" class="text-inner-tspan" font-weight="normal"> /</tspan><tspan font-style="normal" class="text-inner-tspan" font-weight="normal"> 529</tspan></tspan></text></g></g></g><g class="edgeLabel" transform="translate(983.42848, 1088.97307)"><g class="label" data-id="L_R1_R2_0" transform="translate(0, -10.5)"><g><rect class="background" style="" x="-10" y="0" width="20" height="21"/><text y="-10.1" text-anchor="middle" style=""><tspan class="text-outer-tspan row" x="0" y="-0.1em" dy="1.1em" text-anchor="middle"><tspan font-style="normal" class="text-inner-tspan" font-weight="normal">是</tspan></tspan></text></g></g></g><g class="edgeLabel" transform="translate(1052.0390625, 1087.5)"><g class="label" data-id="L_R1_Stop_0" transform="translate(0, -10.5)"><g><rect class="background" style="" x="-10" y="0" width="20" height="21"/><text y="-10.1" text-anchor="middle" style=""><tspan class="text-outer-tspan row" x="0" y="-0.1em" dy="1.1em" text-anchor="middle"><tspan font-style="normal" class="text-inner-tspan" font-weight="normal">否</tspan></tspan></text></g></g></g><g class="edgeLabel" transform="translate(1132.2890625, 710.5)"><g class="label" data-id="L_Check_Stop_0" transform="translate(0, -10.5)"><g><rect class="background" style="" x="-34" y="0" width="68" height="21"/><text y="-10.1" text-anchor="middle" style=""><tspan class="text-outer-tspan row" x="0" y="-0.1em" dy="1.1em" text-anchor="middle"><tspan font-style="normal" class="text-inner-tspan" font-weight="normal">普通错误</tspan></tspan></text></g></g></g></g><g class="nodes"><g class="node default" id="my-svg-flowchart-Start-0" data-look="classic" transform="translate(681.7890625, 24)"><g class="basic label-container outer-path"><path d="M-11.5 -16 C-6.054986024362566 -16, -0.6099720487251314 -16, 11.5 -16 C11.5 -16, 11.5 -16, 11.499999999999998 -16 C11.873024923691316 -15.988037816746187, 12.246049847382634 -15.976075633492373, 12.525123519691405 -15.967126284005381 C12.914577126397468 -15.929556162952936, 13.30403073310353 -15.891986041900493, 13.546034586952095 -15.868640221171939 C13.804367136571326 -15.826875017948344, 14.062699686190557 -15.78510981472475, 14.558538059221954 -15.704946511857047 C14.915862470879794 -15.623389546655845, 15.273186882537635 -15.541832581454644, 15.558473342552116 -15.476717808624471 C15.823710624060828 -15.397996775731587, 16.08894790556954 -15.319275742838702, 16.54173148837793 -15.184891952170698 C16.85898320978662 -15.068140386049535, 17.17623493119531 -14.951388819928374, 17.504272078069985 -14.830668117536348 C17.751884550643375 -14.721057421091132, 17.99949702321677 -14.611446724645917, 18.44213982588093 -14.415501886438706 C18.706205527762794 -14.277738978909092, 18.970271229644663 -14.139976071379476, 19.351480832063 -13.941099265974232 C19.658817267491873 -13.754790112707882, 19.966153702920742 -13.56848095944153, 20.228558419368778 -13.409409678269451 C20.47290543282285 -13.238963779295624, 20.71725244627692 -13.068517880321794, 21.069768487859456 -12.822617949887306 C21.267891594967274 -12.664620044246123, 21.466014702075093 -12.50662213860494, 21.871654324924613 -12.183135333906153 C22.040187817207993 -12.030077675366236, 22.208721309491377 -11.877020016826322, 22.630920809655784 -11.493589601563642 C22.870301273509885 -11.246409619132697, 23.10968173736398 -10.99922963670175, 23.344447953205048 -10.756814244181072 C23.604058982072896 -10.451860357386874, 23.863670010940748 -10.146906470592674, 24.00930371948848 -9.975836829739738 C24.14930581981094 -9.788246769761358, 24.289307920133407 -9.60065670978298, 24.62275607355129 -9.153866561954718 C24.785084536685346 -8.904486451285102, 24.9474129998194 -8.655106340615488, 25.182284208085537 -8.294281092968403 C25.3135808051323 -8.06115068968974, 25.444877402179063 -7.828020286411076, 25.685588901968003 -7.400612643853364 C25.842402892650306 -7.074985036919663, 25.99921688333261 -6.74935742998596, 26.130601968252996 -6.476533489958305 C26.239989264536888 -6.206344753277593, 26.34937656082078 -5.936156016596881, 26.515494752796165 -5.52584087074093 C26.63480846068407 -5.166486992640296, 26.754122168571975 -4.8071331145396625, 26.83868564858657 -4.552441386096524 C26.920672597314834 -4.239789617227303, 27.002659546043095 -3.927137848358082, 27.098846594909176 -3.560334943301032 C27.160214361716744 -3.245224430826291, 27.221582128524307 -2.9301139183515503, 27.2949085346312 -2.5535983205340735 C27.330511494266467 -2.277468796202531, 27.366114453901737 -2.0013392718709886, 27.42606580718717 -1.536368414522911 C27.442278668136954 -1.2838400184442158, 27.45849152908674 -1.0313116223655205, 27.491779459211006 -0.5128252411464826 C27.491779459211006 -0.19757195999784005, 27.491779459211006 0.11768132115080254, 27.491779459211006 0.5128252411464788 C27.47255077897617 0.8123274569153733, 27.453322098741335 1.111829672684268, 27.42606580718717 1.5363684145229002 C27.393563163522106 1.788452500416203, 27.361060519857038 2.040536586309506, 27.294908534631205 2.5535983205340624 C27.225186233932156 2.911607598810191, 27.15546393323311 3.269616877086319, 27.098846594909176 3.5603349433010285 C27.021579799939698 3.854986720160423, 26.94431300497022 4.149638497019819, 26.83868564858657 4.552441386096513 C26.76176869102601 4.784103007216001, 26.68485173346545 5.015764628335488, 26.515494752796165 5.525840870740919 C26.38568096839519 5.846483427990114, 26.255867183994216 6.167125985239308, 26.130601968253 6.4765334899583005 C26.03538635331446 6.674250751665967, 25.940170738375926 6.871968013373634, 25.685588901968003 7.400612643853361 C25.57384171869851 7.5990310833776755, 25.46209453542902 7.79744952290199, 25.18228420808554 8.294281092968399 C24.988771742117386 8.591568206068436, 24.795259276149228 8.888855319168474, 24.622756073551297 9.15386656195471 C24.377882324205963 9.481975077619964, 24.13300857486063 9.81008359328522, 24.00930371948848 9.975836829739734 C23.86066344854679 10.150438149858857, 23.712023177605104 10.325039469977982, 23.344447953205055 10.756814244181063 C23.082351886194804 11.027449951856438, 22.820255819184553 11.298085659531813, 22.630920809655784 11.493589601563638 C22.399678233192105 11.703597991164653, 22.16843565672843 11.913606380765668, 21.871654324924627 12.183135333906142 C21.56376188979054 12.428671357563776, 21.25586945465646 12.67420738122141, 21.06976848785946 12.822617949887304 C20.769580414782286 13.0320161547337, 20.469392341705113 13.241414359580094, 20.228558419368788 13.409409678269446 C20.046603209384656 13.51971199584933, 19.864647999400525 13.630014313429212, 19.351480832063004 13.94109926597423 C19.03159637402273 14.107982782838066, 18.71171191598246 14.274866299701904, 18.442139825880933 14.415501886438705 C18.220606563479663 14.513568090153004, 17.999073301078393 14.611634293867306, 17.50427207806999 14.830668117536346 C17.21624663222368 14.936664144085825, 16.928221186377364 15.042660170635303, 16.54173148837794 15.184891952170695 C16.33837011725488 15.2452485396544, 16.135008746131813 15.305605127138106, 15.558473342552134 15.476717808624468 C15.163675230342358 15.566827901437899, 14.768877118132583 15.656937994251331, 14.558538059221961 15.704946511857045 C14.269290205077262 15.75170986176455, 13.980042350932562 15.798473211672054, 13.546034586952105 15.868640221171937 C13.225336219273043 15.89957760700572, 12.90463785159398 15.930514992839502, 12.525123519691405 15.967126284005381 C12.278943688876053 15.975020792019658, 12.032763858060699 15.982915300033934, 11.500000000000004 16 C11.500000000000002 16, 11.5 16, 11.5 16 C3.309337140873067 16, -4.881325718253866 16, -11.499999999999996 16 C-11.73164258110096 15.992571673289024, -11.963285162201924 15.985143346578047, -12.5251235196914 15.967126284005381 C-12.927209210543749 15.928337560987648, -13.3292949013961 15.889548837969915, -13.5460345869521 15.868640221171937 C-13.804824176739878 15.826801127238292, -14.063613766527654 15.784962033304646, -14.558538059221956 15.704946511857045 C-14.858040167886896 15.636587109988183, -15.157542276551839 15.56822770811932, -15.558473342552112 15.476717808624471 C-15.84815102913578 15.390742991795644, -16.137828715719447 15.304768174966819, -16.541731488377923 15.184891952170702 C-16.914586353949005 15.047677915007949, -17.28744121952009 14.910463877845194, -17.504272078069988 14.830668117536348 C-17.851453748242612 14.676981090929257, -18.198635418415236 14.523294064322167, -18.44213982588093 14.415501886438708 C-18.774834981767857 14.241935036713915, -19.107530137654784 14.068368186989122, -19.351480832063 13.941099265974234 C-19.529488507825597 13.83318996683773, -19.707496183588194 13.725280667701226, -20.228558419368767 13.409409678269457 C-20.528634433764225 13.200089640708486, -20.828710448159683 12.990769603147516, -21.069768487859456 12.822617949887308 C-21.31389841630754 12.627930828520194, -21.558028344755627 12.43324370715308, -21.871654324924613 12.183135333906154 C-22.14530595246435 11.934612166199866, -22.41895758000409 11.686088998493577, -22.630920809655777 11.493589601563649 C-22.858938022098226 11.258143109155522, -23.086955234540675 11.022696616747398, -23.344447953205048 10.756814244181069 C-23.513923853923384 10.557738207745373, -23.68339975464172 10.358662171309678, -24.009303719488475 9.97583682973974 C-24.16371785033774 9.768935961818439, -24.318131981187005 9.562035093897139, -24.62275607355129 9.15386656195472 C-24.841442009072516 8.817906239598098, -25.06012794459374 8.481945917241479, -25.182284208085534 8.29428109296841 C-25.36580419209873 7.968422777939485, -25.549324176111924 7.64256446291056, -25.685588901968 7.400612643853366 C-25.80778920433751 7.146861101315469, -25.92998950670702 6.893109558777572, -26.130601968252996 6.476533489958307 C-26.254404873374646 6.170737920741493, -26.3782077784963 5.864942351524679, -26.515494752796165 5.525840870740931 C-26.59175207039122 5.296165980098184, -26.668009387986277 5.066491089455437, -26.83868564858657 4.552441386096519 C-26.92914601390027 4.207476807385059, -27.019606379213965 3.8625122286735993, -27.098846594909176 3.5603349433010343 C-27.16458957662078 3.2227586269960566, -27.230332558332382 2.885182310691079, -27.2949085346312 2.5535983205340753 C-27.33920357682077 2.2100547203572405, -27.383498619010332 1.8665111201804057, -27.42606580718717 1.5363684145229202 C-27.44322264255805 1.269136854873202, -27.46037947792893 1.0019052952234837, -27.491779459211006 0.5128252411464846 C-27.491779459211006 0.14137018453767763, -27.491779459211006 -0.23008487207112938, -27.491779459211006 -0.5128252411464769 C-27.469953268853974 -0.8527857737410283, -27.44812707849694 -1.1927463063355797, -27.42606580718717 -1.5363684145228982 C-27.39677414221396 -1.7635487837616255, -27.367482477240753 -1.9907291530003526, -27.294908534631205 -2.5535983205340678 C-27.255123880863312 -2.757884109142636, -27.21533922709542 -2.9621698977512043, -27.098846594909176 -3.5603349433010267 C-27.046384480190103 -3.7603957239492085, -26.993922365471025 -3.9604565045973903, -26.838685648586573 -4.552441386096511 C-26.725562235761316 -4.8931510817580275, -26.61243882293606 -5.233860777419543, -26.515494752796172 -5.525840870740911 C-26.420915509303327 -5.759453430733513, -26.326336265810482 -5.993065990726114, -26.130601968253 -6.476533489958299 C-26.00777118051213 -6.731594248860053, -25.88494039277126 -6.986655007761807, -25.685588901968003 -7.400612643853359 C-25.544979701029 -7.650278518346096, -25.404370500089996 -7.899944392838833, -25.182284208085537 -8.294281092968404 C-25.02946428599599 -8.52905353119288, -24.87664436390644 -8.763825969417352, -24.622756073551294 -9.153866561954715 C-24.398935452789225 -9.453765803297863, -24.175114832027155 -9.75366504464101, -24.00930371948848 -9.975836829739734 C-23.860306215333246 -10.150857776318636, -23.71130871117801 -10.325878722897537, -23.344447953205055 -10.756814244181063 C-23.194290631182856 -10.911864007314394, -23.044133309160657 -11.066913770447723, -22.63092080965579 -11.493589601563633 C-22.377042192283703 -11.724155444600843, -22.12316357491161 -11.954721287638055, -21.871654324924627 -12.18313533390614 C-21.55880421366927 -12.432624972341188, -21.245954102413915 -12.682114610776235, -21.069768487859463 -12.822617949887302 C-20.795904714747138 -13.013653462638796, -20.522040941634817 -13.204688975390289, -20.228558419368788 -13.409409678269444 C-19.94990654069971 -13.578330084658841, -19.671254662030638 -13.74725049104824, -19.351480832063007 -13.941099265974229 C-19.11255333230082 -14.065747589559795, -18.873625832538636 -14.190395913145359, -18.442139825880936 -14.415501886438705 C-18.197479183131385 -14.523805895383825, -17.952818540381838 -14.632109904328948, -17.504272078069995 -14.830668117536344 C-17.169594248271945 -14.953832652629972, -16.8349164184739 -15.076997187723597, -16.54173148837794 -15.184891952170695 C-16.23746522619383 -15.275196581660737, -15.933198964009721 -15.365501211150779, -15.558473342552134 -15.476717808624466 C-15.299972661752898 -15.535718902142303, -15.041471980953661 -15.59471999566014, -14.558538059221963 -15.704946511857043 C-14.302583951322529 -15.746327187068472, -14.046629843423094 -15.787707862279902, -13.546034586952107 -15.868640221171937 C-13.330120055343828 -15.889469236360972, -13.11420552373555 -15.910298251550007, -12.525123519691407 -15.967126284005381 C-12.12254290991738 -15.980036260585214, -11.71996230014335 -15.992946237165047, -11.500000000000005 -16 C-11.500000000000004 -16, -11.500000000000002 -16, -11.5 -16" stroke="none" stroke-width="0" fill="#eee" style=""/><path d="M-11.5 -16 C-2.8416568010086554 -16, 5.816686397982689 -16, 11.5 -16 M-11.5 -16 C-6.335969893774318 -16, -1.1719397875486361 -16, 11.5 -16 M11.5 -16 C11.5 -16, 11.5 -16, 11.499999999999998 -16 M11.5 -16 C11.5 -16, 11.499999999999998 -16, 11.499999999999998 -16 M11.499999999999998 -16 C11.861073429159344 -15.988421077913655, 12.22214685831869 -15.976842155827308, 12.525123519691405 -15.967126284005381 M11.499999999999998 -16 C11.838525788709603 -15.989144136856558, 12.17705157741921 -15.978288273713115, 12.525123519691405 -15.967126284005381 M12.525123519691405 -15.967126284005381 C12.88915513684296 -15.932008591710845, 13.253186753994516 -15.896890899416308, 13.546034586952095 -15.868640221171939 M12.525123519691405 -15.967126284005381 C12.82797781115689 -15.937910294743281, 13.130832102622374 -15.90869430548118, 13.546034586952095 -15.868640221171939 M13.546034586952095 -15.868640221171939 C13.75304558894086 -15.835172287764692, 13.960056590929627 -15.801704354357446, 14.558538059221954 -15.704946511857047 M13.546034586952095 -15.868640221171939 C13.950092277749834 -15.803315307237952, 14.354149968547574 -15.737990393303965, 14.558538059221954 -15.704946511857047 M14.558538059221954 -15.704946511857047 C14.812695401659687 -15.646936756977292, 15.066852744097417 -15.588927002097536, 15.558473342552116 -15.476717808624471 M14.558538059221954 -15.704946511857047 C14.910480249295368 -15.624618003610212, 15.262422439368782 -15.544289495363378, 15.558473342552116 -15.476717808624471 M15.558473342552116 -15.476717808624471 C15.927719333224958 -15.367127536804528, 16.2969653238978 -15.257537264984585, 16.54173148837793 -15.184891952170698 M15.558473342552116 -15.476717808624471 C15.901386122962194 -15.374943095384676, 16.244298903372272 -15.27316838214488, 16.54173148837793 -15.184891952170698 M16.54173148837793 -15.184891952170698 C16.910576621910348 -15.04915353346373, 17.279421755442762 -14.913415114756763, 17.504272078069985 -14.830668117536348 M16.54173148837793 -15.184891952170698 C16.80465739425806 -15.088132788346378, 17.067583300138192 -14.99137362452206, 17.504272078069985 -14.830668117536348 M17.504272078069985 -14.830668117536348 C17.77005622123406 -14.713013361564093, 18.035840364398137 -14.595358605591837, 18.44213982588093 -14.415501886438706 M17.504272078069985 -14.830668117536348 C17.772434078067217 -14.711960754880671, 18.04059607806445 -14.593253392224993, 18.44213982588093 -14.415501886438706 M18.44213982588093 -14.415501886438706 C18.642883158460773 -14.310774218414043, 18.843626491040617 -14.20604655038938, 19.351480832063 -13.941099265974232 M18.44213982588093 -14.415501886438706 C18.71750223471296 -14.271845494129076, 18.992864643544994 -14.128189101819444, 19.351480832063 -13.941099265974232 M19.351480832063 -13.941099265974232 C19.552277264179125 -13.819375288814623, 19.75307369629525 -13.697651311655015, 20.228558419368778 -13.409409678269451 M19.351480832063 -13.941099265974232 C19.662077315375615 -13.752813852522587, 19.972673798688234 -13.56452843907094, 20.228558419368778 -13.409409678269451 M20.228558419368778 -13.409409678269451 C20.495527582869002 -13.223183546720517, 20.76249674636923 -13.036957415171582, 21.069768487859456 -12.822617949887306 M20.228558419368778 -13.409409678269451 C20.48590367837902 -13.229896765880618, 20.743248937389268 -13.050383853491784, 21.069768487859456 -12.822617949887306 M21.069768487859456 -12.822617949887306 C21.3033089857313 -12.636375617608165, 21.536849483603138 -12.450133285329024, 21.871654324924613 -12.183135333906153 M21.069768487859456 -12.822617949887306 C21.266339651968806 -12.665857677488464, 21.462910816078153 -12.509097405089623, 21.871654324924613 -12.183135333906153 M21.871654324924613 -12.183135333906153 C22.05394341014351 -12.017585209815246, 22.236232495362408 -11.85203508572434, 22.630920809655784 -11.493589601563642 M21.871654324924613 -12.183135333906153 C22.0638109654182 -12.00862375719598, 22.255967605911785 -11.834112180485809, 22.630920809655784 -11.493589601563642 M22.630920809655784 -11.493589601563642 C22.897377394025067 -11.218451301709932, 23.16383397839435 -10.943313001856222, 23.344447953205048 -10.756814244181072 M22.630920809655784 -11.493589601563642 C22.8636842270015 -11.253242262922225, 23.096447644347215 -11.012894924280808, 23.344447953205048 -10.756814244181072 M23.344447953205048 -10.756814244181072 C23.551094054445947 -10.514075975167247, 23.757740155686847 -10.271337706153421, 24.00930371948848 -9.975836829739738 M23.344447953205048 -10.756814244181072 C23.514155546855214 -10.557466048043949, 23.68386314050538 -10.358117851906824, 24.00930371948848 -9.975836829739738 M24.00930371948848 -9.975836829739738 C24.173212744826753 -9.756213668205845, 24.33712177016503 -9.536590506671953, 24.62275607355129 -9.153866561954718 M24.00930371948848 -9.975836829739738 C24.219814263327773 -9.693771878900154, 24.430324807167064 -9.41170692806057, 24.62275607355129 -9.153866561954718 M24.62275607355129 -9.153866561954718 C24.81813858437791 -8.853706557774725, 25.013521095204528 -8.553546553594732, 25.182284208085537 -8.294281092968403 M24.62275607355129 -9.153866561954718 C24.752161082358054 -8.955065718317192, 24.881566091164817 -8.756264874679665, 25.182284208085537 -8.294281092968403 M25.182284208085537 -8.294281092968403 C25.335493123324337 -8.022243149876957, 25.488702038563137 -7.750205206785511, 25.685588901968003 -7.400612643853364 M25.182284208085537 -8.294281092968403 C25.380763217548857 -7.9418615134872015, 25.579242227012173 -7.589441934006001, 25.685588901968003 -7.400612643853364 M25.685588901968003 -7.400612643853364 C25.787689771122476 -7.188598004445467, 25.88979064027695 -6.976583365037571, 26.130601968252996 -6.476533489958305 M25.685588901968003 -7.400612643853364 C25.80751535548548 -7.147429754316136, 25.92944180900296 -6.894246864778907, 26.130601968252996 -6.476533489958305 M26.130601968252996 -6.476533489958305 C26.21267551099714 -6.273810252596269, 26.294749053741285 -6.071087015234235, 26.515494752796165 -5.52584087074093 M26.130601968252996 -6.476533489958305 C26.241362561119526 -6.202952684167597, 26.352123153986053 -5.929371878376889, 26.515494752796165 -5.52584087074093 M26.515494752796165 -5.52584087074093 C26.588431681143888 -5.306166463478973, 26.661368609491607 -5.086492056217016, 26.83868564858657 -4.552441386096524 M26.515494752796165 -5.52584087074093 C26.639650257894655 -5.151904270877642, 26.76380576299314 -4.777967671014355, 26.83868564858657 -4.552441386096524 M26.83868564858657 -4.552441386096524 C26.89396277014814 -4.341645764326228, 26.94923989170971 -4.130850142555933, 27.098846594909176 -3.560334943301032 M26.83868564858657 -4.552441386096524 C26.9417494853876 -4.159414308224765, 27.04481332218863 -3.766387230353006, 27.098846594909176 -3.560334943301032 M27.098846594909176 -3.560334943301032 C27.13848295643699 -3.3568106040036767, 27.178119317964807 -3.1532862647063213, 27.2949085346312 -2.5535983205340735 M27.098846594909176 -3.560334943301032 C27.15768648045049 -3.2582045668606066, 27.2165263659918 -2.956074190420181, 27.2949085346312 -2.5535983205340735 M27.2949085346312 -2.5535983205340735 C27.33093916001067 -2.2741519051426744, 27.366969785390136 -1.9947054897512748, 27.42606580718717 -1.536368414522911 M27.2949085346312 -2.5535983205340735 C27.329347684314232 -2.286495076371801, 27.363786833997267 -2.0193918322095277, 27.42606580718717 -1.536368414522911 M27.42606580718717 -1.536368414522911 C27.449044314552825 -1.1784596143855575, 27.47202282191848 -0.8205508142482039, 27.491779459211006 -0.5128252411464826 M27.42606580718717 -1.536368414522911 C27.441663892011256 -1.2934156528403558, 27.457261976835337 -1.0504628911578004, 27.491779459211006 -0.5128252411464826 M27.491779459211006 -0.5128252411464826 C27.491779459211006 -0.28708682565490995, 27.491779459211006 -0.06134841016333725, 27.491779459211006 0.5128252411464788 M27.491779459211006 -0.5128252411464826 C27.491779459211006 -0.21785835008125742, 27.491779459211006 0.0771085409839678, 27.491779459211006 0.5128252411464788 M27.491779459211006 0.5128252411464788 C27.477201798843545 0.7398840682453225, 27.462624138476087 0.9669428953441663, 27.42606580718717 1.5363684145229002 M27.491779459211006 0.5128252411464788 C27.47482826121214 0.7768538327396008, 27.45787706321327 1.0408824243327228, 27.42606580718717 1.5363684145229002 M27.42606580718717 1.5363684145229002 C27.39326486315272 1.7907660591750865, 27.360463919118267 2.045163703827273, 27.294908534631205 2.5535983205340624 M27.42606580718717 1.5363684145229002 C27.39821033319515 1.7524099701195373, 27.370354859203122 1.9684515257161743, 27.294908534631205 2.5535983205340624 M27.294908534631205 2.5535983205340624 C27.231675255423735 2.8782878449061178, 27.16844197621627 3.2029773692781727, 27.098846594909176 3.5603349433010285 M27.294908534631205 2.5535983205340624 C27.2492213517043 2.7881923488741926, 27.20353416877739 3.0227863772143224, 27.098846594909176 3.5603349433010285 M27.098846594909176 3.5603349433010285 C27.01724606901735 3.871513114418189, 26.935645543125528 4.182691285535349, 26.83868564858657 4.552441386096513 M27.098846594909176 3.5603349433010285 C27.01962527119274 3.8624401853706796, 26.94040394747631 4.164545427440331, 26.83868564858657 4.552441386096513 M26.83868564858657 4.552441386096513 C26.76322272213732 4.779723697177124, 26.687759795688073 5.0070060082577355, 26.515494752796165 5.525840870740919 M26.83868564858657 4.552441386096513 C26.733944780736405 4.8679041918702195, 26.62920391288624 5.183366997643926, 26.515494752796165 5.525840870740919 M26.515494752796165 5.525840870740919 C26.433232194019727 5.729030981357105, 26.350969635243285 5.9322210919732905, 26.130601968253 6.4765334899583005 M26.515494752796165 5.525840870740919 C26.41965096497543 5.762576879671719, 26.32380717715469 5.999312888602519, 26.130601968253 6.4765334899583005 M26.130601968253 6.4765334899583005 C25.958430342540506 6.834051554632942, 25.78625871682801 7.191569619307583, 25.685588901968003 7.400612643853361 M26.130601968253 6.4765334899583005 C26.03842620896518 6.667938426364758, 25.94625044967736 6.859343362771217, 25.685588901968003 7.400612643853361 M25.685588901968003 7.400612643853361 C25.549119508369287 7.6429278712124695, 25.412650114770567 7.8852430985715785, 25.18228420808554 8.294281092968399 M25.685588901968003 7.400612643853361 C25.54729092826081 7.646174700358881, 25.408992954553618 7.891736756864402, 25.18228420808554 8.294281092968399 M25.18228420808554 8.294281092968399 C25.01212720451894 8.555687943999855, 24.84197020095234 8.817094795031311, 24.622756073551297 9.15386656195471 M25.18228420808554 8.294281092968399 C25.06378194231899 8.476332395499721, 24.945279676552442 8.658383698031043, 24.622756073551297 9.15386656195471 M24.622756073551297 9.15386656195471 C24.467153927381272 9.362359262175405, 24.31155178121125 9.5708519623961, 24.00930371948848 9.975836829739734 M24.622756073551297 9.15386656195471 C24.47653438024983 9.349790309908375, 24.330312686948364 9.54571405786204, 24.00930371948848 9.975836829739734 M24.00930371948848 9.975836829739734 C23.766573149307106 10.260961969235488, 23.523842579125734 10.546087108731244, 23.344447953205055 10.756814244181063 M24.00930371948848 9.975836829739734 C23.850925750706356 10.161876603832939, 23.69254778192423 10.347916377926143, 23.344447953205055 10.756814244181063 M23.344447953205055 10.756814244181063 C23.089963569232033 11.019590264189699, 22.83547918525901 11.282366284198334, 22.630920809655784 11.493589601563638 M23.344447953205055 10.756814244181063 C23.10733055955342 11.001657420826442, 22.870213165901788 11.24650059747182, 22.630920809655784 11.493589601563638 M22.630920809655784 11.493589601563638 C22.33944635270258 11.758298991377012, 22.047971895749377 12.023008381190385, 21.871654324924627 12.183135333906142 M22.630920809655784 11.493589601563638 C22.467990596095248 11.641558510622096, 22.305060382534716 11.789527419680553, 21.871654324924627 12.183135333906142 M21.871654324924627 12.183135333906142 C21.621597452327947 12.382549035509152, 21.371540579731267 12.581962737112162, 21.06976848785946 12.822617949887304 M21.871654324924627 12.183135333906142 C21.597839503002337 12.401495367870742, 21.324024681080044 12.619855401835345, 21.06976848785946 12.822617949887304 M21.06976848785946 12.822617949887304 C20.868034172079334 12.96333907563774, 20.666299856299208 13.104060201388176, 20.228558419368788 13.409409678269446 M21.06976848785946 12.822617949887304 C20.8887489542114 12.948889340350878, 20.70772942056334 13.07516073081445, 20.228558419368788 13.409409678269446 M20.228558419368788 13.409409678269446 C19.974961816589378 13.563141429173383, 19.721365213809968 13.71687318007732, 19.351480832063004 13.94109926597423 M20.228558419368788 13.409409678269446 C19.977933213000732 13.561340151206958, 19.727308006632672 13.713270624144467, 19.351480832063004 13.94109926597423 M19.351480832063004 13.94109926597423 C19.15763484627358 14.042228592596292, 18.96378886048416 14.143357919218353, 18.442139825880933 14.415501886438705 M19.351480832063004 13.94109926597423 C19.020307112529757 14.113872383327834, 18.68913339299651 14.28664550068144, 18.442139825880933 14.415501886438705 M18.442139825880933 14.415501886438705 C18.093503543313297 14.569832826803525, 17.744867260745657 14.724163767168344, 17.50427207806999 14.830668117536346 M18.442139825880933 14.415501886438705 C18.189780206763505 14.527214003839866, 17.937420587646077 14.638926121241028, 17.50427207806999 14.830668117536346 M17.50427207806999 14.830668117536346 C17.236292100743267 14.929287226372336, 16.96831212341654 15.027906335208327, 16.54173148837794 15.184891952170695 M17.50427207806999 14.830668117536346 C17.207587537454597 14.939850771004641, 16.9109029968392 15.049033424472936, 16.54173148837794 15.184891952170695 M16.54173148837794 15.184891952170695 C16.327928938773233 15.248347426620889, 16.114126389168526 15.311802901071083, 15.558473342552134 15.476717808624468 M16.54173148837794 15.184891952170695 C16.196926813206616 15.287228169844871, 15.852122138035293 15.389564387519048, 15.558473342552134 15.476717808624468 M15.558473342552134 15.476717808624468 C15.168302895453223 15.565771667074682, 14.778132448354313 15.654825525524895, 14.558538059221961 15.704946511857045 M15.558473342552134 15.476717808624468 C15.16255285489597 15.567084076309353, 14.766632367239808 15.657450343994238, 14.558538059221961 15.704946511857045 M14.558538059221961 15.704946511857045 C14.308843746020656 15.745315152007112, 14.059149432819353 15.78568379215718, 13.546034586952105 15.868640221171937 M14.558538059221961 15.704946511857045 C14.194785805559045 15.763755155288408, 13.831033551896128 15.82256379871977, 13.546034586952105 15.868640221171937 M13.546034586952105 15.868640221171937 C13.274915742904343 15.894794729989108, 13.003796898856582 15.920949238806282, 12.525123519691405 15.967126284005381 M13.546034586952105 15.868640221171937 C13.21627383469373 15.900451844346973, 12.886513082435357 15.932263467522011, 12.525123519691405 15.967126284005381 M12.525123519691405 15.967126284005381 C12.179473457770497 15.978210608724154, 11.83382339584959 15.989294933442926, 11.500000000000004 16 M12.525123519691405 15.967126284005381 C12.120863337560714 15.980090121201604, 11.716603155430022 15.993053958397825, 11.500000000000004 16 M11.500000000000004 16 C11.500000000000002 16, 11.500000000000002 16, 11.5 16 M11.500000000000004 16 C11.500000000000002 16, 11.500000000000002 16, 11.5 16 M11.5 16 C6.632051263240136 16, 1.764102526480272 16, -11.499999999999996 16 M11.5 16 C6.47998425428612 16, 1.4599685085722403 16, -11.499999999999996 16 M-11.499999999999996 16 C-11.739324903956637 15.992325316147777, -11.978649807913277 15.984650632295553, -12.5251235196914 15.967126284005381 M-11.499999999999996 16 C-11.735629233406863 15.992443829109122, -11.971258466813728 15.984887658218243, -12.5251235196914 15.967126284005381 M-12.5251235196914 15.967126284005381 C-12.928881865914912 15.928176201935655, -13.332640212138424 15.889226119865928, -13.5460345869521 15.868640221171937 M-12.5251235196914 15.967126284005381 C-12.786266164968435 15.941934167085487, -13.047408810245471 15.916742050165592, -13.5460345869521 15.868640221171937 M-13.5460345869521 15.868640221171937 C-13.839662086068438 15.821168804230071, -14.133289585184777 15.773697387288207, -14.558538059221956 15.704946511857045 M-13.5460345869521 15.868640221171937 C-13.90969246384499 15.80984683584485, -14.273350340737883 15.751053450517762, -14.558538059221956 15.704946511857045 M-14.558538059221956 15.704946511857045 C-14.768684114483715 15.656982046074717, -14.978830169745475 15.609017580292388, -15.558473342552112 15.476717808624471 M-14.558538059221956 15.704946511857045 C-14.821169736450154 15.645002545361569, -15.08380141367835 15.585058578866093, -15.558473342552112 15.476717808624471 M-15.558473342552112 15.476717808624471 C-15.77841283656145 15.411440921288463, -15.998352330570787 15.346164033952455, -16.541731488377923 15.184891952170702 M-15.558473342552112 15.476717808624471 C-15.80563266262271 15.403362219793264, -16.052791982693307 15.330006630962057, -16.541731488377923 15.184891952170702 M-16.541731488377923 15.184891952170702 C-16.89486294862629 15.054936310487868, -17.247994408874657 14.924980668805034, -17.504272078069988 14.830668117536348 M-16.541731488377923 15.184891952170702 C-16.738713838728923 15.112400626356647, -16.935696189079923 15.039909300542595, -17.504272078069988 14.830668117536348 M-17.504272078069988 14.830668117536348 C-17.73694826299983 14.727669272561702, -17.96962444792967 14.624670427587056, -18.44213982588093 14.415501886438708 M-17.504272078069988 14.830668117536348 C-17.73426670332403 14.728856319484535, -17.96426132857808 14.627044521432722, -18.44213982588093 14.415501886438708 M-18.44213982588093 14.415501886438708 C-18.73264885270638 14.263943513223783, -19.02315787953183 14.112385140008858, -19.351480832063 13.941099265974234 M-18.44213982588093 14.415501886438708 C-18.734005432783675 14.263235786266389, -19.025871039686418 14.110969686094071, -19.351480832063 13.941099265974234 M-19.351480832063 13.941099265974234 C-19.614990738418026 13.78135801218572, -19.878500644773048 13.621616758397208, -20.228558419368767 13.409409678269457 M-19.351480832063 13.941099265974234 C-19.693541495938824 13.733740081361121, -20.03560215981465 13.526380896748009, -20.228558419368767 13.409409678269457 M-20.228558419368767 13.409409678269457 C-20.518677962428413 13.207034844103653, -20.808797505488055 13.004660009937847, -21.069768487859456 12.822617949887308 M-20.228558419368767 13.409409678269457 C-20.440482869132275 13.261580356176005, -20.652407318895783 13.113751034082552, -21.069768487859456 12.822617949887308 M-21.069768487859456 12.822617949887308 C-21.275248065219188 12.658753454984117, -21.48072764257892 12.494888960080928, -21.871654324924613 12.183135333906154 M-21.069768487859456 12.822617949887308 C-21.247951460585796 12.680521770786093, -21.426134433312132 12.53842559168488, -21.871654324924613 12.183135333906154 M-21.871654324924613 12.183135333906154 C-22.025604918271192 12.04332147833828, -22.17955551161777 11.903507622770407, -22.630920809655777 11.493589601563649 M-21.871654324924613 12.183135333906154 C-22.05868240697742 12.013281378277673, -22.245710489030234 11.843427422649194, -22.630920809655777 11.493589601563649 M-22.630920809655777 11.493589601563649 C-22.895210967716526 11.220688314740407, -23.159501125777275 10.947787027917165, -23.344447953205048 10.756814244181069 M-22.630920809655777 11.493589601563649 C-22.862160842082513 11.254815282923305, -23.09340087450925 11.016040964282961, -23.344447953205048 10.756814244181069 M-23.344447953205048 10.756814244181069 C-23.556117904324626 10.508174675234592, -23.767787855444205 10.259535106288114, -24.009303719488475 9.97583682973974 M-23.344447953205048 10.756814244181069 C-23.577404725764097 10.483169963517337, -23.810361498323147 10.209525682853604, -24.009303719488475 9.97583682973974 M-24.009303719488475 9.97583682973974 C-24.19834523584081 9.722538419864039, -24.387386752193148 9.469240009988338, -24.62275607355129 9.15386656195472 M-24.009303719488475 9.97583682973974 C-24.168733286594446 9.762215734150097, -24.328162853700416 9.548594638560454, -24.62275607355129 9.15386656195472 M-24.62275607355129 9.15386656195472 C-24.74819803345544 8.96115402565924, -24.873639993359593 8.768441489363763, -25.182284208085534 8.29428109296841 M-24.62275607355129 9.15386656195472 C-24.819925735847526 8.850961013200033, -25.01709539814376 8.548055464445346, -25.182284208085534 8.29428109296841 M-25.182284208085534 8.29428109296841 C-25.304589693596743 8.077115318669893, -25.426895179107948 7.859949544371378, -25.685588901968 7.400612643853366 M-25.182284208085534 8.29428109296841 C-25.34822262077188 7.999640638157449, -25.51416103345823 7.705000183346488, -25.685588901968 7.400612643853366 M-25.685588901968 7.400612643853366 C-25.786344495126034 7.191391498836374, -25.887100088284065 6.982170353819382, -26.130601968252996 6.476533489958307 M-25.685588901968 7.400612643853366 C-25.831675791160908 7.0972600926856, -25.977762680353816 6.793907541517833, -26.130601968252996 6.476533489958307 M-26.130601968252996 6.476533489958307 C-26.24109567720368 6.203611892599584, -26.351589386154366 5.930690295240862, -26.515494752796165 5.525840870740931 M-26.130601968252996 6.476533489958307 C-26.23947123378319 6.207624299254679, -26.34834049931338 5.938715108551051, -26.515494752796165 5.525840870740931 M-26.515494752796165 5.525840870740931 C-26.59301933912213 5.292349168592536, -26.670543925448097 5.058857466444141, -26.83868564858657 4.552441386096519 M-26.515494752796165 5.525840870740931 C-26.613445968799617 5.230827414545411, -26.71139718480307 4.9358139583498915, -26.83868564858657 4.552441386096519 M-26.83868564858657 4.552441386096519 C-26.922340685421695 4.2334284743218715, -27.005995722256824 3.914415562547224, -27.098846594909176 3.5603349433010343 M-26.83868564858657 4.552441386096519 C-26.902850810951 4.307751812643663, -26.96701597331543 4.063062239190806, -27.098846594909176 3.5603349433010343 M-27.098846594909176 3.5603349433010343 C-27.14159707480235 3.3408202643667138, -27.184347554695524 3.1213055854323932, -27.2949085346312 2.5535983205340753 M-27.098846594909176 3.5603349433010343 C-27.16197001135356 3.2362095409979226, -27.22509342779794 2.9120841386948104, -27.2949085346312 2.5535983205340753 M-27.2949085346312 2.5535983205340753 C-27.324639688536877 2.3230093619220655, -27.35437084244255 2.092420403310056, -27.42606580718717 1.5363684145229202 M-27.2949085346312 2.5535983205340753 C-27.321521465979238 2.34719368031641, -27.348134397327275 2.1407890400987455, -27.42606580718717 1.5363684145229202 M-27.42606580718717 1.5363684145229202 C-27.448974742092435 1.1795432616140233, -27.4718836769977 0.8227181087051265, -27.491779459211006 0.5128252411464846 M-27.42606580718717 1.5363684145229202 C-27.45234363018661 1.127070110229672, -27.478621453186054 0.7177718059364241, -27.491779459211006 0.5128252411464846 M-27.491779459211006 0.5128252411464846 C-27.491779459211006 0.18024029892250493, -27.491779459211006 -0.1523446433014748, -27.491779459211006 -0.5128252411464769 M-27.491779459211006 0.5128252411464846 C-27.491779459211006 0.2585359672249056, -27.491779459211006 0.00424669330332661, -27.491779459211006 -0.5128252411464769 M-27.491779459211006 -0.5128252411464769 C-27.469066067409226 -0.8666046523790916, -27.446352675607443 -1.2203840636117063, -27.42606580718717 -1.5363684145228982 M-27.491779459211006 -0.5128252411464769 C-27.468808140758657 -0.8706220681563367, -27.44583682230631 -1.2284188951661965, -27.42606580718717 -1.5363684145228982 M-27.42606580718717 -1.5363684145228982 C-27.37651992524229 -1.9206364909463693, -27.32697404329741 -2.3049045673698405, -27.294908534631205 -2.5535983205340678 M-27.42606580718717 -1.5363684145228982 C-27.386231111279713 -1.8453184497307173, -27.346396415372254 -2.1542684849385365, -27.294908534631205 -2.5535983205340678 M-27.294908534631205 -2.5535983205340678 C-27.22496077405665 -2.912765287619967, -27.155013013482094 -3.271932254705866, -27.098846594909176 -3.5603349433010267 M-27.294908534631205 -2.5535983205340678 C-27.21891667474696 -2.94380046015438, -27.142924814862717 -3.334002599774692, -27.098846594909176 -3.5603349433010267 M-27.098846594909176 -3.5603349433010267 C-27.005717889962757 -3.9154750574977775, -26.912589185016333 -4.270615171694528, -26.838685648586573 -4.552441386096511 M-27.098846594909176 -3.5603349433010267 C-27.024421369280006 -3.8441505847218798, -26.94999614365084 -4.127966226142733, -26.838685648586573 -4.552441386096511 M-26.838685648586573 -4.552441386096511 C-26.710636828912225 -4.9381040291468565, -26.582588009237877 -5.323766672197201, -26.515494752796172 -5.525840870740911 M-26.838685648586573 -4.552441386096511 C-26.724281574028854 -4.8970082308504645, -26.60987749947114 -5.241575075604417, -26.515494752796172 -5.525840870740911 M-26.515494752796172 -5.525840870740911 C-26.426641316351517 -5.745310576623536, -26.337787879906863 -5.964780282506162, -26.130601968253 -6.476533489958299 M-26.515494752796172 -5.525840870740911 C-26.411957179369907 -5.7815806788665896, -26.30841960594364 -6.037320486992269, -26.130601968253 -6.476533489958299 M-26.130601968253 -6.476533489958299 C-25.979505793148498 -6.790287930503041, -25.82840961804399 -7.104042371047783, -25.685588901968003 -7.400612643853359 M-26.130601968253 -6.476533489958299 C-26.032902006973785 -6.67940954999888, -25.935202045694567 -6.882285610039461, -25.685588901968003 -7.400612643853359 M-25.685588901968003 -7.400612643853359 C-25.52165542154847 -7.691693138403186, -25.357721941128933 -7.982773632953012, -25.182284208085537 -8.294281092968404 M-25.685588901968003 -7.400612643853359 C-25.540709115799093 -7.6578613748654405, -25.395829329630185 -7.915110105877522, -25.182284208085537 -8.294281092968404 M-25.182284208085537 -8.294281092968404 C-25.06803880942141 -8.469792704501536, -24.95379341075728 -8.64530431603467, -24.622756073551294 -9.153866561954715 M-25.182284208085537 -8.294281092968404 C-24.997594591828406 -8.578013939645432, -24.812904975571275 -8.861746786322458, -24.622756073551294 -9.153866561954715 M-24.622756073551294 -9.153866561954715 C-24.396784096004957 -9.456648425396148, -24.17081211845862 -9.759430288837581, -24.00930371948848 -9.975836829739734 M-24.622756073551294 -9.153866561954715 C-24.445141521532683 -9.391853880641087, -24.267526969514076 -9.62984119932746, -24.00930371948848 -9.975836829739734 M-24.00930371948848 -9.975836829739734 C-23.766822576755555 -10.260668977561716, -23.524341434022634 -10.545501125383696, -23.344447953205055 -10.756814244181063 M-24.00930371948848 -9.975836829739734 C-23.767672537621916 -10.259670565163944, -23.526041355755353 -10.543504300588156, -23.344447953205055 -10.756814244181063 M-23.344447953205055 -10.756814244181063 C-23.17103734604994 -10.935874933344344, -22.997626738894827 -11.114935622507623, -22.63092080965579 -11.493589601563633 M-23.344447953205055 -10.756814244181063 C-23.07732063700367 -11.032645129719524, -22.810193320802284 -11.308476015257986, -22.63092080965579 -11.493589601563633 M-22.63092080965579 -11.493589601563633 C-22.451791065381297 -11.656270495800413, -22.2726613211068 -11.818951390037196, -21.871654324924627 -12.18313533390614 M-22.63092080965579 -11.493589601563633 C-22.394634470911704 -11.708178602617078, -22.158348132167617 -11.922767603670524, -21.871654324924627 -12.18313533390614 M-21.871654324924627 -12.18313533390614 C-21.665735852025396 -12.347349836322579, -21.459817379126168 -12.511564338739019, -21.069768487859463 -12.822617949887302 M-21.871654324924627 -12.18313533390614 C-21.64761025830692 -12.361804514970759, -21.42356619168921 -12.540473696035379, -21.069768487859463 -12.822617949887302 M-21.069768487859463 -12.822617949887302 C-20.87150135653358 -12.960920517854454, -20.6732342252077 -13.099223085821604, -20.228558419368788 -13.409409678269444 M-21.069768487859463 -12.822617949887302 C-20.779124235371025 -13.025358798636328, -20.488479982882588 -13.228099647385354, -20.228558419368788 -13.409409678269444 M-20.228558419368788 -13.409409678269444 C-19.884875717731077 -13.617752151705963, -19.54119301609337 -13.826094625142481, -19.351480832063007 -13.941099265974229 M-20.228558419368788 -13.409409678269444 C-19.92247101298773 -13.594961662786902, -19.616383606606675 -13.780513647304359, -19.351480832063007 -13.941099265974229 M-19.351480832063007 -13.941099265974229 C-19.032679761850225 -14.107417580102407, -18.71387869163744 -14.273735894230587, -18.442139825880936 -14.415501886438705 M-19.351480832063007 -13.941099265974229 C-19.07558172728562 -14.085035652214781, -18.799682622508236 -14.228972038455334, -18.442139825880936 -14.415501886438705 M-18.442139825880936 -14.415501886438705 C-18.22482151150922 -14.511702257692313, -18.0075031971375 -14.607902628945922, -17.504272078069995 -14.830668117536344 M-18.442139825880936 -14.415501886438705 C-18.14211187399967 -14.548315360723565, -17.842083922118405 -14.681128835008426, -17.504272078069995 -14.830668117536344 M-17.504272078069995 -14.830668117536344 C-17.22980910943123 -14.93167302710328, -16.955346140792464 -15.032677936670217, -16.54173148837794 -15.184891952170695 M-17.504272078069995 -14.830668117536344 C-17.183339049347158 -14.948774438778745, -16.86240602062432 -15.066880760021146, -16.54173148837794 -15.184891952170695 M-16.54173148837794 -15.184891952170695 C-16.261944399043927 -15.267931291652628, -15.982157309709912 -15.350970631134564, -15.558473342552134 -15.476717808624466 M-16.54173148837794 -15.184891952170695 C-16.253722631744623 -15.270371469030126, -15.965713775111302 -15.355850985889557, -15.558473342552134 -15.476717808624466 M-15.558473342552134 -15.476717808624466 C-15.211495639729197 -15.555913205052686, -14.864517936906259 -15.635108601480907, -14.558538059221963 -15.704946511857043 M-15.558473342552134 -15.476717808624466 C-15.181747769992615 -15.562702962197069, -14.805022197433097 -15.648688115769673, -14.558538059221963 -15.704946511857043 M-14.558538059221963 -15.704946511857043 C-14.211072052034519 -15.76112212125998, -13.863606044847073 -15.817297730662917, -13.546034586952107 -15.868640221171937 M-14.558538059221963 -15.704946511857043 C-14.284228650529883 -15.749294729753144, -14.009919241837801 -15.793642947649245, -13.546034586952107 -15.868640221171937 M-13.546034586952107 -15.868640221171937 C-13.223277680031146 -15.89977619181063, -12.900520773110186 -15.930912162449323, -12.525123519691407 -15.967126284005381 M-13.546034586952107 -15.868640221171937 C-13.309337828830834 -15.891474072758395, -13.07264107070956 -15.914307924344856, -12.525123519691407 -15.967126284005381 M-12.525123519691407 -15.967126284005381 C-12.30700224781133 -15.974121008647275, -12.088880975931252 -15.981115733289169, -11.500000000000005 -16 M-12.525123519691407 -15.967126284005381 C-12.136117125135371 -15.979600961923781, -11.747110730579335 -15.992075639842179, -11.500000000000005 -16 M-11.500000000000005 -16 C-11.500000000000004 -16, -11.500000000000002 -16, -11.5 -16 M-11.500000000000005 -16 C-11.500000000000004 -16, -11.500000000000002 -16, -11.5 -16" stroke="#999" stroke-width="1.3" fill="none" stroke-dasharray="0 0" style=""/></g><g class="label" style="" transform="translate(0, -8.5)"><rect/><g><rect class="background" style="stroke: none"/><text y="-10.1" style=""><tspan class="text-outer-tspan row" x="0" y="-0.1em" dy="1.1em"><tspan font-style="normal" class="text-inner-tspan" font-weight="normal">开始</tspan></tspan></text></g></g></g><g class="node default" id="my-svg-flowchart-Request-1" data-look="classic" transform="translate(681.7890625, 113.5)"><rect class="basic label-container" style="" x="-86.08203125" y="-23.5" width="172.1640625" height="47"/><g class="label" style="" transform="translate(0, -8.5)"><rect/><g><rect class="background" style="stroke: none"/><text y="-10.1" style=""><tspan class="text-outer-tspan row" x="0" y="-0.1em" dy="1.1em"><tspan font-style="normal" class="text-inner-tspan" font-weight="normal">请求</tspan><tspan font-style="normal" class="text-inner-tspan" font-weight="normal"> DeepSeek</tspan></tspan></text></g></g></g><g class="node default" id="my-svg-flowchart-Check-3" data-look="classic" transform="translate(681.7890625, 266.5)"><polygon points="79.5,0 159,-79.5 79.5,-159 0,-79.5" class="label-container" transform="translate(-79, 79.5)"/><g class="label" style="" transform="translate(0, -8.5)"><rect/><g><rect class="background" style="stroke: none"/><text y="-10.1" style=""><tspan class="text-outer-tspan row" x="0" y="-0.1em" dy="1.1em"><tspan font-style="normal" class="text-inner-tspan" font-weight="normal">返回什么信号？</tspan></tspan></text></g></g></g><g class="node default" id="my-svg-flowchart-Done-5" data-look="classic" transform="translate(110, 488.5)"><rect class="basic label-container" style="" x="-102" y="-32.29999923706055" width="204" height="64.5999984741211"/><g class="label" style="" transform="translate(0, -17.299999237060547)"><rect/><g><rect class="background" style="stroke: none"/><text y="-10.1" style=""><tspan class="text-outer-tspan row" x="0" y="-0.1em" dy="1.1em"><tspan font-style="normal" class="text-inner-tspan" font-weight="normal">回到</tspan><tspan font-style="normal" class="text-inner-tspan" font-weight="normal"> Agent</tspan><tspan font-style="normal" class="text-inner-tspan" font-weight="normal"> Loop</tspan></tspan><tspan class="text-outer-tspan row" x="0" y="1em" dy="1.1em"><tspan font-style="normal" class="text-inner-tspan" font-weight="normal">执行工具或输出答案</tspan></tspan></text></g></g></g><g class="node default" id="my-svg-flowchart-L1-7" data-look="classic" transform="translate(333.5, 488.5)"><polygon points="71.5,0 143,-71.5 71.5,-143 0,-71.5" class="label-container" transform="translate(-71, 71.5)"/><g class="label" style="" transform="translate(0, -8.5)"><rect/><g><rect class="background" style="stroke: none"/><text y="-10.1" style=""><tspan class="text-outer-tspan row" x="0" y="-0.1em" dy="1.1em"><tspan font-style="normal" class="text-inner-tspan" font-weight="normal">第一次截断？</tspan></tspan></text></g></g></g><g class="node default" id="my-svg-flowchart-L2-9" data-look="classic" transform="translate(221.75, 710.5)"><rect class="basic label-container" style="" x="-118.9140625" y="-32.29999923706055" width="237.828125" height="64.5999984741211"/><g class="label" style="" transform="translate(0, -17.299999237060547)"><rect/><g><rect class="background" style="stroke: none"/><text y="-10.1" style=""><tspan class="text-outer-tspan row" x="0" y="-0.1em" dy="1.1em"><tspan font-style="normal" class="text-inner-tspan" font-weight="normal">扩大输出上限</tspan></tspan><tspan class="text-outer-tspan row" x="0" y="1em" dy="1.1em"><tspan font-style="normal" class="text-inner-tspan" font-weight="normal">用原</tspan><tspan font-style="normal" class="text-inner-tspan" font-weight="normal"> messages</tspan><tspan font-style="normal" class="text-inner-tspan" font-weight="normal"> 重新请求</tspan></tspan></text></g></g></g><g class="node default" id="my-svg-flowchart-L3-11" data-look="classic" transform="translate(470.1640625, 710.5)"><polygon points="79.5,0 159,-79.5 79.5,-159 0,-79.5" class="label-container" transform="translate(-79, 79.5)"/><g class="label" style="" transform="translate(0, -8.5)"><rect/><g><rect class="background" style="stroke: none"/><text y="-10.1" style=""><tspan class="text-outer-tspan row" x="0" y="-0.1em" dy="1.1em"><tspan font-style="normal" class="text-inner-tspan" font-weight="normal">工具调用完整？</tspan></tspan></text></g></g></g><g class="node default" id="my-svg-flowchart-Stop-13" data-look="classic" transform="translate(686.4140625, 1164.099998474121)"><rect class="basic label-container" style="" x="-62" y="-23.5" width="124" height="47"/><g class="label" style="" transform="translate(0, -8.5)"><rect/><g><rect class="background" style="stroke: none"/><text y="-10.1" style=""><tspan class="text-outer-tspan row" x="0" y="-0.1em" dy="1.1em"><tspan font-style="normal" class="text-inner-tspan" font-weight="normal">明确停止</tspan></tspan></text></g></g></g><g class="node default" id="my-svg-flowchart-L4-15" data-look="classic" transform="translate(540.4140625, 956.5)"><polygon points="95.5,0 191,-95.5 95.5,-191 0,-95.5" class="label-container" transform="translate(-95, 95.5)"/><g class="label" style="" transform="translate(0, -8.5)"><rect/><g><rect class="background" style="stroke: none"/><text y="-10.1" style=""><tspan class="text-outer-tspan row" x="0" y="-0.1em" dy="1.1em"><tspan font-style="normal" class="text-inner-tspan" font-weight="normal">续写次数还没用完？</tspan></tspan></text></g></g></g><g class="node default" id="my-svg-flowchart-L5-17" data-look="classic" transform="translate(170.0390625, 1164.099998474121)"><rect class="basic label-container" style="" x="-78" y="-41.099998474121094" width="156" height="82.19999694824219"/><g class="label" style="" transform="translate(0, -26.099998474121094)"><rect/><g><rect class="background" style="stroke: none"/><text y="-10.1" style=""><tspan class="text-outer-tspan row" x="0" y="-0.1em" dy="1.1em"><tspan font-style="normal" class="text-inner-tspan" font-weight="normal">保存文本片段</tspan></tspan><tspan class="text-outer-tspan row" x="0" y="1em" dy="1.1em"><tspan font-style="normal" class="text-inner-tspan" font-weight="normal">追加续写提示</tspan></tspan><tspan class="text-outer-tspan row" x="0" y="2.1em" dy="1.1em"><tspan font-style="normal" class="text-inner-tspan" font-weight="normal">重新请求</tspan></tspan></text></g></g></g><g class="node default" id="my-svg-flowchart-C1-21" data-look="classic" transform="translate(770.2890625, 956.5)"><polygon points="71.5,0 143,-71.5 71.5,-143 0,-71.5" class="label-container" transform="translate(-71, 71.5)"/><g class="label" style="" transform="translate(0, -8.5)"><rect/><g><rect class="background" style="stroke: none"/><text y="-10.1" style=""><tspan class="text-outer-tspan row" x="0" y="-0.1em" dy="1.1em"><tspan font-style="normal" class="text-inner-tspan" font-weight="normal">已经压缩过？</tspan></tspan></text></g></g></g><g class="node default" id="my-svg-flowchart-C2-23" data-look="classic" transform="translate(388.7890625, 1164.099998474121)"><rect class="basic label-container" style="" x="-90.75" y="-32.29999923706055" width="181.5" height="64.5999984741211"/><g class="label" style="" transform="translate(0, -17.299999237060547)"><rect/><g><rect class="background" style="stroke: none"/><text y="-10.1" style=""><tspan class="text-outer-tspan row" x="0" y="-0.1em" dy="1.1em"><tspan font-style="normal" class="text-inner-tspan" font-weight="normal">reactive</tspan><tspan font-style="normal" class="text-inner-tspan" font-weight="normal"> compact</tspan></tspan><tspan class="text-outer-tspan row" x="0" y="1em" dy="1.1em"><tspan font-style="normal" class="text-inner-tspan" font-weight="normal">重新请求</tspan></tspan></text></g></g></g><g class="node default" id="my-svg-flowchart-R1-27" data-look="classic" transform="translate(1001.7890625, 956.5)"><polygon points="95.5,0 191,-95.5 95.5,-191 0,-95.5" class="label-container" transform="translate(-95, 95.5)"/><g class="label" style="" transform="translate(0, -8.5)"><rect/><g><rect class="background" style="stroke: none"/><text y="-10.1" style=""><tspan class="text-outer-tspan row" x="0" y="-0.1em" dy="1.1em"><tspan font-style="normal" class="text-inner-tspan" font-weight="normal">重试次数还没用完？</tspan></tspan></text></g></g></g><g class="node default" id="my-svg-flowchart-R2-29" data-look="classic" transform="translate(1067.0390625, 1164.099998474121)"><rect class="basic label-container" style="" x="-94" y="-41.099998474121094" width="188" height="82.19999694824219"/><g class="label" style="" transform="translate(0, -26.099998474121094)"><rect/><g><rect class="background" style="stroke: none"/><text y="-10.1" style=""><tspan class="text-outer-tspan row" x="0" y="-0.1em" dy="1.1em"><tspan font-style="normal" class="text-inner-tspan" font-weight="normal">等待</tspan><tspan font-style="normal" class="text-inner-tspan" font-weight="normal"> +</tspan><tspan font-style="normal" class="text-inner-tspan" font-weight="normal"> 抖动</tspan></tspan><tspan class="text-outer-tspan row" x="0" y="1em" dy="1.1em"><tspan font-style="normal" class="text-inner-tspan" font-weight="normal">必要时切备用模型</tspan></tspan><tspan class="text-outer-tspan row" x="0" y="2.1em" dy="1.1em"><tspan font-style="normal" class="text-inner-tspan" font-weight="normal">重新请求</tspan></tspan></text></g></g></g></g></g></g><defs><filter id="my-svg-drop-shadow" height="130%" width="130%"><feDropShadow dx="4" dy="4" stdDeviation="0" flood-opacity="0.06" flood-color="#000000"/></filter></defs><defs><filter id="my-svg-drop-shadow-small" height="150%" width="150%"><feDropShadow dx="2" dy="2" stdDeviation="0" flood-opacity="0.06" flood-color="#000000"/></filter></defs><linearGradient id="my-svg-gradient" gradientUnits="objectBoundingBox" x1="0%" y1="0%" x2="100%" y2="0%"><stop offset="0%" stop-color="hsl(0, 0%, 83.3333333333%)" stop-opacity="1"/><stop offset="100%" stop-color="hsl(0, 0%, 88.9215686275%)" stop-opacity="1"/></linearGradient></svg>