<svg width="1174.2890625" height="1213.199951171875" id="my-svg" xmlns="http://www.w3.org/2000/svg" xmlns:xlink="http://www.w3.org/1999/xlink" class="flowchart" style="max-width: 1174.29px; background-color: white;" viewBox="0 0 1174.2890625 1213.199951171875" role="graphics-document document" aria-roledescription="flowchart-v2"><style>#my-svg{font-family:"trebuchet ms",verdana,arial,sans-serif;font-size:16px;fill:#000000;}@keyframes edge-animation-frame{from{stroke-dashoffset:0;}}@keyframes dash{to{stroke-dashoffset:0;}}#my-svg .edge-animation-slow{stroke-dasharray:9,5!important;stroke-dashoffset:900;animation:dash 50s linear infinite;stroke-linecap:round;}#my-svg .edge-animation-fast{stroke-dasharray:9,5!important;stroke-dashoffset:900;animation:dash 20s linear infinite;stroke-linecap:round;}#my-svg .error-icon{fill:#552222;}#my-svg .error-text{fill:#552222;stroke:#552222;}#my-svg .edge-thickness-normal{stroke-width:1px;}#my-svg .edge-thickness-thick{stroke-width:3.5px;}#my-svg .edge-pattern-solid{stroke-dasharray:0;}#my-svg .edge-thickness-invisible{stroke-width:0;fill:none;}#my-svg .edge-pattern-dashed{stroke-dasharray:3;}#my-svg .edge-pattern-dotted{stroke-dasharray:2;}#my-svg .marker{fill:#666;stroke:#666;}#my-svg .marker.cross{stroke:#666;}#my-svg svg{font-family:"trebuchet ms",verdana,arial,sans-serif;font-size:16px;}#my-svg p{margin:0;}#my-svg .label{font-family:"trebuchet ms",verdana,arial,sans-serif;color:#000000;}#my-svg .cluster-label text{fill:#333;}#my-svg .cluster-label span{color:#333;}#my-svg .cluster-label span p{background-color:transparent;}#my-svg .label text,#my-svg span{fill:#000000;color:#000000;}#my-svg .node rect,#my-svg .node circle,#my-svg .node ellipse,#my-svg .node polygon,#my-svg .node path{fill:#eee;stroke:#999;stroke-width:1px;}#my-svg .rough-node .label text,#my-svg .node .label text,#my-svg .image-shape .label,#my-svg .icon-shape .label{text-anchor:middle;}#my-svg .node .katex path{fill:#000;stroke:#000;stroke-width:1px;}#my-svg .rough-node .label,#my-svg .node .label,#my-svg .image-shape .label,#my-svg .icon-shape .label{text-align:center;}#my-svg .node.clickable{cursor:pointer;}#my-svg .root .anchor path{fill:#666!important;stroke-width:0;stroke:#666;}#my-svg .arrowheadPath{fill:#333333;}#my-svg .edgePath .path{stroke:#666;stroke-width:1px;}#my-svg .flowchart-link{stroke:#666;fill:none;}#my-svg .edgeLabel{background-color:white;text-align:center;}#my-svg .edgeLabel p{background-color:white;}#my-svg .edgeLabel rect{opacity:0.5;background-color:white;fill:white;}#my-svg .labelBkg{background-color:rgba(255, 255, 255, 0.5);}#my-svg .cluster rect{fill:hsl(0, 0%, 98.9215686275%);stroke:#707070;stroke-width:1px;}#my-svg .cluster text{fill:#333;}#my-svg .cluster span{color:#333;}#my-svg div.mermaidTooltip{position:absolute;text-align:center;max-width:200px;padding:2px;font-family:"trebuchet ms",verdana,arial,sans-serif;font-size:12px;background:hsl(-160, 0%, 93.3333333333%);border:1px solid #707070;border-radius:2px;pointer-events:none;z-index:100;}#my-svg .flowchartTitleText{text-anchor:middle;font-size:18px;fill:#000000;}#my-svg rect.text{fill:none;stroke-width:0;}#my-svg .icon-shape,#my-svg .image-shape{background-color:white;text-align:center;}#my-svg .icon-shape p,#my-svg .image-shape p{background-color:white;padding:2px;}#my-svg .icon-shape .label rect,#my-svg .image-shape .label rect{opacity:0.5;background-color:white;fill:white;}#my-svg .label-icon{display:inline-block;height:1em;overflow:visible;vertical-align:-0.125em;}#my-svg .node .label-icon path{fill:currentColor;stroke:revert;stroke-width:revert;}#my-svg .node .neo-node{stroke:#999;}#my-svg [data-look="neo"].node rect,#my-svg [data-look="neo"].cluster rect,#my-svg [data-look="neo"].node polygon{stroke:url(#my-svg-gradient);filter:drop-shadow( 1px 2px 2px rgba(185,185,185,1));}#my-svg [data-look="neo"].swimlane.cluster rect{filter:none;}#my-svg [data-look="neo"].node path{stroke:url(#my-svg-gradient);stroke-width:1px;}#my-svg [data-look="neo"].node .outer-path{filter:drop-shadow( 1px 2px 2px rgba(185,185,185,1));}#my-svg [data-look="neo"].node .neo-line path{stroke:#999;filter:none;}#my-svg [data-look="neo"].node circle{stroke:url(#my-svg-gradient);filter:drop-shadow( 1px 2px 2px rgba(185,185,185,1));}#my-svg [data-look="neo"].node circle .state-start{fill:#000000;}#my-svg [data-look="neo"].icon-shape .icon{fill:url(#my-svg-gradient);filter:drop-shadow( 1px 2px 2px rgba(185,185,185,1));}#my-svg [data-look="neo"].icon-shape .icon-neo path{stroke:url(#my-svg-gradient);filter:drop-shadow( 1px 2px 2px rgba(185,185,185,1));}#my-svg :root{--mermaid-font-family:"trebuchet ms",verdana,arial,sans-serif;}</style><g><marker id="my-svg_flowchart-v2-pointEnd" class="marker flowchart-v2" viewBox="0 0 10 10" refX="5" refY="5" markerUnits="userSpaceOnUse" markerWidth="8" markerHeight="8" orient="auto"><path d="M 0 0 L 10 5 L 0 10 z" class="arrowMarkerPath" style="stroke-width: 1; stroke-dasharray: 1, 0;"/></marker><marker id="my-svg_flowchart-v2-pointStart" class="marker flowchart-v2" viewBox="0 0 10 10" refX="4.5" refY="5" markerUnits="userSpaceOnUse" markerWidth="8" markerHeight="8" orient="auto"><path d="M 0 5 L 10 10 L 10 0 z" class="arrowMarkerPath" style="stroke-width: 1; stroke-dasharray: 1, 0;"/></marker><marker id="my-svg_flowchart-v2-pointEnd-margin" class="marker flowchart-v2" viewBox="0 0 11.5 14" refX="11.5" refY="7" markerUnits="userSpaceOnUse" markerWidth="10.5" markerHeight="14" orient="auto"><path d="M 0 0 L 11.5 7 L 0 14 z" class="arrowMarkerPath" style="stroke-width: 0; stroke-dasharray: 1, 0;"/></marker><marker id="my-svg_flowchart-v2-pointStart-margin" class="marker flowchart-v2" viewBox="0 0 11.5 14" refX="1" refY="7" markerUnits="userSpaceOnUse" markerWidth="11.5" markerHeight="14" orient="auto"><polygon points="0,7 11.5,14 11.5,0" class="arrowMarkerPath" style="stroke-width: 0; stroke-dasharray: 1, 0;"/></marker><marker id="my-svg_flowchart-v2-circleEnd" class="marker flowchart-v2" viewBox="0 0 10 10" refX="11" refY="5" markerUnits="userSpaceOnUse" markerWidth="11" markerHeight="11" orient="auto"><circle cx="5" cy="5" r="5" class="arrowMarkerPath" style="stroke-width: 1; stroke-dasharray: 1, 0;"/></marker><marker id="my-svg_flowchart-v2-circleStart" class="marker flowchart-v2" viewBox="0 0 10 10" refX="-1" refY="5" markerUnits="userSpaceOnUse" markerWidth="11" markerHeight="11" orient="auto"><circle cx="5" cy="5" r="5" class="arrowMarkerPath" style="stroke-width: 1; stroke-dasharray: 1, 0;"/></marker><marker id="my-svg_flowchart-v2-circleEnd-margin" class="marker flowchart-v2" viewBox="0 0 10 10" refY="5" refX="12.25" markerUnits="userSpaceOnUse" markerWidth="14" markerHeight="14" orient="auto"><circle cx="5" cy="5" r="5" class="arrowMarkerPath" style="stroke-width: 0; stroke-dasharray: 1, 0;"/></marker><marker id="my-svg_flowchart-v2-circleStart-margin" class="marker flowchart-v2" viewBox="0 0 10 10" refX="-2" refY="5" markerUnits="userSpaceOnUse" markerWidth="14" markerHeight="14" orient="auto"><circle cx="5" cy="5" r="5" class="arrowMarkerPath" style="stroke-width: 0; stroke-dasharray: 1, 0;"/></marker><marker id="my-svg_flowchart-v2-crossEnd" class="marker cross flowchart-v2" viewBox="0 0 11 11" refX="12" refY="5.2" markerUnits="userSpaceOnUse" markerWidth="11" markerHeight="11" orient="auto"><path d="M 1,1 l 9,9 M 10,1 l -9,9" class="arrowMarkerPath" style="stroke-width: 2; stroke-dasharray: 1, 0;"/></marker><marker id="my-svg_flowchart-v2-crossStart" class="marker cross flowchart-v2" viewBox="0 0 11 11" refX="-1" refY="5.2" markerUnits="userSpaceOnUse" markerWidth="11" markerHeight="11" orient="auto"><path d="M 1,1 l 9,9 M 10,1 l -9,9" class="arrowMarkerPath" style="stroke-width: 2; stroke-dasharray: 1, 0;"/></marker><marker id="my-svg_flowchart-v2-crossEnd-margin" class="marker cross flowchart-v2" viewBox="0 0 15 15" refX="17.7" refY="7.5" markerUnits="userSpaceOnUse" markerWidth="12" markerHeight="12" orient="auto"><path d="M 1,1 L 14,14 M 1,14 L 14,1" class="arrowMarkerPath" style="stroke-width: 2.5;"/></marker><marker id="my-svg_flowchart-v2-crossStart-margin" class="marker cross flowchart-v2" viewBox="0 0 15 15" refX="-3.5" refY="7.5" markerUnits="userSpaceOnUse" markerWidth="12" markerHeight="12" orient="auto"><path d="M 1,1 L 14,14 M 1,14 L 14,1" class="arrowMarkerPath" style="stroke-width: 2.5; stroke-dasharray: 1, 0;"/></marker><g class="root"><g class="clusters"/><g class="edgePaths"><path d="M682.289,40.5L682.206,44.583C682.122,48.667,681.956,56.833,681.872,64.417C681.789,72,681.789,79,681.789,82.5L681.789,86" id="my-svg-L_Start_Request_0" class="edge-thickness-normal edge-pattern-solid edge-thickness-normal edge-pattern-solid flowchart-link" style=";" data-edge="true" data-et="edge" data-id="L_Start_Request_0" data-points="W3sieCI6NjgyLjI4OTA2MjUsInkiOjQwLjV9LHsieCI6NjgxLjc4OTA2MjUsInkiOjY1fSx7IngiOjY4MS43ODkwNjI1LCJ5Ijo5MH1d" data-look="classic" marker-end="url(#my-svg_flowchart-v2-pointEnd)"/><path d="M681.789,137L681.789,141.167C681.789,145.333,681.789,153.667,681.789,161.333C681.789,169,681.789,176,681.789,179.5L681.789,183" id="my-svg-L_Request_Check_0" class="edge-thickness-normal edge-pattern-solid edge-thickness-normal edge-pattern-solid flowchart-link" style=";" data-edge="true" data-et="edge" data-id="L_Request_Check_0" data-points="W3sieCI6NjgxLjc4OTA2MjUsInkiOjEzN30seyJ4Ijo2ODEuNzg5MDYyNSwieSI6MTYyfSx7IngiOjY4MS43ODkwNjI1LCJ5IjoxODd9XQ==" data-look="classic" marker-end="url(#my-svg_flowchart-v2-pointEnd)"/><path d="M615.601,279.812L531.334,296.76C447.067,313.708,278.534,347.604,194.267,376.335C110,405.067,110,428.633,110,440.417L110,452.2" id="my-svg-L_Check_Done_0" class="edge-thickness-normal edge-pattern-solid edge-thickness-normal edge-pattern-solid flowchart-link" style=";" data-edge="true" data-et="edge" data-id="L_Check_Done_0" data-points="W3sieCI6NjE1LjYwMTAxMDA4MjE1ODgsInkiOjI3OS44MTE5NDc1ODIxNTg4NH0seyJ4IjoxMTAsInkiOjM4MS41fSx7IngiOjExMCwieSI6NDU2LjIwMDAwMDc2MjkzOTQ1fV0=" data-look="classic" marker-end="url(#my-svg_flowchart-v2-pointEnd)"/><path d="M622.023,286.234L573.936,302.112C525.849,317.989,429.674,349.745,381.587,370.872C333.5,392,333.5,402.5,333.5,407.75L333.5,413" id="my-svg-L_Check_L1_0" class="edge-thickness-normal edge-pattern-solid edge-thickness-normal edge-pattern-solid flowchart-link" style=";" data-edge="true" data-et="edge" data-id="L_Check_L1_0" data-points="W3sieCI6NjIyLjAyMjk2MjQzNDIzMzgsInkiOjI4Ni4yMzM4OTk5MzQyMzM4fSx7IngiOjMzMy41LCJ5IjozODEuNX0seyJ4IjozMzMuNSwieSI6NDE3fV0=" data-look="classic" marker-end="url(#my-svg_flowchart-v2-pointEnd)"/><path d="M296.974,523.474L284.436,535.478C271.899,547.482,246.825,571.491,234.287,596.612C221.75,621.733,221.75,647.967,221.75,661.083L221.75,674.2" id="my-svg-L_L1_L2_0" class="edge-thickness-normal edge-pattern-solid edge-thickness-normal edge-pattern-solid flowchart-link" style=";" data-edge="true" data-et="edge" data-id="L_L1_L2_0" data-points="W3sieCI6Mjk2Ljk3MzcxNDI4NTcxNDI3LCJ5Ijo1MjMuNDczNzE0Mjg1NzE0M30seyJ4IjoyMjEuNzUsInkiOjU5NS41fSx7IngiOjIyMS43NSwieSI6Njc4LjIwMDAwMDc2MjkzOTV9XQ==" data-look="classic" marker-end="url(#my-svg_flowchart-v2-pointEnd)"/><path d="M373.602,519.898L389.696,532.498C405.79,545.098,437.977,570.299,454.07,588.15C470.164,606,470.164,616.5,470.164,621.75L470.164,627" id="my-svg-L_L1_L3_0" class="edge-thickness-normal edge-pattern-solid edge-thickness-normal edge-pattern-solid flowchart-link" style=";" data-edge="true" data-et="edge" data-id="L_L1_L3_0" data-points="W3sieCI6MzczLjYwMjI2MzYxODU4MzUsInkiOjUxOS44OTc3MzYzODE0MTY1fSx7IngiOjQ3MC4xNjQwNjI1LCJ5Ijo1OTUuNX0seyJ4Ijo0NzAuMTY0MDYyNSwieSI6NjMxfV0=" data-look="classic" marker-end="url(#my-svg_flowchart-v2-pointEnd)"/><path d="M432.339,752.175L421.248,764.396C410.156,776.617,387.972,801.058,376.881,835.113C365.789,869.167,365.789,912.833,365.789,956.5C365.789,1000.167,365.789,1043.833,408.245,1075.81C450.701,1107.786,535.612,1128.072,578.068,1138.215L620.524,1148.358" id="my-svg-L_L3_Stop_0" class="edge-thickness-normal edge-pattern-solid edge-thickness-normal edge-pattern-solid flowchart-link" style=";" data-edge="true" data-et="edge" data-id="L_L3_Stop_0" data-points="W3sieCI6NDMyLjMzOTI3NjE3NTIxMzcsInkiOjc1Mi4xNzUyMTM2NzUyMTM2fSx7IngiOjM2NS43ODkwNjI1LCJ5Ijo4MjUuNX0seyJ4IjozNjUuNzg5MDYyNSwieSI6OTU2LjV9LHsieCI6MzY1Ljc4OTA2MjUsInkiOjEwODcuNX0seyJ4Ijo2MjQuNDE0MDYyNSwieSI6MTE0OS4yODc2NzkwODEwNzQ3fV0=" data-look="classic" marker-end="url(#my-svg_flowchart-v2-pointEnd)"/><path d="M500.312,759.852L506.996,770.794C513.679,781.735,527.047,803.617,533.73,819.809C540.414,836,540.414,846.5,540.414,851.75L540.414,857" id="my-svg-L_L3_L4_0" class="edge-thickness-normal edge-pattern-solid edge-thickness-normal edge-pattern-solid flowchart-link" style=";" data-edge="true" data-et="edge" data-id="L_L3_L4_0" data-points="W3sieCI6NTAwLjMxMTgzNTc3OTM1MjI0LCJ5Ijo3NTkuODUyMjI2NzIwNjQ3OH0seyJ4Ijo1NDAuNDE0MDYyNSwieSI6ODI1LjV9LHsieCI6NTQwLjQxNDA2MjUsInkiOjg2MX1d" data-look="classic" marker-end="url(#my-svg_flowchart-v2-pointEnd)"/><path d="M501.683,1013.269L493.243,1025.641C484.802,1038.013,467.92,1062.756,426.29,1084.176C384.659,1105.595,318.279,1123.69,285.088,1132.738L251.898,1141.785" id="my-svg-L_L4_L5_0" class="edge-thickness-normal edge-pattern-solid edge-thickness-normal edge-pattern-solid flowchart-link" style=";" data-edge="true" data-et="edge" data-id="L_L4_L5_0" data-points="W3sieCI6NTAxLjY4MzIwNjAwNTM4ODU3LCJ5IjoxMDEzLjI2OTE0MzUwNTM4ODZ9LHsieCI6NDUxLjAzOTA2MjUsInkiOjEwODcuNX0seyJ4IjoyNDguMDM5MDYyNSwieSI6MTE0Mi44MzczNjU0NDU3MTczfV0=" data-look="classic" marker-end="url(#my-svg_flowchart-v2-pointEnd)"/><path d="M578.919,1013.495L587.251,1025.83C595.584,1038.164,612.249,1062.832,626.825,1083.483C641.4,1104.134,653.886,1120.767,660.129,1129.084L666.372,1137.401" id="my-svg-L_L4_Stop_0" class="edge-thickness-normal edge-pattern-solid edge-thickness-normal edge-pattern-solid flowchart-link" style=";" data-edge="true" data-et="edge" data-id="L_L4_Stop_0" data-points="W3sieCI6NTc4LjkxODYxODMwODY1NiwieSI6MTAxMy40OTU0NDQxOTEzNDR9LHsieCI6NjI4LjkxNDA2MjUsInkiOjEwODcuNX0seyJ4Ijo2NjguNzczNzIyNzIzMDE1MywieSI6MTE0MC41OTk5OTg0NzQxMjF9XQ==" data-look="classic" marker-end="url(#my-svg_flowchart-v2-pointEnd)"/><path d="M716.363,311.426L725.35,323.105C734.338,334.784,752.314,358.142,761.301,387.654C770.289,417.167,770.289,452.833,770.289,488.5C770.289,524.167,770.289,559.833,770.289,596.833C770.289,633.833,770.289,672.167,770.289,710.5C770.289,748.833,770.289,787.167,770.289,815.583C770.289,844,770.289,862.5,770.289,871.75L770.289,881" id="my-svg-L_Check_C1_0" class="edge-thickness-normal edge-pattern-solid edge-thickness-normal edge-pattern-solid flowchart-link" style=";" data-edge="true" data-et="edge" data-id="L_Check_C1_0" data-points="W3sieCI6NzE2LjM2Mjc3MjU3MzcxMDEsInkiOjMxMS40MjYyODk5MjYyODk5NH0seyJ4Ijo3NzAuMjg5MDYyNSwieSI6MzgxLjV9LHsieCI6NzcwLjI4OTA2MjUsInkiOjQ4OC41fSx7IngiOjc3MC4yODkwNjI1LCJ5Ijo1OTUuNX0seyJ4Ijo3NzAuMjg5MDYyNSwieSI6NzEwLjV9LHsieCI6NzcwLjI4OTA2MjUsInkiOjgyNS41fSx7IngiOjc3MC4yODkwNjI1LCJ5Ijo4ODV9XQ==" data-look="classic" marker-end="url(#my-svg_flowchart-v2-pointEnd)"/><path d="M739.097,996.808L727.4,1011.923C715.703,1027.038,692.308,1057.269,649.692,1080.84C607.075,1104.41,545.236,1121.32,514.317,1129.775L483.397,1138.229" id="my-svg-L_C1_C2_0" class="edge-thickness-normal edge-pattern-solid edge-thickness-normal edge-pattern-solid flowchart-link" style=";" data-edge="true" data-et="edge" data-id="L_C1_C2_0" data-points="W3sieCI6NzM5LjA5Njc1NDgwNzY5MjMsInkiOjk5Ni44MDc2OTIzMDc2OTIzfSx7IngiOjY2OC45MTQwNjI1LCJ5IjoxMDg3LjV9LHsieCI6NDc5LjUzOTA2MjUsInkiOjExMzkuMjg0NDcwMTg2NjU0N31d" data-look="classic" marker-end="url(#my-svg_flowchart-v2-pointEnd)"/><path d="M799.117,999.172L809.062,1013.893C819.008,1028.615,838.898,1058.057,829.538,1081.358C820.177,1104.659,781.564,1121.817,762.258,1130.396L742.952,1138.976" id="my-svg-L_C1_Stop_0" class="edge-thickness-normal edge-pattern-solid edge-thickness-normal edge-pattern-solid flowchart-link" style=";" data-edge="true" data-et="edge" data-id="L_C1_Stop_0" data-points="W3sieCI6Nzk5LjExNzA4MDcyMzIzNDYsInkiOjk5OS4xNzE5ODE3NzY3NjU0fSx7IngiOjg1OC43ODkwNjI1LCJ5IjoxMDg3LjV9LHsieCI6NzM5LjI5NjczMzI2NjIyMTMsInkiOjExNDAuNTk5OTk4NDc0MTIxfV0=" data-look="classic" marker-end="url(#my-svg_flowchart-v2-pointEnd)"/><path d="M740.272,287.517L783.858,303.181C827.444,318.845,914.617,350.172,958.203,383.67C1001.789,417.167,1001.789,452.833,1001.789,488.5C1001.789,524.167,1001.789,559.833,1001.789,596.833C1001.789,633.833,1001.789,672.167,1001.789,710.5C1001.789,748.833,1001.789,787.167,1001.789,811.583C1001.789,836,1001.789,846.5,1001.789,851.75L1001.789,857" id="my-svg-L_Check_R1_0" class="edge-thickness-normal edge-pattern-solid edge-thickness-normal edge-pattern-solid flowchart-link" style=";" data-edge="true" data-et="edge" data-id="L_Check_R1_0" data-points="W3sieCI6NzQwLjI3MTgyMTEyMDY4OTcsInkiOjI4Ny41MTcyNDEzNzkzMTAzNX0seyJ4IjoxMDAxLjc4OTA2MjUsInkiOjM4MS41fSx7IngiOjEwMDEuNzg5MDYyNSwieSI6NDg4LjV9LHsieCI6MTAwMS43ODkwNjI1LCJ5Ijo1OTUuNX0seyJ4IjoxMDAxLjc4OTA2MjUsInkiOjcxMC41fSx7IngiOjEwMDEuNzg5MDYyNSwieSI6ODI1LjV9LHsieCI6MTAwMS43ODkwNjI1LCJ5Ijo4NjF9XQ==" data-look="classic" marker-end="url(#my-svg_flowchart-v2-pointEnd)"/><path d="M989.14,1039.351L987.915,1047.376C986.69,1055.401,984.239,1071.45,989.103,1084.946C993.967,1098.442,1006.145,1109.384,1012.234,1114.855L1018.323,1120.327" id="my-svg-L_R1_R2_0" class="edge-thickness-normal edge-pattern-solid edge-thickness-normal edge-pattern-solid flowchart-link" style=";" data-edge="true" data-et="edge" data-id="L_R1_R2_0" data-points="W3sieCI6OTg5LjE0MDA1NTg3NzQ4MzQsInkiOjEwMzkuMzUwOTkzMzc3NDgzNX0seyJ4Ijo5ODEuNzg5MDYyNSwieSI6MTA4Ny41fSx7IngiOjEwMjEuMjk3ODc1Mjk3NDYzLCJ5IjoxMTIzfV0=" data-look="classic" marker-end="url(#my-svg_flowchart-v2-pointEnd)"/><path d="M1028.266,1025.523L1032.228,1035.853C1036.19,1046.182,1044.115,1066.841,998.125,1087.636C952.136,1108.43,852.232,1129.36,802.281,1139.825L752.329,1150.291" id="my-svg-L_R1_Stop_0" class="edge-thickness-normal edge-pattern-solid edge-thickness-normal edge-pattern-solid flowchart-link" style=";" data-edge="true" data-et="edge" data-id="L_R1_Stop_0" data-points="W3sieCI6MTAyOC4yNjU2MTQyMjQxMzc4LCJ5IjoxMDI1LjUyMzQ0ODI3NTg2MjJ9LHsieCI6MTA1Mi4wMzkwNjI1LCJ5IjoxMDg3LjV9LHsieCI6NzQ4LjQxNDA2MjUsInkiOjExNTEuMTEwNzMzNzc1NjAzNH1d" data-look="classic" marker-end="url(#my-svg_flowchart-v2-pointEnd)"/><path d="M745.122,282.667L809.65,299.139C874.178,315.611,1003.233,348.556,1067.761,382.861C1132.289,417.167,1132.289,452.833,1132.289,488.5C1132.289,524.167,1132.289,559.833,1132.289,596.833C1132.289,633.833,1132.289,672.167,1132.289,710.5C1132.289,748.833,1132.289,787.167,1132.289,828.167C1132.289,869.167,1132.289,912.833,1132.289,956.5C1132.289,1000.167,1132.289,1043.833,1068.967,1076.545C1005.645,1109.257,879.001,1131.014,815.678,1141.893L752.356,1152.771" id="my-svg-L_Check_Stop_0" class="edge-thickness-normal edge-pattern-solid edge-thickness-normal edge-pattern-solid flowchart-link" style=";" data-edge="true" data-et="edge" data-id="L_Check_Stop_0" data-points="W3sieCI6NzQ1LjEyMTk1Mzc0NjY4NDMsInkiOjI4Mi42NjcxMDg3NTMzMTU2M30seyJ4IjoxMTMyLjI4OTA2MjUsInkiOjM4MS41fSx7IngiOjExMzIuMjg5MDYyNSwieSI6NDg4LjV9LHsieCI6MTEzMi4yODkwNjI1LCJ5Ijo1OTUuNX0seyJ4IjoxMTMyLjI4OTA2MjUsInkiOjcxMC41fSx7IngiOjExMzIuMjg5MDYyNSwieSI6ODI1LjV9LHsieCI6MTEzMi4yODkwNjI1LCJ5Ijo5NTYuNX0seyJ4IjoxMTMyLjI4OTA2MjUsInkiOjEwODcuNX0seyJ4Ijo3NDguNDE0MDYyNSwieSI6MTE1My40NDg1ODI5MzA3NjE0fV0=" data-look="classic" marker-end="url(#my-svg_flowchart-v2-pointEnd)"/></g><g class="edgeLabels"><g class="edgeLabel"><g class="label" data-id="L_Start_Request_0" transform="translate(0, 0)"><text y="-10.1" text-anchor="middle"><tspan class="text-outer-tspan row" x="0" y="-0.1em" dy="1.1em" text-anchor="middle"/></text></g></g><g><rect class="background" style="stroke: none"/></g><g class="edgeLabel"><g class="label" data-id="L_Request_Check_0" transform="translate(0, 0)"><text y="-10.1" text-anchor="middle"><tspan class="text-outer-tspan row" x="0" y="-0.1em" dy="1.1em" text-anchor="middle"/></text></g></g><g><rect class="background" style="stroke: none"/></g><g class="edgeLabel" transform="translate(110, 381.5)"><g class="label" data-id="L_Check_Done_0" transform="translate(-0.046875, -10.5)"><g><rect class="background" style="" x="-52.6875" y="0" width="105.46875" height="21"/><text y="-10.1" text-anchor="middle" style=""><tspan class="text-outer-tspan row" x="0" y="-0.1em" dy="1.1em" text-anchor="middle"><tspan font-style="normal" class="text-inner-tspan" font-weight="normal">完整</tspan><tspan font-style="normal" class="text-inner-tspan" font-weight="normal"> message</tspan></tspan></text></g></g></g><g class="edgeLabel" transform="translate(333.5, 381.5)"><g class="label" data-id="L_Check_L1_0" transform="translate(0, -10.5)"><g><rect class="background" style="" x="-34" y="0" width="68" height="21"/><text y="-10.1" text-anchor="middle" style=""><tspan class="text-outer-tspan row" x="0" y="-0.1em" dy="1.1em" text-anchor="middle"><tspan font-style="normal" class="text-inner-tspan" font-weight="normal">输出截断</tspan></tspan></text></g></g></g><g class="edgeLabel" transform="translate(221.75, 595.5)"><g class="label" data-id="L_L1_L2_0" transform="translate(0, -10.5)"><g><rect class="background" style="" x="-10" y="0" width="20" height="21"/><text y="-10.1" text-anchor="middle" style=""><tspan class="text-outer-tspan row" x="0" y="-0.1em" dy="1.1em" text-anchor="middle"><tspan font-style="normal" class="text-inner-tspan" font-weight="normal">是</tspan></tspan></text></g></g></g><g class="edgeLabel" transform="translate(470.1640625, 595.5)"><g class="label" data-id="L_L1_L3_0" transform="translate(0, -10.5)"><g><rect class="background" style="" x="-10" y="0" width="20" height="21"/><text y="-10.1" text-anchor="middle" style=""><tspan class="text-outer-tspan row" x="0" y="-0.1em" dy="1.1em" text-anchor="middle"><tspan font-style="normal" class="text-inner-tspan" font-weight="normal">否</tspan></tspan></text></g></g></g><g class="edgeLabel" transform="translate(365.7890625, 956.5)"><g class="label" data-id="L_L3_Stop_0" transform="translate(0, -10.5)"><g><rect class="background" style="" x="-10" y="0" width="20" height="21"/><text y="-10.1" text-anchor="middle" style=""><tspan class="text-outer-tspan row" x="0" y="-0.1em" dy="1.1em" text-anchor="middle"><tspan font-style="normal" class="text-inner-tspan" font-weight="normal">否</tspan></tspan></text></g></g></g><g class="edgeLabel" transform="translate(540.4140625, 825.5)"><g class="label" data-id="L_L3_L4_0" transform="translate(0, -10.5)"><g><rect class="background" style="" x="-10" y="0" width="20" height="21"/><text y="-10.1" text-anchor="middle" style=""><tspan class="text-outer-tspan row" x="0" y="-0.1em" dy="1.1em" text-anchor="middle"><tspan font-style="normal" class="text-inner-tspan" font-weight="normal">是</tspan></tspan></text></g></g></g><g class="edgeLabel" transform="translate(392.88794, 1103.35187)"><g class="label" data-id="L_L4_L5_0" transform="translate(0, -10.5)"><g><rect class="background" style="" x="-10" y="0" width="20" height="21"/><text y="-10.1" text-anchor="middle" style=""><tspan class="text-outer-tspan row" x="0" y="-0.1em" dy="1.1em" text-anchor="middle"><tspan font-style="normal" class="text-inner-tspan" font-weight="normal">是</tspan></tspan></text></g></g></g><g class="edgeLabel" transform="translate(622.50048, 1078.00645)"><g class="label" data-id="L_L4_Stop_0" transform="translate(0, -10.5)"><g><rect class="background" style="" x="-10" y="0" width="20" height="21"/><text y="-10.1" text-anchor="middle" style=""><tspan class="text-outer-tspan row" x="0" y="-0.1em" dy="1.1em" text-anchor="middle"><tspan font-style="normal" class="text-inner-tspan" font-weight="normal">否</tspan></tspan></text></g></g></g><g class="edgeLabel" transform="translate(770.2890625, 595.5)"><g class="label" data-id="L_Check_C1_0" transform="translate(0, -10.5)"><g><rect class="background" style="" x="-42" y="0" width="84" height="21"/><text y="-10.1" text-anchor="middle" style=""><tspan class="text-outer-tspan row" x="0" y="-0.1em" dy="1.1em" text-anchor="middle"><tspan font-style="normal" class="text-inner-tspan" font-weight="normal">上下文超限</tspan></tspan></text></g></g></g><g class="edgeLabel" transform="translate(629.53429, 1098.26837)"><g class="label" data-id="L_C1_C2_0" transform="translate(0, -10.5)"><g><rect class="background" style="" x="-10" y="0" width="20" height="21"/><text y="-10.1" text-anchor="middle" style=""><tspan class="text-outer-tspan row" x="0" y="-0.1em" dy="1.1em" text-anchor="middle"><tspan font-style="normal" class="text-inner-tspan" font-weight="normal">否</tspan></tspan></text></g></g></g><g class="edgeLabel" transform="translate(847.74813, 1092.40637)"><g class="label" data-id="L_C1_Stop_0" transform="translate(0, -10.5)"><g><rect class="background" style="" x="-10" y="0" width="20" height="21"/><text y="-10.1" text-anchor="middle" style=""><tspan class="text-outer-tspan row" x="0" y="-0.1em" dy="1.1em" text-anchor="middle"><tspan font-style="normal" class="text-inner-tspan" font-weight="normal">是</tspan></tspan></text></g></g></g><g class="edgeLabel" transform="translate(1001.7890625, 595.5)"><g class="label" data-id="L_Check_R1_0" transform="translate(-0.05078125, -10.5)"><g><rect class="background" style="" x="-35.3671875" y="0" width="70.8359375" height="21"/><text y="-10.1" text-anchor="middle" style=""><tspan class="text-outer-tspan row" x="0" y="-0.1em" dy="1.1em" text-anchor="middle"><tspan font-style="normal" class="text-inner-tspan" font-weight="normal">429</tspan><tspan font-style="normal" class="text-inner-tspan" font-weight="normal"> /</tspan><tspan font-style="normal" class="text-inner-tspan" font-weight="normal"> 529</tspan></tspan></text></g></g></g><g class="edgeLabel" transform="translate(983.42848, 1088.97307)"><g class="label" data-id="L_R1_R2_0" transform="translate(0, -10.5)"><g><rect class="background" style="" x="-10" y="0" width="20" height="21"/><text y="-10.1" text-anchor="middle" style=""><tspan class="text-outer-tspan row" x="0" y="-0.1em" dy="1.1em" text-anchor="middle"><tspan font-style="normal" class="text-inner-tspan" font-weight="normal">是</tspan></tspan></text></g></g></g><g class="edgeLabel" transform="translate(1052.0390625, 1087.5)"><g class="label" data-id="L_R1_Stop_0" transform="translate(0, -10.5)"><g><rect class="background" style="" x="-10" y="0" width="20" height="21"/><text y="-10.1" text-anchor="middle" style=""><tspan class="text-outer-tspan row" x="0" y="-0.1em" dy="1.1em" text-anchor="middle"><tspan font-style="normal" class="text-inner-tspan" font-weight="normal">否</tspan></tspan></text></g></g></g><g class="edgeLabel" transform="translate(1132.2890625, 710.5)"><g class="label" data-id="L_Check_Stop_0" transform="translate(0, -10.5)"><g><rect class="background" style="" x="-34" y="0" width="68" height="21"/><text y="-10.1" text-anchor="middle" style=""><tspan class="text-outer-tspan row" x="0" y="-0.1em" dy="1.1em" text-anchor="middle"><tspan font-style="normal" class="text-inner-tspan" font-weight="normal">普通错误</tspan></tspan></text></g></g></g></g><g class="nodes"><g class="node default" id="my-svg-flowchart-Start-0" data-look="classic" transform="translate(681.7890625, 24)"><g class="basic label-container outer-path"><path d="M-11.5 -16 C-5.372483828335775 -16, 0.75503234332845 -16, 11.5 -16 C11.5 -16, 11.499999999999998 -16, 11.499999999999998 -16 C11.803241588380285 -15.99027563248459, 12.10648317676057 -15.98055126496918, 12.525123519691405 -15.967126284005381 C12.847885279853452 -15.935989845180359, 13.170647040015497 -15.904853406355334, 13.546034586952095 -15.868640221171939 C13.909265035677683 -15.809915939116186, 14.27249548440327 -15.751191657060433, 14.558538059221954 -15.704946511857047 C14.900512905239527 -15.62689298484796, 15.242487751257102 -15.548839457838872, 15.558473342552116 -15.476717808624471 C15.853397227597172 -15.389185947630162, 16.14832111264223 -15.301654086635851, 16.54173148837793 -15.184891952170698 C16.77010597691396 -15.10084802931881, 16.99848046544999 -15.01680410646692, 17.504272078069985 -14.830668117536348 C17.733392525242127 -14.729243292189821, 17.96251297241427 -14.627818466843296, 18.44213982588093 -14.415501886438706 C18.78392885445892 -14.23719076915589, 19.125717883036913 -14.058879651873072, 19.351480832063 -13.941099265974232 C19.61580672432193 -13.780863356735507, 19.88013261658086 -13.620627447496782, 20.228558419368778 -13.409409678269451 C20.52156857024537 -13.205018481222936, 20.81457872112197 -13.00062728417642, 21.069768487859456 -12.822617949887306 C21.31062934236363 -12.63053782799675, 21.551490196867803 -12.438457706106195, 21.871654324924613 -12.183135333906153 C22.03746563937527 -12.032549885249038, 22.20327695382593 -11.881964436591923, 22.630920809655784 -11.493589601563642 C22.855067994767893 -11.262139230109245, 23.079215179880002 -11.03068885865485, 23.344447953205048 -10.756814244181072 C23.48892195222456 -10.587106864129325, 23.633395951244072 -10.417399484077576, 24.00930371948848 -9.975836829739738 C24.17048852826462 -9.75986387021787, 24.33167333704076 -9.543890910696005, 24.62275607355129 -9.153866561954718 C24.840171946452152 -8.819857396842542, 25.057587819353014 -8.485848231730367, 25.182284208085537 -8.294281092968403 C25.285445872352188 -8.111107111811704, 25.388607536618842 -7.927933130655004, 25.685588901968003 -7.400612643853364 C25.851564033427213 -7.0559617320794095, 26.01753916488642 -6.711310820305455, 26.130601968252996 -6.476533489958305 C26.2829809240566 -6.100154523076716, 26.4353598798602 -5.723775556195127, 26.515494752796165 -5.52584087074093 C26.626730010554294 -5.190817997304945, 26.737965268312426 -4.855795123868962, 26.83868564858657 -4.552441386096524 C26.93408946770922 -4.188625275505088, 27.029493286831872 -3.824809164913653, 27.098846594909176 -3.560334943301032 C27.153348194659966 -3.2804807474979114, 27.207849794410755 -3.0006265516947903, 27.2949085346312 -2.5535983205340735 C27.341294852662934 -2.1938351978945296, 27.387681170694663 -1.8340720752549855, 27.42606580718717 -1.536368414522911 C27.44732903205669 -1.2051765238139784, 27.468592256926208 -0.8739846331050459, 27.491779459211006 -0.5128252411464826 C27.491779459211006 -0.24399468009408148, 27.491779459211006 0.024835880958319678, 27.491779459211006 0.5128252411464788 C27.474881064379677 0.7760313807832436, 27.457982669548347 1.0392375204200084, 27.42606580718717 1.5363684145229002 C27.391750860730525 1.8025083629880356, 27.35743591427388 2.0686483114531713, 27.294908534631205 2.5535983205340624 C27.227867867918576 2.897837975053477, 27.160827201205947 3.2420776295728917, 27.098846594909176 3.5603349433010285 C27.026899736379725 3.83469949683956, 26.954952877850275 4.109064050378091, 26.83868564858657 4.552441386096513 C26.738054670314124 4.855525859284107, 26.63742369204168 5.158610332471701, 26.515494752796165 5.525840870740919 C26.4176443116998 5.767533352058528, 26.31979387060343 6.009225833376137, 26.130601968253 6.4765334899583005 C26.03374536835634 6.677658292042965, 25.936888768459678 6.87878309412763, 25.685588901968003 7.400612643853361 C25.500438554218235 7.729365834788803, 25.315288206468466 8.058119025724245, 25.18228420808554 8.294281092968399 C25.046607952708126 8.502716255403941, 24.910931697330714 8.711151417839483, 24.622756073551297 9.15386656195471 C24.474151282795663 9.352983443392313, 24.32554649204003 9.552100324829919, 24.00930371948848 9.975836829739734 C23.832384475012557 10.183656241291349, 23.655465230536635 10.391475652842963, 23.344447953205055 10.756814244181063 C23.085529663600354 11.024168635784829, 22.826611373995654 11.291523027388594, 22.630920809655784 11.493589601563638 C22.46731553194262 11.642171586024295, 22.303710254229454 11.790753570484954, 21.871654324924627 12.183135333906142 C21.57385066242111 12.420625829864415, 21.27604699991759 12.658116325822688, 21.06976848785946 12.822617949887304 C20.901179238347318 12.940218512235987, 20.732589988835176 13.057819074584671, 20.228558419368788 13.409409678269446 C19.90174805786888 13.607524039961552, 19.574937696368973 13.805638401653658, 19.351480832063004 13.94109926597423 C19.143242820538656 14.04973690320367, 18.935004809014313 14.15837454043311, 18.442139825880933 14.415501886438705 C18.171748234307202 14.535196223146814, 17.90135664273347 14.654890559854922, 17.50427207806999 14.830668117536346 C17.12115089410898 14.9716602547674, 16.73802971014797 15.112652391998454, 16.54173148837794 15.184891952170695 C16.23143031420941 15.276987711859816, 15.921129140040874 15.369083471548937, 15.558473342552134 15.476717808624468 C15.17963349269952 15.563185532192271, 14.800793642846907 15.649653255760075, 14.558538059221961 15.704946511857045 C14.229204563732061 15.75819059738845, 13.899871068242163 15.811434682919856, 13.546034586952105 15.868640221171937 C13.16922270703416 15.904990810045033, 12.792410827116216 15.941341398918128, 12.525123519691405 15.967126284005381 C12.254770229048761 15.975795987825535, 11.984416938406115 15.984465691645687, 11.500000000000004 16 C11.500000000000004 16, 11.500000000000002 16, 11.5 16 C3.545443770862838 16, -4.409112458274324 16, -11.499999999999996 16 C-11.874471916932483 15.987991414489343, -12.24894383386497 15.975982828978688, -12.5251235196914 15.967126284005381 C-12.832705797232174 15.937454191612833, -13.14028807477295 15.907782099220285, -13.5460345869521 15.868640221171937 C-13.938472639585655 15.805193880224696, -14.330910692219208 15.741747539277453, -14.558538059221956 15.704946511857045 C-14.839168116488967 15.640894532568115, -15.119798173755978 15.576842553279187, -15.558473342552112 15.476717808624471 C-15.755643163152794 15.418198840835698, -15.952812983753475 15.359679873046924, -16.541731488377923 15.184891952170702 C-16.81099800026096 15.085799386725395, -17.080264512143994 14.986706821280087, -17.504272078069988 14.830668117536348 C-17.726779242115402 14.732170796453952, -17.949286406160816 14.633673475371555, -18.44213982588093 14.415501886438708 C-18.783930167064895 14.237190084370194, -19.12572050824886 14.058878282301682, -19.351480832063 13.941099265974234 C-19.642241860493666 13.7648382218381, -19.93300288892433 13.588577177701962, -20.228558419368767 13.409409678269457 C-20.40279719448141 13.287868251425886, -20.57703596959405 13.166326824582315, -21.069768487859456 12.822617949887308 C-21.28901159302978 12.64777740781803, -21.5082546982001 12.47293686574875, -21.871654324924613 12.183135333906154 C-22.086116725638625 11.988366255941866, -22.300579126352638 11.793597177977578, -22.630920809655777 11.493589601563649 C-22.7972768292747 11.321813353223893, -22.963632848893624 11.15003710488414, -23.344447953205048 10.756814244181069 C-23.53556231737103 10.532320437316319, -23.72667668153701 10.307826630451569, -24.009303719488475 9.97583682973974 C-24.239984917322197 9.666745040132007, -24.470666115155915 9.357653250524274, -24.62275607355129 9.15386656195472 C-24.839485950842047 8.82091127031528, -25.056215828132803 8.48795597867584, -25.182284208085534 8.29428109296841 C-25.319766048920744 8.050168163019505, -25.45724788975596 7.806055233070601, -25.685588901968 7.400612643853366 C-25.822739396948297 7.115816706476294, -25.959889891928594 6.831020769099222, -26.130601968252996 6.476533489958307 C-26.267355028823953 6.138750786407487, -26.40410808939491 5.800968082856667, -26.515494752796165 5.525840870740931 C-26.591664034619765 5.2964311298152165, -26.667833316443364 5.067021388889502, -26.83868564858657 4.552441386096519 C-26.897651582609637 4.327578723669094, -26.956617516632708 4.1027160612416695, -27.098846594909176 3.5603349433010343 C-27.175603668010332 3.166203595539749, -27.252360741111488 2.7720722477784636, -27.2949085346312 2.5535983205340753 C-27.342022513807542 2.1881916017498746, -27.389136492983887 1.8227848829656743, -27.42606580718717 1.5363684145229202 C-27.443935393407944 1.2580351850639773, -27.46180497962872 0.9797019556050344, -27.491779459211006 0.5128252411464846 C-27.491779459211006 0.20988489812210848, -27.491779459211006 -0.09305544490226769, -27.491779459211006 -0.5128252411464769 C-27.469788388699808 -0.8553539152309936, -27.447797318188613 -1.1978825893155103, -27.42606580718717 -1.5363684145228982 C-27.394233497139616 -1.7832535252511394, -27.362401187092058 -2.0301386359793807, -27.294908534631205 -2.5535983205340678 C-27.241569355483975 -2.827483732215586, -27.188230176336745 -3.101369143897104, -27.098846594909176 -3.5603349433010267 C-27.023437139995014 -3.8479038775532306, -26.948027685080852 -4.1354728118054345, -26.838685648586573 -4.552441386096511 C-26.710697840037035 -4.937920273359723, -26.5827100314875 -5.323399160622936, -26.515494752796172 -5.525840870740911 C-26.363574453285153 -5.901086947712305, -26.211654153774134 -6.276333024683699, -26.130601968253 -6.476533489958299 C-25.973023467329288 -6.803748618766181, -25.815444966405575 -7.1309637475740635, -25.685588901968003 -7.400612643853359 C-25.490546775981887 -7.746929688698598, -25.29550464999577 -8.093246733543838, -25.182284208085537 -8.294281092968404 C-24.999562889529027 -8.574990105815338, -24.816841570972517 -8.855699118662272, -24.622756073551294 -9.153866561954715 C-24.412674705865342 -9.435356455847572, -24.20259333817939 -9.716846349740429, -24.00930371948848 -9.975836829739734 C-23.74609041309444 -10.285022156691596, -23.4828771067004 -10.594207483643459, -23.344447953205055 -10.756814244181063 C-23.135185709056113 -10.97289469201461, -22.92592346490717 -11.188975139848155, -22.63092080965579 -11.493589601563633 C-22.361284802963233 -11.73846588866402, -22.091648796270672 -11.983342175764406, -21.871654324924627 -12.18313533390614 C-21.6589587486357 -12.352754395929566, -21.446263172346775 -12.522373457952993, -21.069768487859463 -12.822617949887302 C-20.768142178916662 -13.03301940581333, -20.46651586997386 -13.24342086173936, -20.228558419368788 -13.409409678269444 C-19.896498347984533 -13.610706444944162, -19.564438276600278 -13.812003211618878, -19.351480832063007 -13.941099265974229 C-19.028760048308264 -14.109462492146552, -18.706039264553517 -14.277825718318875, -18.442139825880936 -14.415501886438705 C-18.231743617124412 -14.508638046873434, -18.021347408367888 -14.601774207308164, -17.504272078069995 -14.830668117536344 C-17.235005037666312 -14.929760877482137, -16.965737997262625 -15.028853637427929, -16.54173148837794 -15.184891952170695 C-16.282582106772352 -15.26180612832837, -16.023432725166764 -15.338720304486047, -15.558473342552134 -15.476717808624466 C-15.259806884978984 -15.54488647858476, -14.961140427405834 -15.613055148545055, -14.558538059221963 -15.704946511857043 C-14.317962106151665 -15.74384096625507, -14.077386153081369 -15.782735420653095, -13.546034586952107 -15.868640221171937 C-13.28413737960103 -15.89390512978762, -13.022240172249951 -15.919170038403305, -12.525123519691407 -15.967126284005381 C-12.279373866655435 -15.975006997055564, -12.033624213619461 -15.982887710105745, -11.500000000000005 -16 C-11.500000000000004 -16, -11.500000000000002 -16, -11.5 -16" stroke="none" stroke-width="0" fill="#eee" style=""/><path d="M-11.5 -16 C-4.843406846464419 -16, 1.8131863070711614 -16, 11.5 -16 M-11.5 -16 C-3.196558044843325 -16, 5.10688391031335 -16, 11.5 -16 M11.5 -16 C11.5 -16, 11.499999999999998 -16, 11.499999999999998 -16 M11.5 -16 C11.5 -16, 11.5 -16, 11.499999999999998 -16 M11.499999999999998 -16 C11.792327994590105 -15.99062561019542, 12.084655989180211 -15.981251220390838, 12.525123519691405 -15.967126284005381 M11.499999999999998 -16 C11.850655402153684 -15.988755163762267, 12.201310804307372 -15.977510327524532, 12.525123519691405 -15.967126284005381 M12.525123519691405 -15.967126284005381 C12.879991475883909 -15.932892599062649, 13.234859432076412 -15.898658914119919, 13.546034586952095 -15.868640221171939 M12.525123519691405 -15.967126284005381 C12.901138975679563 -15.930852525190952, 13.277154431667721 -15.894578766376524, 13.546034586952095 -15.868640221171939 M13.546034586952095 -15.868640221171939 C13.88880293920637 -15.81322409218774, 14.231571291460645 -15.757807963203541, 14.558538059221954 -15.704946511857047 M13.546034586952095 -15.868640221171939 C13.941856999628826 -15.80464672313902, 14.337679412305555 -15.740653225106103, 14.558538059221954 -15.704946511857047 M14.558538059221954 -15.704946511857047 C14.774167865498958 -15.655730415690309, 14.989797671775962 -15.60651431952357, 15.558473342552116 -15.476717808624471 M14.558538059221954 -15.704946511857047 C14.802751413300347 -15.649206407429721, 15.046964767378743 -15.593466303002398, 15.558473342552116 -15.476717808624471 M15.558473342552116 -15.476717808624471 C15.80867370455468 -15.40245965451061, 16.058874066557244 -15.32820150039675, 16.54173148837793 -15.184891952170698 M15.558473342552116 -15.476717808624471 C15.938580630349882 -15.363903960829962, 16.31868791814765 -15.251090113035454, 16.54173148837793 -15.184891952170698 M16.54173148837793 -15.184891952170698 C16.734821364641384 -15.113833092802498, 16.927911240904834 -15.042774233434297, 17.504272078069985 -14.830668117536348 M16.54173148837793 -15.184891952170698 C16.82859570040999 -15.079323270399192, 17.115459912442052 -14.973754588627687, 17.504272078069985 -14.830668117536348 M17.504272078069985 -14.830668117536348 C17.732128912075677 -14.729802656254856, 17.95998574608137 -14.628937194973366, 18.44213982588093 -14.415501886438706 M17.504272078069985 -14.830668117536348 C17.769961717362623 -14.713055195624621, 18.03565135665526 -14.595442273712893, 18.44213982588093 -14.415501886438706 M18.44213982588093 -14.415501886438706 C18.687458007148724 -14.287519548405092, 18.93277618841652 -14.159537210371477, 19.351480832063 -13.941099265974232 M18.44213982588093 -14.415501886438706 C18.802849812446144 -14.227319717493407, 19.16355979901136 -14.039137548548107, 19.351480832063 -13.941099265974232 M19.351480832063 -13.941099265974232 C19.663917929133095 -13.751698061646156, 19.976355026203194 -13.562296857318078, 20.228558419368778 -13.409409678269451 M19.351480832063 -13.941099265974232 C19.5875613210771 -13.797985886170936, 19.8236418100912 -13.654872506367642, 20.228558419368778 -13.409409678269451 M20.228558419368778 -13.409409678269451 C20.470952751286728 -13.240325885404998, 20.71334708320468 -13.071242092540546, 21.069768487859456 -12.822617949887306 M20.228558419368778 -13.409409678269451 C20.526053264833184 -13.20189015241778, 20.823548110297587 -12.99437062656611, 21.069768487859456 -12.822617949887306 M21.069768487859456 -12.822617949887306 C21.377065462631656 -12.57755679002241, 21.684362437403852 -12.332495630157515, 21.871654324924613 -12.183135333906153 M21.069768487859456 -12.822617949887306 C21.34600084640521 -12.602329994798843, 21.622233204950966 -12.382042039710383, 21.871654324924613 -12.183135333906153 M21.871654324924613 -12.183135333906153 C22.10236366862818 -11.973611212189306, 22.333073012331745 -11.764087090472461, 22.630920809655784 -11.493589601563642 M21.871654324924613 -12.183135333906153 C22.07527452704606 -11.998212853834778, 22.278894729167508 -11.813290373763403, 22.630920809655784 -11.493589601563642 M22.630920809655784 -11.493589601563642 C22.914180459971533 -11.201100756562838, 23.197440110287282 -10.908611911562033, 23.344447953205048 -10.756814244181072 M22.630920809655784 -11.493589601563642 C22.837902885188793 -11.27986361503137, 23.044884960721806 -11.0661376284991, 23.344447953205048 -10.756814244181072 M23.344447953205048 -10.756814244181072 C23.558865052570145 -10.504947718588246, 23.773282151935238 -10.253081192995422, 24.00930371948848 -9.975836829739738 M23.344447953205048 -10.756814244181072 C23.511113844484115 -10.561039004726808, 23.677779735763185 -10.365263765272543, 24.00930371948848 -9.975836829739738 M24.00930371948848 -9.975836829739738 C24.144458616987166 -9.794741579955955, 24.279613514485856 -9.613646330172175, 24.62275607355129 -9.153866561954718 M24.00930371948848 -9.975836829739738 C24.145691426738367 -9.793089727200629, 24.28207913398825 -9.61034262466152, 24.62275607355129 -9.153866561954718 M24.62275607355129 -9.153866561954718 C24.789535803731937 -8.897648109768975, 24.95631553391258 -8.641429657583231, 25.182284208085537 -8.294281092968403 M24.62275607355129 -9.153866561954718 C24.821265557219803 -8.848902687779798, 25.019775040888316 -8.543938813604878, 25.182284208085537 -8.294281092968403 M25.182284208085537 -8.294281092968403 C25.35731240531025 -7.9835008052690855, 25.532340602534962 -7.672720517569768, 25.685588901968003 -7.400612643853364 M25.182284208085537 -8.294281092968403 C25.369385732486894 -7.962063390310005, 25.556487256888254 -7.629845687651608, 25.685588901968003 -7.400612643853364 M25.685588901968003 -7.400612643853364 C25.85139126322528 -7.056320493100406, 26.017193624482562 -6.712028342347448, 26.130601968252996 -6.476533489958305 M25.685588901968003 -7.400612643853364 C25.816629490937387 -7.128504057038996, 25.94767007990677 -6.856395470224628, 26.130601968252996 -6.476533489958305 M26.130601968252996 -6.476533489958305 C26.263927097503228 -6.147217843044217, 26.397252226753462 -5.817902196130129, 26.515494752796165 -5.52584087074093 M26.130601968252996 -6.476533489958305 C26.27469587938877 -6.120618743586697, 26.418789790524542 -5.76470399721509, 26.515494752796165 -5.52584087074093 M26.515494752796165 -5.52584087074093 C26.625229323583092 -5.195337827360209, 26.73496389437002 -4.8648347839794885, 26.83868564858657 -4.552441386096524 M26.515494752796165 -5.52584087074093 C26.606026598727038 -5.253173375087932, 26.69655844465791 -4.980505879434935, 26.83868564858657 -4.552441386096524 M26.83868564858657 -4.552441386096524 C26.90929056747437 -4.283194230011936, 26.979895486362164 -4.013947073927347, 27.098846594909176 -3.560334943301032 M26.83868564858657 -4.552441386096524 C26.906962397350604 -4.292072551729153, 26.975239146114642 -4.031703717361782, 27.098846594909176 -3.560334943301032 M27.098846594909176 -3.560334943301032 C27.162283393014977 -3.234600392399772, 27.22572019112078 -2.9088658414985122, 27.2949085346312 -2.5535983205340735 M27.098846594909176 -3.560334943301032 C27.17076438395348 -3.1910522963886327, 27.24268217299778 -2.8217696494762334, 27.2949085346312 -2.5535983205340735 M27.2949085346312 -2.5535983205340735 C27.345757136890377 -2.1592266026041553, 27.396605739149553 -1.7648548846742376, 27.42606580718717 -1.536368414522911 M27.2949085346312 -2.5535983205340735 C27.345149497935957 -2.163939330342761, 27.395390461240712 -1.7742803401514493, 27.42606580718717 -1.536368414522911 M27.42606580718717 -1.536368414522911 C27.45198172013955 -1.1327071513411975, 27.477897633091928 -0.7290458881594839, 27.491779459211006 -0.5128252411464826 M27.42606580718717 -1.536368414522911 C27.448584731101995 -1.1856179976013337, 27.471103655016815 -0.8348675806797562, 27.491779459211006 -0.5128252411464826 M27.491779459211006 -0.5128252411464826 C27.491779459211006 -0.2712970565633919, 27.491779459211006 -0.029768871980301204, 27.491779459211006 0.5128252411464788 M27.491779459211006 -0.5128252411464826 C27.491779459211006 -0.12120378717283381, 27.491779459211006 0.270417666800815, 27.491779459211006 0.5128252411464788 M27.491779459211006 0.5128252411464788 C27.47022244298229 0.8485931694190259, 27.448665426753575 1.1843610976915728, 27.42606580718717 1.5363684145229002 M27.491779459211006 0.5128252411464788 C27.466768894351667 0.9023849769953107, 27.441758329492323 1.2919447128441426, 27.42606580718717 1.5363684145229002 M27.42606580718717 1.5363684145229002 C27.397789344683055 1.7556750738857454, 27.369512882178938 1.9749817332485906, 27.294908534631205 2.5535983205340624 M27.42606580718717 1.5363684145229002 C27.39454299507297 1.780853120397318, 27.36302018295877 2.025337826271736, 27.294908534631205 2.5535983205340624 M27.294908534631205 2.5535983205340624 C27.242615595217398 2.8221115123072966, 27.19032265580359 3.0906247040805312, 27.098846594909176 3.5603349433010285 M27.294908534631205 2.5535983205340624 C27.23591221360165 2.856531960143952, 27.176915892572097 3.159465599753841, 27.098846594909176 3.5603349433010285 M27.098846594909176 3.5603349433010285 C27.02766112305827 3.831795999447193, 26.956475651207363 4.103257055593358, 26.83868564858657 4.552441386096513 M27.098846594909176 3.5603349433010285 C27.043263287717096 3.772298183582151, 26.987679980525016 3.9842614238632734, 26.83868564858657 4.552441386096513 M26.83868564858657 4.552441386096513 C26.730901603962227 4.877069755449673, 26.62311755933788 5.201698124802833, 26.515494752796165 5.525840870740919 M26.83868564858657 4.552441386096513 C26.75640512156643 4.8002572238595125, 26.674124594546292 5.048073061622511, 26.515494752796165 5.525840870740919 M26.515494752796165 5.525840870740919 C26.36770821108654 5.890876486022102, 26.219921669376916 6.255912101303286, 26.130601968253 6.4765334899583005 M26.515494752796165 5.525840870740919 C26.43371595291536 5.727836087532048, 26.35193715303455 5.9298313043231765, 26.130601968253 6.4765334899583005 M26.130601968253 6.4765334899583005 C25.958076106463636 6.834787133425996, 25.785550244674273 7.193040776893691, 25.685588901968003 7.400612643853361 M26.130601968253 6.4765334899583005 C25.966499492430486 6.817295792234246, 25.802397016607973 7.15805809451019, 25.685588901968003 7.400612643853361 M25.685588901968003 7.400612643853361 C25.551995042761636 7.637822068719419, 25.418401183555268 7.875031493585478, 25.18228420808554 8.294281092968399 M25.685588901968003 7.400612643853361 C25.52319435536246 7.688960605582501, 25.360799808756912 7.977308567311642, 25.18228420808554 8.294281092968399 M25.18228420808554 8.294281092968399 C24.984845879523114 8.597599385254949, 24.78740755096069 8.9009176775415, 24.622756073551297 9.15386656195471 M25.18228420808554 8.294281092968399 C25.01020530886284 8.558640491828871, 24.838126409640136 8.822999890689344, 24.622756073551297 9.15386656195471 M24.622756073551297 9.15386656195471 C24.4532028495089 9.381052435555045, 24.283649625466502 9.608238309155379, 24.00930371948848 9.975836829739734 M24.622756073551297 9.15386656195471 C24.457065621796502 9.375876672595451, 24.29137517004171 9.597886783236193, 24.00930371948848 9.975836829739734 M24.00930371948848 9.975836829739734 C23.765991979823006 10.261644643980993, 23.522680240157534 10.547452458222253, 23.344447953205055 10.756814244181063 M24.00930371948848 9.975836829739734 C23.773510313853382 10.252813181023585, 23.53771690821829 10.529789532307436, 23.344447953205055 10.756814244181063 M23.344447953205055 10.756814244181063 C23.200436448870608 10.905517945970772, 23.056424944536165 11.05422164776048, 22.630920809655784 11.493589601563638 M23.344447953205055 10.756814244181063 C23.160949254488134 10.94629171612963, 22.97745055577121 11.135769188078196, 22.630920809655784 11.493589601563638 M22.630920809655784 11.493589601563638 C22.404450741273713 11.69926372559858, 22.177980672891646 11.904937849633523, 21.871654324924627 12.183135333906142 M22.630920809655784 11.493589601563638 C22.46734492369067 11.642144893216377, 22.30376903772556 11.790700184869117, 21.871654324924627 12.183135333906142 M21.871654324924627 12.183135333906142 C21.691233065209058 12.327016487317948, 21.51081180549349 12.470897640729756, 21.06976848785946 12.822617949887304 M21.871654324924627 12.183135333906142 C21.63846921362729 12.369094254849351, 21.40528410232995 12.55505317579256, 21.06976848785946 12.822617949887304 M21.06976848785946 12.822617949887304 C20.83101960225893 12.989158837209551, 20.5922707166584 13.1556997245318, 20.228558419368788 13.409409678269446 M21.06976848785946 12.822617949887304 C20.853151662369214 12.973720470158058, 20.63653483687897 13.124822990428813, 20.228558419368788 13.409409678269446 M20.228558419368788 13.409409678269446 C19.90313093140851 13.606685733895162, 19.57770344344823 13.803961789520876, 19.351480832063004 13.94109926597423 M20.228558419368788 13.409409678269446 C20.03355554894697 13.527621564283217, 19.838552678525154 13.64583345029699, 19.351480832063004 13.94109926597423 M19.351480832063004 13.94109926597423 C19.121191647925635 14.061240985831434, 18.890902463788265 14.181382705688637, 18.442139825880933 14.415501886438705 M19.351480832063004 13.94109926597423 C19.12659245330417 14.058423389124833, 18.901704074545336 14.175747512275434, 18.442139825880933 14.415501886438705 M18.442139825880933 14.415501886438705 C18.166950631822278 14.537319979451068, 17.891761437763623 14.659138072463431, 17.50427207806999 14.830668117536346 M18.442139825880933 14.415501886438705 C18.08922951060974 14.571724814296713, 17.736319195338545 14.727947742154722, 17.50427207806999 14.830668117536346 M17.50427207806999 14.830668117536346 C17.2133068706443 14.937746003521893, 16.92234166321861 15.044823889507441, 16.54173148837794 15.184891952170695 M17.50427207806999 14.830668117536346 C17.173571696579845 14.952368914885536, 16.842871315089695 15.074069712234726, 16.54173148837794 15.184891952170695 M16.54173148837794 15.184891952170695 C16.231593526761007 15.276939271231221, 15.92145556514407 15.368986590291748, 15.558473342552134 15.476717808624468 M16.54173148837794 15.184891952170695 C16.259726589264417 15.268589525953667, 15.977721690150895 15.352287099736639, 15.558473342552134 15.476717808624468 M15.558473342552134 15.476717808624468 C15.321157062024502 15.530883701021441, 15.083840781496871 15.585049593418416, 14.558538059221961 15.704946511857045 M15.558473342552134 15.476717808624468 C15.19171716236347 15.560427513444788, 14.824960982174808 15.644137218265108, 14.558538059221961 15.704946511857045 M14.558538059221961 15.704946511857045 C14.349888688366262 15.738679324036957, 14.141239317510562 15.77241213621687, 13.546034586952105 15.868640221171937 M14.558538059221961 15.704946511857045 C14.230906274492517 15.757915477989664, 13.903274489763074 15.810884444122282, 13.546034586952105 15.868640221171937 M13.546034586952105 15.868640221171937 C13.175397334535798 15.904395151156026, 12.804760082119492 15.940150081140114, 12.525123519691405 15.967126284005381 M13.546034586952105 15.868640221171937 C13.267134984674046 15.895545330377855, 12.988235382395986 15.922450439583773, 12.525123519691405 15.967126284005381 M12.525123519691405 15.967126284005381 C12.208141490112755 15.977291280725877, 11.891159460534105 15.987456277446373, 11.500000000000004 16 M12.525123519691405 15.967126284005381 C12.20346174748658 15.977441350963332, 11.881799975281753 15.987756417921283, 11.500000000000004 16 M11.500000000000004 16 C11.500000000000002 16, 11.500000000000002 16, 11.5 16 M11.500000000000004 16 C11.500000000000002 16, 11.500000000000002 16, 11.5 16 M11.5 16 C5.210571780575636 16, -1.078856438848728 16, -11.499999999999996 16 M11.5 16 C5.756161401466876 16, 0.012322802933752541 16, -11.499999999999996 16 M-11.499999999999996 16 C-11.721675957323644 15.992891283514705, -11.943351914647293 15.985782567029412, -12.5251235196914 15.967126284005381 M-11.499999999999996 16 C-11.844548569044019 15.988950998013864, -12.189097138088039 15.977901996027727, -12.5251235196914 15.967126284005381 M-12.5251235196914 15.967126284005381 C-12.757386802419092 15.944720124458106, -12.989650085146783 15.922313964910833, -13.5460345869521 15.868640221171937 M-12.5251235196914 15.967126284005381 C-12.776287666070836 15.942896780873237, -13.027451812450272 15.918667277741093, -13.5460345869521 15.868640221171937 M-13.5460345869521 15.868640221171937 C-13.797085460071331 15.828052262934618, -14.04813633319056 15.7874643046973, -14.558538059221956 15.704946511857045 M-13.5460345869521 15.868640221171937 C-13.94838218427019 15.803591781889766, -14.350729781588283 15.738543342607596, -14.558538059221956 15.704946511857045 M-14.558538059221956 15.704946511857045 C-14.865162785994464 15.634961418884558, -15.17178751276697 15.56497632591207, -15.558473342552112 15.476717808624471 M-14.558538059221956 15.704946511857045 C-14.884509105875875 15.63054574761816, -15.210480152529795 15.556144983379276, -15.558473342552112 15.476717808624471 M-15.558473342552112 15.476717808624471 C-15.874049848539018 15.383056358142442, -16.189626354525924 15.28939490766041, -16.541731488377923 15.184891952170702 M-15.558473342552112 15.476717808624471 C-15.889342400615627 15.378517608958347, -16.22021145867914 15.280317409292223, -16.541731488377923 15.184891952170702 M-16.541731488377923 15.184891952170702 C-16.771359226292457 15.100386821962612, -17.000986964206994 15.015881691754522, -17.504272078069988 14.830668117536348 M-16.541731488377923 15.184891952170702 C-16.743649306107795 15.110584328738263, -16.945567123837666 15.036276705305823, -17.504272078069988 14.830668117536348 M-17.504272078069988 14.830668117536348 C-17.747792903055053 14.722868672104072, -17.99131372804012 14.615069226671794, -18.44213982588093 14.415501886438708 M-17.504272078069988 14.830668117536348 C-17.69915514484798 14.74439916487451, -17.894038211625965 14.65813021221267, -18.44213982588093 14.415501886438708 M-18.44213982588093 14.415501886438708 C-18.720629285643913 14.270214113661373, -18.999118745406893 14.124926340884038, -19.351480832063 13.941099265974234 M-18.44213982588093 14.415501886438708 C-18.669759097786912 14.296753058082459, -18.89737836969289 14.178004229726211, -19.351480832063 13.941099265974234 M-19.351480832063 13.941099265974234 C-19.65941433819292 13.75442816494013, -19.96734784432284 13.567757063906024, -20.228558419368767 13.409409678269457 M-19.351480832063 13.941099265974234 C-19.58946713708818 13.796830569305202, -19.827453442113363 13.65256187263617, -20.228558419368767 13.409409678269457 M-20.228558419368767 13.409409678269457 C-20.520064662300566 13.206067542302106, -20.811570905232365 13.002725406334758, -21.069768487859456 12.822617949887308 M-20.228558419368767 13.409409678269457 C-20.45615391254603 13.250648914679106, -20.68374940572329 13.091888151088755, -21.069768487859456 12.822617949887308 M-21.069768487859456 12.822617949887308 C-21.322326016769207 12.621210041419884, -21.574883545678954 12.41980213295246, -21.871654324924613 12.183135333906154 M-21.069768487859456 12.822617949887308 C-21.38508277283145 12.571163198487662, -21.70039705780344 12.319708447088015, -21.871654324924613 12.183135333906154 M-21.871654324924613 12.183135333906154 C-22.13218061746998 11.94653224816442, -22.39270691001535 11.709929162422684, -22.630920809655777 11.493589601563649 M-21.871654324924613 12.183135333906154 C-22.065297219115475 12.007273980912233, -22.258940113306338 11.831412627918311, -22.630920809655777 11.493589601563649 M-22.630920809655777 11.493589601563649 C-22.86360769224317 11.25332129134382, -23.096294574830562 11.013052981123991, -23.344447953205048 10.756814244181069 M-22.630920809655777 11.493589601563649 C-22.856566878863394 11.260591509219969, -23.082212948071007 11.027593416876288, -23.344447953205048 10.756814244181069 M-23.344447953205048 10.756814244181069 C-23.581807525048628 10.477998184951348, -23.819167096892212 10.199182125721629, -24.009303719488475 9.97583682973974 M-23.344447953205048 10.756814244181069 C-23.515509337562147 10.555875808446709, -23.686570721919242 10.35493737271235, -24.009303719488475 9.97583682973974 M-24.009303719488475 9.97583682973974 C-24.24550156682907 9.659353232369904, -24.481699414169665 9.342869635000067, -24.62275607355129 9.15386656195472 M-24.009303719488475 9.97583682973974 C-24.191397698279733 9.731847487262193, -24.37349167707099 9.487858144784646, -24.62275607355129 9.15386656195472 M-24.62275607355129 9.15386656195472 C-24.77384719897059 8.921750019662653, -24.924938324389892 8.689633477370586, -25.182284208085534 8.29428109296841 M-24.62275607355129 9.15386656195472 C-24.791426451070915 8.89474356774641, -24.960096828590537 8.6356205735381, -25.182284208085534 8.29428109296841 M-25.182284208085534 8.29428109296841 C-25.374955135916224 7.952174350557978, -25.567626063746914 7.6100676081475465, -25.685588901968 7.400612643853366 M-25.182284208085534 8.29428109296841 C-25.304245677199688 8.077726154618299, -25.426207146313843 7.861171216268186, -25.685588901968 7.400612643853366 M-25.685588901968 7.400612643853366 C-25.814311525247568 7.133317362390421, -25.943034148527136 6.8660220809274755, -26.130601968252996 6.476533489958307 M-25.685588901968 7.400612643853366 C-25.828432447949183 7.103994964261176, -25.971275993930366 6.807377284668986, -26.130601968252996 6.476533489958307 M-26.130601968252996 6.476533489958307 C-26.252963155501998 6.174298991760656, -26.375324342751 5.8720644935630055, -26.515494752796165 5.525840870740931 M-26.130601968252996 6.476533489958307 C-26.282594757851655 6.1011083610689445, -26.434587547450317 5.725683232179581, -26.515494752796165 5.525840870740931 M-26.515494752796165 5.525840870740931 C-26.58736580724194 5.3093767058476855, -26.65923686168772 5.0929125409544405, -26.83868564858657 4.552441386096519 M-26.515494752796165 5.525840870740931 C-26.628151168184292 5.1865376969541135, -26.74080758357242 4.847234523167296, -26.83868564858657 4.552441386096519 M-26.83868564858657 4.552441386096519 C-26.909861608440558 4.281016603317125, -26.981037568294546 4.009591820537731, -27.098846594909176 3.5603349433010343 M-26.83868564858657 4.552441386096519 C-26.908976852058352 4.284390562858315, -26.979268055530138 4.0163397396201095, -27.098846594909176 3.5603349433010343 M-27.098846594909176 3.5603349433010343 C-27.14012335507352 3.348387503703484, -27.181400115237864 3.136440064105934, -27.2949085346312 2.5535983205340753 M-27.098846594909176 3.5603349433010343 C-27.162918255148806 3.2313405095207264, -27.226989915388433 2.9023460757404185, -27.2949085346312 2.5535983205340753 M-27.2949085346312 2.5535983205340753 C-27.32938677068826 2.2861919301733233, -27.36386500674532 2.018785539812571, -27.42606580718717 1.5363684145229202 M-27.2949085346312 2.5535983205340753 C-27.332177478116677 2.2645477544460397, -27.369446421602152 1.9754971883580041, -27.42606580718717 1.5363684145229202 M-27.42606580718717 1.5363684145229202 C-27.449023897222585 1.1787776307846287, -27.471981987257998 0.821186847046337, -27.491779459211006 0.5128252411464846 M-27.42606580718717 1.5363684145229202 C-27.442167189601818 1.285576386612838, -27.458268572016465 1.0347843587027556, -27.491779459211006 0.5128252411464846 M-27.491779459211006 0.5128252411464846 C-27.491779459211006 0.22240061237643233, -27.491779459211006 -0.06802401639361999, -27.491779459211006 -0.5128252411464769 M-27.491779459211006 0.5128252411464846 C-27.491779459211006 0.3002976621790872, -27.491779459211006 0.08777008321168978, -27.491779459211006 -0.5128252411464769 M-27.491779459211006 -0.5128252411464769 C-27.47843191968068 -0.7207239432712832, -27.465084380150355 -0.9286226453960895, -27.42606580718717 -1.5363684145228982 M-27.491779459211006 -0.5128252411464769 C-27.475548707920147 -0.7656322937282252, -27.45931795662929 -1.0184393463099735, -27.42606580718717 -1.5363684145228982 M-27.42606580718717 -1.5363684145228982 C-27.390372036406923 -1.8132022521622293, -27.354678265626674 -2.0900360898015604, -27.294908534631205 -2.5535983205340678 M-27.42606580718717 -1.5363684145228982 C-27.378418257818808 -1.9059133983510783, -27.330770708450444 -2.2754583821792584, -27.294908534631205 -2.5535983205340678 M-27.294908534631205 -2.5535983205340678 C-27.2364288328435 -2.8538792295245745, -27.177949131055794 -3.154160138515081, -27.098846594909176 -3.5603349433010267 M-27.294908534631205 -2.5535983205340678 C-27.23851660994504 -2.8431589353600133, -27.182124685258877 -3.1327195501859584, -27.098846594909176 -3.5603349433010267 M-27.098846594909176 -3.5603349433010267 C-27.038606804035023 -3.7900553739946905, -26.97836701316087 -4.019775804688354, -26.838685648586573 -4.552441386096511 M-27.098846594909176 -3.5603349433010267 C-27.031463041082233 -3.8172976382601305, -26.96407948725529 -4.074260333219234, -26.838685648586573 -4.552441386096511 M-26.838685648586573 -4.552441386096511 C-26.714094798858273 -4.927689174622042, -26.589503949129977 -5.302936963147574, -26.515494752796172 -5.525840870740911 M-26.838685648586573 -4.552441386096511 C-26.70954170934855 -4.941402354789037, -26.580397770110526 -5.330363323481564, -26.515494752796172 -5.525840870740911 M-26.515494752796172 -5.525840870740911 C-26.43107453179575 -5.734360448765892, -26.346654310795326 -5.942880026790873, -26.130601968253 -6.476533489958299 M-26.515494752796172 -5.525840870740911 C-26.39765200133854 -5.816914745175868, -26.27980924988091 -6.107988619610825, -26.130601968253 -6.476533489958299 M-26.130601968253 -6.476533489958299 C-25.954224861444914 -6.842784326110817, -25.777847754636824 -7.209035162263335, -25.685588901968003 -7.400612643853359 M-26.130601968253 -6.476533489958299 C-26.04132107717781 -6.66192717058098, -25.952040186102614 -6.847320851203662, -25.685588901968003 -7.400612643853359 M-25.685588901968003 -7.400612643853359 C-25.575874722197078 -7.595421279802038, -25.466160542426156 -7.790229915750718, -25.182284208085537 -8.294281092968404 M-25.685588901968003 -7.400612643853359 C-25.501762012905765 -7.7270158998743685, -25.317935123843526 -8.053419155895378, -25.182284208085537 -8.294281092968404 M-25.182284208085537 -8.294281092968404 C-25.058751476015885 -8.484060542610633, -24.935218743946233 -8.67383999225286, -24.622756073551294 -9.153866561954715 M-25.182284208085537 -8.294281092968404 C-25.04321368177366 -8.507930767048643, -24.90414315546179 -8.721580441128884, -24.622756073551294 -9.153866561954715 M-24.622756073551294 -9.153866561954715 C-24.45293482866908 -9.381411559063206, -24.28311358378686 -9.608956556171698, -24.00930371948848 -9.975836829739734 M-24.622756073551294 -9.153866561954715 C-24.404288713930328 -9.446592921060908, -24.185821354309365 -9.7393192801671, -24.00930371948848 -9.975836829739734 M-24.00930371948848 -9.975836829739734 C-23.83724563160228 -10.177946050153416, -23.66518754371608 -10.380055270567096, -23.344447953205055 -10.756814244181063 M-24.00930371948848 -9.975836829739734 C-23.809792976792075 -10.21019350059379, -23.61028223409567 -10.44455017144785, -23.344447953205055 -10.756814244181063 M-23.344447953205055 -10.756814244181063 C-23.1094101008981 -10.999510123654545, -22.87437224859114 -11.242206003128027, -22.63092080965579 -11.493589601563633 M-23.344447953205055 -10.756814244181063 C-23.169329434060963 -10.937638492695147, -22.99421091491687 -11.118462741209228, -22.63092080965579 -11.493589601563633 M-22.63092080965579 -11.493589601563633 C-22.35140715572131 -11.747436506540906, -22.071893501786832 -12.00128341151818, -21.871654324924627 -12.18313533390614 M-22.63092080965579 -11.493589601563633 C-22.44569717033453 -11.66180481004626, -22.260473531013265 -11.830020018528888, -21.871654324924627 -12.18313533390614 M-21.871654324924627 -12.18313533390614 C-21.650280488562945 -12.359675077399391, -21.428906652201263 -12.53621482089264, -21.069768487859463 -12.822617949887302 M-21.871654324924627 -12.18313533390614 C-21.60251735123316 -12.397764908389428, -21.333380377541697 -12.612394482872716, -21.069768487859463 -12.822617949887302 M-21.069768487859463 -12.822617949887302 C-20.895286032235745 -12.944329357706641, -20.720803576612024 -13.06604076552598, -20.228558419368788 -13.409409678269444 M-21.069768487859463 -12.822617949887302 C-20.78943377137076 -13.018167312615534, -20.509099054882057 -13.213716675343766, -20.228558419368788 -13.409409678269444 M-20.228558419368788 -13.409409678269444 C-20.022873754079143 -13.534096931105289, -19.817189088789497 -13.658784183941131, -19.351480832063007 -13.941099265974229 M-20.228558419368788 -13.409409678269444 C-19.914630287787684 -13.599714756480385, -19.600702156206584 -13.790019834691325, -19.351480832063007 -13.941099265974229 M-19.351480832063007 -13.941099265974229 C-19.010521122084853 -14.118977728274714, -18.669561412106702 -14.2968561905752, -18.442139825880936 -14.415501886438705 M-19.351480832063007 -13.941099265974229 C-18.998615015402613 -14.125189136504614, -18.645749198742216 -14.309279007035002, -18.442139825880936 -14.415501886438705 M-18.442139825880936 -14.415501886438705 C-18.22873415923282 -14.509970244609645, -18.0153284925847 -14.604438602780588, -17.504272078069995 -14.830668117536344 M-18.442139825880936 -14.415501886438705 C-18.19436368235183 -14.525185035160888, -17.946587538822723 -14.634868183883071, -17.504272078069995 -14.830668117536344 M-17.504272078069995 -14.830668117536344 C-17.157682510533768 -14.958216282228518, -16.811092942997544 -15.08576444692069, -16.54173148837794 -15.184891952170695 M-17.504272078069995 -14.830668117536344 C-17.220589322146694 -14.935065994050769, -16.936906566223396 -15.039463870565193, -16.54173148837794 -15.184891952170695 M-16.54173148837794 -15.184891952170695 C-16.332579596498174 -15.246967135819926, -16.123427704618408 -15.309042319469157, -15.558473342552134 -15.476717808624466 M-16.54173148837794 -15.184891952170695 C-16.19310982224218 -15.28836103272732, -15.84448815610642 -15.391830113283946, -15.558473342552134 -15.476717808624466 M-15.558473342552134 -15.476717808624466 C-15.237474735959264 -15.54998364586762, -14.916476129366396 -15.623249483110772, -14.558538059221963 -15.704946511857043 M-15.558473342552134 -15.476717808624466 C-15.208066069875333 -15.556695981991796, -14.85765879719853 -15.636674155359126, -14.558538059221963 -15.704946511857043 M-14.558538059221963 -15.704946511857043 C-14.173596821119023 -15.76718082596964, -13.788655583016082 -15.829415140082238, -13.546034586952107 -15.868640221171937 M-14.558538059221963 -15.704946511857043 C-14.165278992095326 -15.768525588060465, -13.772019924968689 -15.832104664263886, -13.546034586952107 -15.868640221171937 M-13.546034586952107 -15.868640221171937 C-13.180574965956675 -15.903895671279866, -12.81511534496124 -15.939151121387797, -12.525123519691407 -15.967126284005381 M-13.546034586952107 -15.868640221171937 C-13.337311812722925 -15.888775456175964, -13.128589038493743 -15.90891069117999, -12.525123519691407 -15.967126284005381 M-12.525123519691407 -15.967126284005381 C-12.130386469410173 -15.979784732898842, -11.735649419128936 -15.992443181792304, -11.500000000000005 -16 M-12.525123519691407 -15.967126284005381 C-12.3109310934038 -15.97399501821616, -12.096738667116194 -15.980863752426936, -11.500000000000005 -16 M-11.500000000000005 -16 C-11.500000000000004 -16, -11.500000000000002 -16, -11.5 -16 M-11.500000000000005 -16 C-11.500000000000004 -16, -11.500000000000002 -16, -11.5 -16" stroke="#999" stroke-width="1.3" fill="none" stroke-dasharray="0 0" style=""/></g><g class="label" style="" transform="translate(0, -8.5)"><rect/><g><rect class="background" style="stroke: none"/><text y="-10.1" style=""><tspan class="text-outer-tspan row" x="0" y="-0.1em" dy="1.1em"><tspan font-style="normal" class="text-inner-tspan" font-weight="normal">开始</tspan></tspan></text></g></g></g><g class="node default" id="my-svg-flowchart-Request-1" data-look="classic" transform="translate(681.7890625, 113.5)"><rect class="basic label-container" style="" x="-86.08203125" y="-23.5" width="172.1640625" height="47"/><g class="label" style="" transform="translate(0, -8.5)"><rect/><g><rect class="background" style="stroke: none"/><text y="-10.1" style=""><tspan class="text-outer-tspan row" x="0" y="-0.1em" dy="1.1em"><tspan font-style="normal" class="text-inner-tspan" font-weight="normal">请求</tspan><tspan font-style="normal" class="text-inner-tspan" font-weight="normal"> DeepSeek</tspan></tspan></text></g></g></g><g class="node default" id="my-svg-flowchart-Check-3" data-look="classic" transform="translate(681.7890625, 266.5)"><polygon points="79.5,0 159,-79.5 79.5,-159 0,-79.5" class="label-container" transform="translate(-79, 79.5)"/><g class="label" style="" transform="translate(0, -8.5)"><rect/><g><rect class="background" style="stroke: none"/><text y="-10.1" style=""><tspan class="text-outer-tspan row" x="0" y="-0.1em" dy="1.1em"><tspan font-style="normal" class="text-inner-tspan" font-weight="normal">返回什么信号？</tspan></tspan></text></g></g></g><g class="node default" id="my-svg-flowchart-Done-5" data-look="classic" transform="translate(110, 488.5)"><rect class="basic label-container" style="" x="-102" y="-32.29999923706055" width="204" height="64.5999984741211"/><g class="label" style="" transform="translate(0, -17.299999237060547)"><rect/><g><rect class="background" style="stroke: none"/><text y="-10.1" style=""><tspan class="text-outer-tspan row" x="0" y="-0.1em" dy="1.1em"><tspan font-style="normal" class="text-inner-tspan" font-weight="normal">回到</tspan><tspan font-style="normal" class="text-inner-tspan" font-weight="normal"> Agent</tspan><tspan font-style="normal" class="text-inner-tspan" font-weight="normal"> Loop</tspan></tspan><tspan class="text-outer-tspan row" x="0" y="1em" dy="1.1em"><tspan font-style="normal" class="text-inner-tspan" font-weight="normal">执行工具或输出答案</tspan></tspan></text></g></g></g><g class="node default" id="my-svg-flowchart-L1-7" data-look="classic" transform="translate(333.5, 488.5)"><polygon points="71.5,0 143,-71.5 71.5,-143 0,-71.5" class="label-container" transform="translate(-71, 71.5)"/><g class="label" style="" transform="translate(0, -8.5)"><rect/><g><rect class="background" style="stroke: none"/><text y="-10.1" style=""><tspan class="text-outer-tspan row" x="0" y="-0.1em" dy="1.1em"><tspan font-style="normal" class="text-inner-tspan" font-weight="normal">第一次截断？</tspan></tspan></text></g></g></g><g class="node default" id="my-svg-flowchart-L2-9" data-look="classic" transform="translate(221.75, 710.5)"><rect class="basic label-container" style="" x="-118.9140625" y="-32.29999923706055" width="237.828125" height="64.5999984741211"/><g class="label" style="" transform="translate(0, -17.299999237060547)"><rect/><g><rect class="background" style="stroke: none"/><text y="-10.1" style=""><tspan class="text-outer-tspan row" x="0" y="-0.1em" dy="1.1em"><tspan font-style="normal" class="text-inner-tspan" font-weight="normal">扩大输出上限</tspan></tspan><tspan class="text-outer-tspan row" x="0" y="1em" dy="1.1em"><tspan font-style="normal" class="text-inner-tspan" font-weight="normal">用原</tspan><tspan font-style="normal" class="text-inner-tspan" font-weight="normal"> messages</tspan><tspan font-style="normal" class="text-inner-tspan" font-weight="normal"> 重新请求</tspan></tspan></text></g></g></g><g class="node default" id="my-svg-flowchart-L3-11" data-look="classic" transform="translate(470.1640625, 710.5)"><polygon points="79.5,0 159,-79.5 79.5,-159 0,-79.5" class="label-container" transform="translate(-79, 79.5)"/><g class="label" style="" transform="translate(0, -8.5)"><rect/><g><rect class="background" style="stroke: none"/><text y="-10.1" style=""><tspan class="text-outer-tspan row" x="0" y="-0.1em" dy="1.1em"><tspan font-style="normal" class="text-inner-tspan" font-weight="normal">工具调用完整？</tspan></tspan></text></g></g></g><g class="node default" id="my-svg-flowchart-Stop-13" data-look="classic" transform="translate(686.4140625, 1164.099998474121)"><rect class="basic label-container" style="" x="-62" y="-23.5" width="124" height="47"/><g class="label" style="" transform="translate(0, -8.5)"><rect/><g><rect class="background" style="stroke: none"/><text y="-10.1" style=""><tspan class="text-outer-tspan row" x="0" y="-0.1em" dy="1.1em"><tspan font-style="normal" class="text-inner-tspan" font-weight="normal">明确停止</tspan></tspan></text></g></g></g><g class="node default" id="my-svg-flowchart-L4-15" data-look="classic" transform="translate(540.4140625, 956.5)"><polygon points="95.5,0 191,-95.5 95.5,-191 0,-95.5" class="label-container" transform="translate(-95, 95.5)"/><g class="label" style="" transform="translate(0, -8.5)"><rect/><g><rect class="background" style="stroke: none"/><text y="-10.1" style=""><tspan class="text-outer-tspan row" x="0" y="-0.1em" dy="1.1em"><tspan font-style="normal" class="text-inner-tspan" font-weight="normal">续写次数还没用完？</tspan></tspan></text></g></g></g><g class="node default" id="my-svg-flowchart-L5-17" data-look="classic" transform="translate(170.0390625, 1164.099998474121)"><rect class="basic label-container" style="" x="-78" y="-41.099998474121094" width="156" height="82.19999694824219"/><g class="label" style="" transform="translate(0, -26.099998474121094)"><rect/><g><rect class="background" style="stroke: none"/><text y="-10.1" style=""><tspan class="text-outer-tspan row" x="0" y="-0.1em" dy="1.1em"><tspan font-style="normal" class="text-inner-tspan" font-weight="normal">保存文本片段</tspan></tspan><tspan class="text-outer-tspan row" x="0" y="1em" dy="1.1em"><tspan font-style="normal" class="text-inner-tspan" font-weight="normal">追加续写提示</tspan></tspan><tspan class="text-outer-tspan row" x="0" y="2.1em" dy="1.1em"><tspan font-style="normal" class="text-inner-tspan" font-weight="normal">重新请求</tspan></tspan></text></g></g></g><g class="node default" id="my-svg-flowchart-C1-21" data-look="classic" transform="translate(770.2890625, 956.5)"><polygon points="71.5,0 143,-71.5 71.5,-143 0,-71.5" class="label-container" transform="translate(-71, 71.5)"/><g class="label" style="" transform="translate(0, -8.5)"><rect/><g><rect class="background" style="stroke: none"/><text y="-10.1" style=""><tspan class="text-outer-tspan row" x="0" y="-0.1em" dy="1.1em"><tspan font-style="normal" class="text-inner-tspan" font-weight="normal">已经压缩过？</tspan></tspan></text></g></g></g><g class="node default" id="my-svg-flowchart-C2-23" data-look="classic" transform="translate(388.7890625, 1164.099998474121)"><rect class="basic label-container" style="" x="-90.75" y="-32.29999923706055" width="181.5" height="64.5999984741211"/><g class="label" style="" transform="translate(0, -17.299999237060547)"><rect/><g><rect class="background" style="stroke: none"/><text y="-10.1" style=""><tspan class="text-outer-tspan row" x="0" y="-0.1em" dy="1.1em"><tspan font-style="normal" class="text-inner-tspan" font-weight="normal">reactive</tspan><tspan font-style="normal" class="text-inner-tspan" font-weight="normal"> compact</tspan></tspan><tspan class="text-outer-tspan row" x="0" y="1em" dy="1.1em"><tspan font-style="normal" class="text-inner-tspan" font-weight="normal">重新请求</tspan></tspan></text></g></g></g><g class="node default" id="my-svg-flowchart-R1-27" data-look="classic" transform="translate(1001.7890625, 956.5)"><polygon points="95.5,0 191,-95.5 95.5,-191 0,-95.5" class="label-container" transform="translate(-95, 95.5)"/><g class="label" style="" transform="translate(0, -8.5)"><rect/><g><rect class="background" style="stroke: none"/><text y="-10.1" style=""><tspan class="text-outer-tspan row" x="0" y="-0.1em" dy="1.1em"><tspan font-style="normal" class="text-inner-tspan" font-weight="normal">重试次数还没用完？</tspan></tspan></text></g></g></g><g class="node default" id="my-svg-flowchart-R2-29" data-look="classic" transform="translate(1067.0390625, 1164.099998474121)"><rect class="basic label-container" style="" x="-94" y="-41.099998474121094" width="188" height="82.19999694824219"/><g class="label" style="" transform="translate(0, -26.099998474121094)"><rect/><g><rect class="background" style="stroke: none"/><text y="-10.1" style=""><tspan class="text-outer-tspan row" x="0" y="-0.1em" dy="1.1em"><tspan font-style="normal" class="text-inner-tspan" font-weight="normal">等待</tspan><tspan font-style="normal" class="text-inner-tspan" font-weight="normal"> +</tspan><tspan font-style="normal" class="text-inner-tspan" font-weight="normal"> 抖动</tspan></tspan><tspan class="text-outer-tspan row" x="0" y="1em" dy="1.1em"><tspan font-style="normal" class="text-inner-tspan" font-weight="normal">必要时切备用模型</tspan></tspan><tspan class="text-outer-tspan row" x="0" y="2.1em" dy="1.1em"><tspan font-style="normal" class="text-inner-tspan" font-weight="normal">重新请求</tspan></tspan></text></g></g></g></g></g></g><defs><filter id="my-svg-drop-shadow" height="130%" width="130%"><feDropShadow dx="4" dy="4" stdDeviation="0" flood-opacity="0.06" flood-color="#000000"/></filter></defs><defs><filter id="my-svg-drop-shadow-small" height="150%" width="150%"><feDropShadow dx="2" dy="2" stdDeviation="0" flood-opacity="0.06" flood-color="#000000"/></filter></defs><linearGradient id="my-svg-gradient" gradientUnits="objectBoundingBox" x1="0%" y1="0%" x2="100%" y2="0%"><stop offset="0%" stop-color="hsl(0, 0%, 83.3333333333%)" stop-opacity="1"/><stop offset="100%" stop-color="hsl(0, 0%, 88.9215686275%)" stop-opacity="1"/></linearGradient></svg>