<svg width="1177.36328125" height="1235.199951171875" id="my-svg" xmlns="http://www.w3.org/2000/svg" xmlns:xlink="http://www.w3.org/1999/xlink" class="flowchart" style="max-width: 1177.36px; background-color: white;" viewBox="0 0 1177.36328125 1235.199951171875" role="graphics-document document" aria-roledescription="flowchart-v2"><style>#my-svg{font-family:"trebuchet ms",verdana,arial,sans-serif;font-size:16px;fill:#000000;}@keyframes edge-animation-frame{from{stroke-dashoffset:0;}}@keyframes dash{to{stroke-dashoffset:0;}}#my-svg .edge-animation-slow{stroke-dasharray:9,5!important;stroke-dashoffset:900;animation:dash 50s linear infinite;stroke-linecap:round;}#my-svg .edge-animation-fast{stroke-dasharray:9,5!important;stroke-dashoffset:900;animation:dash 20s linear infinite;stroke-linecap:round;}#my-svg .error-icon{fill:#552222;}#my-svg .error-text{fill:#552222;stroke:#552222;}#my-svg .edge-thickness-normal{stroke-width:1px;}#my-svg .edge-thickness-thick{stroke-width:3.5px;}#my-svg .edge-pattern-solid{stroke-dasharray:0;}#my-svg .edge-thickness-invisible{stroke-width:0;fill:none;}#my-svg .edge-pattern-dashed{stroke-dasharray:3;}#my-svg .edge-pattern-dotted{stroke-dasharray:2;}#my-svg .marker{fill:#666;stroke:#666;}#my-svg .marker.cross{stroke:#666;}#my-svg svg{font-family:"trebuchet ms",verdana,arial,sans-serif;font-size:16px;}#my-svg p{margin:0;}#my-svg .label{font-family:"trebuchet ms",verdana,arial,sans-serif;color:#000000;}#my-svg .cluster-label text{fill:#333;}#my-svg .cluster-label span{color:#333;}#my-svg .cluster-label span p{background-color:transparent;}#my-svg .label text,#my-svg span{fill:#000000;color:#000000;}#my-svg .node rect,#my-svg .node circle,#my-svg .node ellipse,#my-svg .node polygon,#my-svg .node path{fill:#eee;stroke:#999;stroke-width:1px;}#my-svg .rough-node .label text,#my-svg .node .label text,#my-svg .image-shape .label,#my-svg .icon-shape .label{text-anchor:middle;}#my-svg .node .katex path{fill:#000;stroke:#000;stroke-width:1px;}#my-svg .rough-node .label,#my-svg .node .label,#my-svg .image-shape .label,#my-svg .icon-shape .label{text-align:center;}#my-svg .node.clickable{cursor:pointer;}#my-svg .root .anchor path{fill:#666!important;stroke-width:0;stroke:#666;}#my-svg .arrowheadPath{fill:#333333;}#my-svg .edgePath .path{stroke:#666;stroke-width:1px;}#my-svg .flowchart-link{stroke:#666;fill:none;}#my-svg .edgeLabel{background-color:white;text-align:center;}#my-svg .edgeLabel p{background-color:white;}#my-svg .edgeLabel rect{opacity:0.5;background-color:white;fill:white;}#my-svg .labelBkg{background-color:rgba(255, 255, 255, 0.5);}#my-svg .cluster rect{fill:hsl(0, 0%, 98.9215686275%);stroke:#707070;stroke-width:1px;}#my-svg .cluster text{fill:#333;}#my-svg .cluster span{color:#333;}#my-svg div.mermaidTooltip{position:absolute;text-align:center;max-width:200px;padding:2px;font-family:"trebuchet ms",verdana,arial,sans-serif;font-size:12px;background:hsl(-160, 0%, 93.3333333333%);border:1px solid #707070;border-radius:2px;pointer-events:none;z-index:100;}#my-svg .flowchartTitleText{text-anchor:middle;font-size:18px;fill:#000000;}#my-svg rect.text{fill:none;stroke-width:0;}#my-svg .icon-shape,#my-svg .image-shape{background-color:white;text-align:center;}#my-svg .icon-shape p,#my-svg .image-shape p{background-color:white;padding:2px;}#my-svg .icon-shape .label rect,#my-svg .image-shape .label rect{opacity:0.5;background-color:white;fill:white;}#my-svg .label-icon{display:inline-block;height:1em;overflow:visible;vertical-align:-0.125em;}#my-svg .node .label-icon path{fill:currentColor;stroke:revert;stroke-width:revert;}#my-svg .node .neo-node{stroke:#999;}#my-svg [data-look="neo"].node rect,#my-svg [data-look="neo"].cluster rect,#my-svg [data-look="neo"].node polygon{stroke:url(#my-svg-gradient);filter:drop-shadow( 1px 2px 2px rgba(185,185,185,1));}#my-svg [data-look="neo"].node path{stroke:url(#my-svg-gradient);stroke-width:1px;}#my-svg [data-look="neo"].node .outer-path{filter:drop-shadow( 1px 2px 2px rgba(185,185,185,1));}#my-svg [data-look="neo"].node .neo-line path{stroke:#999;filter:none;}#my-svg [data-look="neo"].node circle{stroke:url(#my-svg-gradient);filter:drop-shadow( 1px 2px 2px rgba(185,185,185,1));}#my-svg [data-look="neo"].node circle .state-start{fill:#000000;}#my-svg [data-look="neo"].icon-shape .icon{fill:url(#my-svg-gradient);filter:drop-shadow( 1px 2px 2px rgba(185,185,185,1));}#my-svg [data-look="neo"].icon-shape .icon-neo path{stroke:url(#my-svg-gradient);filter:drop-shadow( 1px 2px 2px rgba(185,185,185,1));}#my-svg :root{--mermaid-font-family:"trebuchet ms",verdana,arial,sans-serif;}</style><g><marker id="my-svg_flowchart-v2-pointEnd" class="marker flowchart-v2" viewBox="0 0 10 10" refX="5" refY="5" markerUnits="userSpaceOnUse" markerWidth="8" markerHeight="8" orient="auto"><path d="M 0 0 L 10 5 L 0 10 z" class="arrowMarkerPath" style="stroke-width: 1; stroke-dasharray: 1, 0;"/></marker><marker id="my-svg_flowchart-v2-pointStart" class="marker flowchart-v2" viewBox="0 0 10 10" refX="4.5" refY="5" markerUnits="userSpaceOnUse" markerWidth="8" markerHeight="8" orient="auto"><path d="M 0 5 L 10 10 L 10 0 z" class="arrowMarkerPath" style="stroke-width: 1; stroke-dasharray: 1, 0;"/></marker><marker id="my-svg_flowchart-v2-pointEnd-margin" class="marker flowchart-v2" viewBox="0 0 11.5 14" refX="11.5" refY="7" markerUnits="userSpaceOnUse" markerWidth="10.5" markerHeight="14" orient="auto"><path d="M 0 0 L 11.5 7 L 0 14 z" class="arrowMarkerPath" style="stroke-width: 0; stroke-dasharray: 1, 0;"/></marker><marker id="my-svg_flowchart-v2-pointStart-margin" class="marker flowchart-v2" viewBox="0 0 11.5 14" refX="1" refY="7" markerUnits="userSpaceOnUse" markerWidth="11.5" markerHeight="14" orient="auto"><polygon points="0,7 11.5,14 11.5,0" class="arrowMarkerPath" style="stroke-width: 0; stroke-dasharray: 1, 0;"/></marker><marker id="my-svg_flowchart-v2-circleEnd" class="marker flowchart-v2" viewBox="0 0 10 10" refX="11" refY="5" markerUnits="userSpaceOnUse" markerWidth="11" markerHeight="11" orient="auto"><circle cx="5" cy="5" r="5" class="arrowMarkerPath" style="stroke-width: 1; stroke-dasharray: 1, 0;"/></marker><marker id="my-svg_flowchart-v2-circleStart" class="marker flowchart-v2" viewBox="0 0 10 10" refX="-1" refY="5" markerUnits="userSpaceOnUse" markerWidth="11" markerHeight="11" orient="auto"><circle cx="5" cy="5" r="5" class="arrowMarkerPath" style="stroke-width: 1; stroke-dasharray: 1, 0;"/></marker><marker id="my-svg_flowchart-v2-circleEnd-margin" class="marker flowchart-v2" viewBox="0 0 10 10" refY="5" refX="12.25" markerUnits="userSpaceOnUse" markerWidth="14" markerHeight="14" orient="auto"><circle cx="5" cy="5" r="5" class="arrowMarkerPath" style="stroke-width: 0; stroke-dasharray: 1, 0;"/></marker><marker id="my-svg_flowchart-v2-circleStart-margin" class="marker flowchart-v2" viewBox="0 0 10 10" refX="-2" refY="5" markerUnits="userSpaceOnUse" markerWidth="14" markerHeight="14" orient="auto"><circle cx="5" cy="5" r="5" class="arrowMarkerPath" style="stroke-width: 0; stroke-dasharray: 1, 0;"/></marker><marker id="my-svg_flowchart-v2-crossEnd" class="marker cross flowchart-v2" viewBox="0 0 11 11" refX="12" refY="5.2" markerUnits="userSpaceOnUse" markerWidth="11" markerHeight="11" orient="auto"><path d="M 1,1 l 9,9 M 10,1 l -9,9" class="arrowMarkerPath" style="stroke-width: 2; stroke-dasharray: 1, 0;"/></marker><marker id="my-svg_flowchart-v2-crossStart" class="marker cross flowchart-v2" viewBox="0 0 11 11" refX="-1" refY="5.2" markerUnits="userSpaceOnUse" markerWidth="11" markerHeight="11" orient="auto"><path d="M 1,1 l 9,9 M 10,1 l -9,9" class="arrowMarkerPath" style="stroke-width: 2; stroke-dasharray: 1, 0;"/></marker><marker id="my-svg_flowchart-v2-crossEnd-margin" class="marker cross flowchart-v2" viewBox="0 0 15 15" refX="17.7" refY="7.5" markerUnits="userSpaceOnUse" markerWidth="12" markerHeight="12" orient="auto"><path d="M 1,1 L 14,14 M 1,14 L 14,1" class="arrowMarkerPath" style="stroke-width: 2.5;"/></marker><marker id="my-svg_flowchart-v2-crossStart-margin" class="marker cross flowchart-v2" viewBox="0 0 15 15" refX="-3.5" refY="7.5" markerUnits="userSpaceOnUse" markerWidth="12" markerHeight="12" orient="auto"><path d="M 1,1 L 14,14 M 1,14 L 14,1" class="arrowMarkerPath" style="stroke-width: 2.5; stroke-dasharray: 1, 0;"/></marker><g class="root"><g class="clusters"/><g class="edgePaths"><path d="M682.363,42.5L682.28,46.583C682.197,50.667,682.03,58.833,681.947,66.417C681.863,74,681.863,81,681.863,84.5L681.863,88" id="my-svg-L_Start_Request_0" class="edge-thickness-normal edge-pattern-solid edge-thickness-normal edge-pattern-solid flowchart-link" style=";" data-edge="true" data-et="edge" data-id="L_Start_Request_0" data-points="W3sieCI6NjgyLjM2MzI4MTI1LCJ5Ijo0Mi41fSx7IngiOjY4MS44NjMyODEyNSwieSI6Njd9LHsieCI6NjgxLjg2MzI4MTI1LCJ5Ijo5Mn1d" data-look="classic" marker-end="url(#my-svg_flowchart-v2-pointEnd)"/><path d="M681.863,141L681.863,145.167C681.863,149.333,681.863,157.667,681.863,165.333C681.863,173,681.863,180,681.863,183.5L681.863,187" id="my-svg-L_Request_Check_0" class="edge-thickness-normal edge-pattern-solid edge-thickness-normal edge-pattern-solid flowchart-link" style=";" data-edge="true" data-et="edge" data-id="L_Request_Check_0" data-points="W3sieCI6NjgxLjg2MzI4MTI1LCJ5IjoxNDF9LHsieCI6NjgxLjg2MzI4MTI1LCJ5IjoxNjZ9LHsieCI6NjgxLjg2MzI4MTI1LCJ5IjoxOTF9XQ==" data-look="classic" marker-end="url(#my-svg_flowchart-v2-pointEnd)"/><path d="M615.036,285.173L530.863,302.394C446.691,319.615,278.345,354.058,194.173,383.229C110,412.4,110,436.3,110,448.25L110,460.2" id="my-svg-L_Check_Done_0" class="edge-thickness-normal edge-pattern-solid edge-thickness-normal edge-pattern-solid flowchart-link" style=";" data-edge="true" data-et="edge" data-id="L_Check_Done_0" data-points="W3sieCI6NjE1LjAzNTgwNTYxOTI5MDQsInkiOjI4NS4xNzI1MjQzNjkyOTA0NH0seyJ4IjoxMTAsInkiOjM4OC41fSx7IngiOjExMCwieSI6NDY0LjIwMDAwMDc2MjkzOTQ1fV0=" data-look="classic" marker-end="url(#my-svg_flowchart-v2-pointEnd)"/><path d="M621.646,291.783L573.788,307.902C525.931,324.022,430.215,356.261,382.358,377.797C334.5,399.333,334.5,410.167,334.5,415.583L334.5,421" id="my-svg-L_Check_L1_0" class="edge-thickness-normal edge-pattern-solid edge-thickness-normal edge-pattern-solid flowchart-link" style=";" data-edge="true" data-et="edge" data-id="L_Check_L1_0" data-points="W3sieCI6NjIxLjY0NTg5MjY4ODcxNCwieSI6MjkxLjc4MjYxMTQzODcxMzk2fSx7IngiOjMzNC41LCJ5IjozODguNX0seyJ4IjozMzQuNSwieSI6NDI1fV0=" data-look="classic" marker-end="url(#my-svg_flowchart-v2-pointEnd)"/><path d="M297.718,533.218L285.14,545.431C272.562,557.645,247.406,582.073,234.828,607.57C222.25,633.067,222.25,659.633,222.25,672.917L222.25,686.2" id="my-svg-L_L1_L2_0" class="edge-thickness-normal edge-pattern-solid edge-thickness-normal edge-pattern-solid flowchart-link" style=";" data-edge="true" data-et="edge" data-id="L_L1_L2_0" data-points="W3sieCI6Mjk3LjcxNzUxNDEyNDI5Mzc2LCJ5Ijo1MzMuMjE3NTE0MTI0MjkzOH0seyJ4IjoyMjIuMjUsInkiOjYwNi41fSx7IngiOjIyMi4yNSwieSI6NjkwLjIwMDAwMDc2MjkzOTV9XQ==" data-look="classic" marker-end="url(#my-svg_flowchart-v2-pointEnd)"/><path d="M374.53,529.97L390.254,542.725C405.978,555.48,437.427,580.99,453.151,599.162C468.875,617.333,468.875,628.167,468.875,633.583L468.875,639" id="my-svg-L_L1_L3_0" class="edge-thickness-normal edge-pattern-solid edge-thickness-normal edge-pattern-solid flowchart-link" style=";" data-edge="true" data-et="edge" data-id="L_L1_L3_0" data-points="W3sieCI6Mzc0LjUyOTUzMjYxNDI3ODM3LCJ5Ijo1MjkuOTcwNDY3Mzg1NzIxNn0seyJ4Ijo0NjguODc1LCJ5Ijo2MDYuNX0seyJ4Ijo0NjguODc1LCJ5Ijo2NDN9XQ==" data-look="classic" marker-end="url(#my-svg_flowchart-v2-pointEnd)"/><path d="M430.755,765.88L419.569,778.317C408.382,790.753,386.01,815.627,374.823,850.23C363.637,884.833,363.637,929.167,363.637,973.5C363.637,1017.833,363.637,1062.167,406.525,1094.763C449.413,1127.359,535.189,1148.218,578.077,1158.648L620.965,1169.078" id="my-svg-L_L3_Stop_0" class="edge-thickness-normal edge-pattern-solid edge-thickness-normal edge-pattern-solid flowchart-link" style=";" data-edge="true" data-et="edge" data-id="L_L3_Stop_0" data-points="W3sieCI6NDMwLjc1NTE4NzM2OTI3MjE2LCJ5Ijo3NjUuODgwMTg3MzY5MjcyMX0seyJ4IjozNjMuNjM2NzE4NzUsInkiOjg0MC41fSx7IngiOjM2My42MzY3MTg3NSwieSI6OTczLjV9LHsieCI6MzYzLjYzNjcxODc1LCJ5IjoxMTA2LjV9LHsieCI6NjI0Ljg1MTU2MjUsInkiOjExNzAuMDIyNzIwOTMwNjI3OX1d" data-look="classic" marker-end="url(#my-svg_flowchart-v2-pointEnd)"/><path d="M499.21,773.665L505.946,784.804C512.682,795.943,526.153,818.222,532.889,834.778C539.625,851.333,539.625,862.167,539.625,867.583L539.625,873" id="my-svg-L_L3_L4_0" class="edge-thickness-normal edge-pattern-solid edge-thickness-normal edge-pattern-solid flowchart-link" style=";" data-edge="true" data-et="edge" data-id="L_L3_L4_0" data-points="W3sieCI6NDk5LjIwOTg4NjgxNzU3NjU1LCJ5Ijo3NzMuNjY1MTEzMTgyNDIzNH0seyJ4Ijo1MzkuNjI1LCJ5Ijo4NDAuNX0seyJ4Ijo1MzkuNjI1LCJ5Ijo4Nzd9XQ==" data-look="classic" marker-end="url(#my-svg_flowchart-v2-pointEnd)"/><path d="M500.617,1030.992L492.079,1043.577C483.54,1056.162,466.464,1081.331,424.363,1103.229C382.263,1125.128,315.139,1143.756,281.577,1153.07L248.014,1162.384" id="my-svg-L_L4_L5_0" class="edge-thickness-normal edge-pattern-solid edge-thickness-normal edge-pattern-solid flowchart-link" style=";" data-edge="true" data-et="edge" data-id="L_L4_L5_0" data-points="W3sieCI6NTAwLjYxNzM3OTU2OTE5NjMsInkiOjEwMzAuOTkyMzc5NTY5MTk2NH0seyJ4Ijo0NDkuMzg2NzE4NzUsInkiOjExMDYuNX0seyJ4IjoyNDQuMTYwMTU2MjUsInkiOjExNjMuNDUzNzI0MTAzMjkzfV0=" data-look="classic" marker-end="url(#my-svg_flowchart-v2-pointEnd)"/><path d="M578.442,1031.183L586.889,1043.736C595.336,1056.289,612.231,1081.394,626.905,1102.427C641.58,1123.459,654.035,1140.417,660.263,1148.897L666.49,1157.376" id="my-svg-L_L4_Stop_0" class="edge-thickness-normal edge-pattern-solid edge-thickness-normal edge-pattern-solid flowchart-link" style=";" data-edge="true" data-et="edge" data-id="L_L4_Stop_0" data-points="W3sieCI6NTc4LjQ0MTg1MzkzMjU4NDMsInkiOjEwMzEuMTgzMTQ2MDY3NDE1N30seyJ4Ijo2MjkuMTI1LCJ5IjoxMTA2LjV9LHsieCI6NjY4Ljg1NzkxMzUzNDI3MzIsInkiOjExNjAuNTk5OTk4NDc0MTIxfV0=" data-look="classic" marker-end="url(#my-svg_flowchart-v2-pointEnd)"/><path d="M716.753,317.11L725.855,329.008C734.957,340.907,753.16,364.703,762.262,394.768C771.363,424.833,771.363,461.167,771.363,497.5C771.363,533.833,771.363,570.167,771.363,607.833C771.363,645.5,771.363,684.5,771.363,723.5C771.363,762.5,771.363,801.5,771.363,830.417C771.363,859.333,771.363,878.167,771.363,887.583L771.363,897" id="my-svg-L_Check_C1_0" class="edge-thickness-normal edge-pattern-solid edge-thickness-normal edge-pattern-solid flowchart-link" style=";" data-edge="true" data-et="edge" data-id="L_Check_C1_0" data-points="W3sieCI6NzE2Ljc1MzExMTc1ODQ3NDYsInkiOjMxNy4xMTAxNjk0OTE1MjU0fSx7IngiOjc3MS4zNjMyODEyNSwieSI6Mzg4LjV9LHsieCI6NzcxLjM2MzI4MTI1LCJ5Ijo0OTcuNX0seyJ4Ijo3NzEuMzYzMjgxMjUsInkiOjYwNi41fSx7IngiOjc3MS4zNjMyODEyNSwieSI6NzIzLjV9LHsieCI6NzcxLjM2MzI4MTI1LCJ5Ijo4NDAuNX0seyJ4Ijo3NzEuMzYzMjgxMjUsInkiOjkwMX1d" data-look="classic" marker-end="url(#my-svg_flowchart-v2-pointEnd)"/><path d="M739.854,1014.49L728.066,1029.825C716.277,1045.16,692.701,1075.83,649.887,1099.798C607.072,1123.766,545.02,1141.031,513.993,1149.664L482.967,1158.297" id="my-svg-L_C1_C2_0" class="edge-thickness-normal edge-pattern-solid edge-thickness-normal edge-pattern-solid flowchart-link" style=";" data-edge="true" data-et="edge" data-id="L_C1_C2_0" data-points="W3sieCI6NzM5Ljg1MzYzMzQ1MjcyLCJ5IjoxMDE0LjQ5MDM1MjIwMjcyfSx7IngiOjY2OS4xMjUsInkiOjExMDYuNX0seyJ4Ijo0NzkuMTEzMjgxMjUsInkiOjExNTkuMzY5MTY5NDMxNDg0Nn1d" data-look="classic" marker-end="url(#my-svg_flowchart-v2-pointEnd)"/><path d="M800.526,1016.837L810.582,1031.781C820.639,1046.725,840.751,1076.612,831.453,1100.298C822.155,1123.984,783.446,1141.469,764.092,1150.211L744.737,1158.953" id="my-svg-L_C1_Stop_0" class="edge-thickness-normal edge-pattern-solid edge-thickness-normal edge-pattern-solid flowchart-link" style=";" data-edge="true" data-et="edge" data-id="L_C1_Stop_0" data-points="W3sieCI6ODAwLjUyNjIwMjU5ODMxNDYsInkiOjEwMTYuODM3MDc4NjUxNjg1NH0seyJ4Ijo4NjAuODYzMjgxMjUsInkiOjExMDYuNX0seyJ4Ijo3NDEuMDkxODU3NTY1MzgzMiwieSI6MTE2MC41OTk5OTg0NzQxMjF9XQ==" data-look="classic" marker-end="url(#my-svg_flowchart-v2-pointEnd)"/><path d="M740.909,292.954L784.735,308.879C828.56,324.803,916.212,356.651,960.038,390.742C1003.863,424.833,1003.863,461.167,1003.863,497.5C1003.863,533.833,1003.863,570.167,1003.863,607.833C1003.863,645.5,1003.863,684.5,1003.863,723.5C1003.863,762.5,1003.863,801.5,1003.863,826.417C1003.863,851.333,1003.863,862.167,1003.863,867.583L1003.863,873" id="my-svg-L_Check_R1_0" class="edge-thickness-normal edge-pattern-solid edge-thickness-normal edge-pattern-solid flowchart-link" style=";" data-edge="true" data-et="edge" data-id="L_Check_R1_0" data-points="W3sieCI6NzQwLjkwODgzOTMzNjU2MDQsInkiOjI5Mi45NTQ0NDE5MTM0Mzk2fSx7IngiOjEwMDMuODYzMjgxMjUsInkiOjM4OC41fSx7IngiOjEwMDMuODYzMjgxMjUsInkiOjQ5Ny41fSx7IngiOjEwMDMuODYzMjgxMjUsInkiOjYwNi41fSx7IngiOjEwMDMuODYzMjgxMjUsInkiOjcyMy41fSx7IngiOjEwMDMuODYzMjgxMjUsInkiOjg0MC41fSx7IngiOjEwMDMuODYzMjgxMjUsInkiOjg3N31d" data-look="classic" marker-end="url(#my-svg_flowchart-v2-pointEnd)"/><path d="M991.249,1057.386L990.018,1065.571C988.787,1073.757,986.325,1090.129,991.239,1103.947C996.154,1117.766,1008.444,1129.031,1014.59,1134.664L1020.735,1140.297" id="my-svg-L_R1_R2_0" class="edge-thickness-normal edge-pattern-solid edge-thickness-normal edge-pattern-solid flowchart-link" style=";" data-edge="true" data-et="edge" data-id="L_R1_R2_0" data-points="W3sieCI6OTkxLjI0ODkwMjE2NTAzMjYsInkiOjEwNTcuMzg1NjIwOTE1MDMyNn0seyJ4Ijo5ODMuODYzMjgxMjUsInkiOjExMDYuNX0seyJ4IjoxMDIzLjY4MzU3NDY0MzkwNTEsInkiOjExNDN9XQ==" data-look="classic" marker-end="url(#my-svg_flowchart-v2-pointEnd)"/><path d="M1030.516,1043.348L1034.532,1053.873C1038.548,1064.398,1046.581,1085.449,1000.289,1106.727C953.997,1128.004,853.38,1149.509,803.072,1160.261L752.763,1171.013" id="my-svg-L_R1_Stop_0" class="edge-thickness-normal edge-pattern-solid edge-thickness-normal edge-pattern-solid flowchart-link" style=";" data-edge="true" data-et="edge" data-id="L_R1_Stop_0" data-points="W3sieCI6MTAzMC41MTU2NjIyMDIzODEsInkiOjEwNDMuMzQ3NjE5MDQ3NjE5fSx7IngiOjEwNTQuNjEzMjgxMjUsInkiOjExMDYuNX0seyJ4Ijo3NDguODUxNTYyNSwieSI6MTE3MS44NDkwMjczNzgwNTZ9XQ==" data-look="classic" marker-end="url(#my-svg_flowchart-v2-pointEnd)"/><path d="M745.854,288.009L810.772,304.758C875.69,321.506,1005.527,355.003,1070.445,389.918C1135.363,424.833,1135.363,461.167,1135.363,497.5C1135.363,533.833,1135.363,570.167,1135.363,607.833C1135.363,645.5,1135.363,684.5,1135.363,723.5C1135.363,762.5,1135.363,801.5,1135.363,843.167C1135.363,884.833,1135.363,929.167,1135.363,973.5C1135.363,1017.833,1135.363,1062.167,1071.601,1095.507C1007.839,1128.848,880.315,1151.196,816.553,1162.37L752.792,1173.544" id="my-svg-L_Check_Stop_0" class="edge-thickness-normal edge-pattern-solid edge-thickness-normal edge-pattern-solid flowchart-link" style=";" data-edge="true" data-et="edge" data-id="L_Check_Stop_0" data-points="W3sieCI6NzQ1Ljg1NDA3ODc5NjAxMjIsInkiOjI4OC4wMDkyMDI0NTM5ODc3fSx7IngiOjExMzUuMzYzMjgxMjUsInkiOjM4OC41fSx7IngiOjExMzUuMzYzMjgxMjUsInkiOjQ5Ny41fSx7IngiOjExMzUuMzYzMjgxMjUsInkiOjYwNi41fSx7IngiOjExMzUuMzYzMjgxMjUsInkiOjcyMy41fSx7IngiOjExMzUuMzYzMjgxMjUsInkiOjg0MC41fSx7IngiOjExMzUuMzYzMjgxMjUsInkiOjk3My41fSx7IngiOjExMzUuMzYzMjgxMjUsInkiOjExMDYuNX0seyJ4Ijo3NDguODUxNTYyNSwieSI6MTE3NC4yMzQ3MzA3NDE1OTJ9XQ==" data-look="classic" marker-end="url(#my-svg_flowchart-v2-pointEnd)"/></g><g class="edgeLabels"><g class="edgeLabel"><g class="label" data-id="L_Start_Request_0" transform="translate(0, 0)"><text y="-10.1" text-anchor="middle"><tspan class="text-outer-tspan row" x="0" y="-0.1em" dy="1.1em" text-anchor="middle"/></text></g></g><g><rect class="background" style="stroke: none"/></g><g class="edgeLabel"><g class="label" data-id="L_Request_Check_0" transform="translate(0, 0)"><text y="-10.1" text-anchor="middle"><tspan class="text-outer-tspan row" x="0" y="-0.1em" dy="1.1em" text-anchor="middle"/></text></g></g><g><rect class="background" style="stroke: none"/></g><g class="edgeLabel" transform="translate(110, 388.5)"><g class="label" data-id="L_Check_Done_0" transform="translate(0, -10.5)"><g><rect class="background" style="" x="-50.4765625" y="-1" width="100.953125" height="23"/><text y="-10.1" text-anchor="middle" style=""><tspan class="text-outer-tspan row" x="0" y="-0.1em" dy="1.1em" text-anchor="middle"><tspan font-style="normal" class="text-inner-tspan" font-weight="normal">完整</tspan><tspan font-style="normal" class="text-inner-tspan" font-weight="normal"> message</tspan></tspan></text></g></g></g><g class="edgeLabel" transform="translate(334.5, 388.5)"><g class="label" data-id="L_Check_L1_0" transform="translate(0, -10.5)"><g><rect class="background" style="" x="-34" y="-1" width="68" height="23"/><text y="-10.1" text-anchor="middle" style=""><tspan class="text-outer-tspan row" x="0" y="-0.1em" dy="1.1em" text-anchor="middle"><tspan font-style="normal" class="text-inner-tspan" font-weight="normal">输出截断</tspan></tspan></text></g></g></g><g class="edgeLabel" transform="translate(222.25, 606.5)"><g class="label" data-id="L_L1_L2_0" transform="translate(0, -10.5)"><g><rect class="background" style="" x="-10" y="-1" width="20" height="23"/><text y="-10.1" text-anchor="middle" style=""><tspan class="text-outer-tspan row" x="0" y="-0.1em" dy="1.1em" text-anchor="middle"><tspan font-style="normal" class="text-inner-tspan" font-weight="normal">是</tspan></tspan></text></g></g></g><g class="edgeLabel" transform="translate(468.875, 606.5)"><g class="label" data-id="L_L1_L3_0" transform="translate(0, -10.5)"><g><rect class="background" style="" x="-10" y="-1" width="20" height="23"/><text y="-10.1" text-anchor="middle" style=""><tspan class="text-outer-tspan row" x="0" y="-0.1em" dy="1.1em" text-anchor="middle"><tspan font-style="normal" class="text-inner-tspan" font-weight="normal">否</tspan></tspan></text></g></g></g><g class="edgeLabel" transform="translate(363.63671875, 973.5)"><g class="label" data-id="L_L3_Stop_0" transform="translate(0, -10.5)"><g><rect class="background" style="" x="-10" y="-1" width="20" height="23"/><text y="-10.1" text-anchor="middle" style=""><tspan class="text-outer-tspan row" x="0" y="-0.1em" dy="1.1em" text-anchor="middle"><tspan font-style="normal" class="text-inner-tspan" font-weight="normal">否</tspan></tspan></text></g></g></g><g class="edgeLabel" transform="translate(539.625, 840.5)"><g class="label" data-id="L_L3_L4_0" transform="translate(0, -10.5)"><g><rect class="background" style="" x="-10" y="-1" width="20" height="23"/><text y="-10.1" text-anchor="middle" style=""><tspan class="text-outer-tspan row" x="0" y="-0.1em" dy="1.1em" text-anchor="middle"><tspan font-style="normal" class="text-inner-tspan" font-weight="normal">是</tspan></tspan></text></g></g></g><g class="edgeLabel" transform="translate(390.73537, 1122.77671)"><g class="label" data-id="L_L4_L5_0" transform="translate(0, -10.5)"><g><rect class="background" style="" x="-10" y="-1" width="20" height="23"/><text y="-10.1" text-anchor="middle" style=""><tspan class="text-outer-tspan row" x="0" y="-0.1em" dy="1.1em" text-anchor="middle"><tspan font-style="normal" class="text-inner-tspan" font-weight="normal">是</tspan></tspan></text></g></g></g><g class="edgeLabel" transform="translate(622.52064, 1096.6857)"><g class="label" data-id="L_L4_Stop_0" transform="translate(0, -10.5)"><g><rect class="background" style="" x="-10" y="-1" width="20" height="23"/><text y="-10.1" text-anchor="middle" style=""><tspan class="text-outer-tspan row" x="0" y="-0.1em" dy="1.1em" text-anchor="middle"><tspan font-style="normal" class="text-inner-tspan" font-weight="normal">否</tspan></tspan></text></g></g></g><g class="edgeLabel" transform="translate(771.36328125, 606.5)"><g class="label" data-id="L_Check_C1_0" transform="translate(0, -10.5)"><g><rect class="background" style="" x="-42" y="-1" width="84" height="23"/><text y="-10.1" text-anchor="middle" style=""><tspan class="text-outer-tspan row" x="0" y="-0.1em" dy="1.1em" text-anchor="middle"><tspan font-style="normal" class="text-inner-tspan" font-weight="normal">上下文超限</tspan></tspan></text></g></g></g><g class="edgeLabel" transform="translate(630.02205, 1117.38007)"><g class="label" data-id="L_C1_C2_0" transform="translate(0, -10.5)"><g><rect class="background" style="" x="-10" y="-1" width="20" height="23"/><text y="-10.1" text-anchor="middle" style=""><tspan class="text-outer-tspan row" x="0" y="-0.1em" dy="1.1em" text-anchor="middle"><tspan font-style="normal" class="text-inner-tspan" font-weight="normal">否</tspan></tspan></text></g></g></g><g class="edgeLabel" transform="translate(850.22384, 1111.30577)"><g class="label" data-id="L_C1_Stop_0" transform="translate(0, -10.5)"><g><rect class="background" style="" x="-10" y="-1" width="20" height="23"/><text y="-10.1" text-anchor="middle" style=""><tspan class="text-outer-tspan row" x="0" y="-0.1em" dy="1.1em" text-anchor="middle"><tspan font-style="normal" class="text-inner-tspan" font-weight="normal">是</tspan></tspan></text></g></g></g><g class="edgeLabel" transform="translate(1003.86328125, 606.5)"><g class="label" data-id="L_Check_R1_0" transform="translate(0, -10.5)"><g><rect class="background" style="" x="-36.1953125" y="-1" width="72.390625" height="23"/><text y="-10.1" text-anchor="middle" style=""><tspan class="text-outer-tspan row" x="0" y="-0.1em" dy="1.1em" text-anchor="middle"><tspan font-style="normal" class="text-inner-tspan" font-weight="normal">429</tspan><tspan font-style="normal" class="text-inner-tspan" font-weight="normal"> /</tspan><tspan font-style="normal" class="text-inner-tspan" font-weight="normal"> 529</tspan></tspan></text></g></g></g><g class="edgeLabel" transform="translate(985.46702, 1107.97002)"><g class="label" data-id="L_R1_R2_0" transform="translate(0, -10.5)"><g><rect class="background" style="" x="-10" y="-1" width="20" height="23"/><text y="-10.1" text-anchor="middle" style=""><tspan class="text-outer-tspan row" x="0" y="-0.1em" dy="1.1em" text-anchor="middle"><tspan font-style="normal" class="text-inner-tspan" font-weight="normal">是</tspan></tspan></text></g></g></g><g class="edgeLabel" transform="translate(1054.61328125, 1106.5)"><g class="label" data-id="L_R1_Stop_0" transform="translate(0, -10.5)"><g><rect class="background" style="" x="-10" y="-1" width="20" height="23"/><text y="-10.1" text-anchor="middle" style=""><tspan class="text-outer-tspan row" x="0" y="-0.1em" dy="1.1em" text-anchor="middle"><tspan font-style="normal" class="text-inner-tspan" font-weight="normal">否</tspan></tspan></text></g></g></g><g class="edgeLabel" transform="translate(1135.36328125, 723.5)"><g class="label" data-id="L_Check_Stop_0" transform="translate(0, -10.5)"><g><rect class="background" style="" x="-34" y="-1" width="68" height="23"/><text y="-10.1" text-anchor="middle" style=""><tspan class="text-outer-tspan row" x="0" y="-0.1em" dy="1.1em" text-anchor="middle"><tspan font-style="normal" class="text-inner-tspan" font-weight="normal">普通错误</tspan></tspan></text></g></g></g></g><g class="nodes"><g class="node default" id="my-svg-flowchart-Start-0" data-look="classic" transform="translate(681.86328125, 25)"><g class="basic label-container outer-path"><path d="M-10.75 -17 C-6.447109406020165 -17, -2.1442188120403305 -17, 10.75 -17 C10.75 -17, 10.749999999999998 -17, 10.749999999999998 -17 C11.052637615723162 -16.99029500071214, 11.355275231446326 -16.980590001424282, 11.839193739672119 -16.965071676755716 C12.212072797734637 -16.929100482477104, 12.584951855797154 -16.89312928819849, 12.9239117486366 -16.860430234995185 C13.173952987303009 -16.820005506626366, 13.42399422596942 -16.779580778257547, 13.999696687923326 -16.686505668848113 C14.273497442845164 -16.624012433254105, 14.547298197767002 -16.5615191976601, 15.062127926461622 -16.4440126716635 C15.437504980761817 -16.33260273234157, 15.81288203506201 -16.22119279301964, 16.10683970640155 -16.133947699181366 C16.330591305332785 -16.051605042437565, 16.554342904264015 -15.969262385693765, 17.12953908294936 -15.757584874882369 C17.44001090091492 -15.62014821088827, 17.75048271888048 -15.482711546894173, 18.126023564998487 -15.316470754341125 C18.49238115928112 -15.125342232067116, 18.858738753563753 -14.934213709793104, 19.09219838406694 -14.812417970097622 C19.439209318826585 -14.602057902183716, 19.78622025358623 -14.391697834269813, 20.024093320579325 -14.247497783161291 C20.3610433555649 -14.01245602508728, 20.697993390550472 -13.777414267013269, 20.91787901835067 -13.624031571755262 C21.141073119487054 -13.44604021554347, 21.364267220623436 -13.268048859331676, 21.7698827202324 -12.944581292275288 C22.02761811763008 -12.710512823663644, 22.28535351502776 -12.476444355052, 22.57660336025927 -12.21193895166137 C22.7394760148529 -12.043759563699817, 22.902348669446532 -11.875580175738264, 23.33472595028036 -11.42911513444239 C23.49783906174636 -11.237513192315454, 23.660952173212358 -11.045911250188519, 24.041135201956507 -10.59932663159847 C24.27185969532998 -10.290176829911776, 24.50258418870345 -9.98102702822508, 24.69292832814825 -9.725983222076888 C24.837780543271776 -9.50345132138112, 24.9826327583953 -9.280919420685349, 25.287426971090884 -8.812673661278927 C25.491789274544075 -8.449807697570593, 25.696151577997263 -8.086941733862261, 25.822188208341004 -7.863150934094199 C25.975758578061477 -7.544258775490111, 26.12932894778195 -7.225366616886022, 26.29501459126881 -6.881316833080699 C26.385331177615154 -6.658233118652819, 26.4756477639615 -6.43514940422494, 26.703963174845924 -5.871205925162238 C26.80539170689425 -5.5657193470746265, 26.90682023894258 -5.260232768987015, 27.04735350162323 -4.836968972727556 C27.153323305948735 -4.432860181230689, 27.25929311027424 -4.028751389733822, 27.323774507091002 -3.7828558772573464 C27.386960468069756 -3.458409321989033, 27.450146429048505 -3.133962766720719, 27.53209031804565 -2.713198215567453 C27.56627367793356 -2.4480788265447666, 27.600457037821464 -2.1829594375220807, 27.67144492013637 -1.632391440430593 C27.68775510071635 -1.3783472125566127, 27.704065281296327 -1.1243029846826325, 27.741265675411693 -0.5448768187181379 C27.741265675411693 -0.2055462820484944, 27.741265675411693 0.13378425462114907, 27.741265675411693 0.5448768187181336 C27.724510155896937 0.8058575599724034, 27.70775463638218 1.0668383012266731, 27.67144492013637 1.6323914404305815 C27.62702685846977 1.976889155378373, 27.582608796803164 2.3213868703261644, 27.532090318045654 2.7131982155674415 C27.46855088104446 3.039459795503804, 27.405011444043268 3.3657213754401667, 27.323774507091002 3.782855877257343 C27.267989803741322 3.9955871283730393, 27.212205100391643 4.208318379488736, 27.04735350162323 4.836968972727545 C26.922242707070954 5.213782752220947, 26.797131912518672 5.59059653171435, 26.703963174845928 5.871205925162227 C26.55334545092377 6.243234615245541, 26.402727727001615 6.615263305328854, 26.29501459126881 6.881316833080694 C26.152675685991255 7.176886615454222, 26.0103367807137 7.4724563978277505, 25.822188208341004 7.863150934094196 C25.69835425297612 8.083030661392268, 25.574520297611237 8.302910388690341, 25.287426971090888 8.812673661278923 C25.129287518243775 9.055618327241032, 24.971148065396665 9.29856299320314, 24.692928328148255 9.725983222076879 C24.470967580087272 10.023390403438462, 24.24900683202629 10.320797584800044, 24.041135201956507 10.599326631598467 C23.88277567607386 10.78534474161252, 23.724416150191207 10.971362851626571, 23.33472595028037 11.42911513444238 C23.17946411981778 11.58943572162835, 23.02420228935519 11.74975630881432, 22.57660336025927 12.211938951661365 C22.33464459162952 12.4316795034527, 22.09268582299977 12.651420055244037, 21.769882720232417 12.944581292275275 C21.459298898065093 13.1922636254711, 21.148715075897773 13.439945958666925, 20.917879018350675 13.62403157175526 C20.707064311269583 13.771086785393447, 20.496249604188492 13.918141999031633, 20.024093320579336 14.247497783161286 C19.685710420164124 14.452627485951636, 19.347327519748916 14.657757188741986, 19.092198384066943 14.81241797009762 C18.77285378086422 14.9790198450385, 18.453509177661495 15.14562171997938, 18.12602356499849 15.316470754341124 C17.845395332157853 15.440696548478918, 17.564767099317216 15.564922342616713, 17.129539082949368 15.757584874882367 C16.798442167547137 15.879431600376723, 16.46734525214491 16.001278325871077, 16.106839706401562 16.133947699181363 C15.89619613052351 16.196465606811277, 15.685552554645458 16.25898351444119, 15.062127926461642 16.444012671663497 C14.729170792196093 16.520007964811253, 14.396213657930545 16.59600325795901, 13.999696687923334 16.68650566884811 C13.68546532663562 16.737308158440506, 13.371233965347907 16.7881106480329, 12.923911748636613 16.86043023499518 C12.566850201118136 16.89487553305495, 12.209788653599661 16.92932083111472, 11.839193739672119 16.965071676755716 C11.450905461485785 16.97752332607987, 11.062617183299453 16.98997497540402, 10.750000000000004 17 C10.750000000000002 17, 10.750000000000002 17, 10.75 17 C3.6599139187882104 17, -3.4301721624235793 17, -10.749999999999996 17 C-11.17382332162488 16.98640881099754, -11.597646643249762 16.97281762199508, -11.839193739672112 16.965071676755716 C-12.08018142671745 16.94182388441655, -12.321169113762789 16.918576092077384, -12.923911748636606 16.86043023499518 C-13.199137341923638 16.81593389547889, -13.474362935210669 16.771437555962596, -13.999696687923329 16.68650566884811 C-14.38305361643666 16.599006951552692, -14.766410544949991 16.51150823425727, -15.06212792646162 16.4440126716635 C-15.468537603639085 16.32339241276516, -15.87494728081655 16.202772153866814, -16.106839706401544 16.13394769918137 C-16.380910654168222 16.033087056919165, -16.6549816019349 15.932226414656956, -17.12953908294936 15.757584874882369 C-17.510749399035838 15.58883437615313, -17.89195971512232 15.420083877423894, -18.126023564998484 15.316470754341127 C-18.481974881247922 15.130771180651495, -18.83792619749736 14.945071606961863, -19.092198384066936 14.812417970097624 C-19.36567506170142 14.646634800988252, -19.639151739335908 14.480851631878881, -20.02409332057932 14.247497783161299 C-20.37950256734075 13.999579678038844, -20.734911814102187 13.75166157291639, -20.917879018350668 13.624031571755264 C-21.247353347995734 13.361284561543457, -21.576827677640797 13.09853755133165, -21.7698827202324 12.94458129227529 C-21.937115633995376 12.792704784736184, -22.104348547758352 12.640828277197079, -22.576603360259263 12.211938951661377 C-22.836856804899988 11.943205902864648, -23.097110249540712 11.67447285406792, -23.334725950280365 11.429115134442386 C-23.562744711134904 11.161271323307597, -23.790763471989443 10.893427512172806, -24.041135201956507 10.599326631598473 C-24.2400905962255 10.332744528487314, -24.43904599049449 10.066162425376154, -24.69292832814825 9.72598322207689 C-24.893408347837525 9.417992075411066, -25.093888367526798 9.11000092874524, -25.287426971090877 8.812673661278936 C-25.436042444453797 8.548791839374541, -25.584657917816717 8.284910017470146, -25.822188208341 7.863150934094201 C-25.92284634721192 7.654132154989586, -26.023504486082842 7.445113375884971, -26.29501459126881 6.881316833080701 C-26.434610063419676 6.536513317973211, -26.57420553557054 6.191709802865721, -26.703963174845924 5.87120592516224 C-26.824140706190107 5.509250348442871, -26.94431823753429 5.147294771723502, -27.04735350162323 4.8369689727275516 C-27.13281612521781 4.5110629492260506, -27.21827874881239 4.18515692572455, -27.323774507091 3.782855877257349 C-27.40404876782559 3.3706645143562355, -27.484323028560183 2.9584731514551215, -27.53209031804565 2.713198215567455 C-27.565114819405434 2.4570667044463774, -27.59813932076522 2.2009351933252996, -27.671444920136366 1.6323914404306026 C-27.698838462493047 1.2057149065559276, -27.726232004849724 0.7790383726812525, -27.741265675411693 0.54487681871814 C-27.741265675411693 0.2846151966393593, -27.741265675411693 0.024353574560578628, -27.741265675411693 -0.5448768187181317 C-27.722205479751427 -0.8417547512398054, -27.70314528409116 -1.1386326837614793, -27.67144492013637 -1.6323914404305793 C-27.628894807977613 -1.962401707863878, -27.586344695818855 -2.2924119752971768, -27.532090318045654 -2.713198215567447 C-27.47853126839183 -2.9882126158306863, -27.424972218738002 -3.263227016093926, -27.323774507091002 -3.782855877257341 C-27.224293033890827 -4.162221850112827, -27.124811560690656 -4.541587822968314, -27.047353501623235 -4.836968972727544 C-26.935865370108 -5.172753461629958, -26.82437723859277 -5.508537950532373, -26.70396317484593 -5.871205925162218 C-26.550569645956404 -6.250090907181473, -26.39717611706688 -6.6289758892007296, -26.29501459126881 -6.881316833080692 C-26.178008338097392 -7.124282821323906, -26.06100208492597 -7.367248809567119, -25.822188208341004 -7.863150934094194 C-25.684064116330738 -8.108404246039388, -25.545940024320473 -8.353657557984583, -25.287426971090884 -8.812673661278929 C-25.088566808830294 -9.118176271941666, -24.889706646569703 -9.423678882604404, -24.69292832814825 -9.725983222076884 C-24.540366526557694 -9.930402137542183, -24.387804724967136 -10.134821053007482, -24.04113520195651 -10.599326631598467 C-23.84999151768439 -10.82385487952825, -23.65884783341227 -11.048383127458031, -23.334725950280372 -11.42911513444238 C-23.135300974033733 -11.635037795512082, -22.935875997787097 -11.840960456581783, -22.576603360259277 -12.21193895166136 C-22.351340338423373 -12.416516867959775, -22.126077316587473 -12.62109478425819, -21.769882720232417 -12.944581292275274 C-21.45103515069761 -13.198853744089114, -21.1321875811628 -13.453126195902955, -20.917879018350675 -13.624031571755259 C-20.723270306100915 -13.759782184945317, -20.528661593851155 -13.895532798135376, -20.02409332057934 -14.247497783161284 C-19.765892674495067 -14.404020532172991, -19.50769202841079 -14.5605432811847, -19.092198384066947 -14.812417970097618 C-18.74144449410226 -14.995406049823606, -18.39069060413757 -15.178394129549595, -18.12602356499849 -15.316470754341124 C-17.761325500884887 -15.477911768940523, -17.39662743677128 -15.63935278353992, -17.129539082949368 -15.757584874882365 C-16.91555717970302 -15.836332193304052, -16.70157527645667 -15.91507951172574, -16.106839706401566 -16.133947699181363 C-15.775329484730843 -16.23233819284057, -15.443819263060123 -16.330728686499775, -15.062127926461642 -16.444012671663494 C-14.847092278395332 -16.493093155095885, -14.632056630329023 -16.54217363852828, -13.999696687923336 -16.68650566884811 C-13.720774316625725 -16.73159967476421, -13.441851945328116 -16.776693680680314, -12.923911748636613 -16.86043023499518 C-12.541916876520844 -16.897280820892142, -12.159922004405075 -16.934131406789103, -11.83919373967212 -16.965071676755716 C-11.46565427716599 -16.97705036026783, -11.092114814659858 -16.989029043779947, -10.750000000000005 -17 C-10.750000000000004 -17, -10.750000000000004 -17, -10.75 -17" stroke="none" stroke-width="0" fill="#eee" style=""/><path d="M-10.75 -17 C-6.127631435509453 -17, -1.5052628710189069 -17, 10.75 -17 M-10.75 -17 C-2.760781628481226 -17, 5.228436743037548 -17, 10.75 -17 M10.75 -17 C10.75 -17, 10.75 -17, 10.749999999999998 -17 M10.75 -17 C10.75 -17, 10.749999999999998 -17, 10.749999999999998 -17 M10.749999999999998 -17 C11.14425331611704 -16.987357063519653, 11.53850663223408 -16.974714127039306, 11.839193739672119 -16.965071676755716 M10.749999999999998 -17 C10.988969014259508 -16.992336728837667, 11.227938028519018 -16.98467345767533, 11.839193739672119 -16.965071676755716 M11.839193739672119 -16.965071676755716 C12.194218614610934 -16.930822854050252, 12.549243489549747 -16.896574031344787, 12.9239117486366 -16.860430234995185 M11.839193739672119 -16.965071676755716 C12.094369707684917 -16.940455158015524, 12.349545675697717 -16.915838639275332, 12.9239117486366 -16.860430234995185 M12.9239117486366 -16.860430234995185 C13.214800665805756 -16.81340157074452, 13.505689582974913 -16.766372906493856, 13.999696687923326 -16.686505668848113 M12.9239117486366 -16.860430234995185 C13.166500743185562 -16.82121032766226, 13.409089737734526 -16.781990420329333, 13.999696687923326 -16.686505668848113 M13.999696687923326 -16.686505668848113 C14.305195920880895 -16.61677746249435, 14.610695153838464 -16.54704925614059, 15.062127926461622 -16.4440126716635 M13.999696687923326 -16.686505668848113 C14.330868343858729 -16.610917899477876, 14.66203999979413 -16.535330130107642, 15.062127926461622 -16.4440126716635 M15.062127926461622 -16.4440126716635 C15.333173858236323 -16.363567661861897, 15.604219790011024 -16.283122652060296, 16.10683970640155 -16.133947699181366 M15.062127926461622 -16.4440126716635 C15.469585349329872 -16.32308144734386, 15.877042772198122 -16.202150223024223, 16.10683970640155 -16.133947699181366 M16.10683970640155 -16.133947699181366 C16.377480140275694 -16.034349517742935, 16.648120574149832 -15.934751336304506, 17.12953908294936 -15.757584874882369 M16.10683970640155 -16.133947699181366 C16.4790636085227 -15.996965862400751, 16.851287510643846 -15.859984025620136, 17.12953908294936 -15.757584874882369 M17.12953908294936 -15.757584874882369 C17.441288070666243 -15.619582845725255, 17.753037058383125 -15.48158081656814, 18.126023564998487 -15.316470754341125 M17.12953908294936 -15.757584874882369 C17.525455416962632 -15.582324458255462, 17.921371750975904 -15.407064041628555, 18.126023564998487 -15.316470754341125 M18.126023564998487 -15.316470754341125 C18.3949129150104 -15.176191352671758, 18.663802265022316 -15.03591195100239, 19.09219838406694 -14.812417970097622 M18.126023564998487 -15.316470754341125 C18.480259906299082 -15.13166588198381, 18.834496247599677 -14.946861009626495, 19.09219838406694 -14.812417970097622 M19.09219838406694 -14.812417970097622 C19.28262080994429 -14.696982776484385, 19.473043235821642 -14.581547582871147, 20.024093320579325 -14.247497783161291 M19.09219838406694 -14.812417970097622 C19.34489871275118 -14.659229545817267, 19.597599041435423 -14.506041121536912, 20.024093320579325 -14.247497783161291 M20.024093320579325 -14.247497783161291 C20.311289955512972 -14.04716184317353, 20.598486590446615 -13.846825903185767, 20.91787901835067 -13.624031571755262 M20.024093320579325 -14.247497783161291 C20.33621715778326 -14.029773705950971, 20.64834099498719 -13.812049628740652, 20.91787901835067 -13.624031571755262 M20.91787901835067 -13.624031571755262 C21.10275455705897 -13.476598249380096, 21.287630095767266 -13.32916492700493, 21.7698827202324 -12.944581292275288 M20.91787901835067 -13.624031571755262 C21.149998091582567 -13.438922787800779, 21.382117164814463 -13.253814003846296, 21.7698827202324 -12.944581292275288 M21.7698827202324 -12.944581292275288 C21.979481114282127 -12.754229576468939, 22.189079508331854 -12.56387786066259, 22.57660336025927 -12.21193895166137 M21.7698827202324 -12.944581292275288 C21.968012528322202 -12.764645042795587, 22.166142336412 -12.584708793315887, 22.57660336025927 -12.21193895166137 M22.57660336025927 -12.21193895166137 C22.8682406062449 -11.910799551318018, 23.15987785223053 -11.609660150974666, 23.33472595028036 -11.42911513444239 M22.57660336025927 -12.21193895166137 C22.744068870036358 -12.039017063642474, 22.911534379813446 -11.866095175623578, 23.33472595028036 -11.42911513444239 M23.33472595028036 -11.42911513444239 C23.615121152356004 -11.099746975145358, 23.89551635443165 -10.770378815848325, 24.041135201956507 -10.59932663159847 M23.33472595028036 -11.42911513444239 C23.600291668343626 -11.117166530887843, 23.86585738640689 -10.805217927333295, 24.041135201956507 -10.59932663159847 M24.041135201956507 -10.59932663159847 C24.239758216319704 -10.333189887280644, 24.4383812306829 -10.067053142962816, 24.69292832814825 -9.725983222076888 M24.041135201956507 -10.59932663159847 C24.26872638708508 -10.294375177509684, 24.496317572213655 -9.989423723420899, 24.69292832814825 -9.725983222076888 M24.69292832814825 -9.725983222076888 C24.91190240891095 -9.389580231251525, 25.130876489673657 -9.05317724042616, 25.287426971090884 -8.812673661278927 M24.69292832814825 -9.725983222076888 C24.875735262665636 -9.445142680122938, 25.058542197183026 -9.164302138168988, 25.287426971090884 -8.812673661278927 M25.287426971090884 -8.812673661278927 C25.45425848273415 -8.516447418833884, 25.621089994377417 -8.220221176388842, 25.822188208341004 -7.863150934094199 M25.287426971090884 -8.812673661278927 C25.405053625892755 -8.603815624687822, 25.522680280694626 -8.394957588096718, 25.822188208341004 -7.863150934094199 M25.822188208341004 -7.863150934094199 C25.930346855255216 -7.638557189552524, 26.03850550216943 -7.41396344501085, 26.29501459126881 -6.881316833080699 M25.822188208341004 -7.863150934094199 C25.958673417797733 -7.579736476341639, 26.095158627254467 -7.296322018589079, 26.29501459126881 -6.881316833080699 M26.29501459126881 -6.881316833080699 C26.427960113455573 -6.5529388229525845, 26.560905635642335 -6.224560812824469, 26.703963174845924 -5.871205925162238 M26.29501459126881 -6.881316833080699 C26.385781415488157 -6.657121022401748, 26.476548239707505 -6.432925211722797, 26.703963174845924 -5.871205925162238 M26.703963174845924 -5.871205925162238 C26.80538746036895 -5.565732136932237, 26.906811745891982 -5.260258348702235, 27.04735350162323 -4.836968972727556 M26.703963174845924 -5.871205925162238 C26.79232079846079 -5.605086840709776, 26.880678422075654 -5.338967756257313, 27.04735350162323 -4.836968972727556 M27.04735350162323 -4.836968972727556 C27.110944588702544 -4.594468597142653, 27.174535675781858 -4.351968221557748, 27.323774507091002 -3.7828558772573464 M27.04735350162323 -4.836968972727556 C27.108661631012072 -4.603174504256546, 27.169969760400914 -4.369380035785535, 27.323774507091002 -3.7828558772573464 M27.323774507091002 -3.7828558772573464 C27.38228968542448 -3.4823928037022407, 27.440804863757965 -3.181929730147135, 27.53209031804565 -2.713198215567453 M27.323774507091002 -3.7828558772573464 C27.37905858988582 -3.498983796401001, 27.434342672680632 -3.215111715544656, 27.53209031804565 -2.713198215567453 M27.53209031804565 -2.713198215567453 C27.561990742510893 -2.481296427921672, 27.59189116697614 -2.249394640275891, 27.67144492013637 -1.632391440430593 M27.53209031804565 -2.713198215567453 C27.56835377084035 -2.431946036720491, 27.60461722363505 -2.150693857873529, 27.67144492013637 -1.632391440430593 M27.67144492013637 -1.632391440430593 C27.694474639234183 -1.2736849762274605, 27.717504358331997 -0.9149785120243281, 27.741265675411693 -0.5448768187181379 M27.67144492013637 -1.632391440430593 C27.696175819466358 -1.2471877209433666, 27.720906718796346 -0.8619840014561403, 27.741265675411693 -0.5448768187181379 M27.741265675411693 -0.5448768187181379 C27.741265675411693 -0.3102115122818607, 27.741265675411693 -0.07554620584558358, 27.741265675411693 0.5448768187181336 M27.741265675411693 -0.5448768187181379 C27.741265675411693 -0.16704546983849916, 27.741265675411693 0.21078587904113955, 27.741265675411693 0.5448768187181336 M27.741265675411693 0.5448768187181336 C27.71891565574481 0.8929964156410151, 27.696565636077924 1.2411160125638965, 27.67144492013637 1.6323914404305815 M27.741265675411693 0.5448768187181336 C27.717589993150142 0.9136446806085285, 27.693914310888594 1.2824125424989234, 27.67144492013637 1.6323914404305815 M27.67144492013637 1.6323914404305815 C27.6424724853744 1.8570959231900477, 27.613500050612434 2.081800405949514, 27.532090318045654 2.7131982155674415 M27.67144492013637 1.6323914404305815 C27.641504016010956 1.8646071803270428, 27.611563111885538 2.096822920223504, 27.532090318045654 2.7131982155674415 M27.532090318045654 2.7131982155674415 C27.45793277928035 3.0939815039259213, 27.383775240515043 3.4747647922844016, 27.323774507091002 3.782855877257343 M27.532090318045654 2.7131982155674415 C27.477824687283945 2.991840760483686, 27.42355905652224 3.2704833053999307, 27.323774507091002 3.782855877257343 M27.323774507091002 3.782855877257343 C27.250570252256548 4.062015427865859, 27.177365997422093 4.341174978474375, 27.04735350162323 4.836968972727545 M27.323774507091002 3.782855877257343 C27.266350202950584 4.001839636795611, 27.20892589881016 4.22082339633388, 27.04735350162323 4.836968972727545 M27.04735350162323 4.836968972727545 C26.966333811263244 5.080987371357211, 26.885314120903256 5.325005769986876, 26.703963174845928 5.871205925162227 M27.04735350162323 4.836968972727545 C26.93385876216602 5.17879704504164, 26.820364022708812 5.520625117355734, 26.703963174845928 5.871205925162227 M26.703963174845928 5.871205925162227 C26.55065341320319 6.249884000462392, 26.397343651560448 6.628562075762557, 26.29501459126881 6.881316833080694 M26.703963174845928 5.871205925162227 C26.563355413443034 6.218509814293501, 26.422747652040144 6.565813703424775, 26.29501459126881 6.881316833080694 M26.29501459126881 6.881316833080694 C26.120240809460867 7.2442383305647535, 25.945467027652928 7.607159828048812, 25.822188208341004 7.863150934094196 M26.29501459126881 6.881316833080694 C26.158220090707122 7.16537354043047, 26.02142559014543 7.4494302477802465, 25.822188208341004 7.863150934094196 M25.822188208341004 7.863150934094196 C25.699907078341543 8.080273462715343, 25.57762594834208 8.29739599133649, 25.287426971090888 8.812673661278923 M25.822188208341004 7.863150934094196 C25.688116690219616 8.101208490732086, 25.554045172098224 8.339266047369977, 25.287426971090888 8.812673661278923 M25.287426971090888 8.812673661278923 C25.100729566747443 9.099491009623122, 24.914032162404 9.386308357967321, 24.692928328148255 9.725983222076879 M25.287426971090888 8.812673661278923 C25.161828690029225 9.00562634885045, 25.03623040896756 9.198579036421979, 24.692928328148255 9.725983222076879 M24.692928328148255 9.725983222076879 C24.47284872026385 10.020869846977243, 24.252769112379443 10.315756471877606, 24.041135201956507 10.599326631598467 M24.692928328148255 9.725983222076879 C24.542590091305012 9.927422763351691, 24.39225185446177 10.128862304626503, 24.041135201956507 10.599326631598467 M24.041135201956507 10.599326631598467 C23.763005916378336 10.926033116443268, 23.484876630800166 11.252739601288066, 23.33472595028037 11.42911513444238 M24.041135201956507 10.599326631598467 C23.844542211774073 10.830255944324795, 23.647949221591638 11.061185257051124, 23.33472595028037 11.42911513444238 M23.33472595028037 11.42911513444238 C23.03946400216707 11.733997337326132, 22.744202054053765 12.038879540209884, 22.57660336025927 12.211938951661365 M23.33472595028037 11.42911513444238 C23.144887390665176 11.625139033280671, 22.955048831049982 11.821162932118964, 22.57660336025927 12.211938951661365 M22.57660336025927 12.211938951661365 C22.408133042975322 12.364939236338316, 22.23966272569137 12.517939521015267, 21.769882720232417 12.944581292275275 M22.57660336025927 12.211938951661365 C22.316804287735984 12.447881595420235, 22.0570052152127 12.683824239179103, 21.769882720232417 12.944581292275275 M21.769882720232417 12.944581292275275 C21.46438486905166 13.188207698952686, 21.158887017870903 13.431834105630095, 20.917879018350675 13.62403157175526 M21.769882720232417 12.944581292275275 C21.58624769600391 13.091025337364286, 21.402612671775398 13.237469382453298, 20.917879018350675 13.62403157175526 M20.917879018350675 13.62403157175526 C20.716538129508212 13.764478259905161, 20.51519724066575 13.90492494805506, 20.024093320579336 14.247497783161286 M20.917879018350675 13.62403157175526 C20.59454959915281 13.84957217788272, 20.271220179954945 14.075112784010182, 20.024093320579336 14.247497783161286 M20.024093320579336 14.247497783161286 C19.791104934835868 14.38873671179071, 19.5581165490924 14.529975640420131, 19.092198384066943 14.81241797009762 M20.024093320579336 14.247497783161286 C19.755263534447717 14.410463979333453, 19.4864337483161 14.57343017550562, 19.092198384066943 14.81241797009762 M19.092198384066943 14.81241797009762 C18.72595316388304 15.003487866876302, 18.35970794369914 15.194557763654984, 18.12602356499849 15.316470754341124 M19.092198384066943 14.81241797009762 C18.878449119040543 14.923930824748954, 18.664699854014142 15.03544367940029, 18.12602356499849 15.316470754341124 M18.12602356499849 15.316470754341124 C17.89014798696204 15.420885875737442, 17.65427240892559 15.52530099713376, 17.129539082949368 15.757584874882367 M18.12602356499849 15.316470754341124 C17.903228762835557 15.415095404285665, 17.68043396067262 15.513720054230209, 17.129539082949368 15.757584874882367 M17.129539082949368 15.757584874882367 C16.78538535030652 15.884236629817165, 16.441231617663668 16.010888384751965, 16.106839706401562 16.133947699181363 M17.129539082949368 15.757584874882367 C16.870627373613953 15.852866777271405, 16.611715664278535 15.948148679660443, 16.106839706401562 16.133947699181363 M16.106839706401562 16.133947699181363 C15.69289269618149 16.256804998962483, 15.27894568596142 16.379662298743607, 15.062127926461642 16.444012671663497 M16.106839706401562 16.133947699181363 C15.764594055712141 16.235524411821903, 15.422348405022722 16.337101124462446, 15.062127926461642 16.444012671663497 M15.062127926461642 16.444012671663497 C14.787189231319307 16.506765634687078, 14.51225053617697 16.56951859771066, 13.999696687923334 16.68650566884811 M15.062127926461642 16.444012671663497 C14.707403190084246 16.524976277946404, 14.352678453706853 16.60593988422931, 13.999696687923334 16.68650566884811 M13.999696687923334 16.68650566884811 C13.678200047775103 16.738482752383593, 13.356703407626872 16.79045983591908, 12.923911748636613 16.86043023499518 M13.999696687923334 16.68650566884811 C13.67315114211139 16.739299020296457, 13.346605596299444 16.7920923717448, 12.923911748636613 16.86043023499518 M12.923911748636613 16.86043023499518 C12.628241353251346 16.888953202442323, 12.332570957866078 16.917476169889465, 11.839193739672119 16.965071676755716 M12.923911748636613 16.86043023499518 C12.658053940467104 16.8860772180085, 12.392196132297597 16.91172420102182, 11.839193739672119 16.965071676755716 M11.839193739672119 16.965071676755716 C11.435891945192791 16.97800478032535, 11.032590150713462 16.99093788389498, 10.750000000000004 17 M11.839193739672119 16.965071676755716 C11.490831215834081 16.976242984848685, 11.142468691996045 16.987414292941654, 10.750000000000004 17 M10.750000000000004 17 C10.750000000000002 17, 10.750000000000002 17, 10.75 17 M10.750000000000004 17 C10.750000000000002 17, 10.75 17, 10.75 17 M10.75 17 C2.769326331878145 17, -5.21134733624371 17, -10.749999999999996 17 M10.75 17 C4.715230192773918 17, -1.3195396144521645 17, -10.749999999999996 17 M-10.749999999999996 17 C-11.054289521846313 16.990242027298013, -11.358579043692629 16.980484054596023, -11.839193739672112 16.965071676755716 M-10.749999999999996 17 C-10.97508244408892 16.992782044114467, -11.200164888177843 16.985564088228934, -11.839193739672112 16.965071676755716 M-11.839193739672112 16.965071676755716 C-12.219819096088465 16.928353206391197, -12.600444452504817 16.891634736026674, -12.923911748636606 16.86043023499518 M-11.839193739672112 16.965071676755716 C-12.132638092689248 16.93676345293862, -12.426082445706383 16.908455229121525, -12.923911748636606 16.86043023499518 M-12.923911748636606 16.86043023499518 C-13.185186127297612 16.81818941966634, -13.446460505958619 16.775948604337493, -13.999696687923329 16.68650566884811 M-12.923911748636606 16.86043023499518 C-13.331357615445492 16.79455754703941, -13.73880348225438 16.72868485908364, -13.999696687923329 16.68650566884811 M-13.999696687923329 16.68650566884811 C-14.269479471056774 16.62492950909509, -14.53926225419022 16.563353349342066, -15.06212792646162 16.4440126716635 M-13.999696687923329 16.68650566884811 C-14.26161227797381 16.626725144578042, -14.523527868024292 16.566944620307975, -15.06212792646162 16.4440126716635 M-15.06212792646162 16.4440126716635 C-15.350203917997577 16.358513229517367, -15.638279909533535 16.27301378737123, -16.106839706401544 16.13394769918137 M-15.06212792646162 16.4440126716635 C-15.360681974516377 16.35540339734303, -15.659236022571132 16.266794123022553, -16.106839706401544 16.13394769918137 M-16.106839706401544 16.13394769918137 C-16.44344900233335 16.010072366696242, -16.780058298265153 15.886197034211117, -17.12953908294936 15.757584874882369 M-16.106839706401544 16.13394769918137 C-16.390771124018105 16.029458312865223, -16.674702541634666 15.924968926549075, -17.12953908294936 15.757584874882369 M-17.12953908294936 15.757584874882369 C-17.384214848233682 15.644847468279158, -17.638890613518004 15.532110061675949, -18.126023564998484 15.316470754341127 M-17.12953908294936 15.757584874882369 C-17.383490676974482 15.64516803741383, -17.6374422709996 15.532751199945292, -18.126023564998484 15.316470754341127 M-18.126023564998484 15.316470754341127 C-18.336072402679825 15.206888410265472, -18.54612124036117 15.097306066189818, -19.092198384066936 14.812417970097624 M-18.126023564998484 15.316470754341127 C-18.325081360552485 15.21262242990321, -18.524139156106482 15.10877410546529, -19.092198384066936 14.812417970097624 M-19.092198384066936 14.812417970097624 C-19.335905181972908 14.664681477026908, -19.579611979878884 14.516944983956193, -20.02409332057932 14.247497783161299 M-19.092198384066936 14.812417970097624 C-19.31171729206233 14.679344318034522, -19.531236200057723 14.546270665971418, -20.02409332057932 14.247497783161299 M-20.02409332057932 14.247497783161299 C-20.380111971032076 13.999154584404438, -20.736130621484833 13.750811385647577, -20.917879018350668 13.624031571755264 M-20.02409332057932 14.247497783161299 C-20.355022990547173 14.016655571106245, -20.685952660515024 13.785813359051193, -20.917879018350668 13.624031571755264 M-20.917879018350668 13.624031571755264 C-21.16491284002179 13.427028672818624, -21.41194666169291 13.230025773881984, -21.7698827202324 12.94458129227529 M-20.917879018350668 13.624031571755264 C-21.224703533159495 13.37934718613847, -21.531528047968322 13.134662800521676, -21.7698827202324 12.94458129227529 M-21.7698827202324 12.94458129227529 C-22.05778248696416 12.683118341539911, -22.345682253695923 12.421655390804531, -22.576603360259263 12.211938951661377 M-21.7698827202324 12.94458129227529 C-22.0922494974123 12.651816314598033, -22.414616274592206 12.359051336920775, -22.576603360259263 12.211938951661377 M-22.576603360259263 12.211938951661377 C-22.73495321912461 12.048429721617712, -22.893303077989955 11.884920491574047, -23.334725950280365 11.429115134442386 M-22.576603360259263 12.211938951661377 C-22.735062198797355 12.048317191158207, -22.893521037335443 11.884695430655036, -23.334725950280365 11.429115134442386 M-23.334725950280365 11.429115134442386 C-23.49957795325054 11.235470591408914, -23.66442995622072 11.041826048375443, -24.041135201956507 10.599326631598473 M-23.334725950280365 11.429115134442386 C-23.534762332518543 11.194141017472823, -23.734798714756725 10.95916690050326, -24.041135201956507 10.599326631598473 M-24.041135201956507 10.599326631598473 C-24.21863845292553 10.361488446178814, -24.39614170389455 10.123650260759156, -24.69292832814825 9.72598322207689 M-24.041135201956507 10.599326631598473 C-24.20763599611146 10.376230735965228, -24.374136790266416 10.153134840331983, -24.69292832814825 9.72598322207689 M-24.69292832814825 9.72598322207689 C-24.84513705863984 9.492149738274803, -24.99734578913143 9.258316254472714, -25.287426971090877 8.812673661278936 M-24.69292832814825 9.72598322207689 C-24.919344833163155 9.378146669029404, -25.145761338178062 9.030310115981916, -25.287426971090877 8.812673661278936 M-25.287426971090877 8.812673661278936 C-25.485332588402343 8.461272197625599, -25.68323820571381 8.109870733972262, -25.822188208341 7.863150934094201 M-25.287426971090877 8.812673661278936 C-25.450736854899336 8.522700425658078, -25.6140467387078 8.23272719003722, -25.822188208341 7.863150934094201 M-25.822188208341 7.863150934094201 C-25.970324653270975 7.555542436584946, -26.118461098200953 7.247933939075692, -26.29501459126881 6.881316833080701 M-25.822188208341 7.863150934094201 C-25.969793262274287 7.5566458813595165, -26.117398316207577 7.250140828624831, -26.29501459126881 6.881316833080701 M-26.29501459126881 6.881316833080701 C-26.441583229823127 6.519289462139687, -26.588151868377444 6.157262091198673, -26.703963174845924 5.87120592516224 M-26.29501459126881 6.881316833080701 C-26.45221610529111 6.493026054161108, -26.609417619313408 6.104735275241515, -26.703963174845924 5.87120592516224 M-26.703963174845924 5.87120592516224 C-26.829841109678878 5.492081641370655, -26.955719044511827 5.11295735757907, -27.04735350162323 4.8369689727275516 M-26.703963174845924 5.87120592516224 C-26.783227499880535 5.632474407213131, -26.862491824915143 5.393742889264022, -27.04735350162323 4.8369689727275516 M-27.04735350162323 4.8369689727275516 C-27.125020816119303 4.540789841326991, -27.202688130615375 4.244610709926431, -27.323774507091 3.782855877257349 M-27.04735350162323 4.8369689727275516 C-27.123309861645872 4.547314452266552, -27.19926622166851 4.257659931805554, -27.323774507091 3.782855877257349 M-27.323774507091 3.782855877257349 C-27.381876520161928 3.484514320002943, -27.439978533232857 3.1861727627485377, -27.53209031804565 2.713198215567455 M-27.323774507091 3.782855877257349 C-27.375169096610946 3.5189555223227647, -27.426563686130894 3.2550551673881802, -27.53209031804565 2.713198215567455 M-27.53209031804565 2.713198215567455 C-27.587756927315148 2.281458986688566, -27.64342353658465 1.8497197578096771, -27.671444920136366 1.6323914404306026 M-27.53209031804565 2.713198215567455 C-27.56371873390362 2.467894467910183, -27.59534714976159 2.22259072025291, -27.671444920136366 1.6323914404306026 M-27.671444920136366 1.6323914404306026 C-27.689941544891745 1.3442915796588149, -27.708438169647124 1.0561917188870271, -27.741265675411693 0.54487681871814 M-27.671444920136366 1.6323914404306026 C-27.689897002587912 1.3449853619949008, -27.70834908503946 1.057579283559199, -27.741265675411693 0.54487681871814 M-27.741265675411693 0.54487681871814 C-27.741265675411693 0.1767084122101531, -27.741265675411693 -0.19145999429783378, -27.741265675411693 -0.5448768187181317 M-27.741265675411693 0.54487681871814 C-27.741265675411693 0.24318861027958116, -27.741265675411693 -0.05849959815897765, -27.741265675411693 -0.5448768187181317 M-27.741265675411693 -0.5448768187181317 C-27.720745535249904 -0.8644945652970115, -27.700225395088115 -1.1841123118758914, -27.67144492013637 -1.6323914404305793 M-27.741265675411693 -0.5448768187181317 C-27.714225923359898 -0.9660427830198459, -27.687186171308106 -1.38720874732156, -27.67144492013637 -1.6323914404305793 M-27.67144492013637 -1.6323914404305793 C-27.627937210388364 -1.9698286456670666, -27.584429500640358 -2.307265850903554, -27.532090318045654 -2.713198215567447 M-27.67144492013637 -1.6323914404305793 C-27.625993532397587 -1.9849034283409042, -27.580542144658803 -2.337415416251229, -27.532090318045654 -2.713198215567447 M-27.532090318045654 -2.713198215567447 C-27.465280566312167 -3.056252170472878, -27.398470814578676 -3.399306125378309, -27.323774507091002 -3.782855877257341 M-27.532090318045654 -2.713198215567447 C-27.471042849377096 -3.0266640647934233, -27.409995380708537 -3.3401299140194, -27.323774507091002 -3.782855877257341 M-27.323774507091002 -3.782855877257341 C-27.213279201927126 -4.204222364815395, -27.10278389676325 -4.625588852373449, -27.047353501623235 -4.836968972727544 M-27.323774507091002 -3.782855877257341 C-27.241543823973778 -4.09643711098682, -27.159313140856558 -4.410018344716297, -27.047353501623235 -4.836968972727544 M-27.047353501623235 -4.836968972727544 C-26.95599884112049 -5.112114654773323, -26.864644180617745 -5.387260336819102, -26.70396317484593 -5.871205925162218 M-27.047353501623235 -4.836968972727544 C-26.932843947593778 -5.181853504844498, -26.818334393564324 -5.5267380369614525, -26.70396317484593 -5.871205925162218 M-26.70396317484593 -5.871205925162218 C-26.60825430039224 -6.107608695468041, -26.512545425938548 -6.344011465773865, -26.29501459126881 -6.881316833080692 M-26.70396317484593 -5.871205925162218 C-26.59165347302569 -6.148613060018583, -26.479343771205446 -6.426020194874949, -26.29501459126881 -6.881316833080692 M-26.29501459126881 -6.881316833080692 C-26.141425074306593 -7.20024875134195, -25.987835557344376 -7.519180669603207, -25.822188208341004 -7.863150934094194 M-26.29501459126881 -6.881316833080692 C-26.10653905821945 -7.272690310188064, -25.918063525170094 -7.664063787295435, -25.822188208341004 -7.863150934094194 M-25.822188208341004 -7.863150934094194 C-25.662250280816206 -8.147136919885813, -25.50231235329141 -8.431122905677432, -25.287426971090884 -8.812673661278929 M-25.822188208341004 -7.863150934094194 C-25.615144204809102 -8.23077852784386, -25.408100201277204 -8.598406121593525, -25.287426971090884 -8.812673661278929 M-25.287426971090884 -8.812673661278929 C-25.113492827250663 -9.079883214074842, -24.939558683410446 -9.347092766870755, -24.69292832814825 -9.725983222076884 M-25.287426971090884 -8.812673661278929 C-25.101456017325567 -9.098374986455829, -24.915485063560247 -9.384076311632729, -24.69292832814825 -9.725983222076884 M-24.69292832814825 -9.725983222076884 C-24.487038373833997 -10.001857003897276, -24.281148419519745 -10.27773078571767, -24.04113520195651 -10.599326631598467 M-24.69292832814825 -9.725983222076884 C-24.49280203160202 -9.994134227568148, -24.292675735055795 -10.262285233059412, -24.04113520195651 -10.599326631598467 M-24.04113520195651 -10.599326631598467 C-23.81451571699104 -10.865526773652903, -23.58789623202557 -11.13172691570734, -23.334725950280372 -11.42911513444238 M-24.04113520195651 -10.599326631598467 C-23.859209066475998 -10.813027422224243, -23.677282930995485 -11.026728212850019, -23.334725950280372 -11.42911513444238 M-23.334725950280372 -11.42911513444238 C-23.175130878288098 -11.593910149273496, -23.015535806295823 -11.758705164104613, -22.576603360259277 -12.21193895166136 M-23.334725950280372 -11.42911513444238 C-23.17286807324121 -11.596246681264153, -23.011010196202054 -11.763378228085926, -22.576603360259277 -12.21193895166136 M-22.576603360259277 -12.21193895166136 C-22.326750557005827 -12.43884865683323, -22.076897753752373 -12.665758362005098, -21.769882720232417 -12.944581292275274 M-22.576603360259277 -12.21193895166136 C-22.405943195442394 -12.36692799792753, -22.23528303062551 -12.521917044193701, -21.769882720232417 -12.944581292275274 M-21.769882720232417 -12.944581292275274 C-21.47881724258992 -13.17669826511751, -21.187751764947425 -13.408815237959749, -20.917879018350675 -13.624031571755259 M-21.769882720232417 -12.944581292275274 C-21.527704264152053 -13.13771216635999, -21.28552580807169 -13.330843040444705, -20.917879018350675 -13.624031571755259 M-20.917879018350675 -13.624031571755259 C-20.616234895898376 -13.834445453614379, -20.31459077344608 -14.0448593354735, -20.02409332057934 -14.247497783161284 M-20.917879018350675 -13.624031571755259 C-20.584754753116968 -13.856404638465273, -20.251630487883265 -14.088777705175286, -20.02409332057934 -14.247497783161284 M-20.02409332057934 -14.247497783161284 C-19.68672318601998 -14.452013541338147, -19.349353051460614 -14.65652929951501, -19.092198384066947 -14.812417970097618 M-20.02409332057934 -14.247497783161284 C-19.765248188438477 -14.404411223407918, -19.50640305629761 -14.561324663654549, -19.092198384066947 -14.812417970097618 M-19.092198384066947 -14.812417970097618 C-18.86632878173492 -14.93025399695785, -18.6404591794029 -15.048090023818082, -18.12602356499849 -15.316470754341124 M-19.092198384066947 -14.812417970097618 C-18.76902650969313 -14.981016529956973, -18.44585463531931 -15.14961508981633, -18.12602356499849 -15.316470754341124 M-18.12602356499849 -15.316470754341124 C-17.842219860188045 -15.442102235722922, -17.558416155377596 -15.567733717104723, -17.129539082949368 -15.757584874882365 M-18.12602356499849 -15.316470754341124 C-17.75456250749482 -15.480905545497233, -17.383101449991152 -15.645340336653343, -17.129539082949368 -15.757584874882365 M-17.129539082949368 -15.757584874882365 C-16.80050069377835 -15.878674043694827, -16.47146230460733 -15.999763212507291, -16.106839706401566 -16.133947699181363 M-17.129539082949368 -15.757584874882365 C-16.785038443424586 -15.88436429475649, -16.4405378038998 -16.011143714630613, -16.106839706401566 -16.133947699181363 M-16.106839706401566 -16.133947699181363 C-15.875322326315258 -16.20266084233145, -15.643804946228949 -16.271373985481542, -15.062127926461642 -16.444012671663494 M-16.106839706401566 -16.133947699181363 C-15.755039240894206 -16.23836023070562, -15.403238775386846 -16.342772762229878, -15.062127926461642 -16.444012671663494 M-15.062127926461642 -16.444012671663494 C-14.65416735925547 -16.537127008936807, -14.246206792049298 -16.63024134621012, -13.999696687923336 -16.68650566884811 M-15.062127926461642 -16.444012671663494 C-14.745070125425832 -16.51637904575441, -14.42801232439002 -16.588745419845324, -13.999696687923336 -16.68650566884811 M-13.999696687923336 -16.68650566884811 C-13.742432370284682 -16.728098168609346, -13.485168052646026 -16.769690668370583, -12.923911748636613 -16.86043023499518 M-13.999696687923336 -16.68650566884811 C-13.654472067263523 -16.74231890825947, -13.309247446603711 -16.79813214767083, -12.923911748636613 -16.86043023499518 M-12.923911748636613 -16.86043023499518 C-12.57334749247868 -16.894248747171535, -12.222783236320748 -16.928067259347888, -11.83919373967212 -16.965071676755716 M-12.923911748636613 -16.86043023499518 C-12.664985868860175 -16.885408503213284, -12.406059989083735 -16.910386771431387, -11.83919373967212 -16.965071676755716 M-11.83919373967212 -16.965071676755716 C-11.57928802564144 -16.973406347128897, -11.319382311610758 -16.98174101750208, -10.750000000000005 -17 M-11.83919373967212 -16.965071676755716 C-11.589843762670013 -16.973067845187888, -11.340493785667903 -16.98106401362006, -10.750000000000005 -17 M-10.750000000000005 -17 C-10.750000000000004 -17, -10.750000000000004 -17, -10.75 -17 M-10.750000000000005 -17 C-10.750000000000004 -17, -10.750000000000002 -17, -10.75 -17" stroke="#999" stroke-width="1.3" fill="none" stroke-dasharray="0 0" style=""/></g><g class="label" style="" transform="translate(0, -9.5)"><rect/><g><rect class="background" style="stroke: none"/><text y="-10.1" style=""><tspan class="text-outer-tspan row" x="0" y="-0.1em" dy="1.1em"><tspan font-style="normal" class="text-inner-tspan" font-weight="normal">开始</tspan></tspan></text></g></g></g><g class="node default" id="my-svg-flowchart-Request-1" data-look="classic" transform="translate(681.86328125, 116.5)"><rect class="basic label-container" style="" x="-83.109375" y="-24.5" width="166.21875" height="49"/><g class="label" style="" transform="translate(0, -9.5)"><rect/><g><rect class="background" style="stroke: none"/><text y="-10.1" style=""><tspan class="text-outer-tspan row" x="0" y="-0.1em" dy="1.1em"><tspan font-style="normal" class="text-inner-tspan" font-weight="normal">请求</tspan><tspan font-style="normal" class="text-inner-tspan" font-weight="normal"> DeepSeek</tspan></tspan></text></g></g></g><g class="node default" id="my-svg-flowchart-Check-3" data-look="classic" transform="translate(681.86328125, 271.5)"><polygon points="80.5,0 161,-80.5 80.5,-161 0,-80.5" class="label-container" transform="translate(-80, 80.5)"/><g class="label" style="" transform="translate(0, -9.5)"><rect/><g><rect class="background" style="stroke: none"/><text y="-10.1" style=""><tspan class="text-outer-tspan row" x="0" y="-0.1em" dy="1.1em"><tspan font-style="normal" class="text-inner-tspan" font-weight="normal">返回什么信号？</tspan></tspan></text></g></g></g><g class="node default" id="my-svg-flowchart-Done-5" data-look="classic" transform="translate(110, 497.5)"><rect class="basic label-container" style="" x="-102" y="-33.29999923706055" width="204" height="66.5999984741211"/><g class="label" style="" transform="translate(0, -18.299999237060547)"><rect/><g><rect class="background" style="stroke: none"/><text y="-10.1" style=""><tspan class="text-outer-tspan row" x="0" y="-0.1em" dy="1.1em"><tspan font-style="normal" class="text-inner-tspan" font-weight="normal">回到</tspan><tspan font-style="normal" class="text-inner-tspan" font-weight="normal"> Agent</tspan><tspan font-style="normal" class="text-inner-tspan" font-weight="normal"> Loop</tspan></tspan><tspan class="text-outer-tspan row" x="0" y="1em" dy="1.1em"><tspan font-style="normal" class="text-inner-tspan" font-weight="normal">执行工具或输出答案</tspan></tspan></text></g></g></g><g class="node default" id="my-svg-flowchart-L1-7" data-look="classic" transform="translate(334.5, 497.5)"><polygon points="72.5,0 145,-72.5 72.5,-145 0,-72.5" class="label-container" transform="translate(-72, 72.5)"/><g class="label" style="" transform="translate(0, -9.5)"><rect/><g><rect class="background" style="stroke: none"/><text y="-10.1" style=""><tspan class="text-outer-tspan row" x="0" y="-0.1em" dy="1.1em"><tspan font-style="normal" class="text-inner-tspan" font-weight="normal">第一次截断？</tspan></tspan></text></g></g></g><g class="node default" id="my-svg-flowchart-L2-9" data-look="classic" transform="translate(222.25, 723.5)"><rect class="basic label-container" style="" x="-116.125" y="-33.29999923706055" width="232.25" height="66.5999984741211"/><g class="label" style="" transform="translate(0, -18.299999237060547)"><rect/><g><rect class="background" style="stroke: none"/><text y="-10.1" style=""><tspan class="text-outer-tspan row" x="0" y="-0.1em" dy="1.1em"><tspan font-style="normal" class="text-inner-tspan" font-weight="normal">扩大输出上限</tspan></tspan><tspan class="text-outer-tspan row" x="0" y="1em" dy="1.1em"><tspan font-style="normal" class="text-inner-tspan" font-weight="normal">用原</tspan><tspan font-style="normal" class="text-inner-tspan" font-weight="normal"> messages</tspan><tspan font-style="normal" class="text-inner-tspan" font-weight="normal"> 重新请求</tspan></tspan></text></g></g></g><g class="node default" id="my-svg-flowchart-L3-11" data-look="classic" transform="translate(468.875, 723.5)"><polygon points="80.5,0 161,-80.5 80.5,-161 0,-80.5" class="label-container" transform="translate(-80, 80.5)"/><g class="label" style="" transform="translate(0, -9.5)"><rect/><g><rect class="background" style="stroke: none"/><text y="-10.1" style=""><tspan class="text-outer-tspan row" x="0" y="-0.1em" dy="1.1em"><tspan font-style="normal" class="text-inner-tspan" font-weight="normal">工具调用完整？</tspan></tspan></text></g></g></g><g class="node default" id="my-svg-flowchart-Stop-13" data-look="classic" transform="translate(686.8515625, 1185.099998474121)"><rect class="basic label-container" style="" x="-62" y="-24.5" width="124" height="49"/><g class="label" style="" transform="translate(0, -9.5)"><rect/><g><rect class="background" style="stroke: none"/><text y="-10.1" style=""><tspan class="text-outer-tspan row" x="0" y="-0.1em" dy="1.1em"><tspan font-style="normal" class="text-inner-tspan" font-weight="normal">明确停止</tspan></tspan></text></g></g></g><g class="node default" id="my-svg-flowchart-L4-15" data-look="classic" transform="translate(539.625, 973.5)"><polygon points="96.5,0 193,-96.5 96.5,-193 0,-96.5" class="label-container" transform="translate(-96, 96.5)"/><g class="label" style="" transform="translate(0, -9.5)"><rect/><g><rect class="background" style="stroke: none"/><text y="-10.1" style=""><tspan class="text-outer-tspan row" x="0" y="-0.1em" dy="1.1em"><tspan font-style="normal" class="text-inner-tspan" font-weight="normal">续写次数还没用完？</tspan></tspan></text></g></g></g><g class="node default" id="my-svg-flowchart-L5-17" data-look="classic" transform="translate(166.16015625, 1185.099998474121)"><rect class="basic label-container" style="" x="-78" y="-42.099998474121094" width="156" height="84.19999694824219"/><g class="label" style="" transform="translate(0, -27.099998474121094)"><rect/><g><rect class="background" style="stroke: none"/><text y="-10.1" style=""><tspan class="text-outer-tspan row" x="0" y="-0.1em" dy="1.1em"><tspan font-style="normal" class="text-inner-tspan" font-weight="normal">保存文本片段</tspan></tspan><tspan class="text-outer-tspan row" x="0" y="1em" dy="1.1em"><tspan font-style="normal" class="text-inner-tspan" font-weight="normal">追加续写提示</tspan></tspan><tspan class="text-outer-tspan row" x="0" y="2.1em" dy="1.1em"><tspan font-style="normal" class="text-inner-tspan" font-weight="normal">重新请求</tspan></tspan></text></g></g></g><g class="node default" id="my-svg-flowchart-C1-21" data-look="classic" transform="translate(771.36328125, 973.5)"><polygon points="72.5,0 145,-72.5 72.5,-145 0,-72.5" class="label-container" transform="translate(-72, 72.5)"/><g class="label" style="" transform="translate(0, -9.5)"><rect/><g><rect class="background" style="stroke: none"/><text y="-10.1" style=""><tspan class="text-outer-tspan row" x="0" y="-0.1em" dy="1.1em"><tspan font-style="normal" class="text-inner-tspan" font-weight="normal">已经压缩过？</tspan></tspan></text></g></g></g><g class="node default" id="my-svg-flowchart-C2-23" data-look="classic" transform="translate(386.63671875, 1185.099998474121)"><rect class="basic label-container" style="" x="-92.4765625" y="-33.29999923706055" width="184.953125" height="66.5999984741211"/><g class="label" style="" transform="translate(0, -18.299999237060547)"><rect/><g><rect class="background" style="stroke: none"/><text y="-10.1" style=""><tspan class="text-outer-tspan row" x="0" y="-0.1em" dy="1.1em"><tspan font-style="normal" class="text-inner-tspan" font-weight="normal">reactive</tspan><tspan font-style="normal" class="text-inner-tspan" font-weight="normal"> compact</tspan></tspan><tspan class="text-outer-tspan row" x="0" y="1em" dy="1.1em"><tspan font-style="normal" class="text-inner-tspan" font-weight="normal">重新请求</tspan></tspan></text></g></g></g><g class="node default" id="my-svg-flowchart-R1-27" data-look="classic" transform="translate(1003.86328125, 973.5)"><polygon points="96.5,0 193,-96.5 96.5,-193 0,-96.5" class="label-container" transform="translate(-96, 96.5)"/><g class="label" style="" transform="translate(0, -9.5)"><rect/><g><rect class="background" style="stroke: none"/><text y="-10.1" style=""><tspan class="text-outer-tspan row" x="0" y="-0.1em" dy="1.1em"><tspan font-style="normal" class="text-inner-tspan" font-weight="normal">重试次数还没用完？</tspan></tspan></text></g></g></g><g class="node default" id="my-svg-flowchart-R2-29" data-look="classic" transform="translate(1069.61328125, 1185.099998474121)"><rect class="basic label-container" style="" x="-94" y="-42.099998474121094" width="188" height="84.19999694824219"/><g class="label" style="" transform="translate(0, -27.099998474121094)"><rect/><g><rect class="background" style="stroke: none"/><text y="-10.1" style=""><tspan class="text-outer-tspan row" x="0" y="-0.1em" dy="1.1em"><tspan font-style="normal" class="text-inner-tspan" font-weight="normal">等待</tspan><tspan font-style="normal" class="text-inner-tspan" font-weight="normal"> +</tspan><tspan font-style="normal" class="text-inner-tspan" font-weight="normal"> 抖动</tspan></tspan><tspan class="text-outer-tspan row" x="0" y="1em" dy="1.1em"><tspan font-style="normal" class="text-inner-tspan" font-weight="normal">必要时切备用模型</tspan></tspan><tspan class="text-outer-tspan row" x="0" y="2.1em" dy="1.1em"><tspan font-style="normal" class="text-inner-tspan" font-weight="normal">重新请求</tspan></tspan></text></g></g></g></g></g></g><defs><filter id="my-svg-drop-shadow" height="130%" width="130%"><feDropShadow dx="4" dy="4" stdDeviation="0" flood-opacity="0.06" flood-color="#000000"/></filter></defs><defs><filter id="my-svg-drop-shadow-small" height="150%" width="150%"><feDropShadow dx="2" dy="2" stdDeviation="0" flood-opacity="0.06" flood-color="#000000"/></filter></defs><linearGradient id="my-svg-gradient" gradientUnits="objectBoundingBox" x1="0%" y1="0%" x2="100%" y2="0%"><stop offset="0%" stop-color="hsl(0, 0%, 83.3333333333%)" stop-opacity="1"/><stop offset="100%" stop-color="hsl(0, 0%, 88.9215686275%)" stop-opacity="1"/></linearGradient></svg>