<svg width="1174.2890625" height="1213.199951171875" id="my-svg" xmlns="http://www.w3.org/2000/svg" xmlns:xlink="http://www.w3.org/1999/xlink" class="flowchart" style="max-width: 1174.29px; background-color: white;" viewBox="0 0 1174.2890625 1213.199951171875" role="graphics-document document" aria-roledescription="flowchart-v2"><style>#my-svg{font-family:"trebuchet ms",verdana,arial,sans-serif;font-size:16px;fill:#000000;}@keyframes edge-animation-frame{from{stroke-dashoffset:0;}}@keyframes dash{to{stroke-dashoffset:0;}}#my-svg .edge-animation-slow{stroke-dasharray:9,5!important;stroke-dashoffset:900;animation:dash 50s linear infinite;stroke-linecap:round;}#my-svg .edge-animation-fast{stroke-dasharray:9,5!important;stroke-dashoffset:900;animation:dash 20s linear infinite;stroke-linecap:round;}#my-svg .error-icon{fill:#552222;}#my-svg .error-text{fill:#552222;stroke:#552222;}#my-svg .edge-thickness-normal{stroke-width:1px;}#my-svg .edge-thickness-thick{stroke-width:3.5px;}#my-svg .edge-pattern-solid{stroke-dasharray:0;}#my-svg .edge-thickness-invisible{stroke-width:0;fill:none;}#my-svg .edge-pattern-dashed{stroke-dasharray:3;}#my-svg .edge-pattern-dotted{stroke-dasharray:2;}#my-svg .marker{fill:#666;stroke:#666;}#my-svg .marker.cross{stroke:#666;}#my-svg svg{font-family:"trebuchet ms",verdana,arial,sans-serif;font-size:16px;}#my-svg p{margin:0;}#my-svg .label{font-family:"trebuchet ms",verdana,arial,sans-serif;color:#000000;}#my-svg .cluster-label text{fill:#333;}#my-svg .cluster-label span{color:#333;}#my-svg .cluster-label span p{background-color:transparent;}#my-svg .label text,#my-svg span{fill:#000000;color:#000000;}#my-svg .node rect,#my-svg .node circle,#my-svg .node ellipse,#my-svg .node polygon,#my-svg .node path{fill:#eee;stroke:#999;stroke-width:1px;}#my-svg .rough-node .label text,#my-svg .node .label text,#my-svg .image-shape .label,#my-svg .icon-shape .label{text-anchor:middle;}#my-svg .node .katex path{fill:#000;stroke:#000;stroke-width:1px;}#my-svg .rough-node .label,#my-svg .node .label,#my-svg .image-shape .label,#my-svg .icon-shape .label{text-align:center;}#my-svg .node.clickable{cursor:pointer;}#my-svg .root .anchor path{fill:#666!important;stroke-width:0;stroke:#666;}#my-svg .arrowheadPath{fill:#333333;}#my-svg .edgePath .path{stroke:#666;stroke-width:1px;}#my-svg .flowchart-link{stroke:#666;fill:none;}#my-svg .edgeLabel{background-color:white;text-align:center;}#my-svg .edgeLabel p{background-color:white;}#my-svg .edgeLabel rect{opacity:0.5;background-color:white;fill:white;}#my-svg .labelBkg{background-color:rgba(255, 255, 255, 0.5);}#my-svg .cluster rect{fill:hsl(0, 0%, 98.9215686275%);stroke:#707070;stroke-width:1px;}#my-svg .cluster text{fill:#333;}#my-svg .cluster span{color:#333;}#my-svg div.mermaidTooltip{position:absolute;text-align:center;max-width:200px;padding:2px;font-family:"trebuchet ms",verdana,arial,sans-serif;font-size:12px;background:hsl(-160, 0%, 93.3333333333%);border:1px solid #707070;border-radius:2px;pointer-events:none;z-index:100;}#my-svg .flowchartTitleText{text-anchor:middle;font-size:18px;fill:#000000;}#my-svg rect.text{fill:none;stroke-width:0;}#my-svg .icon-shape,#my-svg .image-shape{background-color:white;text-align:center;}#my-svg .icon-shape p,#my-svg .image-shape p{background-color:white;padding:2px;}#my-svg .icon-shape .label rect,#my-svg .image-shape .label rect{opacity:0.5;background-color:white;fill:white;}#my-svg .label-icon{display:inline-block;height:1em;overflow:visible;vertical-align:-0.125em;}#my-svg .node .label-icon path{fill:currentColor;stroke:revert;stroke-width:revert;}#my-svg .node .neo-node{stroke:#999;}#my-svg [data-look="neo"].node rect,#my-svg [data-look="neo"].cluster rect,#my-svg [data-look="neo"].node polygon{stroke:url(#my-svg-gradient);filter:drop-shadow( 1px 2px 2px rgba(185,185,185,1));}#my-svg [data-look="neo"].swimlane.cluster rect{filter:none;}#my-svg [data-look="neo"].node path{stroke:url(#my-svg-gradient);stroke-width:1px;}#my-svg [data-look="neo"].node .outer-path{filter:drop-shadow( 1px 2px 2px rgba(185,185,185,1));}#my-svg [data-look="neo"].node .neo-line path{stroke:#999;filter:none;}#my-svg [data-look="neo"].node circle{stroke:url(#my-svg-gradient);filter:drop-shadow( 1px 2px 2px rgba(185,185,185,1));}#my-svg [data-look="neo"].node circle .state-start{fill:#000000;}#my-svg [data-look="neo"].icon-shape .icon{fill:url(#my-svg-gradient);filter:drop-shadow( 1px 2px 2px rgba(185,185,185,1));}#my-svg [data-look="neo"].icon-shape .icon-neo path{stroke:url(#my-svg-gradient);filter:drop-shadow( 1px 2px 2px rgba(185,185,185,1));}#my-svg :root{--mermaid-font-family:"trebuchet ms",verdana,arial,sans-serif;}</style><g><marker id="my-svg_flowchart-v2-pointEnd" class="marker flowchart-v2" viewBox="0 0 10 10" refX="5" refY="5" markerUnits="userSpaceOnUse" markerWidth="8" markerHeight="8" orient="auto"><path d="M 0 0 L 10 5 L 0 10 z" class="arrowMarkerPath" style="stroke-width: 1; stroke-dasharray: 1, 0;"/></marker><marker id="my-svg_flowchart-v2-pointStart" class="marker flowchart-v2" viewBox="0 0 10 10" refX="4.5" refY="5" markerUnits="userSpaceOnUse" markerWidth="8" markerHeight="8" orient="auto"><path d="M 0 5 L 10 10 L 10 0 z" class="arrowMarkerPath" style="stroke-width: 1; stroke-dasharray: 1, 0;"/></marker><marker id="my-svg_flowchart-v2-pointEnd-margin" class="marker flowchart-v2" viewBox="0 0 11.5 14" refX="11.5" refY="7" markerUnits="userSpaceOnUse" markerWidth="10.5" markerHeight="14" orient="auto"><path d="M 0 0 L 11.5 7 L 0 14 z" class="arrowMarkerPath" style="stroke-width: 0; stroke-dasharray: 1, 0;"/></marker><marker id="my-svg_flowchart-v2-pointStart-margin" class="marker flowchart-v2" viewBox="0 0 11.5 14" refX="1" refY="7" markerUnits="userSpaceOnUse" markerWidth="11.5" markerHeight="14" orient="auto"><polygon points="0,7 11.5,14 11.5,0" class="arrowMarkerPath" style="stroke-width: 0; stroke-dasharray: 1, 0;"/></marker><marker id="my-svg_flowchart-v2-circleEnd" class="marker flowchart-v2" viewBox="0 0 10 10" refX="11" refY="5" markerUnits="userSpaceOnUse" markerWidth="11" markerHeight="11" orient="auto"><circle cx="5" cy="5" r="5" class="arrowMarkerPath" style="stroke-width: 1; stroke-dasharray: 1, 0;"/></marker><marker id="my-svg_flowchart-v2-circleStart" class="marker flowchart-v2" viewBox="0 0 10 10" refX="-1" refY="5" markerUnits="userSpaceOnUse" markerWidth="11" markerHeight="11" orient="auto"><circle cx="5" cy="5" r="5" class="arrowMarkerPath" style="stroke-width: 1; stroke-dasharray: 1, 0;"/></marker><marker id="my-svg_flowchart-v2-circleEnd-margin" class="marker flowchart-v2" viewBox="0 0 10 10" refY="5" refX="12.25" markerUnits="userSpaceOnUse" markerWidth="14" markerHeight="14" orient="auto"><circle cx="5" cy="5" r="5" class="arrowMarkerPath" style="stroke-width: 0; stroke-dasharray: 1, 0;"/></marker><marker id="my-svg_flowchart-v2-circleStart-margin" class="marker flowchart-v2" viewBox="0 0 10 10" refX="-2" refY="5" markerUnits="userSpaceOnUse" markerWidth="14" markerHeight="14" orient="auto"><circle cx="5" cy="5" r="5" class="arrowMarkerPath" style="stroke-width: 0; stroke-dasharray: 1, 0;"/></marker><marker id="my-svg_flowchart-v2-crossEnd" class="marker cross flowchart-v2" viewBox="0 0 11 11" refX="12" refY="5.2" markerUnits="userSpaceOnUse" markerWidth="11" markerHeight="11" orient="auto"><path d="M 1,1 l 9,9 M 10,1 l -9,9" class="arrowMarkerPath" style="stroke-width: 2; stroke-dasharray: 1, 0;"/></marker><marker id="my-svg_flowchart-v2-crossStart" class="marker cross flowchart-v2" viewBox="0 0 11 11" refX="-1" refY="5.2" markerUnits="userSpaceOnUse" markerWidth="11" markerHeight="11" orient="auto"><path d="M 1,1 l 9,9 M 10,1 l -9,9" class="arrowMarkerPath" style="stroke-width: 2; stroke-dasharray: 1, 0;"/></marker><marker id="my-svg_flowchart-v2-crossEnd-margin" class="marker cross flowchart-v2" viewBox="0 0 15 15" refX="17.7" refY="7.5" markerUnits="userSpaceOnUse" markerWidth="12" markerHeight="12" orient="auto"><path d="M 1,1 L 14,14 M 1,14 L 14,1" class="arrowMarkerPath" style="stroke-width: 2.5;"/></marker><marker id="my-svg_flowchart-v2-crossStart-margin" class="marker cross flowchart-v2" viewBox="0 0 15 15" refX="-3.5" refY="7.5" markerUnits="userSpaceOnUse" markerWidth="12" markerHeight="12" orient="auto"><path d="M 1,1 L 14,14 M 1,14 L 14,1" class="arrowMarkerPath" style="stroke-width: 2.5; stroke-dasharray: 1, 0;"/></marker><g class="root"><g class="clusters"/><g class="edgePaths"><path d="M682.289,40.5L682.206,44.583C682.122,48.667,681.956,56.833,681.872,64.417C681.789,72,681.789,79,681.789,82.5L681.789,86" id="my-svg-L_Start_Request_0" class="edge-thickness-normal edge-pattern-solid edge-thickness-normal edge-pattern-solid flowchart-link" style=";" data-edge="true" data-et="edge" data-id="L_Start_Request_0" data-points="W3sieCI6NjgyLjI4OTA2MjUsInkiOjQwLjV9LHsieCI6NjgxLjc4OTA2MjUsInkiOjY1fSx7IngiOjY4MS43ODkwNjI1LCJ5Ijo5MH1d" data-look="classic" marker-end="url(#my-svg_flowchart-v2-pointEnd)"/><path d="M681.789,137L681.789,141.167C681.789,145.333,681.789,153.667,681.789,161.333C681.789,169,681.789,176,681.789,179.5L681.789,183" id="my-svg-L_Request_Check_0" class="edge-thickness-normal edge-pattern-solid edge-thickness-normal edge-pattern-solid flowchart-link" style=";" data-edge="true" data-et="edge" data-id="L_Request_Check_0" data-points="W3sieCI6NjgxLjc4OTA2MjUsInkiOjEzN30seyJ4Ijo2ODEuNzg5MDYyNSwieSI6MTYyfSx7IngiOjY4MS43ODkwNjI1LCJ5IjoxODd9XQ==" data-look="classic" marker-end="url(#my-svg_flowchart-v2-pointEnd)"/><path d="M615.601,279.812L531.334,296.76C447.067,313.708,278.534,347.604,194.267,376.335C110,405.067,110,428.633,110,440.417L110,452.2" id="my-svg-L_Check_Done_0" class="edge-thickness-normal edge-pattern-solid edge-thickness-normal edge-pattern-solid flowchart-link" style=";" data-edge="true" data-et="edge" data-id="L_Check_Done_0" data-points="W3sieCI6NjE1LjYwMTAxMDA4MjE1ODgsInkiOjI3OS44MTE5NDc1ODIxNTg4NH0seyJ4IjoxMTAsInkiOjM4MS41fSx7IngiOjExMCwieSI6NDU2LjIwMDAwMDc2MjkzOTQ1fV0=" data-look="classic" marker-end="url(#my-svg_flowchart-v2-pointEnd)"/><path d="M622.023,286.234L573.936,302.112C525.849,317.989,429.674,349.745,381.587,370.872C333.5,392,333.5,402.5,333.5,407.75L333.5,413" id="my-svg-L_Check_L1_0" class="edge-thickness-normal edge-pattern-solid edge-thickness-normal edge-pattern-solid flowchart-link" style=";" data-edge="true" data-et="edge" data-id="L_Check_L1_0" data-points="W3sieCI6NjIyLjAyMjk2MjQzNDIzMzgsInkiOjI4Ni4yMzM4OTk5MzQyMzM4fSx7IngiOjMzMy41LCJ5IjozODEuNX0seyJ4IjozMzMuNSwieSI6NDE3fV0=" data-look="classic" marker-end="url(#my-svg_flowchart-v2-pointEnd)"/><path d="M296.974,523.474L284.436,535.478C271.899,547.482,246.825,571.491,234.287,596.612C221.75,621.733,221.75,647.967,221.75,661.083L221.75,674.2" id="my-svg-L_L1_L2_0" class="edge-thickness-normal edge-pattern-solid edge-thickness-normal edge-pattern-solid flowchart-link" style=";" data-edge="true" data-et="edge" data-id="L_L1_L2_0" data-points="W3sieCI6Mjk2Ljk3MzcxNDI4NTcxNDI3LCJ5Ijo1MjMuNDczNzE0Mjg1NzE0M30seyJ4IjoyMjEuNzUsInkiOjU5NS41fSx7IngiOjIyMS43NSwieSI6Njc4LjIwMDAwMDc2MjkzOTV9XQ==" data-look="classic" marker-end="url(#my-svg_flowchart-v2-pointEnd)"/><path d="M373.602,519.898L389.696,532.498C405.79,545.098,437.977,570.299,454.07,588.15C470.164,606,470.164,616.5,470.164,621.75L470.164,627" id="my-svg-L_L1_L3_0" class="edge-thickness-normal edge-pattern-solid edge-thickness-normal edge-pattern-solid flowchart-link" style=";" data-edge="true" data-et="edge" data-id="L_L1_L3_0" data-points="W3sieCI6MzczLjYwMjI2MzYxODU4MzUsInkiOjUxOS44OTc3MzYzODE0MTY1fSx7IngiOjQ3MC4xNjQwNjI1LCJ5Ijo1OTUuNX0seyJ4Ijo0NzAuMTY0MDYyNSwieSI6NjMxfV0=" data-look="classic" marker-end="url(#my-svg_flowchart-v2-pointEnd)"/><path d="M432.339,752.175L421.248,764.396C410.156,776.617,387.972,801.058,376.881,835.113C365.789,869.167,365.789,912.833,365.789,956.5C365.789,1000.167,365.789,1043.833,408.245,1075.81C450.701,1107.786,535.612,1128.072,578.068,1138.215L620.524,1148.358" id="my-svg-L_L3_Stop_0" class="edge-thickness-normal edge-pattern-solid edge-thickness-normal edge-pattern-solid flowchart-link" style=";" data-edge="true" data-et="edge" data-id="L_L3_Stop_0" data-points="W3sieCI6NDMyLjMzOTI3NjE3NTIxMzcsInkiOjc1Mi4xNzUyMTM2NzUyMTM2fSx7IngiOjM2NS43ODkwNjI1LCJ5Ijo4MjUuNX0seyJ4IjozNjUuNzg5MDYyNSwieSI6OTU2LjV9LHsieCI6MzY1Ljc4OTA2MjUsInkiOjEwODcuNX0seyJ4Ijo2MjQuNDE0MDYyNSwieSI6MTE0OS4yODc2NzkwODEwNzQ3fV0=" data-look="classic" marker-end="url(#my-svg_flowchart-v2-pointEnd)"/><path d="M500.312,759.852L506.996,770.794C513.679,781.735,527.047,803.617,533.73,819.809C540.414,836,540.414,846.5,540.414,851.75L540.414,857" id="my-svg-L_L3_L4_0" class="edge-thickness-normal edge-pattern-solid edge-thickness-normal edge-pattern-solid flowchart-link" style=";" data-edge="true" data-et="edge" data-id="L_L3_L4_0" data-points="W3sieCI6NTAwLjMxMTgzNTc3OTM1MjI0LCJ5Ijo3NTkuODUyMjI2NzIwNjQ3OH0seyJ4Ijo1NDAuNDE0MDYyNSwieSI6ODI1LjV9LHsieCI6NTQwLjQxNDA2MjUsInkiOjg2MX1d" data-look="classic" marker-end="url(#my-svg_flowchart-v2-pointEnd)"/><path d="M501.683,1013.269L493.243,1025.641C484.802,1038.013,467.92,1062.756,426.29,1084.176C384.659,1105.595,318.279,1123.69,285.088,1132.738L251.898,1141.785" id="my-svg-L_L4_L5_0" class="edge-thickness-normal edge-pattern-solid edge-thickness-normal edge-pattern-solid flowchart-link" style=";" data-edge="true" data-et="edge" data-id="L_L4_L5_0" data-points="W3sieCI6NTAxLjY4MzIwNjAwNTM4ODU3LCJ5IjoxMDEzLjI2OTE0MzUwNTM4ODZ9LHsieCI6NDUxLjAzOTA2MjUsInkiOjEwODcuNX0seyJ4IjoyNDguMDM5MDYyNSwieSI6MTE0Mi44MzczNjU0NDU3MTczfV0=" data-look="classic" marker-end="url(#my-svg_flowchart-v2-pointEnd)"/><path d="M578.919,1013.495L587.251,1025.83C595.584,1038.164,612.249,1062.832,626.825,1083.483C641.4,1104.134,653.886,1120.767,660.129,1129.084L666.372,1137.401" id="my-svg-L_L4_Stop_0" class="edge-thickness-normal edge-pattern-solid edge-thickness-normal edge-pattern-solid flowchart-link" style=";" data-edge="true" data-et="edge" data-id="L_L4_Stop_0" data-points="W3sieCI6NTc4LjkxODYxODMwODY1NiwieSI6MTAxMy40OTU0NDQxOTEzNDR9LHsieCI6NjI4LjkxNDA2MjUsInkiOjEwODcuNX0seyJ4Ijo2NjguNzczNzIyNzIzMDE1MywieSI6MTE0MC41OTk5OTg0NzQxMjF9XQ==" data-look="classic" marker-end="url(#my-svg_flowchart-v2-pointEnd)"/><path d="M716.363,311.426L725.35,323.105C734.338,334.784,752.314,358.142,761.301,387.654C770.289,417.167,770.289,452.833,770.289,488.5C770.289,524.167,770.289,559.833,770.289,596.833C770.289,633.833,770.289,672.167,770.289,710.5C770.289,748.833,770.289,787.167,770.289,815.583C770.289,844,770.289,862.5,770.289,871.75L770.289,881" id="my-svg-L_Check_C1_0" class="edge-thickness-normal edge-pattern-solid edge-thickness-normal edge-pattern-solid flowchart-link" style=";" data-edge="true" data-et="edge" data-id="L_Check_C1_0" data-points="W3sieCI6NzE2LjM2Mjc3MjU3MzcxMDEsInkiOjMxMS40MjYyODk5MjYyODk5NH0seyJ4Ijo3NzAuMjg5MDYyNSwieSI6MzgxLjV9LHsieCI6NzcwLjI4OTA2MjUsInkiOjQ4OC41fSx7IngiOjc3MC4yODkwNjI1LCJ5Ijo1OTUuNX0seyJ4Ijo3NzAuMjg5MDYyNSwieSI6NzEwLjV9LHsieCI6NzcwLjI4OTA2MjUsInkiOjgyNS41fSx7IngiOjc3MC4yODkwNjI1LCJ5Ijo4ODV9XQ==" data-look="classic" marker-end="url(#my-svg_flowchart-v2-pointEnd)"/><path d="M739.097,996.808L727.4,1011.923C715.703,1027.038,692.308,1057.269,649.692,1080.84C607.075,1104.41,545.236,1121.32,514.317,1129.775L483.397,1138.229" id="my-svg-L_C1_C2_0" class="edge-thickness-normal edge-pattern-solid edge-thickness-normal edge-pattern-solid flowchart-link" style=";" data-edge="true" data-et="edge" data-id="L_C1_C2_0" data-points="W3sieCI6NzM5LjA5Njc1NDgwNzY5MjMsInkiOjk5Ni44MDc2OTIzMDc2OTIzfSx7IngiOjY2OC45MTQwNjI1LCJ5IjoxMDg3LjV9LHsieCI6NDc5LjUzOTA2MjUsInkiOjExMzkuMjg0NDcwMTg2NjU0N31d" data-look="classic" marker-end="url(#my-svg_flowchart-v2-pointEnd)"/><path d="M799.117,999.172L809.062,1013.893C819.008,1028.615,838.898,1058.057,829.538,1081.358C820.177,1104.659,781.564,1121.817,762.258,1130.396L742.952,1138.976" id="my-svg-L_C1_Stop_0" class="edge-thickness-normal edge-pattern-solid edge-thickness-normal edge-pattern-solid flowchart-link" style=";" data-edge="true" data-et="edge" data-id="L_C1_Stop_0" data-points="W3sieCI6Nzk5LjExNzA4MDcyMzIzNDYsInkiOjk5OS4xNzE5ODE3NzY3NjU0fSx7IngiOjg1OC43ODkwNjI1LCJ5IjoxMDg3LjV9LHsieCI6NzM5LjI5NjczMzI2NjIyMTMsInkiOjExNDAuNTk5OTk4NDc0MTIxfV0=" data-look="classic" marker-end="url(#my-svg_flowchart-v2-pointEnd)"/><path d="M740.272,287.517L783.858,303.181C827.444,318.845,914.617,350.172,958.203,383.67C1001.789,417.167,1001.789,452.833,1001.789,488.5C1001.789,524.167,1001.789,559.833,1001.789,596.833C1001.789,633.833,1001.789,672.167,1001.789,710.5C1001.789,748.833,1001.789,787.167,1001.789,811.583C1001.789,836,1001.789,846.5,1001.789,851.75L1001.789,857" id="my-svg-L_Check_R1_0" class="edge-thickness-normal edge-pattern-solid edge-thickness-normal edge-pattern-solid flowchart-link" style=";" data-edge="true" data-et="edge" data-id="L_Check_R1_0" data-points="W3sieCI6NzQwLjI3MTgyMTEyMDY4OTcsInkiOjI4Ny41MTcyNDEzNzkzMTAzNX0seyJ4IjoxMDAxLjc4OTA2MjUsInkiOjM4MS41fSx7IngiOjEwMDEuNzg5MDYyNSwieSI6NDg4LjV9LHsieCI6MTAwMS43ODkwNjI1LCJ5Ijo1OTUuNX0seyJ4IjoxMDAxLjc4OTA2MjUsInkiOjcxMC41fSx7IngiOjEwMDEuNzg5MDYyNSwieSI6ODI1LjV9LHsieCI6MTAwMS43ODkwNjI1LCJ5Ijo4NjF9XQ==" data-look="classic" marker-end="url(#my-svg_flowchart-v2-pointEnd)"/><path d="M989.14,1039.351L987.915,1047.376C986.69,1055.401,984.239,1071.45,989.103,1084.946C993.967,1098.442,1006.145,1109.384,1012.234,1114.855L1018.323,1120.327" id="my-svg-L_R1_R2_0" class="edge-thickness-normal edge-pattern-solid edge-thickness-normal edge-pattern-solid flowchart-link" style=";" data-edge="true" data-et="edge" data-id="L_R1_R2_0" data-points="W3sieCI6OTg5LjE0MDA1NTg3NzQ4MzQsInkiOjEwMzkuMzUwOTkzMzc3NDgzNX0seyJ4Ijo5ODEuNzg5MDYyNSwieSI6MTA4Ny41fSx7IngiOjEwMjEuMjk3ODc1Mjk3NDYzLCJ5IjoxMTIzfV0=" data-look="classic" marker-end="url(#my-svg_flowchart-v2-pointEnd)"/><path d="M1028.266,1025.523L1032.228,1035.853C1036.19,1046.182,1044.115,1066.841,998.125,1087.636C952.136,1108.43,852.232,1129.36,802.281,1139.825L752.329,1150.291" id="my-svg-L_R1_Stop_0" class="edge-thickness-normal edge-pattern-solid edge-thickness-normal edge-pattern-solid flowchart-link" style=";" data-edge="true" data-et="edge" data-id="L_R1_Stop_0" data-points="W3sieCI6MTAyOC4yNjU2MTQyMjQxMzc4LCJ5IjoxMDI1LjUyMzQ0ODI3NTg2MjJ9LHsieCI6MTA1Mi4wMzkwNjI1LCJ5IjoxMDg3LjV9LHsieCI6NzQ4LjQxNDA2MjUsInkiOjExNTEuMTEwNzMzNzc1NjAzNH1d" data-look="classic" marker-end="url(#my-svg_flowchart-v2-pointEnd)"/><path d="M745.122,282.667L809.65,299.139C874.178,315.611,1003.233,348.556,1067.761,382.861C1132.289,417.167,1132.289,452.833,1132.289,488.5C1132.289,524.167,1132.289,559.833,1132.289,596.833C1132.289,633.833,1132.289,672.167,1132.289,710.5C1132.289,748.833,1132.289,787.167,1132.289,828.167C1132.289,869.167,1132.289,912.833,1132.289,956.5C1132.289,1000.167,1132.289,1043.833,1068.967,1076.545C1005.645,1109.257,879.001,1131.014,815.678,1141.893L752.356,1152.771" id="my-svg-L_Check_Stop_0" class="edge-thickness-normal edge-pattern-solid edge-thickness-normal edge-pattern-solid flowchart-link" style=";" data-edge="true" data-et="edge" data-id="L_Check_Stop_0" data-points="W3sieCI6NzQ1LjEyMTk1Mzc0NjY4NDMsInkiOjI4Mi42NjcxMDg3NTMzMTU2M30seyJ4IjoxMTMyLjI4OTA2MjUsInkiOjM4MS41fSx7IngiOjExMzIuMjg5MDYyNSwieSI6NDg4LjV9LHsieCI6MTEzMi4yODkwNjI1LCJ5Ijo1OTUuNX0seyJ4IjoxMTMyLjI4OTA2MjUsInkiOjcxMC41fSx7IngiOjExMzIuMjg5MDYyNSwieSI6ODI1LjV9LHsieCI6MTEzMi4yODkwNjI1LCJ5Ijo5NTYuNX0seyJ4IjoxMTMyLjI4OTA2MjUsInkiOjEwODcuNX0seyJ4Ijo3NDguNDE0MDYyNSwieSI6MTE1My40NDg1ODI5MzA3NjE0fV0=" data-look="classic" marker-end="url(#my-svg_flowchart-v2-pointEnd)"/></g><g class="edgeLabels"><g class="edgeLabel"><g class="label" data-id="L_Start_Request_0" transform="translate(0, 0)"><text y="-10.1" text-anchor="middle"><tspan class="text-outer-tspan row" x="0" y="-0.1em" dy="1.1em" text-anchor="middle"/></text></g></g><g><rect class="background" style="stroke: none"/></g><g class="edgeLabel"><g class="label" data-id="L_Request_Check_0" transform="translate(0, 0)"><text y="-10.1" text-anchor="middle"><tspan class="text-outer-tspan row" x="0" y="-0.1em" dy="1.1em" text-anchor="middle"/></text></g></g><g><rect class="background" style="stroke: none"/></g><g class="edgeLabel" transform="translate(110, 381.5)"><g class="label" data-id="L_Check_Done_0" transform="translate(-0.046875, -10.5)"><g><rect class="background" style="" x="-52.6875" y="0" width="105.46875" height="21"/><text y="-10.1" text-anchor="middle" style=""><tspan class="text-outer-tspan row" x="0" y="-0.1em" dy="1.1em" text-anchor="middle"><tspan font-style="normal" class="text-inner-tspan" font-weight="normal">完整</tspan><tspan font-style="normal" class="text-inner-tspan" font-weight="normal"> message</tspan></tspan></text></g></g></g><g class="edgeLabel" transform="translate(333.5, 381.5)"><g class="label" data-id="L_Check_L1_0" transform="translate(0, -10.5)"><g><rect class="background" style="" x="-34" y="0" width="68" height="21"/><text y="-10.1" text-anchor="middle" style=""><tspan class="text-outer-tspan row" x="0" y="-0.1em" dy="1.1em" text-anchor="middle"><tspan font-style="normal" class="text-inner-tspan" font-weight="normal">输出截断</tspan></tspan></text></g></g></g><g class="edgeLabel" transform="translate(221.75, 595.5)"><g class="label" data-id="L_L1_L2_0" transform="translate(0, -10.5)"><g><rect class="background" style="" x="-10" y="0" width="20" height="21"/><text y="-10.1" text-anchor="middle" style=""><tspan class="text-outer-tspan row" x="0" y="-0.1em" dy="1.1em" text-anchor="middle"><tspan font-style="normal" class="text-inner-tspan" font-weight="normal">是</tspan></tspan></text></g></g></g><g class="edgeLabel" transform="translate(470.1640625, 595.5)"><g class="label" data-id="L_L1_L3_0" transform="translate(0, -10.5)"><g><rect class="background" style="" x="-10" y="0" width="20" height="21"/><text y="-10.1" text-anchor="middle" style=""><tspan class="text-outer-tspan row" x="0" y="-0.1em" dy="1.1em" text-anchor="middle"><tspan font-style="normal" class="text-inner-tspan" font-weight="normal">否</tspan></tspan></text></g></g></g><g class="edgeLabel" transform="translate(365.7890625, 956.5)"><g class="label" data-id="L_L3_Stop_0" transform="translate(0, -10.5)"><g><rect class="background" style="" x="-10" y="0" width="20" height="21"/><text y="-10.1" text-anchor="middle" style=""><tspan class="text-outer-tspan row" x="0" y="-0.1em" dy="1.1em" text-anchor="middle"><tspan font-style="normal" class="text-inner-tspan" font-weight="normal">否</tspan></tspan></text></g></g></g><g class="edgeLabel" transform="translate(540.4140625, 825.5)"><g class="label" data-id="L_L3_L4_0" transform="translate(0, -10.5)"><g><rect class="background" style="" x="-10" y="0" width="20" height="21"/><text y="-10.1" text-anchor="middle" style=""><tspan class="text-outer-tspan row" x="0" y="-0.1em" dy="1.1em" text-anchor="middle"><tspan font-style="normal" class="text-inner-tspan" font-weight="normal">是</tspan></tspan></text></g></g></g><g class="edgeLabel" transform="translate(392.88794, 1103.35187)"><g class="label" data-id="L_L4_L5_0" transform="translate(0, -10.5)"><g><rect class="background" style="" x="-10" y="0" width="20" height="21"/><text y="-10.1" text-anchor="middle" style=""><tspan class="text-outer-tspan row" x="0" y="-0.1em" dy="1.1em" text-anchor="middle"><tspan font-style="normal" class="text-inner-tspan" font-weight="normal">是</tspan></tspan></text></g></g></g><g class="edgeLabel" transform="translate(622.50048, 1078.00645)"><g class="label" data-id="L_L4_Stop_0" transform="translate(0, -10.5)"><g><rect class="background" style="" x="-10" y="0" width="20" height="21"/><text y="-10.1" text-anchor="middle" style=""><tspan class="text-outer-tspan row" x="0" y="-0.1em" dy="1.1em" text-anchor="middle"><tspan font-style="normal" class="text-inner-tspan" font-weight="normal">否</tspan></tspan></text></g></g></g><g class="edgeLabel" transform="translate(770.2890625, 595.5)"><g class="label" data-id="L_Check_C1_0" transform="translate(0, -10.5)"><g><rect class="background" style="" x="-42" y="0" width="84" height="21"/><text y="-10.1" text-anchor="middle" style=""><tspan class="text-outer-tspan row" x="0" y="-0.1em" dy="1.1em" text-anchor="middle"><tspan font-style="normal" class="text-inner-tspan" font-weight="normal">上下文超限</tspan></tspan></text></g></g></g><g class="edgeLabel" transform="translate(629.53429, 1098.26837)"><g class="label" data-id="L_C1_C2_0" transform="translate(0, -10.5)"><g><rect class="background" style="" x="-10" y="0" width="20" height="21"/><text y="-10.1" text-anchor="middle" style=""><tspan class="text-outer-tspan row" x="0" y="-0.1em" dy="1.1em" text-anchor="middle"><tspan font-style="normal" class="text-inner-tspan" font-weight="normal">否</tspan></tspan></text></g></g></g><g class="edgeLabel" transform="translate(847.74813, 1092.40637)"><g class="label" data-id="L_C1_Stop_0" transform="translate(0, -10.5)"><g><rect class="background" style="" x="-10" y="0" width="20" height="21"/><text y="-10.1" text-anchor="middle" style=""><tspan class="text-outer-tspan row" x="0" y="-0.1em" dy="1.1em" text-anchor="middle"><tspan font-style="normal" class="text-inner-tspan" font-weight="normal">是</tspan></tspan></text></g></g></g><g class="edgeLabel" transform="translate(1001.7890625, 595.5)"><g class="label" data-id="L_Check_R1_0" transform="translate(-0.05078125, -10.5)"><g><rect class="background" style="" x="-35.3671875" y="0" width="70.8359375" height="21"/><text y="-10.1" text-anchor="middle" style=""><tspan class="text-outer-tspan row" x="0" y="-0.1em" dy="1.1em" text-anchor="middle"><tspan font-style="normal" class="text-inner-tspan" font-weight="normal">429</tspan><tspan font-style="normal" class="text-inner-tspan" font-weight="normal"> /</tspan><tspan font-style="normal" class="text-inner-tspan" font-weight="normal"> 529</tspan></tspan></text></g></g></g><g class="edgeLabel" transform="translate(983.42848, 1088.97307)"><g class="label" data-id="L_R1_R2_0" transform="translate(0, -10.5)"><g><rect class="background" style="" x="-10" y="0" width="20" height="21"/><text y="-10.1" text-anchor="middle" style=""><tspan class="text-outer-tspan row" x="0" y="-0.1em" dy="1.1em" text-anchor="middle"><tspan font-style="normal" class="text-inner-tspan" font-weight="normal">是</tspan></tspan></text></g></g></g><g class="edgeLabel" transform="translate(1052.0390625, 1087.5)"><g class="label" data-id="L_R1_Stop_0" transform="translate(0, -10.5)"><g><rect class="background" style="" x="-10" y="0" width="20" height="21"/><text y="-10.1" text-anchor="middle" style=""><tspan class="text-outer-tspan row" x="0" y="-0.1em" dy="1.1em" text-anchor="middle"><tspan font-style="normal" class="text-inner-tspan" font-weight="normal">否</tspan></tspan></text></g></g></g><g class="edgeLabel" transform="translate(1132.2890625, 710.5)"><g class="label" data-id="L_Check_Stop_0" transform="translate(0, -10.5)"><g><rect class="background" style="" x="-34" y="0" width="68" height="21"/><text y="-10.1" text-anchor="middle" style=""><tspan class="text-outer-tspan row" x="0" y="-0.1em" dy="1.1em" text-anchor="middle"><tspan font-style="normal" class="text-inner-tspan" font-weight="normal">普通错误</tspan></tspan></text></g></g></g></g><g class="nodes"><g class="node default" id="my-svg-flowchart-Start-0" data-look="classic" transform="translate(681.7890625, 24)"><g class="basic label-container outer-path"><path d="M-11.5 -16 C-6.419544489407687 -16, -1.339088978815374 -16, 11.5 -16 C11.5 -16, 11.499999999999998 -16, 11.499999999999998 -16 C11.857514702047569 -15.988535199365487, 12.215029404095137 -15.977070398730973, 12.525123519691405 -15.967126284005381 C12.732692692202958 -15.947102335571646, 12.94026186471451 -15.92707838713791, 13.546034586952095 -15.868640221171939 C13.907600556940302 -15.81018503913022, 14.269166526928508 -15.751729857088502, 14.558538059221954 -15.704946511857047 C14.905478907313148 -15.625759527280847, 15.252419755404343 -15.546572542704649, 15.558473342552116 -15.476717808624471 C15.946453252327528 -15.361567407951235, 16.33443316210294 -15.246417007277996, 16.54173148837793 -15.184891952170698 C16.8129974951308 -15.085063554130164, 17.084263501883672 -14.985235156089628, 17.504272078069985 -14.830668117536348 C17.76723840219853 -14.71426072646349, 18.030204726327078 -14.597853335390631, 18.44213982588093 -14.415501886438706 C18.698462374577424 -14.281778576966174, 18.954784923273916 -14.14805526749364, 19.351480832063 -13.941099265974232 C19.63434282728152 -13.76962666219117, 19.917204822500043 -13.598154058408108, 20.228558419368778 -13.409409678269451 C20.535738334758612 -13.19513426689772, 20.84291825014845 -12.980858855525987, 21.069768487859456 -12.822617949887306 C21.31983546143316 -12.623196193023917, 21.569902435006867 -12.423774436160528, 21.871654324924613 -12.183135333906153 C22.059250103637435 -12.012765811191478, 22.24684588235026 -11.842396288476806, 22.630920809655784 -11.493589601563642 C22.908715052304547 -11.206744238697315, 23.186509294953307 -10.919898875830988, 23.344447953205048 -10.756814244181072 C23.507305128566447 -10.565512939165774, 23.67016230392785 -10.374211634150479, 24.00930371948848 -9.975836829739738 C24.206353188580223 -9.711808492732732, 24.40340265767197 -9.447780155725725, 24.62275607355129 -9.153866561954718 C24.745243575650615 -8.965692866230457, 24.86773107774994 -8.777519170506196, 25.182284208085537 -8.294281092968403 C25.32765666736503 -8.036157570959922, 25.47302912664452 -7.778034048951443, 25.685588901968003 -7.400612643853364 C25.831197024928993 -7.098254261010131, 25.976805147889984 -6.795895878166898, 26.130601968252996 -6.476533489958305 C26.25301595562975 -6.1741685744242885, 26.375429943006502 -5.871803658890271, 26.515494752796165 -5.52584087074093 C26.601420347772923 -5.2670466690553015, 26.687345942749683 -5.008252467369673, 26.83868564858657 -4.552441386096524 C26.91434207714457 -4.263930634301302, 26.989998505702577 -3.9754198825060802, 27.098846594909176 -3.560334943301032 C27.175652322894788 -3.1659537629912795, 27.2524580508804 -2.7715725826815274, 27.2949085346312 -2.5535983205340735 C27.323255630584292 -2.3337438420891496, 27.351602726537383 -2.113889363644226, 27.42606580718717 -1.536368414522911 C27.44138573143353 -1.297748228365561, 27.456705655679894 -1.0591280422082108, 27.491779459211006 -0.5128252411464826 C27.491779459211006 -0.25757821893607274, 27.491779459211006 -0.002331196725662843, 27.491779459211006 0.5128252411464788 C27.471042505805418 0.8358200290060331, 27.45030555239983 1.1588148168655874, 27.42606580718717 1.5363684145229002 C27.375607793445752 1.927710805039538, 27.325149779704333 2.319053195556176, 27.294908534631205 2.5535983205340624 C27.226026130753326 2.9072949061457587, 27.157143726875443 3.2609914917574554, 27.098846594909176 3.5603349433010285 C27.018289667572823 3.867533420827698, 26.937732740236473 4.174731898354367, 26.83868564858657 4.552441386096513 C26.720378844724216 4.908762629700554, 26.602072040861863 5.2650838733045955, 26.515494752796165 5.525840870740919 C26.39249341316013 5.8296565577110595, 26.269492073524088 6.1334722446812, 26.130601968253 6.4765334899583005 C26.013577659408448 6.719536971193106, 25.89655335056389 6.962540452427911, 25.685588901968003 7.400612643853361 C25.500435253555853 7.729371695449091, 25.315281605143703 8.058130747044821, 25.18228420808554 8.294281092968399 C25.022986179095568 8.539005643007197, 24.863688150105595 8.783730193045995, 24.622756073551297 9.15386656195471 C24.429508451151452 9.412800770749927, 24.236260828751607 9.671734979545144, 24.00930371948848 9.975836829739734 C23.8505022309187 10.162374094274478, 23.69170074234892 10.348911358809222, 23.344447953205055 10.756814244181063 C23.105592135437636 11.003452486453266, 22.866736317670213 11.250090728725471, 22.630920809655784 11.493589601563638 C22.347205929970674 11.751251948609292, 22.063491050285567 12.008914295654948, 21.871654324924627 12.183135333906142 C21.59438870515109 12.404247287327525, 21.31712308537755 12.62535924074891, 21.06976848785946 12.822617949887304 C20.776865470743328 13.026934415060266, 20.483962453627193 13.23125088023323, 20.228558419368788 13.409409678269446 C19.913728707188724 13.600261299937753, 19.59889899500866 13.791112921606059, 19.351480832063004 13.94109926597423 C19.11610806802622 14.06389308620877, 18.88073530398944 14.186686906443308, 18.442139825880933 14.415501886438705 C18.181218383884264 14.531004068851054, 17.920296941887596 14.646506251263403, 17.50427207806999 14.830668117536346 C17.271134953189055 14.916464734588489, 17.037997828308114 15.002261351640632, 16.54173148837794 15.184891952170695 C16.16360200144372 15.297118799050592, 15.785472514509497 15.40934564593049, 15.558473342552134 15.476717808624468 C15.279040219699088 15.540496595444136, 14.99960709684604 15.604275382263806, 14.558538059221961 15.704946511857045 C14.319622580658544 15.74357251361397, 14.080707102095129 15.782198515370895, 13.546034586952105 15.868640221171937 C13.296240851677823 15.892737522392927, 13.046447116403542 15.916834823613918, 12.525123519691405 15.967126284005381 C12.31443383468445 15.973882692120961, 12.103744149677496 15.98063910023654, 11.500000000000004 16 C11.500000000000004 16, 11.500000000000002 16, 11.5 16 C2.798954656434109 16, -5.902090687131782 16, -11.499999999999996 16 C-11.828865182594468 15.989453933691442, -12.15773036518894 15.978907867382881, -12.5251235196914 15.967126284005381 C-12.905040616942255 15.93047613855075, -13.284957714193112 15.893825993096119, -13.5460345869521 15.868640221171937 C-13.847346492025778 15.819926449068348, -14.148658397099455 15.771212676964758, -14.558538059221956 15.704946511857045 C-14.855414040224266 15.637186506490094, -15.152290021226579 15.569426501123141, -15.558473342552112 15.476717808624471 C-15.910872061884684 15.37212771850519, -16.263270781217255 15.267537628385908, -16.541731488377923 15.184891952170702 C-16.79093767325248 15.093181772500145, -17.04014385812704 15.001471592829587, -17.504272078069988 14.830668117536348 C-17.87882078508442 14.664866515533692, -18.253369492098855 14.499064913531036, -18.44213982588093 14.415501886438708 C-18.796800821515436 14.230475472187395, -19.151461817149944 14.045449057936082, -19.351480832063 13.941099265974234 C-19.581928660270222 13.801400438253255, -19.812376488477447 13.661701610532276, -20.228558419368767 13.409409678269457 C-20.44529787003759 13.258221619982487, -20.66203732070641 13.107033561695518, -21.069768487859456 12.822617949887308 C-21.268901866784876 12.66381437935605, -21.468035245710297 12.50501080882479, -21.871654324924613 12.183135333906154 C-22.10499295232252 11.971223366305141, -22.33833157972043 11.75931139870413, -22.630920809655777 11.493589601563649 C-22.816055869231285 11.302422452680865, -23.001190928806796 11.111255303798082, -23.344447953205048 10.756814244181069 C-23.484585945076514 10.592200184851214, -23.624723936947976 10.427586125521358, -24.009303719488475 9.97583682973974 C-24.233385137207854 9.675588144232888, -24.45746655492723 9.375339458726037, -24.62275607355129 9.15386656195472 C-24.78327240653729 8.907270369817594, -24.943788739523292 8.66067417768047, -25.182284208085534 8.29428109296841 C-25.315779462913333 8.057246750161271, -25.449274717741137 7.820212407354131, -25.685588901968 7.400612643853366 C-25.78896252670671 7.185955100242193, -25.892336151445424 6.971297556631019, -26.130601968252996 6.476533489958307 C-26.22954395197725 6.2321448772462835, -26.3284859357015 5.98775626453426, -26.515494752796165 5.525840870740931 C-26.583079780118194 5.322285536658731, -26.650664807440222 5.118730202576531, -26.83868564858657 4.552441386096519 C-26.939227407783118 4.169032083205995, -27.03976916697967 3.7856227803154705, -27.098846594909176 3.5603349433010343 C-27.144736493647056 3.3247000121155583, -27.190626392384935 3.0890650809300824, -27.2949085346312 2.5535983205340753 C-27.341929606297 2.1889121740549857, -27.3889506779628 1.8242260275758961, -27.42606580718717 1.5363684145229202 C-27.448592891163926 1.1854908980500674, -27.47111997514068 0.8346133815772145, -27.491779459211006 0.5128252411464846 C-27.491779459211006 0.13439306417296099, -27.491779459211006 -0.24403911280056267, -27.491779459211006 -0.5128252411464769 C-27.466031472114132 -0.9138709235813962, -27.440283485017257 -1.3149166060163155, -27.42606580718717 -1.5363684145228982 C-27.37713890891217 -1.915835775834949, -27.328212010637166 -2.2953031371469996, -27.294908534631205 -2.5535983205340678 C-27.2527767700274 -2.769936027223007, -27.21064500542359 -2.986273733911946, -27.098846594909176 -3.5603349433010267 C-27.044852710149602 -3.7662370269869654, -26.99085882539003 -3.9721391106729036, -26.838685648586573 -4.552441386096511 C-26.756610773196186 -4.799637833916831, -26.674535897805804 -5.0468342817371505, -26.515494752796172 -5.525840870740911 C-26.37103995651612 -5.882647010396129, -26.22658516023607 -6.2394531500513475, -26.130601968253 -6.476533489958299 C-25.99410714944215 -6.759967901740291, -25.8576123306313 -7.043402313522283, -25.685588901968003 -7.400612643853359 C-25.58075164611267 -7.58676180754781, -25.475914390257337 -7.772910971242261, -25.182284208085537 -8.294281092968404 C-25.02396566044245 -8.537500896630815, -24.865647112799365 -8.780720700293227, -24.622756073551294 -9.153866561954715 C-24.448346406352996 -9.387559626952884, -24.2739367391547 -9.621252691951053, -24.00930371948848 -9.975836829739734 C-23.795422841088573 -10.227073479675012, -23.581541962688664 -10.47831012961029, -23.344447953205055 -10.756814244181063 C-23.086865006815433 -11.022789784281544, -22.82928206042581 -11.288765324382027, -22.63092080965579 -11.493589601563633 C-22.399935985072872 -11.703363907726283, -22.168951160489954 -11.913138213888935, -21.871654324924627 -12.18313533390614 C-21.63385479510682 -12.37277413082459, -21.396055265289014 -12.562412927743038, -21.069768487859463 -12.822617949887302 C-20.88070576409383 -12.954499921592806, -20.691643040328195 -13.08638189329831, -20.228558419368788 -13.409409678269444 C-19.95219597916386 -13.57694221360764, -19.675833538958933 -13.744474748945837, -19.351480832063007 -13.941099265974229 C-19.06874841267736 -14.088600588068964, -18.78601599329171 -14.2361019101637, -18.442139825880936 -14.415501886438705 C-18.089962758133556 -14.571400227368935, -17.73778569038618 -14.727298568299165, -17.504272078069995 -14.830668117536344 C-17.2944351104037 -14.907890061349207, -17.084598142737402 -14.98511200516207, -16.54173148837794 -15.184891952170695 C-16.316241661050697 -15.251816149301163, -16.090751833723452 -15.318740346431634, -15.558473342552134 -15.476717808624466 C-15.218292542776327 -15.554361856286116, -14.878111743000522 -15.632005903947766, -14.558538059221963 -15.704946511857043 C-14.240342533344187 -15.756389896837806, -13.92214700746641 -15.807833281818567, -13.546034586952107 -15.868640221171937 C-13.222766928981093 -15.89982546335016, -12.89949927101008 -15.931010705528385, -12.525123519691407 -15.967126284005381 C-12.155695840407354 -15.978973110632666, -11.786268161123301 -15.99081993725995, -11.500000000000005 -16 C-11.500000000000004 -16, -11.500000000000002 -16, -11.5 -16" stroke="none" stroke-width="0" fill="#eee" style=""/><path d="M-11.5 -16 C-4.691889499238484 -16, 2.116221001523032 -16, 11.5 -16 M-11.5 -16 C-5.6085222491989075 -16, 0.28295550160218497 -16, 11.5 -16 M11.5 -16 C11.5 -16, 11.499999999999998 -16, 11.499999999999998 -16 M11.5 -16 C11.5 -16, 11.499999999999998 -16, 11.499999999999998 -16 M11.499999999999998 -16 C11.720627565969654 -15.992924903384859, 11.941255131939311 -15.985849806769718, 12.525123519691405 -15.967126284005381 M11.499999999999998 -16 C11.849786936297502 -15.988783013771908, 12.199573872595007 -15.977566027543816, 12.525123519691405 -15.967126284005381 M12.525123519691405 -15.967126284005381 C12.811139840345668 -15.939534633536818, 13.097156160999928 -15.911942983068252, 13.546034586952095 -15.868640221171939 M12.525123519691405 -15.967126284005381 C12.917994696992908 -15.929226474027825, 13.31086587429441 -15.891326664050268, 13.546034586952095 -15.868640221171939 M13.546034586952095 -15.868640221171939 C13.928242391878031 -15.80684782733731, 14.310450196803968 -15.74505543350268, 14.558538059221954 -15.704946511857047 M13.546034586952095 -15.868640221171939 C13.901916836432111 -15.811103938984074, 14.257799085912128 -15.753567656796209, 14.558538059221954 -15.704946511857047 M14.558538059221954 -15.704946511857047 C14.809622754791999 -15.647638068573947, 15.060707450362042 -15.590329625290847, 15.558473342552116 -15.476717808624471 M14.558538059221954 -15.704946511857047 C14.85024384217528 -15.63836657045608, 15.141949625128605 -15.571786629055115, 15.558473342552116 -15.476717808624471 M15.558473342552116 -15.476717808624471 C15.932362953587308 -15.365749334655844, 16.306252564622504 -15.254780860687216, 16.54173148837793 -15.184891952170698 M15.558473342552116 -15.476717808624471 C15.904225908741154 -15.37410026187182, 16.24997847493019 -15.271482715119168, 16.54173148837793 -15.184891952170698 M16.54173148837793 -15.184891952170698 C16.743735021476056 -15.110552784690398, 16.94573855457418 -15.036213617210098, 17.504272078069985 -14.830668117536348 M16.54173148837793 -15.184891952170698 C16.85268886157973 -15.070456764373988, 17.16364623478153 -14.956021576577278, 17.504272078069985 -14.830668117536348 M17.504272078069985 -14.830668117536348 C17.762662329796935 -14.716286417971311, 18.021052581523882 -14.601904718406276, 18.44213982588093 -14.415501886438706 M17.504272078069985 -14.830668117536348 C17.737620634570757 -14.727371633612444, 17.97096919107153 -14.624075149688542, 18.44213982588093 -14.415501886438706 M18.44213982588093 -14.415501886438706 C18.65702697319113 -14.30339539932876, 18.871914120501334 -14.191288912218814, 19.351480832063 -13.941099265974232 M18.44213982588093 -14.415501886438706 C18.743870294367607 -14.258089294296797, 19.04560076285428 -14.100676702154885, 19.351480832063 -13.941099265974232 M19.351480832063 -13.941099265974232 C19.53012945599645 -13.832801420289929, 19.708778079929896 -13.724503574605627, 20.228558419368778 -13.409409678269451 M19.351480832063 -13.941099265974232 C19.58568125863823 -13.799125591069854, 19.819881685213456 -13.657151916165477, 20.228558419368778 -13.409409678269451 M20.228558419368778 -13.409409678269451 C20.549423643928733 -13.185587987648129, 20.87028886848869 -12.961766297026806, 21.069768487859456 -12.822617949887306 M20.228558419368778 -13.409409678269451 C20.40498658221741 -13.28634102931832, 20.581414745066045 -13.16327238036719, 21.069768487859456 -12.822617949887306 M21.069768487859456 -12.822617949887306 C21.27967482339841 -12.655223233137171, 21.489581158937362 -12.487828516387035, 21.871654324924613 -12.183135333906153 M21.069768487859456 -12.822617949887306 C21.388867520429642 -12.568144962994465, 21.707966552999824 -12.313671976101624, 21.871654324924613 -12.183135333906153 M21.871654324924613 -12.183135333906153 C22.030414324202273 -12.038953703121582, 22.18917432347993 -11.894772072337009, 22.630920809655784 -11.493589601563642 M21.871654324924613 -12.183135333906153 C22.081306225150097 -11.992735025206677, 22.29095812537558 -11.8023347165072, 22.630920809655784 -11.493589601563642 M22.630920809655784 -11.493589601563642 C22.90068639968999 -11.215034481686482, 23.1704519897242 -10.93647936180932, 23.344447953205048 -10.756814244181072 M22.630920809655784 -11.493589601563642 C22.812494413423998 -11.30609994820285, 22.994068017192212 -11.118610294842057, 23.344447953205048 -10.756814244181072 M23.344447953205048 -10.756814244181072 C23.50603030088722 -10.567010424297548, 23.66761264856939 -10.377206604414026, 24.00930371948848 -9.975836829739738 M23.344447953205048 -10.756814244181072 C23.5806211805395 -10.479391732716692, 23.81679440787395 -10.201969221252313, 24.00930371948848 -9.975836829739738 M24.00930371948848 -9.975836829739738 C24.1932147540013 -9.729412798132477, 24.377125788514117 -9.482988766525215, 24.62275607355129 -9.153866561954718 M24.00930371948848 -9.975836829739738 C24.18760186480897 -9.736933558305477, 24.365900010129455 -9.498030286871215, 24.62275607355129 -9.153866561954718 M24.62275607355129 -9.153866561954718 C24.762577612773004 -8.939063130369764, 24.902399151994715 -8.72425969878481, 25.182284208085537 -8.294281092968403 M24.62275607355129 -9.153866561954718 C24.809844113227452 -8.866449092839195, 24.99693215290361 -8.579031623723672, 25.182284208085537 -8.294281092968403 M25.182284208085537 -8.294281092968403 C25.302443546533393 -8.080926020101822, 25.422602884981252 -7.867570947235243, 25.685588901968003 -7.400612643853364 M25.182284208085537 -8.294281092968403 C25.341968425275777 -8.010745595566751, 25.501652642466016 -7.7272100981651, 25.685588901968003 -7.400612643853364 M25.685588901968003 -7.400612643853364 C25.79357575993727 -7.176375622731564, 25.901562617906535 -6.952138601609765, 26.130601968252996 -6.476533489958305 M25.685588901968003 -7.400612643853364 C25.786244541928664 -7.191599053789368, 25.886900181889327 -6.98258546372537, 26.130601968252996 -6.476533489958305 M26.130601968252996 -6.476533489958305 C26.28440111638446 -6.096646620569351, 26.43820026451592 -5.716759751180398, 26.515494752796165 -5.52584087074093 M26.130601968252996 -6.476533489958305 C26.275565464175763 -6.118470852350546, 26.42052896009853 -5.760408214742787, 26.515494752796165 -5.52584087074093 M26.515494752796165 -5.52584087074093 C26.59185453698672 -5.295857367038377, 26.668214321177274 -5.065873863335825, 26.83868564858657 -4.552441386096524 M26.515494752796165 -5.52584087074093 C26.61353228456804 -5.230567445203469, 26.711569816339917 -4.935294019666008, 26.83868564858657 -4.552441386096524 M26.83868564858657 -4.552441386096524 C26.940238780782177 -4.165175279628763, 27.041791912977782 -3.777909173161003, 27.098846594909176 -3.560334943301032 M26.83868564858657 -4.552441386096524 C26.924355267629668 -4.2257459992374296, 27.010024886672763 -3.8990506123783346, 27.098846594909176 -3.560334943301032 M27.098846594909176 -3.560334943301032 C27.177207217249688 -3.1579697091059047, 27.2555678395902 -2.7556044749107773, 27.2949085346312 -2.5535983205340735 M27.098846594909176 -3.560334943301032 C27.14471709083317 -3.3247996414640726, 27.190587586757164 -3.089264339627113, 27.2949085346312 -2.5535983205340735 M27.2949085346312 -2.5535983205340735 C27.32853170420248 -2.2928236569850733, 27.362154873773754 -2.0320489934360735, 27.42606580718717 -1.536368414522911 M27.2949085346312 -2.5535983205340735 C27.324666491631287 -2.3228014824146848, 27.35442444863137 -2.092004644295296, 27.42606580718717 -1.536368414522911 M27.42606580718717 -1.536368414522911 C27.44849606455904 -1.1869990505781702, 27.47092632193091 -0.8376296866334295, 27.491779459211006 -0.5128252411464826 M27.42606580718717 -1.536368414522911 C27.443424433757563 -1.2659937940578811, 27.460783060327955 -0.995619173592851, 27.491779459211006 -0.5128252411464826 M27.491779459211006 -0.5128252411464826 C27.491779459211006 -0.2554614356436996, 27.491779459211006 0.0019023698590834304, 27.491779459211006 0.5128252411464788 M27.491779459211006 -0.5128252411464826 C27.491779459211006 -0.2949563011586479, 27.491779459211006 -0.07708736117081322, 27.491779459211006 0.5128252411464788 M27.491779459211006 0.5128252411464788 C27.477486645283587 0.7354473550177631, 27.463193831356172 0.9580694688890474, 27.42606580718717 1.5363684145229002 M27.491779459211006 0.5128252411464788 C27.477092071223215 0.7415931645025268, 27.462404683235423 0.9703610878585749, 27.42606580718717 1.5363684145229002 M27.42606580718717 1.5363684145229002 C27.375231964984966 1.9306256563656687, 27.32439812278276 2.324882898208437, 27.294908534631205 2.5535983205340624 M27.42606580718717 1.5363684145229002 C27.385384147558042 1.85188733310409, 27.344702487928913 2.1674062516852795, 27.294908534631205 2.5535983205340624 M27.294908534631205 2.5535983205340624 C27.241681655897175 2.8269070933285003, 27.188454777163145 3.100215866122938, 27.098846594909176 3.5603349433010285 M27.294908534631205 2.5535983205340624 C27.227522884282266 2.899609393113608, 27.16013723393333 3.2456204656931544, 27.098846594909176 3.5603349433010285 M27.098846594909176 3.5603349433010285 C27.00577049066582 3.915274468219695, 26.912694386422466 4.270213993138362, 26.83868564858657 4.552441386096513 M27.098846594909176 3.5603349433010285 C27.02610228910653 3.837740508908094, 26.95335798330388 4.11514607451516, 26.83868564858657 4.552441386096513 M26.83868564858657 4.552441386096513 C26.721501998481873 4.905379869532741, 26.604318348377177 5.258318352968969, 26.515494752796165 5.525840870740919 M26.83868564858657 4.552441386096513 C26.724360184983396 4.896771467180332, 26.610034721380224 5.24110154826415, 26.515494752796165 5.525840870740919 M26.515494752796165 5.525840870740919 C26.37360804720064 5.876303776754699, 26.23172134160512 6.226766682768478, 26.130601968253 6.4765334899583005 M26.515494752796165 5.525840870740919 C26.416525377469117 5.770297141241428, 26.317556002142073 6.014753411741936, 26.130601968253 6.4765334899583005 M26.130601968253 6.4765334899583005 C25.965560876911326 6.8192448474429375, 25.80051978556965 7.161956204927575, 25.685588901968003 7.400612643853361 M26.130601968253 6.4765334899583005 C25.997665597947396 6.752578707280552, 25.864729227641792 7.028623924602804, 25.685588901968003 7.400612643853361 M25.685588901968003 7.400612643853361 C25.50888005620393 7.71437709321843, 25.33217121043986 8.0281415425835, 25.18228420808554 8.294281092968399 M25.685588901968003 7.400612643853361 C25.549025330535216 7.6430950934934, 25.412461759102428 7.885577543133439, 25.18228420808554 8.294281092968399 M25.18228420808554 8.294281092968399 C24.99151909885274 8.587347528354352, 24.80075398961994 8.880413963740303, 24.622756073551297 9.15386656195471 M25.18228420808554 8.294281092968399 C24.972147441853334 8.617107595523692, 24.762010675621127 8.939934098078986, 24.622756073551297 9.15386656195471 M24.622756073551297 9.15386656195471 C24.434962184763858 9.405493264554657, 24.24716829597642 9.657119967154605, 24.00930371948848 9.975836829739734 M24.622756073551297 9.15386656195471 C24.4954667518745 9.324422656705854, 24.368177430197704 9.494978751457, 24.00930371948848 9.975836829739734 M24.00930371948848 9.975836829739734 C23.83908423320018 10.175786324097128, 23.668864746911876 10.375735818454524, 23.344447953205055 10.756814244181063 M24.00930371948848 9.975836829739734 C23.845317267185955 10.168464647707754, 23.68133081488343 10.361092465675773, 23.344447953205055 10.756814244181063 M23.344447953205055 10.756814244181063 C23.09003999819968 11.019511345005668, 22.835632043194305 11.282208445830275, 22.630920809655784 11.493589601563638 M23.344447953205055 10.756814244181063 C23.065159271199654 11.045202738378872, 22.78587058919425 11.333591232576682, 22.630920809655784 11.493589601563638 M22.630920809655784 11.493589601563638 C22.436442988661184 11.670209212989763, 22.24196516766658 11.846828824415887, 21.871654324924627 12.183135333906142 M22.630920809655784 11.493589601563638 C22.47120912280142 11.638635529825104, 22.311497435947054 11.78368145808657, 21.871654324924627 12.183135333906142 M21.871654324924627 12.183135333906142 C21.625967287569654 12.379064208190089, 21.380280250214685 12.574993082474034, 21.06976848785946 12.822617949887304 M21.871654324924627 12.183135333906142 C21.621336868542873 12.382756844143323, 21.371019412161118 12.582378354380504, 21.06976848785946 12.822617949887304 M21.06976848785946 12.822617949887304 C20.854207505370375 12.972983959787154, 20.63864652288129 13.123349969687004, 20.228558419368788 13.409409678269446 M21.06976848785946 12.822617949887304 C20.88664785992423 12.9503549727707, 20.703527231989003 13.078091995654095, 20.228558419368788 13.409409678269446 M20.228558419368788 13.409409678269446 C19.92789315164526 13.591674730468686, 19.62722788392173 13.773939782667924, 19.351480832063004 13.94109926597423 M20.228558419368788 13.409409678269446 C20.035064452491756 13.526706858087067, 19.841570485614728 13.644004037904688, 19.351480832063004 13.94109926597423 M19.351480832063004 13.94109926597423 C19.09064959730973 14.077174754074633, 18.82981836255646 14.213250242175036, 18.442139825880933 14.415501886438705 M19.351480832063004 13.94109926597423 C19.081674605729212 14.081857001433434, 18.811868379395424 14.222614736892636, 18.442139825880933 14.415501886438705 M18.442139825880933 14.415501886438705 C18.199915069384893 14.522727600797396, 17.957690312888854 14.629953315156087, 17.50427207806999 14.830668117536346 M18.442139825880933 14.415501886438705 C18.108213330429994 14.563321240397293, 17.774286834979055 14.711140594355882, 17.50427207806999 14.830668117536346 M17.50427207806999 14.830668117536346 C17.27586405045995 14.914724383077504, 17.04745602284991 14.99878064861866, 16.54173148837794 15.184891952170695 M17.50427207806999 14.830668117536346 C17.22647681800597 14.93289934115114, 16.94868155794195 15.035130564765934, 16.54173148837794 15.184891952170695 M16.54173148837794 15.184891952170695 C16.18421340437389 15.29100144285238, 15.82669532036984 15.397110933534064, 15.558473342552134 15.476717808624468 M16.54173148837794 15.184891952170695 C16.155403710945773 15.299552008636677, 15.769075933513605 15.41421206510266, 15.558473342552134 15.476717808624468 M15.558473342552134 15.476717808624468 C15.27965834722368 15.540355511870308, 15.000843351895229 15.603993215116146, 14.558538059221961 15.704946511857045 M15.558473342552134 15.476717808624468 C15.262829562739086 15.544196572110835, 14.967185782926038 15.611675335597202, 14.558538059221961 15.704946511857045 M14.558538059221961 15.704946511857045 C14.200504284986616 15.762830635882029, 13.842470510751271 15.82071475990701, 13.546034586952105 15.868640221171937 M14.558538059221961 15.704946511857045 C14.190618486899844 15.764428895051187, 13.822698914577728 15.823911278245332, 13.546034586952105 15.868640221171937 M13.546034586952105 15.868640221171937 C13.19980693527243 15.902040386329803, 12.853579283592756 15.935440551487668, 12.525123519691405 15.967126284005381 M13.546034586952105 15.868640221171937 C13.33821974020808 15.888687869503412, 13.130404893464057 15.90873551783489, 12.525123519691405 15.967126284005381 M12.525123519691405 15.967126284005381 C12.30535110518934 15.974173957577408, 12.085578690687276 15.981221631149436, 11.500000000000004 16 M12.525123519691405 15.967126284005381 C12.203034333573717 15.977455057295607, 11.88094514745603 15.987783830585833, 11.500000000000004 16 M11.500000000000004 16 C11.500000000000002 16, 11.500000000000002 16, 11.5 16 M11.500000000000004 16 C11.500000000000004 16, 11.500000000000002 16, 11.5 16 M11.5 16 C5.854983257921566 16, 0.20996651584313142 16, -11.499999999999996 16 M11.5 16 C6.306200167840473 16, 1.1124003356809453 16, -11.499999999999996 16 M-11.499999999999996 16 C-11.785948795681653 15.990830178688055, -12.071897591363312 15.98166035737611, -12.5251235196914 15.967126284005381 M-11.499999999999996 16 C-11.859999350270886 15.988455521533039, -12.219998700541774 15.976911043066078, -12.5251235196914 15.967126284005381 M-12.5251235196914 15.967126284005381 C-12.835151338241097 15.937218273212896, -13.145179156790794 15.90731026242041, -13.5460345869521 15.868640221171937 M-12.5251235196914 15.967126284005381 C-12.833201771438755 15.937406345577621, -13.141280023186109 15.907686407149859, -13.5460345869521 15.868640221171937 M-13.5460345869521 15.868640221171937 C-13.774709309615949 15.831669865410605, -14.003384032279799 15.794699509649275, -14.558538059221956 15.704946511857045 M-13.5460345869521 15.868640221171937 C-13.773834061154261 15.831811368794238, -14.001633535356422 15.794982516416539, -14.558538059221956 15.704946511857045 M-14.558538059221956 15.704946511857045 C-14.879502041324782 15.631688577427798, -15.200466023427607 15.558430642998552, -15.558473342552112 15.476717808624471 M-14.558538059221956 15.704946511857045 C-14.892716815075952 15.628672391553552, -15.226895570929948 15.552398271250057, -15.558473342552112 15.476717808624471 M-15.558473342552112 15.476717808624471 C-15.788271488381804 15.408514925177302, -16.018069634211496 15.340312041730131, -16.541731488377923 15.184891952170702 M-15.558473342552112 15.476717808624471 C-15.935612437016276 15.364784905031012, -16.31275153148044 15.252852001437553, -16.541731488377923 15.184891952170702 M-16.541731488377923 15.184891952170702 C-16.856827893508655 15.068933562363354, -17.171924298639386 14.952975172556005, -17.504272078069988 14.830668117536348 M-16.541731488377923 15.184891952170702 C-16.87582608052697 15.061942053923296, -17.20992067267602 14.938992155675892, -17.504272078069988 14.830668117536348 M-17.504272078069988 14.830668117536348 C-17.84311843618918 14.680670886317065, -18.181964794308367 14.530673655097784, -18.44213982588093 14.415501886438708 M-17.504272078069988 14.830668117536348 C-17.69900366670789 14.744466219753688, -17.89373525534579 14.658264321971027, -18.44213982588093 14.415501886438708 M-18.44213982588093 14.415501886438708 C-18.694728843994433 14.28372635747988, -18.947317862107937 14.151950828521052, -19.351480832063 13.941099265974234 M-18.44213982588093 14.415501886438708 C-18.654715011001773 14.304601548522067, -18.86729019612262 14.193701210605425, -19.351480832063 13.941099265974234 M-19.351480832063 13.941099265974234 C-19.634645228802523 13.769443344612032, -19.917809625542045 13.59778742324983, -20.228558419368767 13.409409678269457 M-19.351480832063 13.941099265974234 C-19.674888111913802 13.745047872376542, -19.998295391764607 13.54899647877885, -20.228558419368767 13.409409678269457 M-20.228558419368767 13.409409678269457 C-20.451878510094836 13.253631250349867, -20.675198600820906 13.09785282243028, -21.069768487859456 12.822617949887308 M-20.228558419368767 13.409409678269457 C-20.51541485028294 13.209311049878485, -20.802271281197115 13.009212421487513, -21.069768487859456 12.822617949887308 M-21.069768487859456 12.822617949887308 C-21.246684587994466 12.681532067964783, -21.423600688129476 12.540446186042256, -21.871654324924613 12.183135333906154 M-21.069768487859456 12.822617949887308 C-21.325610385131974 12.61859084505129, -21.58145228240449 12.414563740215272, -21.871654324924613 12.183135333906154 M-21.871654324924613 12.183135333906154 C-22.067529847466776 12.005246366915692, -22.26340537000894 11.827357399925228, -22.630920809655777 11.493589601563649 M-21.871654324924613 12.183135333906154 C-22.02911129830581 12.040137076764571, -22.18656827168701 11.897138819622988, -22.630920809655777 11.493589601563649 M-22.630920809655777 11.493589601563649 C-22.850640189664414 11.266711302408147, -23.070359569673048 11.039833003252646, -23.344447953205048 10.756814244181069 M-22.630920809655777 11.493589601563649 C-22.838523755123777 11.27922251584913, -23.046126700591778 11.06485543013461, -23.344447953205048 10.756814244181069 M-23.344447953205048 10.756814244181069 C-23.52492708141584 10.544813190631356, -23.705406209626627 10.332812137081643, -24.009303719488475 9.97583682973974 M-23.344447953205048 10.756814244181069 C-23.533322279378883 10.534951713403666, -23.72219660555272 10.313089182626262, -24.009303719488475 9.97583682973974 M-24.009303719488475 9.97583682973974 C-24.231970689313393 9.67748337555261, -24.45463765913831 9.37912992136548, -24.62275607355129 9.15386656195472 M-24.009303719488475 9.97583682973974 C-24.213957155836447 9.701619869345059, -24.418610592184418 9.427402908950379, -24.62275607355129 9.15386656195472 M-24.62275607355129 9.15386656195472 C-24.746505134836273 8.963754772545212, -24.87025419612126 8.773642983135705, -25.182284208085534 8.29428109296841 M-24.62275607355129 9.15386656195472 C-24.783327749244297 8.907185348558036, -24.943899424937303 8.660504135161352, -25.182284208085534 8.29428109296841 M-25.182284208085534 8.29428109296841 C-25.306470253814304 8.07377619357624, -25.430656299543074 7.8532712941840686, -25.685588901968 7.400612643853366 M-25.182284208085534 8.29428109296841 C-25.307548575757185 8.071861523774718, -25.432812943428836 7.8494419545810254, -25.685588901968 7.400612643853366 M-25.685588901968 7.400612643853366 C-25.8635898007791 7.030989968863012, -26.0415906995902 6.661367293872657, -26.130601968252996 6.476533489958307 M-25.685588901968 7.400612643853366 C-25.77629966839464 7.212249796468975, -25.867010434821278 7.023886949084583, -26.130601968252996 6.476533489958307 M-26.130601968252996 6.476533489958307 C-26.243361426632955 6.198015447703989, -26.356120885012917 5.919497405449672, -26.515494752796165 5.525840870740931 M-26.130601968252996 6.476533489958307 C-26.242713842644616 6.199614992675373, -26.354825717036235 5.92269649539244, -26.515494752796165 5.525840870740931 M-26.515494752796165 5.525840870740931 C-26.584846224140982 5.316965288706727, -26.6541976954858 5.108089706672523, -26.83868564858657 4.552441386096519 M-26.515494752796165 5.525840870740931 C-26.619708394501984 5.211965986111918, -26.723922036207803 4.898091101482904, -26.83868564858657 4.552441386096519 M-26.83868564858657 4.552441386096519 C-26.908104525121324 4.287717123538091, -26.97752340165608 4.022992860979661, -27.098846594909176 3.5603349433010343 M-26.83868564858657 4.552441386096519 C-26.921451127888982 4.236820742730777, -27.0042166071914 3.921200099365035, -27.098846594909176 3.5603349433010343 M-27.098846594909176 3.5603349433010343 C-27.139362202761028 3.3522958599585215, -27.179877810612883 3.1442567766160083, -27.2949085346312 2.5535983205340753 M-27.098846594909176 3.5603349433010343 C-27.13926469557872 3.3527965387315257, -27.179682796248265 3.1452581341620167, -27.2949085346312 2.5535983205340753 M-27.2949085346312 2.5535983205340753 C-27.333200047051843 2.2566169117139623, -27.37149155947249 1.9596355028938495, -27.42606580718717 1.5363684145229202 M-27.2949085346312 2.5535983205340753 C-27.32249171148352 2.3396686477818682, -27.350074888335833 2.125738975029661, -27.42606580718717 1.5363684145229202 M-27.42606580718717 1.5363684145229202 C-27.448309868657176 1.1898992020443604, -27.470553930127178 0.8434299895658005, -27.491779459211006 0.5128252411464846 M-27.42606580718717 1.5363684145229202 C-27.445687784614268 1.2307402775207965, -27.465309762041365 0.9251121405186729, -27.491779459211006 0.5128252411464846 M-27.491779459211006 0.5128252411464846 C-27.491779459211006 0.1054518150411119, -27.491779459211006 -0.30192161106426085, -27.491779459211006 -0.5128252411464769 M-27.491779459211006 0.5128252411464846 C-27.491779459211006 0.2667142426482793, -27.491779459211006 0.020603244150073974, -27.491779459211006 -0.5128252411464769 M-27.491779459211006 -0.5128252411464769 C-27.477613080091203 -0.7334780308328014, -27.463446700971403 -0.9541308205191259, -27.42606580718717 -1.5363684145228982 M-27.491779459211006 -0.5128252411464769 C-27.47843136402324 -0.7207325980844613, -27.46508326883547 -0.9286399550224458, -27.42606580718717 -1.5363684145228982 M-27.42606580718717 -1.5363684145228982 C-27.37779114979373 -1.9107771243571003, -27.329516492400288 -2.2851858341913025, -27.294908534631205 -2.5535983205340678 M-27.42606580718717 -1.5363684145228982 C-27.395267424354085 -1.7752345899477247, -27.364469041521 -2.014100765372551, -27.294908534631205 -2.5535983205340678 M-27.294908534631205 -2.5535983205340678 C-27.244482729434164 -2.8125241727231662, -27.19405692423712 -3.071450024912265, -27.098846594909176 -3.5603349433010267 M-27.294908534631205 -2.5535983205340678 C-27.217561318670043 -2.9507599271547327, -27.140214102708885 -3.3479215337753976, -27.098846594909176 -3.5603349433010267 M-27.098846594909176 -3.5603349433010267 C-27.019646739529023 -3.862358317300003, -26.940446884148873 -4.1643816912989795, -26.838685648586573 -4.552441386096511 M-27.098846594909176 -3.5603349433010267 C-27.03074330716893 -3.820042295606208, -26.962640019428683 -4.079749647911389, -26.838685648586573 -4.552441386096511 M-26.838685648586573 -4.552441386096511 C-26.739953768293844 -4.849806078749369, -26.641221888001116 -5.147170771402227, -26.515494752796172 -5.525840870740911 M-26.838685648586573 -4.552441386096511 C-26.732066077241022 -4.873562547467568, -26.62544650589547 -5.194683708838624, -26.515494752796172 -5.525840870740911 M-26.515494752796172 -5.525840870740911 C-26.391626505884204 -5.831797835443103, -26.26775825897224 -6.137754800145296, -26.130601968253 -6.476533489958299 M-26.515494752796172 -5.525840870740911 C-26.42513426981681 -5.749033010701026, -26.33477378683745 -5.972225150661141, -26.130601968253 -6.476533489958299 M-26.130601968253 -6.476533489958299 C-26.015933297218307 -6.7146454388783505, -25.901264626183618 -6.9527573877984015, -25.685588901968003 -7.400612643853359 M-26.130601968253 -6.476533489958299 C-26.019461991801126 -6.707318029075162, -25.908322015349253 -6.938102568192024, -25.685588901968003 -7.400612643853359 M-25.685588901968003 -7.400612643853359 C-25.55644102656448 -7.629927774272785, -25.427293151160963 -7.859242904692211, -25.182284208085537 -8.294281092968404 M-25.685588901968003 -7.400612643853359 C-25.57341577264757 -7.599787393722832, -25.46124264332714 -7.7989621435923056, -25.182284208085537 -8.294281092968404 M-25.182284208085537 -8.294281092968404 C-25.043901057955043 -8.506874772647693, -24.905517907824553 -8.71946845232698, -24.622756073551294 -9.153866561954715 M-25.182284208085537 -8.294281092968404 C-25.021167747018865 -8.541799242994395, -24.860051285952192 -8.789317393020387, -24.622756073551294 -9.153866561954715 M-24.622756073551294 -9.153866561954715 C-24.46989066342716 -9.358692285195698, -24.31702525330303 -9.563518008436679, -24.00930371948848 -9.975836829739734 M-24.622756073551294 -9.153866561954715 C-24.494731748508773 -9.325407494255746, -24.366707423466252 -9.496948426556777, -24.00930371948848 -9.975836829739734 M-24.00930371948848 -9.975836829739734 C-23.82053011725456 -10.197581044445958, -23.63175651502064 -10.419325259152183, -23.344447953205055 -10.756814244181063 M-24.00930371948848 -9.975836829739734 C-23.8031210360897 -10.218030741786984, -23.596938352690916 -10.460224653834235, -23.344447953205055 -10.756814244181063 M-23.344447953205055 -10.756814244181063 C-23.148346783441514 -10.95930480216738, -22.952245613677974 -11.161795360153695, -22.63092080965579 -11.493589601563633 M-23.344447953205055 -10.756814244181063 C-23.126644539265044 -10.981714151066969, -22.90884112532503 -11.206614057952876, -22.63092080965579 -11.493589601563633 M-22.63092080965579 -11.493589601563633 C-22.43779768473748 -11.668978913856565, -22.24467455981917 -11.844368226149495, -21.871654324924627 -12.18313533390614 M-22.63092080965579 -11.493589601563633 C-22.386743117875838 -11.715345320650492, -22.142565426095885 -11.937101039737351, -21.871654324924627 -12.18313533390614 M-21.871654324924627 -12.18313533390614 C-21.664405652897955 -12.348410634728628, -21.457156980871282 -12.513685935551116, -21.069768487859463 -12.822617949887302 M-21.871654324924627 -12.18313533390614 C-21.664815339856208 -12.348083920281649, -21.45797635478779 -12.51303250665716, -21.069768487859463 -12.822617949887302 M-21.069768487859463 -12.822617949887302 C-20.808467615041923 -13.004890127232343, -20.547166742224384 -13.187162304577383, -20.228558419368788 -13.409409678269444 M-21.069768487859463 -12.822617949887302 C-20.895569440394723 -12.94413166444348, -20.72137039292998 -13.065645378999657, -20.228558419368788 -13.409409678269444 M-20.228558419368788 -13.409409678269444 C-20.035814309688035 -13.526252290248031, -19.843070200007286 -13.643094902226618, -19.351480832063007 -13.941099265974229 M-20.228558419368788 -13.409409678269444 C-20.04721445276832 -13.519341456518086, -19.86587048616785 -13.629273234766728, -19.351480832063007 -13.941099265974229 M-19.351480832063007 -13.941099265974229 C-19.13135819510459 -14.055937104680158, -18.911235558146167 -14.170774943386089, -18.442139825880936 -14.415501886438705 M-19.351480832063007 -13.941099265974229 C-19.15195718420119 -14.045190625262743, -18.952433536339377 -14.149281984551257, -18.442139825880936 -14.415501886438705 M-18.442139825880936 -14.415501886438705 C-18.105616782752058 -14.564470655030465, -17.76909373962318 -14.713439423622228, -17.504272078069995 -14.830668117536344 M-18.442139825880936 -14.415501886438705 C-18.116801523186684 -14.559519502223594, -17.79146322049243 -14.703537118008484, -17.504272078069995 -14.830668117536344 M-17.504272078069995 -14.830668117536344 C-17.11977725202796 -14.972165767751024, -16.735282425985922 -15.113663417965704, -16.54173148837794 -15.184891952170695 M-17.504272078069995 -14.830668117536344 C-17.13279207941812 -14.9673761909637, -16.761312080766245 -15.104084264391053, -16.54173148837794 -15.184891952170695 M-16.54173148837794 -15.184891952170695 C-16.27993152910634 -15.262592805866477, -16.018131569834736 -15.34029365956226, -15.558473342552134 -15.476717808624466 M-16.54173148837794 -15.184891952170695 C-16.297764637059785 -15.257300033033788, -16.05379778574163 -15.329708113896881, -15.558473342552134 -15.476717808624466 M-15.558473342552134 -15.476717808624466 C-15.175547543729447 -15.56411812338138, -14.792621744906759 -15.651518438138293, -14.558538059221963 -15.704946511857043 M-15.558473342552134 -15.476717808624466 C-15.189520670136995 -15.560928848462028, -14.820567997721856 -15.64513988829959, -14.558538059221963 -15.704946511857043 M-14.558538059221963 -15.704946511857043 C-14.28612943465785 -15.748987425716136, -14.013720810093737 -15.793028339575226, -13.546034586952107 -15.868640221171937 M-14.558538059221963 -15.704946511857043 C-14.337851944254474 -15.740625331478606, -14.117165829286986 -15.776304151100167, -13.546034586952107 -15.868640221171937 M-13.546034586952107 -15.868640221171937 C-13.223474369865611 -15.899757217378854, -12.900914152779118 -15.930874213585769, -12.525123519691407 -15.967126284005381 M-13.546034586952107 -15.868640221171937 C-13.321501696746962 -15.890300639049718, -13.096968806541819 -15.9119610569275, -12.525123519691407 -15.967126284005381 M-12.525123519691407 -15.967126284005381 C-12.274343491977863 -15.975168311380443, -12.023563464264319 -15.983210338755505, -11.500000000000005 -16 M-12.525123519691407 -15.967126284005381 C-12.217876235685836 -15.976979106382881, -11.910628951680264 -15.986831928760381, -11.500000000000005 -16 M-11.500000000000005 -16 C-11.500000000000004 -16, -11.500000000000002 -16, -11.5 -16 M-11.500000000000005 -16 C-11.500000000000004 -16, -11.500000000000004 -16, -11.5 -16" stroke="#999" stroke-width="1.3" fill="none" stroke-dasharray="0 0" style=""/></g><g class="label" style="" transform="translate(0, -8.5)"><rect/><g><rect class="background" style="stroke: none"/><text y="-10.1" style=""><tspan class="text-outer-tspan row" x="0" y="-0.1em" dy="1.1em"><tspan font-style="normal" class="text-inner-tspan" font-weight="normal">开始</tspan></tspan></text></g></g></g><g class="node default" id="my-svg-flowchart-Request-1" data-look="classic" transform="translate(681.7890625, 113.5)"><rect class="basic label-container" style="" x="-86.08203125" y="-23.5" width="172.1640625" height="47"/><g class="label" style="" transform="translate(0, -8.5)"><rect/><g><rect class="background" style="stroke: none"/><text y="-10.1" style=""><tspan class="text-outer-tspan row" x="0" y="-0.1em" dy="1.1em"><tspan font-style="normal" class="text-inner-tspan" font-weight="normal">请求</tspan><tspan font-style="normal" class="text-inner-tspan" font-weight="normal"> DeepSeek</tspan></tspan></text></g></g></g><g class="node default" id="my-svg-flowchart-Check-3" data-look="classic" transform="translate(681.7890625, 266.5)"><polygon points="79.5,0 159,-79.5 79.5,-159 0,-79.5" class="label-container" transform="translate(-79, 79.5)"/><g class="label" style="" transform="translate(0, -8.5)"><rect/><g><rect class="background" style="stroke: none"/><text y="-10.1" style=""><tspan class="text-outer-tspan row" x="0" y="-0.1em" dy="1.1em"><tspan font-style="normal" class="text-inner-tspan" font-weight="normal">返回什么信号？</tspan></tspan></text></g></g></g><g class="node default" id="my-svg-flowchart-Done-5" data-look="classic" transform="translate(110, 488.5)"><rect class="basic label-container" style="" x="-102" y="-32.29999923706055" width="204" height="64.5999984741211"/><g class="label" style="" transform="translate(0, -17.299999237060547)"><rect/><g><rect class="background" style="stroke: none"/><text y="-10.1" style=""><tspan class="text-outer-tspan row" x="0" y="-0.1em" dy="1.1em"><tspan font-style="normal" class="text-inner-tspan" font-weight="normal">回到</tspan><tspan font-style="normal" class="text-inner-tspan" font-weight="normal"> Agent</tspan><tspan font-style="normal" class="text-inner-tspan" font-weight="normal"> Loop</tspan></tspan><tspan class="text-outer-tspan row" x="0" y="1em" dy="1.1em"><tspan font-style="normal" class="text-inner-tspan" font-weight="normal">执行工具或输出答案</tspan></tspan></text></g></g></g><g class="node default" id="my-svg-flowchart-L1-7" data-look="classic" transform="translate(333.5, 488.5)"><polygon points="71.5,0 143,-71.5 71.5,-143 0,-71.5" class="label-container" transform="translate(-71, 71.5)"/><g class="label" style="" transform="translate(0, -8.5)"><rect/><g><rect class="background" style="stroke: none"/><text y="-10.1" style=""><tspan class="text-outer-tspan row" x="0" y="-0.1em" dy="1.1em"><tspan font-style="normal" class="text-inner-tspan" font-weight="normal">第一次截断？</tspan></tspan></text></g></g></g><g class="node default" id="my-svg-flowchart-L2-9" data-look="classic" transform="translate(221.75, 710.5)"><rect class="basic label-container" style="" x="-118.9140625" y="-32.29999923706055" width="237.828125" height="64.5999984741211"/><g class="label" style="" transform="translate(0, -17.299999237060547)"><rect/><g><rect class="background" style="stroke: none"/><text y="-10.1" style=""><tspan class="text-outer-tspan row" x="0" y="-0.1em" dy="1.1em"><tspan font-style="normal" class="text-inner-tspan" font-weight="normal">扩大输出上限</tspan></tspan><tspan class="text-outer-tspan row" x="0" y="1em" dy="1.1em"><tspan font-style="normal" class="text-inner-tspan" font-weight="normal">用原</tspan><tspan font-style="normal" class="text-inner-tspan" font-weight="normal"> messages</tspan><tspan font-style="normal" class="text-inner-tspan" font-weight="normal"> 重新请求</tspan></tspan></text></g></g></g><g class="node default" id="my-svg-flowchart-L3-11" data-look="classic" transform="translate(470.1640625, 710.5)"><polygon points="79.5,0 159,-79.5 79.5,-159 0,-79.5" class="label-container" transform="translate(-79, 79.5)"/><g class="label" style="" transform="translate(0, -8.5)"><rect/><g><rect class="background" style="stroke: none"/><text y="-10.1" style=""><tspan class="text-outer-tspan row" x="0" y="-0.1em" dy="1.1em"><tspan font-style="normal" class="text-inner-tspan" font-weight="normal">工具调用完整？</tspan></tspan></text></g></g></g><g class="node default" id="my-svg-flowchart-Stop-13" data-look="classic" transform="translate(686.4140625, 1164.099998474121)"><rect class="basic label-container" style="" x="-62" y="-23.5" width="124" height="47"/><g class="label" style="" transform="translate(0, -8.5)"><rect/><g><rect class="background" style="stroke: none"/><text y="-10.1" style=""><tspan class="text-outer-tspan row" x="0" y="-0.1em" dy="1.1em"><tspan font-style="normal" class="text-inner-tspan" font-weight="normal">明确停止</tspan></tspan></text></g></g></g><g class="node default" id="my-svg-flowchart-L4-15" data-look="classic" transform="translate(540.4140625, 956.5)"><polygon points="95.5,0 191,-95.5 95.5,-191 0,-95.5" class="label-container" transform="translate(-95, 95.5)"/><g class="label" style="" transform="translate(0, -8.5)"><rect/><g><rect class="background" style="stroke: none"/><text y="-10.1" style=""><tspan class="text-outer-tspan row" x="0" y="-0.1em" dy="1.1em"><tspan font-style="normal" class="text-inner-tspan" font-weight="normal">续写次数还没用完？</tspan></tspan></text></g></g></g><g class="node default" id="my-svg-flowchart-L5-17" data-look="classic" transform="translate(170.0390625, 1164.099998474121)"><rect class="basic label-container" style="" x="-78" y="-41.099998474121094" width="156" height="82.19999694824219"/><g class="label" style="" transform="translate(0, -26.099998474121094)"><rect/><g><rect class="background" style="stroke: none"/><text y="-10.1" style=""><tspan class="text-outer-tspan row" x="0" y="-0.1em" dy="1.1em"><tspan font-style="normal" class="text-inner-tspan" font-weight="normal">保存文本片段</tspan></tspan><tspan class="text-outer-tspan row" x="0" y="1em" dy="1.1em"><tspan font-style="normal" class="text-inner-tspan" font-weight="normal">追加续写提示</tspan></tspan><tspan class="text-outer-tspan row" x="0" y="2.1em" dy="1.1em"><tspan font-style="normal" class="text-inner-tspan" font-weight="normal">重新请求</tspan></tspan></text></g></g></g><g class="node default" id="my-svg-flowchart-C1-21" data-look="classic" transform="translate(770.2890625, 956.5)"><polygon points="71.5,0 143,-71.5 71.5,-143 0,-71.5" class="label-container" transform="translate(-71, 71.5)"/><g class="label" style="" transform="translate(0, -8.5)"><rect/><g><rect class="background" style="stroke: none"/><text y="-10.1" style=""><tspan class="text-outer-tspan row" x="0" y="-0.1em" dy="1.1em"><tspan font-style="normal" class="text-inner-tspan" font-weight="normal">已经压缩过？</tspan></tspan></text></g></g></g><g class="node default" id="my-svg-flowchart-C2-23" data-look="classic" transform="translate(388.7890625, 1164.099998474121)"><rect class="basic label-container" style="" x="-90.75" y="-32.29999923706055" width="181.5" height="64.5999984741211"/><g class="label" style="" transform="translate(0, -17.299999237060547)"><rect/><g><rect class="background" style="stroke: none"/><text y="-10.1" style=""><tspan class="text-outer-tspan row" x="0" y="-0.1em" dy="1.1em"><tspan font-style="normal" class="text-inner-tspan" font-weight="normal">reactive</tspan><tspan font-style="normal" class="text-inner-tspan" font-weight="normal"> compact</tspan></tspan><tspan class="text-outer-tspan row" x="0" y="1em" dy="1.1em"><tspan font-style="normal" class="text-inner-tspan" font-weight="normal">重新请求</tspan></tspan></text></g></g></g><g class="node default" id="my-svg-flowchart-R1-27" data-look="classic" transform="translate(1001.7890625, 956.5)"><polygon points="95.5,0 191,-95.5 95.5,-191 0,-95.5" class="label-container" transform="translate(-95, 95.5)"/><g class="label" style="" transform="translate(0, -8.5)"><rect/><g><rect class="background" style="stroke: none"/><text y="-10.1" style=""><tspan class="text-outer-tspan row" x="0" y="-0.1em" dy="1.1em"><tspan font-style="normal" class="text-inner-tspan" font-weight="normal">重试次数还没用完？</tspan></tspan></text></g></g></g><g class="node default" id="my-svg-flowchart-R2-29" data-look="classic" transform="translate(1067.0390625, 1164.099998474121)"><rect class="basic label-container" style="" x="-94" y="-41.099998474121094" width="188" height="82.19999694824219"/><g class="label" style="" transform="translate(0, -26.099998474121094)"><rect/><g><rect class="background" style="stroke: none"/><text y="-10.1" style=""><tspan class="text-outer-tspan row" x="0" y="-0.1em" dy="1.1em"><tspan font-style="normal" class="text-inner-tspan" font-weight="normal">等待</tspan><tspan font-style="normal" class="text-inner-tspan" font-weight="normal"> +</tspan><tspan font-style="normal" class="text-inner-tspan" font-weight="normal"> 抖动</tspan></tspan><tspan class="text-outer-tspan row" x="0" y="1em" dy="1.1em"><tspan font-style="normal" class="text-inner-tspan" font-weight="normal">必要时切备用模型</tspan></tspan><tspan class="text-outer-tspan row" x="0" y="2.1em" dy="1.1em"><tspan font-style="normal" class="text-inner-tspan" font-weight="normal">重新请求</tspan></tspan></text></g></g></g></g></g></g><defs><filter id="my-svg-drop-shadow" height="130%" width="130%"><feDropShadow dx="4" dy="4" stdDeviation="0" flood-opacity="0.06" flood-color="#000000"/></filter></defs><defs><filter id="my-svg-drop-shadow-small" height="150%" width="150%"><feDropShadow dx="2" dy="2" stdDeviation="0" flood-opacity="0.06" flood-color="#000000"/></filter></defs><linearGradient id="my-svg-gradient" gradientUnits="objectBoundingBox" x1="0%" y1="0%" x2="100%" y2="0%"><stop offset="0%" stop-color="hsl(0, 0%, 83.3333333333%)" stop-opacity="1"/><stop offset="100%" stop-color="hsl(0, 0%, 88.9215686275%)" stop-opacity="1"/></linearGradient></svg>