<svg width="1174.2890625" height="1213.199951171875" id="my-svg" xmlns="http://www.w3.org/2000/svg" xmlns:xlink="http://www.w3.org/1999/xlink" class="flowchart" style="max-width: 1174.29px; background-color: white;" viewBox="0 0 1174.2890625 1213.199951171875" role="graphics-document document" aria-roledescription="flowchart-v2"><style>#my-svg{font-family:"trebuchet ms",verdana,arial,sans-serif;font-size:16px;fill:#000000;}@keyframes edge-animation-frame{from{stroke-dashoffset:0;}}@keyframes dash{to{stroke-dashoffset:0;}}#my-svg .edge-animation-slow{stroke-dasharray:9,5!important;stroke-dashoffset:900;animation:dash 50s linear infinite;stroke-linecap:round;}#my-svg .edge-animation-fast{stroke-dasharray:9,5!important;stroke-dashoffset:900;animation:dash 20s linear infinite;stroke-linecap:round;}#my-svg .error-icon{fill:#552222;}#my-svg .error-text{fill:#552222;stroke:#552222;}#my-svg .edge-thickness-normal{stroke-width:1px;}#my-svg .edge-thickness-thick{stroke-width:3.5px;}#my-svg .edge-pattern-solid{stroke-dasharray:0;}#my-svg .edge-thickness-invisible{stroke-width:0;fill:none;}#my-svg .edge-pattern-dashed{stroke-dasharray:3;}#my-svg .edge-pattern-dotted{stroke-dasharray:2;}#my-svg .marker{fill:#666;stroke:#666;}#my-svg .marker.cross{stroke:#666;}#my-svg svg{font-family:"trebuchet ms",verdana,arial,sans-serif;font-size:16px;}#my-svg p{margin:0;}#my-svg .label{font-family:"trebuchet ms",verdana,arial,sans-serif;color:#000000;}#my-svg .cluster-label text{fill:#333;}#my-svg .cluster-label span{color:#333;}#my-svg .cluster-label span p{background-color:transparent;}#my-svg .label text,#my-svg span{fill:#000000;color:#000000;}#my-svg .node rect,#my-svg .node circle,#my-svg .node ellipse,#my-svg .node polygon,#my-svg .node path{fill:#eee;stroke:#999;stroke-width:1px;}#my-svg .rough-node .label text,#my-svg .node .label text,#my-svg .image-shape .label,#my-svg .icon-shape .label{text-anchor:middle;}#my-svg .node .katex path{fill:#000;stroke:#000;stroke-width:1px;}#my-svg .rough-node .label,#my-svg .node .label,#my-svg .image-shape .label,#my-svg .icon-shape .label{text-align:center;}#my-svg .node.clickable{cursor:pointer;}#my-svg .root .anchor path{fill:#666!important;stroke-width:0;stroke:#666;}#my-svg .arrowheadPath{fill:#333333;}#my-svg .edgePath .path{stroke:#666;stroke-width:1px;}#my-svg .flowchart-link{stroke:#666;fill:none;}#my-svg .edgeLabel{background-color:white;text-align:center;}#my-svg .edgeLabel p{background-color:white;}#my-svg .edgeLabel rect{opacity:0.5;background-color:white;fill:white;}#my-svg .labelBkg{background-color:rgba(255, 255, 255, 0.5);}#my-svg .cluster rect{fill:hsl(0, 0%, 98.9215686275%);stroke:#707070;stroke-width:1px;}#my-svg .cluster text{fill:#333;}#my-svg .cluster span{color:#333;}#my-svg div.mermaidTooltip{position:absolute;text-align:center;max-width:200px;padding:2px;font-family:"trebuchet ms",verdana,arial,sans-serif;font-size:12px;background:hsl(-160, 0%, 93.3333333333%);border:1px solid #707070;border-radius:2px;pointer-events:none;z-index:100;}#my-svg .flowchartTitleText{text-anchor:middle;font-size:18px;fill:#000000;}#my-svg rect.text{fill:none;stroke-width:0;}#my-svg .icon-shape,#my-svg .image-shape{background-color:white;text-align:center;}#my-svg .icon-shape p,#my-svg .image-shape p{background-color:white;padding:2px;}#my-svg .icon-shape .label rect,#my-svg .image-shape .label rect{opacity:0.5;background-color:white;fill:white;}#my-svg .label-icon{display:inline-block;height:1em;overflow:visible;vertical-align:-0.125em;}#my-svg .node .label-icon path{fill:currentColor;stroke:revert;stroke-width:revert;}#my-svg .node .neo-node{stroke:#999;}#my-svg [data-look="neo"].node rect,#my-svg [data-look="neo"].cluster rect,#my-svg [data-look="neo"].node polygon{stroke:url(#my-svg-gradient);filter:drop-shadow( 1px 2px 2px rgba(185,185,185,1));}#my-svg [data-look="neo"].swimlane.cluster rect{filter:none;}#my-svg [data-look="neo"].node path{stroke:url(#my-svg-gradient);stroke-width:1px;}#my-svg [data-look="neo"].node .outer-path{filter:drop-shadow( 1px 2px 2px rgba(185,185,185,1));}#my-svg [data-look="neo"].node .neo-line path{stroke:#999;filter:none;}#my-svg [data-look="neo"].node circle{stroke:url(#my-svg-gradient);filter:drop-shadow( 1px 2px 2px rgba(185,185,185,1));}#my-svg [data-look="neo"].node circle .state-start{fill:#000000;}#my-svg [data-look="neo"].icon-shape .icon{fill:url(#my-svg-gradient);filter:drop-shadow( 1px 2px 2px rgba(185,185,185,1));}#my-svg [data-look="neo"].icon-shape .icon-neo path{stroke:url(#my-svg-gradient);filter:drop-shadow( 1px 2px 2px rgba(185,185,185,1));}#my-svg :root{--mermaid-font-family:"trebuchet ms",verdana,arial,sans-serif;}</style><g><marker id="my-svg_flowchart-v2-pointEnd" class="marker flowchart-v2" viewBox="0 0 10 10" refX="5" refY="5" markerUnits="userSpaceOnUse" markerWidth="8" markerHeight="8" orient="auto"><path d="M 0 0 L 10 5 L 0 10 z" class="arrowMarkerPath" style="stroke-width: 1; stroke-dasharray: 1, 0;"/></marker><marker id="my-svg_flowchart-v2-pointStart" class="marker flowchart-v2" viewBox="0 0 10 10" refX="4.5" refY="5" markerUnits="userSpaceOnUse" markerWidth="8" markerHeight="8" orient="auto"><path d="M 0 5 L 10 10 L 10 0 z" class="arrowMarkerPath" style="stroke-width: 1; stroke-dasharray: 1, 0;"/></marker><marker id="my-svg_flowchart-v2-pointEnd-margin" class="marker flowchart-v2" viewBox="0 0 11.5 14" refX="11.5" refY="7" markerUnits="userSpaceOnUse" markerWidth="10.5" markerHeight="14" orient="auto"><path d="M 0 0 L 11.5 7 L 0 14 z" class="arrowMarkerPath" style="stroke-width: 0; stroke-dasharray: 1, 0;"/></marker><marker id="my-svg_flowchart-v2-pointStart-margin" class="marker flowchart-v2" viewBox="0 0 11.5 14" refX="1" refY="7" markerUnits="userSpaceOnUse" markerWidth="11.5" markerHeight="14" orient="auto"><polygon points="0,7 11.5,14 11.5,0" class="arrowMarkerPath" style="stroke-width: 0; stroke-dasharray: 1, 0;"/></marker><marker id="my-svg_flowchart-v2-circleEnd" class="marker flowchart-v2" viewBox="0 0 10 10" refX="11" refY="5" markerUnits="userSpaceOnUse" markerWidth="11" markerHeight="11" orient="auto"><circle cx="5" cy="5" r="5" class="arrowMarkerPath" style="stroke-width: 1; stroke-dasharray: 1, 0;"/></marker><marker id="my-svg_flowchart-v2-circleStart" class="marker flowchart-v2" viewBox="0 0 10 10" refX="-1" refY="5" markerUnits="userSpaceOnUse" markerWidth="11" markerHeight="11" orient="auto"><circle cx="5" cy="5" r="5" class="arrowMarkerPath" style="stroke-width: 1; stroke-dasharray: 1, 0;"/></marker><marker id="my-svg_flowchart-v2-circleEnd-margin" class="marker flowchart-v2" viewBox="0 0 10 10" refY="5" refX="12.25" markerUnits="userSpaceOnUse" markerWidth="14" markerHeight="14" orient="auto"><circle cx="5" cy="5" r="5" class="arrowMarkerPath" style="stroke-width: 0; stroke-dasharray: 1, 0;"/></marker><marker id="my-svg_flowchart-v2-circleStart-margin" class="marker flowchart-v2" viewBox="0 0 10 10" refX="-2" refY="5" markerUnits="userSpaceOnUse" markerWidth="14" markerHeight="14" orient="auto"><circle cx="5" cy="5" r="5" class="arrowMarkerPath" style="stroke-width: 0; stroke-dasharray: 1, 0;"/></marker><marker id="my-svg_flowchart-v2-crossEnd" class="marker cross flowchart-v2" viewBox="0 0 11 11" refX="12" refY="5.2" markerUnits="userSpaceOnUse" markerWidth="11" markerHeight="11" orient="auto"><path d="M 1,1 l 9,9 M 10,1 l -9,9" class="arrowMarkerPath" style="stroke-width: 2; stroke-dasharray: 1, 0;"/></marker><marker id="my-svg_flowchart-v2-crossStart" class="marker cross flowchart-v2" viewBox="0 0 11 11" refX="-1" refY="5.2" markerUnits="userSpaceOnUse" markerWidth="11" markerHeight="11" orient="auto"><path d="M 1,1 l 9,9 M 10,1 l -9,9" class="arrowMarkerPath" style="stroke-width: 2; stroke-dasharray: 1, 0;"/></marker><marker id="my-svg_flowchart-v2-crossEnd-margin" class="marker cross flowchart-v2" viewBox="0 0 15 15" refX="17.7" refY="7.5" markerUnits="userSpaceOnUse" markerWidth="12" markerHeight="12" orient="auto"><path d="M 1,1 L 14,14 M 1,14 L 14,1" class="arrowMarkerPath" style="stroke-width: 2.5;"/></marker><marker id="my-svg_flowchart-v2-crossStart-margin" class="marker cross flowchart-v2" viewBox="0 0 15 15" refX="-3.5" refY="7.5" markerUnits="userSpaceOnUse" markerWidth="12" markerHeight="12" orient="auto"><path d="M 1,1 L 14,14 M 1,14 L 14,1" class="arrowMarkerPath" style="stroke-width: 2.5; stroke-dasharray: 1, 0;"/></marker><g class="root"><g class="clusters"/><g class="edgePaths"><path d="M682.289,40.5L682.206,44.583C682.122,48.667,681.956,56.833,681.872,64.417C681.789,72,681.789,79,681.789,82.5L681.789,86" id="my-svg-L_Start_Request_0" class="edge-thickness-normal edge-pattern-solid edge-thickness-normal edge-pattern-solid flowchart-link" style=";" data-edge="true" data-et="edge" data-id="L_Start_Request_0" data-points="W3sieCI6NjgyLjI4OTA2MjUsInkiOjQwLjV9LHsieCI6NjgxLjc4OTA2MjUsInkiOjY1fSx7IngiOjY4MS43ODkwNjI1LCJ5Ijo5MH1d" data-look="classic" marker-end="url(#my-svg_flowchart-v2-pointEnd)"/><path d="M681.789,137L681.789,141.167C681.789,145.333,681.789,153.667,681.789,161.333C681.789,169,681.789,176,681.789,179.5L681.789,183" id="my-svg-L_Request_Check_0" class="edge-thickness-normal edge-pattern-solid edge-thickness-normal edge-pattern-solid flowchart-link" style=";" data-edge="true" data-et="edge" data-id="L_Request_Check_0" data-points="W3sieCI6NjgxLjc4OTA2MjUsInkiOjEzN30seyJ4Ijo2ODEuNzg5MDYyNSwieSI6MTYyfSx7IngiOjY4MS43ODkwNjI1LCJ5IjoxODd9XQ==" data-look="classic" marker-end="url(#my-svg_flowchart-v2-pointEnd)"/><path d="M615.601,279.812L531.334,296.76C447.067,313.708,278.534,347.604,194.267,376.335C110,405.067,110,428.633,110,440.417L110,452.2" id="my-svg-L_Check_Done_0" class="edge-thickness-normal edge-pattern-solid edge-thickness-normal edge-pattern-solid flowchart-link" style=";" data-edge="true" data-et="edge" data-id="L_Check_Done_0" data-points="W3sieCI6NjE1LjYwMTAxMDA4MjE1ODgsInkiOjI3OS44MTE5NDc1ODIxNTg4NH0seyJ4IjoxMTAsInkiOjM4MS41fSx7IngiOjExMCwieSI6NDU2LjIwMDAwMDc2MjkzOTQ1fV0=" data-look="classic" marker-end="url(#my-svg_flowchart-v2-pointEnd)"/><path d="M622.023,286.234L573.936,302.112C525.849,317.989,429.674,349.745,381.587,370.872C333.5,392,333.5,402.5,333.5,407.75L333.5,413" id="my-svg-L_Check_L1_0" class="edge-thickness-normal edge-pattern-solid edge-thickness-normal edge-pattern-solid flowchart-link" style=";" data-edge="true" data-et="edge" data-id="L_Check_L1_0" data-points="W3sieCI6NjIyLjAyMjk2MjQzNDIzMzgsInkiOjI4Ni4yMzM4OTk5MzQyMzM4fSx7IngiOjMzMy41LCJ5IjozODEuNX0seyJ4IjozMzMuNSwieSI6NDE3fV0=" data-look="classic" marker-end="url(#my-svg_flowchart-v2-pointEnd)"/><path d="M296.974,523.474L284.436,535.478C271.899,547.482,246.825,571.491,234.287,596.612C221.75,621.733,221.75,647.967,221.75,661.083L221.75,674.2" id="my-svg-L_L1_L2_0" class="edge-thickness-normal edge-pattern-solid edge-thickness-normal edge-pattern-solid flowchart-link" style=";" data-edge="true" data-et="edge" data-id="L_L1_L2_0" data-points="W3sieCI6Mjk2Ljk3MzcxNDI4NTcxNDI3LCJ5Ijo1MjMuNDczNzE0Mjg1NzE0M30seyJ4IjoyMjEuNzUsInkiOjU5NS41fSx7IngiOjIyMS43NSwieSI6Njc4LjIwMDAwMDc2MjkzOTV9XQ==" data-look="classic" marker-end="url(#my-svg_flowchart-v2-pointEnd)"/><path d="M373.602,519.898L389.696,532.498C405.79,545.098,437.977,570.299,454.07,588.15C470.164,606,470.164,616.5,470.164,621.75L470.164,627" id="my-svg-L_L1_L3_0" class="edge-thickness-normal edge-pattern-solid edge-thickness-normal edge-pattern-solid flowchart-link" style=";" data-edge="true" data-et="edge" data-id="L_L1_L3_0" data-points="W3sieCI6MzczLjYwMjI2MzYxODU4MzUsInkiOjUxOS44OTc3MzYzODE0MTY1fSx7IngiOjQ3MC4xNjQwNjI1LCJ5Ijo1OTUuNX0seyJ4Ijo0NzAuMTY0MDYyNSwieSI6NjMxfV0=" data-look="classic" marker-end="url(#my-svg_flowchart-v2-pointEnd)"/><path d="M432.339,752.175L421.248,764.396C410.156,776.617,387.972,801.058,376.881,835.113C365.789,869.167,365.789,912.833,365.789,956.5C365.789,1000.167,365.789,1043.833,408.245,1075.81C450.701,1107.786,535.612,1128.072,578.068,1138.215L620.524,1148.358" id="my-svg-L_L3_Stop_0" class="edge-thickness-normal edge-pattern-solid edge-thickness-normal edge-pattern-solid flowchart-link" style=";" data-edge="true" data-et="edge" data-id="L_L3_Stop_0" data-points="W3sieCI6NDMyLjMzOTI3NjE3NTIxMzcsInkiOjc1Mi4xNzUyMTM2NzUyMTM2fSx7IngiOjM2NS43ODkwNjI1LCJ5Ijo4MjUuNX0seyJ4IjozNjUuNzg5MDYyNSwieSI6OTU2LjV9LHsieCI6MzY1Ljc4OTA2MjUsInkiOjEwODcuNX0seyJ4Ijo2MjQuNDE0MDYyNSwieSI6MTE0OS4yODc2NzkwODEwNzQ3fV0=" data-look="classic" marker-end="url(#my-svg_flowchart-v2-pointEnd)"/><path d="M500.312,759.852L506.996,770.794C513.679,781.735,527.047,803.617,533.73,819.809C540.414,836,540.414,846.5,540.414,851.75L540.414,857" id="my-svg-L_L3_L4_0" class="edge-thickness-normal edge-pattern-solid edge-thickness-normal edge-pattern-solid flowchart-link" style=";" data-edge="true" data-et="edge" data-id="L_L3_L4_0" data-points="W3sieCI6NTAwLjMxMTgzNTc3OTM1MjI0LCJ5Ijo3NTkuODUyMjI2NzIwNjQ3OH0seyJ4Ijo1NDAuNDE0MDYyNSwieSI6ODI1LjV9LHsieCI6NTQwLjQxNDA2MjUsInkiOjg2MX1d" data-look="classic" marker-end="url(#my-svg_flowchart-v2-pointEnd)"/><path d="M501.683,1013.269L493.243,1025.641C484.802,1038.013,467.92,1062.756,426.29,1084.176C384.659,1105.595,318.279,1123.69,285.088,1132.738L251.898,1141.785" id="my-svg-L_L4_L5_0" class="edge-thickness-normal edge-pattern-solid edge-thickness-normal edge-pattern-solid flowchart-link" style=";" data-edge="true" data-et="edge" data-id="L_L4_L5_0" data-points="W3sieCI6NTAxLjY4MzIwNjAwNTM4ODU3LCJ5IjoxMDEzLjI2OTE0MzUwNTM4ODZ9LHsieCI6NDUxLjAzOTA2MjUsInkiOjEwODcuNX0seyJ4IjoyNDguMDM5MDYyNSwieSI6MTE0Mi44MzczNjU0NDU3MTczfV0=" data-look="classic" marker-end="url(#my-svg_flowchart-v2-pointEnd)"/><path d="M578.919,1013.495L587.251,1025.83C595.584,1038.164,612.249,1062.832,626.825,1083.483C641.4,1104.134,653.886,1120.767,660.129,1129.084L666.372,1137.401" id="my-svg-L_L4_Stop_0" class="edge-thickness-normal edge-pattern-solid edge-thickness-normal edge-pattern-solid flowchart-link" style=";" data-edge="true" data-et="edge" data-id="L_L4_Stop_0" data-points="W3sieCI6NTc4LjkxODYxODMwODY1NiwieSI6MTAxMy40OTU0NDQxOTEzNDR9LHsieCI6NjI4LjkxNDA2MjUsInkiOjEwODcuNX0seyJ4Ijo2NjguNzczNzIyNzIzMDE1MywieSI6MTE0MC41OTk5OTg0NzQxMjF9XQ==" data-look="classic" marker-end="url(#my-svg_flowchart-v2-pointEnd)"/><path d="M716.363,311.426L725.35,323.105C734.338,334.784,752.314,358.142,761.301,387.654C770.289,417.167,770.289,452.833,770.289,488.5C770.289,524.167,770.289,559.833,770.289,596.833C770.289,633.833,770.289,672.167,770.289,710.5C770.289,748.833,770.289,787.167,770.289,815.583C770.289,844,770.289,862.5,770.289,871.75L770.289,881" id="my-svg-L_Check_C1_0" class="edge-thickness-normal edge-pattern-solid edge-thickness-normal edge-pattern-solid flowchart-link" style=";" data-edge="true" data-et="edge" data-id="L_Check_C1_0" data-points="W3sieCI6NzE2LjM2Mjc3MjU3MzcxMDEsInkiOjMxMS40MjYyODk5MjYyODk5NH0seyJ4Ijo3NzAuMjg5MDYyNSwieSI6MzgxLjV9LHsieCI6NzcwLjI4OTA2MjUsInkiOjQ4OC41fSx7IngiOjc3MC4yODkwNjI1LCJ5Ijo1OTUuNX0seyJ4Ijo3NzAuMjg5MDYyNSwieSI6NzEwLjV9LHsieCI6NzcwLjI4OTA2MjUsInkiOjgyNS41fSx7IngiOjc3MC4yODkwNjI1LCJ5Ijo4ODV9XQ==" data-look="classic" marker-end="url(#my-svg_flowchart-v2-pointEnd)"/><path d="M739.097,996.808L727.4,1011.923C715.703,1027.038,692.308,1057.269,649.692,1080.84C607.075,1104.41,545.236,1121.32,514.317,1129.775L483.397,1138.229" id="my-svg-L_C1_C2_0" class="edge-thickness-normal edge-pattern-solid edge-thickness-normal edge-pattern-solid flowchart-link" style=";" data-edge="true" data-et="edge" data-id="L_C1_C2_0" data-points="W3sieCI6NzM5LjA5Njc1NDgwNzY5MjMsInkiOjk5Ni44MDc2OTIzMDc2OTIzfSx7IngiOjY2OC45MTQwNjI1LCJ5IjoxMDg3LjV9LHsieCI6NDc5LjUzOTA2MjUsInkiOjExMzkuMjg0NDcwMTg2NjU0N31d" data-look="classic" marker-end="url(#my-svg_flowchart-v2-pointEnd)"/><path d="M799.117,999.172L809.062,1013.893C819.008,1028.615,838.898,1058.057,829.538,1081.358C820.177,1104.659,781.564,1121.817,762.258,1130.396L742.952,1138.976" id="my-svg-L_C1_Stop_0" class="edge-thickness-normal edge-pattern-solid edge-thickness-normal edge-pattern-solid flowchart-link" style=";" data-edge="true" data-et="edge" data-id="L_C1_Stop_0" data-points="W3sieCI6Nzk5LjExNzA4MDcyMzIzNDYsInkiOjk5OS4xNzE5ODE3NzY3NjU0fSx7IngiOjg1OC43ODkwNjI1LCJ5IjoxMDg3LjV9LHsieCI6NzM5LjI5NjczMzI2NjIyMTMsInkiOjExNDAuNTk5OTk4NDc0MTIxfV0=" data-look="classic" marker-end="url(#my-svg_flowchart-v2-pointEnd)"/><path d="M740.272,287.517L783.858,303.181C827.444,318.845,914.617,350.172,958.203,383.67C1001.789,417.167,1001.789,452.833,1001.789,488.5C1001.789,524.167,1001.789,559.833,1001.789,596.833C1001.789,633.833,1001.789,672.167,1001.789,710.5C1001.789,748.833,1001.789,787.167,1001.789,811.583C1001.789,836,1001.789,846.5,1001.789,851.75L1001.789,857" id="my-svg-L_Check_R1_0" class="edge-thickness-normal edge-pattern-solid edge-thickness-normal edge-pattern-solid flowchart-link" style=";" data-edge="true" data-et="edge" data-id="L_Check_R1_0" data-points="W3sieCI6NzQwLjI3MTgyMTEyMDY4OTcsInkiOjI4Ny41MTcyNDEzNzkzMTAzNX0seyJ4IjoxMDAxLjc4OTA2MjUsInkiOjM4MS41fSx7IngiOjEwMDEuNzg5MDYyNSwieSI6NDg4LjV9LHsieCI6MTAwMS43ODkwNjI1LCJ5Ijo1OTUuNX0seyJ4IjoxMDAxLjc4OTA2MjUsInkiOjcxMC41fSx7IngiOjEwMDEuNzg5MDYyNSwieSI6ODI1LjV9LHsieCI6MTAwMS43ODkwNjI1LCJ5Ijo4NjF9XQ==" data-look="classic" marker-end="url(#my-svg_flowchart-v2-pointEnd)"/><path d="M989.14,1039.351L987.915,1047.376C986.69,1055.401,984.239,1071.45,989.103,1084.946C993.967,1098.442,1006.145,1109.384,1012.234,1114.855L1018.323,1120.327" id="my-svg-L_R1_R2_0" class="edge-thickness-normal edge-pattern-solid edge-thickness-normal edge-pattern-solid flowchart-link" style=";" data-edge="true" data-et="edge" data-id="L_R1_R2_0" data-points="W3sieCI6OTg5LjE0MDA1NTg3NzQ4MzQsInkiOjEwMzkuMzUwOTkzMzc3NDgzNX0seyJ4Ijo5ODEuNzg5MDYyNSwieSI6MTA4Ny41fSx7IngiOjEwMjEuMjk3ODc1Mjk3NDYzLCJ5IjoxMTIzfV0=" data-look="classic" marker-end="url(#my-svg_flowchart-v2-pointEnd)"/><path d="M1028.266,1025.523L1032.228,1035.853C1036.19,1046.182,1044.115,1066.841,998.125,1087.636C952.136,1108.43,852.232,1129.36,802.281,1139.825L752.329,1150.291" id="my-svg-L_R1_Stop_0" class="edge-thickness-normal edge-pattern-solid edge-thickness-normal edge-pattern-solid flowchart-link" style=";" data-edge="true" data-et="edge" data-id="L_R1_Stop_0" data-points="W3sieCI6MTAyOC4yNjU2MTQyMjQxMzc4LCJ5IjoxMDI1LjUyMzQ0ODI3NTg2MjJ9LHsieCI6MTA1Mi4wMzkwNjI1LCJ5IjoxMDg3LjV9LHsieCI6NzQ4LjQxNDA2MjUsInkiOjExNTEuMTEwNzMzNzc1NjAzNH1d" data-look="classic" marker-end="url(#my-svg_flowchart-v2-pointEnd)"/><path d="M745.122,282.667L809.65,299.139C874.178,315.611,1003.233,348.556,1067.761,382.861C1132.289,417.167,1132.289,452.833,1132.289,488.5C1132.289,524.167,1132.289,559.833,1132.289,596.833C1132.289,633.833,1132.289,672.167,1132.289,710.5C1132.289,748.833,1132.289,787.167,1132.289,828.167C1132.289,869.167,1132.289,912.833,1132.289,956.5C1132.289,1000.167,1132.289,1043.833,1068.967,1076.545C1005.645,1109.257,879.001,1131.014,815.678,1141.893L752.356,1152.771" id="my-svg-L_Check_Stop_0" class="edge-thickness-normal edge-pattern-solid edge-thickness-normal edge-pattern-solid flowchart-link" style=";" data-edge="true" data-et="edge" data-id="L_Check_Stop_0" data-points="W3sieCI6NzQ1LjEyMTk1Mzc0NjY4NDMsInkiOjI4Mi42NjcxMDg3NTMzMTU2M30seyJ4IjoxMTMyLjI4OTA2MjUsInkiOjM4MS41fSx7IngiOjExMzIuMjg5MDYyNSwieSI6NDg4LjV9LHsieCI6MTEzMi4yODkwNjI1LCJ5Ijo1OTUuNX0seyJ4IjoxMTMyLjI4OTA2MjUsInkiOjcxMC41fSx7IngiOjExMzIuMjg5MDYyNSwieSI6ODI1LjV9LHsieCI6MTEzMi4yODkwNjI1LCJ5Ijo5NTYuNX0seyJ4IjoxMTMyLjI4OTA2MjUsInkiOjEwODcuNX0seyJ4Ijo3NDguNDE0MDYyNSwieSI6MTE1My40NDg1ODI5MzA3NjE0fV0=" data-look="classic" marker-end="url(#my-svg_flowchart-v2-pointEnd)"/></g><g class="edgeLabels"><g class="edgeLabel"><g class="label" data-id="L_Start_Request_0" transform="translate(0, 0)"><text y="-10.1" text-anchor="middle"><tspan class="text-outer-tspan row" x="0" y="-0.1em" dy="1.1em" text-anchor="middle"/></text></g></g><g><rect class="background" style="stroke: none"/></g><g class="edgeLabel"><g class="label" data-id="L_Request_Check_0" transform="translate(0, 0)"><text y="-10.1" text-anchor="middle"><tspan class="text-outer-tspan row" x="0" y="-0.1em" dy="1.1em" text-anchor="middle"/></text></g></g><g><rect class="background" style="stroke: none"/></g><g class="edgeLabel" transform="translate(110, 381.5)"><g class="label" data-id="L_Check_Done_0" transform="translate(-0.046875, -10.5)"><g><rect class="background" style="" x="-52.6875" y="0" width="105.46875" height="21"/><text y="-10.1" text-anchor="middle" style=""><tspan class="text-outer-tspan row" x="0" y="-0.1em" dy="1.1em" text-anchor="middle"><tspan font-style="normal" class="text-inner-tspan" font-weight="normal">完整</tspan><tspan font-style="normal" class="text-inner-tspan" font-weight="normal"> message</tspan></tspan></text></g></g></g><g class="edgeLabel" transform="translate(333.5, 381.5)"><g class="label" data-id="L_Check_L1_0" transform="translate(0, -10.5)"><g><rect class="background" style="" x="-34" y="0" width="68" height="21"/><text y="-10.1" text-anchor="middle" style=""><tspan class="text-outer-tspan row" x="0" y="-0.1em" dy="1.1em" text-anchor="middle"><tspan font-style="normal" class="text-inner-tspan" font-weight="normal">输出截断</tspan></tspan></text></g></g></g><g class="edgeLabel" transform="translate(221.75, 595.5)"><g class="label" data-id="L_L1_L2_0" transform="translate(0, -10.5)"><g><rect class="background" style="" x="-10" y="0" width="20" height="21"/><text y="-10.1" text-anchor="middle" style=""><tspan class="text-outer-tspan row" x="0" y="-0.1em" dy="1.1em" text-anchor="middle"><tspan font-style="normal" class="text-inner-tspan" font-weight="normal">是</tspan></tspan></text></g></g></g><g class="edgeLabel" transform="translate(470.1640625, 595.5)"><g class="label" data-id="L_L1_L3_0" transform="translate(0, -10.5)"><g><rect class="background" style="" x="-10" y="0" width="20" height="21"/><text y="-10.1" text-anchor="middle" style=""><tspan class="text-outer-tspan row" x="0" y="-0.1em" dy="1.1em" text-anchor="middle"><tspan font-style="normal" class="text-inner-tspan" font-weight="normal">否</tspan></tspan></text></g></g></g><g class="edgeLabel" transform="translate(365.7890625, 956.5)"><g class="label" data-id="L_L3_Stop_0" transform="translate(0, -10.5)"><g><rect class="background" style="" x="-10" y="0" width="20" height="21"/><text y="-10.1" text-anchor="middle" style=""><tspan class="text-outer-tspan row" x="0" y="-0.1em" dy="1.1em" text-anchor="middle"><tspan font-style="normal" class="text-inner-tspan" font-weight="normal">否</tspan></tspan></text></g></g></g><g class="edgeLabel" transform="translate(540.4140625, 825.5)"><g class="label" data-id="L_L3_L4_0" transform="translate(0, -10.5)"><g><rect class="background" style="" x="-10" y="0" width="20" height="21"/><text y="-10.1" text-anchor="middle" style=""><tspan class="text-outer-tspan row" x="0" y="-0.1em" dy="1.1em" text-anchor="middle"><tspan font-style="normal" class="text-inner-tspan" font-weight="normal">是</tspan></tspan></text></g></g></g><g class="edgeLabel" transform="translate(392.88794, 1103.35187)"><g class="label" data-id="L_L4_L5_0" transform="translate(0, -10.5)"><g><rect class="background" style="" x="-10" y="0" width="20" height="21"/><text y="-10.1" text-anchor="middle" style=""><tspan class="text-outer-tspan row" x="0" y="-0.1em" dy="1.1em" text-anchor="middle"><tspan font-style="normal" class="text-inner-tspan" font-weight="normal">是</tspan></tspan></text></g></g></g><g class="edgeLabel" transform="translate(622.50048, 1078.00645)"><g class="label" data-id="L_L4_Stop_0" transform="translate(0, -10.5)"><g><rect class="background" style="" x="-10" y="0" width="20" height="21"/><text y="-10.1" text-anchor="middle" style=""><tspan class="text-outer-tspan row" x="0" y="-0.1em" dy="1.1em" text-anchor="middle"><tspan font-style="normal" class="text-inner-tspan" font-weight="normal">否</tspan></tspan></text></g></g></g><g class="edgeLabel" transform="translate(770.2890625, 595.5)"><g class="label" data-id="L_Check_C1_0" transform="translate(0, -10.5)"><g><rect class="background" style="" x="-42" y="0" width="84" height="21"/><text y="-10.1" text-anchor="middle" style=""><tspan class="text-outer-tspan row" x="0" y="-0.1em" dy="1.1em" text-anchor="middle"><tspan font-style="normal" class="text-inner-tspan" font-weight="normal">上下文超限</tspan></tspan></text></g></g></g><g class="edgeLabel" transform="translate(629.53429, 1098.26837)"><g class="label" data-id="L_C1_C2_0" transform="translate(0, -10.5)"><g><rect class="background" style="" x="-10" y="0" width="20" height="21"/><text y="-10.1" text-anchor="middle" style=""><tspan class="text-outer-tspan row" x="0" y="-0.1em" dy="1.1em" text-anchor="middle"><tspan font-style="normal" class="text-inner-tspan" font-weight="normal">否</tspan></tspan></text></g></g></g><g class="edgeLabel" transform="translate(847.74813, 1092.40637)"><g class="label" data-id="L_C1_Stop_0" transform="translate(0, -10.5)"><g><rect class="background" style="" x="-10" y="0" width="20" height="21"/><text y="-10.1" text-anchor="middle" style=""><tspan class="text-outer-tspan row" x="0" y="-0.1em" dy="1.1em" text-anchor="middle"><tspan font-style="normal" class="text-inner-tspan" font-weight="normal">是</tspan></tspan></text></g></g></g><g class="edgeLabel" transform="translate(1001.7890625, 595.5)"><g class="label" data-id="L_Check_R1_0" transform="translate(-0.05078125, -10.5)"><g><rect class="background" style="" x="-35.3671875" y="0" width="70.8359375" height="21"/><text y="-10.1" text-anchor="middle" style=""><tspan class="text-outer-tspan row" x="0" y="-0.1em" dy="1.1em" text-anchor="middle"><tspan font-style="normal" class="text-inner-tspan" font-weight="normal">429</tspan><tspan font-style="normal" class="text-inner-tspan" font-weight="normal"> /</tspan><tspan font-style="normal" class="text-inner-tspan" font-weight="normal"> 529</tspan></tspan></text></g></g></g><g class="edgeLabel" transform="translate(983.42848, 1088.97307)"><g class="label" data-id="L_R1_R2_0" transform="translate(0, -10.5)"><g><rect class="background" style="" x="-10" y="0" width="20" height="21"/><text y="-10.1" text-anchor="middle" style=""><tspan class="text-outer-tspan row" x="0" y="-0.1em" dy="1.1em" text-anchor="middle"><tspan font-style="normal" class="text-inner-tspan" font-weight="normal">是</tspan></tspan></text></g></g></g><g class="edgeLabel" transform="translate(1052.0390625, 1087.5)"><g class="label" data-id="L_R1_Stop_0" transform="translate(0, -10.5)"><g><rect class="background" style="" x="-10" y="0" width="20" height="21"/><text y="-10.1" text-anchor="middle" style=""><tspan class="text-outer-tspan row" x="0" y="-0.1em" dy="1.1em" text-anchor="middle"><tspan font-style="normal" class="text-inner-tspan" font-weight="normal">否</tspan></tspan></text></g></g></g><g class="edgeLabel" transform="translate(1132.2890625, 710.5)"><g class="label" data-id="L_Check_Stop_0" transform="translate(0, -10.5)"><g><rect class="background" style="" x="-34" y="0" width="68" height="21"/><text y="-10.1" text-anchor="middle" style=""><tspan class="text-outer-tspan row" x="0" y="-0.1em" dy="1.1em" text-anchor="middle"><tspan font-style="normal" class="text-inner-tspan" font-weight="normal">普通错误</tspan></tspan></text></g></g></g></g><g class="nodes"><g class="node default" id="my-svg-flowchart-Start-0" data-look="classic" transform="translate(681.7890625, 24)"><g class="basic label-container outer-path"><path d="M-11.5 -16 C-2.6102440491564973 -16, 6.279511901687005 -16, 11.5 -16 C11.5 -16, 11.5 -16, 11.499999999999998 -16 C11.854940595900285 -15.988617745939436, 12.209881191800573 -15.977235491878872, 12.525123519691405 -15.967126284005381 C12.878724668176641 -15.93301480647861, 13.232325816661877 -15.89890332895184, 13.546034586952095 -15.868640221171939 C13.817217626120527 -15.824797450455065, 14.08840066528896 -15.78095467973819, 14.558538059221954 -15.704946511857047 C14.922466229712727 -15.621882281795783, 15.286394400203502 -15.538818051734516, 15.558473342552116 -15.476717808624471 C15.798889582733343 -15.40536353050928, 16.03930582291457 -15.334009252394088, 16.54173148837793 -15.184891952170698 C16.790694962499057 -15.093271092300997, 17.039658436620183 -15.001650232431295, 17.504272078069985 -14.830668117536348 C17.757542863890027 -14.718552653664739, 18.010813649710066 -14.606437189793132, 18.44213982588093 -14.415501886438706 C18.66539781768766 -14.299028335116704, 18.888655809494388 -14.182554783794703, 19.351480832063 -13.941099265974232 C19.532956804590302 -13.831087464956992, 19.7144327771176 -13.72107566393975, 20.228558419368778 -13.409409678269451 C20.434319040237767 -13.265879976384962, 20.64007966110676 -13.122350274500471, 21.069768487859456 -12.822617949887306 C21.315226127689876 -12.626872014024665, 21.560683767520295 -12.431126078162023, 21.871654324924613 -12.183135333906153 C22.036295711545502 -12.033612382749439, 22.200937098166392 -11.884089431592727, 22.630920809655784 -11.493589601563642 C22.912209980825576 -11.203135438060386, 23.193499151995365 -10.91268127455713, 23.344447953205048 -10.756814244181072 C23.608296305219298 -10.446882956508595, 23.872144657233548 -10.136951668836117, 24.00930371948848 -9.975836829739738 C24.141990144219164 -9.798049108582582, 24.274676568949854 -9.620261387425428, 24.62275607355129 -9.153866561954718 C24.812095508731282 -8.86299034476097, 25.00143494391127 -8.572114127567222, 25.182284208085537 -8.294281092968403 C25.37028619049885 -7.960464535928519, 25.55828817291216 -7.626647978888636, 25.685588901968003 -7.400612643853364 C25.805587927320573 -7.1514321001409265, 25.925586952673143 -6.902251556428489, 26.130601968252996 -6.476533489958305 C26.253125377433236 -6.173898300454147, 26.37564878661348 -5.8712631109499895, 26.515494752796165 -5.52584087074093 C26.59339568597105 -5.291215671846314, 26.671296619145938 -5.056590472951698, 26.83868564858657 -4.552441386096524 C26.928908509635672 -4.208382514080963, 27.019131370684775 -3.8643236420654024, 27.098846594909176 -3.560334943301032 C27.151232991167348 -3.291341870384085, 27.203619387425523 -3.0223487974671372, 27.2949085346312 -2.5535983205340735 C27.322488284575826 -2.3396952262012007, 27.35006803452045 -2.1257921318683275, 27.42606580718717 -1.536368414522911 C27.443084687000795 -1.271285624033229, 27.460103566814414 -1.0062028335435471, 27.491779459211006 -0.5128252411464826 C27.491779459211006 -0.11980530962135805, 27.491779459211006 0.27321462190376655, 27.491779459211006 0.5128252411464788 C27.468184188992787 0.8803406205545437, 27.44458891877457 1.2478559999626087, 27.42606580718717 1.5363684145229002 C27.396617616041024 1.764762769849355, 27.367169424894872 1.99315712517581, 27.294908534631205 2.5535983205340624 C27.22743119208928 2.9000802131454417, 27.159953849547357 3.2465621057568215, 27.098846594909176 3.5603349433010285 C27.00780257808848 3.9075252381648364, 26.916758561267784 4.254715533028644, 26.83868564858657 4.552441386096513 C26.745441333037697 4.8332784080655795, 26.652197017488827 5.114115430034646, 26.515494752796165 5.525840870740919 C26.38791513388861 5.840964996026711, 26.26033551498106 6.156089121312504, 26.130601968253 6.4765334899583005 C26.01689960977689 6.7126388701746835, 25.903197251300778 6.948744250391067, 25.685588901968003 7.400612643853361 C25.51375015561796 7.705729738557786, 25.34191140926791 8.010846833262212, 25.18228420808554 8.294281092968399 C24.995241385465263 8.581629096543606, 24.808198562844986 8.868977100118814, 24.622756073551297 9.15386656195471 C24.461298034308836 9.370205625409637, 24.299839995066375 9.586544688864565, 24.00930371948848 9.975836829739734 C23.841091908429355 10.17342799453298, 23.67288009737023 10.371019159326229, 23.344447953205055 10.756814244181063 C23.152970446528577 10.954530490420186, 22.9614929398521 11.15224673665931, 22.630920809655784 11.493589601563638 C22.357922643745102 11.741519312708068, 22.08492447783442 11.989449023852496, 21.871654324924627 12.183135333906142 C21.555595701797937 12.43518367517649, 21.239537078671248 12.687232016446838, 21.06976848785946 12.822617949887304 C20.890422023780367 12.94772227944558, 20.71107555970127 13.072826609003856, 20.228558419368788 13.409409678269446 C19.90609359217483 13.604889751528091, 19.583628764980872 13.800369824786735, 19.351480832063004 13.94109926597423 C19.040067559763024 14.103563370663409, 18.728654287463044 14.266027475352587, 18.442139825880933 14.415501886438705 C18.213286925183166 14.516808276897509, 17.984434024485402 14.618114667356313, 17.50427207806999 14.830668117536346 C17.2539239400075 14.922798546536162, 17.003575801945008 15.01492897553598, 16.54173148837794 15.184891952170695 C16.22697328212221 15.278310535587856, 15.912215075866479 15.371729119005018, 15.558473342552134 15.476717808624468 C15.353665598551197 15.52346383969725, 15.148857854550261 15.570209870770032, 14.558538059221961 15.704946511857045 C14.169969250777838 15.767767303410176, 13.781400442333714 15.830588094963307, 13.546034586952105 15.868640221171937 C13.270300458841746 15.895239960891937, 12.994566330731384 15.921839700611937, 12.525123519691405 15.967126284005381 C12.190719731922817 15.977849962601633, 11.856315944154227 15.988573641197885, 11.500000000000004 16 C11.500000000000002 16, 11.500000000000002 16, 11.5 16 C6.1345596813822585 16, 0.769119362764517 16, -11.499999999999996 16 C-11.83084849729302 15.989390332649347, -12.161696994586045 15.978780665298693, -12.5251235196914 15.967126284005381 C-12.851805990174542 15.935611618971025, -13.178488460657684 15.90409695393667, -13.5460345869521 15.868640221171937 C-13.758984502253124 15.834212130317326, -13.971934417554147 15.799784039462713, -14.558538059221956 15.704946511857045 C-14.957510025569091 15.613883764073705, -15.356481991916226 15.522821016290365, -15.558473342552112 15.476717808624471 C-15.782782124116602 15.410144139676952, -16.007090905681093 15.343570470729434, -16.541731488377923 15.184891952170702 C-16.878902268778113 15.060809988210904, -17.216073049178302 14.936728024251106, -17.504272078069988 14.830668117536348 C-17.86645249460882 14.67034159083494, -18.228632911147653 14.510015064133531, -18.44213982588093 14.415501886438708 C-18.76873475904798 14.245117518999495, -19.095329692215035 14.074733151560283, -19.351480832063 13.941099265974234 C-19.690392634023745 13.73564893995881, -20.029304435984486 13.530198613943387, -20.228558419368767 13.409409678269457 C-20.53990231222633 13.19222965647192, -20.851246205083893 12.97504963467438, -21.069768487859456 12.822617949887308 C-21.280642141000197 12.654451823091147, -21.491515794140938 12.486285696294988, -21.871654324924613 12.183135333906154 C-22.13706447543632 11.942096857579191, -22.402474625948024 11.70105838125223, -22.630920809655777 11.493589601563649 C-22.911140687231036 11.204239571487381, -23.191360564806295 10.914889541411116, -23.344447953205048 10.756814244181069 C-23.56411075401236 10.498785819185349, -23.78377355481967 10.240757394189629, -24.009303719488475 9.97583682973974 C-24.24851994053522 9.655308886583164, -24.487736161581964 9.334780943426589, -24.62275607355129 9.15386656195472 C-24.83596367645645 8.82632242963466, -25.049171279361612 8.498778297314601, -25.182284208085534 8.29428109296841 C-25.360852594505094 7.977214840870611, -25.539420980924653 7.660148588772814, -25.685588901968 7.400612643853366 C-25.792047497573854 7.179549092228764, -25.898506093179712 6.958485540604163, -26.130601968252996 6.476533489958307 C-26.21343939056855 6.271923455286282, -26.296276812884106 6.067313420614256, -26.515494752796165 5.525840870740931 C-26.621884195912788 5.20541281892945, -26.72827363902941 4.884984767117969, -26.83868564858657 4.552441386096519 C-26.896049518435458 4.333688088704251, -26.953413388284346 4.114934791311983, -27.098846594909176 3.5603349433010343 C-27.17698580694398 3.159106604230641, -27.25512501897878 2.757878265160248, -27.2949085346312 2.5535983205340753 C-27.32228814658354 2.3412474569476633, -27.349667758535876 2.1288965933612514, -27.42606580718717 1.5363684145229202 C-27.43932044760145 1.3299166911173699, -27.452575088015728 1.1234649677118196, -27.491779459211006 0.5128252411464846 C-27.491779459211006 0.17033481600588585, -27.491779459211006 -0.17215560913471295, -27.491779459211006 -0.5128252411464769 C-27.465749988944324 -0.9182552511602675, -27.439720518677643 -1.3236852611740582, -27.42606580718717 -1.5363684145228982 C-27.38141085994251 -1.8827033672357723, -27.33675591269785 -2.2290383199486463, -27.294908534631205 -2.5535983205340678 C-27.234315523700985 -2.8647306253233507, -27.173722512770762 -3.1758629301126335, -27.098846594909176 -3.5603349433010267 C-27.006114260800327 -3.9139635237059, -26.913381926691482 -4.267592104110773, -26.838685648586573 -4.552441386096511 C-26.73091595969914 -4.877026518257378, -26.623146270811702 -5.201611650418246, -26.515494752796172 -5.525840870740911 C-26.367457824559615 -5.891494945584502, -26.21942089632306 -6.257149020428093, -26.130601968253 -6.476533489958299 C-25.99679646326043 -6.754383484054538, -25.862990958267858 -7.032233478150777, -25.685588901968003 -7.400612643853359 C-25.506619042229794 -7.718391752482002, -25.327649182491587 -8.036170861110644, -25.182284208085537 -8.294281092968404 C-25.044316426029653 -8.506236655743152, -24.906348643973764 -8.718192218517897, -24.622756073551294 -9.153866561954715 C-24.38448575658542 -9.473127079816555, -24.14621543961955 -9.792387597678395, -24.00930371948848 -9.975836829739734 C-23.769230836457545 -10.2578400986819, -23.529157953426612 -10.539843367624064, -23.344447953205055 -10.756814244181063 C-23.100317987038288 -11.008898477691227, -22.856188020871524 -11.260982711201393, -22.63092080965579 -11.493589601563633 C-22.370320586612426 -11.730259829027556, -22.10972036356906 -11.966930056491478, -21.871654324924627 -12.18313533390614 C-21.607158819600404 -12.394063460881213, -21.34266331427618 -12.604991587856286, -21.069768487859463 -12.822617949887302 C-20.8848796596449 -12.951588392741407, -20.699990831430334 -13.080558835595511, -20.228558419368788 -13.409409678269444 C-19.903860416781185 -13.606243515575313, -19.579162414193583 -13.80307735288118, -19.351480832063007 -13.941099265974229 C-18.99647690609674 -14.126304586759964, -18.64147298013047 -14.3115099075457, -18.442139825880936 -14.415501886438705 C-18.24788179945818 -14.501494152276443, -18.05362377303543 -14.587486418114183, -17.504272078069995 -14.830668117536344 C-17.18645517965092 -14.947627674021767, -16.868638281231846 -15.064587230507192, -16.54173148837794 -15.184891952170695 C-16.161533242910235 -15.297732795724194, -15.781334997442528 -15.410573639277695, -15.558473342552134 -15.476717808624466 C-15.290940115952472 -15.53778052177838, -15.023406889352808 -15.598843234932295, -14.558538059221963 -15.704946511857043 C-14.241198894173953 -15.756251447060027, -13.923859729125944 -15.807556382263009, -13.546034586952107 -15.868640221171937 C-13.197394376317389 -15.90227312299067, -12.84875416568267 -15.935906024809402, -12.525123519691407 -15.967126284005381 C-12.255989944885204 -15.975756873912692, -11.986856370079003 -15.984387463820003, -11.500000000000005 -16 C-11.500000000000004 -16, -11.500000000000002 -16, -11.5 -16" stroke="none" stroke-width="0" fill="#eee" style=""/><path d="M-11.5 -16 C-2.6682449413937164 -16, 6.163510117212567 -16, 11.5 -16 M-11.5 -16 C-6.139072472712288 -16, -0.7781449454245752 -16, 11.5 -16 M11.5 -16 C11.5 -16, 11.499999999999998 -16, 11.499999999999998 -16 M11.5 -16 C11.5 -16, 11.499999999999998 -16, 11.499999999999998 -16 M11.499999999999998 -16 C11.851639697381184 -15.988723599330134, 12.203279394762372 -15.97744719866027, 12.525123519691405 -15.967126284005381 M11.499999999999998 -16 C11.841686199892303 -15.989042788621296, 12.183372399784608 -15.978085577242592, 12.525123519691405 -15.967126284005381 M12.525123519691405 -15.967126284005381 C12.738600479844784 -15.946532418402992, 12.952077439998162 -15.925938552800604, 13.546034586952095 -15.868640221171939 M12.525123519691405 -15.967126284005381 C12.849528097472666 -15.935831364540409, 13.173932675253928 -15.904536445075438, 13.546034586952095 -15.868640221171939 M13.546034586952095 -15.868640221171939 C13.75429309200533 -15.834970601143759, 13.962551597058567 -15.80130098111558, 14.558538059221954 -15.704946511857047 M13.546034586952095 -15.868640221171939 C13.845281712024729 -15.82026026668631, 14.144528837097365 -15.77188031220068, 14.558538059221954 -15.704946511857047 M14.558538059221954 -15.704946511857047 C14.822141258269184 -15.64478080184615, 15.085744457316416 -15.58461509183525, 15.558473342552116 -15.476717808624471 M14.558538059221954 -15.704946511857047 C14.792685597398627 -15.651503864223702, 15.026833135575302 -15.598061216590358, 15.558473342552116 -15.476717808624471 M15.558473342552116 -15.476717808624471 C15.855013732178003 -15.388706177555777, 16.15155412180389 -15.300694546487081, 16.54173148837793 -15.184891952170698 M15.558473342552116 -15.476717808624471 C15.92992399880568 -15.366473203632696, 16.301374655059245 -15.25622859864092, 16.54173148837793 -15.184891952170698 M16.54173148837793 -15.184891952170698 C16.913513812262504 -15.048072620263047, 17.28529613614708 -14.911253288355395, 17.504272078069985 -14.830668117536348 M16.54173148837793 -15.184891952170698 C16.91768931184221 -15.04653599781982, 17.29364713530649 -14.908180043468942, 17.504272078069985 -14.830668117536348 M17.504272078069985 -14.830668117536348 C17.878029278721492 -14.665216891921357, 18.251786479373 -14.499765666306368, 18.44213982588093 -14.415501886438706 M17.504272078069985 -14.830668117536348 C17.878332929906406 -14.665082474549289, 18.252393781742832 -14.499496831562228, 18.44213982588093 -14.415501886438706 M18.44213982588093 -14.415501886438706 C18.701012821955384 -14.280448010202731, 18.95988581802984 -14.145394133966755, 19.351480832063 -13.941099265974232 M18.44213982588093 -14.415501886438706 C18.683572801253344 -14.289546457832119, 18.92500577662576 -14.16359102922553, 19.351480832063 -13.941099265974232 M19.351480832063 -13.941099265974232 C19.628860568214016 -13.772950039855223, 19.906240304365035 -13.604800813736212, 20.228558419368778 -13.409409678269451 M19.351480832063 -13.941099265974232 C19.64081945526257 -13.765700492248168, 19.93015807846214 -13.590301718522104, 20.228558419368778 -13.409409678269451 M20.228558419368778 -13.409409678269451 C20.458795727672882 -13.248806098808949, 20.689033035976987 -13.088202519348444, 21.069768487859456 -12.822617949887306 M20.228558419368778 -13.409409678269451 C20.540792001056765 -13.191609048057817, 20.853025582744753 -12.973808417846183, 21.069768487859456 -12.822617949887306 M21.069768487859456 -12.822617949887306 C21.29018692439837 -12.646840112328457, 21.510605360937287 -12.471062274769606, 21.871654324924613 -12.183135333906153 M21.069768487859456 -12.822617949887306 C21.301485224766463 -12.637830018445301, 21.533201961673473 -12.453042087003299, 21.871654324924613 -12.183135333906153 M21.871654324924613 -12.183135333906153 C22.134265781356795 -11.944638557492825, 22.39687723778898 -11.706141781079497, 22.630920809655784 -11.493589601563642 M21.871654324924613 -12.183135333906153 C22.05933242950609 -12.012691045015792, 22.247010534087565 -11.84224675612543, 22.630920809655784 -11.493589601563642 M22.630920809655784 -11.493589601563642 C22.88344246546522 -11.232840259526888, 23.135964121274654 -10.972090917490133, 23.344447953205048 -10.756814244181072 M22.630920809655784 -11.493589601563642 C22.863375959313444 -11.25356057461939, 23.0958311089711 -11.013531547675141, 23.344447953205048 -10.756814244181072 M23.344447953205048 -10.756814244181072 C23.563568785855256 -10.499422445821548, 23.782689618505465 -10.242030647462022, 24.00930371948848 -9.975836829739738 M23.344447953205048 -10.756814244181072 C23.596555474573165 -10.46067440425773, 23.848662995941282 -10.164534564334389, 24.00930371948848 -9.975836829739738 M24.00930371948848 -9.975836829739738 C24.216287952532564 -9.698496814112211, 24.423272185576646 -9.421156798484686, 24.62275607355129 -9.153866561954718 M24.00930371948848 -9.975836829739738 C24.161372731720913 -9.772078207120288, 24.313441743953348 -9.568319584500836, 24.62275607355129 -9.153866561954718 M24.62275607355129 -9.153866561954718 C24.802792184472132 -8.877282749115377, 24.982828295392977 -8.600698936276038, 25.182284208085537 -8.294281092968403 M24.62275607355129 -9.153866561954718 C24.759988282600563 -8.943041036847136, 24.89722049164984 -8.732215511739554, 25.182284208085537 -8.294281092968403 M25.182284208085537 -8.294281092968403 C25.34854697472646 -7.999064714866696, 25.514809741367383 -7.70384833676499, 25.685588901968003 -7.400612643853364 M25.182284208085537 -8.294281092968403 C25.361081738296946 -7.976807972864853, 25.539879268508354 -7.659334852761303, 25.685588901968003 -7.400612643853364 M25.685588901968003 -7.400612643853364 C25.797174637996758 -7.168902475437379, 25.908760374025512 -6.9371923070213946, 26.130601968252996 -6.476533489958305 M25.685588901968003 -7.400612643853364 C25.805171259127242 -7.152297320559649, 25.92475361628648 -6.903981997265934, 26.130601968252996 -6.476533489958305 M26.130601968252996 -6.476533489958305 C26.226224103036834 -6.240344968314016, 26.321846237820676 -6.004156446669727, 26.515494752796165 -5.52584087074093 M26.130601968252996 -6.476533489958305 C26.22497981877574 -6.243418374495525, 26.31935766929848 -6.010303259032746, 26.515494752796165 -5.52584087074093 M26.515494752796165 -5.52584087074093 C26.61545704831534 -5.2247703634660665, 26.715419343834512 -4.923699856191203, 26.83868564858657 -4.552441386096524 M26.515494752796165 -5.52584087074093 C26.634190414939713 -5.1683484479500805, 26.75288607708326 -4.8108560251592305, 26.83868564858657 -4.552441386096524 M26.83868564858657 -4.552441386096524 C26.905034487361238 -4.299424508080084, 26.971383326135907 -4.046407630063643, 27.098846594909176 -3.560334943301032 M26.83868564858657 -4.552441386096524 C26.898633138125568 -4.323835627077999, 26.95858062766457 -4.095229868059475, 27.098846594909176 -3.560334943301032 M27.098846594909176 -3.560334943301032 C27.146323427344193 -3.3165514429793173, 27.193800259779206 -3.072767942657602, 27.2949085346312 -2.5535983205340735 M27.098846594909176 -3.560334943301032 C27.143746714932433 -3.329782316625331, 27.18864683495569 -3.0992296899496306, 27.2949085346312 -2.5535983205340735 M27.2949085346312 -2.5535983205340735 C27.32234118071316 -2.3408361347110933, 27.34977382679512 -2.128073948888113, 27.42606580718717 -1.536368414522911 M27.2949085346312 -2.5535983205340735 C27.34417853072329 -2.171469960305031, 27.39344852681538 -1.7893416000759885, 27.42606580718717 -1.536368414522911 M27.42606580718717 -1.536368414522911 C27.44837255660681 -1.188922786628002, 27.470679306026447 -0.8414771587330933, 27.491779459211006 -0.5128252411464826 M27.42606580718717 -1.536368414522911 C27.448107863769533 -1.1930455912247804, 27.470149920351897 -0.8497227679266496, 27.491779459211006 -0.5128252411464826 M27.491779459211006 -0.5128252411464826 C27.491779459211006 -0.2890209476691904, 27.491779459211006 -0.06521665419189815, 27.491779459211006 0.5128252411464788 M27.491779459211006 -0.5128252411464826 C27.491779459211006 -0.28177932949751566, 27.491779459211006 -0.05073341784854868, 27.491779459211006 0.5128252411464788 M27.491779459211006 0.5128252411464788 C27.468276079171737 0.8789093568449788, 27.44477269913247 1.244993472543479, 27.42606580718717 1.5363684145229002 M27.491779459211006 0.5128252411464788 C27.47485970501595 0.776364070114236, 27.457939950820894 1.0399028990819934, 27.42606580718717 1.5363684145229002 M27.42606580718717 1.5363684145229002 C27.376504816824717 1.920753668849596, 27.32694382646226 2.3051389231762918, 27.294908534631205 2.5535983205340624 M27.42606580718717 1.5363684145229002 C27.374611732777833 1.9354360548854865, 27.323157658368494 2.334503695248073, 27.294908534631205 2.5535983205340624 M27.294908534631205 2.5535983205340624 C27.25408113412544 2.7632383932570157, 27.213253733619673 2.972878465979969, 27.098846594909176 3.5603349433010285 M27.294908534631205 2.5535983205340624 C27.222180053965463 2.927043697582808, 27.14945157329972 3.300489074631553, 27.098846594909176 3.5603349433010285 M27.098846594909176 3.5603349433010285 C27.034505959326783 3.805693672184547, 26.97016532374439 4.051052401068065, 26.83868564858657 4.552441386096513 M27.098846594909176 3.5603349433010285 C27.004250810826836 3.9210696660791484, 26.9096550267445 4.281804388857268, 26.83868564858657 4.552441386096513 M26.83868564858657 4.552441386096513 C26.73342017292375 4.869484227017032, 26.62815469726093 5.18652706793755, 26.515494752796165 5.525840870740919 M26.83868564858657 4.552441386096513 C26.754329883734812 4.806507509564102, 26.669974118883054 5.060573633031691, 26.515494752796165 5.525840870740919 M26.515494752796165 5.525840870740919 C26.390491106864985 5.834602292972017, 26.265487460933805 6.143363715203114, 26.130601968253 6.4765334899583005 M26.515494752796165 5.525840870740919 C26.401044605580605 5.808534947106424, 26.28659445836504 6.0912290234719295, 26.130601968253 6.4765334899583005 M26.130601968253 6.4765334899583005 C25.95963659941458 6.831546736424164, 25.788671230576156 7.186559982890027, 25.685588901968003 7.400612643853361 M26.130601968253 6.4765334899583005 C25.95340554786723 6.84448564828538, 25.776209127481458 7.21243780661246, 25.685588901968003 7.400612643853361 M25.685588901968003 7.400612643853361 C25.53835424207184 7.662042691625006, 25.391119582175676 7.923472739396651, 25.18228420808554 8.294281092968399 M25.685588901968003 7.400612643853361 C25.527822291822055 7.680743235769103, 25.37005568167611 7.9608738276848445, 25.18228420808554 8.294281092968399 M25.18228420808554 8.294281092968399 C25.024798651048485 8.536221199370651, 24.867313094011426 8.778161305772905, 24.622756073551297 9.15386656195471 M25.18228420808554 8.294281092968399 C24.99863880134998 8.576409753410777, 24.81499339461442 8.858538413853154, 24.622756073551297 9.15386656195471 M24.622756073551297 9.15386656195471 C24.43663300770567 9.40325451402773, 24.250509941860045 9.65264246610075, 24.00930371948848 9.975836829739734 M24.622756073551297 9.15386656195471 C24.49106210647701 9.33032448026704, 24.359368139402726 9.506782398579368, 24.00930371948848 9.975836829739734 M24.00930371948848 9.975836829739734 C23.83776560820432 10.177335256049147, 23.66622749692017 10.378833682358561, 23.344447953205055 10.756814244181063 M24.00930371948848 9.975836829739734 C23.822684760364357 10.19505007804652, 23.63606580124024 10.414263326353309, 23.344447953205055 10.756814244181063 M23.344447953205055 10.756814244181063 C23.110408347264002 10.998479352324198, 22.876368741322946 11.240144460467334, 22.630920809655784 11.493589601563638 M23.344447953205055 10.756814244181063 C23.072370677782622 11.037756369014465, 22.80029340236019 11.318698493847867, 22.630920809655784 11.493589601563638 M22.630920809655784 11.493589601563638 C22.44464185280823 11.662763221501473, 22.258362895960676 11.831936841439306, 21.871654324924627 12.183135333906142 M22.630920809655784 11.493589601563638 C22.44617598153634 11.661369966381427, 22.26143115341689 11.829150331199216, 21.871654324924627 12.183135333906142 M21.871654324924627 12.183135333906142 C21.62454977544545 12.380194636387563, 21.377445225966266 12.577253938868985, 21.06976848785946 12.822617949887304 M21.871654324924627 12.183135333906142 C21.5928900109623 12.405442456061156, 21.314125696999977 12.627749578216171, 21.06976848785946 12.822617949887304 M21.06976848785946 12.822617949887304 C20.808160406306214 13.005104422747522, 20.54655232475297 13.187590895607741, 20.228558419368788 13.409409678269446 M21.06976848785946 12.822617949887304 C20.785890172261837 13.020639173953986, 20.502011856664215 13.218660398020669, 20.228558419368788 13.409409678269446 M20.228558419368788 13.409409678269446 C19.90203792605709 13.607348320162405, 19.575517432745393 13.805286962055362, 19.351480832063004 13.94109926597423 M20.228558419368788 13.409409678269446 C19.89955892151472 13.608851107284236, 19.57055942366065 13.808292536299028, 19.351480832063004 13.94109926597423 M19.351480832063004 13.94109926597423 C19.08798972480666 14.078562407855756, 18.82449861755032 14.21602554973728, 18.442139825880933 14.415501886438705 M19.351480832063004 13.94109926597423 C19.013941560885147 14.117193287543497, 18.676402289707287 14.293287309112763, 18.442139825880933 14.415501886438705 M18.442139825880933 14.415501886438705 C18.11703657016299 14.559415453899604, 17.791933314445046 14.703329021360503, 17.50427207806999 14.830668117536346 M18.442139825880933 14.415501886438705 C18.129601011995184 14.553853548211414, 17.817062198109436 14.692205209984126, 17.50427207806999 14.830668117536346 M17.50427207806999 14.830668117536346 C17.15609936564262 14.958798894182891, 16.80792665321525 15.086929670829436, 16.54173148837794 15.184891952170695 M17.50427207806999 14.830668117536346 C17.191573578557346 14.945744055910243, 16.878875079044704 15.060819994284138, 16.54173148837794 15.184891952170695 M16.54173148837794 15.184891952170695 C16.290699132932513 15.259397037571174, 16.03966677748709 15.333902122971654, 15.558473342552134 15.476717808624468 M16.54173148837794 15.184891952170695 C16.298314247460546 15.257136911551807, 16.05489700654315 15.32938187093292, 15.558473342552134 15.476717808624468 M15.558473342552134 15.476717808624468 C15.225552156606188 15.55270489680286, 14.89263097066024 15.628691984981252, 14.558538059221961 15.704946511857045 M15.558473342552134 15.476717808624468 C15.244958243530654 15.548275584098903, 14.931443144509174 15.619833359573336, 14.558538059221961 15.704946511857045 M14.558538059221961 15.704946511857045 C14.294459297240213 15.74764071813287, 14.030380535258466 15.790334924408691, 13.546034586952105 15.868640221171937 M14.558538059221961 15.704946511857045 C14.222478935002016 15.759277944883495, 13.886419810782069 15.813609377909943, 13.546034586952105 15.868640221171937 M13.546034586952105 15.868640221171937 C13.284083103562708 15.893910365731761, 13.022131620173312 15.919180510291586, 12.525123519691405 15.967126284005381 M13.546034586952105 15.868640221171937 C13.180241704989818 15.903927820564535, 12.814448823027533 15.939215419957131, 12.525123519691405 15.967126284005381 M12.525123519691405 15.967126284005381 C12.126977698167877 15.979894045557812, 11.728831876644351 15.992661807110244, 11.500000000000004 16 M12.525123519691405 15.967126284005381 C12.260063358016366 15.975626247481994, 11.995003196341324 15.984126210958605, 11.500000000000004 16 M11.500000000000004 16 C11.500000000000004 16, 11.500000000000002 16, 11.5 16 M11.500000000000004 16 C11.500000000000004 16, 11.500000000000002 16, 11.5 16 M11.5 16 C2.9986487764753935 16, -5.502702447049213 16, -11.499999999999996 16 M11.5 16 C3.0911121223989113 16, -5.317775755202177 16, -11.499999999999996 16 M-11.499999999999996 16 C-11.769548901415552 15.991356091376712, -12.039097802831108 15.982712182753422, -12.5251235196914 15.967126284005381 M-11.499999999999996 16 C-11.74564677349806 15.992122586096356, -11.99129354699612 15.984245172192711, -12.5251235196914 15.967126284005381 M-12.5251235196914 15.967126284005381 C-12.8269711362558 15.938007407460285, -13.128818752820198 15.908888530915188, -13.5460345869521 15.868640221171937 M-12.5251235196914 15.967126284005381 C-12.753131355480237 15.945130642306374, -12.981139191269074 15.923135000607367, -13.5460345869521 15.868640221171937 M-13.5460345869521 15.868640221171937 C-13.93087294529919 15.80642253986042, -14.315711303646282 15.744204858548907, -14.558538059221956 15.704946511857045 M-13.5460345869521 15.868640221171937 C-13.783946765606562 15.830176425163584, -14.021858944261021 15.791712629155233, -14.558538059221956 15.704946511857045 M-14.558538059221956 15.704946511857045 C-14.786915962017757 15.652820745848995, -15.01529386481356 15.600694979840945, -15.558473342552112 15.476717808624471 M-14.558538059221956 15.704946511857045 C-14.863861960843149 15.635258323736668, -15.16918586246434 15.56557013561629, -15.558473342552112 15.476717808624471 M-15.558473342552112 15.476717808624471 C-15.85279879941593 15.389363557973141, -16.14712425627975 15.302009307321809, -16.541731488377923 15.184891952170702 M-15.558473342552112 15.476717808624471 C-15.940291575697062 15.363396161231856, -16.32210980884201 15.25007451383924, -16.541731488377923 15.184891952170702 M-16.541731488377923 15.184891952170702 C-16.74526864387037 15.109988397472641, -16.948805799362816 15.03508484277458, -17.504272078069988 14.830668117536348 M-16.541731488377923 15.184891952170702 C-16.755354048731945 15.106276875255121, -16.968976609085964 15.02766179833954, -17.504272078069988 14.830668117536348 M-17.504272078069988 14.830668117536348 C-17.718377870332716 14.735889834524306, -17.932483662595445 14.641111551512266, -18.44213982588093 14.415501886438708 M-17.504272078069988 14.830668117536348 C-17.71072326306929 14.739278302093968, -17.917174448068593 14.64788848665159, -18.44213982588093 14.415501886438708 M-18.44213982588093 14.415501886438708 C-18.730754412541728 14.264931841444234, -19.019368999202527 14.114361796449762, -19.351480832063 13.941099265974234 M-18.44213982588093 14.415501886438708 C-18.79789563464615 14.229904308878364, -19.153651443411366 14.04430673131802, -19.351480832063 13.941099265974234 M-19.351480832063 13.941099265974234 C-19.63012013421724 13.772186483542038, -19.90875943637148 13.603273701109842, -20.228558419368767 13.409409678269457 M-19.351480832063 13.941099265974234 C-19.680277954983836 13.741780517833254, -20.009075077904676 13.542461769692274, -20.228558419368767 13.409409678269457 M-20.228558419368767 13.409409678269457 C-20.449938998496975 13.254984169680432, -20.671319577625184 13.100558661091407, -21.069768487859456 12.822617949887308 M-20.228558419368767 13.409409678269457 C-20.406794836571454 13.285079669359009, -20.58503125377414 13.16074966044856, -21.069768487859456 12.822617949887308 M-21.069768487859456 12.822617949887308 C-21.2873062256402 12.649137392929484, -21.50484396342095 12.47565683597166, -21.871654324924613 12.183135333906154 M-21.069768487859456 12.822617949887308 C-21.33916750628369 12.607779401702942, -21.608566524707925 12.392940853518574, -21.871654324924613 12.183135333906154 M-21.871654324924613 12.183135333906154 C-22.173883445570212 11.908658843080158, -22.47611256621581 11.63418235225416, -22.630920809655777 11.493589601563649 M-21.871654324924613 12.183135333906154 C-22.072862808539607 12.000403112771764, -22.2740712921546 11.817670891637375, -22.630920809655777 11.493589601563649 M-22.630920809655777 11.493589601563649 C-22.867430678402112 11.24937374426171, -23.103940547148447 11.005157886959774, -23.344447953205048 10.756814244181069 M-22.630920809655777 11.493589601563649 C-22.792614927311824 11.326627149749832, -22.95430904496787 11.159664697936014, -23.344447953205048 10.756814244181069 M-23.344447953205048 10.756814244181069 C-23.515740509898013 10.555604260266923, -23.687033066590974 10.354394276352776, -24.009303719488475 9.97583682973974 M-23.344447953205048 10.756814244181069 C-23.486990455666056 10.589375709892208, -23.629532958127065 10.421937175603347, -24.009303719488475 9.97583682973974 M-24.009303719488475 9.97583682973974 C-24.14868050947444 9.789084628645327, -24.2880572994604 9.602332427550916, -24.62275607355129 9.15386656195472 M-24.009303719488475 9.97583682973974 C-24.163972435527132 9.768594840857842, -24.31864115156579 9.561352851975943, -24.62275607355129 9.15386656195472 M-24.62275607355129 9.15386656195472 C-24.7578474845264 8.94632987757383, -24.89293889550151 8.738793193192938, -25.182284208085534 8.29428109296841 M-24.62275607355129 9.15386656195472 C-24.81411118156662 8.85989373000195, -25.005466289581946 8.56592089804918, -25.182284208085534 8.29428109296841 M-25.182284208085534 8.29428109296841 C-25.322407948508513 8.04547720278008, -25.462531688931495 7.796673312591753, -25.685588901968 7.400612643853366 M-25.182284208085534 8.29428109296841 C-25.381598343533916 7.940378662735051, -25.5809124789823 7.586476232501692, -25.685588901968 7.400612643853366 M-25.685588901968 7.400612643853366 C-25.805641262282776 7.151321348950718, -25.925693622597556 6.902030054048072, -26.130601968252996 6.476533489958307 M-25.685588901968 7.400612643853366 C-25.84882070814317 7.061658305729482, -26.012052514318334 6.722703967605598, -26.130601968252996 6.476533489958307 M-26.130601968252996 6.476533489958307 C-26.24438031046464 6.195498784940956, -26.358158652676277 5.914464079923607, -26.515494752796165 5.525840870740931 M-26.130601968252996 6.476533489958307 C-26.238792025857503 6.209301955962715, -26.346982083462006 5.942070421967123, -26.515494752796165 5.525840870740931 M-26.515494752796165 5.525840870740931 C-26.644748451452436 5.136549324168429, -26.774002150108707 4.747257777595926, -26.83868564858657 4.552441386096519 M-26.515494752796165 5.525840870740931 C-26.642523641190532 5.143250098201909, -26.7695525295849 4.760659325662886, -26.83868564858657 4.552441386096519 M-26.83868564858657 4.552441386096519 C-26.925094092922834 4.222928538185667, -27.0115025372591 3.893415690274815, -27.098846594909176 3.5603349433010343 M-26.83868564858657 4.552441386096519 C-26.90413153506152 4.302867856540915, -26.969577421536467 4.05329432698531, -27.098846594909176 3.5603349433010343 M-27.098846594909176 3.5603349433010343 C-27.154794087619372 3.2730563927409455, -27.21074158032957 2.9857778421808567, -27.2949085346312 2.5535983205340753 M-27.098846594909176 3.5603349433010343 C-27.17287766508711 3.1802010444095643, -27.246908735265045 2.800067145518094, -27.2949085346312 2.5535983205340753 M-27.2949085346312 2.5535983205340753 C-27.32134243108336 2.348582239614423, -27.347776327535513 2.14356615869477, -27.42606580718717 1.5363684145229202 M-27.2949085346312 2.5535983205340753 C-27.322128615105274 2.342484751590031, -27.349348695579348 2.131371182645987, -27.42606580718717 1.5363684145229202 M-27.42606580718717 1.5363684145229202 C-27.44622280657282 1.2224068786544022, -27.466379805958468 0.9084453427858842, -27.491779459211006 0.5128252411464846 M-27.42606580718717 1.5363684145229202 C-27.448446676362906 1.1877683115984037, -27.47082754553864 0.8391682086738872, -27.491779459211006 0.5128252411464846 M-27.491779459211006 0.5128252411464846 C-27.491779459211006 0.16842167331658292, -27.491779459211006 -0.1759818945133188, -27.491779459211006 -0.5128252411464769 M-27.491779459211006 0.5128252411464846 C-27.491779459211006 0.22833367196465476, -27.491779459211006 -0.05615789721717512, -27.491779459211006 -0.5128252411464769 M-27.491779459211006 -0.5128252411464769 C-27.47469122232471 -0.7789883240270812, -27.457602985438417 -1.0451514069076855, -27.42606580718717 -1.5363684145228982 M-27.491779459211006 -0.5128252411464769 C-27.476701847753375 -0.7476712100280091, -27.46162423629574 -0.9825171789095413, -27.42606580718717 -1.5363684145228982 M-27.42606580718717 -1.5363684145228982 C-27.378767362971434 -1.9032058077259295, -27.331468918755693 -2.270043200928961, -27.294908534631205 -2.5535983205340678 M-27.42606580718717 -1.5363684145228982 C-27.382552801513533 -1.8738466939127896, -27.339039795839895 -2.211324973302681, -27.294908534631205 -2.5535983205340678 M-27.294908534631205 -2.5535983205340678 C-27.218967696724995 -2.9435384730806766, -27.143026858818782 -3.3334786256272855, -27.098846594909176 -3.5603349433010267 M-27.294908534631205 -2.5535983205340678 C-27.235132931746993 -2.860533407766346, -27.17535732886278 -3.1674684949986234, -27.098846594909176 -3.5603349433010267 M-27.098846594909176 -3.5603349433010267 C-27.04651284646032 -3.759906207726567, -26.994179098011468 -3.9594774721521073, -26.838685648586573 -4.552441386096511 M-27.098846594909176 -3.5603349433010267 C-27.033644914918018 -3.808977207694183, -26.96844323492686 -4.057619472087339, -26.838685648586573 -4.552441386096511 M-26.838685648586573 -4.552441386096511 C-26.756586767785265 -4.799710134389784, -26.67448788698396 -5.046978882683057, -26.515494752796172 -5.525840870740911 M-26.838685648586573 -4.552441386096511 C-26.73503779967054 -4.8646121929895365, -26.631389950754503 -5.176782999882562, -26.515494752796172 -5.525840870740911 M-26.515494752796172 -5.525840870740911 C-26.43634040504388 -5.721353640034277, -26.35718605729159 -5.916866409327643, -26.130601968253 -6.476533489958299 M-26.515494752796172 -5.525840870740911 C-26.394399807002323 -5.824947728063225, -26.273304861208473 -6.124054585385538, -26.130601968253 -6.476533489958299 M-26.130601968253 -6.476533489958299 C-25.96340722026371 -6.823716961552579, -25.79621247227442 -7.170900433146859, -25.685588901968003 -7.400612643853359 M-26.130601968253 -6.476533489958299 C-26.030055382576872 -6.685320626467069, -25.92950879690075 -6.89410776297584, -25.685588901968003 -7.400612643853359 M-25.685588901968003 -7.400612643853359 C-25.492761947487452 -7.742996427380031, -25.2999349930069 -8.085380210906703, -25.182284208085537 -8.294281092968404 M-25.685588901968003 -7.400612643853359 C-25.524712357983145 -7.68626523821504, -25.363835813998282 -7.971917832576721, -25.182284208085537 -8.294281092968404 M-25.182284208085537 -8.294281092968404 C-25.048349604394954 -8.500040610714015, -24.91441500070437 -8.705800128459623, -24.622756073551294 -9.153866561954715 M-25.182284208085537 -8.294281092968404 C-25.05051667692528 -8.496711405366977, -24.918749145765023 -8.699141717765551, -24.622756073551294 -9.153866561954715 M-24.622756073551294 -9.153866561954715 C-24.47068312542536 -9.357630458312883, -24.31861017729943 -9.561394354671053, -24.00930371948848 -9.975836829739734 M-24.622756073551294 -9.153866561954715 C-24.44656905195651 -9.38994111992386, -24.270382030361723 -9.626015677893006, -24.00930371948848 -9.975836829739734 M-24.00930371948848 -9.975836829739734 C-23.792641625254056 -10.230340454049898, -23.575979531019634 -10.484844078360062, -23.344447953205055 -10.756814244181063 M-24.00930371948848 -9.975836829739734 C-23.818270476259062 -10.200235347336484, -23.627237233029646 -10.424633864933234, -23.344447953205055 -10.756814244181063 M-23.344447953205055 -10.756814244181063 C-23.117865733987067 -10.990778988269795, -22.891283514769082 -11.22474373235853, -22.63092080965579 -11.493589601563633 M-23.344447953205055 -10.756814244181063 C-23.0903755563545 -11.01916485366098, -22.836303159503945 -11.281515463140899, -22.63092080965579 -11.493589601563633 M-22.63092080965579 -11.493589601563633 C-22.417458917703318 -11.687450043942704, -22.203997025750844 -11.881310486321775, -21.871654324924627 -12.18313533390614 M-22.63092080965579 -11.493589601563633 C-22.334814454603684 -11.762505558677121, -22.03870809955158 -12.03142151579061, -21.871654324924627 -12.18313533390614 M-21.871654324924627 -12.18313533390614 C-21.56053301259201 -12.431246301205574, -21.249411700259394 -12.679357268505008, -21.069768487859463 -12.822617949887302 M-21.871654324924627 -12.18313533390614 C-21.67033477182733 -12.343682320162932, -21.469015218730036 -12.504229306419726, -21.069768487859463 -12.822617949887302 M-21.069768487859463 -12.822617949887302 C-20.81221075520595 -13.002279074691845, -20.554653022552433 -13.181940199496388, -20.228558419368788 -13.409409678269444 M-21.069768487859463 -12.822617949887302 C-20.887859809564855 -12.949509569165857, -20.705951131270243 -13.076401188444411, -20.228558419368788 -13.409409678269444 M-20.228558419368788 -13.409409678269444 C-20.0109210180642 -13.54134274991962, -19.79328361675961 -13.673275821569797, -19.351480832063007 -13.941099265974229 M-20.228558419368788 -13.409409678269444 C-19.944416856409283 -13.581657963536665, -19.660275293449782 -13.753906248803885, -19.351480832063007 -13.941099265974229 M-19.351480832063007 -13.941099265974229 C-19.054458887158884 -14.096055424379074, -18.757436942254763 -14.25101158278392, -18.442139825880936 -14.415501886438705 M-19.351480832063007 -13.941099265974229 C-19.097466769513012 -14.07361823970279, -18.843452706963014 -14.20613721343135, -18.442139825880936 -14.415501886438705 M-18.442139825880936 -14.415501886438705 C-18.088638079406195 -14.57198662334634, -17.735136332931454 -14.728471360253975, -17.504272078069995 -14.830668117536344 M-18.442139825880936 -14.415501886438705 C-18.208943995941635 -14.518730762844317, -17.97574816600233 -14.621959639249932, -17.504272078069995 -14.830668117536344 M-17.504272078069995 -14.830668117536344 C-17.227383317237035 -14.932565741054521, -16.950494556404074 -15.034463364572698, -16.54173148837794 -15.184891952170695 M-17.504272078069995 -14.830668117536344 C-17.22906014510256 -14.93194865289958, -16.953848212135128 -15.033229188262816, -16.54173148837794 -15.184891952170695 M-16.54173148837794 -15.184891952170695 C-16.14956568060181 -15.301284705398318, -15.757399872825681 -15.417677458625942, -15.558473342552134 -15.476717808624466 M-16.54173148837794 -15.184891952170695 C-16.245774238638447 -15.272730510382072, -15.94981698889895 -15.360569068593449, -15.558473342552134 -15.476717808624466 M-15.558473342552134 -15.476717808624466 C-15.15928090126906 -15.5678308783732, -14.760088459985989 -15.658943948121935, -14.558538059221963 -15.704946511857043 M-15.558473342552134 -15.476717808624466 C-15.308929739474214 -15.533674507602807, -15.059386136396293 -15.590631206581149, -14.558538059221963 -15.704946511857043 M-14.558538059221963 -15.704946511857043 C-14.170150056323138 -15.76773807217178, -13.78176205342431 -15.830529632486515, -13.546034586952107 -15.868640221171937 M-14.558538059221963 -15.704946511857043 C-14.32235989021924 -15.743129966632349, -14.086181721216516 -15.781313421407654, -13.546034586952107 -15.868640221171937 M-13.546034586952107 -15.868640221171937 C-13.203086402840745 -15.901724020037625, -12.860138218729382 -15.934807818903312, -12.525123519691407 -15.967126284005381 M-13.546034586952107 -15.868640221171937 C-13.206347635152927 -15.901409412878674, -12.866660683353746 -15.93417860458541, -12.525123519691407 -15.967126284005381 M-12.525123519691407 -15.967126284005381 C-12.263770145321228 -15.97550737802795, -12.002416770951047 -15.98388847205052, -11.500000000000005 -16 M-12.525123519691407 -15.967126284005381 C-12.188474088779307 -15.977921976006368, -11.851824657867205 -15.988717668007352, -11.500000000000005 -16 M-11.500000000000005 -16 C-11.500000000000004 -16, -11.500000000000002 -16, -11.5 -16 M-11.500000000000005 -16 C-11.500000000000004 -16, -11.500000000000002 -16, -11.5 -16" stroke="#999" stroke-width="1.3" fill="none" stroke-dasharray="0 0" style=""/></g><g class="label" style="" transform="translate(0, -8.5)"><rect/><g><rect class="background" style="stroke: none"/><text y="-10.1" style=""><tspan class="text-outer-tspan row" x="0" y="-0.1em" dy="1.1em"><tspan font-style="normal" class="text-inner-tspan" font-weight="normal">开始</tspan></tspan></text></g></g></g><g class="node default" id="my-svg-flowchart-Request-1" data-look="classic" transform="translate(681.7890625, 113.5)"><rect class="basic label-container" style="" x="-86.08203125" y="-23.5" width="172.1640625" height="47"/><g class="label" style="" transform="translate(0, -8.5)"><rect/><g><rect class="background" style="stroke: none"/><text y="-10.1" style=""><tspan class="text-outer-tspan row" x="0" y="-0.1em" dy="1.1em"><tspan font-style="normal" class="text-inner-tspan" font-weight="normal">请求</tspan><tspan font-style="normal" class="text-inner-tspan" font-weight="normal"> DeepSeek</tspan></tspan></text></g></g></g><g class="node default" id="my-svg-flowchart-Check-3" data-look="classic" transform="translate(681.7890625, 266.5)"><polygon points="79.5,0 159,-79.5 79.5,-159 0,-79.5" class="label-container" transform="translate(-79, 79.5)"/><g class="label" style="" transform="translate(0, -8.5)"><rect/><g><rect class="background" style="stroke: none"/><text y="-10.1" style=""><tspan class="text-outer-tspan row" x="0" y="-0.1em" dy="1.1em"><tspan font-style="normal" class="text-inner-tspan" font-weight="normal">返回什么信号？</tspan></tspan></text></g></g></g><g class="node default" id="my-svg-flowchart-Done-5" data-look="classic" transform="translate(110, 488.5)"><rect class="basic label-container" style="" x="-102" y="-32.29999923706055" width="204" height="64.5999984741211"/><g class="label" style="" transform="translate(0, -17.299999237060547)"><rect/><g><rect class="background" style="stroke: none"/><text y="-10.1" style=""><tspan class="text-outer-tspan row" x="0" y="-0.1em" dy="1.1em"><tspan font-style="normal" class="text-inner-tspan" font-weight="normal">回到</tspan><tspan font-style="normal" class="text-inner-tspan" font-weight="normal"> Agent</tspan><tspan font-style="normal" class="text-inner-tspan" font-weight="normal"> Loop</tspan></tspan><tspan class="text-outer-tspan row" x="0" y="1em" dy="1.1em"><tspan font-style="normal" class="text-inner-tspan" font-weight="normal">执行工具或输出答案</tspan></tspan></text></g></g></g><g class="node default" id="my-svg-flowchart-L1-7" data-look="classic" transform="translate(333.5, 488.5)"><polygon points="71.5,0 143,-71.5 71.5,-143 0,-71.5" class="label-container" transform="translate(-71, 71.5)"/><g class="label" style="" transform="translate(0, -8.5)"><rect/><g><rect class="background" style="stroke: none"/><text y="-10.1" style=""><tspan class="text-outer-tspan row" x="0" y="-0.1em" dy="1.1em"><tspan font-style="normal" class="text-inner-tspan" font-weight="normal">第一次截断？</tspan></tspan></text></g></g></g><g class="node default" id="my-svg-flowchart-L2-9" data-look="classic" transform="translate(221.75, 710.5)"><rect class="basic label-container" style="" x="-118.9140625" y="-32.29999923706055" width="237.828125" height="64.5999984741211"/><g class="label" style="" transform="translate(0, -17.299999237060547)"><rect/><g><rect class="background" style="stroke: none"/><text y="-10.1" style=""><tspan class="text-outer-tspan row" x="0" y="-0.1em" dy="1.1em"><tspan font-style="normal" class="text-inner-tspan" font-weight="normal">扩大输出上限</tspan></tspan><tspan class="text-outer-tspan row" x="0" y="1em" dy="1.1em"><tspan font-style="normal" class="text-inner-tspan" font-weight="normal">用原</tspan><tspan font-style="normal" class="text-inner-tspan" font-weight="normal"> messages</tspan><tspan font-style="normal" class="text-inner-tspan" font-weight="normal"> 重新请求</tspan></tspan></text></g></g></g><g class="node default" id="my-svg-flowchart-L3-11" data-look="classic" transform="translate(470.1640625, 710.5)"><polygon points="79.5,0 159,-79.5 79.5,-159 0,-79.5" class="label-container" transform="translate(-79, 79.5)"/><g class="label" style="" transform="translate(0, -8.5)"><rect/><g><rect class="background" style="stroke: none"/><text y="-10.1" style=""><tspan class="text-outer-tspan row" x="0" y="-0.1em" dy="1.1em"><tspan font-style="normal" class="text-inner-tspan" font-weight="normal">工具调用完整？</tspan></tspan></text></g></g></g><g class="node default" id="my-svg-flowchart-Stop-13" data-look="classic" transform="translate(686.4140625, 1164.099998474121)"><rect class="basic label-container" style="" x="-62" y="-23.5" width="124" height="47"/><g class="label" style="" transform="translate(0, -8.5)"><rect/><g><rect class="background" style="stroke: none"/><text y="-10.1" style=""><tspan class="text-outer-tspan row" x="0" y="-0.1em" dy="1.1em"><tspan font-style="normal" class="text-inner-tspan" font-weight="normal">明确停止</tspan></tspan></text></g></g></g><g class="node default" id="my-svg-flowchart-L4-15" data-look="classic" transform="translate(540.4140625, 956.5)"><polygon points="95.5,0 191,-95.5 95.5,-191 0,-95.5" class="label-container" transform="translate(-95, 95.5)"/><g class="label" style="" transform="translate(0, -8.5)"><rect/><g><rect class="background" style="stroke: none"/><text y="-10.1" style=""><tspan class="text-outer-tspan row" x="0" y="-0.1em" dy="1.1em"><tspan font-style="normal" class="text-inner-tspan" font-weight="normal">续写次数还没用完？</tspan></tspan></text></g></g></g><g class="node default" id="my-svg-flowchart-L5-17" data-look="classic" transform="translate(170.0390625, 1164.099998474121)"><rect class="basic label-container" style="" x="-78" y="-41.099998474121094" width="156" height="82.19999694824219"/><g class="label" style="" transform="translate(0, -26.099998474121094)"><rect/><g><rect class="background" style="stroke: none"/><text y="-10.1" style=""><tspan class="text-outer-tspan row" x="0" y="-0.1em" dy="1.1em"><tspan font-style="normal" class="text-inner-tspan" font-weight="normal">保存文本片段</tspan></tspan><tspan class="text-outer-tspan row" x="0" y="1em" dy="1.1em"><tspan font-style="normal" class="text-inner-tspan" font-weight="normal">追加续写提示</tspan></tspan><tspan class="text-outer-tspan row" x="0" y="2.1em" dy="1.1em"><tspan font-style="normal" class="text-inner-tspan" font-weight="normal">重新请求</tspan></tspan></text></g></g></g><g class="node default" id="my-svg-flowchart-C1-21" data-look="classic" transform="translate(770.2890625, 956.5)"><polygon points="71.5,0 143,-71.5 71.5,-143 0,-71.5" class="label-container" transform="translate(-71, 71.5)"/><g class="label" style="" transform="translate(0, -8.5)"><rect/><g><rect class="background" style="stroke: none"/><text y="-10.1" style=""><tspan class="text-outer-tspan row" x="0" y="-0.1em" dy="1.1em"><tspan font-style="normal" class="text-inner-tspan" font-weight="normal">已经压缩过？</tspan></tspan></text></g></g></g><g class="node default" id="my-svg-flowchart-C2-23" data-look="classic" transform="translate(388.7890625, 1164.099998474121)"><rect class="basic label-container" style="" x="-90.75" y="-32.29999923706055" width="181.5" height="64.5999984741211"/><g class="label" style="" transform="translate(0, -17.299999237060547)"><rect/><g><rect class="background" style="stroke: none"/><text y="-10.1" style=""><tspan class="text-outer-tspan row" x="0" y="-0.1em" dy="1.1em"><tspan font-style="normal" class="text-inner-tspan" font-weight="normal">reactive</tspan><tspan font-style="normal" class="text-inner-tspan" font-weight="normal"> compact</tspan></tspan><tspan class="text-outer-tspan row" x="0" y="1em" dy="1.1em"><tspan font-style="normal" class="text-inner-tspan" font-weight="normal">重新请求</tspan></tspan></text></g></g></g><g class="node default" id="my-svg-flowchart-R1-27" data-look="classic" transform="translate(1001.7890625, 956.5)"><polygon points="95.5,0 191,-95.5 95.5,-191 0,-95.5" class="label-container" transform="translate(-95, 95.5)"/><g class="label" style="" transform="translate(0, -8.5)"><rect/><g><rect class="background" style="stroke: none"/><text y="-10.1" style=""><tspan class="text-outer-tspan row" x="0" y="-0.1em" dy="1.1em"><tspan font-style="normal" class="text-inner-tspan" font-weight="normal">重试次数还没用完？</tspan></tspan></text></g></g></g><g class="node default" id="my-svg-flowchart-R2-29" data-look="classic" transform="translate(1067.0390625, 1164.099998474121)"><rect class="basic label-container" style="" x="-94" y="-41.099998474121094" width="188" height="82.19999694824219"/><g class="label" style="" transform="translate(0, -26.099998474121094)"><rect/><g><rect class="background" style="stroke: none"/><text y="-10.1" style=""><tspan class="text-outer-tspan row" x="0" y="-0.1em" dy="1.1em"><tspan font-style="normal" class="text-inner-tspan" font-weight="normal">等待</tspan><tspan font-style="normal" class="text-inner-tspan" font-weight="normal"> +</tspan><tspan font-style="normal" class="text-inner-tspan" font-weight="normal"> 抖动</tspan></tspan><tspan class="text-outer-tspan row" x="0" y="1em" dy="1.1em"><tspan font-style="normal" class="text-inner-tspan" font-weight="normal">必要时切备用模型</tspan></tspan><tspan class="text-outer-tspan row" x="0" y="2.1em" dy="1.1em"><tspan font-style="normal" class="text-inner-tspan" font-weight="normal">重新请求</tspan></tspan></text></g></g></g></g></g></g><defs><filter id="my-svg-drop-shadow" height="130%" width="130%"><feDropShadow dx="4" dy="4" stdDeviation="0" flood-opacity="0.06" flood-color="#000000"/></filter></defs><defs><filter id="my-svg-drop-shadow-small" height="150%" width="150%"><feDropShadow dx="2" dy="2" stdDeviation="0" flood-opacity="0.06" flood-color="#000000"/></filter></defs><linearGradient id="my-svg-gradient" gradientUnits="objectBoundingBox" x1="0%" y1="0%" x2="100%" y2="0%"><stop offset="0%" stop-color="hsl(0, 0%, 83.3333333333%)" stop-opacity="1"/><stop offset="100%" stop-color="hsl(0, 0%, 88.9215686275%)" stop-opacity="1"/></linearGradient></svg>