<svg width="1174.2890625" height="1213.199951171875" id="my-svg" xmlns="http://www.w3.org/2000/svg" xmlns:xlink="http://www.w3.org/1999/xlink" class="flowchart" style="max-width: 1174.29px; background-color: white;" viewBox="0 0 1174.2890625 1213.199951171875" role="graphics-document document" aria-roledescription="flowchart-v2"><style>#my-svg{font-family:"trebuchet ms",verdana,arial,sans-serif;font-size:16px;fill:#000000;}@keyframes edge-animation-frame{from{stroke-dashoffset:0;}}@keyframes dash{to{stroke-dashoffset:0;}}#my-svg .edge-animation-slow{stroke-dasharray:9,5!important;stroke-dashoffset:900;animation:dash 50s linear infinite;stroke-linecap:round;}#my-svg .edge-animation-fast{stroke-dasharray:9,5!important;stroke-dashoffset:900;animation:dash 20s linear infinite;stroke-linecap:round;}#my-svg .error-icon{fill:#552222;}#my-svg .error-text{fill:#552222;stroke:#552222;}#my-svg .edge-thickness-normal{stroke-width:1px;}#my-svg .edge-thickness-thick{stroke-width:3.5px;}#my-svg .edge-pattern-solid{stroke-dasharray:0;}#my-svg .edge-thickness-invisible{stroke-width:0;fill:none;}#my-svg .edge-pattern-dashed{stroke-dasharray:3;}#my-svg .edge-pattern-dotted{stroke-dasharray:2;}#my-svg .marker{fill:#666;stroke:#666;}#my-svg .marker.cross{stroke:#666;}#my-svg svg{font-family:"trebuchet ms",verdana,arial,sans-serif;font-size:16px;}#my-svg p{margin:0;}#my-svg .label{font-family:"trebuchet ms",verdana,arial,sans-serif;color:#000000;}#my-svg .cluster-label text{fill:#333;}#my-svg .cluster-label span{color:#333;}#my-svg .cluster-label span p{background-color:transparent;}#my-svg .label text,#my-svg span{fill:#000000;color:#000000;}#my-svg .node rect,#my-svg .node circle,#my-svg .node ellipse,#my-svg .node polygon,#my-svg .node path{fill:#eee;stroke:#999;stroke-width:1px;}#my-svg .rough-node .label text,#my-svg .node .label text,#my-svg .image-shape .label,#my-svg .icon-shape .label{text-anchor:middle;}#my-svg .node .katex path{fill:#000;stroke:#000;stroke-width:1px;}#my-svg .rough-node .label,#my-svg .node .label,#my-svg .image-shape .label,#my-svg .icon-shape .label{text-align:center;}#my-svg .node.clickable{cursor:pointer;}#my-svg .root .anchor path{fill:#666!important;stroke-width:0;stroke:#666;}#my-svg .arrowheadPath{fill:#333333;}#my-svg .edgePath .path{stroke:#666;stroke-width:1px;}#my-svg .flowchart-link{stroke:#666;fill:none;}#my-svg .edgeLabel{background-color:white;text-align:center;}#my-svg .edgeLabel p{background-color:white;}#my-svg .edgeLabel rect{opacity:0.5;background-color:white;fill:white;}#my-svg .labelBkg{background-color:rgba(255, 255, 255, 0.5);}#my-svg .cluster rect{fill:hsl(0, 0%, 98.9215686275%);stroke:#707070;stroke-width:1px;}#my-svg .cluster text{fill:#333;}#my-svg .cluster span{color:#333;}#my-svg div.mermaidTooltip{position:absolute;text-align:center;max-width:200px;padding:2px;font-family:"trebuchet ms",verdana,arial,sans-serif;font-size:12px;background:hsl(-160, 0%, 93.3333333333%);border:1px solid #707070;border-radius:2px;pointer-events:none;z-index:100;}#my-svg .flowchartTitleText{text-anchor:middle;font-size:18px;fill:#000000;}#my-svg rect.text{fill:none;stroke-width:0;}#my-svg .icon-shape,#my-svg .image-shape{background-color:white;text-align:center;}#my-svg .icon-shape p,#my-svg .image-shape p{background-color:white;padding:2px;}#my-svg .icon-shape .label rect,#my-svg .image-shape .label rect{opacity:0.5;background-color:white;fill:white;}#my-svg .label-icon{display:inline-block;height:1em;overflow:visible;vertical-align:-0.125em;}#my-svg .node .label-icon path{fill:currentColor;stroke:revert;stroke-width:revert;}#my-svg .node .neo-node{stroke:#999;}#my-svg [data-look="neo"].node rect,#my-svg [data-look="neo"].cluster rect,#my-svg [data-look="neo"].node polygon{stroke:url(#my-svg-gradient);filter:drop-shadow( 1px 2px 2px rgba(185,185,185,1));}#my-svg [data-look="neo"].swimlane.cluster rect{filter:none;}#my-svg [data-look="neo"].node path{stroke:url(#my-svg-gradient);stroke-width:1px;}#my-svg [data-look="neo"].node .outer-path{filter:drop-shadow( 1px 2px 2px rgba(185,185,185,1));}#my-svg [data-look="neo"].node .neo-line path{stroke:#999;filter:none;}#my-svg [data-look="neo"].node circle{stroke:url(#my-svg-gradient);filter:drop-shadow( 1px 2px 2px rgba(185,185,185,1));}#my-svg [data-look="neo"].node circle .state-start{fill:#000000;}#my-svg [data-look="neo"].icon-shape .icon{fill:url(#my-svg-gradient);filter:drop-shadow( 1px 2px 2px rgba(185,185,185,1));}#my-svg [data-look="neo"].icon-shape .icon-neo path{stroke:url(#my-svg-gradient);filter:drop-shadow( 1px 2px 2px rgba(185,185,185,1));}#my-svg :root{--mermaid-font-family:"trebuchet ms",verdana,arial,sans-serif;}</style><g><marker id="my-svg_flowchart-v2-pointEnd" class="marker flowchart-v2" viewBox="0 0 10 10" refX="5" refY="5" markerUnits="userSpaceOnUse" markerWidth="8" markerHeight="8" orient="auto"><path d="M 0 0 L 10 5 L 0 10 z" class="arrowMarkerPath" style="stroke-width: 1; stroke-dasharray: 1, 0;"/></marker><marker id="my-svg_flowchart-v2-pointStart" class="marker flowchart-v2" viewBox="0 0 10 10" refX="4.5" refY="5" markerUnits="userSpaceOnUse" markerWidth="8" markerHeight="8" orient="auto"><path d="M 0 5 L 10 10 L 10 0 z" class="arrowMarkerPath" style="stroke-width: 1; stroke-dasharray: 1, 0;"/></marker><marker id="my-svg_flowchart-v2-pointEnd-margin" class="marker flowchart-v2" viewBox="0 0 11.5 14" refX="11.5" refY="7" markerUnits="userSpaceOnUse" markerWidth="10.5" markerHeight="14" orient="auto"><path d="M 0 0 L 11.5 7 L 0 14 z" class="arrowMarkerPath" style="stroke-width: 0; stroke-dasharray: 1, 0;"/></marker><marker id="my-svg_flowchart-v2-pointStart-margin" class="marker flowchart-v2" viewBox="0 0 11.5 14" refX="1" refY="7" markerUnits="userSpaceOnUse" markerWidth="11.5" markerHeight="14" orient="auto"><polygon points="0,7 11.5,14 11.5,0" class="arrowMarkerPath" style="stroke-width: 0; stroke-dasharray: 1, 0;"/></marker><marker id="my-svg_flowchart-v2-circleEnd" class="marker flowchart-v2" viewBox="0 0 10 10" refX="11" refY="5" markerUnits="userSpaceOnUse" markerWidth="11" markerHeight="11" orient="auto"><circle cx="5" cy="5" r="5" class="arrowMarkerPath" style="stroke-width: 1; stroke-dasharray: 1, 0;"/></marker><marker id="my-svg_flowchart-v2-circleStart" class="marker flowchart-v2" viewBox="0 0 10 10" refX="-1" refY="5" markerUnits="userSpaceOnUse" markerWidth="11" markerHeight="11" orient="auto"><circle cx="5" cy="5" r="5" class="arrowMarkerPath" style="stroke-width: 1; stroke-dasharray: 1, 0;"/></marker><marker id="my-svg_flowchart-v2-circleEnd-margin" class="marker flowchart-v2" viewBox="0 0 10 10" refY="5" refX="12.25" markerUnits="userSpaceOnUse" markerWidth="14" markerHeight="14" orient="auto"><circle cx="5" cy="5" r="5" class="arrowMarkerPath" style="stroke-width: 0; stroke-dasharray: 1, 0;"/></marker><marker id="my-svg_flowchart-v2-circleStart-margin" class="marker flowchart-v2" viewBox="0 0 10 10" refX="-2" refY="5" markerUnits="userSpaceOnUse" markerWidth="14" markerHeight="14" orient="auto"><circle cx="5" cy="5" r="5" class="arrowMarkerPath" style="stroke-width: 0; stroke-dasharray: 1, 0;"/></marker><marker id="my-svg_flowchart-v2-crossEnd" class="marker cross flowchart-v2" viewBox="0 0 11 11" refX="12" refY="5.2" markerUnits="userSpaceOnUse" markerWidth="11" markerHeight="11" orient="auto"><path d="M 1,1 l 9,9 M 10,1 l -9,9" class="arrowMarkerPath" style="stroke-width: 2; stroke-dasharray: 1, 0;"/></marker><marker id="my-svg_flowchart-v2-crossStart" class="marker cross flowchart-v2" viewBox="0 0 11 11" refX="-1" refY="5.2" markerUnits="userSpaceOnUse" markerWidth="11" markerHeight="11" orient="auto"><path d="M 1,1 l 9,9 M 10,1 l -9,9" class="arrowMarkerPath" style="stroke-width: 2; stroke-dasharray: 1, 0;"/></marker><marker id="my-svg_flowchart-v2-crossEnd-margin" class="marker cross flowchart-v2" viewBox="0 0 15 15" refX="17.7" refY="7.5" markerUnits="userSpaceOnUse" markerWidth="12" markerHeight="12" orient="auto"><path d="M 1,1 L 14,14 M 1,14 L 14,1" class="arrowMarkerPath" style="stroke-width: 2.5;"/></marker><marker id="my-svg_flowchart-v2-crossStart-margin" class="marker cross flowchart-v2" viewBox="0 0 15 15" refX="-3.5" refY="7.5" markerUnits="userSpaceOnUse" markerWidth="12" markerHeight="12" orient="auto"><path d="M 1,1 L 14,14 M 1,14 L 14,1" class="arrowMarkerPath" style="stroke-width: 2.5; stroke-dasharray: 1, 0;"/></marker><g class="root"><g class="clusters"/><g class="edgePaths"><path d="M682.289,40.5L682.206,44.583C682.122,48.667,681.956,56.833,681.872,64.417C681.789,72,681.789,79,681.789,82.5L681.789,86" id="my-svg-L_Start_Request_0" class="edge-thickness-normal edge-pattern-solid edge-thickness-normal edge-pattern-solid flowchart-link" style=";" data-edge="true" data-et="edge" data-id="L_Start_Request_0" data-points="W3sieCI6NjgyLjI4OTA2MjUsInkiOjQwLjV9LHsieCI6NjgxLjc4OTA2MjUsInkiOjY1fSx7IngiOjY4MS43ODkwNjI1LCJ5Ijo5MH1d" data-look="classic" marker-end="url(#my-svg_flowchart-v2-pointEnd)"/><path d="M681.789,137L681.789,141.167C681.789,145.333,681.789,153.667,681.789,161.333C681.789,169,681.789,176,681.789,179.5L681.789,183" id="my-svg-L_Request_Check_0" class="edge-thickness-normal edge-pattern-solid edge-thickness-normal edge-pattern-solid flowchart-link" style=";" data-edge="true" data-et="edge" data-id="L_Request_Check_0" data-points="W3sieCI6NjgxLjc4OTA2MjUsInkiOjEzN30seyJ4Ijo2ODEuNzg5MDYyNSwieSI6MTYyfSx7IngiOjY4MS43ODkwNjI1LCJ5IjoxODd9XQ==" data-look="classic" marker-end="url(#my-svg_flowchart-v2-pointEnd)"/><path d="M615.601,279.812L531.334,296.76C447.067,313.708,278.534,347.604,194.267,376.335C110,405.067,110,428.633,110,440.417L110,452.2" id="my-svg-L_Check_Done_0" class="edge-thickness-normal edge-pattern-solid edge-thickness-normal edge-pattern-solid flowchart-link" style=";" data-edge="true" data-et="edge" data-id="L_Check_Done_0" data-points="W3sieCI6NjE1LjYwMTAxMDA4MjE1ODgsInkiOjI3OS44MTE5NDc1ODIxNTg4NH0seyJ4IjoxMTAsInkiOjM4MS41fSx7IngiOjExMCwieSI6NDU2LjIwMDAwMDc2MjkzOTQ1fV0=" data-look="classic" marker-end="url(#my-svg_flowchart-v2-pointEnd)"/><path d="M622.023,286.234L573.936,302.112C525.849,317.989,429.674,349.745,381.587,370.872C333.5,392,333.5,402.5,333.5,407.75L333.5,413" id="my-svg-L_Check_L1_0" class="edge-thickness-normal edge-pattern-solid edge-thickness-normal edge-pattern-solid flowchart-link" style=";" data-edge="true" data-et="edge" data-id="L_Check_L1_0" data-points="W3sieCI6NjIyLjAyMjk2MjQzNDIzMzgsInkiOjI4Ni4yMzM4OTk5MzQyMzM4fSx7IngiOjMzMy41LCJ5IjozODEuNX0seyJ4IjozMzMuNSwieSI6NDE3fV0=" data-look="classic" marker-end="url(#my-svg_flowchart-v2-pointEnd)"/><path d="M296.974,523.474L284.436,535.478C271.899,547.482,246.825,571.491,234.287,596.612C221.75,621.733,221.75,647.967,221.75,661.083L221.75,674.2" id="my-svg-L_L1_L2_0" class="edge-thickness-normal edge-pattern-solid edge-thickness-normal edge-pattern-solid flowchart-link" style=";" data-edge="true" data-et="edge" data-id="L_L1_L2_0" data-points="W3sieCI6Mjk2Ljk3MzcxNDI4NTcxNDI3LCJ5Ijo1MjMuNDczNzE0Mjg1NzE0M30seyJ4IjoyMjEuNzUsInkiOjU5NS41fSx7IngiOjIyMS43NSwieSI6Njc4LjIwMDAwMDc2MjkzOTV9XQ==" data-look="classic" marker-end="url(#my-svg_flowchart-v2-pointEnd)"/><path d="M373.602,519.898L389.696,532.498C405.79,545.098,437.977,570.299,454.07,588.15C470.164,606,470.164,616.5,470.164,621.75L470.164,627" id="my-svg-L_L1_L3_0" class="edge-thickness-normal edge-pattern-solid edge-thickness-normal edge-pattern-solid flowchart-link" style=";" data-edge="true" data-et="edge" data-id="L_L1_L3_0" data-points="W3sieCI6MzczLjYwMjI2MzYxODU4MzUsInkiOjUxOS44OTc3MzYzODE0MTY1fSx7IngiOjQ3MC4xNjQwNjI1LCJ5Ijo1OTUuNX0seyJ4Ijo0NzAuMTY0MDYyNSwieSI6NjMxfV0=" data-look="classic" marker-end="url(#my-svg_flowchart-v2-pointEnd)"/><path d="M432.339,752.175L421.248,764.396C410.156,776.617,387.972,801.058,376.881,835.113C365.789,869.167,365.789,912.833,365.789,956.5C365.789,1000.167,365.789,1043.833,408.245,1075.81C450.701,1107.786,535.612,1128.072,578.068,1138.215L620.524,1148.358" id="my-svg-L_L3_Stop_0" class="edge-thickness-normal edge-pattern-solid edge-thickness-normal edge-pattern-solid flowchart-link" style=";" data-edge="true" data-et="edge" data-id="L_L3_Stop_0" data-points="W3sieCI6NDMyLjMzOTI3NjE3NTIxMzcsInkiOjc1Mi4xNzUyMTM2NzUyMTM2fSx7IngiOjM2NS43ODkwNjI1LCJ5Ijo4MjUuNX0seyJ4IjozNjUuNzg5MDYyNSwieSI6OTU2LjV9LHsieCI6MzY1Ljc4OTA2MjUsInkiOjEwODcuNX0seyJ4Ijo2MjQuNDE0MDYyNSwieSI6MTE0OS4yODc2NzkwODEwNzQ3fV0=" data-look="classic" marker-end="url(#my-svg_flowchart-v2-pointEnd)"/><path d="M500.312,759.852L506.996,770.794C513.679,781.735,527.047,803.617,533.73,819.809C540.414,836,540.414,846.5,540.414,851.75L540.414,857" id="my-svg-L_L3_L4_0" class="edge-thickness-normal edge-pattern-solid edge-thickness-normal edge-pattern-solid flowchart-link" style=";" data-edge="true" data-et="edge" data-id="L_L3_L4_0" data-points="W3sieCI6NTAwLjMxMTgzNTc3OTM1MjI0LCJ5Ijo3NTkuODUyMjI2NzIwNjQ3OH0seyJ4Ijo1NDAuNDE0MDYyNSwieSI6ODI1LjV9LHsieCI6NTQwLjQxNDA2MjUsInkiOjg2MX1d" data-look="classic" marker-end="url(#my-svg_flowchart-v2-pointEnd)"/><path d="M501.683,1013.269L493.243,1025.641C484.802,1038.013,467.92,1062.756,426.29,1084.176C384.659,1105.595,318.279,1123.69,285.088,1132.738L251.898,1141.785" id="my-svg-L_L4_L5_0" class="edge-thickness-normal edge-pattern-solid edge-thickness-normal edge-pattern-solid flowchart-link" style=";" data-edge="true" data-et="edge" data-id="L_L4_L5_0" data-points="W3sieCI6NTAxLjY4MzIwNjAwNTM4ODU3LCJ5IjoxMDEzLjI2OTE0MzUwNTM4ODZ9LHsieCI6NDUxLjAzOTA2MjUsInkiOjEwODcuNX0seyJ4IjoyNDguMDM5MDYyNSwieSI6MTE0Mi44MzczNjU0NDU3MTczfV0=" data-look="classic" marker-end="url(#my-svg_flowchart-v2-pointEnd)"/><path d="M578.919,1013.495L587.251,1025.83C595.584,1038.164,612.249,1062.832,626.825,1083.483C641.4,1104.134,653.886,1120.767,660.129,1129.084L666.372,1137.401" id="my-svg-L_L4_Stop_0" class="edge-thickness-normal edge-pattern-solid edge-thickness-normal edge-pattern-solid flowchart-link" style=";" data-edge="true" data-et="edge" data-id="L_L4_Stop_0" data-points="W3sieCI6NTc4LjkxODYxODMwODY1NiwieSI6MTAxMy40OTU0NDQxOTEzNDR9LHsieCI6NjI4LjkxNDA2MjUsInkiOjEwODcuNX0seyJ4Ijo2NjguNzczNzIyNzIzMDE1MywieSI6MTE0MC41OTk5OTg0NzQxMjF9XQ==" data-look="classic" marker-end="url(#my-svg_flowchart-v2-pointEnd)"/><path d="M716.363,311.426L725.35,323.105C734.338,334.784,752.314,358.142,761.301,387.654C770.289,417.167,770.289,452.833,770.289,488.5C770.289,524.167,770.289,559.833,770.289,596.833C770.289,633.833,770.289,672.167,770.289,710.5C770.289,748.833,770.289,787.167,770.289,815.583C770.289,844,770.289,862.5,770.289,871.75L770.289,881" id="my-svg-L_Check_C1_0" class="edge-thickness-normal edge-pattern-solid edge-thickness-normal edge-pattern-solid flowchart-link" style=";" data-edge="true" data-et="edge" data-id="L_Check_C1_0" data-points="W3sieCI6NzE2LjM2Mjc3MjU3MzcxMDEsInkiOjMxMS40MjYyODk5MjYyODk5NH0seyJ4Ijo3NzAuMjg5MDYyNSwieSI6MzgxLjV9LHsieCI6NzcwLjI4OTA2MjUsInkiOjQ4OC41fSx7IngiOjc3MC4yODkwNjI1LCJ5Ijo1OTUuNX0seyJ4Ijo3NzAuMjg5MDYyNSwieSI6NzEwLjV9LHsieCI6NzcwLjI4OTA2MjUsInkiOjgyNS41fSx7IngiOjc3MC4yODkwNjI1LCJ5Ijo4ODV9XQ==" data-look="classic" marker-end="url(#my-svg_flowchart-v2-pointEnd)"/><path d="M739.097,996.808L727.4,1011.923C715.703,1027.038,692.308,1057.269,649.692,1080.84C607.075,1104.41,545.236,1121.32,514.317,1129.775L483.397,1138.229" id="my-svg-L_C1_C2_0" class="edge-thickness-normal edge-pattern-solid edge-thickness-normal edge-pattern-solid flowchart-link" style=";" data-edge="true" data-et="edge" data-id="L_C1_C2_0" data-points="W3sieCI6NzM5LjA5Njc1NDgwNzY5MjMsInkiOjk5Ni44MDc2OTIzMDc2OTIzfSx7IngiOjY2OC45MTQwNjI1LCJ5IjoxMDg3LjV9LHsieCI6NDc5LjUzOTA2MjUsInkiOjExMzkuMjg0NDcwMTg2NjU0N31d" data-look="classic" marker-end="url(#my-svg_flowchart-v2-pointEnd)"/><path d="M799.117,999.172L809.062,1013.893C819.008,1028.615,838.898,1058.057,829.538,1081.358C820.177,1104.659,781.564,1121.817,762.258,1130.396L742.952,1138.976" id="my-svg-L_C1_Stop_0" class="edge-thickness-normal edge-pattern-solid edge-thickness-normal edge-pattern-solid flowchart-link" style=";" data-edge="true" data-et="edge" data-id="L_C1_Stop_0" data-points="W3sieCI6Nzk5LjExNzA4MDcyMzIzNDYsInkiOjk5OS4xNzE5ODE3NzY3NjU0fSx7IngiOjg1OC43ODkwNjI1LCJ5IjoxMDg3LjV9LHsieCI6NzM5LjI5NjczMzI2NjIyMTMsInkiOjExNDAuNTk5OTk4NDc0MTIxfV0=" data-look="classic" marker-end="url(#my-svg_flowchart-v2-pointEnd)"/><path d="M740.272,287.517L783.858,303.181C827.444,318.845,914.617,350.172,958.203,383.67C1001.789,417.167,1001.789,452.833,1001.789,488.5C1001.789,524.167,1001.789,559.833,1001.789,596.833C1001.789,633.833,1001.789,672.167,1001.789,710.5C1001.789,748.833,1001.789,787.167,1001.789,811.583C1001.789,836,1001.789,846.5,1001.789,851.75L1001.789,857" id="my-svg-L_Check_R1_0" class="edge-thickness-normal edge-pattern-solid edge-thickness-normal edge-pattern-solid flowchart-link" style=";" data-edge="true" data-et="edge" data-id="L_Check_R1_0" data-points="W3sieCI6NzQwLjI3MTgyMTEyMDY4OTcsInkiOjI4Ny41MTcyNDEzNzkzMTAzNX0seyJ4IjoxMDAxLjc4OTA2MjUsInkiOjM4MS41fSx7IngiOjEwMDEuNzg5MDYyNSwieSI6NDg4LjV9LHsieCI6MTAwMS43ODkwNjI1LCJ5Ijo1OTUuNX0seyJ4IjoxMDAxLjc4OTA2MjUsInkiOjcxMC41fSx7IngiOjEwMDEuNzg5MDYyNSwieSI6ODI1LjV9LHsieCI6MTAwMS43ODkwNjI1LCJ5Ijo4NjF9XQ==" data-look="classic" marker-end="url(#my-svg_flowchart-v2-pointEnd)"/><path d="M989.14,1039.351L987.915,1047.376C986.69,1055.401,984.239,1071.45,989.103,1084.946C993.967,1098.442,1006.145,1109.384,1012.234,1114.855L1018.323,1120.327" id="my-svg-L_R1_R2_0" class="edge-thickness-normal edge-pattern-solid edge-thickness-normal edge-pattern-solid flowchart-link" style=";" data-edge="true" data-et="edge" data-id="L_R1_R2_0" data-points="W3sieCI6OTg5LjE0MDA1NTg3NzQ4MzQsInkiOjEwMzkuMzUwOTkzMzc3NDgzNX0seyJ4Ijo5ODEuNzg5MDYyNSwieSI6MTA4Ny41fSx7IngiOjEwMjEuMjk3ODc1Mjk3NDYzLCJ5IjoxMTIzfV0=" data-look="classic" marker-end="url(#my-svg_flowchart-v2-pointEnd)"/><path d="M1028.266,1025.523L1032.228,1035.853C1036.19,1046.182,1044.115,1066.841,998.125,1087.636C952.136,1108.43,852.232,1129.36,802.281,1139.825L752.329,1150.291" id="my-svg-L_R1_Stop_0" class="edge-thickness-normal edge-pattern-solid edge-thickness-normal edge-pattern-solid flowchart-link" style=";" data-edge="true" data-et="edge" data-id="L_R1_Stop_0" data-points="W3sieCI6MTAyOC4yNjU2MTQyMjQxMzc4LCJ5IjoxMDI1LjUyMzQ0ODI3NTg2MjJ9LHsieCI6MTA1Mi4wMzkwNjI1LCJ5IjoxMDg3LjV9LHsieCI6NzQ4LjQxNDA2MjUsInkiOjExNTEuMTEwNzMzNzc1NjAzNH1d" data-look="classic" marker-end="url(#my-svg_flowchart-v2-pointEnd)"/><path d="M745.122,282.667L809.65,299.139C874.178,315.611,1003.233,348.556,1067.761,382.861C1132.289,417.167,1132.289,452.833,1132.289,488.5C1132.289,524.167,1132.289,559.833,1132.289,596.833C1132.289,633.833,1132.289,672.167,1132.289,710.5C1132.289,748.833,1132.289,787.167,1132.289,828.167C1132.289,869.167,1132.289,912.833,1132.289,956.5C1132.289,1000.167,1132.289,1043.833,1068.967,1076.545C1005.645,1109.257,879.001,1131.014,815.678,1141.893L752.356,1152.771" id="my-svg-L_Check_Stop_0" class="edge-thickness-normal edge-pattern-solid edge-thickness-normal edge-pattern-solid flowchart-link" style=";" data-edge="true" data-et="edge" data-id="L_Check_Stop_0" data-points="W3sieCI6NzQ1LjEyMTk1Mzc0NjY4NDMsInkiOjI4Mi42NjcxMDg3NTMzMTU2M30seyJ4IjoxMTMyLjI4OTA2MjUsInkiOjM4MS41fSx7IngiOjExMzIuMjg5MDYyNSwieSI6NDg4LjV9LHsieCI6MTEzMi4yODkwNjI1LCJ5Ijo1OTUuNX0seyJ4IjoxMTMyLjI4OTA2MjUsInkiOjcxMC41fSx7IngiOjExMzIuMjg5MDYyNSwieSI6ODI1LjV9LHsieCI6MTEzMi4yODkwNjI1LCJ5Ijo5NTYuNX0seyJ4IjoxMTMyLjI4OTA2MjUsInkiOjEwODcuNX0seyJ4Ijo3NDguNDE0MDYyNSwieSI6MTE1My40NDg1ODI5MzA3NjE0fV0=" data-look="classic" marker-end="url(#my-svg_flowchart-v2-pointEnd)"/></g><g class="edgeLabels"><g class="edgeLabel"><g class="label" data-id="L_Start_Request_0" transform="translate(0, 0)"><text y="-10.1" text-anchor="middle"><tspan class="text-outer-tspan row" x="0" y="-0.1em" dy="1.1em" text-anchor="middle"/></text></g></g><g><rect class="background" style="stroke: none"/></g><g class="edgeLabel"><g class="label" data-id="L_Request_Check_0" transform="translate(0, 0)"><text y="-10.1" text-anchor="middle"><tspan class="text-outer-tspan row" x="0" y="-0.1em" dy="1.1em" text-anchor="middle"/></text></g></g><g><rect class="background" style="stroke: none"/></g><g class="edgeLabel" transform="translate(110, 381.5)"><g class="label" data-id="L_Check_Done_0" transform="translate(-0.046875, -10.5)"><g><rect class="background" style="" x="-52.6875" y="0" width="105.46875" height="21"/><text y="-10.1" text-anchor="middle" style=""><tspan class="text-outer-tspan row" x="0" y="-0.1em" dy="1.1em" text-anchor="middle"><tspan font-style="normal" class="text-inner-tspan" font-weight="normal">完整</tspan><tspan font-style="normal" class="text-inner-tspan" font-weight="normal"> message</tspan></tspan></text></g></g></g><g class="edgeLabel" transform="translate(333.5, 381.5)"><g class="label" data-id="L_Check_L1_0" transform="translate(0, -10.5)"><g><rect class="background" style="" x="-34" y="0" width="68" height="21"/><text y="-10.1" text-anchor="middle" style=""><tspan class="text-outer-tspan row" x="0" y="-0.1em" dy="1.1em" text-anchor="middle"><tspan font-style="normal" class="text-inner-tspan" font-weight="normal">输出截断</tspan></tspan></text></g></g></g><g class="edgeLabel" transform="translate(221.75, 595.5)"><g class="label" data-id="L_L1_L2_0" transform="translate(0, -10.5)"><g><rect class="background" style="" x="-10" y="0" width="20" height="21"/><text y="-10.1" text-anchor="middle" style=""><tspan class="text-outer-tspan row" x="0" y="-0.1em" dy="1.1em" text-anchor="middle"><tspan font-style="normal" class="text-inner-tspan" font-weight="normal">是</tspan></tspan></text></g></g></g><g class="edgeLabel" transform="translate(470.1640625, 595.5)"><g class="label" data-id="L_L1_L3_0" transform="translate(0, -10.5)"><g><rect class="background" style="" x="-10" y="0" width="20" height="21"/><text y="-10.1" text-anchor="middle" style=""><tspan class="text-outer-tspan row" x="0" y="-0.1em" dy="1.1em" text-anchor="middle"><tspan font-style="normal" class="text-inner-tspan" font-weight="normal">否</tspan></tspan></text></g></g></g><g class="edgeLabel" transform="translate(365.7890625, 956.5)"><g class="label" data-id="L_L3_Stop_0" transform="translate(0, -10.5)"><g><rect class="background" style="" x="-10" y="0" width="20" height="21"/><text y="-10.1" text-anchor="middle" style=""><tspan class="text-outer-tspan row" x="0" y="-0.1em" dy="1.1em" text-anchor="middle"><tspan font-style="normal" class="text-inner-tspan" font-weight="normal">否</tspan></tspan></text></g></g></g><g class="edgeLabel" transform="translate(540.4140625, 825.5)"><g class="label" data-id="L_L3_L4_0" transform="translate(0, -10.5)"><g><rect class="background" style="" x="-10" y="0" width="20" height="21"/><text y="-10.1" text-anchor="middle" style=""><tspan class="text-outer-tspan row" x="0" y="-0.1em" dy="1.1em" text-anchor="middle"><tspan font-style="normal" class="text-inner-tspan" font-weight="normal">是</tspan></tspan></text></g></g></g><g class="edgeLabel" transform="translate(392.88794, 1103.35187)"><g class="label" data-id="L_L4_L5_0" transform="translate(0, -10.5)"><g><rect class="background" style="" x="-10" y="0" width="20" height="21"/><text y="-10.1" text-anchor="middle" style=""><tspan class="text-outer-tspan row" x="0" y="-0.1em" dy="1.1em" text-anchor="middle"><tspan font-style="normal" class="text-inner-tspan" font-weight="normal">是</tspan></tspan></text></g></g></g><g class="edgeLabel" transform="translate(622.50048, 1078.00645)"><g class="label" data-id="L_L4_Stop_0" transform="translate(0, -10.5)"><g><rect class="background" style="" x="-10" y="0" width="20" height="21"/><text y="-10.1" text-anchor="middle" style=""><tspan class="text-outer-tspan row" x="0" y="-0.1em" dy="1.1em" text-anchor="middle"><tspan font-style="normal" class="text-inner-tspan" font-weight="normal">否</tspan></tspan></text></g></g></g><g class="edgeLabel" transform="translate(770.2890625, 595.5)"><g class="label" data-id="L_Check_C1_0" transform="translate(0, -10.5)"><g><rect class="background" style="" x="-42" y="0" width="84" height="21"/><text y="-10.1" text-anchor="middle" style=""><tspan class="text-outer-tspan row" x="0" y="-0.1em" dy="1.1em" text-anchor="middle"><tspan font-style="normal" class="text-inner-tspan" font-weight="normal">上下文超限</tspan></tspan></text></g></g></g><g class="edgeLabel" transform="translate(629.53429, 1098.26837)"><g class="label" data-id="L_C1_C2_0" transform="translate(0, -10.5)"><g><rect class="background" style="" x="-10" y="0" width="20" height="21"/><text y="-10.1" text-anchor="middle" style=""><tspan class="text-outer-tspan row" x="0" y="-0.1em" dy="1.1em" text-anchor="middle"><tspan font-style="normal" class="text-inner-tspan" font-weight="normal">否</tspan></tspan></text></g></g></g><g class="edgeLabel" transform="translate(847.74813, 1092.40637)"><g class="label" data-id="L_C1_Stop_0" transform="translate(0, -10.5)"><g><rect class="background" style="" x="-10" y="0" width="20" height="21"/><text y="-10.1" text-anchor="middle" style=""><tspan class="text-outer-tspan row" x="0" y="-0.1em" dy="1.1em" text-anchor="middle"><tspan font-style="normal" class="text-inner-tspan" font-weight="normal">是</tspan></tspan></text></g></g></g><g class="edgeLabel" transform="translate(1001.7890625, 595.5)"><g class="label" data-id="L_Check_R1_0" transform="translate(-0.05078125, -10.5)"><g><rect class="background" style="" x="-35.3671875" y="0" width="70.8359375" height="21"/><text y="-10.1" text-anchor="middle" style=""><tspan class="text-outer-tspan row" x="0" y="-0.1em" dy="1.1em" text-anchor="middle"><tspan font-style="normal" class="text-inner-tspan" font-weight="normal">429</tspan><tspan font-style="normal" class="text-inner-tspan" font-weight="normal"> /</tspan><tspan font-style="normal" class="text-inner-tspan" font-weight="normal"> 529</tspan></tspan></text></g></g></g><g class="edgeLabel" transform="translate(983.42848, 1088.97307)"><g class="label" data-id="L_R1_R2_0" transform="translate(0, -10.5)"><g><rect class="background" style="" x="-10" y="0" width="20" height="21"/><text y="-10.1" text-anchor="middle" style=""><tspan class="text-outer-tspan row" x="0" y="-0.1em" dy="1.1em" text-anchor="middle"><tspan font-style="normal" class="text-inner-tspan" font-weight="normal">是</tspan></tspan></text></g></g></g><g class="edgeLabel" transform="translate(1052.0390625, 1087.5)"><g class="label" data-id="L_R1_Stop_0" transform="translate(0, -10.5)"><g><rect class="background" style="" x="-10" y="0" width="20" height="21"/><text y="-10.1" text-anchor="middle" style=""><tspan class="text-outer-tspan row" x="0" y="-0.1em" dy="1.1em" text-anchor="middle"><tspan font-style="normal" class="text-inner-tspan" font-weight="normal">否</tspan></tspan></text></g></g></g><g class="edgeLabel" transform="translate(1132.2890625, 710.5)"><g class="label" data-id="L_Check_Stop_0" transform="translate(0, -10.5)"><g><rect class="background" style="" x="-34" y="0" width="68" height="21"/><text y="-10.1" text-anchor="middle" style=""><tspan class="text-outer-tspan row" x="0" y="-0.1em" dy="1.1em" text-anchor="middle"><tspan font-style="normal" class="text-inner-tspan" font-weight="normal">普通错误</tspan></tspan></text></g></g></g></g><g class="nodes"><g class="node default" id="my-svg-flowchart-Start-0" data-look="classic" transform="translate(681.7890625, 24)"><g class="basic label-container outer-path"><path d="M-11.5 -16 C-4.590878377480082 -16, 2.3182432450398363 -16, 11.5 -16 C11.5 -16, 11.499999999999998 -16, 11.499999999999998 -16 C11.88009944996617 -15.987810950458282, 12.260198899932341 -15.975621900916565, 12.525123519691405 -15.967126284005381 C12.864750922609975 -15.934362836907539, 13.204378325528547 -15.901599389809697, 13.546034586952095 -15.868640221171939 C13.929793656057177 -15.806597030975059, 14.313552725162257 -15.744553840778178, 14.558538059221954 -15.704946511857047 C14.91154572208852 -15.624374816398035, 15.264553384955086 -15.543803120939023, 15.558473342552116 -15.476717808624471 C15.82162142447064 -15.398616839203521, 16.084769506389165 -15.320515869782573, 16.54173148837793 -15.184891952170698 C16.805511917723738 -15.087818315811882, 17.069292347069542 -14.990744679453066, 17.504272078069985 -14.830668117536348 C17.80926165486505 -14.69565827908352, 18.114251231660116 -14.560648440630693, 18.44213982588093 -14.415501886438706 C18.688771066097466 -14.286834526392587, 18.935402306314007 -14.158167166346468, 19.351480832063 -13.941099265974232 C19.62262109042476 -13.776732447958311, 19.89376134878652 -13.61236562994239, 20.228558419368778 -13.409409678269451 C20.50743883846357 -13.21487477044769, 20.786319257558368 -13.020339862625928, 21.069768487859456 -12.822617949887306 C21.314539339538598 -12.627419709299106, 21.559310191217744 -12.432221468710908, 21.871654324924613 -12.183135333906153 C22.098941708582068 -11.976718945763084, 22.32622909223952 -11.770302557620017, 22.630920809655784 -11.493589601563642 C22.781078070432446 -11.338539901671354, 22.931235331209113 -11.183490201779067, 23.344447953205048 -10.756814244181072 C23.520776550523184 -10.54968864038977, 23.697105147841317 -10.342563036598468, 24.00930371948848 -9.975836829739738 C24.207638195054408 -9.710086701123824, 24.405972670620333 -9.444336572507911, 24.62275607355129 -9.153866561954718 C24.752009043406634 -8.955299290974748, 24.881262013261974 -8.756732019994779, 25.182284208085537 -8.294281092968403 C25.34655530902123 -8.002601119004353, 25.510826409956927 -7.710921145040302, 25.685588901968003 -7.400612643853364 C25.80787097080024 -7.146691311506088, 25.93015303963248 -6.892769979158812, 26.130601968252996 -6.476533489958305 C26.26918042659149 -6.134242018630001, 26.407758884929986 -5.791950547301696, 26.515494752796165 -5.52584087074093 C26.640160790327673 -5.150366628531685, 26.764826827859178 -4.774892386322442, 26.83868564858657 -4.552441386096524 C26.896806713391342 -4.330800576167095, 26.954927778196115 -4.109159766237667, 27.098846594909176 -3.560334943301032 C27.143794354213234 -3.329537698986986, 27.188742113517293 -3.09874045467294, 27.2949085346312 -2.5535983205340735 C27.34091539099688 -2.1967782276432444, 27.38692224736256 -1.8399581347524154, 27.42606580718717 -1.536368414522911 C27.44082391469513 -1.306498977556473, 27.45558202220309 -1.076629540590035, 27.491779459211006 -0.5128252411464826 C27.491779459211006 -0.27243598631672544, 27.491779459211006 -0.03204673148696824, 27.491779459211006 0.5128252411464788 C27.47651648048118 0.7505584549181853, 27.461253501751358 0.9882916686898917, 27.42606580718717 1.5363684145229002 C27.383654071588396 1.8653054606825272, 27.34124233598962 2.1942425068421545, 27.294908534631205 2.5535983205340624 C27.22043702789466 2.9359937680676897, 27.145965521158114 3.318389215601317, 27.098846594909176 3.5603349433010285 C27.036063468218934 3.7997542157501503, 26.973280341528692 4.039173488199272, 26.83868564858657 4.552441386096513 C26.743071387120523 4.84041630756851, 26.647457125654476 5.128391229040505, 26.515494752796165 5.525840870740919 C26.43838593157349 5.71630114995857, 26.361277110350812 5.90676142917622, 26.130601968253 6.4765334899583005 C25.97319497812976 6.803392472919258, 25.81578798800652 7.130251455880217, 25.685588901968003 7.400612643853361 C25.580141338738144 7.5878454700916045, 25.474693775508285 7.775078296329848, 25.18228420808554 8.294281092968399 C25.01993484886907 8.543693305631992, 24.857585489652596 8.793105518295583, 24.622756073551297 9.15386656195471 C24.497150494351082 9.32216659517933, 24.371544915150867 9.49046662840395, 24.00930371948848 9.975836829739734 C23.75566142163124 10.273779505458457, 23.502019123773998 10.57172218117718, 23.344447953205055 10.756814244181063 C23.128920481423222 10.979364053930322, 22.91339300964139 11.20191386367958, 22.630920809655784 11.493589601563638 C22.474119447362146 11.63599245006202, 22.317318085068507 11.7783952985604, 21.871654324924627 12.183135333906142 C21.696112286485718 12.323125438191344, 21.52057024804681 12.463115542476547, 21.06976848785946 12.822617949887304 C20.83411328829579 12.987000815753747, 20.598458088732123 13.151383681620192, 20.228558419368788 13.409409678269446 C20.046585462927055 13.519722753856216, 19.864612506485322 13.630035829442987, 19.351480832063004 13.94109926597423 C19.09025306258369 14.077381625987215, 18.82902529310438 14.2136639860002, 18.442139825880933 14.415501886438705 C18.161718431054013 14.539636119523458, 17.881297036227092 14.663770352608212, 17.50427207806999 14.830668117536346 C17.18093875306507 14.94965776999865, 16.857605428060147 15.068647422460952, 16.54173148837794 15.184891952170695 C16.159766979155517 15.298257013535288, 15.777802469933091 15.411622074899881, 15.558473342552134 15.476717808624468 C15.201960299838682 15.55808958415879, 14.84544725712523 15.639461359693112, 14.558538059221961 15.704946511857045 C14.31070189596804 15.745014740733788, 14.062865732714119 15.785082969610531, 13.546034586952105 15.868640221171937 C13.288591018774076 15.89347549257288, 13.031147450596047 15.918310763973826, 12.525123519691405 15.967126284005381 C12.12110233263688 15.980082457094687, 11.717081145582354 15.99303863018399, 11.500000000000004 16 C11.500000000000004 16, 11.500000000000002 16, 11.5 16 C6.273364442466752 16, 1.0467288849335041 16, -11.499999999999996 16 C-11.80986417423179 15.990063259046412, -12.119728348463582 15.980126518092826, -12.5251235196914 15.967126284005381 C-12.783886938001181 15.942163688249579, -13.042650356310961 15.917201092493777, -13.5460345869521 15.868640221171937 C-13.848428555123888 15.81975150949817, -14.150822523295679 15.770862797824401, -14.558538059221956 15.704946511857045 C-14.938600504430285 15.61819973887748, -15.318662949638615 15.531452965897914, -15.558473342552112 15.476717808624471 C-15.826694886250813 15.397111062378311, -16.094916429949514 15.317504316132151, -16.541731488377923 15.184891952170702 C-16.74485356478688 15.110141150412314, -16.947975641195832 15.035390348653928, -17.504272078069988 14.830668117536348 C-17.864612504642498 14.671156099811668, -18.224952931215007 14.511644082086988, -18.44213982588093 14.415501886438708 C-18.676699170752247 14.293132426461773, -18.91125851562356 14.170762966484839, -19.351480832063 13.941099265974234 C-19.55771632706647 13.816078096928836, -19.763951822069934 13.691056927883437, -20.228558419368767 13.409409678269457 C-20.540951158716975 13.19149802656388, -20.85334389806518 12.9735863748583, -21.069768487859456 12.822617949887308 C-21.337871355220624 12.608813047683707, -21.605974222581793 12.395008145480107, -21.871654324924613 12.183135333906154 C-22.155323887248127 11.925514142889268, -22.438993449571644 11.667892951872384, -22.630920809655777 11.493589601563649 C-22.804244066615666 11.31461910864852, -22.97756732357556 11.135648615733393, -23.344447953205048 10.756814244181069 C-23.54300944156794 10.523572621481259, -23.74157092993083 10.290330998781448, -24.009303719488475 9.97583682973974 C-24.135984865155077 9.80609563543628, -24.26266601082168 9.636354441132822, -24.62275607355129 9.15386656195472 C-24.736954979263047 8.978426376081536, -24.851153884974803 8.802986190208351, -25.182284208085534 8.29428109296841 C-25.364837155753463 7.97013984889355, -25.547390103421392 7.645998604818691, -25.685588901968 7.400612643853366 C-25.85093939579407 7.057258805489724, -26.016289889620147 6.713904967126081, -26.130601968252996 6.476533489958307 C-26.253206030997525 6.173699084591029, -26.37581009374205 5.870864679223752, -26.515494752796165 5.525840870740931 C-26.61892779173315 5.214317037279488, -26.72236083067013 4.902793203818045, -26.83868564858657 4.552441386096519 C-26.901630203917055 4.312406516278528, -26.96457475924754 4.072371646460536, -27.098846594909176 3.5603349433010343 C-27.170670606770745 3.191533822402169, -27.24249461863231 2.822732701503304, -27.2949085346312 2.5535983205340753 C-27.346911047764547 2.1502770977295866, -27.39891356089789 1.746955874925098, -27.42606580718717 1.5363684145229202 C-27.446033505661305 1.2253553931521772, -27.466001204135438 0.9143423717814343, -27.491779459211006 0.5128252411464846 C-27.491779459211006 0.22779884018952723, -27.491779459211006 -0.057227560767430186, -27.491779459211006 -0.5128252411464769 C-27.47162303481886 -0.8267778210270558, -27.451466610426717 -1.1407304009076347, -27.42606580718717 -1.5363684145228982 C-27.39596685708498 -1.769809927805547, -27.365867906982782 -2.003251441088196, -27.294908534631205 -2.5535983205340678 C-27.24879421274453 -2.79038561715675, -27.20267989085786 -3.0271729137794314, -27.098846594909176 -3.5603349433010267 C-27.016350684277803 -3.8749276044922905, -26.93385477364643 -4.189520265683554, -26.838685648586573 -4.552441386096511 C-26.709585762540247 -4.941269673594567, -26.58048587649392 -5.330097961092622, -26.515494752796172 -5.525840870740911 C-26.42309786665388 -5.754062965884645, -26.330700980511583 -5.982285061028379, -26.130601968253 -6.476533489958299 C-25.985499194073256 -6.777842505244539, -25.840396419893516 -7.079151520530781, -25.685588901968003 -7.400612643853359 C-25.53128214389198 -7.674599918070945, -25.37697538581595 -7.948587192288531, -25.182284208085537 -8.294281092968404 C-24.975770265774162 -8.611541965116867, -24.769256323462784 -8.928802837265328, -24.622756073551294 -9.153866561954715 C-24.427308152347308 -9.415748970696137, -24.231860231143322 -9.677631379437559, -24.00930371948848 -9.975836829739734 C-23.823049338404275 -10.194621823935757, -23.636794957320074 -10.41340681813178, -23.344447953205055 -10.756814244181063 C-23.121081972806916 -10.987457957630184, -22.897715992408777 -11.218101671079305, -22.63092080965579 -11.493589601563633 C-22.45175617364601 -11.656302183551214, -22.27259153763623 -11.819014765538796, -21.871654324924627 -12.18313533390614 C-21.561237257789266 -12.430684684401514, -21.250820190653904 -12.678234034896889, -21.069768487859463 -12.822617949887302 C-20.853984682257984 -12.973139391544503, -20.6382008766565 -13.123660833201702, -20.228558419368788 -13.409409678269444 C-19.98887476206849 -13.5547073198624, -19.749191104768194 -13.700004961455356, -19.351480832063007 -13.941099265974229 C-19.027515246115414 -14.110111904653227, -18.703549660167823 -14.279124543332225, -18.442139825880936 -14.415501886438705 C-18.091534731258818 -14.570704361497308, -17.7409296366367 -14.725906836555913, -17.504272078069995 -14.830668117536344 C-17.19739920307523 -14.943600172236177, -16.890526328080465 -15.056532226936012, -16.54173148837794 -15.184891952170695 C-16.314586148954053 -15.252307496601487, -16.087440809530168 -15.31972304103228, -15.558473342552134 -15.476717808624466 C-15.284351901460555 -15.539284238744044, -15.010230460368977 -15.60185066886362, -14.558538059221963 -15.704946511857043 C-14.177265221015972 -15.766587747523168, -13.79599238280998 -15.828228983189293, -13.546034586952107 -15.868640221171937 C-13.30931068207102 -15.891476691573667, -13.072586777189935 -15.914313161975397, -12.525123519691407 -15.967126284005381 C-12.259989676648317 -15.975628610300054, -11.994855833605225 -15.984130936594728, -11.500000000000005 -16 C-11.500000000000004 -16, -11.500000000000002 -16, -11.5 -16" stroke="none" stroke-width="0" fill="#eee" style=""/><path d="M-11.5 -16 C-3.0128546326301606 -16, 5.474290734739679 -16, 11.5 -16 M-11.5 -16 C-4.833131595362427 -16, 1.8337368092751465 -16, 11.5 -16 M11.5 -16 C11.5 -16, 11.5 -16, 11.499999999999998 -16 M11.5 -16 C11.5 -16, 11.499999999999998 -16, 11.499999999999998 -16 M11.499999999999998 -16 C11.899317406891289 -15.987194667985177, 12.298634813782579 -15.974389335970356, 12.525123519691405 -15.967126284005381 M11.499999999999998 -16 C11.78401265800275 -15.990892266854955, 12.068025316005501 -15.98178453370991, 12.525123519691405 -15.967126284005381 M12.525123519691405 -15.967126284005381 C12.797170009144585 -15.940882286351606, 13.069216498597765 -15.91463828869783, 13.546034586952095 -15.868640221171939 M12.525123519691405 -15.967126284005381 C12.866813314741739 -15.934163880418977, 13.20850310979207 -15.901201476832574, 13.546034586952095 -15.868640221171939 M13.546034586952095 -15.868640221171939 C13.895082752755147 -15.812208820633854, 14.244130918558199 -15.755777420095772, 14.558538059221954 -15.704946511857047 M13.546034586952095 -15.868640221171939 C13.778979099456066 -15.830979558901971, 14.011923611960036 -15.793318896632005, 14.558538059221954 -15.704946511857047 M14.558538059221954 -15.704946511857047 C14.885410947764464 -15.630339908092159, 15.212283836306977 -15.555733304327273, 15.558473342552116 -15.476717808624471 M14.558538059221954 -15.704946511857047 C14.924223373676657 -15.62148122515245, 15.28990868813136 -15.538015938447854, 15.558473342552116 -15.476717808624471 M15.558473342552116 -15.476717808624471 C15.88410546794031 -15.380071903087162, 16.209737593328505 -15.283425997549852, 16.54173148837793 -15.184891952170698 M15.558473342552116 -15.476717808624471 C15.791681841143694 -15.40750275037888, 16.024890339735272 -15.338287692133289, 16.54173148837793 -15.184891952170698 M16.54173148837793 -15.184891952170698 C16.82515863999147 -15.080588140405046, 17.10858579160501 -14.976284328639395, 17.504272078069985 -14.830668117536348 M16.54173148837793 -15.184891952170698 C16.857887102405748 -15.068543763698003, 17.174042716433565 -14.952195575225307, 17.504272078069985 -14.830668117536348 M17.504272078069985 -14.830668117536348 C17.824586803351323 -14.688874290453025, 18.144901528632662 -14.547080463369705, 18.44213982588093 -14.415501886438706 M17.504272078069985 -14.830668117536348 C17.716579335716098 -14.736685992447448, 17.92888659336221 -14.642703867358549, 18.44213982588093 -14.415501886438706 M18.44213982588093 -14.415501886438706 C18.662840742267367 -14.300362359725586, 18.883541658653805 -14.185222833012464, 19.351480832063 -13.941099265974232 M18.44213982588093 -14.415501886438706 C18.657901721923167 -14.302939043475561, 18.873663617965406 -14.190376200512416, 19.351480832063 -13.941099265974232 M19.351480832063 -13.941099265974232 C19.58919505165185 -13.796995509095657, 19.826909271240698 -13.652891752217084, 20.228558419368778 -13.409409678269451 M19.351480832063 -13.941099265974232 C19.653855627752154 -13.757797887875928, 19.956230423441312 -13.574496509777624, 20.228558419368778 -13.409409678269451 M20.228558419368778 -13.409409678269451 C20.42093804707983 -13.275213977958082, 20.61331767479088 -13.141018277646712, 21.069768487859456 -12.822617949887306 M20.228558419368778 -13.409409678269451 C20.416569344863944 -13.278261395505814, 20.604580270359108 -13.147113112742176, 21.069768487859456 -12.822617949887306 M21.069768487859456 -12.822617949887306 C21.296495053492364 -12.641809547242362, 21.523221619125273 -12.461001144597418, 21.871654324924613 -12.183135333906153 M21.069768487859456 -12.822617949887306 C21.336225876784578 -12.610125272948432, 21.6026832657097 -12.397632596009558, 21.871654324924613 -12.183135333906153 M21.871654324924613 -12.183135333906153 C22.095381261326924 -11.979952449755933, 22.319108197729236 -11.776769565605711, 22.630920809655784 -11.493589601563642 M21.871654324924613 -12.183135333906153 C22.11873420458602 -11.958743924573042, 22.365814084247425 -11.734352515239932, 22.630920809655784 -11.493589601563642 M22.630920809655784 -11.493589601563642 C22.881336072363684 -11.235015283342312, 23.131751335071584 -10.976440965120984, 23.344447953205048 -10.756814244181072 M22.630920809655784 -11.493589601563642 C22.904787592616454 -11.210799663275708, 23.178654375577125 -10.928009724987774, 23.344447953205048 -10.756814244181072 M23.344447953205048 -10.756814244181072 C23.568552503154116 -10.493568287900759, 23.792657053103184 -10.230322331620446, 24.00930371948848 -9.975836829739738 M23.344447953205048 -10.756814244181072 C23.567359572259367 -10.494969572409424, 23.790271191313682 -10.233124900637776, 24.00930371948848 -9.975836829739738 M24.00930371948848 -9.975836829739738 C24.162373230358156 -9.770737630093683, 24.315442741227834 -9.565638430447626, 24.62275607355129 -9.153866561954718 M24.00930371948848 -9.975836829739738 C24.19670580061718 -9.724735113708084, 24.384107881745884 -9.47363339767643, 24.62275607355129 -9.153866561954718 M24.62275607355129 -9.153866561954718 C24.779861200383635 -8.912510898506719, 24.936966327215977 -8.67115523505872, 25.182284208085537 -8.294281092968403 M24.62275607355129 -9.153866561954718 C24.755154731890897 -8.950466668727287, 24.887553390230504 -8.747066775499857, 25.182284208085537 -8.294281092968403 M25.182284208085537 -8.294281092968403 C25.300057953723453 -8.08516188170334, 25.41783169936137 -7.87604267043828, 25.685588901968003 -7.400612643853364 M25.182284208085537 -8.294281092968403 C25.341451791484502 -8.011662931178002, 25.50061937488347 -7.729044769387602, 25.685588901968003 -7.400612643853364 M25.685588901968003 -7.400612643853364 C25.80166497747223 -7.159578189438688, 25.917741052976456 -6.918543735024012, 26.130601968252996 -6.476533489958305 M25.685588901968003 -7.400612643853364 C25.823969259974604 -7.113262869587314, 25.962349617981207 -6.825913095321264, 26.130601968252996 -6.476533489958305 M26.130601968252996 -6.476533489958305 C26.27558997734806 -6.118410304341049, 26.420577986443117 -5.760287118723793, 26.515494752796165 -5.52584087074093 M26.130601968252996 -6.476533489958305 C26.25489437820236 -6.169528834353112, 26.37918678815172 -5.862524178747917, 26.515494752796165 -5.52584087074093 M26.515494752796165 -5.52584087074093 C26.594291688666804 -5.288517054485349, 26.673088624537442 -5.051193238229768, 26.83868564858657 -4.552441386096524 M26.515494752796165 -5.52584087074093 C26.626696666484793 -5.19091842432963, 26.73789858017342 -4.85599597791833, 26.83868564858657 -4.552441386096524 M26.83868564858657 -4.552441386096524 C26.912005718068375 -4.272840184043272, 26.98532578755018 -3.99323898199002, 27.098846594909176 -3.560334943301032 M26.83868564858657 -4.552441386096524 C26.933278458567532 -4.191718004855938, 27.02787126854849 -3.830994623615351, 27.098846594909176 -3.560334943301032 M27.098846594909176 -3.560334943301032 C27.169162856786034 -3.1992757999105708, 27.239479118662896 -2.83821665652011, 27.2949085346312 -2.5535983205340735 M27.098846594909176 -3.560334943301032 C27.15146267119534 -3.2901625119832505, 27.2040787474815 -3.0199900806654694, 27.2949085346312 -2.5535983205340735 M27.2949085346312 -2.5535983205340735 C27.32447538952225 -2.324283632634987, 27.3540422444133 -2.094968944735901, 27.42606580718717 -1.536368414522911 M27.2949085346312 -2.5535983205340735 C27.325373601690718 -2.317317276428399, 27.355838668750238 -2.081036232322724, 27.42606580718717 -1.536368414522911 M27.42606580718717 -1.536368414522911 C27.45132858341075 -1.1428802830947298, 27.47659135963433 -0.7493921516665487, 27.491779459211006 -0.5128252411464826 M27.42606580718717 -1.536368414522911 C27.44183563219322 -1.2907406608800367, 27.45760545719927 -1.045112907237162, 27.491779459211006 -0.5128252411464826 M27.491779459211006 -0.5128252411464826 C27.491779459211006 -0.2469591055973271, 27.491779459211006 0.01890702995182847, 27.491779459211006 0.5128252411464788 M27.491779459211006 -0.5128252411464826 C27.491779459211006 -0.2651218454404546, 27.491779459211006 -0.017418449734426467, 27.491779459211006 0.5128252411464788 M27.491779459211006 0.5128252411464788 C27.47314384869896 0.8030899172656487, 27.454508238186914 1.0933545933848188, 27.42606580718717 1.5363684145229002 M27.491779459211006 0.5128252411464788 C27.46990072558911 0.8536041775034559, 27.44802199196721 1.1943831138604328, 27.42606580718717 1.5363684145229002 M27.42606580718717 1.5363684145229002 C27.392485444232562 1.7968110784061655, 27.35890508127795 2.057253742289431, 27.294908534631205 2.5535983205340624 M27.42606580718717 1.5363684145229002 C27.399110321732717 1.7454298367449796, 27.372154836278263 1.954491258967059, 27.294908534631205 2.5535983205340624 M27.294908534631205 2.5535983205340624 C27.237143090240053 2.8502116687516166, 27.179377645848906 3.1468250169691707, 27.098846594909176 3.5603349433010285 M27.294908534631205 2.5535983205340624 C27.238074184481984 2.8454306966061393, 27.181239834332768 3.1372630726782167, 27.098846594909176 3.5603349433010285 M27.098846594909176 3.5603349433010285 C26.997181435678492 3.948028257406362, 26.895516276447808 4.335721571511695, 26.83868564858657 4.552441386096513 M27.098846594909176 3.5603349433010285 C27.044981754096845 3.765744926488124, 26.991116913284518 3.97115490967522, 26.83868564858657 4.552441386096513 M26.83868564858657 4.552441386096513 C26.712380737251202 4.932851655083908, 26.58607582591583 5.313261924071305, 26.515494752796165 5.525840870740919 M26.83868564858657 4.552441386096513 C26.71171958539028 4.934842939148753, 26.584753522193996 5.317244492200993, 26.515494752796165 5.525840870740919 M26.515494752796165 5.525840870740919 C26.401409016964188 5.807634843943556, 26.28732328113221 6.089428817146192, 26.130601968253 6.4765334899583005 M26.515494752796165 5.525840870740919 C26.437817512765108 5.717705155404904, 26.36014027273405 5.909569440068888, 26.130601968253 6.4765334899583005 M26.130601968253 6.4765334899583005 C25.975475586917575 6.798656739974148, 25.82034920558215 7.1207799899899955, 25.685588901968003 7.400612643853361 M26.130601968253 6.4765334899583005 C25.969356208744486 6.811363759684288, 25.808110449235972 7.1461940294102755, 25.685588901968003 7.400612643853361 M25.685588901968003 7.400612643853361 C25.537941840295332 7.6627749527394045, 25.390294778622657 7.924937261625449, 25.18228420808554 8.294281092968399 M25.685588901968003 7.400612643853361 C25.55675009422157 7.629378993351136, 25.427911286475137 7.8581453428489105, 25.18228420808554 8.294281092968399 M25.18228420808554 8.294281092968399 C25.032937501050736 8.523717740179956, 24.88359079401593 8.753154387391513, 24.622756073551297 9.15386656195471 M25.18228420808554 8.294281092968399 C25.0252113860262 8.53558712761002, 24.86813856396686 8.776893162251639, 24.622756073551297 9.15386656195471 M24.622756073551297 9.15386656195471 C24.439206152833776 9.399806733974412, 24.255656232116255 9.645746905994114, 24.00930371948848 9.975836829739734 M24.622756073551297 9.15386656195471 C24.439166686508077 9.399859615255394, 24.255577299464854 9.645852668556078, 24.00930371948848 9.975836829739734 M24.00930371948848 9.975836829739734 C23.850107999163633 10.1628371813264, 23.690912278838788 10.349837532913067, 23.344447953205055 10.756814244181063 M24.00930371948848 9.975836829739734 C23.78860334226831 10.235084051029766, 23.567902965048145 10.494331272319798, 23.344447953205055 10.756814244181063 M23.344447953205055 10.756814244181063 C23.190954872576157 10.915308451946686, 23.03746179194726 11.073802659712308, 22.630920809655784 11.493589601563638 M23.344447953205055 10.756814244181063 C23.104187041661085 11.004903361137899, 22.863926130117115 11.252992478094734, 22.630920809655784 11.493589601563638 M22.630920809655784 11.493589601563638 C22.44456490420619 11.662833104185898, 22.258208998756594 11.832076606808158, 21.871654324924627 12.183135333906142 M22.630920809655784 11.493589601563638 C22.3736819595994 11.727207119017844, 22.11644310954301 11.96082463647205, 21.871654324924627 12.183135333906142 M21.871654324924627 12.183135333906142 C21.646514842654522 12.362678079803311, 21.421375360384417 12.542220825700483, 21.06976848785946 12.822617949887304 M21.871654324924627 12.183135333906142 C21.634937155552326 12.37191097717212, 21.398219986180024 12.5606866204381, 21.06976848785946 12.822617949887304 M21.06976848785946 12.822617949887304 C20.803533394954744 13.008332025566215, 20.53729830205003 13.194046101245126, 20.228558419368788 13.409409678269446 M21.06976848785946 12.822617949887304 C20.778137952365864 13.026046786965226, 20.486507416872268 13.229475624043149, 20.228558419368788 13.409409678269446 M20.228558419368788 13.409409678269446 C20.024397609043493 13.533173161270735, 19.8202367987182 13.656936644272024, 19.351480832063004 13.94109926597423 M20.228558419368788 13.409409678269446 C19.937209150737843 13.586027317071874, 19.645859882106897 13.762644955874302, 19.351480832063004 13.94109926597423 M19.351480832063004 13.94109926597423 C19.144647571854613 14.049004045341922, 18.93781431164622 14.156908824709614, 18.442139825880933 14.415501886438705 M19.351480832063004 13.94109926597423 C19.084229279866243 14.080524229572493, 18.81697772766948 14.219949193170754, 18.442139825880933 14.415501886438705 M18.442139825880933 14.415501886438705 C18.14708569133658 14.546113599331564, 17.852031556792227 14.676725312224423, 17.50427207806999 14.830668117536346 M18.442139825880933 14.415501886438705 C18.21175583997858 14.51748604289955, 17.981371854076226 14.619470199360396, 17.50427207806999 14.830668117536346 M17.50427207806999 14.830668117536346 C17.190825091843145 14.946019505940004, 16.8773781056163 15.06137089434366, 16.54173148837794 15.184891952170695 M17.50427207806999 14.830668117536346 C17.165118924787958 14.955479613041517, 16.825965771505924 15.080291108546687, 16.54173148837794 15.184891952170695 M16.54173148837794 15.184891952170695 C16.34458201682411 15.243404880469178, 16.147432545270274 15.301917808767664, 15.558473342552134 15.476717808624468 M16.54173148837794 15.184891952170695 C16.326513219408508 15.248767604697075, 16.111294950439074 15.312643257223456, 15.558473342552134 15.476717808624468 M15.558473342552134 15.476717808624468 C15.257714899232965 15.545363960679808, 14.956956455913797 15.614010112735148, 14.558538059221961 15.704946511857045 M15.558473342552134 15.476717808624468 C15.186132366085506 15.56170220675103, 14.81379138961888 15.646686604877596, 14.558538059221961 15.704946511857045 M14.558538059221961 15.704946511857045 C14.244256928538883 15.755757047779316, 13.929975797855807 15.806567583701586, 13.546034586952105 15.868640221171937 M14.558538059221961 15.704946511857045 C14.210031538372839 15.761290343439496, 13.861525017523718 15.817634175021949, 13.546034586952105 15.868640221171937 M13.546034586952105 15.868640221171937 C13.184561087565847 15.903511134922242, 12.823087588179586 15.938382048672548, 12.525123519691405 15.967126284005381 M13.546034586952105 15.868640221171937 C13.216214177078436 15.900457599445373, 12.886393767204769 15.932274977718809, 12.525123519691405 15.967126284005381 M12.525123519691405 15.967126284005381 C12.213515268612202 15.977118954108825, 11.901907017533 15.98711162421227, 11.500000000000004 16 M12.525123519691405 15.967126284005381 C12.119344486823604 15.980138827788478, 11.713565453955802 15.993151371571576, 11.500000000000004 16 M11.500000000000004 16 C11.500000000000002 16, 11.500000000000002 16, 11.5 16 M11.500000000000004 16 C11.500000000000002 16, 11.5 16, 11.5 16 M11.5 16 C6.504792034373788 16, 1.5095840687475768 16, -11.499999999999996 16 M11.5 16 C3.2282753955275005 16, -5.043449208944999 16, -11.499999999999996 16 M-11.499999999999996 16 C-11.904135469757 15.987040162086865, -12.308270939514001 15.974080324173729, -12.5251235196914 15.967126284005381 M-11.499999999999996 16 C-11.718204881264066 15.993002594167898, -11.936409762528138 15.986005188335794, -12.5251235196914 15.967126284005381 M-12.5251235196914 15.967126284005381 C-12.747367480540131 15.945686676389773, -12.96961144138886 15.924247068774164, -13.5460345869521 15.868640221171937 M-12.5251235196914 15.967126284005381 C-12.911725186798746 15.929831286136066, -13.298326853906094 15.89253628826675, -13.5460345869521 15.868640221171937 M-13.5460345869521 15.868640221171937 C-13.844383545840838 15.820405475229538, -14.142732504729574 15.772170729287138, -14.558538059221956 15.704946511857045 M-13.5460345869521 15.868640221171937 C-13.906631575772408 15.810341696490884, -14.267228564592717 15.752043171809829, -14.558538059221956 15.704946511857045 M-14.558538059221956 15.704946511857045 C-14.950612597311839 15.615458057063497, -15.34268713540172 15.52596960226995, -15.558473342552112 15.476717808624471 M-14.558538059221956 15.704946511857045 C-14.855406281946822 15.637188277266294, -15.15227450467169 15.56943004267554, -15.558473342552112 15.476717808624471 M-15.558473342552112 15.476717808624471 C-15.782534461200745 15.41021764473037, -16.006595579849378 15.343717480836268, -16.541731488377923 15.184891952170702 M-15.558473342552112 15.476717808624471 C-15.790617667504014 15.407818591529175, -16.022761992455916 15.338919374433878, -16.541731488377923 15.184891952170702 M-16.541731488377923 15.184891952170702 C-16.901627633073645 15.052446844079185, -17.261523777769362 14.920001735987668, -17.504272078069988 14.830668117536348 M-16.541731488377923 15.184891952170702 C-16.852147981505468 15.070655813241158, -17.16256447463301 14.956419674311615, -17.504272078069988 14.830668117536348 M-17.504272078069988 14.830668117536348 C-17.705769951988444 14.741470985974706, -17.907267825906903 14.652273854413064, -18.44213982588093 14.415501886438708 M-17.504272078069988 14.830668117536348 C-17.868347349506255 14.669502794780719, -18.232422620942522 14.50833747202509, -18.44213982588093 14.415501886438708 M-18.44213982588093 14.415501886438708 C-18.766974804392344 14.246035686216036, -19.09180978290376 14.076569485993366, -19.351480832063 13.941099265974234 M-18.44213982588093 14.415501886438708 C-18.79772342165164 14.229994152287292, -19.153307017422353 14.044486418135874, -19.351480832063 13.941099265974234 M-19.351480832063 13.941099265974234 C-19.57933418134902 13.802973226622141, -19.807187530635037 13.664847187270047, -20.228558419368767 13.409409678269457 M-19.351480832063 13.941099265974234 C-19.67076399848761 13.74754793417148, -19.99004716491222 13.553996602368727, -20.228558419368767 13.409409678269457 M-20.228558419368767 13.409409678269457 C-20.553405004521327 13.182810762849059, -20.878251589673884 12.95621184742866, -21.069768487859456 12.822617949887308 M-20.228558419368767 13.409409678269457 C-20.483854031357087 13.231326510915327, -20.73914964334541 13.0532433435612, -21.069768487859456 12.822617949887308 M-21.069768487859456 12.822617949887308 C-21.37094394856908 12.582438534586982, -21.67211940927871 12.342259119286657, -21.871654324924613 12.183135333906154 M-21.069768487859456 12.822617949887308 C-21.346010088691123 12.602322624321777, -21.622251689522795 12.382027298756245, -21.871654324924613 12.183135333906154 M-21.871654324924613 12.183135333906154 C-22.158410288456807 11.922711154973248, -22.445166251989 11.662286976040342, -22.630920809655777 11.493589601563649 M-21.871654324924613 12.183135333906154 C-22.13895192829878 11.94038272282877, -22.406249531672945 11.697630111751387, -22.630920809655777 11.493589601563649 M-22.630920809655777 11.493589601563649 C-22.894777583996753 11.221135819012538, -23.158634358337732 10.948682036461427, -23.344447953205048 10.756814244181069 M-22.630920809655777 11.493589601563649 C-22.786068336604973 11.33338704213975, -22.94121586355417 11.17318448271585, -23.344447953205048 10.756814244181069 M-23.344447953205048 10.756814244181069 C-23.517391083176665 10.553665402973538, -23.69033421314828 10.350516561766007, -24.009303719488475 9.97583682973974 M-23.344447953205048 10.756814244181069 C-23.60413690051641 10.451768829949437, -23.86382584782777 10.146723415717807, -24.009303719488475 9.97583682973974 M-24.009303719488475 9.97583682973974 C-24.2453954049184 9.659495479658652, -24.481487090348327 9.343154129577563, -24.62275607355129 9.15386656195472 M-24.009303719488475 9.97583682973974 C-24.213922350870074 9.7016665048292, -24.418540982251674 9.42749617991866, -24.62275607355129 9.15386656195472 M-24.62275607355129 9.15386656195472 C-24.759443257988636 8.943878341010663, -24.896130442425978 8.733890120066606, -25.182284208085534 8.29428109296841 M-24.62275607355129 9.15386656195472 C-24.796823966178696 8.886451535105111, -24.970891858806098 8.619036508255503, -25.182284208085534 8.29428109296841 M-25.182284208085534 8.29428109296841 C-25.351963824403544 7.992997752271484, -25.521643440721558 7.691714411574559, -25.685588901968 7.400612643853366 M-25.182284208085534 8.29428109296841 C-25.359049279516174 7.980416809238879, -25.535814350946815 7.666552525509349, -25.685588901968 7.400612643853366 M-25.685588901968 7.400612643853366 C-25.824045572970252 7.113104404019009, -25.96250224397251 6.825596164184653, -26.130601968252996 6.476533489958307 M-25.685588901968 7.400612643853366 C-25.798212209847417 7.166747935289003, -25.910835517726834 6.932883226724639, -26.130601968252996 6.476533489958307 M-26.130601968252996 6.476533489958307 C-26.245569341788915 6.192561854581634, -26.360536715324834 5.908590219204962, -26.515494752796165 5.525840870740931 M-26.130601968252996 6.476533489958307 C-26.210390939867448 6.279453187455789, -26.2901799114819 6.082372884953271, -26.515494752796165 5.525840870740931 M-26.515494752796165 5.525840870740931 C-26.64397104392719 5.138890751771395, -26.77244733505822 4.751940632801858, -26.83868564858657 4.552441386096519 M-26.515494752796165 5.525840870740931 C-26.59881411866579 5.274896215879775, -26.682133484535413 5.023951561018619, -26.83868564858657 4.552441386096519 M-26.83868564858657 4.552441386096519 C-26.904714578179085 4.300644460441142, -26.970743507771605 4.048847534785764, -27.098846594909176 3.5603349433010343 M-26.83868564858657 4.552441386096519 C-26.895692786200794 4.335048463323751, -26.95269992381502 4.117655540550984, -27.098846594909176 3.5603349433010343 M-27.098846594909176 3.5603349433010343 C-27.16571984216023 3.21695495233269, -27.23259308941128 2.873574961364346, -27.2949085346312 2.5535983205340753 M-27.098846594909176 3.5603349433010343 C-27.167795165769856 3.2062986042170545, -27.236743736630537 2.8522622651330742, -27.2949085346312 2.5535983205340753 M-27.2949085346312 2.5535983205340753 C-27.333308300591128 2.25577731864036, -27.371708066551054 1.9579563167466443, -27.42606580718717 1.5363684145229202 M-27.2949085346312 2.5535983205340753 C-27.339250755097837 2.2096888149567078, -27.38359297556447 1.8657793093793402, -27.42606580718717 1.5363684145229202 M-27.42606580718717 1.5363684145229202 C-27.44879051903585 1.1824126844224796, -27.47151523088453 0.8284569543220391, -27.491779459211006 0.5128252411464846 M-27.42606580718717 1.5363684145229202 C-27.44516258840214 1.2389206324554196, -27.46425936961711 0.941472850387919, -27.491779459211006 0.5128252411464846 M-27.491779459211006 0.5128252411464846 C-27.491779459211006 0.3076046958565878, -27.491779459211006 0.10238415056669092, -27.491779459211006 -0.5128252411464769 M-27.491779459211006 0.5128252411464846 C-27.491779459211006 0.13199807423485876, -27.491779459211006 -0.24882909267676712, -27.491779459211006 -0.5128252411464769 M-27.491779459211006 -0.5128252411464769 C-27.47489507377142 -0.775813173198632, -27.458010688331836 -1.038801105250787, -27.42606580718717 -1.5363684145228982 M-27.491779459211006 -0.5128252411464769 C-27.477486926354565 -0.7354429771104362, -27.46319439349812 -0.9580607130743954, -27.42606580718717 -1.5363684145228982 M-27.42606580718717 -1.5363684145228982 C-27.396138254200086 -1.7684806056269518, -27.366210701213 -2.0005927967310053, -27.294908534631205 -2.5535983205340678 M-27.42606580718717 -1.5363684145228982 C-27.398481009651224 -1.7503106569773121, -27.370896212115277 -1.964252899431726, -27.294908534631205 -2.5535983205340678 M-27.294908534631205 -2.5535983205340678 C-27.25130322776477 -2.7775023553083447, -27.207697920898333 -3.0014063900826216, -27.098846594909176 -3.5603349433010267 M-27.294908534631205 -2.5535983205340678 C-27.217460408374134 -2.951278080196833, -27.140012282117063 -3.3489578398595983, -27.098846594909176 -3.5603349433010267 M-27.098846594909176 -3.5603349433010267 C-26.995021479078474 -3.9562651080533406, -26.891196363247772 -4.3521952728056545, -26.838685648586573 -4.552441386096511 M-27.098846594909176 -3.5603349433010267 C-27.03586415040101 -3.8005143009747786, -26.97288170589285 -4.0406936586485305, -26.838685648586573 -4.552441386096511 M-26.838685648586573 -4.552441386096511 C-26.74495674205058 -4.834737918909699, -26.651227835514586 -5.117034451722887, -26.515494752796172 -5.525840870740911 M-26.838685648586573 -4.552441386096511 C-26.738830896114294 -4.853187990848786, -26.63897614364202 -5.153934595601062, -26.515494752796172 -5.525840870740911 M-26.515494752796172 -5.525840870740911 C-26.38821065232234 -5.840235059781951, -26.260926551848506 -6.1546292488229914, -26.130601968253 -6.476533489958299 M-26.515494752796172 -5.525840870740911 C-26.433438491714472 -5.7285214220625935, -26.351382230632773 -5.931201973384276, -26.130601968253 -6.476533489958299 M-26.130601968253 -6.476533489958299 C-26.02331316633412 -6.699320982755468, -25.916024364415236 -6.922108475552639, -25.685588901968003 -7.400612643853359 M-26.130601968253 -6.476533489958299 C-25.984374824054466 -6.780177283646224, -25.838147679855933 -7.083821077334149, -25.685588901968003 -7.400612643853359 M-25.685588901968003 -7.400612643853359 C-25.57695870321886 -7.5934965617328825, -25.46832850446972 -7.786380479612406, -25.182284208085537 -8.294281092968404 M-25.685588901968003 -7.400612643853359 C-25.506193389182293 -7.719147542569884, -25.326797876396586 -8.037682441286409, -25.182284208085537 -8.294281092968404 M-25.182284208085537 -8.294281092968404 C-25.05921609543637 -8.483346762412985, -24.9361479827872 -8.672412431857568, -24.622756073551294 -9.153866561954715 M-25.182284208085537 -8.294281092968404 C-24.9758030511974 -8.611491597902653, -24.76932189430926 -8.928702102836903, -24.622756073551294 -9.153866561954715 M-24.622756073551294 -9.153866561954715 C-24.47727310853992 -9.34880048129919, -24.331790143528544 -9.543734400643665, -24.00930371948848 -9.975836829739734 M-24.622756073551294 -9.153866561954715 C-24.38514037204215 -9.472249954741233, -24.14752467053301 -9.79063334752775, -24.00930371948848 -9.975836829739734 M-24.00930371948848 -9.975836829739734 C-23.87632914274242 -10.13203633405342, -23.743354565996363 -10.288235838367108, -23.344447953205055 -10.756814244181063 M-24.00930371948848 -9.975836829739734 C-23.806048634893457 -10.214591817646998, -23.602793550298436 -10.453346805554263, -23.344447953205055 -10.756814244181063 M-23.344447953205055 -10.756814244181063 C-23.169257738470694 -10.937712524278412, -22.994067523736337 -11.118610804375763, -22.63092080965579 -11.493589601563633 M-23.344447953205055 -10.756814244181063 C-23.066084081521648 -11.044247795793074, -22.78772020983824 -11.331681347405086, -22.63092080965579 -11.493589601563633 M-22.63092080965579 -11.493589601563633 C-22.409355702744282 -11.69480916936918, -22.187790595832777 -11.896028737174726, -21.871654324924627 -12.18313533390614 M-22.63092080965579 -11.493589601563633 C-22.332034028230574 -11.76503066834313, -22.03314724680536 -12.036471735122626, -21.871654324924627 -12.18313533390614 M-21.871654324924627 -12.18313533390614 C-21.659202433956082 -12.352560063371303, -21.446750542987534 -12.521984792836465, -21.069768487859463 -12.822617949887302 M-21.871654324924627 -12.18313533390614 C-21.63193271582234 -12.374306937905283, -21.392211106720055 -12.565478541904426, -21.069768487859463 -12.822617949887302 M-21.069768487859463 -12.822617949887302 C-20.80800452821245 -13.005213156557877, -20.546240568565437 -13.187808363228452, -20.228558419368788 -13.409409678269444 M-21.069768487859463 -12.822617949887302 C-20.85339899907104 -12.973547938781898, -20.637029510282616 -13.124477927676494, -20.228558419368788 -13.409409678269444 M-20.228558419368788 -13.409409678269444 C-19.891484450698993 -13.613745898943586, -19.5544104820292 -13.818082119617728, -19.351480832063007 -13.941099265974229 M-20.228558419368788 -13.409409678269444 C-19.968415492754303 -13.567109849152674, -19.70827256613982 -13.724810020035902, -19.351480832063007 -13.941099265974229 M-19.351480832063007 -13.941099265974229 C-19.082869363550646 -14.08123369704327, -18.81425789503829 -14.221368128112312, -18.442139825880936 -14.415501886438705 M-19.351480832063007 -13.941099265974229 C-19.034895415820518 -14.1062616748453, -18.71830999957803 -14.271424083716369, -18.442139825880936 -14.415501886438705 M-18.442139825880936 -14.415501886438705 C-18.09793203859502 -14.567872463308952, -17.7537242513091 -14.720243040179199, -17.504272078069995 -14.830668117536344 M-18.442139825880936 -14.415501886438705 C-18.092043434686985 -14.570479173579809, -17.741947043493038 -14.725456460720913, -17.504272078069995 -14.830668117536344 M-17.504272078069995 -14.830668117536344 C-17.28723945472838 -14.910538129153638, -17.070206831386763 -14.99040814077093, -16.54173148837794 -15.184891952170695 M-17.504272078069995 -14.830668117536344 C-17.158734544072686 -14.957829124161304, -16.81319701007538 -15.084990130786263, -16.54173148837794 -15.184891952170695 M-16.54173148837794 -15.184891952170695 C-16.255857637507717 -15.269737810526513, -15.969983786637496 -15.35458366888233, -15.558473342552134 -15.476717808624466 M-16.54173148837794 -15.184891952170695 C-16.327776183617953 -15.248392763549147, -16.113820878857965 -15.311893574927598, -15.558473342552134 -15.476717808624466 M-15.558473342552134 -15.476717808624466 C-15.179998902961982 -15.563102129684387, -14.801524463371829 -15.649486450744309, -14.558538059221963 -15.704946511857043 M-15.558473342552134 -15.476717808624466 C-15.253018597903898 -15.546435860811936, -14.947563853255662 -15.616153912999405, -14.558538059221963 -15.704946511857043 M-14.558538059221963 -15.704946511857043 C-14.249086797934751 -15.754976191951588, -13.93963553664754 -15.80500587204613, -13.546034586952107 -15.868640221171937 M-14.558538059221963 -15.704946511857043 C-14.168861443371007 -15.767946405120536, -13.779184827520053 -15.830946298384031, -13.546034586952107 -15.868640221171937 M-13.546034586952107 -15.868640221171937 C-13.322315351885763 -15.890222146717042, -13.098596116819419 -15.911804072262147, -12.525123519691407 -15.967126284005381 M-13.546034586952107 -15.868640221171937 C-13.170402968187586 -15.904876951671033, -12.794771349423065 -15.94111368217013, -12.525123519691407 -15.967126284005381 M-12.525123519691407 -15.967126284005381 C-12.297458160895196 -15.974427068938237, -12.069792802098984 -15.981727853871094, -11.500000000000005 -16 M-12.525123519691407 -15.967126284005381 C-12.292265371276375 -15.97459359159416, -12.059407222861342 -15.982060899182942, -11.500000000000005 -16 M-11.500000000000005 -16 C-11.500000000000004 -16, -11.500000000000004 -16, -11.5 -16 M-11.500000000000005 -16 C-11.500000000000004 -16, -11.500000000000002 -16, -11.5 -16" stroke="#999" stroke-width="1.3" fill="none" stroke-dasharray="0 0" style=""/></g><g class="label" style="" transform="translate(0, -8.5)"><rect/><g><rect class="background" style="stroke: none"/><text y="-10.1" style=""><tspan class="text-outer-tspan row" x="0" y="-0.1em" dy="1.1em"><tspan font-style="normal" class="text-inner-tspan" font-weight="normal">开始</tspan></tspan></text></g></g></g><g class="node default" id="my-svg-flowchart-Request-1" data-look="classic" transform="translate(681.7890625, 113.5)"><rect class="basic label-container" style="" x="-86.08203125" y="-23.5" width="172.1640625" height="47"/><g class="label" style="" transform="translate(0, -8.5)"><rect/><g><rect class="background" style="stroke: none"/><text y="-10.1" style=""><tspan class="text-outer-tspan row" x="0" y="-0.1em" dy="1.1em"><tspan font-style="normal" class="text-inner-tspan" font-weight="normal">请求</tspan><tspan font-style="normal" class="text-inner-tspan" font-weight="normal"> DeepSeek</tspan></tspan></text></g></g></g><g class="node default" id="my-svg-flowchart-Check-3" data-look="classic" transform="translate(681.7890625, 266.5)"><polygon points="79.5,0 159,-79.5 79.5,-159 0,-79.5" class="label-container" transform="translate(-79, 79.5)"/><g class="label" style="" transform="translate(0, -8.5)"><rect/><g><rect class="background" style="stroke: none"/><text y="-10.1" style=""><tspan class="text-outer-tspan row" x="0" y="-0.1em" dy="1.1em"><tspan font-style="normal" class="text-inner-tspan" font-weight="normal">返回什么信号？</tspan></tspan></text></g></g></g><g class="node default" id="my-svg-flowchart-Done-5" data-look="classic" transform="translate(110, 488.5)"><rect class="basic label-container" style="" x="-102" y="-32.29999923706055" width="204" height="64.5999984741211"/><g class="label" style="" transform="translate(0, -17.299999237060547)"><rect/><g><rect class="background" style="stroke: none"/><text y="-10.1" style=""><tspan class="text-outer-tspan row" x="0" y="-0.1em" dy="1.1em"><tspan font-style="normal" class="text-inner-tspan" font-weight="normal">回到</tspan><tspan font-style="normal" class="text-inner-tspan" font-weight="normal"> Agent</tspan><tspan font-style="normal" class="text-inner-tspan" font-weight="normal"> Loop</tspan></tspan><tspan class="text-outer-tspan row" x="0" y="1em" dy="1.1em"><tspan font-style="normal" class="text-inner-tspan" font-weight="normal">执行工具或输出答案</tspan></tspan></text></g></g></g><g class="node default" id="my-svg-flowchart-L1-7" data-look="classic" transform="translate(333.5, 488.5)"><polygon points="71.5,0 143,-71.5 71.5,-143 0,-71.5" class="label-container" transform="translate(-71, 71.5)"/><g class="label" style="" transform="translate(0, -8.5)"><rect/><g><rect class="background" style="stroke: none"/><text y="-10.1" style=""><tspan class="text-outer-tspan row" x="0" y="-0.1em" dy="1.1em"><tspan font-style="normal" class="text-inner-tspan" font-weight="normal">第一次截断？</tspan></tspan></text></g></g></g><g class="node default" id="my-svg-flowchart-L2-9" data-look="classic" transform="translate(221.75, 710.5)"><rect class="basic label-container" style="" x="-118.9140625" y="-32.29999923706055" width="237.828125" height="64.5999984741211"/><g class="label" style="" transform="translate(0, -17.299999237060547)"><rect/><g><rect class="background" style="stroke: none"/><text y="-10.1" style=""><tspan class="text-outer-tspan row" x="0" y="-0.1em" dy="1.1em"><tspan font-style="normal" class="text-inner-tspan" font-weight="normal">扩大输出上限</tspan></tspan><tspan class="text-outer-tspan row" x="0" y="1em" dy="1.1em"><tspan font-style="normal" class="text-inner-tspan" font-weight="normal">用原</tspan><tspan font-style="normal" class="text-inner-tspan" font-weight="normal"> messages</tspan><tspan font-style="normal" class="text-inner-tspan" font-weight="normal"> 重新请求</tspan></tspan></text></g></g></g><g class="node default" id="my-svg-flowchart-L3-11" data-look="classic" transform="translate(470.1640625, 710.5)"><polygon points="79.5,0 159,-79.5 79.5,-159 0,-79.5" class="label-container" transform="translate(-79, 79.5)"/><g class="label" style="" transform="translate(0, -8.5)"><rect/><g><rect class="background" style="stroke: none"/><text y="-10.1" style=""><tspan class="text-outer-tspan row" x="0" y="-0.1em" dy="1.1em"><tspan font-style="normal" class="text-inner-tspan" font-weight="normal">工具调用完整？</tspan></tspan></text></g></g></g><g class="node default" id="my-svg-flowchart-Stop-13" data-look="classic" transform="translate(686.4140625, 1164.099998474121)"><rect class="basic label-container" style="" x="-62" y="-23.5" width="124" height="47"/><g class="label" style="" transform="translate(0, -8.5)"><rect/><g><rect class="background" style="stroke: none"/><text y="-10.1" style=""><tspan class="text-outer-tspan row" x="0" y="-0.1em" dy="1.1em"><tspan font-style="normal" class="text-inner-tspan" font-weight="normal">明确停止</tspan></tspan></text></g></g></g><g class="node default" id="my-svg-flowchart-L4-15" data-look="classic" transform="translate(540.4140625, 956.5)"><polygon points="95.5,0 191,-95.5 95.5,-191 0,-95.5" class="label-container" transform="translate(-95, 95.5)"/><g class="label" style="" transform="translate(0, -8.5)"><rect/><g><rect class="background" style="stroke: none"/><text y="-10.1" style=""><tspan class="text-outer-tspan row" x="0" y="-0.1em" dy="1.1em"><tspan font-style="normal" class="text-inner-tspan" font-weight="normal">续写次数还没用完？</tspan></tspan></text></g></g></g><g class="node default" id="my-svg-flowchart-L5-17" data-look="classic" transform="translate(170.0390625, 1164.099998474121)"><rect class="basic label-container" style="" x="-78" y="-41.099998474121094" width="156" height="82.19999694824219"/><g class="label" style="" transform="translate(0, -26.099998474121094)"><rect/><g><rect class="background" style="stroke: none"/><text y="-10.1" style=""><tspan class="text-outer-tspan row" x="0" y="-0.1em" dy="1.1em"><tspan font-style="normal" class="text-inner-tspan" font-weight="normal">保存文本片段</tspan></tspan><tspan class="text-outer-tspan row" x="0" y="1em" dy="1.1em"><tspan font-style="normal" class="text-inner-tspan" font-weight="normal">追加续写提示</tspan></tspan><tspan class="text-outer-tspan row" x="0" y="2.1em" dy="1.1em"><tspan font-style="normal" class="text-inner-tspan" font-weight="normal">重新请求</tspan></tspan></text></g></g></g><g class="node default" id="my-svg-flowchart-C1-21" data-look="classic" transform="translate(770.2890625, 956.5)"><polygon points="71.5,0 143,-71.5 71.5,-143 0,-71.5" class="label-container" transform="translate(-71, 71.5)"/><g class="label" style="" transform="translate(0, -8.5)"><rect/><g><rect class="background" style="stroke: none"/><text y="-10.1" style=""><tspan class="text-outer-tspan row" x="0" y="-0.1em" dy="1.1em"><tspan font-style="normal" class="text-inner-tspan" font-weight="normal">已经压缩过？</tspan></tspan></text></g></g></g><g class="node default" id="my-svg-flowchart-C2-23" data-look="classic" transform="translate(388.7890625, 1164.099998474121)"><rect class="basic label-container" style="" x="-90.75" y="-32.29999923706055" width="181.5" height="64.5999984741211"/><g class="label" style="" transform="translate(0, -17.299999237060547)"><rect/><g><rect class="background" style="stroke: none"/><text y="-10.1" style=""><tspan class="text-outer-tspan row" x="0" y="-0.1em" dy="1.1em"><tspan font-style="normal" class="text-inner-tspan" font-weight="normal">reactive</tspan><tspan font-style="normal" class="text-inner-tspan" font-weight="normal"> compact</tspan></tspan><tspan class="text-outer-tspan row" x="0" y="1em" dy="1.1em"><tspan font-style="normal" class="text-inner-tspan" font-weight="normal">重新请求</tspan></tspan></text></g></g></g><g class="node default" id="my-svg-flowchart-R1-27" data-look="classic" transform="translate(1001.7890625, 956.5)"><polygon points="95.5,0 191,-95.5 95.5,-191 0,-95.5" class="label-container" transform="translate(-95, 95.5)"/><g class="label" style="" transform="translate(0, -8.5)"><rect/><g><rect class="background" style="stroke: none"/><text y="-10.1" style=""><tspan class="text-outer-tspan row" x="0" y="-0.1em" dy="1.1em"><tspan font-style="normal" class="text-inner-tspan" font-weight="normal">重试次数还没用完？</tspan></tspan></text></g></g></g><g class="node default" id="my-svg-flowchart-R2-29" data-look="classic" transform="translate(1067.0390625, 1164.099998474121)"><rect class="basic label-container" style="" x="-94" y="-41.099998474121094" width="188" height="82.19999694824219"/><g class="label" style="" transform="translate(0, -26.099998474121094)"><rect/><g><rect class="background" style="stroke: none"/><text y="-10.1" style=""><tspan class="text-outer-tspan row" x="0" y="-0.1em" dy="1.1em"><tspan font-style="normal" class="text-inner-tspan" font-weight="normal">等待</tspan><tspan font-style="normal" class="text-inner-tspan" font-weight="normal"> +</tspan><tspan font-style="normal" class="text-inner-tspan" font-weight="normal"> 抖动</tspan></tspan><tspan class="text-outer-tspan row" x="0" y="1em" dy="1.1em"><tspan font-style="normal" class="text-inner-tspan" font-weight="normal">必要时切备用模型</tspan></tspan><tspan class="text-outer-tspan row" x="0" y="2.1em" dy="1.1em"><tspan font-style="normal" class="text-inner-tspan" font-weight="normal">重新请求</tspan></tspan></text></g></g></g></g></g></g><defs><filter id="my-svg-drop-shadow" height="130%" width="130%"><feDropShadow dx="4" dy="4" stdDeviation="0" flood-opacity="0.06" flood-color="#000000"/></filter></defs><defs><filter id="my-svg-drop-shadow-small" height="150%" width="150%"><feDropShadow dx="2" dy="2" stdDeviation="0" flood-opacity="0.06" flood-color="#000000"/></filter></defs><linearGradient id="my-svg-gradient" gradientUnits="objectBoundingBox" x1="0%" y1="0%" x2="100%" y2="0%"><stop offset="0%" stop-color="hsl(0, 0%, 83.3333333333%)" stop-opacity="1"/><stop offset="100%" stop-color="hsl(0, 0%, 88.9215686275%)" stop-opacity="1"/></linearGradient></svg>