<svg width="287.6171875" height="751.5999755859375" id="my-svg" xmlns="http://www.w3.org/2000/svg" xmlns:xlink="http://www.w3.org/1999/xlink" class="classDiagram" style="max-width: 287.617px; background-color: white;" viewBox="0 0 287.6171875 751.5999755859375" role="graphics-document document" aria-roledescription="class"><style>#my-svg{font-family:"trebuchet ms",verdana,arial,sans-serif;font-size:16px;fill:#000000;}@keyframes edge-animation-frame{from{stroke-dashoffset:0;}}@keyframes dash{to{stroke-dashoffset:0;}}#my-svg .edge-animation-slow{stroke-dasharray:9,5!important;stroke-dashoffset:900;animation:dash 50s linear infinite;stroke-linecap:round;}#my-svg .edge-animation-fast{stroke-dasharray:9,5!important;stroke-dashoffset:900;animation:dash 20s linear infinite;stroke-linecap:round;}#my-svg .error-icon{fill:#552222;}#my-svg .error-text{fill:#552222;stroke:#552222;}#my-svg .edge-thickness-normal{stroke-width:1px;}#my-svg .edge-thickness-thick{stroke-width:3.5px;}#my-svg .edge-pattern-solid{stroke-dasharray:0;}#my-svg .edge-thickness-invisible{stroke-width:0;fill:none;}#my-svg .edge-pattern-dashed{stroke-dasharray:3;}#my-svg .edge-pattern-dotted{stroke-dasharray:2;}#my-svg .marker{fill:#666;stroke:#666;}#my-svg .marker.cross{stroke:#666;}#my-svg svg{font-family:"trebuchet ms",verdana,arial,sans-serif;font-size:16px;}#my-svg p{margin:0;}#my-svg g.classGroup text{fill:#999;stroke:none;font-family:"trebuchet ms",verdana,arial,sans-serif;font-size:10px;}#my-svg g.classGroup text .title{font-weight:bolder;}#my-svg .cluster-label text{fill:#333;}#my-svg .cluster-label span{color:#333;}#my-svg .cluster-label span p{background-color:transparent;}#my-svg .cluster rect{fill:hsl(0, 0%, 98.9215686275%);stroke:#707070;stroke-width:1px;}#my-svg .cluster text{fill:#333;}#my-svg .cluster span{color:#333;}#my-svg .nodeLabel,#my-svg .edgeLabel{color:#111111;}#my-svg .noteLabel .nodeLabel,#my-svg .noteLabel .edgeLabel{color:#fff;}#my-svg .edgeLabel .label rect{fill:#eee;}#my-svg .label text{fill:#111111;}#my-svg .labelBkg{background:#eee;}#my-svg .edgeLabel .label span{background:#eee;}#my-svg .classTitle{font-weight:bolder;}#my-svg .node rect,#my-svg .node circle,#my-svg .node ellipse,#my-svg .node polygon,#my-svg .node path{fill:#eee;stroke:#999;stroke-width:1;}#my-svg .divider{stroke:#999;stroke-width:1;}#my-svg g.clickable{cursor:pointer;}#my-svg g.classGroup rect{fill:#eee;stroke:#999;}#my-svg g.classGroup line{stroke:#999;stroke-width:1;}#my-svg .classLabel .box{stroke:none;stroke-width:0;fill:#eee;opacity:0.5;}#my-svg .classLabel .label{fill:#999;font-size:10px;}#my-svg .relation{stroke:#666;stroke-width:1;fill:none;}#my-svg .dashed-line{stroke-dasharray:3;}#my-svg .dotted-line{stroke-dasharray:1 2;}#my-svg [id$="-compositionStart"],#my-svg .composition{fill:#666!important;stroke:#666!important;stroke-width:1;}#my-svg [id$="-compositionEnd"],#my-svg .composition{fill:#666!important;stroke:#666!important;stroke-width:1;}#my-svg [id$="-dependencyStart"],#my-svg .dependency{fill:#666!important;stroke:#666!important;stroke-width:1;}#my-svg [id$="-dependencyEnd"],#my-svg .dependency{fill:#666!important;stroke:#666!important;stroke-width:1;}#my-svg [id$="-extensionStart"],#my-svg .extension{fill:transparent!important;stroke:#666!important;stroke-width:1;}#my-svg [id$="-extensionEnd"],#my-svg .extension{fill:transparent!important;stroke:#666!important;stroke-width:1;}#my-svg [id$="-aggregationStart"],#my-svg .aggregation{fill:transparent!important;stroke:#666!important;stroke-width:1;}#my-svg [id$="-aggregationEnd"],#my-svg .aggregation{fill:transparent!important;stroke:#666!important;stroke-width:1;}#my-svg [id$="-lollipopStart"],#my-svg .lollipop{fill:#eee!important;stroke:#666!important;stroke-width:1;}#my-svg [id$="-lollipopEnd"],#my-svg .lollipop{fill:#eee!important;stroke:#666!important;stroke-width:1;}#my-svg .edgeTerminals{font-size:11px;line-height:initial;}#my-svg .classTitleText{text-anchor:middle;font-size:18px;fill:#000000;}#my-svg .edgeLabel[data-look="neo"]{background-color:white;text-align:center;}#my-svg .edgeLabel[data-look="neo"] p{background-color:white;}#my-svg .edgeLabel[data-look="neo"] rect{opacity:0.5;background-color:white;fill:white;}#my-svg .label-icon{display:inline-block;height:1em;overflow:visible;vertical-align:-0.125em;}#my-svg .node .label-icon path{fill:currentColor;stroke:revert;stroke-width:revert;}#my-svg .node .neo-node{stroke:#999;}#my-svg [data-look="neo"].node rect,#my-svg [data-look="neo"].cluster rect,#my-svg [data-look="neo"].node polygon{stroke:url(#my-svg-gradient);filter:drop-shadow( 1px 2px 2px rgba(185,185,185,1));}#my-svg [data-look="neo"].node path{stroke:url(#my-svg-gradient);stroke-width:1px;}#my-svg [data-look="neo"].node .outer-path{filter:drop-shadow( 1px 2px 2px rgba(185,185,185,1));}#my-svg [data-look="neo"].node .neo-line path{stroke:#999;filter:none;}#my-svg [data-look="neo"].node circle{stroke:url(#my-svg-gradient);filter:drop-shadow( 1px 2px 2px rgba(185,185,185,1));}#my-svg [data-look="neo"].node circle .state-start{fill:#000000;}#my-svg [data-look="neo"].icon-shape .icon{fill:url(#my-svg-gradient);filter:drop-shadow( 1px 2px 2px rgba(185,185,185,1));}#my-svg [data-look="neo"].icon-shape .icon-neo path{stroke:url(#my-svg-gradient);filter:drop-shadow( 1px 2px 2px rgba(185,185,185,1));}#my-svg :root{--mermaid-font-family:"trebuchet ms",verdana,arial,sans-serif;}</style><g><defs><marker id="my-svg_class-aggregationStart" class="marker aggregation class" refX="18" refY="7" markerWidth="190" markerHeight="240" orient="auto"><path d="M 18,7 L9,13 L1,7 L9,1 Z"/></marker></defs><defs><marker id="my-svg_class-aggregationEnd" class="marker aggregation class" refX="1" refY="7" markerWidth="20" markerHeight="28" orient="auto"><path d="M 18,7 L9,13 L1,7 L9,1 Z"/></marker></defs><defs><marker id="my-svg_class-aggregationStart-margin" class="marker aggregation class" refX="15" refY="7" markerWidth="190" markerHeight="240" orient="auto" markerUnits="userSpaceOnUse"><path d="M 18,7 L9,13 L1,7 L9,1 Z" style="stroke-width: 2;"/></marker></defs><defs><marker id="my-svg_class-aggregationEnd-margin" class="marker aggregation class" refX="1" refY="7" markerWidth="20" markerHeight="28" orient="auto" markerUnits="userSpaceOnUse"><path d="M 18,7 L9,13 L1,7 L9,1 Z" style="stroke-width: 2;"/></marker></defs><defs><marker id="my-svg_class-extensionStart" class="marker extension class" refX="18" refY="7" markerWidth="20" markerHeight="28" orient="auto" markerUnits="userSpaceOnUse"><path d="M 1,7 L18,13 V 1 Z"/></marker></defs><defs><marker id="my-svg_class-extensionEnd" class="marker extension class" refX="1" refY="7" markerWidth="20" markerHeight="28" orient="auto"><path d="M 1,1 V 13 L18,7 Z"/></marker></defs><marker id="my-svg_class-extensionStart-margin" class="marker extension class" refX="18" refY="7" markerWidth="20" markerHeight="28" orient="auto" markerUnits="userSpaceOnUse" viewBox="0 0 20 14"><polygon points="10,7 18,13 18,1" style="stroke-width: 2; stroke-dasharray: 0;"/></marker><defs><marker id="my-svg_class-extensionEnd-margin" class="marker extension class" refX="9" refY="7" markerWidth="20" markerHeight="28" orient="auto" markerUnits="userSpaceOnUse" viewBox="0 0 20 14"><polygon points="10,1 10,13 18,7" style="stroke-width: 2; stroke-dasharray: 0;"/></marker></defs><defs><marker id="my-svg_class-compositionStart" class="marker composition class" refX="18" refY="7" markerWidth="190" markerHeight="240" orient="auto"><path d="M 18,7 L9,13 L1,7 L9,1 Z"/></marker></defs><defs><marker id="my-svg_class-compositionEnd" class="marker composition class" refX="1" refY="7" markerWidth="20" markerHeight="28" orient="auto"><path d="M 18,7 L9,13 L1,7 L9,1 Z"/></marker></defs><defs><marker id="my-svg_class-compositionStart-margin" class="marker composition class" refX="15" refY="7" markerWidth="190" markerHeight="240" orient="auto" markerUnits="userSpaceOnUse"><path viewBox="0 0 15 15" d="M 18,7 L9,13 L1,7 L9,1 Z" style="stroke-width: 0;"/></marker></defs><defs><marker id="my-svg_class-compositionEnd-margin" class="marker composition class" refX="3.5" refY="7" markerWidth="20" markerHeight="28" orient="auto" markerUnits="userSpaceOnUse"><path d="M 18,7 L9,13 L1,7 L9,1 Z" style="stroke-width: 0;"/></marker></defs><defs><marker id="my-svg_class-dependencyStart" class="marker dependency class" refX="6" refY="7" markerWidth="190" markerHeight="240" orient="auto"><path d="M 5,7 L9,13 L1,7 L9,1 Z"/></marker></defs><defs><marker id="my-svg_class-dependencyEnd" class="marker dependency class" refX="13" refY="7" markerWidth="20" markerHeight="28" orient="auto"><path d="M 18,7 L9,13 L14,7 L9,1 Z"/></marker></defs><defs><marker id="my-svg_class-dependencyStart-margin" class="marker dependency class" refX="4" refY="7" markerWidth="190" markerHeight="240" orient="auto" markerUnits="userSpaceOnUse"><path d="M 5,7 L9,13 L1,7 L9,1 Z" style="stroke-width: 0;"/></marker></defs><defs><marker id="my-svg_class-dependencyEnd-margin" class="marker dependency class" refX="16" refY="7" markerWidth="20" markerHeight="28" orient="auto" markerUnits="userSpaceOnUse"><path d="M 18,7 L9,13 L14,7 L9,1 Z" style="stroke-width: 0;"/></marker></defs><defs><marker id="my-svg_class-lollipopStart" class="marker lollipop class" refX="13" refY="7" markerWidth="190" markerHeight="240" orient="auto"><circle fill="transparent" cx="7" cy="7" r="6"/></marker></defs><defs><marker id="my-svg_class-lollipopEnd" class="marker lollipop class" refX="1" refY="7" markerWidth="190" markerHeight="240" orient="auto"><circle fill="transparent" cx="7" cy="7" r="6"/></marker></defs><defs><marker id="my-svg_class-lollipopStart-margin" class="marker lollipop class" refX="13" refY="7" markerWidth="190" markerHeight="240" orient="auto" markerUnits="userSpaceOnUse"><circle fill="transparent" cx="7" cy="7" r="6" stroke-width="2"/></marker></defs><defs><marker id="my-svg_class-lollipopEnd-margin" class="marker lollipop class" refX="1" refY="7" markerWidth="190" markerHeight="240" orient="auto" markerUnits="userSpaceOnUse"><circle fill="transparent" cx="7" cy="7" r="6" stroke-width="2"/></marker></defs><g class="root"><g class="clusters"/><g class="edgePaths"><path d="M67.583,250L64.652,257.55C61.722,265.1,55.861,280.2,52.93,304.467C50,328.733,50,362.167,50,394.133C50,426.1,50,456.6,52.277,477.018C54.554,497.436,59.108,507.773,61.385,512.941L63.662,518.109" id="my-svg-id_BackgroundTask_TaskNotification_1" class="edge-thickness-normal edge-pattern-solid relation" style=";;;" data-edge="true" data-et="edge" data-id="id_BackgroundTask_TaskNotification_1" data-points="W3sieCI6NjcuNTgyNTIxOTU4MzIyNTYsInkiOjI1MH0seyJ4Ijo1MCwieSI6Mjk1LjI5OTk5OTIzNzA2MDU1fSx7IngiOjUwLCJ5IjozOTUuNTk5OTk4NDc0MTIxMX0seyJ4Ijo1MCwieSI6NDg3LjA5OTk5ODQ3NDEyMTF9LHsieCI6NjYuMDgxNjQ0NjI0NTczMzksInkiOjUyMy41OTk5OTg0NzQxMjExfV0=" data-look="classic" marker-end="url(#my-svg_class-dependencyEnd)"/><path d="M161.511,250L164.442,257.55C167.372,265.1,173.233,280.2,176.163,294.3C179.094,308.4,179.094,321.5,179.094,328.05L179.094,334.6" id="my-svg-id_BackgroundTask_OutputFile_2" class="edge-thickness-normal edge-pattern-solid relation" style=";;;" data-edge="true" data-et="edge" data-id="id_BackgroundTask_OutputFile_2" data-points="W3sieCI6MTYxLjUxMTIyODA0MTY3NzQ0LCJ5IjoyNTB9LHsieCI6MTc5LjA5Mzc1LCJ5IjoyOTUuMjk5OTk5MjM3MDYwNTV9LHsieCI6MTc5LjA5Mzc1LCJ5IjozNDAuNTk5OTk4NDc0MTIxMX1d" data-look="classic" marker-end="url(#my-svg_class-dependencyEnd)"/><path d="M179.094,450.6L179.094,456.683C179.094,462.767,179.094,474.933,176.817,486.185C174.54,497.436,169.985,507.773,167.708,512.941L165.431,518.109" id="my-svg-id_OutputFile_TaskNotification_3" class="edge-thickness-normal edge-pattern-solid relation" style=";;;" data-edge="true" data-et="edge" data-id="id_OutputFile_TaskNotification_3" data-points="W3sieCI6MTc5LjA5Mzc1LCJ5Ijo0NTAuNTk5OTk4NDc0MTIxMX0seyJ4IjoxNzkuMDkzNzUsInkiOjQ4Ny4wOTk5OTg0NzQxMjExfSx7IngiOjE2My4wMTIxMDUzNzU0MjY2MSwieSI6NTIzLjU5OTk5ODQ3NDEyMTF9XQ==" data-look="classic" marker-end="url(#my-svg_class-dependencyEnd)"/></g><g class="edgeLabels"><g class="edgeLabel" transform="translate(50, 395.5999984741211)"><g class="label" data-id="id_BackgroundTask_TaskNotification_1" transform="translate(0, -10.5)"><g><rect class="background" style="" x="-42" y="-1" width="84" height="23"/><text y="-10.1" text-anchor="middle" style=""><tspan class="text-outer-tspan row" x="0" y="-0.1em" dy="1.1em" text-anchor="middle"><tspan font-style="normal" class="text-inner-tspan" font-weight="normal">完成后转换</tspan></tspan></text></g></g></g><g class="edgeLabel" transform="translate(179.09375, 295.29999923706055)"><g class="label" data-id="id_BackgroundTask_OutputFile_2" transform="translate(0, -19.299999237060547)"><g><rect class="background" style="" x="-100.5234375" y="-1" width="201.046875" height="40.599998474121094"/><text y="-10.1" text-anchor="middle" style=""><tspan class="text-outer-tspan row" x="0" y="-0.1em" dy="1.1em" text-anchor="middle"><tspan font-style="normal" class="text-inner-tspan" font-weight="normal">大输出落盘到</tspan></tspan><tspan class="text-outer-tspan row" x="0" y="1em" dy="1.1em" text-anchor="middle"><tspan font-style="normal" class="text-inner-tspan" font-weight="normal">.task_outputs/background/</tspan></tspan></text></g></g></g><g class="edgeLabel" transform="translate(179.09375, 487.0999984741211)"><g class="label" data-id="id_OutputFile_TaskNotification_3" transform="translate(0, -10.5)"><g><rect class="background" style="" x="-58" y="-1" width="116" height="23"/><text y="-10.1" text-anchor="middle" style=""><tspan class="text-outer-tspan row" x="0" y="-0.1em" dy="1.1em" text-anchor="middle"><tspan font-style="normal" class="text-inner-tspan" font-weight="normal">只回填文件路径</tspan></tspan></text></g></g></g></g><g class="nodes"><g class="node default" id="my-svg-classId-BackgroundTask-0" data-look="classic" transform="translate(114.546875, 129)"><g class="basic label-container outer-path"><path d="M-87.7890625 -121 L87.7890625 -121 L87.7890625 121 L-87.7890625 121" stroke="none" stroke-width="0" fill="#eee" style=""/><path d="M-87.7890625 -121 C-31.057354652704284 -121, 25.674353194591433 -121, 87.7890625 -121 M-87.7890625 -121 C-21.81045073079835 -121, 44.1681610384033 -121, 87.7890625 -121 M87.7890625 -121 C87.7890625 -64.00455386395927, 87.7890625 -7.009107727918547, 87.7890625 121 M87.7890625 -121 C87.7890625 -29.04599783741537, 87.7890625 62.90800432516926, 87.7890625 121 M87.7890625 121 C32.23401332326845 121, -23.3210358534631 121, -87.7890625 121 M87.7890625 121 C38.95347877083778 121, -9.882104958324433 121, -87.7890625 121 M-87.7890625 121 C-87.7890625 36.18418665569553, -87.7890625 -48.63162668860895, -87.7890625 -121 M-87.7890625 121 C-87.7890625 72.5530547482499, -87.7890625 24.106109496499826, -87.7890625 -121" stroke="#999" stroke-width="1.3" fill="none" stroke-dasharray="0 0" style=""/></g><g class="annotation-group text" transform="translate(0, -101)"/><g class="label-group text" transform="translate(-59.65625, -101)"><g class="label" style="font-weight: bolder" transform="translate(0,-9.5)"><g><rect class="background" style="stroke: none"/><text y="-10.1" style=""><tspan class="text-outer-tspan row" x="0" y="-0.1em" dy="1.1em" font-weight=""><tspan font-style="normal" class="text-inner-tspan" font-weight="">BackgroundTask</tspan></tspan></text></g></g></g><g class="members-group text" transform="translate(-75.7890625, -58)"><g class="label" style="" transform="translate(0,-9.5)"><g><rect class="background" style="stroke: none"/><text y="-10.1" style=""><tspan class="text-outer-tspan row" x="0" y="-0.1em" dy="1.1em"><tspan font-style="normal" class="text-inner-tspan" font-weight="normal">id</tspan></tspan></text></g></g><g class="label" style="" transform="translate(0,12.5)"><g><rect class="background" style="stroke: none"/><text y="-10.1" style=""><tspan class="text-outer-tspan row" x="0" y="-0.1em" dy="1.1em"><tspan font-style="normal" class="text-inner-tspan" font-weight="normal">toolCallId</tspan></tspan></text></g></g><g class="label" style="" transform="translate(0,34.5)"><g><rect class="background" style="stroke: none"/><text y="-10.1" style=""><tspan class="text-outer-tspan row" x="0" y="-0.1em" dy="1.1em"><tspan font-style="normal" class="text-inner-tspan" font-weight="normal">command</tspan></tspan></text></g></g><g class="label" style="" transform="translate(0,56.5)"><g><rect class="background" style="stroke: none"/><text y="-10.1" style=""><tspan class="text-outer-tspan row" x="0" y="-0.1em" dy="1.1em"><tspan font-style="normal" class="text-inner-tspan" font-weight="normal">status</tspan></tspan></text></g></g><g class="label" style="" transform="translate(0,78.5)"><g><rect class="background" style="stroke: none"/><text y="-10.1" style=""><tspan class="text-outer-tspan row" x="0" y="-0.1em" dy="1.1em"><tspan font-style="normal" class="text-inner-tspan" font-weight="normal">startedAt</tspan></tspan></text></g></g><g class="label" style="" transform="translate(0,100.5)"><g><rect class="background" style="stroke: none"/><text y="-10.1" style=""><tspan class="text-outer-tspan row" x="0" y="-0.1em" dy="1.1em"><tspan font-style="normal" class="text-inner-tspan" font-weight="normal">completedAt</tspan></tspan></text></g></g><g class="label" style="" transform="translate(0,122.5)"><g><rect class="background" style="stroke: none"/><text y="-10.1" style=""><tspan class="text-outer-tspan row" x="0" y="-0.1em" dy="1.1em"><tspan font-style="normal" class="text-inner-tspan" font-weight="normal">output</tspan></tspan></text></g></g></g><g class="methods-group text" transform="translate(-75.7890625, 117)"/><g class="divider" style=""><path d="M-87.7890625 -78 C-41.062098344415084 -77.99973386796245, 5.6648658111698325 -77.9994677359249, 87.7890625 -77.999 M-87.7890625 -78 C-41.34014719412593 -77.99973545158142, 5.108768111748134 -77.99947090316284, 87.7890625 -77.999" stroke="#999" stroke-width="1.3" fill="none" stroke-dasharray="0 0" style=""/></g><g class="divider" style=""><path d="M-87.7890625 97 C-22.638086612627404 97.00037106544957, 42.51288927474519 97.00074213089914, 87.7890625 97.001 M-87.7890625 97 C-44.86198076162224 97.00024448992002, -1.9348990232444834 97.00048897984004, 87.7890625 97.001" stroke="#999" stroke-width="1.3" fill="none" stroke-dasharray="0 0" style=""/></g></g><g class="node default" id="my-svg-classId-TaskNotification-1" data-look="classic" transform="translate(114.546875, 633.5999984741211)"><g class="basic label-container outer-path"><path d="M-88.9296875 -110 L88.9296875 -110 L88.9296875 110 L-88.9296875 110" stroke="none" stroke-width="0" fill="#eee" style=""/><path d="M-88.9296875 -110 C-44.38509612756178 -110, 0.15949524487643885 -110, 88.9296875 -110 M-88.9296875 -110 C-48.87076712042526 -110, -8.811846740850527 -110, 88.9296875 -110 M88.9296875 -110 C88.9296875 -57.329676200120524, 88.9296875 -4.659352400241048, 88.9296875 110 M88.9296875 -110 C88.9296875 -40.576674938123034, 88.9296875 28.846650123753932, 88.9296875 110 M88.9296875 110 C51.93653294637024 110, 14.943378392740485 110, -88.9296875 110 M88.9296875 110 C48.693992702695304 110, 8.458297905390609 110, -88.9296875 110 M-88.9296875 110 C-88.9296875 62.34265761401058, -88.9296875 14.685315228021153, -88.9296875 -110 M-88.9296875 110 C-88.9296875 58.33607902587402, -88.9296875 6.672158051748042, -88.9296875 -110" stroke="#999" stroke-width="1.3" fill="none" stroke-dasharray="0 0" style=""/></g><g class="annotation-group text" transform="translate(0, -90)"/><g class="label-group text" transform="translate(-60.03125, -90)"><g class="label" style="font-weight: bolder" transform="translate(0,-9.5)"><g><rect class="background" style="stroke: none"/><text y="-10.1" style=""><tspan class="text-outer-tspan row" x="0" y="-0.1em" dy="1.1em" font-weight=""><tspan font-style="normal" class="text-inner-tspan" font-weight="">TaskNotification</tspan></tspan></text></g></g></g><g class="members-group text" transform="translate(-76.9296875, -47)"><g class="label" style="" transform="translate(0,-9.5)"><g><rect class="background" style="stroke: none"/><text y="-10.1" style=""><tspan class="text-outer-tspan row" x="0" y="-0.1em" dy="1.1em"><tspan font-style="normal" class="text-inner-tspan" font-weight="normal">task_id</tspan></tspan></text></g></g><g class="label" style="" transform="translate(0,12.5)"><g><rect class="background" style="stroke: none"/><text y="-10.1" style=""><tspan class="text-outer-tspan row" x="0" y="-0.1em" dy="1.1em"><tspan font-style="normal" class="text-inner-tspan" font-weight="normal">status</tspan></tspan></text></g></g><g class="label" style="" transform="translate(0,34.5)"><g><rect class="background" style="stroke: none"/><text y="-10.1" style=""><tspan class="text-outer-tspan row" x="0" y="-0.1em" dy="1.1em"><tspan font-style="normal" class="text-inner-tspan" font-weight="normal">command</tspan></tspan></text></g></g><g class="label" style="" transform="translate(0,56.5)"><g><rect class="background" style="stroke: none"/><text y="-10.1" style=""><tspan class="text-outer-tspan row" x="0" y="-0.1em" dy="1.1em"><tspan font-style="normal" class="text-inner-tspan" font-weight="normal">output_chars</tspan></tspan></text></g></g><g class="label" style="" transform="translate(0,78.5)"><g><rect class="background" style="stroke: none"/><text y="-10.1" style=""><tspan class="text-outer-tspan row" x="0" y="-0.1em" dy="1.1em"><tspan font-style="normal" class="text-inner-tspan" font-weight="normal">summary</tspan></tspan></text></g></g><g class="label" style="" transform="translate(0,100.5)"><g><rect class="background" style="stroke: none"/><text y="-10.1" style=""><tspan class="text-outer-tspan row" x="0" y="-0.1em" dy="1.1em"><tspan font-style="normal" class="text-inner-tspan" font-weight="normal">output_path</tspan></tspan></text></g></g></g><g class="methods-group text" transform="translate(-76.9296875, 106)"/><g class="divider" style=""><path d="M-88.9296875 -67 C-46.67196204027573 -66.99976240934468, -4.41423658055146 -66.99952481868937, 88.9296875 -66.999 M-88.9296875 -67 C-41.16317676349189 -66.99973143664349, 6.60333397301622 -66.99946287328699, 88.9296875 -66.999" stroke="#999" stroke-width="1.3" fill="none" stroke-dasharray="0 0" style=""/></g><g class="divider" style=""><path d="M-88.9296875 86 C-36.40314532829211 86.00029532624959, 16.123396843415776 86.00059065249917, 88.9296875 86.001 M-88.9296875 86 C-22.78006124922507 86.00037192094176, 43.36956500154986 86.00074384188352, 88.9296875 86.001" stroke="#999" stroke-width="1.3" fill="none" stroke-dasharray="0 0" style=""/></g></g><g class="node default" id="my-svg-classId-OutputFile-2" data-look="classic" transform="translate(179.09375, 395.5999984741211)"><g class="basic label-container outer-path"><path d="M-52.09375 -55 L52.09375 -55 L52.09375 55 L-52.09375 55" stroke="none" stroke-width="0" fill="#eee" style=""/><path d="M-52.09375 -55 C-27.419853313615658 -55, -2.7459566272313154 -55, 52.09375 -55 M-52.09375 -55 C-20.878579141933766 -55, 10.336591716132467 -55, 52.09375 -55 M52.09375 -55 C52.09375 -27.41073641232731, 52.09375 0.17852717534537987, 52.09375 55 M52.09375 -55 C52.09375 -28.44821753055307, 52.09375 -1.8964350611061391, 52.09375 55 M52.09375 55 C22.62980418095849 55, -6.834141638083018 55, -52.09375 55 M52.09375 55 C20.744942380679003 55, -10.603865238641994 55, -52.09375 55 M-52.09375 55 C-52.09375 21.225538602731447, -52.09375 -12.548922794537106, -52.09375 -55 M-52.09375 55 C-52.09375 30.98027160669802, -52.09375 6.960543213396043, -52.09375 -55" stroke="#999" stroke-width="1.3" fill="none" stroke-dasharray="0 0" style=""/></g><g class="annotation-group text" transform="translate(0, -35)"/><g class="label-group text" transform="translate(-40.09375, -35)"><g class="label" style="font-weight: bolder" transform="translate(0,-9.5)"><g><rect class="background" style="stroke: none"/><text y="-10.1" style=""><tspan class="text-outer-tspan row" x="0" y="-0.1em" dy="1.1em" font-weight=""><tspan font-style="normal" class="text-inner-tspan" font-weight="">OutputFile</tspan></tspan></text></g></g></g><g class="members-group text" transform="translate(-40.09375, 8)"><g class="label" style="" transform="translate(0,-9.5)"><g><rect class="background" style="stroke: none"/><text y="-10.1" style=""><tspan class="text-outer-tspan row" x="0" y="-0.1em" dy="1.1em"><tspan font-style="normal" class="text-inner-tspan" font-weight="normal">path</tspan></tspan></text></g></g></g><g class="methods-group text" transform="translate(-40.09375, 51)"/><g class="divider" style=""><path d="M-52.09375 -12 C-29.084812527174353 -11.999779158368588, -6.075875054348707 -11.999558316737174, 52.09375 -11.999 M-52.09375 -12 C-12.437174890416273 -11.999619373004347, 27.219400219167454 -11.999238746008695, 52.09375 -11.999" stroke="#999" stroke-width="1.3" fill="none" stroke-dasharray="0 0" style=""/></g><g class="divider" style=""><path d="M-52.09375 31 C-21.571057277672185 31.00029295925828, 8.95163544465563 31.000585918516567, 52.09375 31.001 M-52.09375 31 C-14.947782602343835 31.000356529981023, 22.19818479531233 31.00071305996204, 52.09375 31.001" stroke="#999" stroke-width="1.3" fill="none" stroke-dasharray="0 0" style=""/></g></g></g></g></g><defs><filter id="my-svg-drop-shadow" height="130%" width="130%"><feDropShadow dx="4" dy="4" stdDeviation="0" flood-opacity="0.06" flood-color="#000000"/></filter></defs><defs><filter id="my-svg-drop-shadow-small" height="150%" width="150%"><feDropShadow dx="2" dy="2" stdDeviation="0" flood-opacity="0.06" flood-color="#000000"/></filter></defs><linearGradient id="my-svg-gradient" gradientUnits="objectBoundingBox" x1="0%" y1="0%" x2="100%" y2="0%"><stop offset="0%" stop-color="hsl(0, 0%, 83.3333333333%)" stop-opacity="1"/><stop offset="100%" stop-color="hsl(0, 0%, 88.9215686275%)" stop-opacity="1"/></linearGradient></svg>