<svg width="1174.2890625" height="1213.199951171875" id="my-svg" xmlns="http://www.w3.org/2000/svg" xmlns:xlink="http://www.w3.org/1999/xlink" class="flowchart" style="max-width: 1174.29px; background-color: white;" viewBox="0 0 1174.2890625 1213.199951171875" role="graphics-document document" aria-roledescription="flowchart-v2"><style>#my-svg{font-family:"trebuchet ms",verdana,arial,sans-serif;font-size:16px;fill:#000000;}@keyframes edge-animation-frame{from{stroke-dashoffset:0;}}@keyframes dash{to{stroke-dashoffset:0;}}#my-svg .edge-animation-slow{stroke-dasharray:9,5!important;stroke-dashoffset:900;animation:dash 50s linear infinite;stroke-linecap:round;}#my-svg .edge-animation-fast{stroke-dasharray:9,5!important;stroke-dashoffset:900;animation:dash 20s linear infinite;stroke-linecap:round;}#my-svg .error-icon{fill:#552222;}#my-svg .error-text{fill:#552222;stroke:#552222;}#my-svg .edge-thickness-normal{stroke-width:1px;}#my-svg .edge-thickness-thick{stroke-width:3.5px;}#my-svg .edge-pattern-solid{stroke-dasharray:0;}#my-svg .edge-thickness-invisible{stroke-width:0;fill:none;}#my-svg .edge-pattern-dashed{stroke-dasharray:3;}#my-svg .edge-pattern-dotted{stroke-dasharray:2;}#my-svg .marker{fill:#666;stroke:#666;}#my-svg .marker.cross{stroke:#666;}#my-svg svg{font-family:"trebuchet ms",verdana,arial,sans-serif;font-size:16px;}#my-svg p{margin:0;}#my-svg .label{font-family:"trebuchet ms",verdana,arial,sans-serif;color:#000000;}#my-svg .cluster-label text{fill:#333;}#my-svg .cluster-label span{color:#333;}#my-svg .cluster-label span p{background-color:transparent;}#my-svg .label text,#my-svg span{fill:#000000;color:#000000;}#my-svg .node rect,#my-svg .node circle,#my-svg .node ellipse,#my-svg .node polygon,#my-svg .node path{fill:#eee;stroke:#999;stroke-width:1px;}#my-svg .rough-node .label text,#my-svg .node .label text,#my-svg .image-shape .label,#my-svg .icon-shape .label{text-anchor:middle;}#my-svg .node .katex path{fill:#000;stroke:#000;stroke-width:1px;}#my-svg .rough-node .label,#my-svg .node .label,#my-svg .image-shape .label,#my-svg .icon-shape .label{text-align:center;}#my-svg .node.clickable{cursor:pointer;}#my-svg .root .anchor path{fill:#666!important;stroke-width:0;stroke:#666;}#my-svg .arrowheadPath{fill:#333333;}#my-svg .edgePath .path{stroke:#666;stroke-width:1px;}#my-svg .flowchart-link{stroke:#666;fill:none;}#my-svg .edgeLabel{background-color:white;text-align:center;}#my-svg .edgeLabel p{background-color:white;}#my-svg .edgeLabel rect{opacity:0.5;background-color:white;fill:white;}#my-svg .labelBkg{background-color:rgba(255, 255, 255, 0.5);}#my-svg .cluster rect{fill:hsl(0, 0%, 98.9215686275%);stroke:#707070;stroke-width:1px;}#my-svg .cluster text{fill:#333;}#my-svg .cluster span{color:#333;}#my-svg div.mermaidTooltip{position:absolute;text-align:center;max-width:200px;padding:2px;font-family:"trebuchet ms",verdana,arial,sans-serif;font-size:12px;background:hsl(-160, 0%, 93.3333333333%);border:1px solid #707070;border-radius:2px;pointer-events:none;z-index:100;}#my-svg .flowchartTitleText{text-anchor:middle;font-size:18px;fill:#000000;}#my-svg rect.text{fill:none;stroke-width:0;}#my-svg .icon-shape,#my-svg .image-shape{background-color:white;text-align:center;}#my-svg .icon-shape p,#my-svg .image-shape p{background-color:white;padding:2px;}#my-svg .icon-shape .label rect,#my-svg .image-shape .label rect{opacity:0.5;background-color:white;fill:white;}#my-svg .label-icon{display:inline-block;height:1em;overflow:visible;vertical-align:-0.125em;}#my-svg .node .label-icon path{fill:currentColor;stroke:revert;stroke-width:revert;}#my-svg .node .neo-node{stroke:#999;}#my-svg [data-look="neo"].node rect,#my-svg [data-look="neo"].cluster rect,#my-svg [data-look="neo"].node polygon{stroke:url(#my-svg-gradient);filter:drop-shadow( 1px 2px 2px rgba(185,185,185,1));}#my-svg [data-look="neo"].swimlane.cluster rect{filter:none;}#my-svg [data-look="neo"].node path{stroke:url(#my-svg-gradient);stroke-width:1px;}#my-svg [data-look="neo"].node .outer-path{filter:drop-shadow( 1px 2px 2px rgba(185,185,185,1));}#my-svg [data-look="neo"].node .neo-line path{stroke:#999;filter:none;}#my-svg [data-look="neo"].node circle{stroke:url(#my-svg-gradient);filter:drop-shadow( 1px 2px 2px rgba(185,185,185,1));}#my-svg [data-look="neo"].node circle .state-start{fill:#000000;}#my-svg [data-look="neo"].icon-shape .icon{fill:url(#my-svg-gradient);filter:drop-shadow( 1px 2px 2px rgba(185,185,185,1));}#my-svg [data-look="neo"].icon-shape .icon-neo path{stroke:url(#my-svg-gradient);filter:drop-shadow( 1px 2px 2px rgba(185,185,185,1));}#my-svg :root{--mermaid-font-family:"trebuchet ms",verdana,arial,sans-serif;}</style><g><marker id="my-svg_flowchart-v2-pointEnd" class="marker flowchart-v2" viewBox="0 0 10 10" refX="5" refY="5" markerUnits="userSpaceOnUse" markerWidth="8" markerHeight="8" orient="auto"><path d="M 0 0 L 10 5 L 0 10 z" class="arrowMarkerPath" style="stroke-width: 1; stroke-dasharray: 1, 0;"/></marker><marker id="my-svg_flowchart-v2-pointStart" class="marker flowchart-v2" viewBox="0 0 10 10" refX="4.5" refY="5" markerUnits="userSpaceOnUse" markerWidth="8" markerHeight="8" orient="auto"><path d="M 0 5 L 10 10 L 10 0 z" class="arrowMarkerPath" style="stroke-width: 1; stroke-dasharray: 1, 0;"/></marker><marker id="my-svg_flowchart-v2-pointEnd-margin" class="marker flowchart-v2" viewBox="0 0 11.5 14" refX="11.5" refY="7" markerUnits="userSpaceOnUse" markerWidth="10.5" markerHeight="14" orient="auto"><path d="M 0 0 L 11.5 7 L 0 14 z" class="arrowMarkerPath" style="stroke-width: 0; stroke-dasharray: 1, 0;"/></marker><marker id="my-svg_flowchart-v2-pointStart-margin" class="marker flowchart-v2" viewBox="0 0 11.5 14" refX="1" refY="7" markerUnits="userSpaceOnUse" markerWidth="11.5" markerHeight="14" orient="auto"><polygon points="0,7 11.5,14 11.5,0" class="arrowMarkerPath" style="stroke-width: 0; stroke-dasharray: 1, 0;"/></marker><marker id="my-svg_flowchart-v2-circleEnd" class="marker flowchart-v2" viewBox="0 0 10 10" refX="11" refY="5" markerUnits="userSpaceOnUse" markerWidth="11" markerHeight="11" orient="auto"><circle cx="5" cy="5" r="5" class="arrowMarkerPath" style="stroke-width: 1; stroke-dasharray: 1, 0;"/></marker><marker id="my-svg_flowchart-v2-circleStart" class="marker flowchart-v2" viewBox="0 0 10 10" refX="-1" refY="5" markerUnits="userSpaceOnUse" markerWidth="11" markerHeight="11" orient="auto"><circle cx="5" cy="5" r="5" class="arrowMarkerPath" style="stroke-width: 1; stroke-dasharray: 1, 0;"/></marker><marker id="my-svg_flowchart-v2-circleEnd-margin" class="marker flowchart-v2" viewBox="0 0 10 10" refY="5" refX="12.25" markerUnits="userSpaceOnUse" markerWidth="14" markerHeight="14" orient="auto"><circle cx="5" cy="5" r="5" class="arrowMarkerPath" style="stroke-width: 0; stroke-dasharray: 1, 0;"/></marker><marker id="my-svg_flowchart-v2-circleStart-margin" class="marker flowchart-v2" viewBox="0 0 10 10" refX="-2" refY="5" markerUnits="userSpaceOnUse" markerWidth="14" markerHeight="14" orient="auto"><circle cx="5" cy="5" r="5" class="arrowMarkerPath" style="stroke-width: 0; stroke-dasharray: 1, 0;"/></marker><marker id="my-svg_flowchart-v2-crossEnd" class="marker cross flowchart-v2" viewBox="0 0 11 11" refX="12" refY="5.2" markerUnits="userSpaceOnUse" markerWidth="11" markerHeight="11" orient="auto"><path d="M 1,1 l 9,9 M 10,1 l -9,9" class="arrowMarkerPath" style="stroke-width: 2; stroke-dasharray: 1, 0;"/></marker><marker id="my-svg_flowchart-v2-crossStart" class="marker cross flowchart-v2" viewBox="0 0 11 11" refX="-1" refY="5.2" markerUnits="userSpaceOnUse" markerWidth="11" markerHeight="11" orient="auto"><path d="M 1,1 l 9,9 M 10,1 l -9,9" class="arrowMarkerPath" style="stroke-width: 2; stroke-dasharray: 1, 0;"/></marker><marker id="my-svg_flowchart-v2-crossEnd-margin" class="marker cross flowchart-v2" viewBox="0 0 15 15" refX="17.7" refY="7.5" markerUnits="userSpaceOnUse" markerWidth="12" markerHeight="12" orient="auto"><path d="M 1,1 L 14,14 M 1,14 L 14,1" class="arrowMarkerPath" style="stroke-width: 2.5;"/></marker><marker id="my-svg_flowchart-v2-crossStart-margin" class="marker cross flowchart-v2" viewBox="0 0 15 15" refX="-3.5" refY="7.5" markerUnits="userSpaceOnUse" markerWidth="12" markerHeight="12" orient="auto"><path d="M 1,1 L 14,14 M 1,14 L 14,1" class="arrowMarkerPath" style="stroke-width: 2.5; stroke-dasharray: 1, 0;"/></marker><g class="root"><g class="clusters"/><g class="edgePaths"><path d="M682.289,40.5L682.206,44.583C682.122,48.667,681.956,56.833,681.872,64.417C681.789,72,681.789,79,681.789,82.5L681.789,86" id="my-svg-L_Start_Request_0" class="edge-thickness-normal edge-pattern-solid edge-thickness-normal edge-pattern-solid flowchart-link" style=";" data-edge="true" data-et="edge" data-id="L_Start_Request_0" data-points="W3sieCI6NjgyLjI4OTA2MjUsInkiOjQwLjV9LHsieCI6NjgxLjc4OTA2MjUsInkiOjY1fSx7IngiOjY4MS43ODkwNjI1LCJ5Ijo5MH1d" data-look="classic" marker-end="url(#my-svg_flowchart-v2-pointEnd)"/><path d="M681.789,137L681.789,141.167C681.789,145.333,681.789,153.667,681.789,161.333C681.789,169,681.789,176,681.789,179.5L681.789,183" id="my-svg-L_Request_Check_0" class="edge-thickness-normal edge-pattern-solid edge-thickness-normal edge-pattern-solid flowchart-link" style=";" data-edge="true" data-et="edge" data-id="L_Request_Check_0" data-points="W3sieCI6NjgxLjc4OTA2MjUsInkiOjEzN30seyJ4Ijo2ODEuNzg5MDYyNSwieSI6MTYyfSx7IngiOjY4MS43ODkwNjI1LCJ5IjoxODd9XQ==" data-look="classic" marker-end="url(#my-svg_flowchart-v2-pointEnd)"/><path d="M615.601,279.812L531.334,296.76C447.067,313.708,278.534,347.604,194.267,376.335C110,405.067,110,428.633,110,440.417L110,452.2" id="my-svg-L_Check_Done_0" class="edge-thickness-normal edge-pattern-solid edge-thickness-normal edge-pattern-solid flowchart-link" style=";" data-edge="true" data-et="edge" data-id="L_Check_Done_0" data-points="W3sieCI6NjE1LjYwMTAxMDA4MjE1ODgsInkiOjI3OS44MTE5NDc1ODIxNTg4NH0seyJ4IjoxMTAsInkiOjM4MS41fSx7IngiOjExMCwieSI6NDU2LjIwMDAwMDc2MjkzOTQ1fV0=" data-look="classic" marker-end="url(#my-svg_flowchart-v2-pointEnd)"/><path d="M622.023,286.234L573.936,302.112C525.849,317.989,429.674,349.745,381.587,370.872C333.5,392,333.5,402.5,333.5,407.75L333.5,413" id="my-svg-L_Check_L1_0" class="edge-thickness-normal edge-pattern-solid edge-thickness-normal edge-pattern-solid flowchart-link" style=";" data-edge="true" data-et="edge" data-id="L_Check_L1_0" data-points="W3sieCI6NjIyLjAyMjk2MjQzNDIzMzgsInkiOjI4Ni4yMzM4OTk5MzQyMzM4fSx7IngiOjMzMy41LCJ5IjozODEuNX0seyJ4IjozMzMuNSwieSI6NDE3fV0=" data-look="classic" marker-end="url(#my-svg_flowchart-v2-pointEnd)"/><path d="M296.974,523.474L284.436,535.478C271.899,547.482,246.825,571.491,234.287,596.612C221.75,621.733,221.75,647.967,221.75,661.083L221.75,674.2" id="my-svg-L_L1_L2_0" class="edge-thickness-normal edge-pattern-solid edge-thickness-normal edge-pattern-solid flowchart-link" style=";" data-edge="true" data-et="edge" data-id="L_L1_L2_0" data-points="W3sieCI6Mjk2Ljk3MzcxNDI4NTcxNDI3LCJ5Ijo1MjMuNDczNzE0Mjg1NzE0M30seyJ4IjoyMjEuNzUsInkiOjU5NS41fSx7IngiOjIyMS43NSwieSI6Njc4LjIwMDAwMDc2MjkzOTV9XQ==" data-look="classic" marker-end="url(#my-svg_flowchart-v2-pointEnd)"/><path d="M373.602,519.898L389.696,532.498C405.79,545.098,437.977,570.299,454.07,588.15C470.164,606,470.164,616.5,470.164,621.75L470.164,627" id="my-svg-L_L1_L3_0" class="edge-thickness-normal edge-pattern-solid edge-thickness-normal edge-pattern-solid flowchart-link" style=";" data-edge="true" data-et="edge" data-id="L_L1_L3_0" data-points="W3sieCI6MzczLjYwMjI2MzYxODU4MzUsInkiOjUxOS44OTc3MzYzODE0MTY1fSx7IngiOjQ3MC4xNjQwNjI1LCJ5Ijo1OTUuNX0seyJ4Ijo0NzAuMTY0MDYyNSwieSI6NjMxfV0=" data-look="classic" marker-end="url(#my-svg_flowchart-v2-pointEnd)"/><path d="M432.339,752.175L421.248,764.396C410.156,776.617,387.972,801.058,376.881,835.113C365.789,869.167,365.789,912.833,365.789,956.5C365.789,1000.167,365.789,1043.833,408.245,1075.81C450.701,1107.786,535.612,1128.072,578.068,1138.215L620.524,1148.358" id="my-svg-L_L3_Stop_0" class="edge-thickness-normal edge-pattern-solid edge-thickness-normal edge-pattern-solid flowchart-link" style=";" data-edge="true" data-et="edge" data-id="L_L3_Stop_0" data-points="W3sieCI6NDMyLjMzOTI3NjE3NTIxMzcsInkiOjc1Mi4xNzUyMTM2NzUyMTM2fSx7IngiOjM2NS43ODkwNjI1LCJ5Ijo4MjUuNX0seyJ4IjozNjUuNzg5MDYyNSwieSI6OTU2LjV9LHsieCI6MzY1Ljc4OTA2MjUsInkiOjEwODcuNX0seyJ4Ijo2MjQuNDE0MDYyNSwieSI6MTE0OS4yODc2NzkwODEwNzQ3fV0=" data-look="classic" marker-end="url(#my-svg_flowchart-v2-pointEnd)"/><path d="M500.312,759.852L506.996,770.794C513.679,781.735,527.047,803.617,533.73,819.809C540.414,836,540.414,846.5,540.414,851.75L540.414,857" id="my-svg-L_L3_L4_0" class="edge-thickness-normal edge-pattern-solid edge-thickness-normal edge-pattern-solid flowchart-link" style=";" data-edge="true" data-et="edge" data-id="L_L3_L4_0" data-points="W3sieCI6NTAwLjMxMTgzNTc3OTM1MjI0LCJ5Ijo3NTkuODUyMjI2NzIwNjQ3OH0seyJ4Ijo1NDAuNDE0MDYyNSwieSI6ODI1LjV9LHsieCI6NTQwLjQxNDA2MjUsInkiOjg2MX1d" data-look="classic" marker-end="url(#my-svg_flowchart-v2-pointEnd)"/><path d="M501.683,1013.269L493.243,1025.641C484.802,1038.013,467.92,1062.756,426.29,1084.176C384.659,1105.595,318.279,1123.69,285.088,1132.738L251.898,1141.785" id="my-svg-L_L4_L5_0" class="edge-thickness-normal edge-pattern-solid edge-thickness-normal edge-pattern-solid flowchart-link" style=";" data-edge="true" data-et="edge" data-id="L_L4_L5_0" data-points="W3sieCI6NTAxLjY4MzIwNjAwNTM4ODU3LCJ5IjoxMDEzLjI2OTE0MzUwNTM4ODZ9LHsieCI6NDUxLjAzOTA2MjUsInkiOjEwODcuNX0seyJ4IjoyNDguMDM5MDYyNSwieSI6MTE0Mi44MzczNjU0NDU3MTczfV0=" data-look="classic" marker-end="url(#my-svg_flowchart-v2-pointEnd)"/><path d="M578.919,1013.495L587.251,1025.83C595.584,1038.164,612.249,1062.832,626.825,1083.483C641.4,1104.134,653.886,1120.767,660.129,1129.084L666.372,1137.401" id="my-svg-L_L4_Stop_0" class="edge-thickness-normal edge-pattern-solid edge-thickness-normal edge-pattern-solid flowchart-link" style=";" data-edge="true" data-et="edge" data-id="L_L4_Stop_0" data-points="W3sieCI6NTc4LjkxODYxODMwODY1NiwieSI6MTAxMy40OTU0NDQxOTEzNDR9LHsieCI6NjI4LjkxNDA2MjUsInkiOjEwODcuNX0seyJ4Ijo2NjguNzczNzIyNzIzMDE1MywieSI6MTE0MC41OTk5OTg0NzQxMjF9XQ==" data-look="classic" marker-end="url(#my-svg_flowchart-v2-pointEnd)"/><path d="M716.363,311.426L725.35,323.105C734.338,334.784,752.314,358.142,761.301,387.654C770.289,417.167,770.289,452.833,770.289,488.5C770.289,524.167,770.289,559.833,770.289,596.833C770.289,633.833,770.289,672.167,770.289,710.5C770.289,748.833,770.289,787.167,770.289,815.583C770.289,844,770.289,862.5,770.289,871.75L770.289,881" id="my-svg-L_Check_C1_0" class="edge-thickness-normal edge-pattern-solid edge-thickness-normal edge-pattern-solid flowchart-link" style=";" data-edge="true" data-et="edge" data-id="L_Check_C1_0" data-points="W3sieCI6NzE2LjM2Mjc3MjU3MzcxMDEsInkiOjMxMS40MjYyODk5MjYyODk5NH0seyJ4Ijo3NzAuMjg5MDYyNSwieSI6MzgxLjV9LHsieCI6NzcwLjI4OTA2MjUsInkiOjQ4OC41fSx7IngiOjc3MC4yODkwNjI1LCJ5Ijo1OTUuNX0seyJ4Ijo3NzAuMjg5MDYyNSwieSI6NzEwLjV9LHsieCI6NzcwLjI4OTA2MjUsInkiOjgyNS41fSx7IngiOjc3MC4yODkwNjI1LCJ5Ijo4ODV9XQ==" data-look="classic" marker-end="url(#my-svg_flowchart-v2-pointEnd)"/><path d="M739.097,996.808L727.4,1011.923C715.703,1027.038,692.308,1057.269,649.692,1080.84C607.075,1104.41,545.236,1121.32,514.317,1129.775L483.397,1138.229" id="my-svg-L_C1_C2_0" class="edge-thickness-normal edge-pattern-solid edge-thickness-normal edge-pattern-solid flowchart-link" style=";" data-edge="true" data-et="edge" data-id="L_C1_C2_0" data-points="W3sieCI6NzM5LjA5Njc1NDgwNzY5MjMsInkiOjk5Ni44MDc2OTIzMDc2OTIzfSx7IngiOjY2OC45MTQwNjI1LCJ5IjoxMDg3LjV9LHsieCI6NDc5LjUzOTA2MjUsInkiOjExMzkuMjg0NDcwMTg2NjU0N31d" data-look="classic" marker-end="url(#my-svg_flowchart-v2-pointEnd)"/><path d="M799.117,999.172L809.062,1013.893C819.008,1028.615,838.898,1058.057,829.538,1081.358C820.177,1104.659,781.564,1121.817,762.258,1130.396L742.952,1138.976" id="my-svg-L_C1_Stop_0" class="edge-thickness-normal edge-pattern-solid edge-thickness-normal edge-pattern-solid flowchart-link" style=";" data-edge="true" data-et="edge" data-id="L_C1_Stop_0" data-points="W3sieCI6Nzk5LjExNzA4MDcyMzIzNDYsInkiOjk5OS4xNzE5ODE3NzY3NjU0fSx7IngiOjg1OC43ODkwNjI1LCJ5IjoxMDg3LjV9LHsieCI6NzM5LjI5NjczMzI2NjIyMTMsInkiOjExNDAuNTk5OTk4NDc0MTIxfV0=" data-look="classic" marker-end="url(#my-svg_flowchart-v2-pointEnd)"/><path d="M740.272,287.517L783.858,303.181C827.444,318.845,914.617,350.172,958.203,383.67C1001.789,417.167,1001.789,452.833,1001.789,488.5C1001.789,524.167,1001.789,559.833,1001.789,596.833C1001.789,633.833,1001.789,672.167,1001.789,710.5C1001.789,748.833,1001.789,787.167,1001.789,811.583C1001.789,836,1001.789,846.5,1001.789,851.75L1001.789,857" id="my-svg-L_Check_R1_0" class="edge-thickness-normal edge-pattern-solid edge-thickness-normal edge-pattern-solid flowchart-link" style=";" data-edge="true" data-et="edge" data-id="L_Check_R1_0" data-points="W3sieCI6NzQwLjI3MTgyMTEyMDY4OTcsInkiOjI4Ny41MTcyNDEzNzkzMTAzNX0seyJ4IjoxMDAxLjc4OTA2MjUsInkiOjM4MS41fSx7IngiOjEwMDEuNzg5MDYyNSwieSI6NDg4LjV9LHsieCI6MTAwMS43ODkwNjI1LCJ5Ijo1OTUuNX0seyJ4IjoxMDAxLjc4OTA2MjUsInkiOjcxMC41fSx7IngiOjEwMDEuNzg5MDYyNSwieSI6ODI1LjV9LHsieCI6MTAwMS43ODkwNjI1LCJ5Ijo4NjF9XQ==" data-look="classic" marker-end="url(#my-svg_flowchart-v2-pointEnd)"/><path d="M989.14,1039.351L987.915,1047.376C986.69,1055.401,984.239,1071.45,989.103,1084.946C993.967,1098.442,1006.145,1109.384,1012.234,1114.855L1018.323,1120.327" id="my-svg-L_R1_R2_0" class="edge-thickness-normal edge-pattern-solid edge-thickness-normal edge-pattern-solid flowchart-link" style=";" data-edge="true" data-et="edge" data-id="L_R1_R2_0" data-points="W3sieCI6OTg5LjE0MDA1NTg3NzQ4MzQsInkiOjEwMzkuMzUwOTkzMzc3NDgzNX0seyJ4Ijo5ODEuNzg5MDYyNSwieSI6MTA4Ny41fSx7IngiOjEwMjEuMjk3ODc1Mjk3NDYzLCJ5IjoxMTIzfV0=" data-look="classic" marker-end="url(#my-svg_flowchart-v2-pointEnd)"/><path d="M1028.266,1025.523L1032.228,1035.853C1036.19,1046.182,1044.115,1066.841,998.125,1087.636C952.136,1108.43,852.232,1129.36,802.281,1139.825L752.329,1150.291" id="my-svg-L_R1_Stop_0" class="edge-thickness-normal edge-pattern-solid edge-thickness-normal edge-pattern-solid flowchart-link" style=";" data-edge="true" data-et="edge" data-id="L_R1_Stop_0" data-points="W3sieCI6MTAyOC4yNjU2MTQyMjQxMzc4LCJ5IjoxMDI1LjUyMzQ0ODI3NTg2MjJ9LHsieCI6MTA1Mi4wMzkwNjI1LCJ5IjoxMDg3LjV9LHsieCI6NzQ4LjQxNDA2MjUsInkiOjExNTEuMTEwNzMzNzc1NjAzNH1d" data-look="classic" marker-end="url(#my-svg_flowchart-v2-pointEnd)"/><path d="M745.122,282.667L809.65,299.139C874.178,315.611,1003.233,348.556,1067.761,382.861C1132.289,417.167,1132.289,452.833,1132.289,488.5C1132.289,524.167,1132.289,559.833,1132.289,596.833C1132.289,633.833,1132.289,672.167,1132.289,710.5C1132.289,748.833,1132.289,787.167,1132.289,828.167C1132.289,869.167,1132.289,912.833,1132.289,956.5C1132.289,1000.167,1132.289,1043.833,1068.967,1076.545C1005.645,1109.257,879.001,1131.014,815.678,1141.893L752.356,1152.771" id="my-svg-L_Check_Stop_0" class="edge-thickness-normal edge-pattern-solid edge-thickness-normal edge-pattern-solid flowchart-link" style=";" data-edge="true" data-et="edge" data-id="L_Check_Stop_0" data-points="W3sieCI6NzQ1LjEyMTk1Mzc0NjY4NDMsInkiOjI4Mi42NjcxMDg3NTMzMTU2M30seyJ4IjoxMTMyLjI4OTA2MjUsInkiOjM4MS41fSx7IngiOjExMzIuMjg5MDYyNSwieSI6NDg4LjV9LHsieCI6MTEzMi4yODkwNjI1LCJ5Ijo1OTUuNX0seyJ4IjoxMTMyLjI4OTA2MjUsInkiOjcxMC41fSx7IngiOjExMzIuMjg5MDYyNSwieSI6ODI1LjV9LHsieCI6MTEzMi4yODkwNjI1LCJ5Ijo5NTYuNX0seyJ4IjoxMTMyLjI4OTA2MjUsInkiOjEwODcuNX0seyJ4Ijo3NDguNDE0MDYyNSwieSI6MTE1My40NDg1ODI5MzA3NjE0fV0=" data-look="classic" marker-end="url(#my-svg_flowchart-v2-pointEnd)"/></g><g class="edgeLabels"><g class="edgeLabel"><g class="label" data-id="L_Start_Request_0" transform="translate(0, 0)"><text y="-10.1" text-anchor="middle"><tspan class="text-outer-tspan row" x="0" y="-0.1em" dy="1.1em" text-anchor="middle"/></text></g></g><g><rect class="background" style="stroke: none"/></g><g class="edgeLabel"><g class="label" data-id="L_Request_Check_0" transform="translate(0, 0)"><text y="-10.1" text-anchor="middle"><tspan class="text-outer-tspan row" x="0" y="-0.1em" dy="1.1em" text-anchor="middle"/></text></g></g><g><rect class="background" style="stroke: none"/></g><g class="edgeLabel" transform="translate(110, 381.5)"><g class="label" data-id="L_Check_Done_0" transform="translate(-0.046875, -10.5)"><g><rect class="background" style="" x="-52.6875" y="0" width="105.46875" height="21"/><text y="-10.1" text-anchor="middle" style=""><tspan class="text-outer-tspan row" x="0" y="-0.1em" dy="1.1em" text-anchor="middle"><tspan font-style="normal" class="text-inner-tspan" font-weight="normal">完整</tspan><tspan font-style="normal" class="text-inner-tspan" font-weight="normal"> message</tspan></tspan></text></g></g></g><g class="edgeLabel" transform="translate(333.5, 381.5)"><g class="label" data-id="L_Check_L1_0" transform="translate(0, -10.5)"><g><rect class="background" style="" x="-34" y="0" width="68" height="21"/><text y="-10.1" text-anchor="middle" style=""><tspan class="text-outer-tspan row" x="0" y="-0.1em" dy="1.1em" text-anchor="middle"><tspan font-style="normal" class="text-inner-tspan" font-weight="normal">输出截断</tspan></tspan></text></g></g></g><g class="edgeLabel" transform="translate(221.75, 595.5)"><g class="label" data-id="L_L1_L2_0" transform="translate(0, -10.5)"><g><rect class="background" style="" x="-10" y="0" width="20" height="21"/><text y="-10.1" text-anchor="middle" style=""><tspan class="text-outer-tspan row" x="0" y="-0.1em" dy="1.1em" text-anchor="middle"><tspan font-style="normal" class="text-inner-tspan" font-weight="normal">是</tspan></tspan></text></g></g></g><g class="edgeLabel" transform="translate(470.1640625, 595.5)"><g class="label" data-id="L_L1_L3_0" transform="translate(0, -10.5)"><g><rect class="background" style="" x="-10" y="0" width="20" height="21"/><text y="-10.1" text-anchor="middle" style=""><tspan class="text-outer-tspan row" x="0" y="-0.1em" dy="1.1em" text-anchor="middle"><tspan font-style="normal" class="text-inner-tspan" font-weight="normal">否</tspan></tspan></text></g></g></g><g class="edgeLabel" transform="translate(365.7890625, 956.5)"><g class="label" data-id="L_L3_Stop_0" transform="translate(0, -10.5)"><g><rect class="background" style="" x="-10" y="0" width="20" height="21"/><text y="-10.1" text-anchor="middle" style=""><tspan class="text-outer-tspan row" x="0" y="-0.1em" dy="1.1em" text-anchor="middle"><tspan font-style="normal" class="text-inner-tspan" font-weight="normal">否</tspan></tspan></text></g></g></g><g class="edgeLabel" transform="translate(540.4140625, 825.5)"><g class="label" data-id="L_L3_L4_0" transform="translate(0, -10.5)"><g><rect class="background" style="" x="-10" y="0" width="20" height="21"/><text y="-10.1" text-anchor="middle" style=""><tspan class="text-outer-tspan row" x="0" y="-0.1em" dy="1.1em" text-anchor="middle"><tspan font-style="normal" class="text-inner-tspan" font-weight="normal">是</tspan></tspan></text></g></g></g><g class="edgeLabel" transform="translate(392.88794, 1103.35187)"><g class="label" data-id="L_L4_L5_0" transform="translate(0, -10.5)"><g><rect class="background" style="" x="-10" y="0" width="20" height="21"/><text y="-10.1" text-anchor="middle" style=""><tspan class="text-outer-tspan row" x="0" y="-0.1em" dy="1.1em" text-anchor="middle"><tspan font-style="normal" class="text-inner-tspan" font-weight="normal">是</tspan></tspan></text></g></g></g><g class="edgeLabel" transform="translate(622.50048, 1078.00645)"><g class="label" data-id="L_L4_Stop_0" transform="translate(0, -10.5)"><g><rect class="background" style="" x="-10" y="0" width="20" height="21"/><text y="-10.1" text-anchor="middle" style=""><tspan class="text-outer-tspan row" x="0" y="-0.1em" dy="1.1em" text-anchor="middle"><tspan font-style="normal" class="text-inner-tspan" font-weight="normal">否</tspan></tspan></text></g></g></g><g class="edgeLabel" transform="translate(770.2890625, 595.5)"><g class="label" data-id="L_Check_C1_0" transform="translate(0, -10.5)"><g><rect class="background" style="" x="-42" y="0" width="84" height="21"/><text y="-10.1" text-anchor="middle" style=""><tspan class="text-outer-tspan row" x="0" y="-0.1em" dy="1.1em" text-anchor="middle"><tspan font-style="normal" class="text-inner-tspan" font-weight="normal">上下文超限</tspan></tspan></text></g></g></g><g class="edgeLabel" transform="translate(629.53429, 1098.26837)"><g class="label" data-id="L_C1_C2_0" transform="translate(0, -10.5)"><g><rect class="background" style="" x="-10" y="0" width="20" height="21"/><text y="-10.1" text-anchor="middle" style=""><tspan class="text-outer-tspan row" x="0" y="-0.1em" dy="1.1em" text-anchor="middle"><tspan font-style="normal" class="text-inner-tspan" font-weight="normal">否</tspan></tspan></text></g></g></g><g class="edgeLabel" transform="translate(847.74813, 1092.40637)"><g class="label" data-id="L_C1_Stop_0" transform="translate(0, -10.5)"><g><rect class="background" style="" x="-10" y="0" width="20" height="21"/><text y="-10.1" text-anchor="middle" style=""><tspan class="text-outer-tspan row" x="0" y="-0.1em" dy="1.1em" text-anchor="middle"><tspan font-style="normal" class="text-inner-tspan" font-weight="normal">是</tspan></tspan></text></g></g></g><g class="edgeLabel" transform="translate(1001.7890625, 595.5)"><g class="label" data-id="L_Check_R1_0" transform="translate(-0.05078125, -10.5)"><g><rect class="background" style="" x="-35.3671875" y="0" width="70.8359375" height="21"/><text y="-10.1" text-anchor="middle" style=""><tspan class="text-outer-tspan row" x="0" y="-0.1em" dy="1.1em" text-anchor="middle"><tspan font-style="normal" class="text-inner-tspan" font-weight="normal">429</tspan><tspan font-style="normal" class="text-inner-tspan" font-weight="normal"> /</tspan><tspan font-style="normal" class="text-inner-tspan" font-weight="normal"> 529</tspan></tspan></text></g></g></g><g class="edgeLabel" transform="translate(983.42848, 1088.97307)"><g class="label" data-id="L_R1_R2_0" transform="translate(0, -10.5)"><g><rect class="background" style="" x="-10" y="0" width="20" height="21"/><text y="-10.1" text-anchor="middle" style=""><tspan class="text-outer-tspan row" x="0" y="-0.1em" dy="1.1em" text-anchor="middle"><tspan font-style="normal" class="text-inner-tspan" font-weight="normal">是</tspan></tspan></text></g></g></g><g class="edgeLabel" transform="translate(1052.0390625, 1087.5)"><g class="label" data-id="L_R1_Stop_0" transform="translate(0, -10.5)"><g><rect class="background" style="" x="-10" y="0" width="20" height="21"/><text y="-10.1" text-anchor="middle" style=""><tspan class="text-outer-tspan row" x="0" y="-0.1em" dy="1.1em" text-anchor="middle"><tspan font-style="normal" class="text-inner-tspan" font-weight="normal">否</tspan></tspan></text></g></g></g><g class="edgeLabel" transform="translate(1132.2890625, 710.5)"><g class="label" data-id="L_Check_Stop_0" transform="translate(0, -10.5)"><g><rect class="background" style="" x="-34" y="0" width="68" height="21"/><text y="-10.1" text-anchor="middle" style=""><tspan class="text-outer-tspan row" x="0" y="-0.1em" dy="1.1em" text-anchor="middle"><tspan font-style="normal" class="text-inner-tspan" font-weight="normal">普通错误</tspan></tspan></text></g></g></g></g><g class="nodes"><g class="node default" id="my-svg-flowchart-Start-0" data-look="classic" transform="translate(681.7890625, 24)"><g class="basic label-container outer-path"><path d="M-11.5 -16 C-3.9332921444080933 -16, 3.6334157111838135 -16, 11.5 -16 C11.5 -16, 11.5 -16, 11.499999999999998 -16 C11.806022592428288 -15.990186451097665, 12.112045184856576 -15.980372902195331, 12.525123519691405 -15.967126284005381 C12.77254079806138 -15.943258236723842, 13.019958076431354 -15.919390189442304, 13.546034586952095 -15.868640221171939 C13.871800722362323 -15.815972878752925, 14.197566857772554 -15.76330553633391, 14.558538059221954 -15.704946511857047 C14.930858914308445 -15.619966706304195, 15.303179769394934 -15.534986900751342, 15.558473342552116 -15.476717808624471 C15.822394842584742 -15.39838729276701, 16.08631634261737 -15.320056776909551, 16.54173148837793 -15.184891952170698 C16.80896075387637 -15.086549112227022, 17.07619001937481 -14.988206272283344, 17.504272078069985 -14.830668117536348 C17.69344823959553 -14.746925442540435, 17.882624401121078 -14.663182767544525, 18.44213982588093 -14.415501886438706 C18.643295748541153 -14.310558970433384, 18.84445167120138 -14.205616054428063, 19.351480832063 -13.941099265974232 C19.609061759874074 -13.784952193821608, 19.866642687685147 -13.628805121668984, 20.228558419368778 -13.409409678269451 C20.474029943871397 -13.238179369067453, 20.71950146837402 -13.066949059865454, 21.069768487859456 -12.822617949887306 C21.280736308965267 -12.65437672664492, 21.491704130071078 -12.486135503402531, 21.871654324924613 -12.183135333906153 C22.14038216241109 -11.93908382204989, 22.40910999989757 -11.695032310193627, 22.630920809655784 -11.493589601563642 C22.813532684844386 -11.305027847717632, 22.996144560032988 -11.11646609387162, 23.344447953205048 -10.756814244181072 C23.585766065309855 -10.473348258313193, 23.827084177414665 -10.189882272445312, 24.00930371948848 -9.975836829739738 C24.150522487860798 -9.78661654541529, 24.29174125623312 -9.597396261090843, 24.62275607355129 -9.153866561954718 C24.792067029707958 -8.893759466940457, 24.961377985864626 -8.633652371926196, 25.182284208085537 -8.294281092968403 C25.32638513240337 -8.038415310041225, 25.470486056721203 -7.782549527114047, 25.685588901968003 -7.400612643853364 C25.844786674975406 -7.070035061916822, 26.00398444798281 -6.739457479980279, 26.130601968252996 -6.476533489958305 C26.2379499027471 -6.211382016326746, 26.345297837241205 -5.9462305426951865, 26.515494752796165 -5.52584087074093 C26.63071383384566 -5.178819356287395, 26.745932914895157 -4.831797841833859, 26.83868564858657 -4.552441386096524 C26.897169596942884 -4.329416743910344, 26.955653545299196 -4.106392101724164, 27.098846594909176 -3.560334943301032 C27.152336071196896 -3.285677787568411, 27.205825547484615 -3.01102063183579, 27.2949085346312 -2.5535983205340735 C27.34356100442993 -2.1762593722919874, 27.392213474228654 -1.7989204240499017, 27.42606580718717 -1.536368414522911 C27.44333126801843 -1.2674449256469145, 27.460596728849687 -0.9985214367709179, 27.491779459211006 -0.5128252411464826 C27.491779459211006 -0.10557348636067676, 27.491779459211006 0.3016782684251291, 27.491779459211006 0.5128252411464788 C27.46805803382217 0.8823055891675192, 27.444336608433336 1.2517859371885596, 27.42606580718717 1.5363684145229002 C27.392625861247172 1.795722031769324, 27.35918591530717 2.0550756490157482, 27.294908534631205 2.5535983205340624 C27.217368679986173 2.951749086082214, 27.13982882534114 3.349899851630366, 27.098846594909176 3.5603349433010285 C27.000693463373207 3.934635373683986, 26.902540331837233 4.308935804066944, 26.83868564858657 4.552441386096513 C26.734238978853025 4.867018114017062, 26.62979230911948 5.181594841937612, 26.515494752796165 5.525840870740919 C26.431582174212785 5.7331065621812085, 26.347669595629405 5.940372253621498, 26.130601968253 6.4765334899583005 C25.958275374760632 6.834373348543628, 25.785948781268264 7.192213207128955, 25.685588901968003 7.400612643853361 C25.53604660304567 7.666140138389759, 25.386504304123335 7.931667632926157, 25.18228420808554 8.294281092968399 C25.011111471956895 8.557248381977542, 24.839938735828248 8.820215670986684, 24.622756073551297 9.15386656195471 C24.47270572419873 9.354920360219108, 24.322655374846164 9.555974158483505, 24.00930371948848 9.975836829739734 C23.798645447423727 10.223288022902246, 23.587987175358972 10.470739216064755, 23.344447953205055 10.756814244181063 C23.176478531094578 10.930256463056153, 23.008509108984104 11.103698681931245, 22.630920809655784 11.493589601563638 C22.37695714528939 11.724232682030859, 22.122993480922993 11.95487576249808, 21.871654324924627 12.183135333906142 C21.641088285960326 12.367005614360195, 21.410522246996024 12.550875894814249, 21.06976848785946 12.822617949887304 C20.798907873885952 13.011558588828224, 20.528047259912444 13.200499227769145, 20.228558419368788 13.409409678269446 C20.00255068757518 13.546416893451587, 19.776542955781572 13.68342410863373, 19.351480832063004 13.94109926597423 C19.036111855490677 14.105627059048542, 18.720742878918355 14.270154852122854, 18.442139825880933 14.415501886438705 C18.215893406327382 14.515654465013482, 17.989646986773828 14.615807043588257, 17.50427207806999 14.830668117536346 C17.202440311292914 14.941744997812577, 16.900608544515837 15.052821878088807, 16.54173148837794 15.184891952170695 C16.2374562384921 15.275199249163434, 15.933180988606258 15.365506546156174, 15.558473342552134 15.476717808624468 C15.212209658082905 15.55575023502286, 14.865945973613677 15.63478266142125, 14.558538059221961 15.704946511857045 C14.236799267516314 15.75696274457842, 13.915060475810668 15.808978977299795, 13.546034586952105 15.868640221171937 C13.193994852430583 15.902601070971503, 12.841955117909059 15.93656192077107, 12.525123519691405 15.967126284005381 C12.261186222594398 15.9755902394005, 11.997248925497392 15.984054194795617, 11.500000000000004 16 C11.500000000000004 16, 11.500000000000002 16, 11.5 16 C5.07341056779407 16, -1.3531788644118592 16, -11.499999999999996 16 C-11.72405052143053 15.992815135865607, -11.948101042861065 15.985630271731214, -12.5251235196914 15.967126284005381 C-12.881216937115038 15.932774380291514, -13.237310354538678 15.898422476577649, -13.5460345869521 15.868640221171937 C-13.811777461560872 15.825676974071962, -14.077520336169645 15.782713726971988, -14.558538059221956 15.704946511857045 C-14.9235807941168 15.621627889743763, -15.288623529011645 15.538309267630481, -15.558473342552112 15.476717808624471 C-15.759310667646108 15.417110344753205, -15.960147992740106 15.35750288088194, -16.541731488377923 15.184891952170702 C-16.790583860214056 15.093311978968897, -17.03943623205019 15.00173200576709, -17.504272078069988 14.830668117536348 C-17.758489545930455 14.718133585607768, -18.012707013790923 14.605599053679189, -18.44213982588093 14.415501886438708 C-18.661592814194176 14.301013403002035, -18.881045802507423 14.186524919565363, -19.351480832063 13.941099265974234 C-19.554391900721132 13.818093383715874, -19.757302969379268 13.695087501457516, -20.228558419368767 13.409409678269457 C-20.43266242997388 13.267035555991546, -20.636766440578995 13.124661433713634, -21.069768487859456 12.822617949887308 C-21.374421095608636 12.579665602353707, -21.679073703357815 12.336713254820108, -21.871654324924613 12.183135333906154 C-22.1050806809808 11.971143693458863, -22.33850703703699 11.759152053011574, -22.630920809655777 11.493589601563649 C-22.88943921095463 11.226648127467108, -23.147957612253485 10.959706653370569, -23.344447953205048 10.756814244181069 C-23.5472784254434 10.518558030109077, -23.750108897681752 10.280301816037086, -24.009303719488475 9.97583682973974 C-24.204531185502283 9.714249810869275, -24.39975865151609 9.452662791998808, -24.62275607355129 9.15386656195472 C-24.79961781182953 8.882159437932826, -24.97647955010777 8.610452313910933, -25.182284208085534 8.29428109296841 C-25.330162498263842 8.031708214456183, -25.478040788442154 7.769135335943956, -25.685588901968 7.400612643853366 C-25.818020634175575 7.125615318339197, -25.95045236638315 6.850617992825028, -26.130601968252996 6.476533489958307 C-26.2675115072157 6.13836428175456, -26.40442104617841 5.800195073550813, -26.515494752796165 5.525840870740931 C-26.61438597433872 5.227996267631176, -26.713277195881275 4.9301516645214205, -26.83868564858657 4.552441386096519 C-26.915328136854672 4.260170361265704, -26.991970625122775 3.967899336434889, -27.098846594909176 3.5603349433010343 C-27.17186180813156 3.1854172551748743, -27.244877021353943 2.8104995670487143, -27.2949085346312 2.5535983205340753 C-27.33198174780039 2.2660658001278264, -27.36905496096958 1.9785332797215776, -27.42606580718717 1.5363684145229202 C-27.440728573079472 1.3079840001787368, -27.455391338971772 1.0795995858345533, -27.491779459211006 0.5128252411464846 C-27.491779459211006 0.21945291096327413, -27.491779459211006 -0.07391941921993639, -27.491779459211006 -0.5128252411464769 C-27.4673250123524 -0.8937229902434558, -27.4428705654938 -1.2746207393404347, -27.42606580718717 -1.5363684145228982 C-27.38172282415018 -1.880283834445368, -27.337379841113194 -2.224199254367838, -27.294908534631205 -2.5535983205340678 C-27.255640163568643 -2.755233106567159, -27.21637179250608 -2.9568678926002505, -27.098846594909176 -3.5603349433010267 C-26.99574583138033 -3.9535028387900972, -26.892645067851483 -4.346670734279168, -26.838685648586573 -4.552441386096511 C-26.714207286665886 -4.927350379268014, -26.5897289247452 -5.302259372439517, -26.515494752796172 -5.525840870740911 C-26.423116607854254 -5.754016674757381, -26.330738462912336 -5.982192478773849, -26.130601968253 -6.476533489958299 C-25.98022800555945 -6.788788240978824, -25.829854042865904 -7.101042991999349, -25.685588901968003 -7.400612643853359 C-25.491454030209088 -7.745318766948752, -25.297319158450172 -8.090024890044145, -25.182284208085537 -8.294281092968404 C-25.03936531589423 -8.513842890470384, -24.896446423702926 -8.733404687972364, -24.622756073551294 -9.153866561954715 C-24.428757378037655 -9.413807140298246, -24.23475868252402 -9.673747718641776, -24.00930371948848 -9.975836829739734 C-23.761742024601432 -10.266636883213556, -23.514180329714385 -10.557436936687377, -23.344447953205055 -10.756814244181063 C-23.089991144500836 -11.019561790460687, -22.83553433579662 -11.282309336740312, -22.63092080965579 -11.493589601563633 C-22.414112949150013 -11.690488764053338, -22.197305088644235 -11.887387926543045, -21.871654324924627 -12.18313533390614 C-21.592456249082307 -12.405788369617563, -21.313258173239987 -12.628441405328985, -21.069768487859463 -12.822617949887302 C-20.737714476429918 -13.054244453874073, -20.40566046500037 -13.285870957860844, -20.228558419368788 -13.409409678269444 C-19.976582456440774 -13.562158987771529, -19.724606493512763 -13.714908297273611, -19.351480832063007 -13.941099265974229 C-19.071439337795518 -14.087196734158441, -18.791397843528028 -14.233294202342654, -18.442139825880936 -14.415501886438705 C-18.13344864762955 -14.552150314052138, -17.824757469378163 -14.688798741665572, -17.504272078069995 -14.830668117536344 C-17.15271088066288 -14.960045887978247, -16.801149683255765 -15.089423658420149, -16.54173148837794 -15.184891952170695 C-16.269483085244687 -15.265693849159614, -15.997234682111431 -15.346495746148536, -15.558473342552134 -15.476717808624466 C-15.25300840687029 -15.546438186848855, -14.947543471188444 -15.616158565073242, -14.558538059221963 -15.704946511857043 C-14.297219704006572 -15.747194436974157, -14.035901348791182 -15.78944236209127, -13.546034586952107 -15.868640221171937 C-13.178471264315823 -15.904098612847088, -12.810907941679538 -15.93955700452224, -12.525123519691407 -15.967126284005381 C-12.23286048703172 -15.976498590607294, -11.940597454372034 -15.985870897209209, -11.500000000000005 -16 C-11.500000000000004 -16, -11.500000000000002 -16, -11.5 -16" stroke="none" stroke-width="0" fill="#eee" style=""/><path d="M-11.5 -16 C-2.4325689579984715 -16, 6.634862084003057 -16, 11.5 -16 M-11.5 -16 C-3.863125526159788 -16, 3.7737489476804242 -16, 11.5 -16 M11.5 -16 C11.5 -16, 11.499999999999998 -16, 11.499999999999998 -16 M11.5 -16 C11.5 -16, 11.5 -16, 11.499999999999998 -16 M11.499999999999998 -16 C11.805895873177818 -15.990190514737385, 12.111791746355635 -15.980381029474769, 12.525123519691405 -15.967126284005381 M11.499999999999998 -16 C11.725424244640308 -15.99277108323606, 11.950848489280618 -15.985542166472118, 12.525123519691405 -15.967126284005381 M12.525123519691405 -15.967126284005381 C12.86148907361154 -15.93467750355747, 13.197854627531676 -15.90222872310956, 13.546034586952095 -15.868640221171939 M12.525123519691405 -15.967126284005381 C12.887798475778714 -15.932139467172089, 13.250473431866025 -15.897152650338796, 13.546034586952095 -15.868640221171939 M13.546034586952095 -15.868640221171939 C13.852803294502372 -15.819044235562068, 14.159572002052652 -15.769448249952196, 14.558538059221954 -15.704946511857047 M13.546034586952095 -15.868640221171939 C13.769484796950909 -15.83251452410159, 13.992935006949725 -15.79638882703124, 14.558538059221954 -15.704946511857047 M14.558538059221954 -15.704946511857047 C14.897417693444252 -15.627599446742087, 15.23629732766655 -15.550252381627125, 15.558473342552116 -15.476717808624471 M14.558538059221954 -15.704946511857047 C14.946183878904511 -15.616468883139882, 15.333829698587069 -15.527991254422718, 15.558473342552116 -15.476717808624471 M15.558473342552116 -15.476717808624471 C15.943780847904153 -15.362360563556354, 16.32908835325619 -15.248003318488237, 16.54173148837793 -15.184891952170698 M15.558473342552116 -15.476717808624471 C15.95067311040813 -15.360314976223398, 16.342872878264146 -15.243912143822325, 16.54173148837793 -15.184891952170698 M16.54173148837793 -15.184891952170698 C16.799960168610045 -15.089861410805526, 17.058188848842164 -14.994830869440355, 17.504272078069985 -14.830668117536348 M16.54173148837793 -15.184891952170698 C16.75714038172846 -15.105619488199721, 16.972549275078986 -15.026347024228745, 17.504272078069985 -14.830668117536348 M17.504272078069985 -14.830668117536348 C17.874000949718155 -14.667000113675, 18.243729821366326 -14.503332109813654, 18.44213982588093 -14.415501886438706 M17.504272078069985 -14.830668117536348 C17.71765418449412 -14.736210188777674, 17.931036290918254 -14.641752260019002, 18.44213982588093 -14.415501886438706 M18.44213982588093 -14.415501886438706 C18.62942619570428 -14.31779470726451, 18.81671256552763 -14.220087528090312, 19.351480832063 -13.941099265974232 M18.44213982588093 -14.415501886438706 C18.71559426272048 -14.27284088189544, 18.989048699560026 -14.130179877352173, 19.351480832063 -13.941099265974232 M19.351480832063 -13.941099265974232 C19.640464617351572 -13.765915597075074, 19.929448402640144 -13.590731928175915, 20.228558419368778 -13.409409678269451 M19.351480832063 -13.941099265974232 C19.556098242671297 -13.817058989198106, 19.760715653279593 -13.693018712421981, 20.228558419368778 -13.409409678269451 M20.228558419368778 -13.409409678269451 C20.411270039156307 -13.281957961764215, 20.593981658943832 -13.154506245258977, 21.069768487859456 -12.822617949887306 M20.228558419368778 -13.409409678269451 C20.413465379902156 -13.280426587094677, 20.598372340435535 -13.151443495919903, 21.069768487859456 -12.822617949887306 M21.069768487859456 -12.822617949887306 C21.36056598776635 -12.590714682158024, 21.651363487673244 -12.358811414428745, 21.871654324924613 -12.183135333906153 M21.069768487859456 -12.822617949887306 C21.386621181840685 -12.569936358241577, 21.703473875821913 -12.317254766595848, 21.871654324924613 -12.183135333906153 M21.871654324924613 -12.183135333906153 C22.058450156049897 -12.013492302425028, 22.24524598717518 -11.843849270943906, 22.630920809655784 -11.493589601563642 M21.871654324924613 -12.183135333906153 C22.03297611457958 -12.036627152882167, 22.19429790423455 -11.890118971858183, 22.630920809655784 -11.493589601563642 M22.630920809655784 -11.493589601563642 C22.812976875084228 -11.305601766927825, 22.99503294051267 -11.11761393229201, 23.344447953205048 -10.756814244181072 M22.630920809655784 -11.493589601563642 C22.78030617601085 -11.339336946035365, 22.929691542365916 -11.185084290507088, 23.344447953205048 -10.756814244181072 M23.344447953205048 -10.756814244181072 C23.55414732633221 -10.510489428273551, 23.76384669945937 -10.26416461236603, 24.00930371948848 -9.975836829739738 M23.344447953205048 -10.756814244181072 C23.573752328375164 -10.48746027731768, 23.803056703545277 -10.218106310454289, 24.00930371948848 -9.975836829739738 M24.00930371948848 -9.975836829739738 C24.150392360869972 -9.786790903728184, 24.29148100225147 -9.597744977716628, 24.62275607355129 -9.153866561954718 M24.00930371948848 -9.975836829739738 C24.168187738206935 -9.762946719288884, 24.32707175692539 -9.550056608838029, 24.62275607355129 -9.153866561954718 M24.62275607355129 -9.153866561954718 C24.820508068102495 -8.85006639447829, 25.018260062653702 -8.546266227001864, 25.182284208085537 -8.294281092968403 M24.62275607355129 -9.153866561954718 C24.813838198011812 -8.86031310604848, 25.004920322472334 -8.566759650142242, 25.182284208085537 -8.294281092968403 M25.182284208085537 -8.294281092968403 C25.363044923909406 -7.973322138015827, 25.54380563973328 -7.652363183063251, 25.685588901968003 -7.400612643853364 M25.182284208085537 -8.294281092968403 C25.349889611871873 -7.996680726658261, 25.517495015658213 -7.699080360348119, 25.685588901968003 -7.400612643853364 M25.685588901968003 -7.400612643853364 C25.79269292561064 -7.178208847100436, 25.89979694925328 -6.955805050347507, 26.130601968252996 -6.476533489958305 M25.685588901968003 -7.400612643853364 C25.84868365642246 -7.061942896559976, 26.01177841087691 -6.723273149266587, 26.130601968252996 -6.476533489958305 M26.130601968252996 -6.476533489958305 C26.208880033443297 -6.283185155534832, 26.287158098633597 -6.0898368211113585, 26.515494752796165 -5.52584087074093 M26.130601968252996 -6.476533489958305 C26.266221350489737 -6.141550993811174, 26.40184073272648 -5.806568497664045, 26.515494752796165 -5.52584087074093 M26.515494752796165 -5.52584087074093 C26.602785329568135 -5.262935561368437, 26.690075906340105 -5.000030251995944, 26.83868564858657 -4.552441386096524 M26.515494752796165 -5.52584087074093 C26.625833290384943 -5.193518775582078, 26.73617182797372 -4.861196680423227, 26.83868564858657 -4.552441386096524 M26.83868564858657 -4.552441386096524 C26.93897743992413 -4.169985318989076, 27.03926923126169 -3.787529251881627, 27.098846594909176 -3.560334943301032 M26.83868564858657 -4.552441386096524 C26.941874206478058 -4.1589386926523915, 27.045062764369543 -3.7654359992082593, 27.098846594909176 -3.560334943301032 M27.098846594909176 -3.560334943301032 C27.168814318208714 -3.2010654718414604, 27.23878204150825 -2.8417960003818883, 27.2949085346312 -2.5535983205340735 M27.098846594909176 -3.560334943301032 C27.165507549789478 -3.218045028788479, 27.232168504669783 -2.8757551142759263, 27.2949085346312 -2.5535983205340735 M27.2949085346312 -2.5535983205340735 C27.345038156911443 -2.164802869342111, 27.395167779191684 -1.7760074181501486, 27.42606580718717 -1.536368414522911 M27.2949085346312 -2.5535983205340735 C27.325845577482596 -2.3136567253887574, 27.35678262033399 -2.073715130243441, 27.42606580718717 -1.536368414522911 M27.42606580718717 -1.536368414522911 C27.439840415442212 -1.3218177722870008, 27.453615023697253 -1.1072671300510903, 27.491779459211006 -0.5128252411464826 M27.42606580718717 -1.536368414522911 C27.441906083569606 -1.2896433238255112, 27.457746359952043 -1.0429182331281113, 27.491779459211006 -0.5128252411464826 M27.491779459211006 -0.5128252411464826 C27.491779459211006 -0.28439594166288873, 27.491779459211006 -0.05596664217929481, 27.491779459211006 0.5128252411464788 M27.491779459211006 -0.5128252411464826 C27.491779459211006 -0.20607855199391711, 27.491779459211006 0.10066813715864842, 27.491779459211006 0.5128252411464788 M27.491779459211006 0.5128252411464788 C27.47534574510532 0.7687936033978481, 27.458912030999628 1.0247619656492173, 27.42606580718717 1.5363684145229002 M27.491779459211006 0.5128252411464788 C27.472153305102673 0.818518433330258, 27.452527150994335 1.1242116255140373, 27.42606580718717 1.5363684145229002 M27.42606580718717 1.5363684145229002 C27.38601466007007 1.84699720256958, 27.34596351295297 2.1576259906162596, 27.294908534631205 2.5535983205340624 M27.42606580718717 1.5363684145229002 C27.379992007950367 1.8937077031028202, 27.333918208713563 2.25104699168274, 27.294908534631205 2.5535983205340624 M27.294908534631205 2.5535983205340624 C27.218240542783963 2.9472722548838295, 27.141572550936722 3.340946189233597, 27.098846594909176 3.5603349433010285 M27.294908534631205 2.5535983205340624 C27.222427645724455 2.925772366228914, 27.14994675681771 3.2979464119237663, 27.098846594909176 3.5603349433010285 M27.098846594909176 3.5603349433010285 C27.030370839640575 3.8214626757202685, 26.961895084371974 4.082590408139509, 26.83868564858657 4.552441386096513 M27.098846594909176 3.5603349433010285 C27.024809260017456 3.842671389227075, 26.950771925125736 4.125007835153122, 26.83868564858657 4.552441386096513 M26.83868564858657 4.552441386096513 C26.741724904295864 4.84447169930347, 26.644764160005163 5.136502012510427, 26.515494752796165 5.525840870740919 M26.83868564858657 4.552441386096513 C26.771637349363182 4.754380180661614, 26.704589050139795 4.956318975226715, 26.515494752796165 5.525840870740919 M26.515494752796165 5.525840870740919 C26.38752719232379 5.84192321919216, 26.259559631851413 6.158005567643402, 26.130601968253 6.4765334899583005 M26.515494752796165 5.525840870740919 C26.416480741248442 5.7704073935694815, 26.31746672970072 6.014973916398044, 26.130601968253 6.4765334899583005 M26.130601968253 6.4765334899583005 C25.955275428852346 6.84060280041074, 25.779948889451692 7.20467211086318, 25.685588901968003 7.400612643853361 M26.130601968253 6.4765334899583005 C25.960316629376067 6.830134639658821, 25.790031290499137 7.183735789359341, 25.685588901968003 7.400612643853361 M25.685588901968003 7.400612643853361 C25.572729100347868 7.6010066499240665, 25.45986929872773 7.801400655994773, 25.18228420808554 8.294281092968399 M25.685588901968003 7.400612643853361 C25.56302610333801 7.6182353036500565, 25.440463304708018 7.835857963446753, 25.18228420808554 8.294281092968399 M25.18228420808554 8.294281092968399 C24.993001627481632 8.585069966265696, 24.803719046877724 8.87585883956299, 24.622756073551297 9.15386656195471 M25.18228420808554 8.294281092968399 C25.055950356480427 8.488363814423014, 24.929616504875312 8.682446535877627, 24.622756073551297 9.15386656195471 M24.622756073551297 9.15386656195471 C24.437018312449347 9.402738240773191, 24.251280551347392 9.651609919591671, 24.00930371948848 9.975836829739734 M24.622756073551297 9.15386656195471 C24.40026814340148 9.451980119288056, 24.17778021325166 9.750093676621404, 24.00930371948848 9.975836829739734 M24.00930371948848 9.975836829739734 C23.771402351668446 10.255289313352462, 23.53350098384841 10.53474179696519, 23.344447953205055 10.756814244181063 M24.00930371948848 9.975836829739734 C23.809282297133972 10.210793373978694, 23.609260874779466 10.445749918217654, 23.344447953205055 10.756814244181063 M23.344447953205055 10.756814244181063 C23.188717812992607 10.917618399632707, 23.032987672780163 11.07842255508435, 22.630920809655784 11.493589601563638 M23.344447953205055 10.756814244181063 C23.06347871777458 11.046938047766265, 22.782509482344103 11.337061851351464, 22.630920809655784 11.493589601563638 M22.630920809655784 11.493589601563638 C22.43961738634949 11.667326308999204, 22.24831396304319 11.841063016434772, 21.871654324924627 12.183135333906142 M22.630920809655784 11.493589601563638 C22.376389548821653 11.724748158125077, 22.12185828798752 11.955906714686515, 21.871654324924627 12.183135333906142 M21.871654324924627 12.183135333906142 C21.638131338699694 12.36936370111288, 21.404608352474757 12.555592068319617, 21.06976848785946 12.822617949887304 M21.871654324924627 12.183135333906142 C21.647355051066747 12.362008035953448, 21.423055777208866 12.540880738000755, 21.06976848785946 12.822617949887304 M21.06976848785946 12.822617949887304 C20.772149272772445 13.030224230603833, 20.47453005768543 13.237830511320363, 20.228558419368788 13.409409678269446 M21.06976848785946 12.822617949887304 C20.739291136177968 13.053144644286332, 20.408813784496477 13.28367133868536, 20.228558419368788 13.409409678269446 M20.228558419368788 13.409409678269446 C20.034598888599557 13.526989085654476, 19.840639357830327 13.644568493039506, 19.351480832063004 13.94109926597423 M20.228558419368788 13.409409678269446 C19.969102546455076 13.56669335316169, 19.709646673541364 13.723977028053932, 19.351480832063004 13.94109926597423 M19.351480832063004 13.94109926597423 C19.108545229153133 14.06783861440463, 18.865609626243263 14.194577962835028, 18.442139825880933 14.415501886438705 M19.351480832063004 13.94109926597423 C19.01521785484789 14.11652744580064, 18.678954877632776 14.291955625627049, 18.442139825880933 14.415501886438705 M18.442139825880933 14.415501886438705 C18.068923424376628 14.580713716313465, 17.695707022872323 14.745925546188225, 17.50427207806999 14.830668117536346 M18.442139825880933 14.415501886438705 C18.10288270963567 14.565680948095695, 17.7636255933904 14.715860009752683, 17.50427207806999 14.830668117536346 M17.50427207806999 14.830668117536346 C17.242961124993748 14.926832963800376, 16.981650171917504 15.022997810064403, 16.54173148837794 15.184891952170695 M17.50427207806999 14.830668117536346 C17.18412642487258 14.94848467730697, 16.863980771675173 15.066301237077594, 16.54173148837794 15.184891952170695 M16.54173148837794 15.184891952170695 C16.196613783220688 15.287321075501566, 15.851496078063434 15.38975019883244, 15.558473342552134 15.476717808624468 M16.54173148837794 15.184891952170695 C16.16920162500445 15.295456860170791, 15.79667176163096 15.406021768170888, 15.558473342552134 15.476717808624468 M15.558473342552134 15.476717808624468 C15.273838486806147 15.54168385703247, 14.98920363106016 15.606649905440474, 14.558538059221961 15.704946511857045 M15.558473342552134 15.476717808624468 C15.257591392262674 15.545392150339818, 14.956709441973214 15.61406649205517, 14.558538059221961 15.704946511857045 M14.558538059221961 15.704946511857045 C14.162719220949993 15.76893943200792, 13.766900382678026 15.832932352158798, 13.546034586952105 15.868640221171937 M14.558538059221961 15.704946511857045 C14.217543347644675 15.760075892371377, 13.87654863606739 15.81520527288571, 13.546034586952105 15.868640221171937 M13.546034586952105 15.868640221171937 C13.241507691988232 15.898017564481927, 12.936980797024358 15.927394907791916, 12.525123519691405 15.967126284005381 M13.546034586952105 15.868640221171937 C13.137885890730056 15.908013835025853, 12.729737194508006 15.947387448879772, 12.525123519691405 15.967126284005381 M12.525123519691405 15.967126284005381 C12.124046492837751 15.979988043607504, 11.722969465984097 15.992849803209628, 11.500000000000004 16 M12.525123519691405 15.967126284005381 C12.117423033293218 15.980200445063316, 11.70972254689503 15.99327460612125, 11.500000000000004 16 M11.500000000000004 16 C11.500000000000002 16, 11.500000000000002 16, 11.5 16 M11.500000000000004 16 C11.500000000000002 16, 11.500000000000002 16, 11.5 16 M11.5 16 C3.358878221785991 16, -4.782243556428018 16, -11.499999999999996 16 M11.5 16 C4.171864449366895 16, -3.15627110126621 16, -11.499999999999996 16 M-11.499999999999996 16 C-11.715228422271077 15.993098043414477, -11.930456844542157 15.986196086828953, -12.5251235196914 15.967126284005381 M-11.499999999999996 16 C-11.824212940094155 15.989603122053385, -12.148425880188315 15.97920624410677, -12.5251235196914 15.967126284005381 M-12.5251235196914 15.967126284005381 C-12.776365550851153 15.94288926742215, -13.027607582010909 15.91865225083892, -13.5460345869521 15.868640221171937 M-12.5251235196914 15.967126284005381 C-12.768341837581286 15.943663305391368, -13.01156015547117 15.920200326777353, -13.5460345869521 15.868640221171937 M-13.5460345869521 15.868640221171937 C-13.90396069641775 15.810773503551966, -14.261886805883398 15.752906785931994, -14.558538059221956 15.704946511857045 M-13.5460345869521 15.868640221171937 C-13.950794261602118 15.80320181593268, -14.355553936252136 15.737763410693422, -14.558538059221956 15.704946511857045 M-14.558538059221956 15.704946511857045 C-14.877045919843516 15.632249171128207, -15.195553780465076 15.559551830399368, -15.558473342552112 15.476717808624471 M-14.558538059221956 15.704946511857045 C-14.887073001509368 15.629960555170799, -15.21560794379678 15.554974598484552, -15.558473342552112 15.476717808624471 M-15.558473342552112 15.476717808624471 C-15.864574462267894 15.385868603050392, -16.170675581983676 15.295019397476315, -16.541731488377923 15.184891952170702 M-15.558473342552112 15.476717808624471 C-15.78826277519606 15.408517511205094, -16.018052207840007 15.340317213785717, -16.541731488377923 15.184891952170702 M-16.541731488377923 15.184891952170702 C-16.820852815870776 15.082172723484065, -17.099974143363628 14.979453494797427, -17.504272078069988 14.830668117536348 M-16.541731488377923 15.184891952170702 C-16.79584268052294 15.091376684483226, -17.049953872667956 14.997861416795748, -17.504272078069988 14.830668117536348 M-17.504272078069988 14.830668117536348 C-17.81992866943253 14.690936308160243, -18.135585260795075 14.551204498784138, -18.44213982588093 14.415501886438708 M-17.504272078069988 14.830668117536348 C-17.823827094775933 14.689210590903398, -18.143382111481877 14.547753064270449, -18.44213982588093 14.415501886438708 M-18.44213982588093 14.415501886438708 C-18.67535607989959 14.293833116099313, -18.908572333918247 14.172164345759919, -19.351480832063 13.941099265974234 M-18.44213982588093 14.415501886438708 C-18.77854995312009 14.239996938539008, -19.114960080359253 14.064491990639308, -19.351480832063 13.941099265974234 M-19.351480832063 13.941099265974234 C-19.645092077909002 13.763110403291185, -19.938703323755 13.585121540608135, -20.228558419368767 13.409409678269457 M-19.351480832063 13.941099265974234 C-19.69883636942918 13.730530297935136, -20.046191906795364 13.51996132989604, -20.228558419368767 13.409409678269457 M-20.228558419368767 13.409409678269457 C-20.45248065999712 13.253211216644683, -20.676402900625476 13.097012755019911, -21.069768487859456 12.822617949887308 M-20.228558419368767 13.409409678269457 C-20.419361201728037 13.276313917014956, -20.610163984087308 13.143218155760454, -21.069768487859456 12.822617949887308 M-21.069768487859456 12.822617949887308 C-21.384254969107406 12.571823349928803, -21.698741450355357 12.321028749970298, -21.871654324924613 12.183135333906154 M-21.069768487859456 12.822617949887308 C-21.27861131141892 12.656071355639572, -21.487454134978382 12.489524761391836, -21.871654324924613 12.183135333906154 M-21.871654324924613 12.183135333906154 C-22.11235821819781 11.96453442671146, -22.353062111471008 11.745933519516765, -22.630920809655777 11.493589601563649 M-21.871654324924613 12.183135333906154 C-22.055470379831785 12.016198456345762, -22.239286434738954 11.849261578785372, -22.630920809655777 11.493589601563649 M-22.630920809655777 11.493589601563649 C-22.89323497229253 11.222728692247927, -23.15554913492928 10.951867782932204, -23.344447953205048 10.756814244181069 M-22.630920809655777 11.493589601563649 C-22.901677473316123 11.21401111679884, -23.17243413697647 10.934432632034031, -23.344447953205048 10.756814244181069 M-23.344447953205048 10.756814244181069 C-23.490411815192523 10.585356786311547, -23.63637567718 10.413899328442026, -24.009303719488475 9.97583682973974 M-23.344447953205048 10.756814244181069 C-23.594699392194084 10.462854664234275, -23.844950831183123 10.168895084287481, -24.009303719488475 9.97583682973974 M-24.009303719488475 9.97583682973974 C-24.230632782444566 9.679276048871015, -24.451961845400657 9.382715268002293, -24.62275607355129 9.15386656195472 M-24.009303719488475 9.97583682973974 C-24.243566382465467 9.66194620311821, -24.477829045442455 9.348055576496684, -24.62275607355129 9.15386656195472 M-24.62275607355129 9.15386656195472 C-24.812142380797074 8.862918336681, -25.00152868804286 8.571970111407282, -25.182284208085534 8.29428109296841 M-24.62275607355129 9.15386656195472 C-24.845464947086057 8.811725926499188, -25.06817382062082 8.469585291043655, -25.182284208085534 8.29428109296841 M-25.182284208085534 8.29428109296841 C-25.32927272774578 8.033288092110038, -25.47626124740603 7.7722950912516655, -25.685588901968 7.400612643853366 M-25.182284208085534 8.29428109296841 C-25.37061752782603 7.959876212952566, -25.558950847566525 7.625471332936723, -25.685588901968 7.400612643853366 M-25.685588901968 7.400612643853366 C-25.80668943914888 7.149144787260867, -25.92778997632976 6.897676930668368, -26.130601968252996 6.476533489958307 M-25.685588901968 7.400612643853366 C-25.830433925145982 7.099838854037269, -25.975278948323965 6.799065064221173, -26.130601968252996 6.476533489958307 M-26.130601968252996 6.476533489958307 C-26.27307439855655 6.124623832591486, -26.415546828860098 5.772714175224665, -26.515494752796165 5.525840870740931 M-26.130601968252996 6.476533489958307 C-26.25200004939027 6.176677882477022, -26.373398130527537 5.876822274995737, -26.515494752796165 5.525840870740931 M-26.515494752796165 5.525840870740931 C-26.581050140849563 5.328398486756746, -26.64660552890296 5.13095610277256, -26.83868564858657 4.552441386096519 M-26.515494752796165 5.525840870740931 C-26.61846597508548 5.215707955441765, -26.7214371973748 4.905575040142599, -26.83868564858657 4.552441386096519 M-26.83868564858657 4.552441386096519 C-26.93080918637793 4.201134409904212, -27.022932724169294 3.849827433711904, -27.098846594909176 3.5603349433010343 M-26.83868564858657 4.552441386096519 C-26.895379134655002 4.336244552605294, -26.952072620723435 4.120047719114069, -27.098846594909176 3.5603349433010343 M-27.098846594909176 3.5603349433010343 C-27.15860165487681 3.253505339603621, -27.218356714844447 2.9466757359062075, -27.2949085346312 2.5535983205340753 M-27.098846594909176 3.5603349433010343 C-27.163991759394026 3.225828292106719, -27.229136923878876 2.8913216409124045, -27.2949085346312 2.5535983205340753 M-27.2949085346312 2.5535983205340753 C-27.321210445423233 2.349605894330842, -27.34751235621526 2.1456134681276096, -27.42606580718717 1.5363684145229202 M-27.2949085346312 2.5535983205340753 C-27.328902629989088 2.2899468298317083, -27.362896725346975 2.0262953391293417, -27.42606580718717 1.5363684145229202 M-27.42606580718717 1.5363684145229202 C-27.447696045343605 1.199459995622478, -27.46932628350004 0.8625515767220359, -27.491779459211006 0.5128252411464846 M-27.42606580718717 1.5363684145229202 C-27.441990614903048 1.2883266800746982, -27.457915422618928 1.0402849456264762, -27.491779459211006 0.5128252411464846 M-27.491779459211006 0.5128252411464846 C-27.491779459211006 0.1867198855942988, -27.491779459211006 -0.13938546995788703, -27.491779459211006 -0.5128252411464769 M-27.491779459211006 0.5128252411464846 C-27.491779459211006 0.15829453141924482, -27.491779459211006 -0.196236178307995, -27.491779459211006 -0.5128252411464769 M-27.491779459211006 -0.5128252411464769 C-27.469740948850873 -0.8560928291709207, -27.44770243849074 -1.1993604171953645, -27.42606580718717 -1.5363684145228982 M-27.491779459211006 -0.5128252411464769 C-27.474014236673433 -0.789532921998708, -27.45624901413586 -1.066240602850939, -27.42606580718717 -1.5363684145228982 M-27.42606580718717 -1.5363684145228982 C-27.375266809727382 -1.9303554074243607, -27.324467812267592 -2.3243424003258233, -27.294908534631205 -2.5535983205340678 M-27.42606580718717 -1.5363684145228982 C-27.39493909955075 -1.77778101228734, -27.363812391914326 -2.019193610051782, -27.294908534631205 -2.5535983205340678 M-27.294908534631205 -2.5535983205340678 C-27.23184685052461 -2.877406740329752, -27.168785166418022 -3.201215160125436, -27.098846594909176 -3.5603349433010267 M-27.294908534631205 -2.5535983205340678 C-27.25097426465773 -2.7791915113366077, -27.207039994684255 -3.004784702139148, -27.098846594909176 -3.5603349433010267 M-27.098846594909176 -3.5603349433010267 C-27.01888399076297 -3.8652670089223773, -26.938921386616762 -4.170199074543728, -26.838685648586573 -4.552441386096511 M-27.098846594909176 -3.5603349433010267 C-27.03974038580178 -3.7857325354206, -26.980634176694384 -4.011130127540174, -26.838685648586573 -4.552441386096511 M-26.838685648586573 -4.552441386096511 C-26.732310677782085 -4.872825849609688, -26.6259357069776 -5.193210313122865, -26.515494752796172 -5.525840870740911 M-26.838685648586573 -4.552441386096511 C-26.75907602524376 -4.792212887534111, -26.67946640190095 -5.03198438897171, -26.515494752796172 -5.525840870740911 M-26.515494752796172 -5.525840870740911 C-26.392247287006594 -5.830264494068822, -26.26899982121701 -6.134688117396732, -26.130601968253 -6.476533489958299 M-26.515494752796172 -5.525840870740911 C-26.411563076549164 -5.7825541204532795, -26.30763140030216 -6.039267370165648, -26.130601968253 -6.476533489958299 M-26.130601968253 -6.476533489958299 C-26.038567394132233 -6.667645252344494, -25.946532820011466 -6.858757014730688, -25.685588901968003 -7.400612643853359 M-26.130601968253 -6.476533489958299 C-26.028019412802855 -6.689548361265589, -25.925436857352715 -6.90256323257288, -25.685588901968003 -7.400612643853359 M-25.685588901968003 -7.400612643853359 C-25.529573873197585 -7.677633125670002, -25.373558844427166 -7.9546536074866445, -25.182284208085537 -8.294281092968404 M-25.685588901968003 -7.400612643853359 C-25.555049592395516 -7.632398406537776, -25.424510282823025 -7.864184169222194, -25.182284208085537 -8.294281092968404 M-25.182284208085537 -8.294281092968404 C-24.976692541379915 -8.610125102120753, -24.771100874674293 -8.925969111273101, -24.622756073551294 -9.153866561954715 M-25.182284208085537 -8.294281092968404 C-24.985891304546293 -8.595993331683424, -24.789498401007048 -8.897705570398442, -24.622756073551294 -9.153866561954715 M-24.622756073551294 -9.153866561954715 C-24.487721226644968 -9.334800954881562, -24.352686379738643 -9.51573534780841, -24.00930371948848 -9.975836829739734 M-24.622756073551294 -9.153866561954715 C-24.4368161460241 -9.403009125365276, -24.25087621849691 -9.65215168877584, -24.00930371948848 -9.975836829739734 M-24.00930371948848 -9.975836829739734 C-23.796024166144974 -10.226367129047398, -23.582744612801466 -10.476897428355063, -23.344447953205055 -10.756814244181063 M-24.00930371948848 -9.975836829739734 C-23.747006184255188 -10.283946439777324, -23.484708649021897 -10.592056049814914, -23.344447953205055 -10.756814244181063 M-23.344447953205055 -10.756814244181063 C-23.177068899737986 -10.929646858961668, -23.00968984627092 -11.102479473742273, -22.63092080965579 -11.493589601563633 M-23.344447953205055 -10.756814244181063 C-23.121447011265005 -10.987081025451992, -22.898446069324958 -11.217347806722922, -22.63092080965579 -11.493589601563633 M-22.63092080965579 -11.493589601563633 C-22.46711001613765 -11.64235823004072, -22.303299222619508 -11.791126858517806, -21.871654324924627 -12.18313533390614 M-22.63092080965579 -11.493589601563633 C-22.421468191359285 -11.683808927687922, -22.21201557306278 -11.874028253812213, -21.871654324924627 -12.18313533390614 M-21.871654324924627 -12.18313533390614 C-21.663726270978877 -12.34895242372998, -21.45579821703313 -12.51476951355382, -21.069768487859463 -12.822617949887302 M-21.871654324924627 -12.18313533390614 C-21.57499931144631 -12.41970981283365, -21.278344297967994 -12.65628429176116, -21.069768487859463 -12.822617949887302 M-21.069768487859463 -12.822617949887302 C-20.790311882034718 -13.017554780629153, -20.510855276209977 -13.212491611371005, -20.228558419368788 -13.409409678269444 M-21.069768487859463 -12.822617949887302 C-20.806654719752103 -13.00615472450755, -20.543540951644744 -13.189691499127798, -20.228558419368788 -13.409409678269444 M-20.228558419368788 -13.409409678269444 C-19.960659975622615 -13.57181128921438, -19.692761531876442 -13.734212900159315, -19.351480832063007 -13.941099265974229 M-20.228558419368788 -13.409409678269444 C-19.966471929039574 -13.56828804889819, -19.704385438710364 -13.727166419526933, -19.351480832063007 -13.941099265974229 M-19.351480832063007 -13.941099265974229 C-19.06566535630797 -14.090209016602083, -18.77984988055293 -14.239318767229937, -18.442139825880936 -14.415501886438705 M-19.351480832063007 -13.941099265974229 C-19.105127524412644 -14.069621628778599, -18.858774216762285 -14.198143991582969, -18.442139825880936 -14.415501886438705 M-18.442139825880936 -14.415501886438705 C-18.110781867375565 -14.562184225284431, -17.779423908870193 -14.708866564130158, -17.504272078069995 -14.830668117536344 M-18.442139825880936 -14.415501886438705 C-18.230035258536684 -14.509394286543564, -18.017930691192436 -14.603286686648422, -17.504272078069995 -14.830668117536344 M-17.504272078069995 -14.830668117536344 C-17.208618729462913 -14.939471282813345, -16.91296538085583 -15.048274448090348, -16.54173148837794 -15.184891952170695 M-17.504272078069995 -14.830668117536344 C-17.172930752591974 -14.952604788197894, -16.841589427113956 -15.074541458859441, -16.54173148837794 -15.184891952170695 M-16.54173148837794 -15.184891952170695 C-16.33904323658236 -15.24504876137128, -16.136354984786774 -15.305205570571864, -15.558473342552134 -15.476717808624466 M-16.54173148837794 -15.184891952170695 C-16.298236857094714 -15.257159880606155, -16.054742225811488 -15.329427809041615, -15.558473342552134 -15.476717808624466 M-15.558473342552134 -15.476717808624466 C-15.23044809404176 -15.551587431032166, -14.902422845531385 -15.626457053439866, -14.558538059221963 -15.704946511857043 M-15.558473342552134 -15.476717808624466 C-15.169153419261635 -15.565577540565595, -14.779833495971138 -15.654437272506726, -14.558538059221963 -15.704946511857043 M-14.558538059221963 -15.704946511857043 C-14.194802590842023 -15.763752441574027, -13.831067122462082 -15.82255837129101, -13.546034586952107 -15.868640221171937 M-14.558538059221963 -15.704946511857043 C-14.181483178583704 -15.765905820854368, -13.804428297945444 -15.82686512985169, -13.546034586952107 -15.868640221171937 M-13.546034586952107 -15.868640221171937 C-13.32902836655857 -15.889574550265138, -13.11202214616503 -15.91050887935834, -12.525123519691407 -15.967126284005381 M-13.546034586952107 -15.868640221171937 C-13.146666864712815 -15.907166745026403, -12.747299142473523 -15.94569326888087, -12.525123519691407 -15.967126284005381 M-12.525123519691407 -15.967126284005381 C-12.223799374065246 -15.976789162863744, -11.922475228439087 -15.986452041722105, -11.500000000000005 -16 M-12.525123519691407 -15.967126284005381 C-12.162338674547911 -15.97876008787127, -11.799553829404415 -15.990393891737158, -11.500000000000005 -16 M-11.500000000000005 -16 C-11.500000000000004 -16, -11.500000000000002 -16, -11.5 -16 M-11.500000000000005 -16 C-11.500000000000004 -16, -11.500000000000004 -16, -11.5 -16" stroke="#999" stroke-width="1.3" fill="none" stroke-dasharray="0 0" style=""/></g><g class="label" style="" transform="translate(0, -8.5)"><rect/><g><rect class="background" style="stroke: none"/><text y="-10.1" style=""><tspan class="text-outer-tspan row" x="0" y="-0.1em" dy="1.1em"><tspan font-style="normal" class="text-inner-tspan" font-weight="normal">开始</tspan></tspan></text></g></g></g><g class="node default" id="my-svg-flowchart-Request-1" data-look="classic" transform="translate(681.7890625, 113.5)"><rect class="basic label-container" style="" x="-86.08203125" y="-23.5" width="172.1640625" height="47"/><g class="label" style="" transform="translate(0, -8.5)"><rect/><g><rect class="background" style="stroke: none"/><text y="-10.1" style=""><tspan class="text-outer-tspan row" x="0" y="-0.1em" dy="1.1em"><tspan font-style="normal" class="text-inner-tspan" font-weight="normal">请求</tspan><tspan font-style="normal" class="text-inner-tspan" font-weight="normal"> DeepSeek</tspan></tspan></text></g></g></g><g class="node default" id="my-svg-flowchart-Check-3" data-look="classic" transform="translate(681.7890625, 266.5)"><polygon points="79.5,0 159,-79.5 79.5,-159 0,-79.5" class="label-container" transform="translate(-79, 79.5)"/><g class="label" style="" transform="translate(0, -8.5)"><rect/><g><rect class="background" style="stroke: none"/><text y="-10.1" style=""><tspan class="text-outer-tspan row" x="0" y="-0.1em" dy="1.1em"><tspan font-style="normal" class="text-inner-tspan" font-weight="normal">返回什么信号？</tspan></tspan></text></g></g></g><g class="node default" id="my-svg-flowchart-Done-5" data-look="classic" transform="translate(110, 488.5)"><rect class="basic label-container" style="" x="-102" y="-32.29999923706055" width="204" height="64.5999984741211"/><g class="label" style="" transform="translate(0, -17.299999237060547)"><rect/><g><rect class="background" style="stroke: none"/><text y="-10.1" style=""><tspan class="text-outer-tspan row" x="0" y="-0.1em" dy="1.1em"><tspan font-style="normal" class="text-inner-tspan" font-weight="normal">回到</tspan><tspan font-style="normal" class="text-inner-tspan" font-weight="normal"> Agent</tspan><tspan font-style="normal" class="text-inner-tspan" font-weight="normal"> Loop</tspan></tspan><tspan class="text-outer-tspan row" x="0" y="1em" dy="1.1em"><tspan font-style="normal" class="text-inner-tspan" font-weight="normal">执行工具或输出答案</tspan></tspan></text></g></g></g><g class="node default" id="my-svg-flowchart-L1-7" data-look="classic" transform="translate(333.5, 488.5)"><polygon points="71.5,0 143,-71.5 71.5,-143 0,-71.5" class="label-container" transform="translate(-71, 71.5)"/><g class="label" style="" transform="translate(0, -8.5)"><rect/><g><rect class="background" style="stroke: none"/><text y="-10.1" style=""><tspan class="text-outer-tspan row" x="0" y="-0.1em" dy="1.1em"><tspan font-style="normal" class="text-inner-tspan" font-weight="normal">第一次截断？</tspan></tspan></text></g></g></g><g class="node default" id="my-svg-flowchart-L2-9" data-look="classic" transform="translate(221.75, 710.5)"><rect class="basic label-container" style="" x="-118.9140625" y="-32.29999923706055" width="237.828125" height="64.5999984741211"/><g class="label" style="" transform="translate(0, -17.299999237060547)"><rect/><g><rect class="background" style="stroke: none"/><text y="-10.1" style=""><tspan class="text-outer-tspan row" x="0" y="-0.1em" dy="1.1em"><tspan font-style="normal" class="text-inner-tspan" font-weight="normal">扩大输出上限</tspan></tspan><tspan class="text-outer-tspan row" x="0" y="1em" dy="1.1em"><tspan font-style="normal" class="text-inner-tspan" font-weight="normal">用原</tspan><tspan font-style="normal" class="text-inner-tspan" font-weight="normal"> messages</tspan><tspan font-style="normal" class="text-inner-tspan" font-weight="normal"> 重新请求</tspan></tspan></text></g></g></g><g class="node default" id="my-svg-flowchart-L3-11" data-look="classic" transform="translate(470.1640625, 710.5)"><polygon points="79.5,0 159,-79.5 79.5,-159 0,-79.5" class="label-container" transform="translate(-79, 79.5)"/><g class="label" style="" transform="translate(0, -8.5)"><rect/><g><rect class="background" style="stroke: none"/><text y="-10.1" style=""><tspan class="text-outer-tspan row" x="0" y="-0.1em" dy="1.1em"><tspan font-style="normal" class="text-inner-tspan" font-weight="normal">工具调用完整？</tspan></tspan></text></g></g></g><g class="node default" id="my-svg-flowchart-Stop-13" data-look="classic" transform="translate(686.4140625, 1164.099998474121)"><rect class="basic label-container" style="" x="-62" y="-23.5" width="124" height="47"/><g class="label" style="" transform="translate(0, -8.5)"><rect/><g><rect class="background" style="stroke: none"/><text y="-10.1" style=""><tspan class="text-outer-tspan row" x="0" y="-0.1em" dy="1.1em"><tspan font-style="normal" class="text-inner-tspan" font-weight="normal">明确停止</tspan></tspan></text></g></g></g><g class="node default" id="my-svg-flowchart-L4-15" data-look="classic" transform="translate(540.4140625, 956.5)"><polygon points="95.5,0 191,-95.5 95.5,-191 0,-95.5" class="label-container" transform="translate(-95, 95.5)"/><g class="label" style="" transform="translate(0, -8.5)"><rect/><g><rect class="background" style="stroke: none"/><text y="-10.1" style=""><tspan class="text-outer-tspan row" x="0" y="-0.1em" dy="1.1em"><tspan font-style="normal" class="text-inner-tspan" font-weight="normal">续写次数还没用完？</tspan></tspan></text></g></g></g><g class="node default" id="my-svg-flowchart-L5-17" data-look="classic" transform="translate(170.0390625, 1164.099998474121)"><rect class="basic label-container" style="" x="-78" y="-41.099998474121094" width="156" height="82.19999694824219"/><g class="label" style="" transform="translate(0, -26.099998474121094)"><rect/><g><rect class="background" style="stroke: none"/><text y="-10.1" style=""><tspan class="text-outer-tspan row" x="0" y="-0.1em" dy="1.1em"><tspan font-style="normal" class="text-inner-tspan" font-weight="normal">保存文本片段</tspan></tspan><tspan class="text-outer-tspan row" x="0" y="1em" dy="1.1em"><tspan font-style="normal" class="text-inner-tspan" font-weight="normal">追加续写提示</tspan></tspan><tspan class="text-outer-tspan row" x="0" y="2.1em" dy="1.1em"><tspan font-style="normal" class="text-inner-tspan" font-weight="normal">重新请求</tspan></tspan></text></g></g></g><g class="node default" id="my-svg-flowchart-C1-21" data-look="classic" transform="translate(770.2890625, 956.5)"><polygon points="71.5,0 143,-71.5 71.5,-143 0,-71.5" class="label-container" transform="translate(-71, 71.5)"/><g class="label" style="" transform="translate(0, -8.5)"><rect/><g><rect class="background" style="stroke: none"/><text y="-10.1" style=""><tspan class="text-outer-tspan row" x="0" y="-0.1em" dy="1.1em"><tspan font-style="normal" class="text-inner-tspan" font-weight="normal">已经压缩过？</tspan></tspan></text></g></g></g><g class="node default" id="my-svg-flowchart-C2-23" data-look="classic" transform="translate(388.7890625, 1164.099998474121)"><rect class="basic label-container" style="" x="-90.75" y="-32.29999923706055" width="181.5" height="64.5999984741211"/><g class="label" style="" transform="translate(0, -17.299999237060547)"><rect/><g><rect class="background" style="stroke: none"/><text y="-10.1" style=""><tspan class="text-outer-tspan row" x="0" y="-0.1em" dy="1.1em"><tspan font-style="normal" class="text-inner-tspan" font-weight="normal">reactive</tspan><tspan font-style="normal" class="text-inner-tspan" font-weight="normal"> compact</tspan></tspan><tspan class="text-outer-tspan row" x="0" y="1em" dy="1.1em"><tspan font-style="normal" class="text-inner-tspan" font-weight="normal">重新请求</tspan></tspan></text></g></g></g><g class="node default" id="my-svg-flowchart-R1-27" data-look="classic" transform="translate(1001.7890625, 956.5)"><polygon points="95.5,0 191,-95.5 95.5,-191 0,-95.5" class="label-container" transform="translate(-95, 95.5)"/><g class="label" style="" transform="translate(0, -8.5)"><rect/><g><rect class="background" style="stroke: none"/><text y="-10.1" style=""><tspan class="text-outer-tspan row" x="0" y="-0.1em" dy="1.1em"><tspan font-style="normal" class="text-inner-tspan" font-weight="normal">重试次数还没用完？</tspan></tspan></text></g></g></g><g class="node default" id="my-svg-flowchart-R2-29" data-look="classic" transform="translate(1067.0390625, 1164.099998474121)"><rect class="basic label-container" style="" x="-94" y="-41.099998474121094" width="188" height="82.19999694824219"/><g class="label" style="" transform="translate(0, -26.099998474121094)"><rect/><g><rect class="background" style="stroke: none"/><text y="-10.1" style=""><tspan class="text-outer-tspan row" x="0" y="-0.1em" dy="1.1em"><tspan font-style="normal" class="text-inner-tspan" font-weight="normal">等待</tspan><tspan font-style="normal" class="text-inner-tspan" font-weight="normal"> +</tspan><tspan font-style="normal" class="text-inner-tspan" font-weight="normal"> 抖动</tspan></tspan><tspan class="text-outer-tspan row" x="0" y="1em" dy="1.1em"><tspan font-style="normal" class="text-inner-tspan" font-weight="normal">必要时切备用模型</tspan></tspan><tspan class="text-outer-tspan row" x="0" y="2.1em" dy="1.1em"><tspan font-style="normal" class="text-inner-tspan" font-weight="normal">重新请求</tspan></tspan></text></g></g></g></g></g></g><defs><filter id="my-svg-drop-shadow" height="130%" width="130%"><feDropShadow dx="4" dy="4" stdDeviation="0" flood-opacity="0.06" flood-color="#000000"/></filter></defs><defs><filter id="my-svg-drop-shadow-small" height="150%" width="150%"><feDropShadow dx="2" dy="2" stdDeviation="0" flood-opacity="0.06" flood-color="#000000"/></filter></defs><linearGradient id="my-svg-gradient" gradientUnits="objectBoundingBox" x1="0%" y1="0%" x2="100%" y2="0%"><stop offset="0%" stop-color="hsl(0, 0%, 83.3333333333%)" stop-opacity="1"/><stop offset="100%" stop-color="hsl(0, 0%, 88.9215686275%)" stop-opacity="1"/></linearGradient></svg>