<svg width="1174.2890625" height="1213.199951171875" id="my-svg" xmlns="http://www.w3.org/2000/svg" xmlns:xlink="http://www.w3.org/1999/xlink" class="flowchart" style="max-width: 1174.29px; background-color: white;" viewBox="0 0 1174.2890625 1213.199951171875" role="graphics-document document" aria-roledescription="flowchart-v2"><style>#my-svg{font-family:"trebuchet ms",verdana,arial,sans-serif;font-size:16px;fill:#000000;}@keyframes edge-animation-frame{from{stroke-dashoffset:0;}}@keyframes dash{to{stroke-dashoffset:0;}}#my-svg .edge-animation-slow{stroke-dasharray:9,5!important;stroke-dashoffset:900;animation:dash 50s linear infinite;stroke-linecap:round;}#my-svg .edge-animation-fast{stroke-dasharray:9,5!important;stroke-dashoffset:900;animation:dash 20s linear infinite;stroke-linecap:round;}#my-svg .error-icon{fill:#552222;}#my-svg .error-text{fill:#552222;stroke:#552222;}#my-svg .edge-thickness-normal{stroke-width:1px;}#my-svg .edge-thickness-thick{stroke-width:3.5px;}#my-svg .edge-pattern-solid{stroke-dasharray:0;}#my-svg .edge-thickness-invisible{stroke-width:0;fill:none;}#my-svg .edge-pattern-dashed{stroke-dasharray:3;}#my-svg .edge-pattern-dotted{stroke-dasharray:2;}#my-svg .marker{fill:#666;stroke:#666;}#my-svg .marker.cross{stroke:#666;}#my-svg svg{font-family:"trebuchet ms",verdana,arial,sans-serif;font-size:16px;}#my-svg p{margin:0;}#my-svg .label{font-family:"trebuchet ms",verdana,arial,sans-serif;color:#000000;}#my-svg .cluster-label text{fill:#333;}#my-svg .cluster-label span{color:#333;}#my-svg .cluster-label span p{background-color:transparent;}#my-svg .label text,#my-svg span{fill:#000000;color:#000000;}#my-svg .node rect,#my-svg .node circle,#my-svg .node ellipse,#my-svg .node polygon,#my-svg .node path{fill:#eee;stroke:#999;stroke-width:1px;}#my-svg .rough-node .label text,#my-svg .node .label text,#my-svg .image-shape .label,#my-svg .icon-shape .label{text-anchor:middle;}#my-svg .node .katex path{fill:#000;stroke:#000;stroke-width:1px;}#my-svg .rough-node .label,#my-svg .node .label,#my-svg .image-shape .label,#my-svg .icon-shape .label{text-align:center;}#my-svg .node.clickable{cursor:pointer;}#my-svg .root .anchor path{fill:#666!important;stroke-width:0;stroke:#666;}#my-svg .arrowheadPath{fill:#333333;}#my-svg .edgePath .path{stroke:#666;stroke-width:1px;}#my-svg .flowchart-link{stroke:#666;fill:none;}#my-svg .edgeLabel{background-color:white;text-align:center;}#my-svg .edgeLabel p{background-color:white;}#my-svg .edgeLabel rect{opacity:0.5;background-color:white;fill:white;}#my-svg .labelBkg{background-color:rgba(255, 255, 255, 0.5);}#my-svg .cluster rect{fill:hsl(0, 0%, 98.9215686275%);stroke:#707070;stroke-width:1px;}#my-svg .cluster text{fill:#333;}#my-svg .cluster span{color:#333;}#my-svg div.mermaidTooltip{position:absolute;text-align:center;max-width:200px;padding:2px;font-family:"trebuchet ms",verdana,arial,sans-serif;font-size:12px;background:hsl(-160, 0%, 93.3333333333%);border:1px solid #707070;border-radius:2px;pointer-events:none;z-index:100;}#my-svg .flowchartTitleText{text-anchor:middle;font-size:18px;fill:#000000;}#my-svg rect.text{fill:none;stroke-width:0;}#my-svg .icon-shape,#my-svg .image-shape{background-color:white;text-align:center;}#my-svg .icon-shape p,#my-svg .image-shape p{background-color:white;padding:2px;}#my-svg .icon-shape .label rect,#my-svg .image-shape .label rect{opacity:0.5;background-color:white;fill:white;}#my-svg .label-icon{display:inline-block;height:1em;overflow:visible;vertical-align:-0.125em;}#my-svg .node .label-icon path{fill:currentColor;stroke:revert;stroke-width:revert;}#my-svg .node .neo-node{stroke:#999;}#my-svg [data-look="neo"].node rect,#my-svg [data-look="neo"].cluster rect,#my-svg [data-look="neo"].node polygon{stroke:url(#my-svg-gradient);filter:drop-shadow( 1px 2px 2px rgba(185,185,185,1));}#my-svg [data-look="neo"].swimlane.cluster rect{filter:none;}#my-svg [data-look="neo"].node path{stroke:url(#my-svg-gradient);stroke-width:1px;}#my-svg [data-look="neo"].node .outer-path{filter:drop-shadow( 1px 2px 2px rgba(185,185,185,1));}#my-svg [data-look="neo"].node .neo-line path{stroke:#999;filter:none;}#my-svg [data-look="neo"].node circle{stroke:url(#my-svg-gradient);filter:drop-shadow( 1px 2px 2px rgba(185,185,185,1));}#my-svg [data-look="neo"].node circle .state-start{fill:#000000;}#my-svg [data-look="neo"].icon-shape .icon{fill:url(#my-svg-gradient);filter:drop-shadow( 1px 2px 2px rgba(185,185,185,1));}#my-svg [data-look="neo"].icon-shape .icon-neo path{stroke:url(#my-svg-gradient);filter:drop-shadow( 1px 2px 2px rgba(185,185,185,1));}#my-svg :root{--mermaid-font-family:"trebuchet ms",verdana,arial,sans-serif;}</style><g><marker id="my-svg_flowchart-v2-pointEnd" class="marker flowchart-v2" viewBox="0 0 10 10" refX="5" refY="5" markerUnits="userSpaceOnUse" markerWidth="8" markerHeight="8" orient="auto"><path d="M 0 0 L 10 5 L 0 10 z" class="arrowMarkerPath" style="stroke-width: 1; stroke-dasharray: 1, 0;"/></marker><marker id="my-svg_flowchart-v2-pointStart" class="marker flowchart-v2" viewBox="0 0 10 10" refX="4.5" refY="5" markerUnits="userSpaceOnUse" markerWidth="8" markerHeight="8" orient="auto"><path d="M 0 5 L 10 10 L 10 0 z" class="arrowMarkerPath" style="stroke-width: 1; stroke-dasharray: 1, 0;"/></marker><marker id="my-svg_flowchart-v2-pointEnd-margin" class="marker flowchart-v2" viewBox="0 0 11.5 14" refX="11.5" refY="7" markerUnits="userSpaceOnUse" markerWidth="10.5" markerHeight="14" orient="auto"><path d="M 0 0 L 11.5 7 L 0 14 z" class="arrowMarkerPath" style="stroke-width: 0; stroke-dasharray: 1, 0;"/></marker><marker id="my-svg_flowchart-v2-pointStart-margin" class="marker flowchart-v2" viewBox="0 0 11.5 14" refX="1" refY="7" markerUnits="userSpaceOnUse" markerWidth="11.5" markerHeight="14" orient="auto"><polygon points="0,7 11.5,14 11.5,0" class="arrowMarkerPath" style="stroke-width: 0; stroke-dasharray: 1, 0;"/></marker><marker id="my-svg_flowchart-v2-circleEnd" class="marker flowchart-v2" viewBox="0 0 10 10" refX="11" refY="5" markerUnits="userSpaceOnUse" markerWidth="11" markerHeight="11" orient="auto"><circle cx="5" cy="5" r="5" class="arrowMarkerPath" style="stroke-width: 1; stroke-dasharray: 1, 0;"/></marker><marker id="my-svg_flowchart-v2-circleStart" class="marker flowchart-v2" viewBox="0 0 10 10" refX="-1" refY="5" markerUnits="userSpaceOnUse" markerWidth="11" markerHeight="11" orient="auto"><circle cx="5" cy="5" r="5" class="arrowMarkerPath" style="stroke-width: 1; stroke-dasharray: 1, 0;"/></marker><marker id="my-svg_flowchart-v2-circleEnd-margin" class="marker flowchart-v2" viewBox="0 0 10 10" refY="5" refX="12.25" markerUnits="userSpaceOnUse" markerWidth="14" markerHeight="14" orient="auto"><circle cx="5" cy="5" r="5" class="arrowMarkerPath" style="stroke-width: 0; stroke-dasharray: 1, 0;"/></marker><marker id="my-svg_flowchart-v2-circleStart-margin" class="marker flowchart-v2" viewBox="0 0 10 10" refX="-2" refY="5" markerUnits="userSpaceOnUse" markerWidth="14" markerHeight="14" orient="auto"><circle cx="5" cy="5" r="5" class="arrowMarkerPath" style="stroke-width: 0; stroke-dasharray: 1, 0;"/></marker><marker id="my-svg_flowchart-v2-crossEnd" class="marker cross flowchart-v2" viewBox="0 0 11 11" refX="12" refY="5.2" markerUnits="userSpaceOnUse" markerWidth="11" markerHeight="11" orient="auto"><path d="M 1,1 l 9,9 M 10,1 l -9,9" class="arrowMarkerPath" style="stroke-width: 2; stroke-dasharray: 1, 0;"/></marker><marker id="my-svg_flowchart-v2-crossStart" class="marker cross flowchart-v2" viewBox="0 0 11 11" refX="-1" refY="5.2" markerUnits="userSpaceOnUse" markerWidth="11" markerHeight="11" orient="auto"><path d="M 1,1 l 9,9 M 10,1 l -9,9" class="arrowMarkerPath" style="stroke-width: 2; stroke-dasharray: 1, 0;"/></marker><marker id="my-svg_flowchart-v2-crossEnd-margin" class="marker cross flowchart-v2" viewBox="0 0 15 15" refX="17.7" refY="7.5" markerUnits="userSpaceOnUse" markerWidth="12" markerHeight="12" orient="auto"><path d="M 1,1 L 14,14 M 1,14 L 14,1" class="arrowMarkerPath" style="stroke-width: 2.5;"/></marker><marker id="my-svg_flowchart-v2-crossStart-margin" class="marker cross flowchart-v2" viewBox="0 0 15 15" refX="-3.5" refY="7.5" markerUnits="userSpaceOnUse" markerWidth="12" markerHeight="12" orient="auto"><path d="M 1,1 L 14,14 M 1,14 L 14,1" class="arrowMarkerPath" style="stroke-width: 2.5; stroke-dasharray: 1, 0;"/></marker><g class="root"><g class="clusters"/><g class="edgePaths"><path d="M682.289,40.5L682.206,44.583C682.122,48.667,681.956,56.833,681.872,64.417C681.789,72,681.789,79,681.789,82.5L681.789,86" id="my-svg-L_Start_Request_0" class="edge-thickness-normal edge-pattern-solid edge-thickness-normal edge-pattern-solid flowchart-link" style=";" data-edge="true" data-et="edge" data-id="L_Start_Request_0" data-points="W3sieCI6NjgyLjI4OTA2MjUsInkiOjQwLjV9LHsieCI6NjgxLjc4OTA2MjUsInkiOjY1fSx7IngiOjY4MS43ODkwNjI1LCJ5Ijo5MH1d" data-look="classic" marker-end="url(#my-svg_flowchart-v2-pointEnd)"/><path d="M681.789,137L681.789,141.167C681.789,145.333,681.789,153.667,681.789,161.333C681.789,169,681.789,176,681.789,179.5L681.789,183" id="my-svg-L_Request_Check_0" class="edge-thickness-normal edge-pattern-solid edge-thickness-normal edge-pattern-solid flowchart-link" style=";" data-edge="true" data-et="edge" data-id="L_Request_Check_0" data-points="W3sieCI6NjgxLjc4OTA2MjUsInkiOjEzN30seyJ4Ijo2ODEuNzg5MDYyNSwieSI6MTYyfSx7IngiOjY4MS43ODkwNjI1LCJ5IjoxODd9XQ==" data-look="classic" marker-end="url(#my-svg_flowchart-v2-pointEnd)"/><path d="M615.601,279.812L531.334,296.76C447.067,313.708,278.534,347.604,194.267,376.335C110,405.067,110,428.633,110,440.417L110,452.2" id="my-svg-L_Check_Done_0" class="edge-thickness-normal edge-pattern-solid edge-thickness-normal edge-pattern-solid flowchart-link" style=";" data-edge="true" data-et="edge" data-id="L_Check_Done_0" data-points="W3sieCI6NjE1LjYwMTAxMDA4MjE1ODgsInkiOjI3OS44MTE5NDc1ODIxNTg4NH0seyJ4IjoxMTAsInkiOjM4MS41fSx7IngiOjExMCwieSI6NDU2LjIwMDAwMDc2MjkzOTQ1fV0=" data-look="classic" marker-end="url(#my-svg_flowchart-v2-pointEnd)"/><path d="M622.023,286.234L573.936,302.112C525.849,317.989,429.674,349.745,381.587,370.872C333.5,392,333.5,402.5,333.5,407.75L333.5,413" id="my-svg-L_Check_L1_0" class="edge-thickness-normal edge-pattern-solid edge-thickness-normal edge-pattern-solid flowchart-link" style=";" data-edge="true" data-et="edge" data-id="L_Check_L1_0" data-points="W3sieCI6NjIyLjAyMjk2MjQzNDIzMzgsInkiOjI4Ni4yMzM4OTk5MzQyMzM4fSx7IngiOjMzMy41LCJ5IjozODEuNX0seyJ4IjozMzMuNSwieSI6NDE3fV0=" data-look="classic" marker-end="url(#my-svg_flowchart-v2-pointEnd)"/><path d="M296.974,523.474L284.436,535.478C271.899,547.482,246.825,571.491,234.287,596.612C221.75,621.733,221.75,647.967,221.75,661.083L221.75,674.2" id="my-svg-L_L1_L2_0" class="edge-thickness-normal edge-pattern-solid edge-thickness-normal edge-pattern-solid flowchart-link" style=";" data-edge="true" data-et="edge" data-id="L_L1_L2_0" data-points="W3sieCI6Mjk2Ljk3MzcxNDI4NTcxNDI3LCJ5Ijo1MjMuNDczNzE0Mjg1NzE0M30seyJ4IjoyMjEuNzUsInkiOjU5NS41fSx7IngiOjIyMS43NSwieSI6Njc4LjIwMDAwMDc2MjkzOTV9XQ==" data-look="classic" marker-end="url(#my-svg_flowchart-v2-pointEnd)"/><path d="M373.602,519.898L389.696,532.498C405.79,545.098,437.977,570.299,454.07,588.15C470.164,606,470.164,616.5,470.164,621.75L470.164,627" id="my-svg-L_L1_L3_0" class="edge-thickness-normal edge-pattern-solid edge-thickness-normal edge-pattern-solid flowchart-link" style=";" data-edge="true" data-et="edge" data-id="L_L1_L3_0" data-points="W3sieCI6MzczLjYwMjI2MzYxODU4MzUsInkiOjUxOS44OTc3MzYzODE0MTY1fSx7IngiOjQ3MC4xNjQwNjI1LCJ5Ijo1OTUuNX0seyJ4Ijo0NzAuMTY0MDYyNSwieSI6NjMxfV0=" data-look="classic" marker-end="url(#my-svg_flowchart-v2-pointEnd)"/><path d="M432.339,752.175L421.248,764.396C410.156,776.617,387.972,801.058,376.881,835.113C365.789,869.167,365.789,912.833,365.789,956.5C365.789,1000.167,365.789,1043.833,408.245,1075.81C450.701,1107.786,535.612,1128.072,578.068,1138.215L620.524,1148.358" id="my-svg-L_L3_Stop_0" class="edge-thickness-normal edge-pattern-solid edge-thickness-normal edge-pattern-solid flowchart-link" style=";" data-edge="true" data-et="edge" data-id="L_L3_Stop_0" data-points="W3sieCI6NDMyLjMzOTI3NjE3NTIxMzcsInkiOjc1Mi4xNzUyMTM2NzUyMTM2fSx7IngiOjM2NS43ODkwNjI1LCJ5Ijo4MjUuNX0seyJ4IjozNjUuNzg5MDYyNSwieSI6OTU2LjV9LHsieCI6MzY1Ljc4OTA2MjUsInkiOjEwODcuNX0seyJ4Ijo2MjQuNDE0MDYyNSwieSI6MTE0OS4yODc2NzkwODEwNzQ3fV0=" data-look="classic" marker-end="url(#my-svg_flowchart-v2-pointEnd)"/><path d="M500.312,759.852L506.996,770.794C513.679,781.735,527.047,803.617,533.73,819.809C540.414,836,540.414,846.5,540.414,851.75L540.414,857" id="my-svg-L_L3_L4_0" class="edge-thickness-normal edge-pattern-solid edge-thickness-normal edge-pattern-solid flowchart-link" style=";" data-edge="true" data-et="edge" data-id="L_L3_L4_0" data-points="W3sieCI6NTAwLjMxMTgzNTc3OTM1MjI0LCJ5Ijo3NTkuODUyMjI2NzIwNjQ3OH0seyJ4Ijo1NDAuNDE0MDYyNSwieSI6ODI1LjV9LHsieCI6NTQwLjQxNDA2MjUsInkiOjg2MX1d" data-look="classic" marker-end="url(#my-svg_flowchart-v2-pointEnd)"/><path d="M501.683,1013.269L493.243,1025.641C484.802,1038.013,467.92,1062.756,426.29,1084.176C384.659,1105.595,318.279,1123.69,285.088,1132.738L251.898,1141.785" id="my-svg-L_L4_L5_0" class="edge-thickness-normal edge-pattern-solid edge-thickness-normal edge-pattern-solid flowchart-link" style=";" data-edge="true" data-et="edge" data-id="L_L4_L5_0" data-points="W3sieCI6NTAxLjY4MzIwNjAwNTM4ODU3LCJ5IjoxMDEzLjI2OTE0MzUwNTM4ODZ9LHsieCI6NDUxLjAzOTA2MjUsInkiOjEwODcuNX0seyJ4IjoyNDguMDM5MDYyNSwieSI6MTE0Mi44MzczNjU0NDU3MTczfV0=" data-look="classic" marker-end="url(#my-svg_flowchart-v2-pointEnd)"/><path d="M578.919,1013.495L587.251,1025.83C595.584,1038.164,612.249,1062.832,626.825,1083.483C641.4,1104.134,653.886,1120.767,660.129,1129.084L666.372,1137.401" id="my-svg-L_L4_Stop_0" class="edge-thickness-normal edge-pattern-solid edge-thickness-normal edge-pattern-solid flowchart-link" style=";" data-edge="true" data-et="edge" data-id="L_L4_Stop_0" data-points="W3sieCI6NTc4LjkxODYxODMwODY1NiwieSI6MTAxMy40OTU0NDQxOTEzNDR9LHsieCI6NjI4LjkxNDA2MjUsInkiOjEwODcuNX0seyJ4Ijo2NjguNzczNzIyNzIzMDE1MywieSI6MTE0MC41OTk5OTg0NzQxMjF9XQ==" data-look="classic" marker-end="url(#my-svg_flowchart-v2-pointEnd)"/><path d="M716.363,311.426L725.35,323.105C734.338,334.784,752.314,358.142,761.301,387.654C770.289,417.167,770.289,452.833,770.289,488.5C770.289,524.167,770.289,559.833,770.289,596.833C770.289,633.833,770.289,672.167,770.289,710.5C770.289,748.833,770.289,787.167,770.289,815.583C770.289,844,770.289,862.5,770.289,871.75L770.289,881" id="my-svg-L_Check_C1_0" class="edge-thickness-normal edge-pattern-solid edge-thickness-normal edge-pattern-solid flowchart-link" style=";" data-edge="true" data-et="edge" data-id="L_Check_C1_0" data-points="W3sieCI6NzE2LjM2Mjc3MjU3MzcxMDEsInkiOjMxMS40MjYyODk5MjYyODk5NH0seyJ4Ijo3NzAuMjg5MDYyNSwieSI6MzgxLjV9LHsieCI6NzcwLjI4OTA2MjUsInkiOjQ4OC41fSx7IngiOjc3MC4yODkwNjI1LCJ5Ijo1OTUuNX0seyJ4Ijo3NzAuMjg5MDYyNSwieSI6NzEwLjV9LHsieCI6NzcwLjI4OTA2MjUsInkiOjgyNS41fSx7IngiOjc3MC4yODkwNjI1LCJ5Ijo4ODV9XQ==" data-look="classic" marker-end="url(#my-svg_flowchart-v2-pointEnd)"/><path d="M739.097,996.808L727.4,1011.923C715.703,1027.038,692.308,1057.269,649.692,1080.84C607.075,1104.41,545.236,1121.32,514.317,1129.775L483.397,1138.229" id="my-svg-L_C1_C2_0" class="edge-thickness-normal edge-pattern-solid edge-thickness-normal edge-pattern-solid flowchart-link" style=";" data-edge="true" data-et="edge" data-id="L_C1_C2_0" data-points="W3sieCI6NzM5LjA5Njc1NDgwNzY5MjMsInkiOjk5Ni44MDc2OTIzMDc2OTIzfSx7IngiOjY2OC45MTQwNjI1LCJ5IjoxMDg3LjV9LHsieCI6NDc5LjUzOTA2MjUsInkiOjExMzkuMjg0NDcwMTg2NjU0N31d" data-look="classic" marker-end="url(#my-svg_flowchart-v2-pointEnd)"/><path d="M799.117,999.172L809.062,1013.893C819.008,1028.615,838.898,1058.057,829.538,1081.358C820.177,1104.659,781.564,1121.817,762.258,1130.396L742.952,1138.976" id="my-svg-L_C1_Stop_0" class="edge-thickness-normal edge-pattern-solid edge-thickness-normal edge-pattern-solid flowchart-link" style=";" data-edge="true" data-et="edge" data-id="L_C1_Stop_0" data-points="W3sieCI6Nzk5LjExNzA4MDcyMzIzNDYsInkiOjk5OS4xNzE5ODE3NzY3NjU0fSx7IngiOjg1OC43ODkwNjI1LCJ5IjoxMDg3LjV9LHsieCI6NzM5LjI5NjczMzI2NjIyMTMsInkiOjExNDAuNTk5OTk4NDc0MTIxfV0=" data-look="classic" marker-end="url(#my-svg_flowchart-v2-pointEnd)"/><path d="M740.272,287.517L783.858,303.181C827.444,318.845,914.617,350.172,958.203,383.67C1001.789,417.167,1001.789,452.833,1001.789,488.5C1001.789,524.167,1001.789,559.833,1001.789,596.833C1001.789,633.833,1001.789,672.167,1001.789,710.5C1001.789,748.833,1001.789,787.167,1001.789,811.583C1001.789,836,1001.789,846.5,1001.789,851.75L1001.789,857" id="my-svg-L_Check_R1_0" class="edge-thickness-normal edge-pattern-solid edge-thickness-normal edge-pattern-solid flowchart-link" style=";" data-edge="true" data-et="edge" data-id="L_Check_R1_0" data-points="W3sieCI6NzQwLjI3MTgyMTEyMDY4OTcsInkiOjI4Ny41MTcyNDEzNzkzMTAzNX0seyJ4IjoxMDAxLjc4OTA2MjUsInkiOjM4MS41fSx7IngiOjEwMDEuNzg5MDYyNSwieSI6NDg4LjV9LHsieCI6MTAwMS43ODkwNjI1LCJ5Ijo1OTUuNX0seyJ4IjoxMDAxLjc4OTA2MjUsInkiOjcxMC41fSx7IngiOjEwMDEuNzg5MDYyNSwieSI6ODI1LjV9LHsieCI6MTAwMS43ODkwNjI1LCJ5Ijo4NjF9XQ==" data-look="classic" marker-end="url(#my-svg_flowchart-v2-pointEnd)"/><path d="M989.14,1039.351L987.915,1047.376C986.69,1055.401,984.239,1071.45,989.103,1084.946C993.967,1098.442,1006.145,1109.384,1012.234,1114.855L1018.323,1120.327" id="my-svg-L_R1_R2_0" class="edge-thickness-normal edge-pattern-solid edge-thickness-normal edge-pattern-solid flowchart-link" style=";" data-edge="true" data-et="edge" data-id="L_R1_R2_0" data-points="W3sieCI6OTg5LjE0MDA1NTg3NzQ4MzQsInkiOjEwMzkuMzUwOTkzMzc3NDgzNX0seyJ4Ijo5ODEuNzg5MDYyNSwieSI6MTA4Ny41fSx7IngiOjEwMjEuMjk3ODc1Mjk3NDYzLCJ5IjoxMTIzfV0=" data-look="classic" marker-end="url(#my-svg_flowchart-v2-pointEnd)"/><path d="M1028.266,1025.523L1032.228,1035.853C1036.19,1046.182,1044.115,1066.841,998.125,1087.636C952.136,1108.43,852.232,1129.36,802.281,1139.825L752.329,1150.291" id="my-svg-L_R1_Stop_0" class="edge-thickness-normal edge-pattern-solid edge-thickness-normal edge-pattern-solid flowchart-link" style=";" data-edge="true" data-et="edge" data-id="L_R1_Stop_0" data-points="W3sieCI6MTAyOC4yNjU2MTQyMjQxMzc4LCJ5IjoxMDI1LjUyMzQ0ODI3NTg2MjJ9LHsieCI6MTA1Mi4wMzkwNjI1LCJ5IjoxMDg3LjV9LHsieCI6NzQ4LjQxNDA2MjUsInkiOjExNTEuMTEwNzMzNzc1NjAzNH1d" data-look="classic" marker-end="url(#my-svg_flowchart-v2-pointEnd)"/><path d="M745.122,282.667L809.65,299.139C874.178,315.611,1003.233,348.556,1067.761,382.861C1132.289,417.167,1132.289,452.833,1132.289,488.5C1132.289,524.167,1132.289,559.833,1132.289,596.833C1132.289,633.833,1132.289,672.167,1132.289,710.5C1132.289,748.833,1132.289,787.167,1132.289,828.167C1132.289,869.167,1132.289,912.833,1132.289,956.5C1132.289,1000.167,1132.289,1043.833,1068.967,1076.545C1005.645,1109.257,879.001,1131.014,815.678,1141.893L752.356,1152.771" id="my-svg-L_Check_Stop_0" class="edge-thickness-normal edge-pattern-solid edge-thickness-normal edge-pattern-solid flowchart-link" style=";" data-edge="true" data-et="edge" data-id="L_Check_Stop_0" data-points="W3sieCI6NzQ1LjEyMTk1Mzc0NjY4NDMsInkiOjI4Mi42NjcxMDg3NTMzMTU2M30seyJ4IjoxMTMyLjI4OTA2MjUsInkiOjM4MS41fSx7IngiOjExMzIuMjg5MDYyNSwieSI6NDg4LjV9LHsieCI6MTEzMi4yODkwNjI1LCJ5Ijo1OTUuNX0seyJ4IjoxMTMyLjI4OTA2MjUsInkiOjcxMC41fSx7IngiOjExMzIuMjg5MDYyNSwieSI6ODI1LjV9LHsieCI6MTEzMi4yODkwNjI1LCJ5Ijo5NTYuNX0seyJ4IjoxMTMyLjI4OTA2MjUsInkiOjEwODcuNX0seyJ4Ijo3NDguNDE0MDYyNSwieSI6MTE1My40NDg1ODI5MzA3NjE0fV0=" data-look="classic" marker-end="url(#my-svg_flowchart-v2-pointEnd)"/></g><g class="edgeLabels"><g class="edgeLabel"><g class="label" data-id="L_Start_Request_0" transform="translate(0, 0)"><text y="-10.1" text-anchor="middle"><tspan class="text-outer-tspan row" x="0" y="-0.1em" dy="1.1em" text-anchor="middle"/></text></g></g><g><rect class="background" style="stroke: none"/></g><g class="edgeLabel"><g class="label" data-id="L_Request_Check_0" transform="translate(0, 0)"><text y="-10.1" text-anchor="middle"><tspan class="text-outer-tspan row" x="0" y="-0.1em" dy="1.1em" text-anchor="middle"/></text></g></g><g><rect class="background" style="stroke: none"/></g><g class="edgeLabel" transform="translate(110, 381.5)"><g class="label" data-id="L_Check_Done_0" transform="translate(-0.046875, -10.5)"><g><rect class="background" style="" x="-52.6875" y="0" width="105.46875" height="21"/><text y="-10.1" text-anchor="middle" style=""><tspan class="text-outer-tspan row" x="0" y="-0.1em" dy="1.1em" text-anchor="middle"><tspan font-style="normal" class="text-inner-tspan" font-weight="normal">完整</tspan><tspan font-style="normal" class="text-inner-tspan" font-weight="normal"> message</tspan></tspan></text></g></g></g><g class="edgeLabel" transform="translate(333.5, 381.5)"><g class="label" data-id="L_Check_L1_0" transform="translate(0, -10.5)"><g><rect class="background" style="" x="-34" y="0" width="68" height="21"/><text y="-10.1" text-anchor="middle" style=""><tspan class="text-outer-tspan row" x="0" y="-0.1em" dy="1.1em" text-anchor="middle"><tspan font-style="normal" class="text-inner-tspan" font-weight="normal">输出截断</tspan></tspan></text></g></g></g><g class="edgeLabel" transform="translate(221.75, 595.5)"><g class="label" data-id="L_L1_L2_0" transform="translate(0, -10.5)"><g><rect class="background" style="" x="-10" y="0" width="20" height="21"/><text y="-10.1" text-anchor="middle" style=""><tspan class="text-outer-tspan row" x="0" y="-0.1em" dy="1.1em" text-anchor="middle"><tspan font-style="normal" class="text-inner-tspan" font-weight="normal">是</tspan></tspan></text></g></g></g><g class="edgeLabel" transform="translate(470.1640625, 595.5)"><g class="label" data-id="L_L1_L3_0" transform="translate(0, -10.5)"><g><rect class="background" style="" x="-10" y="0" width="20" height="21"/><text y="-10.1" text-anchor="middle" style=""><tspan class="text-outer-tspan row" x="0" y="-0.1em" dy="1.1em" text-anchor="middle"><tspan font-style="normal" class="text-inner-tspan" font-weight="normal">否</tspan></tspan></text></g></g></g><g class="edgeLabel" transform="translate(365.7890625, 956.5)"><g class="label" data-id="L_L3_Stop_0" transform="translate(0, -10.5)"><g><rect class="background" style="" x="-10" y="0" width="20" height="21"/><text y="-10.1" text-anchor="middle" style=""><tspan class="text-outer-tspan row" x="0" y="-0.1em" dy="1.1em" text-anchor="middle"><tspan font-style="normal" class="text-inner-tspan" font-weight="normal">否</tspan></tspan></text></g></g></g><g class="edgeLabel" transform="translate(540.4140625, 825.5)"><g class="label" data-id="L_L3_L4_0" transform="translate(0, -10.5)"><g><rect class="background" style="" x="-10" y="0" width="20" height="21"/><text y="-10.1" text-anchor="middle" style=""><tspan class="text-outer-tspan row" x="0" y="-0.1em" dy="1.1em" text-anchor="middle"><tspan font-style="normal" class="text-inner-tspan" font-weight="normal">是</tspan></tspan></text></g></g></g><g class="edgeLabel" transform="translate(392.88794, 1103.35187)"><g class="label" data-id="L_L4_L5_0" transform="translate(0, -10.5)"><g><rect class="background" style="" x="-10" y="0" width="20" height="21"/><text y="-10.1" text-anchor="middle" style=""><tspan class="text-outer-tspan row" x="0" y="-0.1em" dy="1.1em" text-anchor="middle"><tspan font-style="normal" class="text-inner-tspan" font-weight="normal">是</tspan></tspan></text></g></g></g><g class="edgeLabel" transform="translate(622.50048, 1078.00645)"><g class="label" data-id="L_L4_Stop_0" transform="translate(0, -10.5)"><g><rect class="background" style="" x="-10" y="0" width="20" height="21"/><text y="-10.1" text-anchor="middle" style=""><tspan class="text-outer-tspan row" x="0" y="-0.1em" dy="1.1em" text-anchor="middle"><tspan font-style="normal" class="text-inner-tspan" font-weight="normal">否</tspan></tspan></text></g></g></g><g class="edgeLabel" transform="translate(770.2890625, 595.5)"><g class="label" data-id="L_Check_C1_0" transform="translate(0, -10.5)"><g><rect class="background" style="" x="-42" y="0" width="84" height="21"/><text y="-10.1" text-anchor="middle" style=""><tspan class="text-outer-tspan row" x="0" y="-0.1em" dy="1.1em" text-anchor="middle"><tspan font-style="normal" class="text-inner-tspan" font-weight="normal">上下文超限</tspan></tspan></text></g></g></g><g class="edgeLabel" transform="translate(629.53429, 1098.26837)"><g class="label" data-id="L_C1_C2_0" transform="translate(0, -10.5)"><g><rect class="background" style="" x="-10" y="0" width="20" height="21"/><text y="-10.1" text-anchor="middle" style=""><tspan class="text-outer-tspan row" x="0" y="-0.1em" dy="1.1em" text-anchor="middle"><tspan font-style="normal" class="text-inner-tspan" font-weight="normal">否</tspan></tspan></text></g></g></g><g class="edgeLabel" transform="translate(847.74813, 1092.40637)"><g class="label" data-id="L_C1_Stop_0" transform="translate(0, -10.5)"><g><rect class="background" style="" x="-10" y="0" width="20" height="21"/><text y="-10.1" text-anchor="middle" style=""><tspan class="text-outer-tspan row" x="0" y="-0.1em" dy="1.1em" text-anchor="middle"><tspan font-style="normal" class="text-inner-tspan" font-weight="normal">是</tspan></tspan></text></g></g></g><g class="edgeLabel" transform="translate(1001.7890625, 595.5)"><g class="label" data-id="L_Check_R1_0" transform="translate(-0.05078125, -10.5)"><g><rect class="background" style="" x="-35.3671875" y="0" width="70.8359375" height="21"/><text y="-10.1" text-anchor="middle" style=""><tspan class="text-outer-tspan row" x="0" y="-0.1em" dy="1.1em" text-anchor="middle"><tspan font-style="normal" class="text-inner-tspan" font-weight="normal">429</tspan><tspan font-style="normal" class="text-inner-tspan" font-weight="normal"> /</tspan><tspan font-style="normal" class="text-inner-tspan" font-weight="normal"> 529</tspan></tspan></text></g></g></g><g class="edgeLabel" transform="translate(983.42848, 1088.97307)"><g class="label" data-id="L_R1_R2_0" transform="translate(0, -10.5)"><g><rect class="background" style="" x="-10" y="0" width="20" height="21"/><text y="-10.1" text-anchor="middle" style=""><tspan class="text-outer-tspan row" x="0" y="-0.1em" dy="1.1em" text-anchor="middle"><tspan font-style="normal" class="text-inner-tspan" font-weight="normal">是</tspan></tspan></text></g></g></g><g class="edgeLabel" transform="translate(1052.0390625, 1087.5)"><g class="label" data-id="L_R1_Stop_0" transform="translate(0, -10.5)"><g><rect class="background" style="" x="-10" y="0" width="20" height="21"/><text y="-10.1" text-anchor="middle" style=""><tspan class="text-outer-tspan row" x="0" y="-0.1em" dy="1.1em" text-anchor="middle"><tspan font-style="normal" class="text-inner-tspan" font-weight="normal">否</tspan></tspan></text></g></g></g><g class="edgeLabel" transform="translate(1132.2890625, 710.5)"><g class="label" data-id="L_Check_Stop_0" transform="translate(0, -10.5)"><g><rect class="background" style="" x="-34" y="0" width="68" height="21"/><text y="-10.1" text-anchor="middle" style=""><tspan class="text-outer-tspan row" x="0" y="-0.1em" dy="1.1em" text-anchor="middle"><tspan font-style="normal" class="text-inner-tspan" font-weight="normal">普通错误</tspan></tspan></text></g></g></g></g><g class="nodes"><g class="node default" id="my-svg-flowchart-Start-0" data-look="classic" transform="translate(681.7890625, 24)"><g class="basic label-container outer-path"><path d="M-11.5 -16 C-3.3624556010050046 -16, 4.775088797989991 -16, 11.5 -16 C11.5 -16, 11.499999999999998 -16, 11.499999999999998 -16 C11.743062201812572 -15.992205468279746, 11.986124403625146 -15.984410936559492, 12.525123519691405 -15.967126284005381 C12.85627089300379 -15.93518089516492, 13.187418266316177 -15.903235506324458, 13.546034586952095 -15.868640221171939 C13.950713719771592 -15.803214837311229, 14.35539285259109 -15.73778945345052, 14.558538059221954 -15.704946511857047 C14.79431855209138 -15.651131152971107, 15.030099044960807 -15.597315794085167, 15.558473342552116 -15.476717808624471 C15.825467792416621 -15.397475257387153, 16.092462242281126 -15.318232706149834, 16.54173148837793 -15.184891952170698 C16.921422862952852 -15.045162016498535, 17.301114237527774 -14.905432080826372, 17.504272078069985 -14.830668117536348 C17.737771197036963 -14.727304984074932, 17.971270316003945 -14.623941850613514, 18.44213982588093 -14.415501886438706 C18.76576226858609 -14.246668265369491, 19.089384711291252 -14.077834644300275, 19.351480832063 -13.941099265974232 C19.681668528853276 -13.740937543781682, 20.011856225643548 -13.54077582158913, 20.228558419368778 -13.409409678269451 C20.467458525081852 -13.242763306342905, 20.70635863079493 -13.076116934416358, 21.069768487859456 -12.822617949887306 C21.239735588002077 -12.687073710538055, 21.409702688144698 -12.551529471188804, 21.871654324924613 -12.183135333906153 C22.069254558635855 -12.003680029865288, 22.266854792347097 -11.824224725824426, 22.630920809655784 -11.493589601563642 C22.78812923829835 -11.331258991938164, 22.945337666940915 -11.168928382312686, 23.344447953205048 -10.756814244181072 C23.59898010067536 -10.457826300472961, 23.853512248145666 -10.158838356764852, 24.00930371948848 -9.975836829739738 C24.24498262652096 -9.660048565106335, 24.480661533553445 -9.344260300472934, 24.62275607355129 -9.153866561954718 C24.806130725873597 -8.87215385299884, 24.9895053781959 -8.590441144042963, 25.182284208085537 -8.294281092968403 C25.297550452316283 -8.089614204363821, 25.41281669654703 -7.88494731575924, 25.685588901968003 -7.400612643853364 C25.84397566511558 -7.071719141243585, 26.002362428263154 -6.742825638633805, 26.130601968252996 -6.476533489958305 C26.25591178705393 -6.16701581481947, 26.381221605854865 -5.857498139680634, 26.515494752796165 -5.52584087074093 C26.59692621358907 -5.280582285174023, 26.678357674381978 -5.035323699607117, 26.83868564858657 -4.552441386096524 C26.918445398052786 -4.24828289328775, 26.998205147519002 -3.9441244004789775, 27.098846594909176 -3.560334943301032 C27.15232911684416 -3.2857134966998935, 27.20581163877915 -3.011092050098755, 27.2949085346312 -2.5535983205340735 C27.34233277813259 -2.1857852529134405, 27.389757021633976 -1.817972185292807, 27.42606580718717 -1.536368414522911 C27.445795213528925 -1.2290669854599172, 27.46552461987068 -0.9217655563969235, 27.491779459211006 -0.5128252411464826 C27.491779459211006 -0.28748506931480045, 27.491779459211006 -0.062144897483118244, 27.491779459211006 0.5128252411464788 C27.47245655589438 0.8137950574697937, 27.453133652577748 1.1147648737931086, 27.42606580718717 1.5363684145229002 C27.39615891608301 1.7683203561431435, 27.36625202497885 2.000272297763387, 27.294908534631205 2.5535983205340624 C27.235641765976656 2.8579206515391666, 27.17637499732211 3.1622429825442713, 27.098846594909176 3.5603349433010285 C27.03043018263825 3.82123637515072, 26.96201377036732 4.082137807000412, 26.83868564858657 4.552441386096513 C26.7470896368987 4.8283139794577945, 26.65549362521083 5.104186572819075, 26.515494752796165 5.525840870740919 C26.391529117963824 5.832038385489305, 26.267563483131482 6.138235900237691, 26.130601968253 6.4765334899583005 C26.003473756009914 6.740517942789055, 25.87634554376683 7.004502395619811, 25.685588901968003 7.400612643853361 C25.544468035869095 7.651187031649227, 25.403347169770182 7.901761419445094, 25.18228420808554 8.294281092968399 C25.033363535461625 8.523063236918572, 24.88444286283771 8.751845380868744, 24.622756073551297 9.15386656195471 C24.392237440797025 9.462740529165965, 24.161718808042753 9.77161449637722, 24.00930371948848 9.975836829739734 C23.82862914928763 10.188067460571936, 23.64795457908678 10.400298091404139, 23.344447953205055 10.756814244181063 C23.171972708010895 10.934909095325011, 22.999497462816738 11.11300394646896, 22.630920809655784 11.493589601563638 C22.32983705736923 11.76702589915074, 22.028753305082674 12.040462196737842, 21.871654324924627 12.183135333906142 C21.563484704313115 12.42889240560581, 21.255315083701603 12.674649477305477, 21.06976848785946 12.822617949887304 C20.737341852700727 13.054504380056935, 20.404915217541994 13.286390810226566, 20.228558419368788 13.409409678269446 C19.93777150461338 13.585686414847764, 19.646984589857972 13.761963151426082, 19.351480832063004 13.94109926597423 C19.039665496489395 14.103773126815728, 18.727850160915786 14.266446987657226, 18.442139825880933 14.415501886438705 C18.077842236988808 14.57676562253723, 17.71354464809668 14.738029358635755, 17.50427207806999 14.830668117536346 C17.200732580752156 14.942373458437665, 16.89719308343432 15.054078799338981, 16.54173148837794 15.184891952170695 C16.237431190285676 15.275206683339619, 15.933130892193414 15.365521414508544, 15.558473342552134 15.476717808624468 C15.321433623447476 15.53082057768138, 15.08439390434282 15.584923346738291, 14.558538059221961 15.704946511857045 C14.233499604094654 15.757496208571162, 13.908461148967344 15.810045905285278, 13.546034586952105 15.868640221171937 C13.334119359042788 15.889083428343, 13.122204131133472 15.90952663551406, 12.525123519691405 15.967126284005381 C12.252947769137965 15.97585443056767, 11.980772018584524 15.98458257712996, 11.500000000000004 16 C11.500000000000002 16, 11.5 16, 11.5 16 C5.623017298633087 16, -0.25396540273382584 16, -11.499999999999996 16 C-11.729372448026622 15.992644472038172, -11.958744896053247 15.985288944076343, -12.5251235196914 15.967126284005381 C-12.753109942056689 15.94513270803359, -12.981096364421978 15.9231391320618, -13.5460345869521 15.868640221171937 C-13.780083777276916 15.8308009631588, -14.014132967601732 15.792961705145663, -14.558538059221956 15.704946511857045 C-14.80149211999626 15.649493832908723, -15.044446180770564 15.594041153960399, -15.558473342552112 15.476717808624471 C-15.941556037903547 15.363020875486267, -16.324638733254982 15.249323942348065, -16.541731488377923 15.184891952170702 C-16.838751490862673 15.075585845633508, -17.135771493347423 14.966279739096317, -17.504272078069988 14.830668117536348 C-17.755093533744745 14.719636899463259, -18.0059149894195 14.608605681390172, -18.44213982588093 14.415501886438708 C-18.789793766757903 14.234131048166168, -19.137447707634877 14.052760209893627, -19.351480832063 13.941099265974234 C-19.646847923909817 13.762045999126993, -19.942215015756634 13.582992732279752, -20.228558419368767 13.409409678269457 C-20.398719822177565 13.290712449838447, -20.56888122498636 13.172015221407436, -21.069768487859456 12.822617949887308 C-21.301220876515085 12.638040829141175, -21.532673265170715 12.453463708395045, -21.871654324924613 12.183135333906154 C-22.0760277438732 11.997528802241394, -22.280401162821786 11.811922270576636, -22.630920809655777 11.493589601563649 C-22.832427762422864 11.285517128803132, -23.03393471518995 11.077444656042616, -23.344447953205048 10.756814244181069 C-23.604104315743015 10.45180710587839, -23.863760678280986 10.14679996757571, -24.009303719488475 9.97583682973974 C-24.246017730415584 9.658661620187447, -24.48273174134269 9.341486410635154, -24.62275607355129 9.15386656195472 C-24.786792300756463 8.901862867073, -24.95082852796164 8.649859172191281, -25.182284208085534 8.29428109296841 C-25.32985109229102 8.032261147294207, -25.477417976496504 7.770241201620005, -25.685588901968 7.400612643853366 C-25.855869414850616 7.0470215154333005, -26.026149927733233 6.693430387013235, -26.130601968252996 6.476533489958307 C-26.2832678279017 6.099445865032414, -26.435933687550403 5.72235824010652, -26.515494752796165 5.525840870740931 C-26.60777152165367 5.247917945248629, -26.700048290511177 4.969995019756327, -26.83868564858657 4.552441386096519 C-26.903589130693504 4.3049362794757, -26.968492612800436 4.057431172854882, -27.098846594909176 3.5603349433010343 C-27.17034615624731 3.1931998072673564, -27.241845717585445 2.826064671233679, -27.2949085346312 2.5535983205340753 C-27.32457555021747 2.323506806061815, -27.354242565803744 2.0934152915895545, -27.42606580718717 1.5363684145229202 C-27.45187728962443 1.1343337409089553, -27.477688772061693 0.7322990672949906, -27.491779459211006 0.5128252411464846 C-27.491779459211006 0.15596538979243896, -27.491779459211006 -0.20089446156160673, -27.491779459211006 -0.5128252411464769 C-27.473853272811844 -0.7920400640706708, -27.45592708641268 -1.0712548869948648, -27.42606580718717 -1.5363684145228982 C-27.38280243283617 -1.8719106026697103, -27.339539058485165 -2.2074527908165225, -27.294908534631205 -2.5535983205340678 C-27.217758401036026 -2.9497479508587956, -27.140608267440847 -3.3458975811835234, -27.098846594909176 -3.5603349433010267 C-27.02008896136685 -3.860671933772222, -26.94133132782452 -4.161008924243418, -26.838685648586573 -4.552441386096511 C-26.74133089143632 -4.845658403259003, -26.64397613428607 -5.138875420421496, -26.515494752796172 -5.525840870740911 C-26.428643656816266 -5.740364756962986, -26.34179256083636 -5.954888643185061, -26.130601968253 -6.476533489958299 C-25.998830785756613 -6.750159169863683, -25.867059603260227 -7.023784849769068, -25.685588901968003 -7.400612643853359 C-25.533268617633148 -7.671072732791219, -25.38094833329829 -7.941532821729079, -25.182284208085537 -8.294281092968404 C-25.053809294748767 -8.491653060198418, -24.925334381411997 -8.689025027428434, -24.622756073551294 -9.153866561954715 C-24.38968718320135 -9.466157642010923, -24.15661829285141 -9.77844872206713, -24.00930371948848 -9.975836829739734 C-23.749842480412216 -10.280614764921454, -23.490381241335957 -10.585392700103174, -23.344447953205055 -10.756814244181063 C-23.117883051057017 -10.990761106973316, -22.891318148908976 -11.22470796976557, -22.63092080965579 -11.493589601563633 C-22.357120022859974 -11.742248231759756, -22.083319236064153 -11.99090686195588, -21.871654324924627 -12.18313533390614 C-21.57422515025692 -12.420327185780895, -21.27679597558921 -12.657519037655652, -21.069768487859463 -12.822617949887302 C-20.8830188833491 -12.95288638973365, -20.69626927883873 -13.083154829579996, -20.228558419368788 -13.409409678269444 C-19.994714289659566 -13.551167363919816, -19.760870159950343 -13.69292504957019, -19.351480832063007 -13.941099265974229 C-19.094556038134264 -14.07513676639867, -18.83763124420552 -14.20917426682311, -18.442139825880936 -14.415501886438705 C-18.086145675762808 -14.57308993650474, -17.730151525644683 -14.730677986570775, -17.504272078069995 -14.830668117536344 C-17.176200810150476 -14.951401376788285, -16.848129542230954 -15.072134636040225, -16.54173148837794 -15.184891952170695 C-16.271720017306244 -15.26502993946564, -16.00170854623455 -15.345167926760586, -15.558473342552134 -15.476717808624466 C-15.267329131038323 -15.543169575008958, -14.976184919524513 -15.609621341393451, -14.558538059221963 -15.704946511857043 C-14.311175028967535 -15.74493824825963, -14.063811998713108 -15.784929984662217, -13.546034586952107 -15.868640221171937 C-13.295363772914813 -15.892822133126353, -13.044692958877517 -15.91700404508077, -12.525123519691407 -15.967126284005381 C-12.226263914177851 -15.976710129859269, -11.927404308664295 -15.986293975713155, -11.500000000000005 -16 C-11.500000000000004 -16, -11.500000000000002 -16, -11.5 -16" stroke="none" stroke-width="0" fill="#eee" style=""/><path d="M-11.5 -16 C-3.173908486712099 -16, 5.152183026575802 -16, 11.5 -16 M-11.5 -16 C-2.605930764059284 -16, 6.288138471881432 -16, 11.5 -16 M11.5 -16 C11.5 -16, 11.499999999999998 -16, 11.499999999999998 -16 M11.5 -16 C11.5 -16, 11.499999999999998 -16, 11.499999999999998 -16 M11.499999999999998 -16 C11.843948318496668 -15.9889702468806, 12.18789663699334 -15.977940493761201, 12.525123519691405 -15.967126284005381 M11.499999999999998 -16 C11.802969655238915 -15.990284352851146, 12.105939310477831 -15.980568705702295, 12.525123519691405 -15.967126284005381 M12.525123519691405 -15.967126284005381 C12.862270331622444 -15.934602136536759, 13.199417143553484 -15.902077989068136, 13.546034586952095 -15.868640221171939 M12.525123519691405 -15.967126284005381 C12.808164859659557 -15.939821626345669, 13.09120619962771 -15.912516968685956, 13.546034586952095 -15.868640221171939 M13.546034586952095 -15.868640221171939 C13.866292370620123 -15.816863426344698, 14.18655015428815 -15.765086631517457, 14.558538059221954 -15.704946511857047 M13.546034586952095 -15.868640221171939 C13.802018570608398 -15.82725471587983, 14.0580025542647 -15.785869210587721, 14.558538059221954 -15.704946511857047 M14.558538059221954 -15.704946511857047 C14.806347506512088 -15.648385622620843, 15.054156953802224 -15.591824733384641, 15.558473342552116 -15.476717808624471 M14.558538059221954 -15.704946511857047 C14.886551499082643 -15.63007958469658, 15.21456493894333 -15.55521265753611, 15.558473342552116 -15.476717808624471 M15.558473342552116 -15.476717808624471 C15.915548206184647 -15.370739863422543, 16.27262306981718 -15.264761918220616, 16.54173148837793 -15.184891952170698 M15.558473342552116 -15.476717808624471 C15.90645593492901 -15.37343840180491, 16.254438527305904 -15.27015899498535, 16.54173148837793 -15.184891952170698 M16.54173148837793 -15.184891952170698 C16.819704703027703 -15.082595239623354, 17.09767791767748 -14.980298527076007, 17.504272078069985 -14.830668117536348 M16.54173148837793 -15.184891952170698 C16.75203227089844 -15.107499320204028, 16.962333053418952 -15.030106688237357, 17.504272078069985 -14.830668117536348 M17.504272078069985 -14.830668117536348 C17.802141511371367 -14.698810155396622, 18.10001094467275 -14.566952193256895, 18.44213982588093 -14.415501886438706 M17.504272078069985 -14.830668117536348 C17.8000877640814 -14.699719288399642, 18.095903450092816 -14.568770459262936, 18.44213982588093 -14.415501886438706 M18.44213982588093 -14.415501886438706 C18.696969796214606 -14.282557254142013, 18.951799766548284 -14.14961262184532, 19.351480832063 -13.941099265974232 M18.44213982588093 -14.415501886438706 C18.642076041942094 -14.311195290584854, 18.842012258003262 -14.206888694731003, 19.351480832063 -13.941099265974232 M19.351480832063 -13.941099265974232 C19.608744767088268 -13.78514435671122, 19.866008702113536 -13.629189447448207, 20.228558419368778 -13.409409678269451 M19.351480832063 -13.941099265974232 C19.572010105550806 -13.807413124412063, 19.79253937903861 -13.673726982849892, 20.228558419368778 -13.409409678269451 M20.228558419368778 -13.409409678269451 C20.427829697712546 -13.270406660811446, 20.627100976056315 -13.13140364335344, 21.069768487859456 -12.822617949887306 M20.228558419368778 -13.409409678269451 C20.462516096128116 -13.24621093082673, 20.696473772887455 -13.083012183384012, 21.069768487859456 -12.822617949887306 M21.069768487859456 -12.822617949887306 C21.383875868388472 -12.572125672663857, 21.697983248917488 -12.321633395440408, 21.871654324924613 -12.183135333906153 M21.069768487859456 -12.822617949887306 C21.257376858425303 -12.673005266829454, 21.44498522899115 -12.523392583771603, 21.871654324924613 -12.183135333906153 M21.871654324924613 -12.183135333906153 C22.161513028117106 -11.919893328907754, 22.4513717313096 -11.656651323909356, 22.630920809655784 -11.493589601563642 M21.871654324924613 -12.183135333906153 C22.146882436679387 -11.933180444947256, 22.42211054843416 -11.68322555598836, 22.630920809655784 -11.493589601563642 M22.630920809655784 -11.493589601563642 C22.8241594042923 -11.29405488741777, 23.01739799892881 -11.0945201732719, 23.344447953205048 -10.756814244181072 M22.630920809655784 -11.493589601563642 C22.810041524214444 -11.308632757697662, 22.98916223877311 -11.123675913831685, 23.344447953205048 -10.756814244181072 M23.344447953205048 -10.756814244181072 C23.51170102541986 -10.560349268588142, 23.67895409763467 -10.363884292995213, 24.00930371948848 -9.975836829739738 M23.344447953205048 -10.756814244181072 C23.559081727497023 -10.504693199889982, 23.773715501789 -10.252572155598891, 24.00930371948848 -9.975836829739738 M24.00930371948848 -9.975836829739738 C24.19948773778284 -9.72100757134579, 24.389671756077203 -9.466178312951843, 24.62275607355129 -9.153866561954718 M24.00930371948848 -9.975836829739738 C24.181113402734653 -9.745627506374005, 24.352923085980823 -9.515418183008272, 24.62275607355129 -9.153866561954718 M24.62275607355129 -9.153866561954718 C24.822718503107016 -8.846670572726438, 25.022680932662745 -8.539474583498158, 25.182284208085537 -8.294281092968403 M24.62275607355129 -9.153866561954718 C24.749424804140038 -8.95926937645365, 24.87609353472878 -8.764672190952579, 25.182284208085537 -8.294281092968403 M25.182284208085537 -8.294281092968403 C25.367814166350055 -7.964853865124295, 25.55334412461457 -7.635426637280188, 25.685588901968003 -7.400612643853364 M25.182284208085537 -8.294281092968403 C25.34019741079831 -8.013890211106158, 25.49811061351108 -7.733499329243914, 25.685588901968003 -7.400612643853364 M25.685588901968003 -7.400612643853364 C25.790325275405095 -7.183125323411853, 25.895061648842184 -6.965638002970342, 26.130601968252996 -6.476533489958305 M25.685588901968003 -7.400612643853364 C25.778302794044222 -7.208090263197595, 25.87101668612044 -7.015567882541825, 26.130601968252996 -6.476533489958305 M26.130601968252996 -6.476533489958305 C26.279956524535212 -6.107624848367327, 26.42931108081743 -5.738716206776349, 26.515494752796165 -5.52584087074093 M26.130601968252996 -6.476533489958305 C26.23829661263039 -6.21052563621184, 26.345991257007785 -5.944517782465375, 26.515494752796165 -5.52584087074093 M26.515494752796165 -5.52584087074093 C26.637035927130146 -5.159778218603296, 26.758577101464127 -4.793715566465662, 26.83868564858657 -4.552441386096524 M26.515494752796165 -5.52584087074093 C26.627952948346437 -5.187134703523696, 26.740411143896704 -4.848428536306461, 26.83868564858657 -4.552441386096524 M26.83868564858657 -4.552441386096524 C26.925728653622215 -4.2205086832185925, 27.012771658657858 -3.888575980340662, 27.098846594909176 -3.560334943301032 M26.83868564858657 -4.552441386096524 C26.91497145845976 -4.261530530570904, 26.99125726833295 -3.9706196750452842, 27.098846594909176 -3.560334943301032 M27.098846594909176 -3.560334943301032 C27.14087711363768 -3.3445171127834534, 27.18290763236618 -3.1286992822658752, 27.2949085346312 -2.5535983205340735 M27.098846594909176 -3.560334943301032 C27.17396816068068 -3.17460158001291, 27.249089726452183 -2.7888682167247887, 27.2949085346312 -2.5535983205340735 M27.2949085346312 -2.5535983205340735 C27.339771497930766 -2.2056500363767904, 27.38463446123033 -1.8577017522195072, 27.42606580718717 -1.536368414522911 M27.2949085346312 -2.5535983205340735 C27.326649050954597 -2.307425143803712, 27.358389567277992 -2.0612519670733507, 27.42606580718717 -1.536368414522911 M27.42606580718717 -1.536368414522911 C27.446620786182276 -1.2162080249937728, 27.467175765177377 -0.8960476354646344, 27.491779459211006 -0.5128252411464826 M27.42606580718717 -1.536368414522911 C27.442691193428132 -1.2774146040497334, 27.45931657966909 -1.0184607935765557, 27.491779459211006 -0.5128252411464826 M27.491779459211006 -0.5128252411464826 C27.491779459211006 -0.12572413483744416, 27.491779459211006 0.26137697147159433, 27.491779459211006 0.5128252411464788 M27.491779459211006 -0.5128252411464826 C27.491779459211006 -0.22484895040229574, 27.491779459211006 0.06312734034189116, 27.491779459211006 0.5128252411464788 M27.491779459211006 0.5128252411464788 C27.470963478826185 0.8370509379969849, 27.450147498441368 1.161276634847491, 27.42606580718717 1.5363684145229002 M27.491779459211006 0.5128252411464788 C27.47502875273201 0.7737310154837826, 27.45827804625301 1.0346367898210866, 27.42606580718717 1.5363684145229002 M27.42606580718717 1.5363684145229002 C27.3971654688433 1.7605137317006494, 27.36826513049943 1.9846590488783988, 27.294908534631205 2.5535983205340624 M27.42606580718717 1.5363684145229002 C27.379583482756587 1.896876143833363, 27.333101158326 2.2573838731438256, 27.294908534631205 2.5535983205340624 M27.294908534631205 2.5535983205340624 C27.25188150284704 2.774533034979346, 27.208854471062878 2.99546774942463, 27.098846594909176 3.5603349433010285 M27.294908534631205 2.5535983205340624 C27.22818448986209 2.896212188291603, 27.161460445092978 3.2388260560491435, 27.098846594909176 3.5603349433010285 M27.098846594909176 3.5603349433010285 C26.995134716674595 3.95583328402184, 26.89142283844002 4.3513316247426514, 26.83868564858657 4.552441386096513 M27.098846594909176 3.5603349433010285 C26.99894355083007 3.9413085486278487, 26.899040506750968 4.322282153954669, 26.83868564858657 4.552441386096513 M26.83868564858657 4.552441386096513 C26.747092276120974 4.828306030540812, 26.655498903655378 5.104170674985112, 26.515494752796165 5.525840870740919 M26.83868564858657 4.552441386096513 C26.718264426234416 4.915130921305, 26.59784320388226 5.277820456513487, 26.515494752796165 5.525840870740919 M26.515494752796165 5.525840870740919 C26.43671118485704 5.72043780672723, 26.357927616917912 5.915034742713541, 26.130601968253 6.4765334899583005 M26.515494752796165 5.525840870740919 C26.40304686564873 5.803589326027086, 26.290598978501297 6.081337781313252, 26.130601968253 6.4765334899583005 M26.130601968253 6.4765334899583005 C26.021825028189987 6.702411133452816, 25.913048088126974 6.92828877694733, 25.685588901968003 7.400612643853361 M26.130601968253 6.4765334899583005 C25.96744690341605 6.815328473051374, 25.8042918385791 7.154123456144447, 25.685588901968003 7.400612643853361 M25.685588901968003 7.400612643853361 C25.488880072028092 7.749889090340638, 25.292171242088184 8.099165536827915, 25.18228420808554 8.294281092968399 M25.685588901968003 7.400612643853361 C25.552537630572495 7.636858649118264, 25.41948635917699 7.873104654383168, 25.18228420808554 8.294281092968399 M25.18228420808554 8.294281092968399 C25.06449816568499 8.475232084076639, 24.946712123284446 8.656183075184881, 24.622756073551297 9.15386656195471 M25.18228420808554 8.294281092968399 C25.002908386990473 8.569850523322707, 24.823532565895402 8.845419953677014, 24.622756073551297 9.15386656195471 M24.622756073551297 9.15386656195471 C24.462817012334323 9.36817033323723, 24.302877951117345 9.582474104519754, 24.00930371948848 9.975836829739734 M24.622756073551297 9.15386656195471 C24.40160138393092 9.450193698439314, 24.180446694310543 9.74652083492392, 24.00930371948848 9.975836829739734 M24.00930371948848 9.975836829739734 C23.79272252178756 10.230245428378502, 23.576141324086638 10.484654027017271, 23.344447953205055 10.756814244181063 M24.00930371948848 9.975836829739734 C23.78583061862516 10.238341049993458, 23.562357517761836 10.500845270247183, 23.344447953205055 10.756814244181063 M23.344447953205055 10.756814244181063 C23.107299217008507 11.001689784577337, 22.87015048081196 11.246565324973611, 22.630920809655784 11.493589601563638 M23.344447953205055 10.756814244181063 C23.069407090704505 11.040816515987643, 22.79436622820396 11.324818787794225, 22.630920809655784 11.493589601563638 M22.630920809655784 11.493589601563638 C22.35719307944104 11.742181883705804, 22.08346534922629 11.99077416584797, 21.871654324924627 12.183135333906142 M22.630920809655784 11.493589601563638 C22.43639701740426 11.670250962868968, 22.241873225152737 11.846912324174296, 21.871654324924627 12.183135333906142 M21.871654324924627 12.183135333906142 C21.644305019093416 12.364440355287421, 21.4169557132622 12.5457453766687, 21.06976848785946 12.822617949887304 M21.871654324924627 12.183135333906142 C21.646259151280216 12.36288198687009, 21.420863977635804 12.542628639834035, 21.06976848785946 12.822617949887304 M21.06976848785946 12.822617949887304 C20.875028065049403 12.958460438662568, 20.680287642239342 13.094302927437832, 20.228558419368788 13.409409678269446 M21.06976848785946 12.822617949887304 C20.86545081820193 12.965141111471032, 20.661133148544398 13.107664273054759, 20.228558419368788 13.409409678269446 M20.228558419368788 13.409409678269446 C19.94013104283185 13.584256048913542, 19.651703666294914 13.759102419557637, 19.351480832063004 13.94109926597423 M20.228558419368788 13.409409678269446 C19.951703563162145 13.57724071908164, 19.6748487069555 13.745071759893833, 19.351480832063004 13.94109926597423 M19.351480832063004 13.94109926597423 C19.098451957357664 14.073104267835278, 18.84542308265232 14.205109269696326, 18.442139825880933 14.415501886438705 M19.351480832063004 13.94109926597423 C19.121849242047666 14.06089791939918, 18.89221765203233 14.180696572824129, 18.442139825880933 14.415501886438705 M18.442139825880933 14.415501886438705 C18.08606319132518 14.573126449918464, 17.72998655676943 14.730751013398221, 17.50427207806999 14.830668117536346 M18.442139825880933 14.415501886438705 C18.202961929380233 14.52137884625935, 17.963784032879534 14.627255806079994, 17.50427207806999 14.830668117536346 M17.50427207806999 14.830668117536346 C17.23153612624303 14.93103746895217, 16.95880017441607 15.031406820367993, 16.54173148837794 15.184891952170695 M17.50427207806999 14.830668117536346 C17.274199864380087 14.915336818938462, 17.04412765069018 15.000005520340576, 16.54173148837794 15.184891952170695 M16.54173148837794 15.184891952170695 C16.21130481732159 15.28296085369523, 15.880878146265243 15.381029755219766, 15.558473342552134 15.476717808624468 M16.54173148837794 15.184891952170695 C16.23918102291952 15.274687342198954, 15.936630557461099 15.364482732227213, 15.558473342552134 15.476717808624468 M15.558473342552134 15.476717808624468 C15.188292576553843 15.561209152808324, 14.818111810555552 15.645700496992182, 14.558538059221961 15.704946511857045 M15.558473342552134 15.476717808624468 C15.30624887336015 15.534286397799058, 15.05402440416817 15.591854986973647, 14.558538059221961 15.704946511857045 M14.558538059221961 15.704946511857045 C14.158470323266688 15.769626360834664, 13.758402587311414 15.834306209812285, 13.546034586952105 15.868640221171937 M14.558538059221961 15.704946511857045 C14.272831312992146 15.751137362898573, 13.987124566762333 15.797328213940101, 13.546034586952105 15.868640221171937 M13.546034586952105 15.868640221171937 C13.156703893440861 15.906198484936303, 12.767373199929619 15.943756748700666, 12.525123519691405 15.967126284005381 M13.546034586952105 15.868640221171937 C13.19462738081094 15.902540051719377, 12.843220174669776 15.936439882266818, 12.525123519691405 15.967126284005381 M12.525123519691405 15.967126284005381 C12.31983365697173 15.973709530330325, 12.114543794252054 15.980292776655267, 11.500000000000004 16 M12.525123519691405 15.967126284005381 C12.240132424485365 15.976265393727124, 11.955141329279323 15.985404503448867, 11.500000000000004 16 M11.500000000000004 16 C11.500000000000002 16, 11.500000000000002 16, 11.5 16 M11.500000000000004 16 C11.500000000000004 16, 11.500000000000002 16, 11.5 16 M11.5 16 C4.14538075709245 16, -3.2092384858150993 16, -11.499999999999996 16 M11.5 16 C6.553178996155988 16, 1.6063579923119757 16, -11.499999999999996 16 M-11.499999999999996 16 C-11.771902563733352 15.991280614007305, -12.04380512746671 15.98256122801461, -12.5251235196914 15.967126284005381 M-11.499999999999996 16 C-11.896922768570132 15.987271459375256, -12.293845537140268 15.974542918750512, -12.5251235196914 15.967126284005381 M-12.5251235196914 15.967126284005381 C-12.85716861242885 15.93509429325165, -13.189213705166301 15.903062302497917, -13.5460345869521 15.868640221171937 M-12.5251235196914 15.967126284005381 C-12.853276510046507 15.935469759687535, -13.181429500401617 15.903813235369691, -13.5460345869521 15.868640221171937 M-13.5460345869521 15.868640221171937 C-13.906631525113198 15.810341704681072, -14.267228463274298 15.752043188190205, -14.558538059221956 15.704946511857045 M-13.5460345869521 15.868640221171937 C-13.937993992224863 15.805271264218023, -14.329953397497626 15.741902307264107, -14.558538059221956 15.704946511857045 M-14.558538059221956 15.704946511857045 C-14.77113629217604 15.6564223525184, -14.983734525130123 15.607898193179752, -15.558473342552112 15.476717808624471 M-14.558538059221956 15.704946511857045 C-14.888692964113128 15.629590809277735, -15.2188478690043 15.554235106698425, -15.558473342552112 15.476717808624471 M-15.558473342552112 15.476717808624471 C-15.943835349301137 15.362344387827813, -16.329197356050162 15.247970967031154, -16.541731488377923 15.184891952170702 M-15.558473342552112 15.476717808624471 C-15.825189605483601 15.39755782180864, -16.09190586841509 15.318397834992808, -16.541731488377923 15.184891952170702 M-16.541731488377923 15.184891952170702 C-16.921009990468658 15.045313957389272, -17.300288492559392 14.905735962607842, -17.504272078069988 14.830668117536348 M-16.541731488377923 15.184891952170702 C-16.803552928998965 15.088539241771292, -17.06537436962001 14.992186531371882, -17.504272078069988 14.830668117536348 M-17.504272078069988 14.830668117536348 C-17.792516083217972 14.70307104691195, -18.08076008836596 14.575473976287551, -18.44213982588093 14.415501886438708 M-17.504272078069988 14.830668117536348 C-17.81570586817007 14.692805617014187, -18.127139658270153 14.554943116492025, -18.44213982588093 14.415501886438708 M-18.44213982588093 14.415501886438708 C-18.693940652940555 14.284137556247828, -18.945741480000184 14.152773226056947, -19.351480832063 13.941099265974234 M-18.44213982588093 14.415501886438708 C-18.690797367604688 14.28577740619418, -18.939454909328447 14.156052925949652, -19.351480832063 13.941099265974234 M-19.351480832063 13.941099265974234 C-19.55509942694586 13.81766447716056, -19.758718021828717 13.694229688346889, -20.228558419368767 13.409409678269457 M-19.351480832063 13.941099265974234 C-19.589493463801627 13.796814609896797, -19.827506095540254 13.652529953819363, -20.228558419368767 13.409409678269457 M-20.228558419368767 13.409409678269457 C-20.472863731865584 13.238992868078206, -20.717169044362397 13.068576057886954, -21.069768487859456 12.822617949887308 M-20.228558419368767 13.409409678269457 C-20.558653549703326 13.179149604935954, -20.88874868003788 12.948889531602454, -21.069768487859456 12.822617949887308 M-21.069768487859456 12.822617949887308 C-21.35450984873023 12.595544291878703, -21.63925120960101 12.368470633870096, -21.871654324924613 12.183135333906154 M-21.069768487859456 12.822617949887308 C-21.386699745716754 12.569873705641086, -21.70363100357405 12.317129461394865, -21.871654324924613 12.183135333906154 M-21.871654324924613 12.183135333906154 C-22.056337127837338 12.015411298740014, -22.241019930750063 11.847687263573874, -22.630920809655777 11.493589601563649 M-21.871654324924613 12.183135333906154 C-22.11768275813064 11.959698820424068, -22.363711191336673 11.736262306941981, -22.630920809655777 11.493589601563649 M-22.630920809655777 11.493589601563649 C-22.877773053620093 11.23869439272435, -23.124625297584405 10.983799183885052, -23.344447953205048 10.756814244181069 M-22.630920809655777 11.493589601563649 C-22.890252287792414 11.225808558877246, -23.149583765929055 10.958027516190842, -23.344447953205048 10.756814244181069 M-23.344447953205048 10.756814244181069 C-23.579548757868956 10.480651461408085, -23.814649562532868 10.2044886786351, -24.009303719488475 9.97583682973974 M-23.344447953205048 10.756814244181069 C-23.513918659888297 10.557744308954538, -23.683389366571543 10.358674373728006, -24.009303719488475 9.97583682973974 M-24.009303719488475 9.97583682973974 C-24.2013176739931 9.718555623534662, -24.39333162849772 9.461274417329584, -24.62275607355129 9.15386656195472 M-24.009303719488475 9.97583682973974 C-24.165261265508022 9.766867926098273, -24.321218811527572 9.557899022456809, -24.62275607355129 9.15386656195472 M-24.62275607355129 9.15386656195472 C-24.739406831662322 8.974659672381694, -24.85605758977335 8.79545278280867, -25.182284208085534 8.29428109296841 M-24.62275607355129 9.15386656195472 C-24.781220079472188 8.910423295316576, -24.939684085393083 8.66698002867843, -25.182284208085534 8.29428109296841 M-25.182284208085534 8.29428109296841 C-25.332758068703892 8.027099516309871, -25.483231929322248 7.7599179396513325, -25.685588901968 7.400612643853366 M-25.182284208085534 8.29428109296841 C-25.286103935280078 8.109938654447136, -25.389923662474626 7.9255962159258635, -25.685588901968 7.400612643853366 M-25.685588901968 7.400612643853366 C-25.85019876364084 7.0587967440029, -26.01480862531368 6.716980844152435, -26.130601968252996 6.476533489958307 M-25.685588901968 7.400612643853366 C-25.844525417584073 7.070577568479939, -26.003461933200146 6.740542493106511, -26.130601968252996 6.476533489958307 M-26.130601968252996 6.476533489958307 C-26.28199984922003 6.102577796890842, -26.433397730187057 5.728622103823379, -26.515494752796165 5.525840870740931 M-26.130601968252996 6.476533489958307 C-26.26310443819367 6.149249827443869, -26.39560690813434 5.8219661649294325, -26.515494752796165 5.525840870740931 M-26.515494752796165 5.525840870740931 C-26.634749772885655 5.166663750938485, -26.75400479297515 4.807486631136039, -26.83868564858657 4.552441386096519 M-26.515494752796165 5.525840870740931 C-26.58252397373971 5.323959536915003, -26.649553194683257 5.122078203089074, -26.83868564858657 4.552441386096519 M-26.83868564858657 4.552441386096519 C-26.89622525342697 4.333017935017581, -26.953764858267373 4.113594483938642, -27.098846594909176 3.5603349433010343 M-26.83868564858657 4.552441386096519 C-26.930536456264377 4.202174448029169, -27.02238726394219 3.8519075099618174, -27.098846594909176 3.5603349433010343 M-27.098846594909176 3.5603349433010343 C-27.168341684472413 3.203492346186202, -27.237836774035646 2.84664974907137, -27.2949085346312 2.5535983205340753 M-27.098846594909176 3.5603349433010343 C-27.152015766640805 3.287322483767546, -27.205184938372433 3.014310024234058, -27.2949085346312 2.5535983205340753 M-27.2949085346312 2.5535983205340753 C-27.332130476802465 2.2649122873576153, -27.36935241897373 1.9762262541811553, -27.42606580718717 1.5363684145229202 M-27.2949085346312 2.5535983205340753 C-27.338201720842836 2.217824917483223, -27.381494907054474 1.882051514432371, -27.42606580718717 1.5363684145229202 M-27.42606580718717 1.5363684145229202 C-27.450828469401053 1.1506699624805654, -27.47559113161493 0.7649715104382107, -27.491779459211006 0.5128252411464846 M-27.42606580718717 1.5363684145229202 C-27.44365447603363 1.2624106999214122, -27.461243144880083 0.9884529853199041, -27.491779459211006 0.5128252411464846 M-27.491779459211006 0.5128252411464846 C-27.491779459211006 0.19113273863770525, -27.491779459211006 -0.13055976387107415, -27.491779459211006 -0.5128252411464769 M-27.491779459211006 0.5128252411464846 C-27.491779459211006 0.16805712503934717, -27.491779459211006 -0.1767109910677903, -27.491779459211006 -0.5128252411464769 M-27.491779459211006 -0.5128252411464769 C-27.472531217752145 -0.8126321387690812, -27.453282976293288 -1.1124390363916856, -27.42606580718717 -1.5363684145228982 M-27.491779459211006 -0.5128252411464769 C-27.468994764241582 -0.8677152567700153, -27.44621006927216 -1.2226052723935537, -27.42606580718717 -1.5363684145228982 M-27.42606580718717 -1.5363684145228982 C-27.390855209824757 -1.8094548545468836, -27.355644612462346 -2.082541294570869, -27.294908534631205 -2.5535983205340678 M-27.42606580718717 -1.5363684145228982 C-27.392444779933165 -1.7971264626822134, -27.358823752679157 -2.0578845108415287, -27.294908534631205 -2.5535983205340678 M-27.294908534631205 -2.5535983205340678 C-27.242321552278927 -2.8236213606503435, -27.189734569926653 -3.0936444007666197, -27.098846594909176 -3.5603349433010267 M-27.294908534631205 -2.5535983205340678 C-27.220549850157155 -2.9354144495947723, -27.146191165683106 -3.3172305786554763, -27.098846594909176 -3.5603349433010267 M-27.098846594909176 -3.5603349433010267 C-27.011435618648566 -3.8936708799394966, -26.924024642387952 -4.227006816577966, -26.838685648586573 -4.552441386096511 M-27.098846594909176 -3.5603349433010267 C-26.999306364905326 -3.9399249813142903, -26.899766134901476 -4.319515019327554, -26.838685648586573 -4.552441386096511 M-26.838685648586573 -4.552441386096511 C-26.76578191503633 -4.772015815917334, -26.692878181486087 -4.991590245738158, -26.515494752796172 -5.525840870740911 M-26.838685648586573 -4.552441386096511 C-26.7283847932617 -4.884649988280336, -26.618083937936827 -5.2168585904641605, -26.515494752796172 -5.525840870740911 M-26.515494752796172 -5.525840870740911 C-26.405389505536586 -5.797802960212229, -26.295284258276997 -6.0697650496835465, -26.130601968253 -6.476533489958299 M-26.515494752796172 -5.525840870740911 C-26.37287974095368 -5.878102707265543, -26.230264729111187 -6.230364543790175, -26.130601968253 -6.476533489958299 M-26.130601968253 -6.476533489958299 C-26.023644200916582 -6.698633582361977, -25.916686433580164 -6.920733674765657, -25.685588901968003 -7.400612643853359 M-26.130601968253 -6.476533489958299 C-25.970960730667983 -6.808031935578875, -25.811319493082966 -7.139530381199451, -25.685588901968003 -7.400612643853359 M-25.685588901968003 -7.400612643853359 C-25.49946855991805 -7.731088157891354, -25.313348217868096 -8.061563671929349, -25.182284208085537 -8.294281092968404 M-25.685588901968003 -7.400612643853359 C-25.510997721162834 -7.7106169646470715, -25.33640654035766 -8.020621285440784, -25.182284208085537 -8.294281092968404 M-25.182284208085537 -8.294281092968404 C-24.985227970355854 -8.597012391130107, -24.78817173262617 -8.89974368929181, -24.622756073551294 -9.153866561954715 M-25.182284208085537 -8.294281092968404 C-25.04174877115373 -8.510181263144437, -24.90121333422193 -8.72608143332047, -24.622756073551294 -9.153866561954715 M-24.622756073551294 -9.153866561954715 C-24.416461466048023 -9.430282542183729, -24.21016685854475 -9.706698522412744, -24.00930371948848 -9.975836829739734 M-24.622756073551294 -9.153866561954715 C-24.474688461116212 -9.352263673380733, -24.326620848681127 -9.550660784806752, -24.00930371948848 -9.975836829739734 M-24.00930371948848 -9.975836829739734 C-23.811271950644706 -10.208456213750496, -23.613240181800933 -10.441075597761257, -23.344447953205055 -10.756814244181063 M-24.00930371948848 -9.975836829739734 C-23.803170439511415 -10.217972709716701, -23.597037159534352 -10.460108589693666, -23.344447953205055 -10.756814244181063 M-23.344447953205055 -10.756814244181063 C-23.169239517628537 -10.9377313387939, -22.99403108205202 -11.118648433406737, -22.63092080965579 -11.493589601563633 M-23.344447953205055 -10.756814244181063 C-23.06010591620187 -11.050420742302245, -22.775763879198685 -11.344027240423427, -22.63092080965579 -11.493589601563633 M-22.63092080965579 -11.493589601563633 C-22.44915853327526 -11.658661291806133, -22.267396256894727 -11.823732982048634, -21.871654324924627 -12.18313533390614 M-22.63092080965579 -11.493589601563633 C-22.41726793414293 -11.6876234901591, -22.20361505863007 -11.881657378754564, -21.871654324924627 -12.18313533390614 M-21.871654324924627 -12.18313533390614 C-21.558186993248636 -12.433117189201717, -21.24471966157265 -12.683099044497293, -21.069768487859463 -12.822617949887302 M-21.871654324924627 -12.18313533390614 C-21.618842494688753 -12.384746040913907, -21.366030664452875 -12.586356747921675, -21.069768487859463 -12.822617949887302 M-21.069768487859463 -12.822617949887302 C-20.744705933785635 -13.049367515878034, -20.419643379711808 -13.276117081868767, -20.228558419368788 -13.409409678269444 M-21.069768487859463 -12.822617949887302 C-20.900315569301966 -12.940820970374395, -20.730862650744474 -13.059023990861485, -20.228558419368788 -13.409409678269444 M-20.228558419368788 -13.409409678269444 C-19.89026201457487 -13.614486946905863, -19.55196560978095 -13.819564215542282, -19.351480832063007 -13.941099265974229 M-20.228558419368788 -13.409409678269444 C-19.94591683316859 -13.580748668810331, -19.663275246968393 -13.752087659351218, -19.351480832063007 -13.941099265974229 M-19.351480832063007 -13.941099265974229 C-19.099453207881346 -14.072581916078404, -18.847425583699685 -14.20406456618258, -18.442139825880936 -14.415501886438705 M-19.351480832063007 -13.941099265974229 C-19.010180476189543 -14.119155443020105, -18.668880120316075 -14.297211620065982, -18.442139825880936 -14.415501886438705 M-18.442139825880936 -14.415501886438705 C-18.19642188647803 -14.524273929248675, -17.950703947075127 -14.633045972058646, -17.504272078069995 -14.830668117536344 M-18.442139825880936 -14.415501886438705 C-18.1579176378948 -14.541318617908518, -17.87369544990867 -14.667135349378333, -17.504272078069995 -14.830668117536344 M-17.504272078069995 -14.830668117536344 C-17.27311437113904 -14.915736290485354, -17.041956664208087 -15.000804463434365, -16.54173148837794 -15.184891952170695 M-17.504272078069995 -14.830668117536344 C-17.270048545052546 -14.91686454282537, -17.035825012035097 -15.003060968114397, -16.54173148837794 -15.184891952170695 M-16.54173148837794 -15.184891952170695 C-16.16449151519328 -15.296854796038875, -15.787251542008619 -15.408817639907056, -15.558473342552134 -15.476717808624466 M-16.54173148837794 -15.184891952170695 C-16.262956875595815 -15.267630793926626, -15.984182262813693 -15.350369635682558, -15.558473342552134 -15.476717808624466 M-15.558473342552134 -15.476717808624466 C-15.330295224570763 -15.52879797505234, -15.102117106589393 -15.580878141480213, -14.558538059221963 -15.704946511857043 M-15.558473342552134 -15.476717808624466 C-15.206831761837968 -15.556977704746712, -14.855190181123803 -15.637237600868957, -14.558538059221963 -15.704946511857043 M-14.558538059221963 -15.704946511857043 C-14.170603079653867 -15.767664830872915, -13.782668100085772 -15.830383149888787, -13.546034586952107 -15.868640221171937 M-14.558538059221963 -15.704946511857043 C-14.34005679255803 -15.74026886870374, -14.1215755258941 -15.775591225550437, -13.546034586952107 -15.868640221171937 M-13.546034586952107 -15.868640221171937 C-13.145585712924886 -15.90727104243911, -12.745136838897666 -15.945901863706283, -12.525123519691407 -15.967126284005381 M-13.546034586952107 -15.868640221171937 C-13.224345134364956 -15.899673215774849, -12.902655681777807 -15.93070621037776, -12.525123519691407 -15.967126284005381 M-12.525123519691407 -15.967126284005381 C-12.306127977458441 -15.974149044795828, -12.087132435225476 -15.981171805586277, -11.500000000000005 -16 M-12.525123519691407 -15.967126284005381 C-12.2354977217934 -15.976414019621554, -11.945871923895396 -15.985701755237725, -11.500000000000005 -16 M-11.500000000000005 -16 C-11.500000000000004 -16, -11.500000000000004 -16, -11.5 -16 M-11.500000000000005 -16 C-11.500000000000004 -16, -11.500000000000002 -16, -11.5 -16" stroke="#999" stroke-width="1.3" fill="none" stroke-dasharray="0 0" style=""/></g><g class="label" style="" transform="translate(0, -8.5)"><rect/><g><rect class="background" style="stroke: none"/><text y="-10.1" style=""><tspan class="text-outer-tspan row" x="0" y="-0.1em" dy="1.1em"><tspan font-style="normal" class="text-inner-tspan" font-weight="normal">开始</tspan></tspan></text></g></g></g><g class="node default" id="my-svg-flowchart-Request-1" data-look="classic" transform="translate(681.7890625, 113.5)"><rect class="basic label-container" style="" x="-86.08203125" y="-23.5" width="172.1640625" height="47"/><g class="label" style="" transform="translate(0, -8.5)"><rect/><g><rect class="background" style="stroke: none"/><text y="-10.1" style=""><tspan class="text-outer-tspan row" x="0" y="-0.1em" dy="1.1em"><tspan font-style="normal" class="text-inner-tspan" font-weight="normal">请求</tspan><tspan font-style="normal" class="text-inner-tspan" font-weight="normal"> DeepSeek</tspan></tspan></text></g></g></g><g class="node default" id="my-svg-flowchart-Check-3" data-look="classic" transform="translate(681.7890625, 266.5)"><polygon points="79.5,0 159,-79.5 79.5,-159 0,-79.5" class="label-container" transform="translate(-79, 79.5)"/><g class="label" style="" transform="translate(0, -8.5)"><rect/><g><rect class="background" style="stroke: none"/><text y="-10.1" style=""><tspan class="text-outer-tspan row" x="0" y="-0.1em" dy="1.1em"><tspan font-style="normal" class="text-inner-tspan" font-weight="normal">返回什么信号？</tspan></tspan></text></g></g></g><g class="node default" id="my-svg-flowchart-Done-5" data-look="classic" transform="translate(110, 488.5)"><rect class="basic label-container" style="" x="-102" y="-32.29999923706055" width="204" height="64.5999984741211"/><g class="label" style="" transform="translate(0, -17.299999237060547)"><rect/><g><rect class="background" style="stroke: none"/><text y="-10.1" style=""><tspan class="text-outer-tspan row" x="0" y="-0.1em" dy="1.1em"><tspan font-style="normal" class="text-inner-tspan" font-weight="normal">回到</tspan><tspan font-style="normal" class="text-inner-tspan" font-weight="normal"> Agent</tspan><tspan font-style="normal" class="text-inner-tspan" font-weight="normal"> Loop</tspan></tspan><tspan class="text-outer-tspan row" x="0" y="1em" dy="1.1em"><tspan font-style="normal" class="text-inner-tspan" font-weight="normal">执行工具或输出答案</tspan></tspan></text></g></g></g><g class="node default" id="my-svg-flowchart-L1-7" data-look="classic" transform="translate(333.5, 488.5)"><polygon points="71.5,0 143,-71.5 71.5,-143 0,-71.5" class="label-container" transform="translate(-71, 71.5)"/><g class="label" style="" transform="translate(0, -8.5)"><rect/><g><rect class="background" style="stroke: none"/><text y="-10.1" style=""><tspan class="text-outer-tspan row" x="0" y="-0.1em" dy="1.1em"><tspan font-style="normal" class="text-inner-tspan" font-weight="normal">第一次截断？</tspan></tspan></text></g></g></g><g class="node default" id="my-svg-flowchart-L2-9" data-look="classic" transform="translate(221.75, 710.5)"><rect class="basic label-container" style="" x="-118.9140625" y="-32.29999923706055" width="237.828125" height="64.5999984741211"/><g class="label" style="" transform="translate(0, -17.299999237060547)"><rect/><g><rect class="background" style="stroke: none"/><text y="-10.1" style=""><tspan class="text-outer-tspan row" x="0" y="-0.1em" dy="1.1em"><tspan font-style="normal" class="text-inner-tspan" font-weight="normal">扩大输出上限</tspan></tspan><tspan class="text-outer-tspan row" x="0" y="1em" dy="1.1em"><tspan font-style="normal" class="text-inner-tspan" font-weight="normal">用原</tspan><tspan font-style="normal" class="text-inner-tspan" font-weight="normal"> messages</tspan><tspan font-style="normal" class="text-inner-tspan" font-weight="normal"> 重新请求</tspan></tspan></text></g></g></g><g class="node default" id="my-svg-flowchart-L3-11" data-look="classic" transform="translate(470.1640625, 710.5)"><polygon points="79.5,0 159,-79.5 79.5,-159 0,-79.5" class="label-container" transform="translate(-79, 79.5)"/><g class="label" style="" transform="translate(0, -8.5)"><rect/><g><rect class="background" style="stroke: none"/><text y="-10.1" style=""><tspan class="text-outer-tspan row" x="0" y="-0.1em" dy="1.1em"><tspan font-style="normal" class="text-inner-tspan" font-weight="normal">工具调用完整？</tspan></tspan></text></g></g></g><g class="node default" id="my-svg-flowchart-Stop-13" data-look="classic" transform="translate(686.4140625, 1164.099998474121)"><rect class="basic label-container" style="" x="-62" y="-23.5" width="124" height="47"/><g class="label" style="" transform="translate(0, -8.5)"><rect/><g><rect class="background" style="stroke: none"/><text y="-10.1" style=""><tspan class="text-outer-tspan row" x="0" y="-0.1em" dy="1.1em"><tspan font-style="normal" class="text-inner-tspan" font-weight="normal">明确停止</tspan></tspan></text></g></g></g><g class="node default" id="my-svg-flowchart-L4-15" data-look="classic" transform="translate(540.4140625, 956.5)"><polygon points="95.5,0 191,-95.5 95.5,-191 0,-95.5" class="label-container" transform="translate(-95, 95.5)"/><g class="label" style="" transform="translate(0, -8.5)"><rect/><g><rect class="background" style="stroke: none"/><text y="-10.1" style=""><tspan class="text-outer-tspan row" x="0" y="-0.1em" dy="1.1em"><tspan font-style="normal" class="text-inner-tspan" font-weight="normal">续写次数还没用完？</tspan></tspan></text></g></g></g><g class="node default" id="my-svg-flowchart-L5-17" data-look="classic" transform="translate(170.0390625, 1164.099998474121)"><rect class="basic label-container" style="" x="-78" y="-41.099998474121094" width="156" height="82.19999694824219"/><g class="label" style="" transform="translate(0, -26.099998474121094)"><rect/><g><rect class="background" style="stroke: none"/><text y="-10.1" style=""><tspan class="text-outer-tspan row" x="0" y="-0.1em" dy="1.1em"><tspan font-style="normal" class="text-inner-tspan" font-weight="normal">保存文本片段</tspan></tspan><tspan class="text-outer-tspan row" x="0" y="1em" dy="1.1em"><tspan font-style="normal" class="text-inner-tspan" font-weight="normal">追加续写提示</tspan></tspan><tspan class="text-outer-tspan row" x="0" y="2.1em" dy="1.1em"><tspan font-style="normal" class="text-inner-tspan" font-weight="normal">重新请求</tspan></tspan></text></g></g></g><g class="node default" id="my-svg-flowchart-C1-21" data-look="classic" transform="translate(770.2890625, 956.5)"><polygon points="71.5,0 143,-71.5 71.5,-143 0,-71.5" class="label-container" transform="translate(-71, 71.5)"/><g class="label" style="" transform="translate(0, -8.5)"><rect/><g><rect class="background" style="stroke: none"/><text y="-10.1" style=""><tspan class="text-outer-tspan row" x="0" y="-0.1em" dy="1.1em"><tspan font-style="normal" class="text-inner-tspan" font-weight="normal">已经压缩过？</tspan></tspan></text></g></g></g><g class="node default" id="my-svg-flowchart-C2-23" data-look="classic" transform="translate(388.7890625, 1164.099998474121)"><rect class="basic label-container" style="" x="-90.75" y="-32.29999923706055" width="181.5" height="64.5999984741211"/><g class="label" style="" transform="translate(0, -17.299999237060547)"><rect/><g><rect class="background" style="stroke: none"/><text y="-10.1" style=""><tspan class="text-outer-tspan row" x="0" y="-0.1em" dy="1.1em"><tspan font-style="normal" class="text-inner-tspan" font-weight="normal">reactive</tspan><tspan font-style="normal" class="text-inner-tspan" font-weight="normal"> compact</tspan></tspan><tspan class="text-outer-tspan row" x="0" y="1em" dy="1.1em"><tspan font-style="normal" class="text-inner-tspan" font-weight="normal">重新请求</tspan></tspan></text></g></g></g><g class="node default" id="my-svg-flowchart-R1-27" data-look="classic" transform="translate(1001.7890625, 956.5)"><polygon points="95.5,0 191,-95.5 95.5,-191 0,-95.5" class="label-container" transform="translate(-95, 95.5)"/><g class="label" style="" transform="translate(0, -8.5)"><rect/><g><rect class="background" style="stroke: none"/><text y="-10.1" style=""><tspan class="text-outer-tspan row" x="0" y="-0.1em" dy="1.1em"><tspan font-style="normal" class="text-inner-tspan" font-weight="normal">重试次数还没用完？</tspan></tspan></text></g></g></g><g class="node default" id="my-svg-flowchart-R2-29" data-look="classic" transform="translate(1067.0390625, 1164.099998474121)"><rect class="basic label-container" style="" x="-94" y="-41.099998474121094" width="188" height="82.19999694824219"/><g class="label" style="" transform="translate(0, -26.099998474121094)"><rect/><g><rect class="background" style="stroke: none"/><text y="-10.1" style=""><tspan class="text-outer-tspan row" x="0" y="-0.1em" dy="1.1em"><tspan font-style="normal" class="text-inner-tspan" font-weight="normal">等待</tspan><tspan font-style="normal" class="text-inner-tspan" font-weight="normal"> +</tspan><tspan font-style="normal" class="text-inner-tspan" font-weight="normal"> 抖动</tspan></tspan><tspan class="text-outer-tspan row" x="0" y="1em" dy="1.1em"><tspan font-style="normal" class="text-inner-tspan" font-weight="normal">必要时切备用模型</tspan></tspan><tspan class="text-outer-tspan row" x="0" y="2.1em" dy="1.1em"><tspan font-style="normal" class="text-inner-tspan" font-weight="normal">重新请求</tspan></tspan></text></g></g></g></g></g></g><defs><filter id="my-svg-drop-shadow" height="130%" width="130%"><feDropShadow dx="4" dy="4" stdDeviation="0" flood-opacity="0.06" flood-color="#000000"/></filter></defs><defs><filter id="my-svg-drop-shadow-small" height="150%" width="150%"><feDropShadow dx="2" dy="2" stdDeviation="0" flood-opacity="0.06" flood-color="#000000"/></filter></defs><linearGradient id="my-svg-gradient" gradientUnits="objectBoundingBox" x1="0%" y1="0%" x2="100%" y2="0%"><stop offset="0%" stop-color="hsl(0, 0%, 83.3333333333%)" stop-opacity="1"/><stop offset="100%" stop-color="hsl(0, 0%, 88.9215686275%)" stop-opacity="1"/></linearGradient></svg>