<svg width="519.177734375" height="890" id="my-svg" xmlns="http://www.w3.org/2000/svg" xmlns:xlink="http://www.w3.org/1999/xlink" class="classDiagram" style="max-width: 519.178px; background-color: white;" viewBox="0 0 519.177734375 890" role="graphics-document document" aria-roledescription="class"><style>#my-svg{font-family:"trebuchet ms",verdana,arial,sans-serif;font-size:16px;fill:#000000;}@keyframes edge-animation-frame{from{stroke-dashoffset:0;}}@keyframes dash{to{stroke-dashoffset:0;}}#my-svg .edge-animation-slow{stroke-dasharray:9,5!important;stroke-dashoffset:900;animation:dash 50s linear infinite;stroke-linecap:round;}#my-svg .edge-animation-fast{stroke-dasharray:9,5!important;stroke-dashoffset:900;animation:dash 20s linear infinite;stroke-linecap:round;}#my-svg .error-icon{fill:#552222;}#my-svg .error-text{fill:#552222;stroke:#552222;}#my-svg .edge-thickness-normal{stroke-width:1px;}#my-svg .edge-thickness-thick{stroke-width:3.5px;}#my-svg .edge-pattern-solid{stroke-dasharray:0;}#my-svg .edge-thickness-invisible{stroke-width:0;fill:none;}#my-svg .edge-pattern-dashed{stroke-dasharray:3;}#my-svg .edge-pattern-dotted{stroke-dasharray:2;}#my-svg .marker{fill:#666;stroke:#666;}#my-svg .marker.cross{stroke:#666;}#my-svg svg{font-family:"trebuchet ms",verdana,arial,sans-serif;font-size:16px;}#my-svg p{margin:0;}#my-svg g.classGroup text{fill:#999;stroke:none;font-family:"trebuchet ms",verdana,arial,sans-serif;font-size:10px;}#my-svg g.classGroup text .title{font-weight:bolder;}#my-svg .cluster-label text{fill:#333;}#my-svg .cluster-label span{color:#333;}#my-svg .cluster-label span p{background-color:transparent;}#my-svg .cluster rect{fill:hsl(0, 0%, 98.9215686275%);stroke:#707070;stroke-width:1px;}#my-svg .cluster text{fill:#333;}#my-svg .cluster span{color:#333;}#my-svg .nodeLabel,#my-svg .edgeLabel{color:#111111;}#my-svg .noteLabel .nodeLabel,#my-svg .noteLabel .edgeLabel{color:#fff;}#my-svg .edgeLabel .label rect{fill:#eee;}#my-svg .label text{fill:#111111;}#my-svg .labelBkg{background:#eee;}#my-svg .edgeLabel .label span{background:#eee;}#my-svg .classTitle{font-weight:bolder;}#my-svg .node rect,#my-svg .node circle,#my-svg .node ellipse,#my-svg .node polygon,#my-svg .node path{fill:#eee;stroke:#999;stroke-width:1;}#my-svg .divider{stroke:#999;stroke-width:1;}#my-svg g.clickable{cursor:pointer;}#my-svg g.classGroup rect{fill:#eee;stroke:#999;}#my-svg g.classGroup line{stroke:#999;stroke-width:1;}#my-svg .classLabel .box{stroke:none;stroke-width:0;fill:#eee;opacity:0.5;}#my-svg .classLabel .label{fill:#999;font-size:10px;}#my-svg .relation{stroke:#666;stroke-width:1;fill:none;}#my-svg .dashed-line{stroke-dasharray:3;}#my-svg .dotted-line{stroke-dasharray:1 2;}#my-svg [id$="-compositionStart"],#my-svg .composition{fill:#666!important;stroke:#666!important;stroke-width:1;}#my-svg [id$="-compositionEnd"],#my-svg .composition{fill:#666!important;stroke:#666!important;stroke-width:1;}#my-svg [id$="-dependencyStart"],#my-svg .dependency{fill:#666!important;stroke:#666!important;stroke-width:1;}#my-svg [id$="-dependencyEnd"],#my-svg .dependency{fill:#666!important;stroke:#666!important;stroke-width:1;}#my-svg [id$="-extensionStart"],#my-svg .extension{fill:transparent!important;stroke:#666!important;stroke-width:1;}#my-svg [id$="-extensionEnd"],#my-svg .extension{fill:transparent!important;stroke:#666!important;stroke-width:1;}#my-svg [id$="-aggregationStart"],#my-svg .aggregation{fill:transparent!important;stroke:#666!important;stroke-width:1;}#my-svg [id$="-aggregationEnd"],#my-svg .aggregation{fill:transparent!important;stroke:#666!important;stroke-width:1;}#my-svg [id$="-lollipopStart"],#my-svg .lollipop{fill:#eee!important;stroke:#666!important;stroke-width:1;}#my-svg [id$="-lollipopEnd"],#my-svg .lollipop{fill:#eee!important;stroke:#666!important;stroke-width:1;}#my-svg .edgeTerminals{font-size:11px;line-height:initial;}#my-svg .classTitleText{text-anchor:middle;font-size:18px;fill:#000000;}#my-svg .edgeLabel[data-look="neo"]{background-color:white;text-align:center;}#my-svg .edgeLabel[data-look="neo"] p{background-color:white;}#my-svg .edgeLabel[data-look="neo"] rect{opacity:0.5;background-color:white;fill:white;}#my-svg .label-icon{display:inline-block;height:1em;overflow:visible;vertical-align:-0.125em;}#my-svg .node .label-icon path{fill:currentColor;stroke:revert;stroke-width:revert;}#my-svg .node .neo-node{stroke:#999;}#my-svg [data-look="neo"].node rect,#my-svg [data-look="neo"].cluster rect,#my-svg [data-look="neo"].node polygon{stroke:url(#my-svg-gradient);filter:drop-shadow( 1px 2px 2px rgba(185,185,185,1));}#my-svg [data-look="neo"].swimlane.cluster rect{filter:none;}#my-svg [data-look="neo"].node path{stroke:url(#my-svg-gradient);stroke-width:1px;}#my-svg [data-look="neo"].node .outer-path{filter:drop-shadow( 1px 2px 2px rgba(185,185,185,1));}#my-svg [data-look="neo"].node .neo-line path{stroke:#999;filter:none;}#my-svg [data-look="neo"].node circle{stroke:url(#my-svg-gradient);filter:drop-shadow( 1px 2px 2px rgba(185,185,185,1));}#my-svg [data-look="neo"].node circle .state-start{fill:#000000;}#my-svg [data-look="neo"].icon-shape .icon{fill:url(#my-svg-gradient);filter:drop-shadow( 1px 2px 2px rgba(185,185,185,1));}#my-svg [data-look="neo"].icon-shape .icon-neo path{stroke:url(#my-svg-gradient);filter:drop-shadow( 1px 2px 2px rgba(185,185,185,1));}#my-svg :root{--mermaid-font-family:"trebuchet ms",verdana,arial,sans-serif;}</style><g><defs><marker id="my-svg_class-aggregationStart" class="marker aggregation class" refX="18" refY="7" markerWidth="190" markerHeight="240" orient="auto"><path d="M 18,7 L9,13 L1,7 L9,1 Z"/></marker></defs><defs><marker id="my-svg_class-aggregationEnd" class="marker aggregation class" refX="1" refY="7" markerWidth="20" markerHeight="28" orient="auto"><path d="M 18,7 L9,13 L1,7 L9,1 Z"/></marker></defs><defs><marker id="my-svg_class-aggregationStart-margin" class="marker aggregation class" refX="15" refY="7" markerWidth="190" markerHeight="240" orient="auto" markerUnits="userSpaceOnUse"><path d="M 18,7 L9,13 L1,7 L9,1 Z" style="stroke-width: 2;"/></marker></defs><defs><marker id="my-svg_class-aggregationEnd-margin" class="marker aggregation class" refX="1" refY="7" markerWidth="20" markerHeight="28" orient="auto" markerUnits="userSpaceOnUse"><path d="M 18,7 L9,13 L1,7 L9,1 Z" style="stroke-width: 2;"/></marker></defs><defs><marker id="my-svg_class-extensionStart" class="marker extension class" refX="18" refY="7" markerWidth="20" markerHeight="28" orient="auto" markerUnits="userSpaceOnUse"><path d="M 1,7 L18,13 V 1 Z"/></marker></defs><defs><marker id="my-svg_class-extensionEnd" class="marker extension class" refX="1" refY="7" markerWidth="20" markerHeight="28" orient="auto"><path d="M 1,1 V 13 L18,7 Z"/></marker></defs><marker id="my-svg_class-extensionStart-margin" class="marker extension class" refX="18" refY="7" markerWidth="20" markerHeight="28" orient="auto" markerUnits="userSpaceOnUse" viewBox="0 0 20 14"><polygon points="10,7 18,13 18,1" style="stroke-width: 2; stroke-dasharray: 0;"/></marker><defs><marker id="my-svg_class-extensionEnd-margin" class="marker extension class" refX="9" refY="7" markerWidth="20" markerHeight="28" orient="auto" markerUnits="userSpaceOnUse" viewBox="0 0 20 14"><polygon points="10,1 10,13 18,7" style="stroke-width: 2; stroke-dasharray: 0;"/></marker></defs><defs><marker id="my-svg_class-compositionStart" class="marker composition class" refX="18" refY="7" markerWidth="190" markerHeight="240" orient="auto"><path d="M 18,7 L9,13 L1,7 L9,1 Z"/></marker></defs><defs><marker id="my-svg_class-compositionEnd" class="marker composition class" refX="1" refY="7" markerWidth="20" markerHeight="28" orient="auto"><path d="M 18,7 L9,13 L1,7 L9,1 Z"/></marker></defs><defs><marker id="my-svg_class-compositionStart-margin" class="marker composition class" refX="15" refY="7" markerWidth="190" markerHeight="240" orient="auto" markerUnits="userSpaceOnUse"><path viewBox="0 0 15 15" d="M 18,7 L9,13 L1,7 L9,1 Z" style="stroke-width: 0;"/></marker></defs><defs><marker id="my-svg_class-compositionEnd-margin" class="marker composition class" refX="3.5" refY="7" markerWidth="20" markerHeight="28" orient="auto" markerUnits="userSpaceOnUse"><path d="M 18,7 L9,13 L1,7 L9,1 Z" style="stroke-width: 0;"/></marker></defs><defs><marker id="my-svg_class-dependencyStart" class="marker dependency class" refX="6" refY="7" markerWidth="190" markerHeight="240" orient="auto"><path d="M 5,7 L9,13 L1,7 L9,1 Z"/></marker></defs><defs><marker id="my-svg_class-dependencyEnd" class="marker dependency class" refX="13" refY="7" markerWidth="20" markerHeight="28" orient="auto"><path d="M 18,7 L9,13 L14,7 L9,1 Z"/></marker></defs><defs><marker id="my-svg_class-dependencyStart-margin" class="marker dependency class" refX="4" refY="7" markerWidth="190" markerHeight="240" orient="auto" markerUnits="userSpaceOnUse"><path d="M 5,7 L9,13 L1,7 L9,1 Z" style="stroke-width: 0;"/></marker></defs><defs><marker id="my-svg_class-dependencyEnd-margin" class="marker dependency class" refX="16" refY="7" markerWidth="20" markerHeight="28" orient="auto" markerUnits="userSpaceOnUse"><path d="M 18,7 L9,13 L14,7 L9,1 Z" style="stroke-width: 0;"/></marker></defs><defs><marker id="my-svg_class-lollipopStart" class="marker lollipop class" refX="13" refY="7" markerWidth="190" markerHeight="240" orient="auto"><circle fill="transparent" cx="7" cy="7" r="6"/></marker></defs><defs><marker id="my-svg_class-lollipopEnd" class="marker lollipop class" refX="1" refY="7" markerWidth="190" markerHeight="240" orient="auto"><circle fill="transparent" cx="7" cy="7" r="6"/></marker></defs><defs><marker id="my-svg_class-lollipopStart-margin" class="marker lollipop class" refX="13" refY="7" markerWidth="190" markerHeight="240" orient="auto" markerUnits="userSpaceOnUse"><circle fill="transparent" cx="7" cy="7" r="6" stroke-width="2"/></marker></defs><defs><marker id="my-svg_class-lollipopEnd-margin" class="marker lollipop class" refX="1" refY="7" markerWidth="190" markerHeight="240" orient="auto" markerUnits="userSpaceOnUse"><circle fill="transparent" cx="7" cy="7" r="6" stroke-width="2"/></marker></defs><g class="root"><g class="clusters"/><g class="edgePaths"><path d="M136.035,368L136.035,373.917C136.035,379.833,136.035,391.667,139.963,402.706C143.891,413.746,151.746,423.992,155.674,429.115L159.601,434.238" id="my-svg-id_LeadSession_TeammateRuntime_1" class="edge-thickness-normal edge-pattern-solid relation" style=";;;" data-edge="true" data-et="edge" data-id="id_LeadSession_TeammateRuntime_1" data-points="W3sieCI6MTM2LjAzNTE1NjI1LCJ5IjozNjh9LHsieCI6MTM2LjAzNTE1NjI1LCJ5Ijo0MDMuNX0seyJ4IjoxNjMuMjUyMDc0NzIwMzMwNzQsInkiOjQzOX1d" data-look="classic" marker-end="url(#my-svg_class-dependencyEnd)"/><path d="M234.553,625L234.553,630.917C234.553,636.833,234.553,648.667,239.337,659.765C244.121,670.864,253.689,681.228,258.474,686.41L263.258,691.592" id="my-svg-id_TeammateRuntime_TeamMessage_2" class="edge-thickness-normal edge-pattern-solid relation" style=";;;" data-edge="true" data-et="edge" data-id="id_TeammateRuntime_TeamMessage_2" data-points="W3sieCI6MjM0LjU1MjczNDM3NSwieSI6NjI1fSx7IngiOjIzNC41NTI3MzQzNzUsInkiOjY2MC41fSx7IngiOjI2Ny4zMjc4NTkwMTAyMTQsInkiOjY5Nn1d" data-look="classic" marker-end="url(#my-svg_class-dependencyEnd)"/><path d="M439.051,696L444.514,690.083C449.976,684.167,460.901,672.333,466.364,645C471.826,617.667,471.826,574.833,471.826,532C471.826,489.167,471.826,446.333,438.145,413.181C404.463,380.029,337.1,356.557,303.418,344.821L269.736,333.086" id="my-svg-id_TeamMessage_LeadSession_3" class="edge-thickness-normal edge-pattern-solid relation" style=";;;" data-edge="true" data-et="edge" data-id="id_TeamMessage_LeadSession_3" data-points="W3sieCI6NDM5LjA1MTA0NzIzOTc4NiwieSI6Njk2fSx7IngiOjQ3MS44MjYxNzE4NzUsInkiOjY2MC41fSx7IngiOjQ3MS44MjYxNzE4NzUsInkiOjUzMn0seyJ4Ijo0NzEuODI2MTcxODc1LCJ5Ijo0MDMuNX0seyJ4IjoyNjQuMDcwMzEyNSwieSI6MzMxLjExMTQxNzc2OTM3NjJ9XQ==" data-look="classic" marker-end="url(#my-svg_class-dependencyEnd)"/><path d="M171.541,134L165.624,139.917C159.706,145.833,147.871,157.667,141.953,168.5C136.035,179.333,136.035,189.167,136.035,194.083L136.035,199" id="my-svg-id_ToolPool_LeadSession_4" class="edge-thickness-normal edge-pattern-solid relation" style=";;;" data-edge="true" data-et="edge" data-id="id_ToolPool_LeadSession_4" data-points="W3sieCI6MTcxLjU0MTQ5MTUxMzMyNDg3LCJ5IjoxMzR9LHsieCI6MTM2LjAzNTE1NjI1LCJ5IjoxNjkuNX0seyJ4IjoxMzYuMDM1MTU2MjUsInkiOjIwNX1d" data-look="classic" marker-end="url(#my-svg_class-dependencyEnd)"/><path d="M304.036,134L310.562,139.917C317.087,145.833,330.138,157.667,336.664,183.083C343.189,208.5,343.189,247.5,343.189,286.5C343.189,325.5,343.189,364.5,338.833,389.153C334.477,413.806,325.764,424.112,321.407,429.265L317.051,434.418" id="my-svg-id_ToolPool_TeammateRuntime_5" class="edge-thickness-normal edge-pattern-solid relation" style=";;;" data-edge="true" data-et="edge" data-id="id_ToolPool_TeammateRuntime_5" data-points="W3sieCI6MzA0LjAzNjExNzk0MDk4OTg3LCJ5IjoxMzR9LHsieCI6MzQzLjE4OTQ1MzEyNSwieSI6MTY5LjV9LHsieCI6MzQzLjE4OTQ1MzEyNSwieSI6Mjg2LjV9LHsieCI6MzQzLjE4OTQ1MzEyNSwieSI6NDAzLjV9LHsieCI6MzEzLjE3Njk3NDQwNDE4MjksInkiOjQzOX1d" data-look="classic" marker-end="url(#my-svg_class-dependencyEnd)"/></g><g class="edgeLabels"><g class="edgeLabel" transform="translate(136.03515625, 403.5)"><g class="label" data-id="id_LeadSession_TeammateRuntime_1" transform="translate(0, -10.5)"><g><rect class="background" style="" x="-25.125" y="0" width="50.25" height="21"/><text y="-10.1" text-anchor="middle" style=""><tspan class="text-outer-tspan row" x="0" y="-0.1em" dy="1.1em" text-anchor="middle"><tspan font-style="normal" class="text-inner-tspan" font-weight="normal">spawn</tspan></tspan></text></g></g></g><g class="edgeLabel" transform="translate(234.552734375, 660.5)"><g class="label" data-id="id_TeammateRuntime_TeamMessage_2" transform="translate(0, -10.5)"><g><rect class="background" style="" x="-19.3515625" y="0" width="38.703125" height="21"/><text y="-10.1" text-anchor="middle" style=""><tspan class="text-outer-tspan row" x="0" y="-0.1em" dy="1.1em" text-anchor="middle"><tspan font-style="normal" class="text-inner-tspan" font-weight="normal">send</tspan></tspan></text></g></g></g><g class="edgeLabel" transform="translate(471.826171875, 532)"><g class="label" data-id="id_TeamMessage_LeadSession_3" transform="translate(0, -10.5)"><g><rect class="background" style="" x="-39.3515625" y="0" width="78.703125" height="21"/><text y="-10.1" text-anchor="middle" style=""><tspan class="text-outer-tspan row" x="0" y="-0.1em" dy="1.1em" text-anchor="middle"><tspan font-style="normal" class="text-inner-tspan" font-weight="normal">inbox</tspan><tspan font-style="normal" class="text-inner-tspan" font-weight="normal"> 注入</tspan></tspan></text></g></g></g><g class="edgeLabel" transform="translate(136.03515625, 169.5)"><g class="label" data-id="id_ToolPool_LeadSession_4" transform="translate(0, -10.5)"><g><rect class="background" style="" x="-26" y="0" width="52" height="21"/><text y="-10.1" text-anchor="middle" style=""><tspan class="text-outer-tspan row" x="0" y="-0.1em" dy="1.1em" text-anchor="middle"><tspan font-style="normal" class="text-inner-tspan" font-weight="normal">主工具</tspan></tspan></text></g></g></g><g class="edgeLabel" transform="translate(343.189453125, 286.5)"><g class="label" data-id="id_ToolPool_TeammateRuntime_5" transform="translate(0, -10.5)"><g><rect class="background" style="" x="-34" y="0" width="68" height="21"/><text y="-10.1" text-anchor="middle" style=""><tspan class="text-outer-tspan row" x="0" y="-0.1em" dy="1.1em" text-anchor="middle"><tspan font-style="normal" class="text-inner-tspan" font-weight="normal">受限工具</tspan></tspan></text></g></g></g></g><g class="nodes"><g class="node default" id="my-svg-classId-LeadSession-0" data-look="classic" transform="translate(136.03515625, 286.5)"><g class="basic label-container outer-path"><path d="M-128.03515625 -81.5 L128.03515625 -81.5 L128.03515625 81.5 L-128.03515625 81.5" stroke="none" stroke-width="0" fill="#eee" style=""/><path d="M-128.03515625 -81.5 C-48.288251564823526 -81.5, 31.45865312035295 -81.5, 128.03515625 -81.5 M-128.03515625 -81.5 C-72.12266226155882 -81.5, -16.210168273117645 -81.5, 128.03515625 -81.5 M128.03515625 -81.5 C128.03515625 -16.91006454739609, 128.03515625 47.67987090520782, 128.03515625 81.5 M128.03515625 -81.5 C128.03515625 -17.79270479272727, 128.03515625 45.91459041454546, 128.03515625 81.5 M128.03515625 81.5 C30.683247700205044 81.5, -66.66866084958991 81.5, -128.03515625 81.5 M128.03515625 81.5 C37.70583043868052 81.5, -52.623495372638956 81.5, -128.03515625 81.5 M-128.03515625 81.5 C-128.03515625 18.795927526229313, -128.03515625 -43.90814494754137, -128.03515625 -81.5 M-128.03515625 81.5 C-128.03515625 32.211106940967035, -128.03515625 -17.07778611806593, -128.03515625 -81.5" stroke="#999" stroke-width="1.3" fill="none" stroke-dasharray="0 0" style=""/></g><g class="annotation-group text" transform="translate(0, -61.5)"/><g class="label-group text" transform="translate(-49.3515625, -61.5)"><g class="label" style="font-weight: bolder" transform="translate(0,-8.5)"><g><rect class="background" style="stroke: none"/><text y="-10.1" style=""><tspan class="text-outer-tspan row" x="0" y="-0.1em" dy="1.1em" font-weight=""><tspan font-style="normal" class="text-inner-tspan" font-weight="">LeadSession</tspan></tspan></text></g></g></g><g class="members-group text" transform="translate(-116.03515625, -20.5)"><g class="label" style="" transform="translate(0,-8.5)"><g><rect class="background" style="stroke: none"/><text y="-10.1" style=""><tspan class="text-outer-tspan row" x="0" y="-0.1em" dy="1.1em"><tspan font-style="normal" class="text-inner-tspan" font-weight="normal">+messages</tspan><tspan font-style="normal" class="text-inner-tspan" font-weight="normal"> 主会话上下文</tspan></tspan></text></g></g><g class="label" style="" transform="translate(0,11.5)"><g><rect class="background" style="stroke: none"/><text y="-10.1" style=""><tspan class="text-outer-tspan row" x="0" y="-0.1em" dy="1.1em"><tspan font-style="normal" class="text-inner-tspan" font-weight="normal">+tools</tspan><tspan font-style="normal" class="text-inner-tspan" font-weight="normal"> 20</tspan><tspan font-style="normal" class="text-inner-tspan" font-weight="normal"> 个主工具</tspan></tspan></text></g></g></g><g class="methods-group text" transform="translate(-116.03515625, 40.5)"><g class="label" style="" transform="translate(0,-8.5)"><g><rect class="background" style="stroke: none"/><text y="-10.1" style=""><tspan class="text-outer-tspan row" x="0" y="-0.1em" dy="1.1em"><tspan font-style="normal" class="text-inner-tspan" font-weight="normal">+injectLeadInbox()</tspan></tspan></text></g></g><g class="label" style="" transform="translate(0,11.5)"><g><rect class="background" style="stroke: none"/><text y="-10.1" style=""><tspan class="text-outer-tspan row" x="0" y="-0.1em" dy="1.1em"><tspan font-style="normal" class="text-inner-tspan" font-weight="normal">+runAgentLoop()</tspan></tspan></text></g></g></g><g class="divider" style=""><path d="M-128.03515625 -40.5 C-26.148824198977678 -40.499602115797586, 75.73750785204464 -40.49920423159517, 128.03515625 -40.499 M-128.03515625 -40.5 C-39.80078717929261 -40.49965542913503, 48.433581891414775 -40.499310858270064, 128.03515625 -40.499" stroke="#999" stroke-width="1.3" fill="none" stroke-dasharray="0 0" style=""/></g><g class="divider" style=""><path d="M-128.03515625 20.5 C-33.09255199274968 20.500370767713488, 61.85005226450065 20.50074153542697, 128.03515625 20.501 M-128.03515625 20.5 C-33.52541042323291 20.50036907732452, 60.984335403534175 20.500738154649042, 128.03515625 20.501" stroke="#999" stroke-width="1.3" fill="none" stroke-dasharray="0 0" style=""/></g></g><g class="node default" id="my-svg-classId-TeammateRuntime-1" data-look="classic" transform="translate(234.552734375, 532)"><g class="basic label-container outer-path"><path d="M-162.921875 -93 L162.921875 -93 L162.921875 93 L-162.921875 93" stroke="none" stroke-width="0" fill="#eee" style=""/><path d="M-162.921875 -93 C-55.2326041628274 -93, 52.4566666743452 -93, 162.921875 -93 M-162.921875 -93 C-56.752760823085026 -93, 49.41635335382995 -93, 162.921875 -93 M162.921875 -93 C162.921875 -44.57797304811343, 162.921875 3.844053903773144, 162.921875 93 M162.921875 -93 C162.921875 -32.464578961543964, 162.921875 28.070842076912072, 162.921875 93 M162.921875 93 C95.91687372730553 93, 28.911872454611057 93, -162.921875 93 M162.921875 93 C42.72682245829732 93, -77.46823008340536 93, -162.921875 93 M-162.921875 93 C-162.921875 33.38395515551071, -162.921875 -26.232089688978576, -162.921875 -93 M-162.921875 93 C-162.921875 29.815367677785993, -162.921875 -33.369264644428014, -162.921875 -93" stroke="#999" stroke-width="1.3" fill="none" stroke-dasharray="0 0" style=""/></g><g class="annotation-group text" transform="translate(0, -73)"/><g class="label-group text" transform="translate(-71.03125, -73)"><g class="label" style="font-weight: bolder" transform="translate(0,-8.5)"><g><rect class="background" style="stroke: none"/><text y="-10.1" style=""><tspan class="text-outer-tspan row" x="0" y="-0.1em" dy="1.1em" font-weight=""><tspan font-style="normal" class="text-inner-tspan" font-weight="">TeammateRuntime</tspan></tspan></text></g></g></g><g class="members-group text" transform="translate(-150.921875, -32)"><g class="label" style="" transform="translate(0,-8.5)"><g><rect class="background" style="stroke: none"/><text y="-10.1" style=""><tspan class="text-outer-tspan row" x="0" y="-0.1em" dy="1.1em"><tspan font-style="normal" class="text-inner-tspan" font-weight="normal">+name</tspan><tspan font-style="normal" class="text-inner-tspan" font-weight="normal"> 队友名</tspan></tspan></text></g></g><g class="label" style="" transform="translate(0,11.5)"><g><rect class="background" style="stroke: none"/><text y="-10.1" style=""><tspan class="text-outer-tspan row" x="0" y="-0.1em" dy="1.1em"><tspan font-style="normal" class="text-inner-tspan" font-weight="normal">+role</tspan><tspan font-style="normal" class="text-inner-tspan" font-weight="normal"> 队友角色</tspan></tspan></text></g></g><g class="label" style="" transform="translate(0,31.5)"><g><rect class="background" style="stroke: none"/><text y="-10.1" style=""><tspan class="text-outer-tspan row" x="0" y="-0.1em" dy="1.1em"><tspan font-style="normal" class="text-inner-tspan" font-weight="normal">+prompt</tspan><tspan font-style="normal" class="text-inner-tspan" font-weight="normal"> 初始任务</tspan></tspan></text></g></g><g class="label" style="" transform="translate(0,51.5)"><g><rect class="background" style="stroke: none"/><text y="-10.1" style=""><tspan class="text-outer-tspan row" x="0" y="-0.1em" dy="1.1em"><tspan font-style="normal" class="text-inner-tspan" font-weight="normal">+messages</tspan><tspan font-style="normal" class="text-inner-tspan" font-weight="normal"> 独立上下文</tspan></tspan></text></g></g><g class="label" style="" transform="translate(0,71.5)"><g><rect class="background" style="stroke: none"/><text y="-10.1" style=""><tspan class="text-outer-tspan row" x="0" y="-0.1em" dy="1.1em"><tspan font-style="normal" class="text-inner-tspan" font-weight="normal">+status</tspan><tspan font-style="normal" class="text-inner-tspan" font-weight="normal"> running/completed/failed</tspan></tspan></text></g></g></g><g class="methods-group text" transform="translate(-150.921875, 89)"/><g class="divider" style=""><path d="M-162.921875 -52 C-46.13951881194849 -51.99964160013446, 70.64283737610302 -51.99928320026891, 162.921875 -51.999 M-162.921875 -52 C-46.38205576590006 -51.9996423444696, 70.15776346819987 -51.9992846889392, 162.921875 -51.999" stroke="#999" stroke-width="1.3" fill="none" stroke-dasharray="0 0" style=""/></g><g class="divider" style=""><path d="M-162.921875 69 C-83.33769280028352 69.00024424032132, -3.75351060056704 69.00048848064264, 162.921875 69.001 M-162.921875 69 C-72.1404486927888 69.00027860416628, 18.64097761442241 69.00055720833257, 162.921875 69.001" stroke="#999" stroke-width="1.3" fill="none" stroke-dasharray="0 0" style=""/></g></g><g class="node default" id="my-svg-classId-TeamMessage-2" data-look="classic" transform="translate(353.189453125, 789)"><g class="basic label-container outer-path"><path d="M-134.791015625 -93 L134.791015625 -93 L134.791015625 93 L-134.791015625 93" stroke="none" stroke-width="0" fill="#eee" style=""/><path d="M-134.791015625 -93 C-78.08696620804693 -93, -21.382916791093862 -93, 134.791015625 -93 M-134.791015625 -93 C-37.777152296633446 -93, 59.23671103173311 -93, 134.791015625 -93 M134.791015625 -93 C134.791015625 -46.75648383666358, 134.791015625 -0.5129676733271538, 134.791015625 93 M134.791015625 -93 C134.791015625 -24.915684327949364, 134.791015625 43.16863134410127, 134.791015625 93 M134.791015625 93 C55.121915112640195 93, -24.54718539971961 93, -134.791015625 93 M134.791015625 93 C37.35072554540912 93, -60.08956453418176 93, -134.791015625 93 M-134.791015625 93 C-134.791015625 26.378489696876784, -134.791015625 -40.24302060624643, -134.791015625 -93 M-134.791015625 93 C-134.791015625 31.8857826570149, -134.791015625 -29.2284346859702, -134.791015625 -93" stroke="#999" stroke-width="1.3" fill="none" stroke-dasharray="0 0" style=""/></g><g class="annotation-group text" transform="translate(0, -73)"/><g class="label-group text" transform="translate(-54.15234375, -73)"><g class="label" style="font-weight: bolder" transform="translate(0,-8.5)"><g><rect class="background" style="stroke: none"/><text y="-10.1" style=""><tspan class="text-outer-tspan row" x="0" y="-0.1em" dy="1.1em" font-weight=""><tspan font-style="normal" class="text-inner-tspan" font-weight="">TeamMessage</tspan></tspan></text></g></g></g><g class="members-group text" transform="translate(-122.791015625, -32)"><g class="label" style="" transform="translate(0,-8.5)"><g><rect class="background" style="stroke: none"/><text y="-10.1" style=""><tspan class="text-outer-tspan row" x="0" y="-0.1em" dy="1.1em"><tspan font-style="normal" class="text-inner-tspan" font-weight="normal">+from</tspan><tspan font-style="normal" class="text-inner-tspan" font-weight="normal"> 发件人</tspan></tspan></text></g></g><g class="label" style="" transform="translate(0,11.5)"><g><rect class="background" style="stroke: none"/><text y="-10.1" style=""><tspan class="text-outer-tspan row" x="0" y="-0.1em" dy="1.1em"><tspan font-style="normal" class="text-inner-tspan" font-weight="normal">+to</tspan><tspan font-style="normal" class="text-inner-tspan" font-weight="normal"> 收件人</tspan></tspan></text></g></g><g class="label" style="" transform="translate(0,31.5)"><g><rect class="background" style="stroke: none"/><text y="-10.1" style=""><tspan class="text-outer-tspan row" x="0" y="-0.1em" dy="1.1em"><tspan font-style="normal" class="text-inner-tspan" font-weight="normal">+type</tspan><tspan font-style="normal" class="text-inner-tspan" font-weight="normal"> message/result/error</tspan></tspan></text></g></g><g class="label" style="" transform="translate(0,51.5)"><g><rect class="background" style="stroke: none"/><text y="-10.1" style=""><tspan class="text-outer-tspan row" x="0" y="-0.1em" dy="1.1em"><tspan font-style="normal" class="text-inner-tspan" font-weight="normal">+content</tspan><tspan font-style="normal" class="text-inner-tspan" font-weight="normal"> 正文</tspan></tspan></text></g></g><g class="label" style="" transform="translate(0,71.5)"><g><rect class="background" style="stroke: none"/><text y="-10.1" style=""><tspan class="text-outer-tspan row" x="0" y="-0.1em" dy="1.1em"><tspan font-style="normal" class="text-inner-tspan" font-weight="normal">+createdAt</tspan><tspan font-style="normal" class="text-inner-tspan" font-weight="normal"> 时间</tspan></tspan></text></g></g></g><g class="methods-group text" transform="translate(-122.791015625, 89)"/><g class="divider" style=""><path d="M-134.791015625 -52 C-71.58775104391074 -51.99976555090008, -8.38448646282147 -51.99953110180016, 134.791015625 -51.999 M-134.791015625 -52 C-46.32900392017635 -51.99967185494042, 42.133007784647305 -51.999343709880854, 134.791015625 -51.999" stroke="#999" stroke-width="1.3" fill="none" stroke-dasharray="0 0" style=""/></g><g class="divider" style=""><path d="M-134.791015625 69 C-43.69657301079907 69.00033790992, 47.39786960340186 69.00067581984001, 134.791015625 69.001 M-134.791015625 69 C-79.24686834755015 69.00020603801752, -23.702721070100296 69.00041207603503, 134.791015625 69.001" stroke="#999" stroke-width="1.3" fill="none" stroke-dasharray="0 0" style=""/></g></g><g class="node default" id="my-svg-classId-ToolPool-3" data-look="classic" transform="translate(234.552734375, 71)"><g class="basic label-container outer-path"><path d="M-105.953125 -63 L105.953125 -63 L105.953125 63 L-105.953125 63" stroke="none" stroke-width="0" fill="#eee" style=""/><path d="M-105.953125 -63 C-38.3334132168127 -63, 29.286298566374597 -63, 105.953125 -63 M-105.953125 -63 C-63.14379329337322 -63, -20.334461586746443 -63, 105.953125 -63 M105.953125 -63 C105.953125 -31.331808360673666, 105.953125 0.3363832786526686, 105.953125 63 M105.953125 -63 C105.953125 -29.98556342077397, 105.953125 3.0288731584520576, 105.953125 63 M105.953125 63 C28.83266347275044 63, -48.28779805449912 63, -105.953125 63 M105.953125 63 C47.93300751519324 63, -10.087109969613522 63, -105.953125 63 M-105.953125 63 C-105.953125 33.1464496166614, -105.953125 3.2928992333227995, -105.953125 -63 M-105.953125 63 C-105.953125 32.421100098729255, -105.953125 1.8422001974585172, -105.953125 -63" stroke="#999" stroke-width="1.3" fill="none" stroke-dasharray="0 0" style=""/></g><g class="annotation-group text" transform="translate(0, -43)"/><g class="label-group text" transform="translate(-33.625, -43)"><g class="label" style="font-weight: bolder" transform="translate(0,-8.5)"><g><rect class="background" style="stroke: none"/><text y="-10.1" style=""><tspan class="text-outer-tspan row" x="0" y="-0.1em" dy="1.1em" font-weight=""><tspan font-style="normal" class="text-inner-tspan" font-weight="">ToolPool</tspan></tspan></text></g></g></g><g class="members-group text" transform="translate(-93.953125, -2)"><g class="label" style="" transform="translate(0,-8.5)"><g><rect class="background" style="stroke: none"/><text y="-10.1" style=""><tspan class="text-outer-tspan row" x="0" y="-0.1em" dy="1.1em"><tspan font-style="normal" class="text-inner-tspan" font-weight="normal">+Lead:</tspan><tspan font-style="normal" class="text-inner-tspan" font-weight="normal"> 20</tspan><tspan font-style="normal" class="text-inner-tspan" font-weight="normal"> 个工具</tspan></tspan></text></g></g><g class="label" style="" transform="translate(0,11.5)"><g><rect class="background" style="stroke: none"/><text y="-10.1" style=""><tspan class="text-outer-tspan row" x="0" y="-0.1em" dy="1.1em"><tspan font-style="normal" class="text-inner-tspan" font-weight="normal">+Teammate:</tspan><tspan font-style="normal" class="text-inner-tspan" font-weight="normal"> 4</tspan><tspan font-style="normal" class="text-inner-tspan" font-weight="normal"> 个工具</tspan></tspan></text></g></g></g><g class="methods-group text" transform="translate(-93.953125, 59)"/><g class="divider" style=""><path d="M-105.953125 -22 C-34.68198920802773 -21.999663666664894, 36.58914658394454 -21.99932733332979, 105.953125 -21.999 M-105.953125 -22 C-52.70472582767323 -21.99974871718426, 0.5436733446535413 -21.999497434368525, 105.953125 -21.999" stroke="#999" stroke-width="1.3" fill="none" stroke-dasharray="0 0" style=""/></g><g class="divider" style=""><path d="M-105.953125 39 C-36.87736322077018 39.00032597321589, 32.198398558459644 39.00065194643177, 105.953125 39.001 M-105.953125 39 C-21.889984903476247 39.00039669967307, 62.173155193047506 39.000793399346136, 105.953125 39.001" stroke="#999" stroke-width="1.3" fill="none" stroke-dasharray="0 0" style=""/></g></g></g></g></g><defs><filter id="my-svg-drop-shadow" height="130%" width="130%"><feDropShadow dx="4" dy="4" stdDeviation="0" flood-opacity="0.06" flood-color="#000000"/></filter></defs><defs><filter id="my-svg-drop-shadow-small" height="150%" width="150%"><feDropShadow dx="2" dy="2" stdDeviation="0" flood-opacity="0.06" flood-color="#000000"/></filter></defs><linearGradient id="my-svg-gradient" gradientUnits="objectBoundingBox" x1="0%" y1="0%" x2="100%" y2="0%"><stop offset="0%" stop-color="hsl(0, 0%, 83.3333333333%)" stop-opacity="1"/><stop offset="100%" stop-color="hsl(0, 0%, 88.9215686275%)" stop-opacity="1"/></linearGradient></svg>