<svg width="1174.2890625" height="1213.199951171875" id="my-svg" xmlns="http://www.w3.org/2000/svg" xmlns:xlink="http://www.w3.org/1999/xlink" class="flowchart" style="max-width: 1174.29px; background-color: white;" viewBox="0 0 1174.2890625 1213.199951171875" role="graphics-document document" aria-roledescription="flowchart-v2"><style>#my-svg{font-family:"trebuchet ms",verdana,arial,sans-serif;font-size:16px;fill:#000000;}@keyframes edge-animation-frame{from{stroke-dashoffset:0;}}@keyframes dash{to{stroke-dashoffset:0;}}#my-svg .edge-animation-slow{stroke-dasharray:9,5!important;stroke-dashoffset:900;animation:dash 50s linear infinite;stroke-linecap:round;}#my-svg .edge-animation-fast{stroke-dasharray:9,5!important;stroke-dashoffset:900;animation:dash 20s linear infinite;stroke-linecap:round;}#my-svg .error-icon{fill:#552222;}#my-svg .error-text{fill:#552222;stroke:#552222;}#my-svg .edge-thickness-normal{stroke-width:1px;}#my-svg .edge-thickness-thick{stroke-width:3.5px;}#my-svg .edge-pattern-solid{stroke-dasharray:0;}#my-svg .edge-thickness-invisible{stroke-width:0;fill:none;}#my-svg .edge-pattern-dashed{stroke-dasharray:3;}#my-svg .edge-pattern-dotted{stroke-dasharray:2;}#my-svg .marker{fill:#666;stroke:#666;}#my-svg .marker.cross{stroke:#666;}#my-svg svg{font-family:"trebuchet ms",verdana,arial,sans-serif;font-size:16px;}#my-svg p{margin:0;}#my-svg .label{font-family:"trebuchet ms",verdana,arial,sans-serif;color:#000000;}#my-svg .cluster-label text{fill:#333;}#my-svg .cluster-label span{color:#333;}#my-svg .cluster-label span p{background-color:transparent;}#my-svg .label text,#my-svg span{fill:#000000;color:#000000;}#my-svg .node rect,#my-svg .node circle,#my-svg .node ellipse,#my-svg .node polygon,#my-svg .node path{fill:#eee;stroke:#999;stroke-width:1px;}#my-svg .rough-node .label text,#my-svg .node .label text,#my-svg .image-shape .label,#my-svg .icon-shape .label{text-anchor:middle;}#my-svg .node .katex path{fill:#000;stroke:#000;stroke-width:1px;}#my-svg .rough-node .label,#my-svg .node .label,#my-svg .image-shape .label,#my-svg .icon-shape .label{text-align:center;}#my-svg .node.clickable{cursor:pointer;}#my-svg .root .anchor path{fill:#666!important;stroke-width:0;stroke:#666;}#my-svg .arrowheadPath{fill:#333333;}#my-svg .edgePath .path{stroke:#666;stroke-width:1px;}#my-svg .flowchart-link{stroke:#666;fill:none;}#my-svg .edgeLabel{background-color:white;text-align:center;}#my-svg .edgeLabel p{background-color:white;}#my-svg .edgeLabel rect{opacity:0.5;background-color:white;fill:white;}#my-svg .labelBkg{background-color:rgba(255, 255, 255, 0.5);}#my-svg .cluster rect{fill:hsl(0, 0%, 98.9215686275%);stroke:#707070;stroke-width:1px;}#my-svg .cluster text{fill:#333;}#my-svg .cluster span{color:#333;}#my-svg div.mermaidTooltip{position:absolute;text-align:center;max-width:200px;padding:2px;font-family:"trebuchet ms",verdana,arial,sans-serif;font-size:12px;background:hsl(-160, 0%, 93.3333333333%);border:1px solid #707070;border-radius:2px;pointer-events:none;z-index:100;}#my-svg .flowchartTitleText{text-anchor:middle;font-size:18px;fill:#000000;}#my-svg rect.text{fill:none;stroke-width:0;}#my-svg .icon-shape,#my-svg .image-shape{background-color:white;text-align:center;}#my-svg .icon-shape p,#my-svg .image-shape p{background-color:white;padding:2px;}#my-svg .icon-shape .label rect,#my-svg .image-shape .label rect{opacity:0.5;background-color:white;fill:white;}#my-svg .label-icon{display:inline-block;height:1em;overflow:visible;vertical-align:-0.125em;}#my-svg .node .label-icon path{fill:currentColor;stroke:revert;stroke-width:revert;}#my-svg .node .neo-node{stroke:#999;}#my-svg [data-look="neo"].node rect,#my-svg [data-look="neo"].cluster rect,#my-svg [data-look="neo"].node polygon{stroke:url(#my-svg-gradient);filter:drop-shadow( 1px 2px 2px rgba(185,185,185,1));}#my-svg [data-look="neo"].swimlane.cluster rect{filter:none;}#my-svg [data-look="neo"].node path{stroke:url(#my-svg-gradient);stroke-width:1px;}#my-svg [data-look="neo"].node .outer-path{filter:drop-shadow( 1px 2px 2px rgba(185,185,185,1));}#my-svg [data-look="neo"].node .neo-line path{stroke:#999;filter:none;}#my-svg [data-look="neo"].node circle{stroke:url(#my-svg-gradient);filter:drop-shadow( 1px 2px 2px rgba(185,185,185,1));}#my-svg [data-look="neo"].node circle .state-start{fill:#000000;}#my-svg [data-look="neo"].icon-shape .icon{fill:url(#my-svg-gradient);filter:drop-shadow( 1px 2px 2px rgba(185,185,185,1));}#my-svg [data-look="neo"].icon-shape .icon-neo path{stroke:url(#my-svg-gradient);filter:drop-shadow( 1px 2px 2px rgba(185,185,185,1));}#my-svg :root{--mermaid-font-family:"trebuchet ms",verdana,arial,sans-serif;}</style><g><marker id="my-svg_flowchart-v2-pointEnd" class="marker flowchart-v2" viewBox="0 0 10 10" refX="5" refY="5" markerUnits="userSpaceOnUse" markerWidth="8" markerHeight="8" orient="auto"><path d="M 0 0 L 10 5 L 0 10 z" class="arrowMarkerPath" style="stroke-width: 1; stroke-dasharray: 1, 0;"/></marker><marker id="my-svg_flowchart-v2-pointStart" class="marker flowchart-v2" viewBox="0 0 10 10" refX="4.5" refY="5" markerUnits="userSpaceOnUse" markerWidth="8" markerHeight="8" orient="auto"><path d="M 0 5 L 10 10 L 10 0 z" class="arrowMarkerPath" style="stroke-width: 1; stroke-dasharray: 1, 0;"/></marker><marker id="my-svg_flowchart-v2-pointEnd-margin" class="marker flowchart-v2" viewBox="0 0 11.5 14" refX="11.5" refY="7" markerUnits="userSpaceOnUse" markerWidth="10.5" markerHeight="14" orient="auto"><path d="M 0 0 L 11.5 7 L 0 14 z" class="arrowMarkerPath" style="stroke-width: 0; stroke-dasharray: 1, 0;"/></marker><marker id="my-svg_flowchart-v2-pointStart-margin" class="marker flowchart-v2" viewBox="0 0 11.5 14" refX="1" refY="7" markerUnits="userSpaceOnUse" markerWidth="11.5" markerHeight="14" orient="auto"><polygon points="0,7 11.5,14 11.5,0" class="arrowMarkerPath" style="stroke-width: 0; stroke-dasharray: 1, 0;"/></marker><marker id="my-svg_flowchart-v2-circleEnd" class="marker flowchart-v2" viewBox="0 0 10 10" refX="11" refY="5" markerUnits="userSpaceOnUse" markerWidth="11" markerHeight="11" orient="auto"><circle cx="5" cy="5" r="5" class="arrowMarkerPath" style="stroke-width: 1; stroke-dasharray: 1, 0;"/></marker><marker id="my-svg_flowchart-v2-circleStart" class="marker flowchart-v2" viewBox="0 0 10 10" refX="-1" refY="5" markerUnits="userSpaceOnUse" markerWidth="11" markerHeight="11" orient="auto"><circle cx="5" cy="5" r="5" class="arrowMarkerPath" style="stroke-width: 1; stroke-dasharray: 1, 0;"/></marker><marker id="my-svg_flowchart-v2-circleEnd-margin" class="marker flowchart-v2" viewBox="0 0 10 10" refY="5" refX="12.25" markerUnits="userSpaceOnUse" markerWidth="14" markerHeight="14" orient="auto"><circle cx="5" cy="5" r="5" class="arrowMarkerPath" style="stroke-width: 0; stroke-dasharray: 1, 0;"/></marker><marker id="my-svg_flowchart-v2-circleStart-margin" class="marker flowchart-v2" viewBox="0 0 10 10" refX="-2" refY="5" markerUnits="userSpaceOnUse" markerWidth="14" markerHeight="14" orient="auto"><circle cx="5" cy="5" r="5" class="arrowMarkerPath" style="stroke-width: 0; stroke-dasharray: 1, 0;"/></marker><marker id="my-svg_flowchart-v2-crossEnd" class="marker cross flowchart-v2" viewBox="0 0 11 11" refX="12" refY="5.2" markerUnits="userSpaceOnUse" markerWidth="11" markerHeight="11" orient="auto"><path d="M 1,1 l 9,9 M 10,1 l -9,9" class="arrowMarkerPath" style="stroke-width: 2; stroke-dasharray: 1, 0;"/></marker><marker id="my-svg_flowchart-v2-crossStart" class="marker cross flowchart-v2" viewBox="0 0 11 11" refX="-1" refY="5.2" markerUnits="userSpaceOnUse" markerWidth="11" markerHeight="11" orient="auto"><path d="M 1,1 l 9,9 M 10,1 l -9,9" class="arrowMarkerPath" style="stroke-width: 2; stroke-dasharray: 1, 0;"/></marker><marker id="my-svg_flowchart-v2-crossEnd-margin" class="marker cross flowchart-v2" viewBox="0 0 15 15" refX="17.7" refY="7.5" markerUnits="userSpaceOnUse" markerWidth="12" markerHeight="12" orient="auto"><path d="M 1,1 L 14,14 M 1,14 L 14,1" class="arrowMarkerPath" style="stroke-width: 2.5;"/></marker><marker id="my-svg_flowchart-v2-crossStart-margin" class="marker cross flowchart-v2" viewBox="0 0 15 15" refX="-3.5" refY="7.5" markerUnits="userSpaceOnUse" markerWidth="12" markerHeight="12" orient="auto"><path d="M 1,1 L 14,14 M 1,14 L 14,1" class="arrowMarkerPath" style="stroke-width: 2.5; stroke-dasharray: 1, 0;"/></marker><g class="root"><g class="clusters"/><g class="edgePaths"><path d="M682.289,40.5L682.206,44.583C682.122,48.667,681.956,56.833,681.872,64.417C681.789,72,681.789,79,681.789,82.5L681.789,86" id="my-svg-L_Start_Request_0" class="edge-thickness-normal edge-pattern-solid edge-thickness-normal edge-pattern-solid flowchart-link" style=";" data-edge="true" data-et="edge" data-id="L_Start_Request_0" data-points="W3sieCI6NjgyLjI4OTA2MjUsInkiOjQwLjV9LHsieCI6NjgxLjc4OTA2MjUsInkiOjY1fSx7IngiOjY4MS43ODkwNjI1LCJ5Ijo5MH1d" data-look="classic" marker-end="url(#my-svg_flowchart-v2-pointEnd)"/><path d="M681.789,137L681.789,141.167C681.789,145.333,681.789,153.667,681.789,161.333C681.789,169,681.789,176,681.789,179.5L681.789,183" id="my-svg-L_Request_Check_0" class="edge-thickness-normal edge-pattern-solid edge-thickness-normal edge-pattern-solid flowchart-link" style=";" data-edge="true" data-et="edge" data-id="L_Request_Check_0" data-points="W3sieCI6NjgxLjc4OTA2MjUsInkiOjEzN30seyJ4Ijo2ODEuNzg5MDYyNSwieSI6MTYyfSx7IngiOjY4MS43ODkwNjI1LCJ5IjoxODd9XQ==" data-look="classic" marker-end="url(#my-svg_flowchart-v2-pointEnd)"/><path d="M615.601,279.812L531.334,296.76C447.067,313.708,278.534,347.604,194.267,376.335C110,405.067,110,428.633,110,440.417L110,452.2" id="my-svg-L_Check_Done_0" class="edge-thickness-normal edge-pattern-solid edge-thickness-normal edge-pattern-solid flowchart-link" style=";" data-edge="true" data-et="edge" data-id="L_Check_Done_0" data-points="W3sieCI6NjE1LjYwMTAxMDA4MjE1ODgsInkiOjI3OS44MTE5NDc1ODIxNTg4NH0seyJ4IjoxMTAsInkiOjM4MS41fSx7IngiOjExMCwieSI6NDU2LjIwMDAwMDc2MjkzOTQ1fV0=" data-look="classic" marker-end="url(#my-svg_flowchart-v2-pointEnd)"/><path d="M622.023,286.234L573.936,302.112C525.849,317.989,429.674,349.745,381.587,370.872C333.5,392,333.5,402.5,333.5,407.75L333.5,413" id="my-svg-L_Check_L1_0" class="edge-thickness-normal edge-pattern-solid edge-thickness-normal edge-pattern-solid flowchart-link" style=";" data-edge="true" data-et="edge" data-id="L_Check_L1_0" data-points="W3sieCI6NjIyLjAyMjk2MjQzNDIzMzgsInkiOjI4Ni4yMzM4OTk5MzQyMzM4fSx7IngiOjMzMy41LCJ5IjozODEuNX0seyJ4IjozMzMuNSwieSI6NDE3fV0=" data-look="classic" marker-end="url(#my-svg_flowchart-v2-pointEnd)"/><path d="M296.974,523.474L284.436,535.478C271.899,547.482,246.825,571.491,234.287,596.612C221.75,621.733,221.75,647.967,221.75,661.083L221.75,674.2" id="my-svg-L_L1_L2_0" class="edge-thickness-normal edge-pattern-solid edge-thickness-normal edge-pattern-solid flowchart-link" style=";" data-edge="true" data-et="edge" data-id="L_L1_L2_0" data-points="W3sieCI6Mjk2Ljk3MzcxNDI4NTcxNDI3LCJ5Ijo1MjMuNDczNzE0Mjg1NzE0M30seyJ4IjoyMjEuNzUsInkiOjU5NS41fSx7IngiOjIyMS43NSwieSI6Njc4LjIwMDAwMDc2MjkzOTV9XQ==" data-look="classic" marker-end="url(#my-svg_flowchart-v2-pointEnd)"/><path d="M373.602,519.898L389.696,532.498C405.79,545.098,437.977,570.299,454.07,588.15C470.164,606,470.164,616.5,470.164,621.75L470.164,627" id="my-svg-L_L1_L3_0" class="edge-thickness-normal edge-pattern-solid edge-thickness-normal edge-pattern-solid flowchart-link" style=";" data-edge="true" data-et="edge" data-id="L_L1_L3_0" data-points="W3sieCI6MzczLjYwMjI2MzYxODU4MzUsInkiOjUxOS44OTc3MzYzODE0MTY1fSx7IngiOjQ3MC4xNjQwNjI1LCJ5Ijo1OTUuNX0seyJ4Ijo0NzAuMTY0MDYyNSwieSI6NjMxfV0=" data-look="classic" marker-end="url(#my-svg_flowchart-v2-pointEnd)"/><path d="M432.339,752.175L421.248,764.396C410.156,776.617,387.972,801.058,376.881,835.113C365.789,869.167,365.789,912.833,365.789,956.5C365.789,1000.167,365.789,1043.833,408.245,1075.81C450.701,1107.786,535.612,1128.072,578.068,1138.215L620.524,1148.358" id="my-svg-L_L3_Stop_0" class="edge-thickness-normal edge-pattern-solid edge-thickness-normal edge-pattern-solid flowchart-link" style=";" data-edge="true" data-et="edge" data-id="L_L3_Stop_0" data-points="W3sieCI6NDMyLjMzOTI3NjE3NTIxMzcsInkiOjc1Mi4xNzUyMTM2NzUyMTM2fSx7IngiOjM2NS43ODkwNjI1LCJ5Ijo4MjUuNX0seyJ4IjozNjUuNzg5MDYyNSwieSI6OTU2LjV9LHsieCI6MzY1Ljc4OTA2MjUsInkiOjEwODcuNX0seyJ4Ijo2MjQuNDE0MDYyNSwieSI6MTE0OS4yODc2NzkwODEwNzQ3fV0=" data-look="classic" marker-end="url(#my-svg_flowchart-v2-pointEnd)"/><path d="M500.312,759.852L506.996,770.794C513.679,781.735,527.047,803.617,533.73,819.809C540.414,836,540.414,846.5,540.414,851.75L540.414,857" id="my-svg-L_L3_L4_0" class="edge-thickness-normal edge-pattern-solid edge-thickness-normal edge-pattern-solid flowchart-link" style=";" data-edge="true" data-et="edge" data-id="L_L3_L4_0" data-points="W3sieCI6NTAwLjMxMTgzNTc3OTM1MjI0LCJ5Ijo3NTkuODUyMjI2NzIwNjQ3OH0seyJ4Ijo1NDAuNDE0MDYyNSwieSI6ODI1LjV9LHsieCI6NTQwLjQxNDA2MjUsInkiOjg2MX1d" data-look="classic" marker-end="url(#my-svg_flowchart-v2-pointEnd)"/><path d="M501.683,1013.269L493.243,1025.641C484.802,1038.013,467.92,1062.756,426.29,1084.176C384.659,1105.595,318.279,1123.69,285.088,1132.738L251.898,1141.785" id="my-svg-L_L4_L5_0" class="edge-thickness-normal edge-pattern-solid edge-thickness-normal edge-pattern-solid flowchart-link" style=";" data-edge="true" data-et="edge" data-id="L_L4_L5_0" data-points="W3sieCI6NTAxLjY4MzIwNjAwNTM4ODU3LCJ5IjoxMDEzLjI2OTE0MzUwNTM4ODZ9LHsieCI6NDUxLjAzOTA2MjUsInkiOjEwODcuNX0seyJ4IjoyNDguMDM5MDYyNSwieSI6MTE0Mi44MzczNjU0NDU3MTczfV0=" data-look="classic" marker-end="url(#my-svg_flowchart-v2-pointEnd)"/><path d="M578.919,1013.495L587.251,1025.83C595.584,1038.164,612.249,1062.832,626.825,1083.483C641.4,1104.134,653.886,1120.767,660.129,1129.084L666.372,1137.401" id="my-svg-L_L4_Stop_0" class="edge-thickness-normal edge-pattern-solid edge-thickness-normal edge-pattern-solid flowchart-link" style=";" data-edge="true" data-et="edge" data-id="L_L4_Stop_0" data-points="W3sieCI6NTc4LjkxODYxODMwODY1NiwieSI6MTAxMy40OTU0NDQxOTEzNDR9LHsieCI6NjI4LjkxNDA2MjUsInkiOjEwODcuNX0seyJ4Ijo2NjguNzczNzIyNzIzMDE1MywieSI6MTE0MC41OTk5OTg0NzQxMjF9XQ==" data-look="classic" marker-end="url(#my-svg_flowchart-v2-pointEnd)"/><path d="M716.363,311.426L725.35,323.105C734.338,334.784,752.314,358.142,761.301,387.654C770.289,417.167,770.289,452.833,770.289,488.5C770.289,524.167,770.289,559.833,770.289,596.833C770.289,633.833,770.289,672.167,770.289,710.5C770.289,748.833,770.289,787.167,770.289,815.583C770.289,844,770.289,862.5,770.289,871.75L770.289,881" id="my-svg-L_Check_C1_0" class="edge-thickness-normal edge-pattern-solid edge-thickness-normal edge-pattern-solid flowchart-link" style=";" data-edge="true" data-et="edge" data-id="L_Check_C1_0" data-points="W3sieCI6NzE2LjM2Mjc3MjU3MzcxMDEsInkiOjMxMS40MjYyODk5MjYyODk5NH0seyJ4Ijo3NzAuMjg5MDYyNSwieSI6MzgxLjV9LHsieCI6NzcwLjI4OTA2MjUsInkiOjQ4OC41fSx7IngiOjc3MC4yODkwNjI1LCJ5Ijo1OTUuNX0seyJ4Ijo3NzAuMjg5MDYyNSwieSI6NzEwLjV9LHsieCI6NzcwLjI4OTA2MjUsInkiOjgyNS41fSx7IngiOjc3MC4yODkwNjI1LCJ5Ijo4ODV9XQ==" data-look="classic" marker-end="url(#my-svg_flowchart-v2-pointEnd)"/><path d="M739.097,996.808L727.4,1011.923C715.703,1027.038,692.308,1057.269,649.692,1080.84C607.075,1104.41,545.236,1121.32,514.317,1129.775L483.397,1138.229" id="my-svg-L_C1_C2_0" class="edge-thickness-normal edge-pattern-solid edge-thickness-normal edge-pattern-solid flowchart-link" style=";" data-edge="true" data-et="edge" data-id="L_C1_C2_0" data-points="W3sieCI6NzM5LjA5Njc1NDgwNzY5MjMsInkiOjk5Ni44MDc2OTIzMDc2OTIzfSx7IngiOjY2OC45MTQwNjI1LCJ5IjoxMDg3LjV9LHsieCI6NDc5LjUzOTA2MjUsInkiOjExMzkuMjg0NDcwMTg2NjU0N31d" data-look="classic" marker-end="url(#my-svg_flowchart-v2-pointEnd)"/><path d="M799.117,999.172L809.062,1013.893C819.008,1028.615,838.898,1058.057,829.538,1081.358C820.177,1104.659,781.564,1121.817,762.258,1130.396L742.952,1138.976" id="my-svg-L_C1_Stop_0" class="edge-thickness-normal edge-pattern-solid edge-thickness-normal edge-pattern-solid flowchart-link" style=";" data-edge="true" data-et="edge" data-id="L_C1_Stop_0" data-points="W3sieCI6Nzk5LjExNzA4MDcyMzIzNDYsInkiOjk5OS4xNzE5ODE3NzY3NjU0fSx7IngiOjg1OC43ODkwNjI1LCJ5IjoxMDg3LjV9LHsieCI6NzM5LjI5NjczMzI2NjIyMTMsInkiOjExNDAuNTk5OTk4NDc0MTIxfV0=" data-look="classic" marker-end="url(#my-svg_flowchart-v2-pointEnd)"/><path d="M740.272,287.517L783.858,303.181C827.444,318.845,914.617,350.172,958.203,383.67C1001.789,417.167,1001.789,452.833,1001.789,488.5C1001.789,524.167,1001.789,559.833,1001.789,596.833C1001.789,633.833,1001.789,672.167,1001.789,710.5C1001.789,748.833,1001.789,787.167,1001.789,811.583C1001.789,836,1001.789,846.5,1001.789,851.75L1001.789,857" id="my-svg-L_Check_R1_0" class="edge-thickness-normal edge-pattern-solid edge-thickness-normal edge-pattern-solid flowchart-link" style=";" data-edge="true" data-et="edge" data-id="L_Check_R1_0" data-points="W3sieCI6NzQwLjI3MTgyMTEyMDY4OTcsInkiOjI4Ny41MTcyNDEzNzkzMTAzNX0seyJ4IjoxMDAxLjc4OTA2MjUsInkiOjM4MS41fSx7IngiOjEwMDEuNzg5MDYyNSwieSI6NDg4LjV9LHsieCI6MTAwMS43ODkwNjI1LCJ5Ijo1OTUuNX0seyJ4IjoxMDAxLjc4OTA2MjUsInkiOjcxMC41fSx7IngiOjEwMDEuNzg5MDYyNSwieSI6ODI1LjV9LHsieCI6MTAwMS43ODkwNjI1LCJ5Ijo4NjF9XQ==" data-look="classic" marker-end="url(#my-svg_flowchart-v2-pointEnd)"/><path d="M989.14,1039.351L987.915,1047.376C986.69,1055.401,984.239,1071.45,989.103,1084.946C993.967,1098.442,1006.145,1109.384,1012.234,1114.855L1018.323,1120.327" id="my-svg-L_R1_R2_0" class="edge-thickness-normal edge-pattern-solid edge-thickness-normal edge-pattern-solid flowchart-link" style=";" data-edge="true" data-et="edge" data-id="L_R1_R2_0" data-points="W3sieCI6OTg5LjE0MDA1NTg3NzQ4MzQsInkiOjEwMzkuMzUwOTkzMzc3NDgzNX0seyJ4Ijo5ODEuNzg5MDYyNSwieSI6MTA4Ny41fSx7IngiOjEwMjEuMjk3ODc1Mjk3NDYzLCJ5IjoxMTIzfV0=" data-look="classic" marker-end="url(#my-svg_flowchart-v2-pointEnd)"/><path d="M1028.266,1025.523L1032.228,1035.853C1036.19,1046.182,1044.115,1066.841,998.125,1087.636C952.136,1108.43,852.232,1129.36,802.281,1139.825L752.329,1150.291" id="my-svg-L_R1_Stop_0" class="edge-thickness-normal edge-pattern-solid edge-thickness-normal edge-pattern-solid flowchart-link" style=";" data-edge="true" data-et="edge" data-id="L_R1_Stop_0" data-points="W3sieCI6MTAyOC4yNjU2MTQyMjQxMzc4LCJ5IjoxMDI1LjUyMzQ0ODI3NTg2MjJ9LHsieCI6MTA1Mi4wMzkwNjI1LCJ5IjoxMDg3LjV9LHsieCI6NzQ4LjQxNDA2MjUsInkiOjExNTEuMTEwNzMzNzc1NjAzNH1d" data-look="classic" marker-end="url(#my-svg_flowchart-v2-pointEnd)"/><path d="M745.122,282.667L809.65,299.139C874.178,315.611,1003.233,348.556,1067.761,382.861C1132.289,417.167,1132.289,452.833,1132.289,488.5C1132.289,524.167,1132.289,559.833,1132.289,596.833C1132.289,633.833,1132.289,672.167,1132.289,710.5C1132.289,748.833,1132.289,787.167,1132.289,828.167C1132.289,869.167,1132.289,912.833,1132.289,956.5C1132.289,1000.167,1132.289,1043.833,1068.967,1076.545C1005.645,1109.257,879.001,1131.014,815.678,1141.893L752.356,1152.771" id="my-svg-L_Check_Stop_0" class="edge-thickness-normal edge-pattern-solid edge-thickness-normal edge-pattern-solid flowchart-link" style=";" data-edge="true" data-et="edge" data-id="L_Check_Stop_0" data-points="W3sieCI6NzQ1LjEyMTk1Mzc0NjY4NDMsInkiOjI4Mi42NjcxMDg3NTMzMTU2M30seyJ4IjoxMTMyLjI4OTA2MjUsInkiOjM4MS41fSx7IngiOjExMzIuMjg5MDYyNSwieSI6NDg4LjV9LHsieCI6MTEzMi4yODkwNjI1LCJ5Ijo1OTUuNX0seyJ4IjoxMTMyLjI4OTA2MjUsInkiOjcxMC41fSx7IngiOjExMzIuMjg5MDYyNSwieSI6ODI1LjV9LHsieCI6MTEzMi4yODkwNjI1LCJ5Ijo5NTYuNX0seyJ4IjoxMTMyLjI4OTA2MjUsInkiOjEwODcuNX0seyJ4Ijo3NDguNDE0MDYyNSwieSI6MTE1My40NDg1ODI5MzA3NjE0fV0=" data-look="classic" marker-end="url(#my-svg_flowchart-v2-pointEnd)"/></g><g class="edgeLabels"><g class="edgeLabel"><g class="label" data-id="L_Start_Request_0" transform="translate(0, 0)"><text y="-10.1" text-anchor="middle"><tspan class="text-outer-tspan row" x="0" y="-0.1em" dy="1.1em" text-anchor="middle"/></text></g></g><g><rect class="background" style="stroke: none"/></g><g class="edgeLabel"><g class="label" data-id="L_Request_Check_0" transform="translate(0, 0)"><text y="-10.1" text-anchor="middle"><tspan class="text-outer-tspan row" x="0" y="-0.1em" dy="1.1em" text-anchor="middle"/></text></g></g><g><rect class="background" style="stroke: none"/></g><g class="edgeLabel" transform="translate(110, 381.5)"><g class="label" data-id="L_Check_Done_0" transform="translate(-0.046875, -10.5)"><g><rect class="background" style="" x="-52.6875" y="0" width="105.46875" height="21"/><text y="-10.1" text-anchor="middle" style=""><tspan class="text-outer-tspan row" x="0" y="-0.1em" dy="1.1em" text-anchor="middle"><tspan font-style="normal" class="text-inner-tspan" font-weight="normal">完整</tspan><tspan font-style="normal" class="text-inner-tspan" font-weight="normal"> message</tspan></tspan></text></g></g></g><g class="edgeLabel" transform="translate(333.5, 381.5)"><g class="label" data-id="L_Check_L1_0" transform="translate(0, -10.5)"><g><rect class="background" style="" x="-34" y="0" width="68" height="21"/><text y="-10.1" text-anchor="middle" style=""><tspan class="text-outer-tspan row" x="0" y="-0.1em" dy="1.1em" text-anchor="middle"><tspan font-style="normal" class="text-inner-tspan" font-weight="normal">输出截断</tspan></tspan></text></g></g></g><g class="edgeLabel" transform="translate(221.75, 595.5)"><g class="label" data-id="L_L1_L2_0" transform="translate(0, -10.5)"><g><rect class="background" style="" x="-10" y="0" width="20" height="21"/><text y="-10.1" text-anchor="middle" style=""><tspan class="text-outer-tspan row" x="0" y="-0.1em" dy="1.1em" text-anchor="middle"><tspan font-style="normal" class="text-inner-tspan" font-weight="normal">是</tspan></tspan></text></g></g></g><g class="edgeLabel" transform="translate(470.1640625, 595.5)"><g class="label" data-id="L_L1_L3_0" transform="translate(0, -10.5)"><g><rect class="background" style="" x="-10" y="0" width="20" height="21"/><text y="-10.1" text-anchor="middle" style=""><tspan class="text-outer-tspan row" x="0" y="-0.1em" dy="1.1em" text-anchor="middle"><tspan font-style="normal" class="text-inner-tspan" font-weight="normal">否</tspan></tspan></text></g></g></g><g class="edgeLabel" transform="translate(365.7890625, 956.5)"><g class="label" data-id="L_L3_Stop_0" transform="translate(0, -10.5)"><g><rect class="background" style="" x="-10" y="0" width="20" height="21"/><text y="-10.1" text-anchor="middle" style=""><tspan class="text-outer-tspan row" x="0" y="-0.1em" dy="1.1em" text-anchor="middle"><tspan font-style="normal" class="text-inner-tspan" font-weight="normal">否</tspan></tspan></text></g></g></g><g class="edgeLabel" transform="translate(540.4140625, 825.5)"><g class="label" data-id="L_L3_L4_0" transform="translate(0, -10.5)"><g><rect class="background" style="" x="-10" y="0" width="20" height="21"/><text y="-10.1" text-anchor="middle" style=""><tspan class="text-outer-tspan row" x="0" y="-0.1em" dy="1.1em" text-anchor="middle"><tspan font-style="normal" class="text-inner-tspan" font-weight="normal">是</tspan></tspan></text></g></g></g><g class="edgeLabel" transform="translate(392.88794, 1103.35187)"><g class="label" data-id="L_L4_L5_0" transform="translate(0, -10.5)"><g><rect class="background" style="" x="-10" y="0" width="20" height="21"/><text y="-10.1" text-anchor="middle" style=""><tspan class="text-outer-tspan row" x="0" y="-0.1em" dy="1.1em" text-anchor="middle"><tspan font-style="normal" class="text-inner-tspan" font-weight="normal">是</tspan></tspan></text></g></g></g><g class="edgeLabel" transform="translate(622.50048, 1078.00645)"><g class="label" data-id="L_L4_Stop_0" transform="translate(0, -10.5)"><g><rect class="background" style="" x="-10" y="0" width="20" height="21"/><text y="-10.1" text-anchor="middle" style=""><tspan class="text-outer-tspan row" x="0" y="-0.1em" dy="1.1em" text-anchor="middle"><tspan font-style="normal" class="text-inner-tspan" font-weight="normal">否</tspan></tspan></text></g></g></g><g class="edgeLabel" transform="translate(770.2890625, 595.5)"><g class="label" data-id="L_Check_C1_0" transform="translate(0, -10.5)"><g><rect class="background" style="" x="-42" y="0" width="84" height="21"/><text y="-10.1" text-anchor="middle" style=""><tspan class="text-outer-tspan row" x="0" y="-0.1em" dy="1.1em" text-anchor="middle"><tspan font-style="normal" class="text-inner-tspan" font-weight="normal">上下文超限</tspan></tspan></text></g></g></g><g class="edgeLabel" transform="translate(629.53429, 1098.26837)"><g class="label" data-id="L_C1_C2_0" transform="translate(0, -10.5)"><g><rect class="background" style="" x="-10" y="0" width="20" height="21"/><text y="-10.1" text-anchor="middle" style=""><tspan class="text-outer-tspan row" x="0" y="-0.1em" dy="1.1em" text-anchor="middle"><tspan font-style="normal" class="text-inner-tspan" font-weight="normal">否</tspan></tspan></text></g></g></g><g class="edgeLabel" transform="translate(847.74813, 1092.40637)"><g class="label" data-id="L_C1_Stop_0" transform="translate(0, -10.5)"><g><rect class="background" style="" x="-10" y="0" width="20" height="21"/><text y="-10.1" text-anchor="middle" style=""><tspan class="text-outer-tspan row" x="0" y="-0.1em" dy="1.1em" text-anchor="middle"><tspan font-style="normal" class="text-inner-tspan" font-weight="normal">是</tspan></tspan></text></g></g></g><g class="edgeLabel" transform="translate(1001.7890625, 595.5)"><g class="label" data-id="L_Check_R1_0" transform="translate(-0.05078125, -10.5)"><g><rect class="background" style="" x="-35.3671875" y="0" width="70.8359375" height="21"/><text y="-10.1" text-anchor="middle" style=""><tspan class="text-outer-tspan row" x="0" y="-0.1em" dy="1.1em" text-anchor="middle"><tspan font-style="normal" class="text-inner-tspan" font-weight="normal">429</tspan><tspan font-style="normal" class="text-inner-tspan" font-weight="normal"> /</tspan><tspan font-style="normal" class="text-inner-tspan" font-weight="normal"> 529</tspan></tspan></text></g></g></g><g class="edgeLabel" transform="translate(983.42848, 1088.97307)"><g class="label" data-id="L_R1_R2_0" transform="translate(0, -10.5)"><g><rect class="background" style="" x="-10" y="0" width="20" height="21"/><text y="-10.1" text-anchor="middle" style=""><tspan class="text-outer-tspan row" x="0" y="-0.1em" dy="1.1em" text-anchor="middle"><tspan font-style="normal" class="text-inner-tspan" font-weight="normal">是</tspan></tspan></text></g></g></g><g class="edgeLabel" transform="translate(1052.0390625, 1087.5)"><g class="label" data-id="L_R1_Stop_0" transform="translate(0, -10.5)"><g><rect class="background" style="" x="-10" y="0" width="20" height="21"/><text y="-10.1" text-anchor="middle" style=""><tspan class="text-outer-tspan row" x="0" y="-0.1em" dy="1.1em" text-anchor="middle"><tspan font-style="normal" class="text-inner-tspan" font-weight="normal">否</tspan></tspan></text></g></g></g><g class="edgeLabel" transform="translate(1132.2890625, 710.5)"><g class="label" data-id="L_Check_Stop_0" transform="translate(0, -10.5)"><g><rect class="background" style="" x="-34" y="0" width="68" height="21"/><text y="-10.1" text-anchor="middle" style=""><tspan class="text-outer-tspan row" x="0" y="-0.1em" dy="1.1em" text-anchor="middle"><tspan font-style="normal" class="text-inner-tspan" font-weight="normal">普通错误</tspan></tspan></text></g></g></g></g><g class="nodes"><g class="node default" id="my-svg-flowchart-Start-0" data-look="classic" transform="translate(681.7890625, 24)"><g class="basic label-container outer-path"><path d="M-11.5 -16 C-2.58768900107507 -16, 6.32462199784986 -16, 11.5 -16 C11.5 -16, 11.499999999999998 -16, 11.499999999999998 -16 C11.741501735005087 -15.992255509412997, 11.983003470010178 -15.984511018825994, 12.525123519691405 -15.967126284005381 C12.756700408403129 -15.944786340063319, 12.988277297114852 -15.922446396121254, 13.546034586952095 -15.868640221171939 C13.8010474616689 -15.827411717242105, 14.056060336385706 -15.786183213312272, 14.558538059221954 -15.704946511857047 C14.950949101956397 -15.615381252074275, 15.343360144690841 -15.525815992291504, 15.558473342552116 -15.476717808624471 C15.83768998403979 -15.39384777506899, 16.116906625527463 -15.310977741513508, 16.54173148837793 -15.184891952170698 C16.868430120863422 -15.064663835446984, 17.19512875334891 -14.94443571872327, 17.504272078069985 -14.830668117536348 C17.83071037561809 -14.686163566659847, 18.157148673166194 -14.541659015783344, 18.44213982588093 -14.415501886438706 C18.79067262155128 -14.233672550183394, 19.13920541722163 -14.051843213928082, 19.351480832063 -13.941099265974232 C19.559426811455992 -13.815041191239981, 19.767372790848988 -13.688983116505732, 20.228558419368778 -13.409409678269451 C20.507698751562458 -13.214693466321364, 20.78683908375614 -13.019977254373277, 21.069768487859456 -12.822617949887306 C21.292209494532056 -12.645227166469693, 21.51465050120466 -12.46783638305208, 21.871654324924613 -12.183135333906153 C22.035815472859536 -12.034048522817614, 22.199976620794462 -11.884961711729074, 22.630920809655784 -11.493589601563642 C22.86478555146755 -11.252105054990611, 23.09865029327931 -11.01062050841758, 23.344447953205048 -10.756814244181072 C23.573841777381606 -10.487355205424919, 23.803235601558164 -10.217896166668767, 24.00930371948848 -9.975836829739738 C24.159109074304766 -9.775111301834494, 24.30891442912105 -9.574385773929249, 24.62275607355129 -9.153866561954718 C24.82405516516929 -8.844617100854764, 25.025354256787292 -8.535367639754812, 25.182284208085537 -8.294281092968403 C25.28697266056164 -8.108396144741748, 25.39166111303775 -7.922511196515093, 25.685588901968003 -7.400612643853364 C25.77850774070676 -7.20766468706768, 25.871426579445515 -7.0147167302819975, 26.130601968252996 -6.476533489958305 C26.256457558621506 -6.165667748495786, 26.38231314899001 -5.854802007033268, 26.515494752796165 -5.52584087074093 C26.5819302431815 -5.325747758758213, 26.648365733566838 -5.125654646775496, 26.83868564858657 -4.552441386096524 C26.900585825707928 -4.316389183026313, 26.962486002829287 -4.080336979956104, 27.098846594909176 -3.560334943301032 C27.1592283765806 -3.2502872561123506, 27.219610158252024 -2.9402395689236696, 27.2949085346312 -2.5535983205340735 C27.32414749963257 -2.32682668187017, 27.35338646463394 -2.100055043206267, 27.42606580718717 -1.536368414522911 C27.448452243392204 -1.1876816006234832, 27.470838679597232 -0.8389947867240553, 27.491779459211006 -0.5128252411464826 C27.491779459211006 -0.2369575490904926, 27.491779459211006 0.03891014296549744, 27.491779459211006 0.5128252411464788 C27.47088720798046 0.8382389179839087, 27.44999495674991 1.1636525948213388, 27.42606580718717 1.5363684145229002 C27.374463539533043 1.9365854124280153, 27.322861271878914 2.3368024103331306, 27.294908534631205 2.5535983205340624 C27.23028982125505 2.885401756550707, 27.165671107878893 3.2172051925673513, 27.098846594909176 3.5603349433010285 C27.010407664251957 3.897590915572015, 26.92196873359474 4.234846887843002, 26.83868564858657 4.552441386096513 C26.749543155776887 4.820924371511838, 26.66040066296721 5.089407356927163, 26.515494752796165 5.525840870740919 C26.412443212944694 5.78038016654004, 26.309391673093224 6.034919462339159, 26.130601968253 6.4765334899583005 C25.97845704000465 6.792465688845966, 25.826312111756298 7.1083978877336325, 25.685588901968003 7.400612643853361 C25.564183664984835 7.616179935730295, 25.442778428001667 7.831747227607228, 25.18228420808554 8.294281092968399 C25.009461314617866 8.559783466779578, 24.83663842115019 8.825285840590757, 24.622756073551297 9.15386656195471 C24.384556647921965 9.47303209188392, 24.14635722229263 9.792197621813134, 24.00930371948848 9.975836829739734 C23.8481713985336 10.165112022622132, 23.687039077578724 10.35438721550453, 23.344447953205055 10.756814244181063 C23.19887119449501 10.907134199623352, 23.053294435784967 11.057454155065642, 22.630920809655784 11.493589601563638 C22.417977638835772 11.686978955134817, 22.205034468015757 11.880368308705998, 21.871654324924627 12.183135333906142 C21.646810009353278 12.36244269221577, 21.421965693781928 12.541750050525401, 21.06976848785946 12.822617949887304 C20.828161651850017 12.991152419696128, 20.58655481584058 13.159686889504954, 20.228558419368788 13.409409678269446 C19.90523040332595 13.605413021680942, 19.58190238728311 13.801416365092438, 19.351480832063004 13.94109926597423 C19.1542802189252 14.0439786995352, 18.957079605787403 14.14685813309617, 18.442139825880933 14.415501886438705 C18.144090515496238 14.547439474827348, 17.846041205111543 14.679377063215993, 17.50427207806999 14.830668117536346 C17.11972606269729 14.9721846058979, 16.735180047324587 15.113701094259453, 16.54173148837794 15.184891952170695 C16.344104670482828 15.243546554357629, 16.14647785258772 15.302201156544562, 15.558473342552134 15.476717808624468 C15.22003906017043 15.553963225088005, 14.881604777788727 15.631208641551542, 14.558538059221961 15.704946511857045 C14.185283228593399 15.765291458238629, 13.812028397964836 15.82563640462021, 13.546034586952105 15.868640221171937 C13.2316779320388 15.898965829602233, 12.917321277125493 15.929291438032529, 12.525123519691405 15.967126284005381 C12.137203136788528 15.979566135643857, 11.74928275388565 15.992005987282333, 11.500000000000004 16 C11.500000000000002 16, 11.500000000000002 16, 11.5 16 C3.958958372393269 16, -3.582083255213462 16, -11.499999999999996 16 C-11.829313378384924 15.9894395609248, -12.158626756769852 15.978879121849602, -12.5251235196914 15.967126284005381 C-12.821259483783809 15.938558403704992, -13.117395447876218 15.9099905234046, -13.5460345869521 15.868640221171937 C-13.865686360912747 15.81696140129451, -14.185338134873394 15.765282581417082, -14.558538059221956 15.704946511857045 C-14.954746567839686 15.614514505267195, -15.350955076457417 15.524082498677345, -15.558473342552112 15.476717808624471 C-15.781466908220315 15.410534488851262, -16.004460473888518 15.34435116907805, -16.541731488377923 15.184891952170702 C-16.915511514370866 15.047337447420615, -17.28929154036381 14.909782942670528, -17.504272078069988 14.830668117536348 C-17.797389258261223 14.700913836877906, -18.090506438452458 14.571159556219461, -18.44213982588093 14.415501886438708 C-18.740876787082794 14.259651005129852, -19.039613748284655 14.103800123820996, -19.351480832063 13.941099265974234 C-19.54222740810802 13.825467570624438, -19.732973984153038 13.709835875274644, -20.228558419368767 13.409409678269457 C-20.41040814280545 13.282559183347677, -20.592257866242136 13.155708688425896, -21.069768487859456 12.822617949887308 C-21.24762114414878 12.680785189354523, -21.425473800438105 12.538952428821739, -21.871654324924613 12.183135333906154 C-22.140248327919267 11.9392053669943, -22.40884233091392 11.695275400082446, -22.630920809655777 11.493589601563649 C-22.904066058273617 11.211544706723755, -23.177211306891458 10.929499811883863, -23.344447953205048 10.756814244181069 C-23.479008592797413 10.59875166019858, -23.613569232389775 10.440689076216092, -24.009303719488475 9.97583682973974 C-24.173575077636297 9.755728175250251, -24.337846435784122 9.535619520760763, -24.62275607355129 9.15386656195472 C-24.776669508317084 8.917414194610261, -24.930582943082882 8.680961827265802, -25.182284208085534 8.29428109296841 C-25.37370430789703 7.954395322366129, -25.565124407708527 7.61450955176385, -25.685588901968 7.400612643853366 C-25.847885530802895 7.063600221486146, -26.010182159637793 6.726587799118925, -26.130601968252996 6.476533489958307 C-26.252686883182466 6.174981389731262, -26.374771798111937 5.873429289504219, -26.515494752796165 5.525840870740931 C-26.624764414331995 5.196738059951282, -26.734034075867825 4.867635249161633, -26.83868564858657 4.552441386096519 C-26.91843739566933 4.248313409844121, -26.998189142752093 3.944185433591722, -27.098846594909176 3.5603349433010343 C-27.155248081808924 3.2707252285293027, -27.211649568708673 2.9811155137575707, -27.2949085346312 2.5535983205340753 C-27.333355394001675 2.2554120714478043, -27.37180225337215 1.9572258223615335, -27.42606580718717 1.5363684145229202 C-27.448491830257332 1.1870650032451884, -27.47091785332749 0.8377615919674565, -27.491779459211006 0.5128252411464846 C-27.491779459211006 0.12039088180804608, -27.491779459211006 -0.2720434775303925, -27.491779459211006 -0.5128252411464769 C-27.475852043109924 -0.7609076032997096, -27.459924627008842 -1.0089899654529424, -27.42606580718717 -1.5363684145228982 C-27.38223836439312 -1.8762854061260685, -27.33841092159907 -2.216202397729239, -27.294908534631205 -2.5535983205340678 C-27.25379733829176 -2.7646956248826866, -27.212686141952315 -2.9757929292313055, -27.098846594909176 -3.5603349433010267 C-27.033369745741524 -3.81002654702323, -26.96789289657387 -4.059718150745433, -26.838685648586573 -4.552441386096511 C-26.738108615944704 -4.855363383639881, -26.63753158330283 -5.158285381183252, -26.515494752796172 -5.525840870740911 C-26.420061773514504 -5.761562174637769, -26.324628794232833 -5.9972834785346265, -26.130601968253 -6.476533489958299 C-26.006955934262464 -6.733287125140959, -25.883309900271925 -6.99004076032362, -25.685588901968003 -7.400612643853359 C-25.48509082908675 -7.756617274885448, -25.284592756205495 -8.112621905917537, -25.182284208085537 -8.294281092968404 C-25.01893699972642 -8.54522626987511, -24.855589791367308 -8.796171446781816, -24.622756073551294 -9.153866561954715 C-24.404010630695122 -9.446965527262181, -24.185265187838947 -9.74006449256965, -24.00930371948848 -9.975836829739734 C-23.823321131831882 -10.194302559910204, -23.63733854417529 -10.412768290080674, -23.344447953205055 -10.756814244181063 C-23.175968680578276 -10.930782925573743, -23.007489407951496 -11.104751606966422, -22.63092080965579 -11.493589601563633 C-22.348873090297207 -11.74973787771138, -22.066825370938627 -12.005886153859127, -21.871654324924627 -12.18313533390614 C-21.552702549490775 -12.437490887151434, -21.233750774056922 -12.691846440396729, -21.069768487859463 -12.822617949887302 C-20.82635355056372 -12.992413672882009, -20.582938613267977 -13.162209395876713, -20.228558419368788 -13.409409678269444 C-19.984001385987852 -13.55766158908162, -19.739444352606913 -13.705913499893796, -19.351480832063007 -13.941099265974229 C-19.03720299333556 -14.105057813133778, -18.722925154608106 -14.269016360293325, -18.442139825880936 -14.415501886438705 C-18.251700102053725 -14.499803902983318, -18.061260378226514 -14.584105919527934, -17.504272078069995 -14.830668117536344 C-17.165572007963902 -14.955312874244514, -16.826871937857806 -15.079957630952682, -16.54173148837794 -15.184891952170695 C-16.17779838340933 -15.292905387401529, -15.813865278440712 -15.400918822632363, -15.558473342552134 -15.476717808624466 C-15.158912218325689 -15.567915027849144, -14.759351094099243 -15.659112247073823, -14.558538059221963 -15.704946511857043 C-14.287791705109239 -15.748718682720654, -14.017045350996517 -15.792490853584265, -13.546034586952107 -15.868640221171937 C-13.261173224663551 -15.896120454196002, -12.976311862374995 -15.923600687220068, -12.525123519691407 -15.967126284005381 C-12.173819344250187 -15.978391925139686, -11.822515168808966 -15.98965756627399, -11.500000000000005 -16 C-11.500000000000004 -16, -11.500000000000002 -16, -11.5 -16" stroke="none" stroke-width="0" fill="#eee" style=""/><path d="M-11.5 -16 C-5.443465361252871 -16, 0.6130692774942581 -16, 11.5 -16 M-11.5 -16 C-5.180523932902684 -16, 1.138952134194632 -16, 11.5 -16 M11.5 -16 C11.5 -16, 11.499999999999998 -16, 11.499999999999998 -16 M11.5 -16 C11.5 -16, 11.499999999999998 -16, 11.499999999999998 -16 M11.499999999999998 -16 C11.854964108803017 -15.988616991926412, 12.209928217606036 -15.977233983852821, 12.525123519691405 -15.967126284005381 M11.499999999999998 -16 C11.841700487213712 -15.989042330454707, 12.183400974427428 -15.978084660909413, 12.525123519691405 -15.967126284005381 M12.525123519691405 -15.967126284005381 C12.820568191758593 -15.938625091815263, 13.11601286382578 -15.910123899625146, 13.546034586952095 -15.868640221171939 M12.525123519691405 -15.967126284005381 C12.777356686987275 -15.942793653711115, 13.029589854283143 -15.91846102341685, 13.546034586952095 -15.868640221171939 M13.546034586952095 -15.868640221171939 C13.898210222965876 -15.811703195504078, 14.250385858979659 -15.754766169836218, 14.558538059221954 -15.704946511857047 M13.546034586952095 -15.868640221171939 C13.935958681323505 -15.805600317500483, 14.325882775694916 -15.742560413829027, 14.558538059221954 -15.704946511857047 M14.558538059221954 -15.704946511857047 C14.793945362900192 -15.651216330968708, 15.02935266657843 -15.597486150080371, 15.558473342552116 -15.476717808624471 M14.558538059221954 -15.704946511857047 C14.8202852695768 -15.645204419153728, 15.082032479931645 -15.585462326450408, 15.558473342552116 -15.476717808624471 M15.558473342552116 -15.476717808624471 C15.77963359625729 -15.411078606218636, 16.000793849962463 -15.345439403812803, 16.54173148837793 -15.184891952170698 M15.558473342552116 -15.476717808624471 C15.917091898355611 -15.370281703689207, 16.275710454159103 -15.263845598753942, 16.54173148837793 -15.184891952170698 M16.54173148837793 -15.184891952170698 C16.919758438719747 -15.045774540002087, 17.29778538906156 -14.906657127833478, 17.504272078069985 -14.830668117536348 M16.54173148837793 -15.184891952170698 C16.762905361534166 -15.103497922340331, 16.984079234690405 -15.022103892509966, 17.504272078069985 -14.830668117536348 M17.504272078069985 -14.830668117536348 C17.78566321266033 -14.706104609424633, 18.067054347250682 -14.581541101312919, 18.44213982588093 -14.415501886438706 M17.504272078069985 -14.830668117536348 C17.850527992810335 -14.677390895397565, 18.196783907550685 -14.524113673258784, 18.44213982588093 -14.415501886438706 M18.44213982588093 -14.415501886438706 C18.731371743215067 -14.26460978042737, 19.02060366054921 -14.113717674416034, 19.351480832063 -13.941099265974232 M18.44213982588093 -14.415501886438706 C18.75148916615272 -14.254114533766623, 19.060838506424506 -14.09272718109454, 19.351480832063 -13.941099265974232 M19.351480832063 -13.941099265974232 C19.602124290621543 -13.789157728451588, 19.85276774918008 -13.637216190928944, 20.228558419368778 -13.409409678269451 M19.351480832063 -13.941099265974232 C19.532933292587682 -13.831101718071151, 19.714385753112364 -13.721104170168068, 20.228558419368778 -13.409409678269451 M20.228558419368778 -13.409409678269451 C20.47963931347757 -13.234266515655884, 20.730720207586366 -13.059123353042315, 21.069768487859456 -12.822617949887306 M20.228558419368778 -13.409409678269451 C20.402744527781834 -13.287904989435606, 20.57693063619489 -13.166400300601762, 21.069768487859456 -12.822617949887306 M21.069768487859456 -12.822617949887306 C21.309040026923036 -12.631805264767165, 21.548311565986612 -12.440992579647025, 21.871654324924613 -12.183135333906153 M21.069768487859456 -12.822617949887306 C21.271624333225407 -12.661643284817597, 21.473480178591362 -12.500668619747888, 21.871654324924613 -12.183135333906153 M21.871654324924613 -12.183135333906153 C22.034718707848068 -12.03504457578222, 22.197783090771523 -11.886953817658286, 22.630920809655784 -11.493589601563642 M21.871654324924613 -12.183135333906153 C22.144428250645404 -11.935409271769116, 22.417202176366192 -11.687683209632079, 22.630920809655784 -11.493589601563642 M22.630920809655784 -11.493589601563642 C22.91323726341699 -11.202074684443282, 23.19555371717819 -10.910559767322924, 23.344447953205048 -10.756814244181072 M22.630920809655784 -11.493589601563642 C22.802159587629365 -11.316771504340785, 22.97339836560295 -11.139953407117927, 23.344447953205048 -10.756814244181072 M23.344447953205048 -10.756814244181072 C23.577832786694263 -10.482667138791411, 23.811217620183477 -10.208520033401749, 24.00930371948848 -9.975836829739738 M23.344447953205048 -10.756814244181072 C23.52661046438283 -10.542835793211124, 23.708772975560617 -10.328857342241175, 24.00930371948848 -9.975836829739738 M24.00930371948848 -9.975836829739738 C24.166508558029285 -9.765196667750471, 24.323713396570092 -9.554556505761203, 24.62275607355129 -9.153866561954718 M24.00930371948848 -9.975836829739738 C24.147868638652266 -9.790172461584088, 24.286433557816054 -9.60450809342844, 24.62275607355129 -9.153866561954718 M24.62275607355129 -9.153866561954718 C24.75667802293587 -8.948126484621293, 24.890599972320445 -8.742386407287865, 25.182284208085537 -8.294281092968403 M24.62275607355129 -9.153866561954718 C24.742457303019677 -8.969973329210537, 24.862158532488067 -8.786080096466359, 25.182284208085537 -8.294281092968403 M25.182284208085537 -8.294281092968403 C25.34041984788643 -8.013495251532001, 25.498555487687323 -7.732709410095602, 25.685588901968003 -7.400612643853364 M25.182284208085537 -8.294281092968403 C25.30765582330259 -8.07167109489786, 25.433027438519645 -7.849061096827317, 25.685588901968003 -7.400612643853364 M25.685588901968003 -7.400612643853364 C25.835111975505086 -7.090124782372349, 25.98463504904217 -6.779636920891336, 26.130601968252996 -6.476533489958305 M25.685588901968003 -7.400612643853364 C25.863154492656914 -7.031893895492835, 26.04072008334582 -6.663175147132306, 26.130601968252996 -6.476533489958305 M26.130601968252996 -6.476533489958305 C26.259239937872156 -6.158795217953032, 26.387877907491315 -5.84105694594776, 26.515494752796165 -5.52584087074093 M26.130601968252996 -6.476533489958305 C26.2311585084122 -6.228156891636625, 26.331715048571407 -5.9797802933149455, 26.515494752796165 -5.52584087074093 M26.515494752796165 -5.52584087074093 C26.622817639381992 -5.202601435924223, 26.730140525967823 -4.879362001107518, 26.83868564858657 -4.552441386096524 M26.515494752796165 -5.52584087074093 C26.61174791270893 -5.235941688942069, 26.70800107262169 -4.946042507143208, 26.83868564858657 -4.552441386096524 M26.83868564858657 -4.552441386096524 C26.92530388468493 -4.222128511272473, 27.011922120783293 -3.891815636448423, 27.098846594909176 -3.560334943301032 M26.83868564858657 -4.552441386096524 C26.918663603166546 -4.247450782618293, 26.99864155774652 -3.9424601791400606, 27.098846594909176 -3.560334943301032 M27.098846594909176 -3.560334943301032 C27.146591125552103 -3.3151768692597248, 27.194335656195033 -3.0700187952184175, 27.2949085346312 -2.5535983205340735 M27.098846594909176 -3.560334943301032 C27.139343064114946 -3.352394132861209, 27.179839533320713 -3.144453322421386, 27.2949085346312 -2.5535983205340735 M27.2949085346312 -2.5535983205340735 C27.334223647977357 -2.248678065068549, 27.373538761323513 -1.9437578096030246, 27.42606580718717 -1.536368414522911 M27.2949085346312 -2.5535983205340735 C27.338107880233494 -2.2185527267183502, 27.38130722583579 -1.8835071329026265, 27.42606580718717 -1.536368414522911 M27.42606580718717 -1.536368414522911 C27.44378013243582 -1.2604535000292332, 27.46149445768447 -0.9845385855355552, 27.491779459211006 -0.5128252411464826 M27.42606580718717 -1.536368414522911 C27.4431179038466 -1.2707682448476667, 27.460170000506025 -1.0051680751724223, 27.491779459211006 -0.5128252411464826 M27.491779459211006 -0.5128252411464826 C27.491779459211006 -0.21067758383736002, 27.491779459211006 0.09147007347176261, 27.491779459211006 0.5128252411464788 M27.491779459211006 -0.5128252411464826 C27.491779459211006 -0.17796040763427085, 27.491779459211006 0.15690442587794096, 27.491779459211006 0.5128252411464788 M27.491779459211006 0.5128252411464788 C27.476256826086335 0.7546027817071977, 27.46073419296166 0.9963803222679166, 27.42606580718717 1.5363684145229002 M27.491779459211006 0.5128252411464788 C27.477323813498035 0.7379835915132186, 27.46286816778506 0.9631419418799583, 27.42606580718717 1.5363684145229002 M27.42606580718717 1.5363684145229002 C27.387546949616787 1.8351130674300418, 27.349028092046403 2.133857720337183, 27.294908534631205 2.5535983205340624 M27.42606580718717 1.5363684145229002 C27.389242292112264 1.821964325818359, 27.352418777037357 2.107560237113818, 27.294908534631205 2.5535983205340624 M27.294908534631205 2.5535983205340624 C27.25062038904003 2.7810085878418587, 27.206332243448855 3.008418855149655, 27.098846594909176 3.5603349433010285 M27.294908534631205 2.5535983205340624 C27.221745343510353 2.9292758438937163, 27.148582152389498 3.3049533672533706, 27.098846594909176 3.5603349433010285 M27.098846594909176 3.5603349433010285 C27.038063532720493 3.792127102972268, 26.977280470531813 4.023919262643507, 26.83868564858657 4.552441386096513 M27.098846594909176 3.5603349433010285 C27.02138920906192 3.855713525780003, 26.943931823214662 4.151092108258977, 26.83868564858657 4.552441386096513 M26.83868564858657 4.552441386096513 C26.718741348033713 4.9136945088326875, 26.598797047480854 5.274947631568862, 26.515494752796165 5.525840870740919 M26.83868564858657 4.552441386096513 C26.715014032166508 4.924920590357576, 26.591342415746443 5.29739979461864, 26.515494752796165 5.525840870740919 M26.515494752796165 5.525840870740919 C26.362141158005997 5.904627214762693, 26.20878756321583 6.283413558784466, 26.130601968253 6.4765334899583005 M26.515494752796165 5.525840870740919 C26.414591123733608 5.775074785364394, 26.313687494671047 6.024308699987869, 26.130601968253 6.4765334899583005 M26.130601968253 6.4765334899583005 C26.018154471726398 6.710033122486783, 25.905706975199795 6.943532755015266, 25.685588901968003 7.400612643853361 M26.130601968253 6.4765334899583005 C26.02201275476354 6.7020213152061245, 25.91342354127408 6.9275091404539495, 25.685588901968003 7.400612643853361 M25.685588901968003 7.400612643853361 C25.495702427542934 7.737775307285631, 25.305815953117865 8.074937970717901, 25.18228420808554 8.294281092968399 M25.685588901968003 7.400612643853361 C25.52490792428973 7.68591799043446, 25.36422694661146 7.971223337015559, 25.18228420808554 8.294281092968399 M25.18228420808554 8.294281092968399 C25.06655908773576 8.472065954371597, 24.950833967385986 8.649850815774796, 24.622756073551297 9.15386656195471 M25.18228420808554 8.294281092968399 C25.005813744703232 8.565387113678122, 24.829343281320924 8.836493134387844, 24.622756073551297 9.15386656195471 M24.622756073551297 9.15386656195471 C24.410336347514672 9.43848964300864, 24.197916621478047 9.723112724062574, 24.00930371948848 9.975836829739734 M24.622756073551297 9.15386656195471 C24.439767691946653 9.399054322720422, 24.256779310342008 9.644242083486134, 24.00930371948848 9.975836829739734 M24.00930371948848 9.975836829739734 C23.818867138573232 10.199534473831212, 23.628430557657985 10.42323211792269, 23.344447953205055 10.756814244181063 M24.00930371948848 9.975836829739734 C23.825428975435308 10.191826566873921, 23.64155423138214 10.407816304008108, 23.344447953205055 10.756814244181063 M23.344447953205055 10.756814244181063 C23.16132347671273 10.945905300958517, 22.978199000220407 11.13499635773597, 22.630920809655784 11.493589601563638 M23.344447953205055 10.756814244181063 C23.201003559968534 10.90493235720148, 23.05755916673201 11.053050470221896, 22.630920809655784 11.493589601563638 M22.630920809655784 11.493589601563638 C22.422889992104693 11.682517685869728, 22.214859174553602 11.871445770175818, 21.871654324924627 12.183135333906142 M22.630920809655784 11.493589601563638 C22.39995447975769 11.703347111342875, 22.168988149859594 11.91310462112211, 21.871654324924627 12.183135333906142 M21.871654324924627 12.183135333906142 C21.62463031664885 12.38013040692114, 21.377606308373075 12.577125479936138, 21.06976848785946 12.822617949887304 M21.871654324924627 12.183135333906142 C21.674574433678536 12.340301302658737, 21.477494542432446 12.497467271411333, 21.06976848785946 12.822617949887304 M21.06976848785946 12.822617949887304 C20.807672031989423 13.005445091529532, 20.545575576119386 13.18827223317176, 20.228558419368788 13.409409678269446 M21.06976848785946 12.822617949887304 C20.890600270601073 12.947597942179636, 20.711432053342687 13.072577934471967, 20.228558419368788 13.409409678269446 M20.228558419368788 13.409409678269446 C19.984606869367653 13.557294541498571, 19.740655319366518 13.705179404727696, 19.351480832063004 13.94109926597423 M20.228558419368788 13.409409678269446 C20.051121915613987 13.516972729578246, 19.87368541185918 13.624535780887044, 19.351480832063004 13.94109926597423 M19.351480832063004 13.94109926597423 C19.028939507943406 14.109368868169847, 18.706398183823804 14.277638470365465, 18.442139825880933 14.415501886438705 M19.351480832063004 13.94109926597423 C19.017353747140167 14.115413152159864, 18.68322666221733 14.289727038345495, 18.442139825880933 14.415501886438705 M18.442139825880933 14.415501886438705 C18.100061575544224 14.566929780472007, 17.757983325207515 14.718357674505308, 17.50427207806999 14.830668117536346 M18.442139825880933 14.415501886438705 C18.1813989458363 14.530924139431068, 17.920658065791667 14.646346392423432, 17.50427207806999 14.830668117536346 M17.50427207806999 14.830668117536346 C17.17071906103128 14.953418711136882, 16.837166043992568 15.076169304737416, 16.54173148837794 15.184891952170695 M17.50427207806999 14.830668117536346 C17.191414574537717 14.945802570859284, 16.878557071005442 15.06093702418222, 16.54173148837794 15.184891952170695 M16.54173148837794 15.184891952170695 C16.30322229234774 15.25568022959214, 16.06471309631754 15.326468507013587, 15.558473342552134 15.476717808624468 M16.54173148837794 15.184891952170695 C16.3315146893515 15.247283194671247, 16.121297890325064 15.309674437171799, 15.558473342552134 15.476717808624468 M15.558473342552134 15.476717808624468 C15.19114282880438 15.560558601331774, 14.823812315056628 15.644399394039079, 14.558538059221961 15.704946511857045 M15.558473342552134 15.476717808624468 C15.34931466980197 15.524456910791796, 15.140155997051806 15.572196012959127, 14.558538059221961 15.704946511857045 M14.558538059221961 15.704946511857045 C14.15691787763937 15.769877348204293, 13.755297696056779 15.834808184551543, 13.546034586952105 15.868640221171937 M14.558538059221961 15.704946511857045 C14.217947398868931 15.760010568502905, 13.8773567385159 15.815074625148762, 13.546034586952105 15.868640221171937 M13.546034586952105 15.868640221171937 C13.137705864550936 15.90803120193484, 12.729377142149765 15.947422182697744, 12.525123519691405 15.967126284005381 M13.546034586952105 15.868640221171937 C13.201548773565781 15.90187235328451, 12.857062960179457 15.935104485397083, 12.525123519691405 15.967126284005381 M12.525123519691405 15.967126284005381 C12.262330128706436 15.975553556557964, 11.999536737721467 15.983980829110548, 11.500000000000004 16 M12.525123519691405 15.967126284005381 C12.226372853072151 15.976706636400964, 11.927622186452895 15.986286988796548, 11.500000000000004 16 M11.500000000000004 16 C11.500000000000002 16, 11.5 16, 11.5 16 M11.500000000000004 16 C11.500000000000002 16, 11.500000000000002 16, 11.5 16 M11.5 16 C6.282277102655195 16, 1.0645542053103902 16, -11.499999999999996 16 M11.5 16 C4.617845666757833 16, -2.264308666484334 16, -11.499999999999996 16 M-11.499999999999996 16 C-11.842558873010672 15.989014803692944, -12.185117746021346 15.978029607385889, -12.5251235196914 15.967126284005381 M-11.499999999999996 16 C-11.815241999081072 15.989890802670798, -12.130483998162147 15.979781605341595, -12.5251235196914 15.967126284005381 M-12.5251235196914 15.967126284005381 C-12.764205308537104 15.944062351373356, -13.003287097382806 15.92099841874133, -13.5460345869521 15.868640221171937 M-12.5251235196914 15.967126284005381 C-12.846995551822193 15.936075676173479, -13.168867583952984 15.905025068341574, -13.5460345869521 15.868640221171937 M-13.5460345869521 15.868640221171937 C-13.82109055851112 15.824171304781192, -14.096146530070138 15.779702388390447, -14.558538059221956 15.704946511857045 M-13.5460345869521 15.868640221171937 C-13.865906448400233 15.816925819256337, -14.185778309848368 15.765211417340737, -14.558538059221956 15.704946511857045 M-14.558538059221956 15.704946511857045 C-14.806563517700848 15.648336319476613, -15.05458897617974 15.59172612709618, -15.558473342552112 15.476717808624471 M-14.558538059221956 15.704946511857045 C-14.88842685721824 15.629651546439984, -15.218315655214523 15.55435658102292, -15.558473342552112 15.476717808624471 M-15.558473342552112 15.476717808624471 C-15.93045600951279 15.366315305647406, -16.302438676473468 15.255912802670341, -16.541731488377923 15.184891952170702 M-15.558473342552112 15.476717808624471 C-15.887062677395473 15.379194218843578, -16.215652012238834 15.281670629062685, -16.541731488377923 15.184891952170702 M-16.541731488377923 15.184891952170702 C-16.893290609938486 15.05551494565952, -17.244849731499052 14.926137939148337, -17.504272078069988 14.830668117536348 M-16.541731488377923 15.184891952170702 C-16.872613960011407 15.063124143965542, -17.20349643164489 14.941356335760382, -17.504272078069988 14.830668117536348 M-17.504272078069988 14.830668117536348 C-17.822483708774428 14.689805268036135, -18.140695339478864 14.548942418535924, -18.44213982588093 14.415501886438708 M-17.504272078069988 14.830668117536348 C-17.77930400970847 14.708919639932372, -18.054335941346952 14.587171162328394, -18.44213982588093 14.415501886438708 M-18.44213982588093 14.415501886438708 C-18.77507980519342 14.241807312489616, -19.10801978450591 14.068112738540524, -19.351480832063 13.941099265974234 M-18.44213982588093 14.415501886438708 C-18.667267933616596 14.298052696834445, -18.892396041352264 14.180603507230183, -19.351480832063 13.941099265974234 M-19.351480832063 13.941099265974234 C-19.60249468547471 13.788933192914918, -19.853508538886416 13.6367671198556, -20.228558419368767 13.409409678269457 M-19.351480832063 13.941099265974234 C-19.592958067916086 13.79471434652234, -19.83443530376917 13.648329427070447, -20.228558419368767 13.409409678269457 M-20.228558419368767 13.409409678269457 C-20.512221918682915 13.21153830074288, -20.795885417997066 13.013666923216304, -21.069768487859456 12.822617949887308 M-20.228558419368767 13.409409678269457 C-20.462344716069925 13.246330478136402, -20.696131012771083 13.083251278003345, -21.069768487859456 12.822617949887308 M-21.069768487859456 12.822617949887308 C-21.36791303222795 12.584855609712964, -21.666057576596444 12.347093269538622, -21.871654324924613 12.183135333906154 M-21.069768487859456 12.822617949887308 C-21.276226057375617 12.65797353226483, -21.482683626891777 12.493329114642354, -21.871654324924613 12.183135333906154 M-21.871654324924613 12.183135333906154 C-22.036839630887634 12.033118409594236, -22.202024936850652 11.883101485282317, -22.630920809655777 11.493589601563649 M-21.871654324924613 12.183135333906154 C-22.07181197096326 12.001357455654961, -22.27196961700191 11.81957957740377, -22.630920809655777 11.493589601563649 M-22.630920809655777 11.493589601563649 C-22.881532157289932 11.234812809557088, -23.13214350492409 10.976036017550527, -23.344447953205048 10.756814244181069 M-22.630920809655777 11.493589601563649 C-22.8050014724409 11.313837024949795, -22.979082135226022 11.13408444833594, -23.344447953205048 10.756814244181069 M-23.344447953205048 10.756814244181069 C-23.597486074884323 10.459581268179583, -23.850524196563597 10.162348292178098, -24.009303719488475 9.97583682973974 M-23.344447953205048 10.756814244181069 C-23.57559586231931 10.485294757446827, -23.806743771433577 10.213775270712583, -24.009303719488475 9.97583682973974 M-24.009303719488475 9.97583682973974 C-24.246419203522915 9.658123682798573, -24.483534687557356 9.340410535857407, -24.62275607355129 9.15386656195472 M-24.009303719488475 9.97583682973974 C-24.212463160491655 9.703621687001306, -24.41562260149483 9.431406544262872, -24.62275607355129 9.15386656195472 M-24.62275607355129 9.15386656195472 C-24.77992257092594 8.912416616873438, -24.93708906830059 8.670966671792158, -25.182284208085534 8.29428109296841 M-24.62275607355129 9.15386656195472 C-24.750484418759893 8.957641523851185, -24.878212763968495 8.761416485747649, -25.182284208085534 8.29428109296841 M-25.182284208085534 8.29428109296841 C-25.29106274888689 8.101133778753917, -25.399841289688247 7.907986464539427, -25.685588901968 7.400612643853366 M-25.182284208085534 8.29428109296841 C-25.30526509251173 8.075916079504776, -25.428245976937927 7.8575510660411405, -25.685588901968 7.400612643853366 M-25.685588901968 7.400612643853366 C-25.8314960492012 7.0976333307108, -25.977403196434395 6.7946540175682335, -26.130601968252996 6.476533489958307 M-25.685588901968 7.400612643853366 C-25.825017079259247 7.111087050423012, -25.96444525655049 6.821561456992658, -26.130601968252996 6.476533489958307 M-26.130601968252996 6.476533489958307 C-26.277833247446225 6.112869383827901, -26.425064526639453 5.749205277697495, -26.515494752796165 5.525840870740931 M-26.130601968252996 6.476533489958307 C-26.25137974997797 6.178210034018067, -26.372157531702946 5.879886578077826, -26.515494752796165 5.525840870740931 M-26.515494752796165 5.525840870740931 C-26.629446136335872 5.182637459206707, -26.74339751987558 4.8394340476724835, -26.83868564858657 4.552441386096519 M-26.515494752796165 5.525840870740931 C-26.60883900798043 5.2447028465132774, -26.702183263164695 4.9635648222856235, -26.83868564858657 4.552441386096519 M-26.83868564858657 4.552441386096519 C-26.891765736260925 4.350024006738673, -26.944845823935285 4.147606627380826, -27.098846594909176 3.5603349433010343 M-26.83868564858657 4.552441386096519 C-26.930476277065484 4.2024039373963795, -27.022266905544402 3.85236648869624, -27.098846594909176 3.5603349433010343 M-27.098846594909176 3.5603349433010343 C-27.14234393984979 3.3369852701980824, -27.185841284790406 3.113635597095131, -27.2949085346312 2.5535983205340753 M-27.098846594909176 3.5603349433010343 C-27.165701729956808 3.2170479546692436, -27.23255686500444 2.8737609660374535, -27.2949085346312 2.5535983205340753 M-27.2949085346312 2.5535983205340753 C-27.32427762144011 2.3258174828263316, -27.353646708249023 2.098036645118588, -27.42606580718717 1.5363684145229202 M-27.2949085346312 2.5535983205340753 C-27.337580966173455 2.2226393681170658, -27.380253397715713 1.8916804157000562, -27.42606580718717 1.5363684145229202 M-27.42606580718717 1.5363684145229202 C-27.44567620397533 1.2309206553199652, -27.465286600763488 0.92547289611701, -27.491779459211006 0.5128252411464846 M-27.42606580718717 1.5363684145229202 C-27.44473541739735 1.2455741656612427, -27.463405027607532 0.9547799167995652, -27.491779459211006 0.5128252411464846 M-27.491779459211006 0.5128252411464846 C-27.491779459211006 0.1548929356345457, -27.491779459211006 -0.20303936987739324, -27.491779459211006 -0.5128252411464769 M-27.491779459211006 0.5128252411464846 C-27.491779459211006 0.2724993180858547, -27.491779459211006 0.032173395025224816, -27.491779459211006 -0.5128252411464769 M-27.491779459211006 -0.5128252411464769 C-27.47242221317899 -0.8143299729828646, -27.45306496714698 -1.1158347048192523, -27.42606580718717 -1.5363684145228982 M-27.491779459211006 -0.5128252411464769 C-27.466205368369334 -0.9111623490401184, -27.440631277527658 -1.30949945693376, -27.42606580718717 -1.5363684145228982 M-27.42606580718717 -1.5363684145228982 C-27.381943511161374 -1.878572229566134, -27.33782121513558 -2.22077604460937, -27.294908534631205 -2.5535983205340678 M-27.42606580718717 -1.5363684145228982 C-27.38857707965851 -1.827123582248632, -27.351088352129846 -2.117878749974366, -27.294908534631205 -2.5535983205340678 M-27.294908534631205 -2.5535983205340678 C-27.220063027706328 -2.9379141799898165, -27.14521752078145 -3.3222300394455657, -27.098846594909176 -3.5603349433010267 M-27.294908534631205 -2.5535983205340678 C-27.227550491637786 -2.899467635177835, -27.160192448644366 -3.245336949821602, -27.098846594909176 -3.5603349433010267 M-27.098846594909176 -3.5603349433010267 C-27.007962643385348 -3.9069148398151494, -26.917078691861516 -4.253494736329272, -26.838685648586573 -4.552441386096511 M-27.098846594909176 -3.5603349433010267 C-27.00824623528949 -3.9058333809751327, -26.91764587566981 -4.251331818649238, -26.838685648586573 -4.552441386096511 M-26.838685648586573 -4.552441386096511 C-26.742354588897516 -4.842575189609924, -26.64602352920846 -5.132708993123338, -26.515494752796172 -5.525840870740911 M-26.838685648586573 -4.552441386096511 C-26.75843446175217 -4.794145174551519, -26.67818327491777 -5.0358489630065275, -26.515494752796172 -5.525840870740911 M-26.515494752796172 -5.525840870740911 C-26.3674763878016 -5.891449094017907, -26.21945802280703 -6.257057317294904, -26.130601968253 -6.476533489958299 M-26.515494752796172 -5.525840870740911 C-26.39780776799908 -5.816529998512791, -26.280120783201987 -6.1072191262846705, -26.130601968253 -6.476533489958299 M-26.130601968253 -6.476533489958299 C-26.00475258398366 -6.737862429139039, -25.87890319971432 -6.999191368319778, -25.685588901968003 -7.400612643853359 M-26.130601968253 -6.476533489958299 C-26.02317558344271 -6.699606676573276, -25.915749198632422 -6.922679863188252, -25.685588901968003 -7.400612643853359 M-25.685588901968003 -7.400612643853359 C-25.52904930366055 -7.678564552001435, -25.372509705353096 -7.956516460149512, -25.182284208085537 -8.294281092968404 M-25.685588901968003 -7.400612643853359 C-25.5248443145138 -7.686030936032813, -25.364099727059596 -7.9714492282122675, -25.182284208085537 -8.294281092968404 M-25.182284208085537 -8.294281092968404 C-25.035371456303434 -8.519978531303316, -24.888458704521327 -8.745675969638226, -24.622756073551294 -9.153866561954715 M-25.182284208085537 -8.294281092968404 C-25.05226719885595 -8.494022133600513, -24.92225018962636 -8.693763174232624, -24.622756073551294 -9.153866561954715 M-24.622756073551294 -9.153866561954715 C-24.483804517588975 -9.340048988197056, -24.34485296162666 -9.526231414439398, -24.00930371948848 -9.975836829739734 M-24.622756073551294 -9.153866561954715 C-24.42280254741649 -9.421786070834377, -24.22284902128169 -9.689705579714039, -24.00930371948848 -9.975836829739734 M-24.00930371948848 -9.975836829739734 C-23.855409114323223 -10.156610189817949, -23.701514509157967 -10.337383549896161, -23.344447953205055 -10.756814244181063 M-24.00930371948848 -9.975836829739734 C-23.758981672248943 -10.269879350155287, -23.508659625009408 -10.563921870570843, -23.344447953205055 -10.756814244181063 M-23.344447953205055 -10.756814244181063 C-23.093527664003513 -11.015910043720524, -22.842607374801972 -11.275005843259983, -22.63092080965579 -11.493589601563633 M-23.344447953205055 -10.756814244181063 C-23.127641745779478 -10.980684453468637, -22.9108355383539 -11.204554662756212, -22.63092080965579 -11.493589601563633 M-22.63092080965579 -11.493589601563633 C-22.44044023626607 -11.66657901847638, -22.24995966287635 -11.839568435389129, -21.871654324924627 -12.18313533390614 M-22.63092080965579 -11.493589601563633 C-22.331237259970973 -11.765754272195167, -22.031553710286154 -12.037918942826703, -21.871654324924627 -12.18313533390614 M-21.871654324924627 -12.18313533390614 C-21.61390603353574 -12.388682737318684, -21.356157742146856 -12.594230140731229, -21.069768487859463 -12.822617949887302 M-21.871654324924627 -12.18313533390614 C-21.612213723307164 -12.390032309691708, -21.352773121689705 -12.596929285477275, -21.069768487859463 -12.822617949887302 M-21.069768487859463 -12.822617949887302 C-20.838827833939938 -12.983712152801782, -20.607887180020413 -13.144806355716263, -20.228558419368788 -13.409409678269444 M-21.069768487859463 -12.822617949887302 C-20.86760503814721 -12.963638420891881, -20.66544158843496 -13.10465889189646, -20.228558419368788 -13.409409678269444 M-20.228558419368788 -13.409409678269444 C-20.04605039558907 -13.520047114820908, -19.863542371809352 -13.63068455137237, -19.351480832063007 -13.941099265974229 M-20.228558419368788 -13.409409678269444 C-19.998701246926284 -13.54875044699477, -19.76884407448378 -13.688091215720098, -19.351480832063007 -13.941099265974229 M-19.351480832063007 -13.941099265974229 C-19.136495462491606 -14.053256995574927, -18.921510092920208 -14.165414725175626, -18.442139825880936 -14.415501886438705 M-19.351480832063007 -13.941099265974229 C-19.132662308383743 -14.05525674961775, -18.913843784704476 -14.169414233261268, -18.442139825880936 -14.415501886438705 M-18.442139825880936 -14.415501886438705 C-18.09246973524498 -14.570290462968542, -17.742799644609025 -14.725079039498379, -17.504272078069995 -14.830668117536344 M-18.442139825880936 -14.415501886438705 C-18.169326773700828 -14.53626813192718, -17.89651372152072 -14.657034377415656, -17.504272078069995 -14.830668117536344 M-17.504272078069995 -14.830668117536344 C-17.291026966172048 -14.909144289930994, -17.0777818542741 -14.987620462325646, -16.54173148837794 -15.184891952170695 M-17.504272078069995 -14.830668117536344 C-17.27787961989508 -14.913982634893655, -17.05148716172017 -14.997297152250965, -16.54173148837794 -15.184891952170695 M-16.54173148837794 -15.184891952170695 C-16.33768477875834 -15.245451944522756, -16.13363806913874 -15.30601193687482, -15.558473342552134 -15.476717808624466 M-16.54173148837794 -15.184891952170695 C-16.25809964479772 -15.269072394531376, -15.974467801217497 -15.353252836892059, -15.558473342552134 -15.476717808624466 M-15.558473342552134 -15.476717808624466 C-15.253084562554806 -15.546420804810825, -14.947695782557476 -15.616123800997185, -14.558538059221963 -15.704946511857043 M-15.558473342552134 -15.476717808624466 C-15.273280889968254 -15.541811124872059, -14.988088437384373 -15.606904441119651, -14.558538059221963 -15.704946511857043 M-14.558538059221963 -15.704946511857043 C-14.302167296150534 -15.74639454864547, -14.045796533079105 -15.787842585433898, -13.546034586952107 -15.868640221171937 M-14.558538059221963 -15.704946511857043 C-14.21883137118863 -15.759867654713561, -13.879124683155297 -15.81478879757008, -13.546034586952107 -15.868640221171937 M-13.546034586952107 -15.868640221171937 C-13.181236400885012 -15.903831863447822, -12.816438214817918 -15.939023505723707, -12.525123519691407 -15.967126284005381 M-13.546034586952107 -15.868640221171937 C-13.236927646519497 -15.898459395959986, -12.927820706086887 -15.928278570748034, -12.525123519691407 -15.967126284005381 M-12.525123519691407 -15.967126284005381 C-12.23597914684897 -15.976398581257058, -11.946834774006534 -15.985670878508737, -11.500000000000005 -16 M-12.525123519691407 -15.967126284005381 C-12.307260277358575 -15.974112734141919, -12.089397035025742 -15.981099184278458, -11.500000000000005 -16 M-11.500000000000005 -16 C-11.500000000000004 -16, -11.500000000000004 -16, -11.5 -16 M-11.500000000000005 -16 C-11.500000000000004 -16, -11.500000000000002 -16, -11.5 -16" stroke="#999" stroke-width="1.3" fill="none" stroke-dasharray="0 0" style=""/></g><g class="label" style="" transform="translate(0, -8.5)"><rect/><g><rect class="background" style="stroke: none"/><text y="-10.1" style=""><tspan class="text-outer-tspan row" x="0" y="-0.1em" dy="1.1em"><tspan font-style="normal" class="text-inner-tspan" font-weight="normal">开始</tspan></tspan></text></g></g></g><g class="node default" id="my-svg-flowchart-Request-1" data-look="classic" transform="translate(681.7890625, 113.5)"><rect class="basic label-container" style="" x="-86.08203125" y="-23.5" width="172.1640625" height="47"/><g class="label" style="" transform="translate(0, -8.5)"><rect/><g><rect class="background" style="stroke: none"/><text y="-10.1" style=""><tspan class="text-outer-tspan row" x="0" y="-0.1em" dy="1.1em"><tspan font-style="normal" class="text-inner-tspan" font-weight="normal">请求</tspan><tspan font-style="normal" class="text-inner-tspan" font-weight="normal"> DeepSeek</tspan></tspan></text></g></g></g><g class="node default" id="my-svg-flowchart-Check-3" data-look="classic" transform="translate(681.7890625, 266.5)"><polygon points="79.5,0 159,-79.5 79.5,-159 0,-79.5" class="label-container" transform="translate(-79, 79.5)"/><g class="label" style="" transform="translate(0, -8.5)"><rect/><g><rect class="background" style="stroke: none"/><text y="-10.1" style=""><tspan class="text-outer-tspan row" x="0" y="-0.1em" dy="1.1em"><tspan font-style="normal" class="text-inner-tspan" font-weight="normal">返回什么信号？</tspan></tspan></text></g></g></g><g class="node default" id="my-svg-flowchart-Done-5" data-look="classic" transform="translate(110, 488.5)"><rect class="basic label-container" style="" x="-102" y="-32.29999923706055" width="204" height="64.5999984741211"/><g class="label" style="" transform="translate(0, -17.299999237060547)"><rect/><g><rect class="background" style="stroke: none"/><text y="-10.1" style=""><tspan class="text-outer-tspan row" x="0" y="-0.1em" dy="1.1em"><tspan font-style="normal" class="text-inner-tspan" font-weight="normal">回到</tspan><tspan font-style="normal" class="text-inner-tspan" font-weight="normal"> Agent</tspan><tspan font-style="normal" class="text-inner-tspan" font-weight="normal"> Loop</tspan></tspan><tspan class="text-outer-tspan row" x="0" y="1em" dy="1.1em"><tspan font-style="normal" class="text-inner-tspan" font-weight="normal">执行工具或输出答案</tspan></tspan></text></g></g></g><g class="node default" id="my-svg-flowchart-L1-7" data-look="classic" transform="translate(333.5, 488.5)"><polygon points="71.5,0 143,-71.5 71.5,-143 0,-71.5" class="label-container" transform="translate(-71, 71.5)"/><g class="label" style="" transform="translate(0, -8.5)"><rect/><g><rect class="background" style="stroke: none"/><text y="-10.1" style=""><tspan class="text-outer-tspan row" x="0" y="-0.1em" dy="1.1em"><tspan font-style="normal" class="text-inner-tspan" font-weight="normal">第一次截断？</tspan></tspan></text></g></g></g><g class="node default" id="my-svg-flowchart-L2-9" data-look="classic" transform="translate(221.75, 710.5)"><rect class="basic label-container" style="" x="-118.9140625" y="-32.29999923706055" width="237.828125" height="64.5999984741211"/><g class="label" style="" transform="translate(0, -17.299999237060547)"><rect/><g><rect class="background" style="stroke: none"/><text y="-10.1" style=""><tspan class="text-outer-tspan row" x="0" y="-0.1em" dy="1.1em"><tspan font-style="normal" class="text-inner-tspan" font-weight="normal">扩大输出上限</tspan></tspan><tspan class="text-outer-tspan row" x="0" y="1em" dy="1.1em"><tspan font-style="normal" class="text-inner-tspan" font-weight="normal">用原</tspan><tspan font-style="normal" class="text-inner-tspan" font-weight="normal"> messages</tspan><tspan font-style="normal" class="text-inner-tspan" font-weight="normal"> 重新请求</tspan></tspan></text></g></g></g><g class="node default" id="my-svg-flowchart-L3-11" data-look="classic" transform="translate(470.1640625, 710.5)"><polygon points="79.5,0 159,-79.5 79.5,-159 0,-79.5" class="label-container" transform="translate(-79, 79.5)"/><g class="label" style="" transform="translate(0, -8.5)"><rect/><g><rect class="background" style="stroke: none"/><text y="-10.1" style=""><tspan class="text-outer-tspan row" x="0" y="-0.1em" dy="1.1em"><tspan font-style="normal" class="text-inner-tspan" font-weight="normal">工具调用完整？</tspan></tspan></text></g></g></g><g class="node default" id="my-svg-flowchart-Stop-13" data-look="classic" transform="translate(686.4140625, 1164.099998474121)"><rect class="basic label-container" style="" x="-62" y="-23.5" width="124" height="47"/><g class="label" style="" transform="translate(0, -8.5)"><rect/><g><rect class="background" style="stroke: none"/><text y="-10.1" style=""><tspan class="text-outer-tspan row" x="0" y="-0.1em" dy="1.1em"><tspan font-style="normal" class="text-inner-tspan" font-weight="normal">明确停止</tspan></tspan></text></g></g></g><g class="node default" id="my-svg-flowchart-L4-15" data-look="classic" transform="translate(540.4140625, 956.5)"><polygon points="95.5,0 191,-95.5 95.5,-191 0,-95.5" class="label-container" transform="translate(-95, 95.5)"/><g class="label" style="" transform="translate(0, -8.5)"><rect/><g><rect class="background" style="stroke: none"/><text y="-10.1" style=""><tspan class="text-outer-tspan row" x="0" y="-0.1em" dy="1.1em"><tspan font-style="normal" class="text-inner-tspan" font-weight="normal">续写次数还没用完？</tspan></tspan></text></g></g></g><g class="node default" id="my-svg-flowchart-L5-17" data-look="classic" transform="translate(170.0390625, 1164.099998474121)"><rect class="basic label-container" style="" x="-78" y="-41.099998474121094" width="156" height="82.19999694824219"/><g class="label" style="" transform="translate(0, -26.099998474121094)"><rect/><g><rect class="background" style="stroke: none"/><text y="-10.1" style=""><tspan class="text-outer-tspan row" x="0" y="-0.1em" dy="1.1em"><tspan font-style="normal" class="text-inner-tspan" font-weight="normal">保存文本片段</tspan></tspan><tspan class="text-outer-tspan row" x="0" y="1em" dy="1.1em"><tspan font-style="normal" class="text-inner-tspan" font-weight="normal">追加续写提示</tspan></tspan><tspan class="text-outer-tspan row" x="0" y="2.1em" dy="1.1em"><tspan font-style="normal" class="text-inner-tspan" font-weight="normal">重新请求</tspan></tspan></text></g></g></g><g class="node default" id="my-svg-flowchart-C1-21" data-look="classic" transform="translate(770.2890625, 956.5)"><polygon points="71.5,0 143,-71.5 71.5,-143 0,-71.5" class="label-container" transform="translate(-71, 71.5)"/><g class="label" style="" transform="translate(0, -8.5)"><rect/><g><rect class="background" style="stroke: none"/><text y="-10.1" style=""><tspan class="text-outer-tspan row" x="0" y="-0.1em" dy="1.1em"><tspan font-style="normal" class="text-inner-tspan" font-weight="normal">已经压缩过？</tspan></tspan></text></g></g></g><g class="node default" id="my-svg-flowchart-C2-23" data-look="classic" transform="translate(388.7890625, 1164.099998474121)"><rect class="basic label-container" style="" x="-90.75" y="-32.29999923706055" width="181.5" height="64.5999984741211"/><g class="label" style="" transform="translate(0, -17.299999237060547)"><rect/><g><rect class="background" style="stroke: none"/><text y="-10.1" style=""><tspan class="text-outer-tspan row" x="0" y="-0.1em" dy="1.1em"><tspan font-style="normal" class="text-inner-tspan" font-weight="normal">reactive</tspan><tspan font-style="normal" class="text-inner-tspan" font-weight="normal"> compact</tspan></tspan><tspan class="text-outer-tspan row" x="0" y="1em" dy="1.1em"><tspan font-style="normal" class="text-inner-tspan" font-weight="normal">重新请求</tspan></tspan></text></g></g></g><g class="node default" id="my-svg-flowchart-R1-27" data-look="classic" transform="translate(1001.7890625, 956.5)"><polygon points="95.5,0 191,-95.5 95.5,-191 0,-95.5" class="label-container" transform="translate(-95, 95.5)"/><g class="label" style="" transform="translate(0, -8.5)"><rect/><g><rect class="background" style="stroke: none"/><text y="-10.1" style=""><tspan class="text-outer-tspan row" x="0" y="-0.1em" dy="1.1em"><tspan font-style="normal" class="text-inner-tspan" font-weight="normal">重试次数还没用完？</tspan></tspan></text></g></g></g><g class="node default" id="my-svg-flowchart-R2-29" data-look="classic" transform="translate(1067.0390625, 1164.099998474121)"><rect class="basic label-container" style="" x="-94" y="-41.099998474121094" width="188" height="82.19999694824219"/><g class="label" style="" transform="translate(0, -26.099998474121094)"><rect/><g><rect class="background" style="stroke: none"/><text y="-10.1" style=""><tspan class="text-outer-tspan row" x="0" y="-0.1em" dy="1.1em"><tspan font-style="normal" class="text-inner-tspan" font-weight="normal">等待</tspan><tspan font-style="normal" class="text-inner-tspan" font-weight="normal"> +</tspan><tspan font-style="normal" class="text-inner-tspan" font-weight="normal"> 抖动</tspan></tspan><tspan class="text-outer-tspan row" x="0" y="1em" dy="1.1em"><tspan font-style="normal" class="text-inner-tspan" font-weight="normal">必要时切备用模型</tspan></tspan><tspan class="text-outer-tspan row" x="0" y="2.1em" dy="1.1em"><tspan font-style="normal" class="text-inner-tspan" font-weight="normal">重新请求</tspan></tspan></text></g></g></g></g></g></g><defs><filter id="my-svg-drop-shadow" height="130%" width="130%"><feDropShadow dx="4" dy="4" stdDeviation="0" flood-opacity="0.06" flood-color="#000000"/></filter></defs><defs><filter id="my-svg-drop-shadow-small" height="150%" width="150%"><feDropShadow dx="2" dy="2" stdDeviation="0" flood-opacity="0.06" flood-color="#000000"/></filter></defs><linearGradient id="my-svg-gradient" gradientUnits="objectBoundingBox" x1="0%" y1="0%" x2="100%" y2="0%"><stop offset="0%" stop-color="hsl(0, 0%, 83.3333333333%)" stop-opacity="1"/><stop offset="100%" stop-color="hsl(0, 0%, 88.9215686275%)" stop-opacity="1"/></linearGradient></svg>