<svg width="1174.2890625" height="1213.199951171875" id="my-svg" xmlns="http://www.w3.org/2000/svg" xmlns:xlink="http://www.w3.org/1999/xlink" class="flowchart" style="max-width: 1174.29px; background-color: white;" viewBox="0 0 1174.2890625 1213.199951171875" role="graphics-document document" aria-roledescription="flowchart-v2"><style>#my-svg{font-family:"trebuchet ms",verdana,arial,sans-serif;font-size:16px;fill:#000000;}@keyframes edge-animation-frame{from{stroke-dashoffset:0;}}@keyframes dash{to{stroke-dashoffset:0;}}#my-svg .edge-animation-slow{stroke-dasharray:9,5!important;stroke-dashoffset:900;animation:dash 50s linear infinite;stroke-linecap:round;}#my-svg .edge-animation-fast{stroke-dasharray:9,5!important;stroke-dashoffset:900;animation:dash 20s linear infinite;stroke-linecap:round;}#my-svg .error-icon{fill:#552222;}#my-svg .error-text{fill:#552222;stroke:#552222;}#my-svg .edge-thickness-normal{stroke-width:1px;}#my-svg .edge-thickness-thick{stroke-width:3.5px;}#my-svg .edge-pattern-solid{stroke-dasharray:0;}#my-svg .edge-thickness-invisible{stroke-width:0;fill:none;}#my-svg .edge-pattern-dashed{stroke-dasharray:3;}#my-svg .edge-pattern-dotted{stroke-dasharray:2;}#my-svg .marker{fill:#666;stroke:#666;}#my-svg .marker.cross{stroke:#666;}#my-svg svg{font-family:"trebuchet ms",verdana,arial,sans-serif;font-size:16px;}#my-svg p{margin:0;}#my-svg .label{font-family:"trebuchet ms",verdana,arial,sans-serif;color:#000000;}#my-svg .cluster-label text{fill:#333;}#my-svg .cluster-label span{color:#333;}#my-svg .cluster-label span p{background-color:transparent;}#my-svg .label text,#my-svg span{fill:#000000;color:#000000;}#my-svg .node rect,#my-svg .node circle,#my-svg .node ellipse,#my-svg .node polygon,#my-svg .node path{fill:#eee;stroke:#999;stroke-width:1px;}#my-svg .rough-node .label text,#my-svg .node .label text,#my-svg .image-shape .label,#my-svg .icon-shape .label{text-anchor:middle;}#my-svg .node .katex path{fill:#000;stroke:#000;stroke-width:1px;}#my-svg .rough-node .label,#my-svg .node .label,#my-svg .image-shape .label,#my-svg .icon-shape .label{text-align:center;}#my-svg .node.clickable{cursor:pointer;}#my-svg .root .anchor path{fill:#666!important;stroke-width:0;stroke:#666;}#my-svg .arrowheadPath{fill:#333333;}#my-svg .edgePath .path{stroke:#666;stroke-width:1px;}#my-svg .flowchart-link{stroke:#666;fill:none;}#my-svg .edgeLabel{background-color:white;text-align:center;}#my-svg .edgeLabel p{background-color:white;}#my-svg .edgeLabel rect{opacity:0.5;background-color:white;fill:white;}#my-svg .labelBkg{background-color:rgba(255, 255, 255, 0.5);}#my-svg .cluster rect{fill:hsl(0, 0%, 98.9215686275%);stroke:#707070;stroke-width:1px;}#my-svg .cluster text{fill:#333;}#my-svg .cluster span{color:#333;}#my-svg div.mermaidTooltip{position:absolute;text-align:center;max-width:200px;padding:2px;font-family:"trebuchet ms",verdana,arial,sans-serif;font-size:12px;background:hsl(-160, 0%, 93.3333333333%);border:1px solid #707070;border-radius:2px;pointer-events:none;z-index:100;}#my-svg .flowchartTitleText{text-anchor:middle;font-size:18px;fill:#000000;}#my-svg rect.text{fill:none;stroke-width:0;}#my-svg .icon-shape,#my-svg .image-shape{background-color:white;text-align:center;}#my-svg .icon-shape p,#my-svg .image-shape p{background-color:white;padding:2px;}#my-svg .icon-shape .label rect,#my-svg .image-shape .label rect{opacity:0.5;background-color:white;fill:white;}#my-svg .label-icon{display:inline-block;height:1em;overflow:visible;vertical-align:-0.125em;}#my-svg .node .label-icon path{fill:currentColor;stroke:revert;stroke-width:revert;}#my-svg .node .neo-node{stroke:#999;}#my-svg [data-look="neo"].node rect,#my-svg [data-look="neo"].cluster rect,#my-svg [data-look="neo"].node polygon{stroke:url(#my-svg-gradient);filter:drop-shadow( 1px 2px 2px rgba(185,185,185,1));}#my-svg [data-look="neo"].swimlane.cluster rect{filter:none;}#my-svg [data-look="neo"].node path{stroke:url(#my-svg-gradient);stroke-width:1px;}#my-svg [data-look="neo"].node .outer-path{filter:drop-shadow( 1px 2px 2px rgba(185,185,185,1));}#my-svg [data-look="neo"].node .neo-line path{stroke:#999;filter:none;}#my-svg [data-look="neo"].node circle{stroke:url(#my-svg-gradient);filter:drop-shadow( 1px 2px 2px rgba(185,185,185,1));}#my-svg [data-look="neo"].node circle .state-start{fill:#000000;}#my-svg [data-look="neo"].icon-shape .icon{fill:url(#my-svg-gradient);filter:drop-shadow( 1px 2px 2px rgba(185,185,185,1));}#my-svg [data-look="neo"].icon-shape .icon-neo path{stroke:url(#my-svg-gradient);filter:drop-shadow( 1px 2px 2px rgba(185,185,185,1));}#my-svg :root{--mermaid-font-family:"trebuchet ms",verdana,arial,sans-serif;}</style><g><marker id="my-svg_flowchart-v2-pointEnd" class="marker flowchart-v2" viewBox="0 0 10 10" refX="5" refY="5" markerUnits="userSpaceOnUse" markerWidth="8" markerHeight="8" orient="auto"><path d="M 0 0 L 10 5 L 0 10 z" class="arrowMarkerPath" style="stroke-width: 1; stroke-dasharray: 1, 0;"/></marker><marker id="my-svg_flowchart-v2-pointStart" class="marker flowchart-v2" viewBox="0 0 10 10" refX="4.5" refY="5" markerUnits="userSpaceOnUse" markerWidth="8" markerHeight="8" orient="auto"><path d="M 0 5 L 10 10 L 10 0 z" class="arrowMarkerPath" style="stroke-width: 1; stroke-dasharray: 1, 0;"/></marker><marker id="my-svg_flowchart-v2-pointEnd-margin" class="marker flowchart-v2" viewBox="0 0 11.5 14" refX="11.5" refY="7" markerUnits="userSpaceOnUse" markerWidth="10.5" markerHeight="14" orient="auto"><path d="M 0 0 L 11.5 7 L 0 14 z" class="arrowMarkerPath" style="stroke-width: 0; stroke-dasharray: 1, 0;"/></marker><marker id="my-svg_flowchart-v2-pointStart-margin" class="marker flowchart-v2" viewBox="0 0 11.5 14" refX="1" refY="7" markerUnits="userSpaceOnUse" markerWidth="11.5" markerHeight="14" orient="auto"><polygon points="0,7 11.5,14 11.5,0" class="arrowMarkerPath" style="stroke-width: 0; stroke-dasharray: 1, 0;"/></marker><marker id="my-svg_flowchart-v2-circleEnd" class="marker flowchart-v2" viewBox="0 0 10 10" refX="11" refY="5" markerUnits="userSpaceOnUse" markerWidth="11" markerHeight="11" orient="auto"><circle cx="5" cy="5" r="5" class="arrowMarkerPath" style="stroke-width: 1; stroke-dasharray: 1, 0;"/></marker><marker id="my-svg_flowchart-v2-circleStart" class="marker flowchart-v2" viewBox="0 0 10 10" refX="-1" refY="5" markerUnits="userSpaceOnUse" markerWidth="11" markerHeight="11" orient="auto"><circle cx="5" cy="5" r="5" class="arrowMarkerPath" style="stroke-width: 1; stroke-dasharray: 1, 0;"/></marker><marker id="my-svg_flowchart-v2-circleEnd-margin" class="marker flowchart-v2" viewBox="0 0 10 10" refY="5" refX="12.25" markerUnits="userSpaceOnUse" markerWidth="14" markerHeight="14" orient="auto"><circle cx="5" cy="5" r="5" class="arrowMarkerPath" style="stroke-width: 0; stroke-dasharray: 1, 0;"/></marker><marker id="my-svg_flowchart-v2-circleStart-margin" class="marker flowchart-v2" viewBox="0 0 10 10" refX="-2" refY="5" markerUnits="userSpaceOnUse" markerWidth="14" markerHeight="14" orient="auto"><circle cx="5" cy="5" r="5" class="arrowMarkerPath" style="stroke-width: 0; stroke-dasharray: 1, 0;"/></marker><marker id="my-svg_flowchart-v2-crossEnd" class="marker cross flowchart-v2" viewBox="0 0 11 11" refX="12" refY="5.2" markerUnits="userSpaceOnUse" markerWidth="11" markerHeight="11" orient="auto"><path d="M 1,1 l 9,9 M 10,1 l -9,9" class="arrowMarkerPath" style="stroke-width: 2; stroke-dasharray: 1, 0;"/></marker><marker id="my-svg_flowchart-v2-crossStart" class="marker cross flowchart-v2" viewBox="0 0 11 11" refX="-1" refY="5.2" markerUnits="userSpaceOnUse" markerWidth="11" markerHeight="11" orient="auto"><path d="M 1,1 l 9,9 M 10,1 l -9,9" class="arrowMarkerPath" style="stroke-width: 2; stroke-dasharray: 1, 0;"/></marker><marker id="my-svg_flowchart-v2-crossEnd-margin" class="marker cross flowchart-v2" viewBox="0 0 15 15" refX="17.7" refY="7.5" markerUnits="userSpaceOnUse" markerWidth="12" markerHeight="12" orient="auto"><path d="M 1,1 L 14,14 M 1,14 L 14,1" class="arrowMarkerPath" style="stroke-width: 2.5;"/></marker><marker id="my-svg_flowchart-v2-crossStart-margin" class="marker cross flowchart-v2" viewBox="0 0 15 15" refX="-3.5" refY="7.5" markerUnits="userSpaceOnUse" markerWidth="12" markerHeight="12" orient="auto"><path d="M 1,1 L 14,14 M 1,14 L 14,1" class="arrowMarkerPath" style="stroke-width: 2.5; stroke-dasharray: 1, 0;"/></marker><g class="root"><g class="clusters"/><g class="edgePaths"><path d="M682.289,40.5L682.206,44.583C682.122,48.667,681.956,56.833,681.872,64.417C681.789,72,681.789,79,681.789,82.5L681.789,86" id="my-svg-L_Start_Request_0" class="edge-thickness-normal edge-pattern-solid edge-thickness-normal edge-pattern-solid flowchart-link" style=";" data-edge="true" data-et="edge" data-id="L_Start_Request_0" data-points="W3sieCI6NjgyLjI4OTA2MjUsInkiOjQwLjV9LHsieCI6NjgxLjc4OTA2MjUsInkiOjY1fSx7IngiOjY4MS43ODkwNjI1LCJ5Ijo5MH1d" data-look="classic" marker-end="url(#my-svg_flowchart-v2-pointEnd)"/><path d="M681.789,137L681.789,141.167C681.789,145.333,681.789,153.667,681.789,161.333C681.789,169,681.789,176,681.789,179.5L681.789,183" id="my-svg-L_Request_Check_0" class="edge-thickness-normal edge-pattern-solid edge-thickness-normal edge-pattern-solid flowchart-link" style=";" data-edge="true" data-et="edge" data-id="L_Request_Check_0" data-points="W3sieCI6NjgxLjc4OTA2MjUsInkiOjEzN30seyJ4Ijo2ODEuNzg5MDYyNSwieSI6MTYyfSx7IngiOjY4MS43ODkwNjI1LCJ5IjoxODd9XQ==" data-look="classic" marker-end="url(#my-svg_flowchart-v2-pointEnd)"/><path d="M615.601,279.812L531.334,296.76C447.067,313.708,278.534,347.604,194.267,376.335C110,405.067,110,428.633,110,440.417L110,452.2" id="my-svg-L_Check_Done_0" class="edge-thickness-normal edge-pattern-solid edge-thickness-normal edge-pattern-solid flowchart-link" style=";" data-edge="true" data-et="edge" data-id="L_Check_Done_0" data-points="W3sieCI6NjE1LjYwMTAxMDA4MjE1ODgsInkiOjI3OS44MTE5NDc1ODIxNTg4NH0seyJ4IjoxMTAsInkiOjM4MS41fSx7IngiOjExMCwieSI6NDU2LjIwMDAwMDc2MjkzOTQ1fV0=" data-look="classic" marker-end="url(#my-svg_flowchart-v2-pointEnd)"/><path d="M622.023,286.234L573.936,302.112C525.849,317.989,429.674,349.745,381.587,370.872C333.5,392,333.5,402.5,333.5,407.75L333.5,413" id="my-svg-L_Check_L1_0" class="edge-thickness-normal edge-pattern-solid edge-thickness-normal edge-pattern-solid flowchart-link" style=";" data-edge="true" data-et="edge" data-id="L_Check_L1_0" data-points="W3sieCI6NjIyLjAyMjk2MjQzNDIzMzgsInkiOjI4Ni4yMzM4OTk5MzQyMzM4fSx7IngiOjMzMy41LCJ5IjozODEuNX0seyJ4IjozMzMuNSwieSI6NDE3fV0=" data-look="classic" marker-end="url(#my-svg_flowchart-v2-pointEnd)"/><path d="M296.974,523.474L284.436,535.478C271.899,547.482,246.825,571.491,234.287,596.612C221.75,621.733,221.75,647.967,221.75,661.083L221.75,674.2" id="my-svg-L_L1_L2_0" class="edge-thickness-normal edge-pattern-solid edge-thickness-normal edge-pattern-solid flowchart-link" style=";" data-edge="true" data-et="edge" data-id="L_L1_L2_0" data-points="W3sieCI6Mjk2Ljk3MzcxNDI4NTcxNDI3LCJ5Ijo1MjMuNDczNzE0Mjg1NzE0M30seyJ4IjoyMjEuNzUsInkiOjU5NS41fSx7IngiOjIyMS43NSwieSI6Njc4LjIwMDAwMDc2MjkzOTV9XQ==" data-look="classic" marker-end="url(#my-svg_flowchart-v2-pointEnd)"/><path d="M373.602,519.898L389.696,532.498C405.79,545.098,437.977,570.299,454.07,588.15C470.164,606,470.164,616.5,470.164,621.75L470.164,627" id="my-svg-L_L1_L3_0" class="edge-thickness-normal edge-pattern-solid edge-thickness-normal edge-pattern-solid flowchart-link" style=";" data-edge="true" data-et="edge" data-id="L_L1_L3_0" data-points="W3sieCI6MzczLjYwMjI2MzYxODU4MzUsInkiOjUxOS44OTc3MzYzODE0MTY1fSx7IngiOjQ3MC4xNjQwNjI1LCJ5Ijo1OTUuNX0seyJ4Ijo0NzAuMTY0MDYyNSwieSI6NjMxfV0=" data-look="classic" marker-end="url(#my-svg_flowchart-v2-pointEnd)"/><path d="M432.339,752.175L421.248,764.396C410.156,776.617,387.972,801.058,376.881,835.113C365.789,869.167,365.789,912.833,365.789,956.5C365.789,1000.167,365.789,1043.833,408.245,1075.81C450.701,1107.786,535.612,1128.072,578.068,1138.215L620.524,1148.358" id="my-svg-L_L3_Stop_0" class="edge-thickness-normal edge-pattern-solid edge-thickness-normal edge-pattern-solid flowchart-link" style=";" data-edge="true" data-et="edge" data-id="L_L3_Stop_0" data-points="W3sieCI6NDMyLjMzOTI3NjE3NTIxMzcsInkiOjc1Mi4xNzUyMTM2NzUyMTM2fSx7IngiOjM2NS43ODkwNjI1LCJ5Ijo4MjUuNX0seyJ4IjozNjUuNzg5MDYyNSwieSI6OTU2LjV9LHsieCI6MzY1Ljc4OTA2MjUsInkiOjEwODcuNX0seyJ4Ijo2MjQuNDE0MDYyNSwieSI6MTE0OS4yODc2NzkwODEwNzQ3fV0=" data-look="classic" marker-end="url(#my-svg_flowchart-v2-pointEnd)"/><path d="M500.312,759.852L506.996,770.794C513.679,781.735,527.047,803.617,533.73,819.809C540.414,836,540.414,846.5,540.414,851.75L540.414,857" id="my-svg-L_L3_L4_0" class="edge-thickness-normal edge-pattern-solid edge-thickness-normal edge-pattern-solid flowchart-link" style=";" data-edge="true" data-et="edge" data-id="L_L3_L4_0" data-points="W3sieCI6NTAwLjMxMTgzNTc3OTM1MjI0LCJ5Ijo3NTkuODUyMjI2NzIwNjQ3OH0seyJ4Ijo1NDAuNDE0MDYyNSwieSI6ODI1LjV9LHsieCI6NTQwLjQxNDA2MjUsInkiOjg2MX1d" data-look="classic" marker-end="url(#my-svg_flowchart-v2-pointEnd)"/><path d="M501.683,1013.269L493.243,1025.641C484.802,1038.013,467.92,1062.756,426.29,1084.176C384.659,1105.595,318.279,1123.69,285.088,1132.738L251.898,1141.785" id="my-svg-L_L4_L5_0" class="edge-thickness-normal edge-pattern-solid edge-thickness-normal edge-pattern-solid flowchart-link" style=";" data-edge="true" data-et="edge" data-id="L_L4_L5_0" data-points="W3sieCI6NTAxLjY4MzIwNjAwNTM4ODU3LCJ5IjoxMDEzLjI2OTE0MzUwNTM4ODZ9LHsieCI6NDUxLjAzOTA2MjUsInkiOjEwODcuNX0seyJ4IjoyNDguMDM5MDYyNSwieSI6MTE0Mi44MzczNjU0NDU3MTczfV0=" data-look="classic" marker-end="url(#my-svg_flowchart-v2-pointEnd)"/><path d="M578.919,1013.495L587.251,1025.83C595.584,1038.164,612.249,1062.832,626.825,1083.483C641.4,1104.134,653.886,1120.767,660.129,1129.084L666.372,1137.401" id="my-svg-L_L4_Stop_0" class="edge-thickness-normal edge-pattern-solid edge-thickness-normal edge-pattern-solid flowchart-link" style=";" data-edge="true" data-et="edge" data-id="L_L4_Stop_0" data-points="W3sieCI6NTc4LjkxODYxODMwODY1NiwieSI6MTAxMy40OTU0NDQxOTEzNDR9LHsieCI6NjI4LjkxNDA2MjUsInkiOjEwODcuNX0seyJ4Ijo2NjguNzczNzIyNzIzMDE1MywieSI6MTE0MC41OTk5OTg0NzQxMjF9XQ==" data-look="classic" marker-end="url(#my-svg_flowchart-v2-pointEnd)"/><path d="M716.363,311.426L725.35,323.105C734.338,334.784,752.314,358.142,761.301,387.654C770.289,417.167,770.289,452.833,770.289,488.5C770.289,524.167,770.289,559.833,770.289,596.833C770.289,633.833,770.289,672.167,770.289,710.5C770.289,748.833,770.289,787.167,770.289,815.583C770.289,844,770.289,862.5,770.289,871.75L770.289,881" id="my-svg-L_Check_C1_0" class="edge-thickness-normal edge-pattern-solid edge-thickness-normal edge-pattern-solid flowchart-link" style=";" data-edge="true" data-et="edge" data-id="L_Check_C1_0" data-points="W3sieCI6NzE2LjM2Mjc3MjU3MzcxMDEsInkiOjMxMS40MjYyODk5MjYyODk5NH0seyJ4Ijo3NzAuMjg5MDYyNSwieSI6MzgxLjV9LHsieCI6NzcwLjI4OTA2MjUsInkiOjQ4OC41fSx7IngiOjc3MC4yODkwNjI1LCJ5Ijo1OTUuNX0seyJ4Ijo3NzAuMjg5MDYyNSwieSI6NzEwLjV9LHsieCI6NzcwLjI4OTA2MjUsInkiOjgyNS41fSx7IngiOjc3MC4yODkwNjI1LCJ5Ijo4ODV9XQ==" data-look="classic" marker-end="url(#my-svg_flowchart-v2-pointEnd)"/><path d="M739.097,996.808L727.4,1011.923C715.703,1027.038,692.308,1057.269,649.692,1080.84C607.075,1104.41,545.236,1121.32,514.317,1129.775L483.397,1138.229" id="my-svg-L_C1_C2_0" class="edge-thickness-normal edge-pattern-solid edge-thickness-normal edge-pattern-solid flowchart-link" style=";" data-edge="true" data-et="edge" data-id="L_C1_C2_0" data-points="W3sieCI6NzM5LjA5Njc1NDgwNzY5MjMsInkiOjk5Ni44MDc2OTIzMDc2OTIzfSx7IngiOjY2OC45MTQwNjI1LCJ5IjoxMDg3LjV9LHsieCI6NDc5LjUzOTA2MjUsInkiOjExMzkuMjg0NDcwMTg2NjU0N31d" data-look="classic" marker-end="url(#my-svg_flowchart-v2-pointEnd)"/><path d="M799.117,999.172L809.062,1013.893C819.008,1028.615,838.898,1058.057,829.538,1081.358C820.177,1104.659,781.564,1121.817,762.258,1130.396L742.952,1138.976" id="my-svg-L_C1_Stop_0" class="edge-thickness-normal edge-pattern-solid edge-thickness-normal edge-pattern-solid flowchart-link" style=";" data-edge="true" data-et="edge" data-id="L_C1_Stop_0" data-points="W3sieCI6Nzk5LjExNzA4MDcyMzIzNDYsInkiOjk5OS4xNzE5ODE3NzY3NjU0fSx7IngiOjg1OC43ODkwNjI1LCJ5IjoxMDg3LjV9LHsieCI6NzM5LjI5NjczMzI2NjIyMTMsInkiOjExNDAuNTk5OTk4NDc0MTIxfV0=" data-look="classic" marker-end="url(#my-svg_flowchart-v2-pointEnd)"/><path d="M740.272,287.517L783.858,303.181C827.444,318.845,914.617,350.172,958.203,383.67C1001.789,417.167,1001.789,452.833,1001.789,488.5C1001.789,524.167,1001.789,559.833,1001.789,596.833C1001.789,633.833,1001.789,672.167,1001.789,710.5C1001.789,748.833,1001.789,787.167,1001.789,811.583C1001.789,836,1001.789,846.5,1001.789,851.75L1001.789,857" id="my-svg-L_Check_R1_0" class="edge-thickness-normal edge-pattern-solid edge-thickness-normal edge-pattern-solid flowchart-link" style=";" data-edge="true" data-et="edge" data-id="L_Check_R1_0" data-points="W3sieCI6NzQwLjI3MTgyMTEyMDY4OTcsInkiOjI4Ny41MTcyNDEzNzkzMTAzNX0seyJ4IjoxMDAxLjc4OTA2MjUsInkiOjM4MS41fSx7IngiOjEwMDEuNzg5MDYyNSwieSI6NDg4LjV9LHsieCI6MTAwMS43ODkwNjI1LCJ5Ijo1OTUuNX0seyJ4IjoxMDAxLjc4OTA2MjUsInkiOjcxMC41fSx7IngiOjEwMDEuNzg5MDYyNSwieSI6ODI1LjV9LHsieCI6MTAwMS43ODkwNjI1LCJ5Ijo4NjF9XQ==" data-look="classic" marker-end="url(#my-svg_flowchart-v2-pointEnd)"/><path d="M989.14,1039.351L987.915,1047.376C986.69,1055.401,984.239,1071.45,989.103,1084.946C993.967,1098.442,1006.145,1109.384,1012.234,1114.855L1018.323,1120.327" id="my-svg-L_R1_R2_0" class="edge-thickness-normal edge-pattern-solid edge-thickness-normal edge-pattern-solid flowchart-link" style=";" data-edge="true" data-et="edge" data-id="L_R1_R2_0" data-points="W3sieCI6OTg5LjE0MDA1NTg3NzQ4MzQsInkiOjEwMzkuMzUwOTkzMzc3NDgzNX0seyJ4Ijo5ODEuNzg5MDYyNSwieSI6MTA4Ny41fSx7IngiOjEwMjEuMjk3ODc1Mjk3NDYzLCJ5IjoxMTIzfV0=" data-look="classic" marker-end="url(#my-svg_flowchart-v2-pointEnd)"/><path d="M1028.266,1025.523L1032.228,1035.853C1036.19,1046.182,1044.115,1066.841,998.125,1087.636C952.136,1108.43,852.232,1129.36,802.281,1139.825L752.329,1150.291" id="my-svg-L_R1_Stop_0" class="edge-thickness-normal edge-pattern-solid edge-thickness-normal edge-pattern-solid flowchart-link" style=";" data-edge="true" data-et="edge" data-id="L_R1_Stop_0" data-points="W3sieCI6MTAyOC4yNjU2MTQyMjQxMzc4LCJ5IjoxMDI1LjUyMzQ0ODI3NTg2MjJ9LHsieCI6MTA1Mi4wMzkwNjI1LCJ5IjoxMDg3LjV9LHsieCI6NzQ4LjQxNDA2MjUsInkiOjExNTEuMTEwNzMzNzc1NjAzNH1d" data-look="classic" marker-end="url(#my-svg_flowchart-v2-pointEnd)"/><path d="M745.122,282.667L809.65,299.139C874.178,315.611,1003.233,348.556,1067.761,382.861C1132.289,417.167,1132.289,452.833,1132.289,488.5C1132.289,524.167,1132.289,559.833,1132.289,596.833C1132.289,633.833,1132.289,672.167,1132.289,710.5C1132.289,748.833,1132.289,787.167,1132.289,828.167C1132.289,869.167,1132.289,912.833,1132.289,956.5C1132.289,1000.167,1132.289,1043.833,1068.967,1076.545C1005.645,1109.257,879.001,1131.014,815.678,1141.893L752.356,1152.771" id="my-svg-L_Check_Stop_0" class="edge-thickness-normal edge-pattern-solid edge-thickness-normal edge-pattern-solid flowchart-link" style=";" data-edge="true" data-et="edge" data-id="L_Check_Stop_0" data-points="W3sieCI6NzQ1LjEyMTk1Mzc0NjY4NDMsInkiOjI4Mi42NjcxMDg3NTMzMTU2M30seyJ4IjoxMTMyLjI4OTA2MjUsInkiOjM4MS41fSx7IngiOjExMzIuMjg5MDYyNSwieSI6NDg4LjV9LHsieCI6MTEzMi4yODkwNjI1LCJ5Ijo1OTUuNX0seyJ4IjoxMTMyLjI4OTA2MjUsInkiOjcxMC41fSx7IngiOjExMzIuMjg5MDYyNSwieSI6ODI1LjV9LHsieCI6MTEzMi4yODkwNjI1LCJ5Ijo5NTYuNX0seyJ4IjoxMTMyLjI4OTA2MjUsInkiOjEwODcuNX0seyJ4Ijo3NDguNDE0MDYyNSwieSI6MTE1My40NDg1ODI5MzA3NjE0fV0=" data-look="classic" marker-end="url(#my-svg_flowchart-v2-pointEnd)"/></g><g class="edgeLabels"><g class="edgeLabel"><g class="label" data-id="L_Start_Request_0" transform="translate(0, 0)"><text y="-10.1" text-anchor="middle"><tspan class="text-outer-tspan row" x="0" y="-0.1em" dy="1.1em" text-anchor="middle"/></text></g></g><g><rect class="background" style="stroke: none"/></g><g class="edgeLabel"><g class="label" data-id="L_Request_Check_0" transform="translate(0, 0)"><text y="-10.1" text-anchor="middle"><tspan class="text-outer-tspan row" x="0" y="-0.1em" dy="1.1em" text-anchor="middle"/></text></g></g><g><rect class="background" style="stroke: none"/></g><g class="edgeLabel" transform="translate(110, 381.5)"><g class="label" data-id="L_Check_Done_0" transform="translate(-0.046875, -10.5)"><g><rect class="background" style="" x="-52.6875" y="0" width="105.46875" height="21"/><text y="-10.1" text-anchor="middle" style=""><tspan class="text-outer-tspan row" x="0" y="-0.1em" dy="1.1em" text-anchor="middle"><tspan font-style="normal" class="text-inner-tspan" font-weight="normal">完整</tspan><tspan font-style="normal" class="text-inner-tspan" font-weight="normal"> message</tspan></tspan></text></g></g></g><g class="edgeLabel" transform="translate(333.5, 381.5)"><g class="label" data-id="L_Check_L1_0" transform="translate(0, -10.5)"><g><rect class="background" style="" x="-34" y="0" width="68" height="21"/><text y="-10.1" text-anchor="middle" style=""><tspan class="text-outer-tspan row" x="0" y="-0.1em" dy="1.1em" text-anchor="middle"><tspan font-style="normal" class="text-inner-tspan" font-weight="normal">输出截断</tspan></tspan></text></g></g></g><g class="edgeLabel" transform="translate(221.75, 595.5)"><g class="label" data-id="L_L1_L2_0" transform="translate(0, -10.5)"><g><rect class="background" style="" x="-10" y="0" width="20" height="21"/><text y="-10.1" text-anchor="middle" style=""><tspan class="text-outer-tspan row" x="0" y="-0.1em" dy="1.1em" text-anchor="middle"><tspan font-style="normal" class="text-inner-tspan" font-weight="normal">是</tspan></tspan></text></g></g></g><g class="edgeLabel" transform="translate(470.1640625, 595.5)"><g class="label" data-id="L_L1_L3_0" transform="translate(0, -10.5)"><g><rect class="background" style="" x="-10" y="0" width="20" height="21"/><text y="-10.1" text-anchor="middle" style=""><tspan class="text-outer-tspan row" x="0" y="-0.1em" dy="1.1em" text-anchor="middle"><tspan font-style="normal" class="text-inner-tspan" font-weight="normal">否</tspan></tspan></text></g></g></g><g class="edgeLabel" transform="translate(365.7890625, 956.5)"><g class="label" data-id="L_L3_Stop_0" transform="translate(0, -10.5)"><g><rect class="background" style="" x="-10" y="0" width="20" height="21"/><text y="-10.1" text-anchor="middle" style=""><tspan class="text-outer-tspan row" x="0" y="-0.1em" dy="1.1em" text-anchor="middle"><tspan font-style="normal" class="text-inner-tspan" font-weight="normal">否</tspan></tspan></text></g></g></g><g class="edgeLabel" transform="translate(540.4140625, 825.5)"><g class="label" data-id="L_L3_L4_0" transform="translate(0, -10.5)"><g><rect class="background" style="" x="-10" y="0" width="20" height="21"/><text y="-10.1" text-anchor="middle" style=""><tspan class="text-outer-tspan row" x="0" y="-0.1em" dy="1.1em" text-anchor="middle"><tspan font-style="normal" class="text-inner-tspan" font-weight="normal">是</tspan></tspan></text></g></g></g><g class="edgeLabel" transform="translate(392.88794, 1103.35187)"><g class="label" data-id="L_L4_L5_0" transform="translate(0, -10.5)"><g><rect class="background" style="" x="-10" y="0" width="20" height="21"/><text y="-10.1" text-anchor="middle" style=""><tspan class="text-outer-tspan row" x="0" y="-0.1em" dy="1.1em" text-anchor="middle"><tspan font-style="normal" class="text-inner-tspan" font-weight="normal">是</tspan></tspan></text></g></g></g><g class="edgeLabel" transform="translate(622.50048, 1078.00645)"><g class="label" data-id="L_L4_Stop_0" transform="translate(0, -10.5)"><g><rect class="background" style="" x="-10" y="0" width="20" height="21"/><text y="-10.1" text-anchor="middle" style=""><tspan class="text-outer-tspan row" x="0" y="-0.1em" dy="1.1em" text-anchor="middle"><tspan font-style="normal" class="text-inner-tspan" font-weight="normal">否</tspan></tspan></text></g></g></g><g class="edgeLabel" transform="translate(770.2890625, 595.5)"><g class="label" data-id="L_Check_C1_0" transform="translate(0, -10.5)"><g><rect class="background" style="" x="-42" y="0" width="84" height="21"/><text y="-10.1" text-anchor="middle" style=""><tspan class="text-outer-tspan row" x="0" y="-0.1em" dy="1.1em" text-anchor="middle"><tspan font-style="normal" class="text-inner-tspan" font-weight="normal">上下文超限</tspan></tspan></text></g></g></g><g class="edgeLabel" transform="translate(629.53429, 1098.26837)"><g class="label" data-id="L_C1_C2_0" transform="translate(0, -10.5)"><g><rect class="background" style="" x="-10" y="0" width="20" height="21"/><text y="-10.1" text-anchor="middle" style=""><tspan class="text-outer-tspan row" x="0" y="-0.1em" dy="1.1em" text-anchor="middle"><tspan font-style="normal" class="text-inner-tspan" font-weight="normal">否</tspan></tspan></text></g></g></g><g class="edgeLabel" transform="translate(847.74813, 1092.40637)"><g class="label" data-id="L_C1_Stop_0" transform="translate(0, -10.5)"><g><rect class="background" style="" x="-10" y="0" width="20" height="21"/><text y="-10.1" text-anchor="middle" style=""><tspan class="text-outer-tspan row" x="0" y="-0.1em" dy="1.1em" text-anchor="middle"><tspan font-style="normal" class="text-inner-tspan" font-weight="normal">是</tspan></tspan></text></g></g></g><g class="edgeLabel" transform="translate(1001.7890625, 595.5)"><g class="label" data-id="L_Check_R1_0" transform="translate(-0.05078125, -10.5)"><g><rect class="background" style="" x="-35.3671875" y="0" width="70.8359375" height="21"/><text y="-10.1" text-anchor="middle" style=""><tspan class="text-outer-tspan row" x="0" y="-0.1em" dy="1.1em" text-anchor="middle"><tspan font-style="normal" class="text-inner-tspan" font-weight="normal">429</tspan><tspan font-style="normal" class="text-inner-tspan" font-weight="normal"> /</tspan><tspan font-style="normal" class="text-inner-tspan" font-weight="normal"> 529</tspan></tspan></text></g></g></g><g class="edgeLabel" transform="translate(983.42848, 1088.97307)"><g class="label" data-id="L_R1_R2_0" transform="translate(0, -10.5)"><g><rect class="background" style="" x="-10" y="0" width="20" height="21"/><text y="-10.1" text-anchor="middle" style=""><tspan class="text-outer-tspan row" x="0" y="-0.1em" dy="1.1em" text-anchor="middle"><tspan font-style="normal" class="text-inner-tspan" font-weight="normal">是</tspan></tspan></text></g></g></g><g class="edgeLabel" transform="translate(1052.0390625, 1087.5)"><g class="label" data-id="L_R1_Stop_0" transform="translate(0, -10.5)"><g><rect class="background" style="" x="-10" y="0" width="20" height="21"/><text y="-10.1" text-anchor="middle" style=""><tspan class="text-outer-tspan row" x="0" y="-0.1em" dy="1.1em" text-anchor="middle"><tspan font-style="normal" class="text-inner-tspan" font-weight="normal">否</tspan></tspan></text></g></g></g><g class="edgeLabel" transform="translate(1132.2890625, 710.5)"><g class="label" data-id="L_Check_Stop_0" transform="translate(0, -10.5)"><g><rect class="background" style="" x="-34" y="0" width="68" height="21"/><text y="-10.1" text-anchor="middle" style=""><tspan class="text-outer-tspan row" x="0" y="-0.1em" dy="1.1em" text-anchor="middle"><tspan font-style="normal" class="text-inner-tspan" font-weight="normal">普通错误</tspan></tspan></text></g></g></g></g><g class="nodes"><g class="node default" id="my-svg-flowchart-Start-0" data-look="classic" transform="translate(681.7890625, 24)"><g class="basic label-container outer-path"><path d="M-11.5 -16 C-4.285733377189486 -16, 2.9285332456210273 -16, 11.5 -16 C11.5 -16, 11.499999999999998 -16, 11.499999999999998 -16 C11.905856614082488 -15.98698496833835, 12.311713228164978 -15.973969936676701, 12.525123519691405 -15.967126284005381 C12.877895009739548 -15.933094842630227, 13.23066649978769 -15.899063401255072, 13.546034586952095 -15.868640221171939 C13.782902894091167 -15.83034519021485, 14.019771201230242 -15.792050159257762, 14.558538059221954 -15.704946511857047 C14.946900113248498 -15.616305407324733, 15.335262167275044 -15.527664302792418, 15.558473342552116 -15.476717808624471 C15.834705269643383 -15.394733622634757, 16.11093719673465 -15.312749436645044, 16.54173148837793 -15.184891952170698 C16.91809661389619 -15.046386106898897, 17.294461739414448 -14.907880261627096, 17.504272078069985 -14.830668117536348 C17.714806189828177 -14.737470911533526, 17.92534030158637 -14.644273705530706, 18.44213982588093 -14.415501886438706 C18.718439725396493 -14.271356405839969, 18.994739624912054 -14.127210925241231, 19.351480832063 -13.941099265974232 C19.652484611944857 -13.758629005715296, 19.953488391826713 -13.57615874545636, 20.228558419368778 -13.409409678269451 C20.44247394842983 -13.260191465450466, 20.65638947749088 -13.110973252631482, 21.069768487859456 -12.822617949887306 C21.248025546106078 -12.680462689555164, 21.426282604352703 -12.538307429223021, 21.871654324924613 -12.183135333906153 C22.029126168350036 -12.040123572183843, 22.186598011775462 -11.897111810461535, 22.630920809655784 -11.493589601563642 C22.831461398635454 -11.286514978753575, 23.03200198761513 -11.079440355943506, 23.344447953205048 -10.756814244181072 C23.607397130419788 -10.447939178392597, 23.870346307634524 -10.13906411260412, 24.00930371948848 -9.975836829739738 C24.177217889802044 -9.750847138815168, 24.34513206011561 -9.5258574478906, 24.62275607355129 -9.153866561954718 C24.813844091554188 -8.860304051984752, 25.004932109557085 -8.566741542014784, 25.182284208085537 -8.294281092968403 C25.29787483118056 -8.089038236843374, 25.413465454275585 -7.883795380718346, 25.685588901968003 -7.400612643853364 C25.78914220845245 -7.185581987252598, 25.892695514936893 -6.9705513306518325, 26.130601968252996 -6.476533489958305 C26.207885475665663 -6.28564173247405, 26.285168983078332 -6.094749974989796, 26.515494752796165 -5.52584087074093 C26.581713726047262 -5.326399873869218, 26.64793269929836 -5.126958876997507, 26.83868564858657 -4.552441386096524 C26.90273206286257 -4.3082046505706035, 26.96677847713857 -4.0639679150446835, 27.098846594909176 -3.560334943301032 C27.16322302905996 -3.229775559900926, 27.227599463210748 -2.89921617650082, 27.2949085346312 -2.5535983205340735 C27.331265069496762 -2.2716242155266397, 27.367621604362323 -1.989650110519206, 27.42606580718717 -1.536368414522911 C27.443759569281347 -1.2607737877584433, 27.46145333137552 -0.9851791609939757, 27.491779459211006 -0.5128252411464826 C27.491779459211006 -0.233074144468287, 27.491779459211006 0.04667695220990864, 27.491779459211006 0.5128252411464788 C27.471875604812794 0.8228438395007228, 27.451971750414582 1.1328624378549668, 27.42606580718717 1.5363684145229002 C27.382943470132357 1.8708167452514222, 27.339821133077546 2.2052650759799444, 27.294908534631205 2.5535983205340624 C27.2195713509368 2.940438836285415, 27.144234167242395 3.3272793520367676, 27.098846594909176 3.5603349433010285 C27.010656606179158 3.896641592111487, 26.922466617449135 4.232948240921946, 26.83868564858657 4.552441386096513 C26.765616315894338 4.772514574148369, 26.692546983202107 4.992587762200224, 26.515494752796165 5.525840870740919 C26.418666273788084 5.765009085942167, 26.321837794780002 6.004177301143416, 26.130601968253 6.4765334899583005 C25.98416061128507 6.780622101045295, 25.83771925431714 7.0847107121322885, 25.685588901968003 7.400612643853361 C25.56307542772958 7.618147723198194, 25.44056195349115 7.835682802543028, 25.18228420808554 8.294281092968399 C24.960511928175542 8.634982869105686, 24.738739648265543 8.975684645242971, 24.622756073551297 9.15386656195471 C24.419934744120194 9.42562866598916, 24.217113414689088 9.697390770023613, 24.00930371948848 9.975836829739734 C23.76546288042401 10.262266154241663, 23.52162204135954 10.548695478743593, 23.344447953205055 10.756814244181063 C23.158243020652776 10.949086124750565, 22.972038088100497 11.141358005320068, 22.630920809655784 11.493589601563638 C22.468376870245173 11.641207706659388, 22.305832930834562 11.788825811755139, 21.871654324924627 12.183135333906142 C21.690761236593296 12.327392758083132, 21.509868148261965 12.471650182260122, 21.06976848785946 12.822617949887304 C20.734980519309268 13.056151544010342, 20.400192550759076 13.28968513813338, 20.228558419368788 13.409409678269446 C19.902733574427845 13.60692661403197, 19.5769087294869 13.804443549794494, 19.351480832063004 13.94109926597423 C19.05442182669745 14.096074758798066, 18.7573628213319 14.251050251621901, 18.442139825880933 14.415501886438705 C18.18714732224266 14.5283795037155, 17.93215481860438 14.641257120992297, 17.50427207806999 14.830668117536346 C17.2772012948187 14.914232264792133, 17.050130511567406 14.997796412047919, 16.54173148837794 15.184891952170695 C16.280938827051397 15.2622938451238, 16.02014616572485 15.339695738076905, 15.558473342552134 15.476717808624468 C15.16704308081141 15.566059211545616, 14.775612819070687 15.655400614466764, 14.558538059221961 15.704946511857045 C14.219148666539859 15.759816356861839, 13.879759273857756 15.814686201866632, 13.546034586952105 15.868640221171937 C13.230124901745048 15.899115648566879, 12.914215216537992 15.92959107596182, 12.525123519691405 15.967126284005381 C12.266350499710674 15.975424631085035, 12.00757747972994 15.98372297816469, 11.500000000000004 16 C11.500000000000002 16, 11.500000000000002 16, 11.5 16 C5.153413673172624 16, -1.1931726536547522 16, -11.499999999999996 16 C-11.850329822578406 15.988765604465543, -12.200659645156817 15.977531208931087, -12.5251235196914 15.967126284005381 C-12.741707560549534 15.946232682064215, -12.958291601407666 15.92533908012305, -13.5460345869521 15.868640221171937 C-13.895981551876888 15.812063509762142, -14.245928516801678 15.755486798352347, -14.558538059221956 15.704946511857045 C-14.918511533883324 15.62278491531204, -15.278485008544694 15.540623318767034, -15.558473342552112 15.476717808624471 C-15.937646334881574 15.364181254820739, -16.316819327211036 15.251644701017007, -16.541731488377923 15.184891952170702 C-16.82555798034762 15.080441179462522, -17.109384472317323 14.975990406754342, -17.504272078069988 14.830668117536348 C-17.710650747309753 14.739310402669613, -17.917029416549518 14.647952687802876, -18.44213982588093 14.415501886438708 C-18.645195505978627 14.30956786819511, -18.84825118607632 14.203633849951512, -19.351480832063 13.941099265974234 C-19.555992154635504 13.817123300388849, -19.760503477208005 13.693147334803463, -20.228558419368767 13.409409678269457 C-20.50418430647061 13.21714499107956, -20.77981019357245 13.024880303889665, -21.069768487859456 12.822617949887308 C-21.3437294167999 12.6041413994638, -21.617690345740346 12.385664849040293, -21.871654324924613 12.183135333906154 C-22.15044452445669 11.929945451075586, -22.429234723988774 11.676755568245017, -22.630920809655777 11.493589601563649 C-22.785961201014896 11.3334976684325, -22.94100159237401 11.173405735301353, -23.344447953205048 10.756814244181069 C-23.493331210230316 10.581927498781873, -23.64221446725558 10.407040753382676, -24.009303719488475 9.97583682973974 C-24.20384563975243 9.715168379719577, -24.39838756001638 9.454499929699416, -24.62275607355129 9.15386656195472 C-24.76795951297663 8.930795086414433, -24.913162952401976 8.707723610874146, -25.182284208085534 8.29428109296841 C-25.293115393990316 8.09748909951993, -25.4039465798951 7.90069710607145, -25.685588901968 7.400612643853366 C-25.784236205906915 7.195769406510034, -25.88288350984583 6.990926169166703, -26.130601968252996 6.476533489958307 C-26.282000900313687 6.102575200669186, -26.433399832374374 5.7286169113800645, -26.515494752796165 5.525840870740931 C-26.59038430802249 5.300285462429461, -26.665273863248817 5.07473005411799, -26.83868564858657 4.552441386096519 C-26.907850346310084 4.288686417507149, -26.977015044033596 4.024931448917779, -27.098846594909176 3.5603349433010343 C-27.15866339087568 3.253188338297338, -27.218480186842186 2.946041733293641, -27.2949085346312 2.5535983205340753 C-27.342093355148982 2.187642170294866, -27.389278175666767 1.8216860200556566, -27.42606580718717 1.5363684145229202 C-27.446529000297836 1.2176376642321487, -27.466992193408498 0.8989069139413773, -27.491779459211006 0.5128252411464846 C-27.491779459211006 0.21671323629806394, -27.491779459211006 -0.07939876855035677, -27.491779459211006 -0.5128252411464769 C-27.467859829111752 -0.8853927875202319, -27.443940199012502 -1.2579603338939869, -27.42606580718717 -1.5363684145228982 C-27.39029349118663 -1.8138114333803297, -27.354521175186086 -2.091254452237761, -27.294908534631205 -2.5535983205340678 C-27.23223458144504 -2.875415824000305, -27.169560628258882 -3.1972333274665425, -27.098846594909176 -3.5603349433010267 C-27.00359785485241 -3.9235596702025517, -26.908349114795644 -4.286784397104077, -26.838685648586573 -4.552441386096511 C-26.761594087410614 -4.784628885486276, -26.684502526234652 -5.016816384876041, -26.515494752796172 -5.525840870740911 C-26.386559057239307 -5.844314531568458, -26.25762336168244 -6.162788192396006, -26.130601968253 -6.476533489958299 C-26.014209831854572 -6.718224251582398, -25.897817695456148 -6.959915013206497, -25.685588901968003 -7.400612643853359 C-25.539255909870622 -7.660441689144497, -25.392922917773245 -7.9202707344356345, -25.182284208085537 -8.294281092968404 C-25.052558879400436 -8.49357403395699, -24.922833550715332 -8.692866974945577, -24.622756073551294 -9.153866561954715 C-24.42199612687174 -9.422866600897922, -24.221236180192186 -9.69186663984113, -24.00930371948848 -9.975836829739734 C-23.862593969358926 -10.148170450263178, -23.715884219229373 -10.320504070786622, -23.344447953205055 -10.756814244181063 C-23.150946164850218 -10.95662072744971, -22.95744437649538 -11.156427210718356, -22.63092080965579 -11.493589601563633 C-22.398476844870025 -11.704689060251773, -22.16603288008426 -11.915788518939916, -21.871654324924627 -12.18313533390614 C-21.564661473439273 -12.427953963542839, -21.257668621953922 -12.672772593179536, -21.069768487859463 -12.822617949887302 C-20.762345632372664 -13.037062825753969, -20.454922776885866 -13.251507701620634, -20.228558419368788 -13.409409678269444 C-19.879700424254995 -13.620889445024565, -19.5308424291412 -13.832369211779687, -19.351480832063007 -13.941099265974229 C-19.110644519660816 -14.066743415891432, -18.869808207258625 -14.192387565808636, -18.442139825880936 -14.415501886438705 C-18.09721814055077 -14.568188484796107, -17.752296455220606 -14.72087508315351, -17.504272078069995 -14.830668117536344 C-17.199953968232382 -14.942659995042357, -16.89563585839477 -15.054651872548368, -16.54173148837794 -15.184891952170695 C-16.15849489142791 -15.298634562495517, -15.775258294477878 -15.412377172820339, -15.558473342552134 -15.476717808624466 C-15.324508603693545 -15.530118733506335, -15.090543864834956 -15.583519658388203, -14.558538059221963 -15.704946511857043 C-14.230214399772247 -15.758027334928867, -13.901890740322532 -15.811108158000692, -13.546034586952107 -15.868640221171937 C-13.156165961755592 -15.906250378559022, -12.766297336559076 -15.943860535946108, -12.525123519691407 -15.967126284005381 C-12.261703385626356 -15.975573654988661, -11.998283251561304 -15.984021025971941, -11.500000000000005 -16 C-11.500000000000004 -16, -11.500000000000002 -16, -11.5 -16" stroke="none" stroke-width="0" fill="#eee" style=""/><path d="M-11.5 -16 C-2.8898725102596092 -16, 5.7202549794807815 -16, 11.5 -16 M-11.5 -16 C-4.541619167018093 -16, 2.416761665963813 -16, 11.5 -16 M11.5 -16 C11.5 -16, 11.499999999999998 -16, 11.499999999999998 -16 M11.5 -16 C11.5 -16, 11.499999999999998 -16, 11.499999999999998 -16 M11.499999999999998 -16 C11.853298363038391 -15.988670409150904, 12.206596726076786 -15.97734081830181, 12.525123519691405 -15.967126284005381 M11.499999999999998 -16 C11.797192695738564 -15.990469608698154, 12.094385391477132 -15.980939217396308, 12.525123519691405 -15.967126284005381 M12.525123519691405 -15.967126284005381 C12.806208950141013 -15.940010310584597, 13.08729438059062 -15.912894337163813, 13.546034586952095 -15.868640221171939 M12.525123519691405 -15.967126284005381 C12.731849750797595 -15.947183653115236, 12.938575981903785 -15.92724102222509, 13.546034586952095 -15.868640221171939 M13.546034586952095 -15.868640221171939 C13.831153585713869 -15.822544392582994, 14.116272584475642 -15.77644856399405, 14.558538059221954 -15.704946511857047 M13.546034586952095 -15.868640221171939 C13.921715550093667 -15.80790303650059, 14.29739651323524 -15.747165851829244, 14.558538059221954 -15.704946511857047 M14.558538059221954 -15.704946511857047 C14.860636734898037 -15.635994460512075, 15.16273541057412 -15.567042409167103, 15.558473342552116 -15.476717808624471 M14.558538059221954 -15.704946511857047 C14.83420937605129 -15.642026332714211, 15.109880692880624 -15.579106153571376, 15.558473342552116 -15.476717808624471 M15.558473342552116 -15.476717808624471 C15.861009403188303 -15.386926693871839, 16.16354546382449 -15.297135579119207, 16.54173148837793 -15.184891952170698 M15.558473342552116 -15.476717808624471 C15.841065976242463 -15.39284579830418, 16.12365860993281 -15.30897378798389, 16.54173148837793 -15.184891952170698 M16.54173148837793 -15.184891952170698 C16.845437692081678 -15.073125261778348, 17.149143895785425 -14.961358571385997, 17.504272078069985 -14.830668117536348 M16.54173148837793 -15.184891952170698 C16.740775660992128 -15.111641856704512, 16.93981983360632 -15.038391761238326, 17.504272078069985 -14.830668117536348 M17.504272078069985 -14.830668117536348 C17.75321242631437 -14.720469609921615, 18.002152774558756 -14.610271102306884, 18.44213982588093 -14.415501886438706 M17.504272078069985 -14.830668117536348 C17.71021462111427 -14.739503462799126, 17.916157164158562 -14.648338808061903, 18.44213982588093 -14.415501886438706 M18.44213982588093 -14.415501886438706 C18.687743797976598 -14.28737045151325, 18.933347770072263 -14.15923901658779, 19.351480832063 -13.941099265974232 M18.44213982588093 -14.415501886438706 C18.71423644617798 -14.273549253915938, 18.98633306647503 -14.13159662139317, 19.351480832063 -13.941099265974232 M19.351480832063 -13.941099265974232 C19.606313391458077 -13.786618270906592, 19.861145950853153 -13.632137275838952, 20.228558419368778 -13.409409678269451 M19.351480832063 -13.941099265974232 C19.545048132166972 -13.823757631123486, 19.738615432270944 -13.706415996272739, 20.228558419368778 -13.409409678269451 M20.228558419368778 -13.409409678269451 C20.434825258149775 -13.265526860683366, 20.64109209693077 -13.12164404309728, 21.069768487859456 -12.822617949887306 M20.228558419368778 -13.409409678269451 C20.524864386665847 -13.202719462361605, 20.82117035396292 -12.99602924645376, 21.069768487859456 -12.822617949887306 M21.069768487859456 -12.822617949887306 C21.33306801429349 -12.612643584250822, 21.59636754072753 -12.402669218614339, 21.871654324924613 -12.183135333906153 M21.069768487859456 -12.822617949887306 C21.347520182147523 -12.601118364975573, 21.625271876435587 -12.37961878006384, 21.871654324924613 -12.183135333906153 M21.871654324924613 -12.183135333906153 C22.050119439566064 -12.021058038716966, 22.22858455420752 -11.858980743527779, 22.630920809655784 -11.493589601563642 M21.871654324924613 -12.183135333906153 C22.160955909742285 -11.920399289075222, 22.45025749455996 -11.657663244244292, 22.630920809655784 -11.493589601563642 M22.630920809655784 -11.493589601563642 C22.900310402986143 -11.215422729153108, 23.169699996316503 -10.937255856742572, 23.344447953205048 -10.756814244181072 M22.630920809655784 -11.493589601563642 C22.788954136233027 -11.33040721709523, 22.946987462810267 -11.167224832626818, 23.344447953205048 -10.756814244181072 M23.344447953205048 -10.756814244181072 C23.55891744554991 -10.50488617481297, 23.773386937894767 -10.252958105444868, 24.00930371948848 -9.975836829739738 M23.344447953205048 -10.756814244181072 C23.532042830320187 -10.536454627070727, 23.71963770743533 -10.316095009960382, 24.00930371948848 -9.975836829739738 M24.00930371948848 -9.975836829739738 C24.18346675561406 -9.742474227910456, 24.357629791739637 -9.509111626081177, 24.62275607355129 -9.153866561954718 M24.00930371948848 -9.975836829739738 C24.19451855204987 -9.727665827525836, 24.37973338461126 -9.479494825311937, 24.62275607355129 -9.153866561954718 M24.62275607355129 -9.153866561954718 C24.761176551379958 -8.941215536907144, 24.899597029208625 -8.728564511859568, 25.182284208085537 -8.294281092968403 M24.62275607355129 -9.153866561954718 C24.776348616310948 -8.91790717090326, 24.9299411590706 -8.6819477798518, 25.182284208085537 -8.294281092968403 M25.182284208085537 -8.294281092968403 C25.296029297099274 -8.092315169485289, 25.40977438611301 -7.890349246002176, 25.685588901968003 -7.400612643853364 M25.182284208085537 -8.294281092968403 C25.346582009246166 -8.002553710051291, 25.51087981040679 -7.710826327134181, 25.685588901968003 -7.400612643853364 M25.685588901968003 -7.400612643853364 C25.838594863689536 -7.082892490535474, 25.991600825411066 -6.7651723372175825, 26.130601968252996 -6.476533489958305 M25.685588901968003 -7.400612643853364 C25.858374334948767 -7.041819995252789, 26.03115976792953 -6.683027346652214, 26.130601968252996 -6.476533489958305 M26.130601968252996 -6.476533489958305 C26.222478558631053 -6.2495965354114755, 26.314355149009106 -6.022659580864646, 26.515494752796165 -5.52584087074093 M26.130601968252996 -6.476533489958305 C26.27566406847109 -6.118227297834704, 26.420726168689182 -5.759921105711102, 26.515494752796165 -5.52584087074093 M26.515494752796165 -5.52584087074093 C26.592632273008928 -5.2935149500548935, 26.66976979322169 -5.061189029368858, 26.83868564858657 -4.552441386096524 M26.515494752796165 -5.52584087074093 C26.583522655362355 -5.32095166698591, 26.65155055792854 -5.116062463230891, 26.83868564858657 -4.552441386096524 M26.83868564858657 -4.552441386096524 C26.909525228418058 -4.2822993661309425, 26.980364808249547 -4.012157346165361, 27.098846594909176 -3.560334943301032 M26.83868564858657 -4.552441386096524 C26.93814029011068 -4.173177734050778, 27.037594931634796 -3.7939140820050326, 27.098846594909176 -3.560334943301032 M27.098846594909176 -3.560334943301032 C27.15227446079165 -3.285994143977983, 27.205702326674125 -3.0116533446549343, 27.2949085346312 -2.5535983205340735 M27.098846594909176 -3.560334943301032 C27.153543488925557 -3.2794779527195623, 27.208240382941938 -2.9986209621380926, 27.2949085346312 -2.5535983205340735 M27.2949085346312 -2.5535983205340735 C27.323671744021006 -2.330516548444889, 27.35243495341081 -2.107434776355704, 27.42606580718717 -1.536368414522911 M27.2949085346312 -2.5535983205340735 C27.339900531800417 -2.2046492751643916, 27.384892528969637 -1.85570022979471, 27.42606580718717 -1.536368414522911 M27.42606580718717 -1.536368414522911 C27.442511265576666 -1.2802171255714516, 27.45895672396616 -1.0240658366199922, 27.491779459211006 -0.5128252411464826 M27.42606580718717 -1.536368414522911 C27.443868496592785 -1.2590771569582422, 27.461671185998398 -0.9817858993935732, 27.491779459211006 -0.5128252411464826 M27.491779459211006 -0.5128252411464826 C27.491779459211006 -0.17346775840422762, 27.491779459211006 0.1658897243380274, 27.491779459211006 0.5128252411464788 M27.491779459211006 -0.5128252411464826 C27.491779459211006 -0.12775231435879703, 27.491779459211006 0.2573206124288886, 27.491779459211006 0.5128252411464788 M27.491779459211006 0.5128252411464788 C27.471994893790228 0.8209858173888754, 27.45221032836945 1.129146393631272, 27.42606580718717 1.5363684145229002 M27.491779459211006 0.5128252411464788 C27.475681708753328 0.7635606983951315, 27.459583958295646 1.0142961556437842, 27.42606580718717 1.5363684145229002 M27.42606580718717 1.5363684145229002 C27.39063557939872 1.8111582647603157, 27.355205351610266 2.085948114997731, 27.294908534631205 2.5535983205340624 M27.42606580718717 1.5363684145229002 C27.377088770188163 1.9162246418773474, 27.32811173318915 2.296080869231795, 27.294908534631205 2.5535983205340624 M27.294908534631205 2.5535983205340624 C27.245075618912463 2.8094798105593273, 27.19524270319372 3.0653613005845926, 27.098846594909176 3.5603349433010285 M27.294908534631205 2.5535983205340624 C27.23953921977869 2.8379080499928895, 27.184169904926172 3.122217779451716, 27.098846594909176 3.5603349433010285 M27.098846594909176 3.5603349433010285 C27.02068976439922 3.8583808114201052, 26.942532933889265 4.156426679539182, 26.83868564858657 4.552441386096513 M27.098846594909176 3.5603349433010285 C27.03973133707684 3.7857670421305354, 26.980616079244506 4.011199140960042, 26.83868564858657 4.552441386096513 M26.83868564858657 4.552441386096513 C26.765775221919444 4.772035974518986, 26.692864795252316 4.9916305629414595, 26.515494752796165 5.525840870740919 M26.83868564858657 4.552441386096513 C26.725167082765765 4.89434121962154, 26.61164851694496 5.236241053146568, 26.515494752796165 5.525840870740919 M26.515494752796165 5.525840870740919 C26.43782370951608 5.717689849310194, 26.360152666235997 5.909538827879468, 26.130601968253 6.4765334899583005 M26.515494752796165 5.525840870740919 C26.41251785211155 5.780195806354856, 26.309540951426932 6.0345507419687925, 26.130601968253 6.4765334899583005 M26.130601968253 6.4765334899583005 C25.992267253694262 6.763788484628245, 25.853932539135524 7.05104347929819, 25.685588901968003 7.400612643853361 M26.130601968253 6.4765334899583005 C26.0089465366186 6.729153596756381, 25.887291104984193 6.981773703554461, 25.685588901968003 7.400612643853361 M25.685588901968003 7.400612643853361 C25.538856780302236 7.661150384109419, 25.392124658636472 7.9216881243654775, 25.18228420808554 8.294281092968399 M25.685588901968003 7.400612643853361 C25.537916946525918 7.662819154147764, 25.390244991083833 7.925025664442168, 25.18228420808554 8.294281092968399 M25.18228420808554 8.294281092968399 C25.052700463501537 8.493356522757042, 24.923116718917537 8.692431952545682, 24.622756073551297 9.15386656195471 M25.18228420808554 8.294281092968399 C25.058783055760507 8.484012027642546, 24.935281903435474 8.673742962316691, 24.622756073551297 9.15386656195471 M24.622756073551297 9.15386656195471 C24.464384273398604 9.366070346191515, 24.306012473245907 9.57827413042832, 24.00930371948848 9.975836829739734 M24.622756073551297 9.15386656195471 C24.378078484974075 9.481712240061308, 24.133400896396854 9.809557918167906, 24.00930371948848 9.975836829739734 M24.00930371948848 9.975836829739734 C23.829669913284764 10.186844919959752, 23.65003610708105 10.39785301017977, 23.344447953205055 10.756814244181063 M24.00930371948848 9.975836829739734 C23.801393227381592 10.220060324210625, 23.59348273527471 10.464283818681517, 23.344447953205055 10.756814244181063 M23.344447953205055 10.756814244181063 C23.06651516818222 11.04380266342316, 22.788582383159387 11.330791082665254, 22.630920809655784 11.493589601563638 M23.344447953205055 10.756814244181063 C23.068663235161186 11.041584607907797, 22.792878517117316 11.326354971634533, 22.630920809655784 11.493589601563638 M22.630920809655784 11.493589601563638 C22.439558253739413 11.66738001167111, 22.248195697823046 11.84117042177858, 21.871654324924627 12.183135333906142 M22.630920809655784 11.493589601563638 C22.35531897823327 11.743883892836697, 22.079717146810758 11.994178184109757, 21.871654324924627 12.183135333906142 M21.871654324924627 12.183135333906142 C21.64086182981425 12.36718620711044, 21.410069334703874 12.551237080314738, 21.06976848785946 12.822617949887304 M21.871654324924627 12.183135333906142 C21.551162824347724 12.438718776979213, 21.23067132377082 12.694302220052283, 21.06976848785946 12.822617949887304 M21.06976848785946 12.822617949887304 C20.85040060609352 12.975639487924676, 20.631032724327575 13.12866102596205, 20.228558419368788 13.409409678269446 M21.06976848785946 12.822617949887304 C20.81051843295584 13.003459565434072, 20.551268378052217 13.18430118098084, 20.228558419368788 13.409409678269446 M20.228558419368788 13.409409678269446 C19.893024461535898 13.612812335324147, 19.557490503703008 13.81621499237885, 19.351480832063004 13.94109926597423 M20.228558419368788 13.409409678269446 C19.926546251671137 13.59249122914826, 19.62453408397349 13.775572780027074, 19.351480832063004 13.94109926597423 M19.351480832063004 13.94109926597423 C19.048734508161328 14.099041829235459, 18.74598818425965 14.256984392496689, 18.442139825880933 14.415501886438705 M19.351480832063004 13.94109926597423 C19.04675752215501 14.100073221568637, 18.74203421224701 14.259047177163044, 18.442139825880933 14.415501886438705 M18.442139825880933 14.415501886438705 C18.223634728937245 14.51222761113227, 18.005129631993558 14.608953335825836, 17.50427207806999 14.830668117536346 M18.442139825880933 14.415501886438705 C18.197777992295485 14.523673621430737, 17.953416158710034 14.63184535642277, 17.50427207806999 14.830668117536346 M17.50427207806999 14.830668117536346 C17.197953506957024 14.94339618328375, 16.891634935844053 15.056124249031154, 16.54173148837794 15.184891952170695 M17.50427207806999 14.830668117536346 C17.279556566646427 14.913365502987634, 17.054841055222862 14.996062888438923, 16.54173148837794 15.184891952170695 M16.54173148837794 15.184891952170695 C16.32390537072144 15.249541600498521, 16.10607925306494 15.314191248826347, 15.558473342552134 15.476717808624468 M16.54173148837794 15.184891952170695 C16.153705227734573 15.300056109538241, 15.765678967091205 15.41522026690579, 15.558473342552134 15.476717808624468 M15.558473342552134 15.476717808624468 C15.181938941192607 15.562659328618182, 14.80540453983308 15.648600848611895, 14.558538059221961 15.704946511857045 M15.558473342552134 15.476717808624468 C15.171650102318559 15.565007688950235, 14.784826862084982 15.653297569276, 14.558538059221961 15.704946511857045 M14.558538059221961 15.704946511857045 C14.227687142300883 15.758435922317664, 13.896836225379808 15.811925332778284, 13.546034586952105 15.868640221171937 M14.558538059221961 15.704946511857045 C14.308014253109052 15.745449257988248, 14.057490446996141 15.78595200411945, 13.546034586952105 15.868640221171937 M13.546034586952105 15.868640221171937 C13.25594147394299 15.896625154895913, 12.965848360933874 15.924610088619891, 12.525123519691405 15.967126284005381 M13.546034586952105 15.868640221171937 C13.311812713096241 15.891235323649795, 13.07759083924038 15.913830426127655, 12.525123519691405 15.967126284005381 M12.525123519691405 15.967126284005381 C12.12157308250584 15.980067361062648, 11.718022645320275 15.993008438119913, 11.500000000000004 16 M12.525123519691405 15.967126284005381 C12.151614411264127 15.97910399412127, 11.778105302836849 15.991081704237155, 11.500000000000004 16 M11.500000000000004 16 C11.500000000000002 16, 11.500000000000002 16, 11.5 16 M11.500000000000004 16 C11.500000000000002 16, 11.500000000000002 16, 11.5 16 M11.5 16 C3.076514976703633 16, -5.346970046592734 16, -11.499999999999996 16 M11.5 16 C2.3508704134772795 16, -6.798259173045441 16, -11.499999999999996 16 M-11.499999999999996 16 C-11.776012067633227 15.9911488302159, -12.052024135266455 15.9822976604318, -12.5251235196914 15.967126284005381 M-11.499999999999996 16 C-11.80533290750031 15.990208567950916, -12.11066581500062 15.980417135901831, -12.5251235196914 15.967126284005381 M-12.5251235196914 15.967126284005381 C-12.885475625570674 15.932363549738021, -13.245827731449946 15.897600815470662, -13.5460345869521 15.868640221171937 M-12.5251235196914 15.967126284005381 C-12.74596411206815 15.945822057658468, -12.966804704444897 15.924517831311553, -13.5460345869521 15.868640221171937 M-13.5460345869521 15.868640221171937 C-13.848365990654978 15.819761624436309, -14.150697394357856 15.770883027700679, -14.558538059221956 15.704946511857045 M-13.5460345869521 15.868640221171937 C-13.754911724410128 15.834870585454116, -13.963788861868158 15.801100949736297, -14.558538059221956 15.704946511857045 M-14.558538059221956 15.704946511857045 C-14.823610530785155 15.644445449982276, -15.088683002348352 15.583944388107508, -15.558473342552112 15.476717808624471 M-14.558538059221956 15.704946511857045 C-14.895268819765969 15.628089913136442, -15.231999580309981 15.551233314415839, -15.558473342552112 15.476717808624471 M-15.558473342552112 15.476717808624471 C-15.76635658330577 15.415019153970185, -15.974239824059426 15.353320499315897, -16.541731488377923 15.184891952170702 M-15.558473342552112 15.476717808624471 C-15.815141357915156 15.400540088942625, -16.0718093732782 15.32436236926078, -16.541731488377923 15.184891952170702 M-16.541731488377923 15.184891952170702 C-16.872558213140195 15.063144659329465, -17.203384937902467 14.94139736648823, -17.504272078069988 14.830668117536348 M-16.541731488377923 15.184891952170702 C-16.749630182052073 15.108383311104157, -16.957528875726222 15.031874670037613, -17.504272078069988 14.830668117536348 M-17.504272078069988 14.830668117536348 C-17.804889499579186 14.697593702533196, -18.105506921088388 14.564519287530043, -18.44213982588093 14.415501886438708 M-17.504272078069988 14.830668117536348 C-17.76839723661124 14.713747744844587, -18.03252239515249 14.596827372152825, -18.44213982588093 14.415501886438708 M-18.44213982588093 14.415501886438708 C-18.74222203133996 14.258949192062557, -19.04230423679899 14.102396497686408, -19.351480832063 13.941099265974234 M-18.44213982588093 14.415501886438708 C-18.7909856133697 14.233509262552209, -19.139831400858466 14.051516638665708, -19.351480832063 13.941099265974234 M-19.351480832063 13.941099265974234 C-19.672173667578942 13.74669338448418, -19.992866503094884 13.552287502994126, -20.228558419368767 13.409409678269457 M-19.351480832063 13.941099265974234 C-19.532569667781363 13.83132214956564, -19.713658503499726 13.721545033157044, -20.228558419368767 13.409409678269457 M-20.228558419368767 13.409409678269457 C-20.468754059319245 13.241859597741673, -20.70894969926972 13.07430951721389, -21.069768487859456 12.822617949887308 M-20.228558419368767 13.409409678269457 C-20.432496147115273 13.267151547715441, -20.63643387486178 13.124893417161427, -21.069768487859456 12.822617949887308 M-21.069768487859456 12.822617949887308 C-21.35683087011486 12.593693339089437, -21.64389325237026 12.364768728291565, -21.871654324924613 12.183135333906154 M-21.069768487859456 12.822617949887308 C-21.26007230861746 12.670855717030152, -21.450376129375464 12.519093484172998, -21.871654324924613 12.183135333906154 M-21.871654324924613 12.183135333906154 C-22.126729002771626 11.951483260391644, -22.38180368061864 11.719831186877135, -22.630920809655777 11.493589601563649 M-21.871654324924613 12.183135333906154 C-22.052018715119953 12.019333166911004, -22.232383105315293 11.855530999915851, -22.630920809655777 11.493589601563649 M-22.630920809655777 11.493589601563649 C-22.802770890812543 11.316140283615228, -22.974620971969312 11.13869096566681, -23.344447953205048 10.756814244181069 M-22.630920809655777 11.493589601563649 C-22.79105500545951 11.328237897134315, -22.95118920126324 11.162886192704981, -23.344447953205048 10.756814244181069 M-23.344447953205048 10.756814244181069 C-23.529583109750295 10.539343954814186, -23.71471826629554 10.321873665447303, -24.009303719488475 9.97583682973974 M-23.344447953205048 10.756814244181069 C-23.58061082245479 10.479403899912377, -23.816773691704533 10.201993555643687, -24.009303719488475 9.97583682973974 M-24.009303719488475 9.97583682973974 C-24.13853594019468 9.802677427290932, -24.267768160900882 9.629518024842126, -24.62275607355129 9.15386656195472 M-24.009303719488475 9.97583682973974 C-24.252164687018592 9.650425258338679, -24.495025654548712 9.32501368693762, -24.62275607355129 9.15386656195472 M-24.62275607355129 9.15386656195472 C-24.76884339111311 8.929437212242291, -24.91493070867493 8.705007862529861, -25.182284208085534 8.29428109296841 M-24.62275607355129 9.15386656195472 C-24.816241226011137 8.856621409738151, -25.00972637847098 8.559376257521585, -25.182284208085534 8.29428109296841 M-25.182284208085534 8.29428109296841 C-25.30255791183921 8.080722952920606, -25.422831615592884 7.867164812872803, -25.685588901968 7.400612643853366 M-25.182284208085534 8.29428109296841 C-25.33790141835866 8.0179669781772, -25.493518628631787 7.7416528633859905, -25.685588901968 7.400612643853366 M-25.685588901968 7.400612643853366 C-25.862727951941732 7.032779616414415, -26.039867001915464 6.664946588975464, -26.130601968252996 6.476533489958307 M-25.685588901968 7.400612643853366 C-25.84622900938152 7.067040023661512, -26.00686911679504 6.7334674034696596, -26.130601968252996 6.476533489958307 M-26.130601968252996 6.476533489958307 C-26.213592814283697 6.271544495743625, -26.296583660314397 6.066555501528944, -26.515494752796165 5.525840870740931 M-26.130601968252996 6.476533489958307 C-26.214540504313547 6.269203683047551, -26.2984790403741 6.061873876136795, -26.515494752796165 5.525840870740931 M-26.515494752796165 5.525840870740931 C-26.622937643998064 5.202240001140754, -26.730380535199966 4.878639131540576, -26.83868564858657 4.552441386096519 M-26.515494752796165 5.525840870740931 C-26.635304664027576 5.164992507228926, -26.755114575258983 4.804144143716921, -26.83868564858657 4.552441386096519 M-26.83868564858657 4.552441386096519 C-26.92953567782227 4.205990849969056, -27.02038570705797 3.8595403138415927, -27.098846594909176 3.5603349433010343 M-26.83868564858657 4.552441386096519 C-26.916796191535244 4.254572032509761, -26.99490673448392 3.956702678923002, -27.098846594909176 3.5603349433010343 M-27.098846594909176 3.5603349433010343 C-27.14001050117278 3.3489669846320904, -27.181174407436387 3.1375990259631465, -27.2949085346312 2.5535983205340753 M-27.098846594909176 3.5603349433010343 C-27.1741155276436 3.173844881804338, -27.249384460378025 2.7873548203076415, -27.2949085346312 2.5535983205340753 M-27.2949085346312 2.5535983205340753 C-27.33178304270964 2.267606917572922, -27.368657550788082 1.9816155146117684, -27.42606580718717 1.5363684145229202 M-27.2949085346312 2.5535983205340753 C-27.327000174242748 2.304701900917947, -27.359091813854295 2.0558054813018187, -27.42606580718717 1.5363684145229202 M-27.42606580718717 1.5363684145229202 C-27.441541553521475 1.29532117356856, -27.457017299855774 1.0542739326141997, -27.491779459211006 0.5128252411464846 M-27.42606580718717 1.5363684145229202 C-27.4409672976807 1.3042656718195658, -27.45586878817423 1.0721629291162116, -27.491779459211006 0.5128252411464846 M-27.491779459211006 0.5128252411464846 C-27.491779459211006 0.2522838461032037, -27.491779459211006 -0.008257548940077242, -27.491779459211006 -0.5128252411464769 M-27.491779459211006 0.5128252411464846 C-27.491779459211006 0.23485705307225074, -27.491779459211006 -0.04311113500198316, -27.491779459211006 -0.5128252411464769 M-27.491779459211006 -0.5128252411464769 C-27.476001857250186 -0.7585741271373603, -27.46022425528936 -1.0043230131282437, -27.42606580718717 -1.5363684145228982 M-27.491779459211006 -0.5128252411464769 C-27.474739037355143 -0.7782435663325207, -27.457698615499275 -1.0436618915185645, -27.42606580718717 -1.5363684145228982 M-27.42606580718717 -1.5363684145228982 C-27.38624393410461 -1.8452189984329754, -27.346422061022047 -2.1540695823430527, -27.294908534631205 -2.5535983205340678 M-27.42606580718717 -1.5363684145228982 C-27.39912013196538 -1.7453537505177192, -27.372174456743583 -1.9543390865125405, -27.294908534631205 -2.5535983205340678 M-27.294908534631205 -2.5535983205340678 C-27.237603264504987 -2.84784877115906, -27.18029799437877 -3.1420992217840524, -27.098846594909176 -3.5603349433010267 M-27.294908534631205 -2.5535983205340678 C-27.227778372615827 -2.8982975145182537, -27.160648210600453 -3.242996708502439, -27.098846594909176 -3.5603349433010267 M-27.098846594909176 -3.5603349433010267 C-27.019926762307335 -3.8612904690836594, -26.941006929705498 -4.162245994866292, -26.838685648586573 -4.552441386096511 M-27.098846594909176 -3.5603349433010267 C-27.005974838809443 -3.914495200183019, -26.91310308270971 -4.2686554570650115, -26.838685648586573 -4.552441386096511 M-26.838685648586573 -4.552441386096511 C-26.711750994896107 -4.934748338721638, -26.584816341205645 -5.317055291346766, -26.515494752796172 -5.525840870740911 M-26.838685648586573 -4.552441386096511 C-26.76357339342842 -4.778667531120231, -26.688461138270267 -5.00489367614395, -26.515494752796172 -5.525840870740911 M-26.515494752796172 -5.525840870740911 C-26.38470800652029 -5.848886662632058, -26.25392126024441 -6.171932454523205, -26.130601968253 -6.476533489958299 M-26.515494752796172 -5.525840870740911 C-26.415489707613794 -5.7728552658074035, -26.315484662431412 -6.019869660873897, -26.130601968253 -6.476533489958299 M-26.130601968253 -6.476533489958299 C-25.964426039571762 -6.8216013614601705, -25.79825011089052 -7.166669232962042, -25.685588901968003 -7.400612643853359 M-26.130601968253 -6.476533489958299 C-26.022366068695433 -6.701287651266842, -25.914130169137866 -6.926041812575385, -25.685588901968003 -7.400612643853359 M-25.685588901968003 -7.400612643853359 C-25.561577060705595 -7.620808225575386, -25.43756521944319 -7.841003807297413, -25.182284208085537 -8.294281092968404 M-25.685588901968003 -7.400612643853359 C-25.548325573083517 -7.644337583707017, -25.41106224419903 -7.8880625235606745, -25.182284208085537 -8.294281092968404 M-25.182284208085537 -8.294281092968404 C-25.056145909587624 -8.488063392336997, -24.93000761108971 -8.681845691705588, -24.622756073551294 -9.153866561954715 M-25.182284208085537 -8.294281092968404 C-25.03897974811361 -8.514435226120863, -24.895675288141682 -8.734589359273322, -24.622756073551294 -9.153866561954715 M-24.622756073551294 -9.153866561954715 C-24.495299228772073 -9.324647122401439, -24.36784238399285 -9.495427682848161, -24.00930371948848 -9.975836829739734 M-24.622756073551294 -9.153866561954715 C-24.49839559969734 -9.320498267446778, -24.37403512584338 -9.487129972938842, -24.00930371948848 -9.975836829739734 M-24.00930371948848 -9.975836829739734 C-23.874772540216085 -10.133864807954046, -23.740241360943692 -10.291892786168358, -23.344447953205055 -10.756814244181063 M-24.00930371948848 -9.975836829739734 C-23.816512540530947 -10.202300318672105, -23.623721361573413 -10.428763807604476, -23.344447953205055 -10.756814244181063 M-23.344447953205055 -10.756814244181063 C-23.161660516741055 -10.945557279457772, -22.978873080277054 -11.134300314734482, -22.63092080965579 -11.493589601563633 M-23.344447953205055 -10.756814244181063 C-23.07312820733734 -11.036974157554887, -22.801808461469623 -11.317134070928711, -22.63092080965579 -11.493589601563633 M-22.63092080965579 -11.493589601563633 C-22.34664358264084 -11.751762657575354, -22.06236635562589 -12.009935713587074, -21.871654324924627 -12.18313533390614 M-22.63092080965579 -11.493589601563633 C-22.36270531894698 -11.737175813632374, -22.094489828238167 -11.980762025701116, -21.871654324924627 -12.18313533390614 M-21.871654324924627 -12.18313533390614 C-21.686431210468115 -12.330845838691129, -21.501208096011606 -12.478556343476116, -21.069768487859463 -12.822617949887302 M-21.871654324924627 -12.18313533390614 C-21.568081486274597 -12.425226594317031, -21.264508647624567 -12.667317854727923, -21.069768487859463 -12.822617949887302 M-21.069768487859463 -12.822617949887302 C-20.763028290515685 -13.036586632985191, -20.45628809317191 -13.250555316083078, -20.228558419368788 -13.409409678269444 M-21.069768487859463 -12.822617949887302 C-20.768573046710255 -13.032718851092486, -20.467377605561047 -13.24281975229767, -20.228558419368788 -13.409409678269444 M-20.228558419368788 -13.409409678269444 C-20.051750584025736 -13.516591627092573, -19.874942748682685 -13.623773575915704, -19.351480832063007 -13.941099265974229 M-20.228558419368788 -13.409409678269444 C-19.961799267000483 -13.571120644085896, -19.695040114632178 -13.73283160990235, -19.351480832063007 -13.941099265974229 M-19.351480832063007 -13.941099265974229 C-19.159455310254433 -14.041278857703546, -18.96742978844586 -14.141458449432863, -18.442139825880936 -14.415501886438705 M-19.351480832063007 -13.941099265974229 C-19.13560172253485 -14.0537232591379, -18.919722613006694 -14.16634725230157, -18.442139825880936 -14.415501886438705 M-18.442139825880936 -14.415501886438705 C-18.13343015185261 -14.552158501583932, -17.824720477824282 -14.68881511672916, -17.504272078069995 -14.830668117536344 M-18.442139825880936 -14.415501886438705 C-18.100042264242497 -14.566938329012432, -17.757944702604057 -14.718374771586161, -17.504272078069995 -14.830668117536344 M-17.504272078069995 -14.830668117536344 C-17.244972121842476 -14.926092898370591, -16.985672165614957 -15.021517679204837, -16.54173148837794 -15.184891952170695 M-17.504272078069995 -14.830668117536344 C-17.301550394112926 -14.90527157117125, -17.098828710155857 -14.979875024806155, -16.54173148837794 -15.184891952170695 M-16.54173148837794 -15.184891952170695 C-16.20329748810465 -15.28533738697549, -15.864863487831354 -15.385782821780284, -15.558473342552134 -15.476717808624466 M-16.54173148837794 -15.184891952170695 C-16.230499511096507 -15.277263969337838, -15.919267533815072 -15.369635986504981, -15.558473342552134 -15.476717808624466 M-15.558473342552134 -15.476717808624466 C-15.171476902314014 -15.565047220721034, -14.784480462075894 -15.653376632817602, -14.558538059221963 -15.704946511857043 M-15.558473342552134 -15.476717808624466 C-15.195926848891752 -15.559466679965478, -14.833380355231368 -15.64221555130649, -14.558538059221963 -15.704946511857043 M-14.558538059221963 -15.704946511857043 C-14.247979076730509 -15.755155279725383, -13.937420094239057 -15.805364047593722, -13.546034586952107 -15.868640221171937 M-14.558538059221963 -15.704946511857043 C-14.23328881069312 -15.757530288013594, -13.908039562164275 -15.810114064170143, -13.546034586952107 -15.868640221171937 M-13.546034586952107 -15.868640221171937 C-13.33083130660772 -15.88940062280695, -13.115628026263336 -15.91016102444196, -12.525123519691407 -15.967126284005381 M-13.546034586952107 -15.868640221171937 C-13.16072140611346 -15.905810920320542, -12.775408225274813 -15.942981619469148, -12.525123519691407 -15.967126284005381 M-12.525123519691407 -15.967126284005381 C-12.14519541572454 -15.979309838814407, -11.765267311757675 -15.991493393623431, -11.500000000000005 -16 M-12.525123519691407 -15.967126284005381 C-12.138989852092605 -15.979508839161685, -11.752856184493805 -15.99189139431799, -11.500000000000005 -16 M-11.500000000000005 -16 C-11.500000000000004 -16, -11.500000000000002 -16, -11.5 -16 M-11.500000000000005 -16 C-11.500000000000004 -16, -11.500000000000002 -16, -11.5 -16" stroke="#999" stroke-width="1.3" fill="none" stroke-dasharray="0 0" style=""/></g><g class="label" style="" transform="translate(0, -8.5)"><rect/><g><rect class="background" style="stroke: none"/><text y="-10.1" style=""><tspan class="text-outer-tspan row" x="0" y="-0.1em" dy="1.1em"><tspan font-style="normal" class="text-inner-tspan" font-weight="normal">开始</tspan></tspan></text></g></g></g><g class="node default" id="my-svg-flowchart-Request-1" data-look="classic" transform="translate(681.7890625, 113.5)"><rect class="basic label-container" style="" x="-86.08203125" y="-23.5" width="172.1640625" height="47"/><g class="label" style="" transform="translate(0, -8.5)"><rect/><g><rect class="background" style="stroke: none"/><text y="-10.1" style=""><tspan class="text-outer-tspan row" x="0" y="-0.1em" dy="1.1em"><tspan font-style="normal" class="text-inner-tspan" font-weight="normal">请求</tspan><tspan font-style="normal" class="text-inner-tspan" font-weight="normal"> DeepSeek</tspan></tspan></text></g></g></g><g class="node default" id="my-svg-flowchart-Check-3" data-look="classic" transform="translate(681.7890625, 266.5)"><polygon points="79.5,0 159,-79.5 79.5,-159 0,-79.5" class="label-container" transform="translate(-79, 79.5)"/><g class="label" style="" transform="translate(0, -8.5)"><rect/><g><rect class="background" style="stroke: none"/><text y="-10.1" style=""><tspan class="text-outer-tspan row" x="0" y="-0.1em" dy="1.1em"><tspan font-style="normal" class="text-inner-tspan" font-weight="normal">返回什么信号？</tspan></tspan></text></g></g></g><g class="node default" id="my-svg-flowchart-Done-5" data-look="classic" transform="translate(110, 488.5)"><rect class="basic label-container" style="" x="-102" y="-32.29999923706055" width="204" height="64.5999984741211"/><g class="label" style="" transform="translate(0, -17.299999237060547)"><rect/><g><rect class="background" style="stroke: none"/><text y="-10.1" style=""><tspan class="text-outer-tspan row" x="0" y="-0.1em" dy="1.1em"><tspan font-style="normal" class="text-inner-tspan" font-weight="normal">回到</tspan><tspan font-style="normal" class="text-inner-tspan" font-weight="normal"> Agent</tspan><tspan font-style="normal" class="text-inner-tspan" font-weight="normal"> Loop</tspan></tspan><tspan class="text-outer-tspan row" x="0" y="1em" dy="1.1em"><tspan font-style="normal" class="text-inner-tspan" font-weight="normal">执行工具或输出答案</tspan></tspan></text></g></g></g><g class="node default" id="my-svg-flowchart-L1-7" data-look="classic" transform="translate(333.5, 488.5)"><polygon points="71.5,0 143,-71.5 71.5,-143 0,-71.5" class="label-container" transform="translate(-71, 71.5)"/><g class="label" style="" transform="translate(0, -8.5)"><rect/><g><rect class="background" style="stroke: none"/><text y="-10.1" style=""><tspan class="text-outer-tspan row" x="0" y="-0.1em" dy="1.1em"><tspan font-style="normal" class="text-inner-tspan" font-weight="normal">第一次截断？</tspan></tspan></text></g></g></g><g class="node default" id="my-svg-flowchart-L2-9" data-look="classic" transform="translate(221.75, 710.5)"><rect class="basic label-container" style="" x="-118.9140625" y="-32.29999923706055" width="237.828125" height="64.5999984741211"/><g class="label" style="" transform="translate(0, -17.299999237060547)"><rect/><g><rect class="background" style="stroke: none"/><text y="-10.1" style=""><tspan class="text-outer-tspan row" x="0" y="-0.1em" dy="1.1em"><tspan font-style="normal" class="text-inner-tspan" font-weight="normal">扩大输出上限</tspan></tspan><tspan class="text-outer-tspan row" x="0" y="1em" dy="1.1em"><tspan font-style="normal" class="text-inner-tspan" font-weight="normal">用原</tspan><tspan font-style="normal" class="text-inner-tspan" font-weight="normal"> messages</tspan><tspan font-style="normal" class="text-inner-tspan" font-weight="normal"> 重新请求</tspan></tspan></text></g></g></g><g class="node default" id="my-svg-flowchart-L3-11" data-look="classic" transform="translate(470.1640625, 710.5)"><polygon points="79.5,0 159,-79.5 79.5,-159 0,-79.5" class="label-container" transform="translate(-79, 79.5)"/><g class="label" style="" transform="translate(0, -8.5)"><rect/><g><rect class="background" style="stroke: none"/><text y="-10.1" style=""><tspan class="text-outer-tspan row" x="0" y="-0.1em" dy="1.1em"><tspan font-style="normal" class="text-inner-tspan" font-weight="normal">工具调用完整？</tspan></tspan></text></g></g></g><g class="node default" id="my-svg-flowchart-Stop-13" data-look="classic" transform="translate(686.4140625, 1164.099998474121)"><rect class="basic label-container" style="" x="-62" y="-23.5" width="124" height="47"/><g class="label" style="" transform="translate(0, -8.5)"><rect/><g><rect class="background" style="stroke: none"/><text y="-10.1" style=""><tspan class="text-outer-tspan row" x="0" y="-0.1em" dy="1.1em"><tspan font-style="normal" class="text-inner-tspan" font-weight="normal">明确停止</tspan></tspan></text></g></g></g><g class="node default" id="my-svg-flowchart-L4-15" data-look="classic" transform="translate(540.4140625, 956.5)"><polygon points="95.5,0 191,-95.5 95.5,-191 0,-95.5" class="label-container" transform="translate(-95, 95.5)"/><g class="label" style="" transform="translate(0, -8.5)"><rect/><g><rect class="background" style="stroke: none"/><text y="-10.1" style=""><tspan class="text-outer-tspan row" x="0" y="-0.1em" dy="1.1em"><tspan font-style="normal" class="text-inner-tspan" font-weight="normal">续写次数还没用完？</tspan></tspan></text></g></g></g><g class="node default" id="my-svg-flowchart-L5-17" data-look="classic" transform="translate(170.0390625, 1164.099998474121)"><rect class="basic label-container" style="" x="-78" y="-41.099998474121094" width="156" height="82.19999694824219"/><g class="label" style="" transform="translate(0, -26.099998474121094)"><rect/><g><rect class="background" style="stroke: none"/><text y="-10.1" style=""><tspan class="text-outer-tspan row" x="0" y="-0.1em" dy="1.1em"><tspan font-style="normal" class="text-inner-tspan" font-weight="normal">保存文本片段</tspan></tspan><tspan class="text-outer-tspan row" x="0" y="1em" dy="1.1em"><tspan font-style="normal" class="text-inner-tspan" font-weight="normal">追加续写提示</tspan></tspan><tspan class="text-outer-tspan row" x="0" y="2.1em" dy="1.1em"><tspan font-style="normal" class="text-inner-tspan" font-weight="normal">重新请求</tspan></tspan></text></g></g></g><g class="node default" id="my-svg-flowchart-C1-21" data-look="classic" transform="translate(770.2890625, 956.5)"><polygon points="71.5,0 143,-71.5 71.5,-143 0,-71.5" class="label-container" transform="translate(-71, 71.5)"/><g class="label" style="" transform="translate(0, -8.5)"><rect/><g><rect class="background" style="stroke: none"/><text y="-10.1" style=""><tspan class="text-outer-tspan row" x="0" y="-0.1em" dy="1.1em"><tspan font-style="normal" class="text-inner-tspan" font-weight="normal">已经压缩过？</tspan></tspan></text></g></g></g><g class="node default" id="my-svg-flowchart-C2-23" data-look="classic" transform="translate(388.7890625, 1164.099998474121)"><rect class="basic label-container" style="" x="-90.75" y="-32.29999923706055" width="181.5" height="64.5999984741211"/><g class="label" style="" transform="translate(0, -17.299999237060547)"><rect/><g><rect class="background" style="stroke: none"/><text y="-10.1" style=""><tspan class="text-outer-tspan row" x="0" y="-0.1em" dy="1.1em"><tspan font-style="normal" class="text-inner-tspan" font-weight="normal">reactive</tspan><tspan font-style="normal" class="text-inner-tspan" font-weight="normal"> compact</tspan></tspan><tspan class="text-outer-tspan row" x="0" y="1em" dy="1.1em"><tspan font-style="normal" class="text-inner-tspan" font-weight="normal">重新请求</tspan></tspan></text></g></g></g><g class="node default" id="my-svg-flowchart-R1-27" data-look="classic" transform="translate(1001.7890625, 956.5)"><polygon points="95.5,0 191,-95.5 95.5,-191 0,-95.5" class="label-container" transform="translate(-95, 95.5)"/><g class="label" style="" transform="translate(0, -8.5)"><rect/><g><rect class="background" style="stroke: none"/><text y="-10.1" style=""><tspan class="text-outer-tspan row" x="0" y="-0.1em" dy="1.1em"><tspan font-style="normal" class="text-inner-tspan" font-weight="normal">重试次数还没用完？</tspan></tspan></text></g></g></g><g class="node default" id="my-svg-flowchart-R2-29" data-look="classic" transform="translate(1067.0390625, 1164.099998474121)"><rect class="basic label-container" style="" x="-94" y="-41.099998474121094" width="188" height="82.19999694824219"/><g class="label" style="" transform="translate(0, -26.099998474121094)"><rect/><g><rect class="background" style="stroke: none"/><text y="-10.1" style=""><tspan class="text-outer-tspan row" x="0" y="-0.1em" dy="1.1em"><tspan font-style="normal" class="text-inner-tspan" font-weight="normal">等待</tspan><tspan font-style="normal" class="text-inner-tspan" font-weight="normal"> +</tspan><tspan font-style="normal" class="text-inner-tspan" font-weight="normal"> 抖动</tspan></tspan><tspan class="text-outer-tspan row" x="0" y="1em" dy="1.1em"><tspan font-style="normal" class="text-inner-tspan" font-weight="normal">必要时切备用模型</tspan></tspan><tspan class="text-outer-tspan row" x="0" y="2.1em" dy="1.1em"><tspan font-style="normal" class="text-inner-tspan" font-weight="normal">重新请求</tspan></tspan></text></g></g></g></g></g></g><defs><filter id="my-svg-drop-shadow" height="130%" width="130%"><feDropShadow dx="4" dy="4" stdDeviation="0" flood-opacity="0.06" flood-color="#000000"/></filter></defs><defs><filter id="my-svg-drop-shadow-small" height="150%" width="150%"><feDropShadow dx="2" dy="2" stdDeviation="0" flood-opacity="0.06" flood-color="#000000"/></filter></defs><linearGradient id="my-svg-gradient" gradientUnits="objectBoundingBox" x1="0%" y1="0%" x2="100%" y2="0%"><stop offset="0%" stop-color="hsl(0, 0%, 83.3333333333%)" stop-opacity="1"/><stop offset="100%" stop-color="hsl(0, 0%, 88.9215686275%)" stop-opacity="1"/></linearGradient></svg>