<svg width="519.177734375" height="890" id="my-svg" xmlns="http://www.w3.org/2000/svg" xmlns:xlink="http://www.w3.org/1999/xlink" class="classDiagram" style="max-width: 519.178px; background-color: white;" viewBox="0 0 519.177734375 890" role="graphics-document document" aria-roledescription="class"><style>#my-svg{font-family:"trebuchet ms",verdana,arial,sans-serif;font-size:16px;fill:#000000;}@keyframes edge-animation-frame{from{stroke-dashoffset:0;}}@keyframes dash{to{stroke-dashoffset:0;}}#my-svg .edge-animation-slow{stroke-dasharray:9,5!important;stroke-dashoffset:900;animation:dash 50s linear infinite;stroke-linecap:round;}#my-svg .edge-animation-fast{stroke-dasharray:9,5!important;stroke-dashoffset:900;animation:dash 20s linear infinite;stroke-linecap:round;}#my-svg .error-icon{fill:#552222;}#my-svg .error-text{fill:#552222;stroke:#552222;}#my-svg .edge-thickness-normal{stroke-width:1px;}#my-svg .edge-thickness-thick{stroke-width:3.5px;}#my-svg .edge-pattern-solid{stroke-dasharray:0;}#my-svg .edge-thickness-invisible{stroke-width:0;fill:none;}#my-svg .edge-pattern-dashed{stroke-dasharray:3;}#my-svg .edge-pattern-dotted{stroke-dasharray:2;}#my-svg .marker{fill:#666;stroke:#666;}#my-svg .marker.cross{stroke:#666;}#my-svg svg{font-family:"trebuchet ms",verdana,arial,sans-serif;font-size:16px;}#my-svg p{margin:0;}#my-svg g.classGroup text{fill:#999;stroke:none;font-family:"trebuchet ms",verdana,arial,sans-serif;font-size:10px;}#my-svg g.classGroup text .title{font-weight:bolder;}#my-svg .cluster-label text{fill:#333;}#my-svg .cluster-label span{color:#333;}#my-svg .cluster-label span p{background-color:transparent;}#my-svg .cluster rect{fill:hsl(0, 0%, 98.9215686275%);stroke:#707070;stroke-width:1px;}#my-svg .cluster text{fill:#333;}#my-svg .cluster span{color:#333;}#my-svg .nodeLabel,#my-svg .edgeLabel{color:#111111;}#my-svg .noteLabel .nodeLabel,#my-svg .noteLabel .edgeLabel{color:#fff;}#my-svg .edgeLabel .label rect{fill:#eee;}#my-svg .label text{fill:#111111;}#my-svg .labelBkg{background:#eee;}#my-svg .edgeLabel .label span{background:#eee;}#my-svg .classTitle{font-weight:bolder;}#my-svg .node rect,#my-svg .node circle,#my-svg .node ellipse,#my-svg .node polygon,#my-svg .node path{fill:#eee;stroke:#999;stroke-width:1;}#my-svg .divider{stroke:#999;stroke-width:1;}#my-svg g.clickable{cursor:pointer;}#my-svg g.classGroup rect{fill:#eee;stroke:#999;}#my-svg g.classGroup line{stroke:#999;stroke-width:1;}#my-svg .classLabel .box{stroke:none;stroke-width:0;fill:#eee;opacity:0.5;}#my-svg .classLabel .label{fill:#999;font-size:10px;}#my-svg .relation{stroke:#666;stroke-width:1;fill:none;}#my-svg .dashed-line{stroke-dasharray:3;}#my-svg .dotted-line{stroke-dasharray:1 2;}#my-svg [id$="-compositionStart"],#my-svg .composition{fill:#666!important;stroke:#666!important;stroke-width:1;}#my-svg [id$="-compositionEnd"],#my-svg .composition{fill:#666!important;stroke:#666!important;stroke-width:1;}#my-svg [id$="-dependencyStart"],#my-svg .dependency{fill:#666!important;stroke:#666!important;stroke-width:1;}#my-svg [id$="-dependencyEnd"],#my-svg .dependency{fill:#666!important;stroke:#666!important;stroke-width:1;}#my-svg [id$="-extensionStart"],#my-svg .extension{fill:transparent!important;stroke:#666!important;stroke-width:1;}#my-svg [id$="-extensionEnd"],#my-svg .extension{fill:transparent!important;stroke:#666!important;stroke-width:1;}#my-svg [id$="-aggregationStart"],#my-svg .aggregation{fill:transparent!important;stroke:#666!important;stroke-width:1;}#my-svg [id$="-aggregationEnd"],#my-svg .aggregation{fill:transparent!important;stroke:#666!important;stroke-width:1;}#my-svg [id$="-lollipopStart"],#my-svg .lollipop{fill:#eee!important;stroke:#666!important;stroke-width:1;}#my-svg [id$="-lollipopEnd"],#my-svg .lollipop{fill:#eee!important;stroke:#666!important;stroke-width:1;}#my-svg .edgeTerminals{font-size:11px;line-height:initial;}#my-svg .classTitleText{text-anchor:middle;font-size:18px;fill:#000000;}#my-svg .edgeLabel[data-look="neo"]{background-color:white;text-align:center;}#my-svg .edgeLabel[data-look="neo"] p{background-color:white;}#my-svg .edgeLabel[data-look="neo"] rect{opacity:0.5;background-color:white;fill:white;}#my-svg .label-icon{display:inline-block;height:1em;overflow:visible;vertical-align:-0.125em;}#my-svg .node .label-icon path{fill:currentColor;stroke:revert;stroke-width:revert;}#my-svg .node .neo-node{stroke:#999;}#my-svg [data-look="neo"].node rect,#my-svg [data-look="neo"].cluster rect,#my-svg [data-look="neo"].node polygon{stroke:url(#my-svg-gradient);filter:drop-shadow( 1px 2px 2px rgba(185,185,185,1));}#my-svg [data-look="neo"].swimlane.cluster rect{filter:none;}#my-svg [data-look="neo"].node path{stroke:url(#my-svg-gradient);stroke-width:1px;}#my-svg [data-look="neo"].node .outer-path{filter:drop-shadow( 1px 2px 2px rgba(185,185,185,1));}#my-svg [data-look="neo"].node .neo-line path{stroke:#999;filter:none;}#my-svg [data-look="neo"].node circle{stroke:url(#my-svg-gradient);filter:drop-shadow( 1px 2px 2px rgba(185,185,185,1));}#my-svg [data-look="neo"].node circle .state-start{fill:#000000;}#my-svg [data-look="neo"].icon-shape .icon{fill:url(#my-svg-gradient);filter:drop-shadow( 1px 2px 2px rgba(185,185,185,1));}#my-svg [data-look="neo"].icon-shape .icon-neo path{stroke:url(#my-svg-gradient);filter:drop-shadow( 1px 2px 2px rgba(185,185,185,1));}#my-svg :root{--mermaid-font-family:"trebuchet ms",verdana,arial,sans-serif;}</style><g><defs><marker id="my-svg_class-aggregationStart" class="marker aggregation class" refX="18" refY="7" markerWidth="190" markerHeight="240" orient="auto"><path d="M 18,7 L9,13 L1,7 L9,1 Z"/></marker></defs><defs><marker id="my-svg_class-aggregationEnd" class="marker aggregation class" refX="1" refY="7" markerWidth="20" markerHeight="28" orient="auto"><path d="M 18,7 L9,13 L1,7 L9,1 Z"/></marker></defs><defs><marker id="my-svg_class-aggregationStart-margin" class="marker aggregation class" refX="15" refY="7" markerWidth="190" markerHeight="240" orient="auto" markerUnits="userSpaceOnUse"><path d="M 18,7 L9,13 L1,7 L9,1 Z" style="stroke-width: 2;"/></marker></defs><defs><marker id="my-svg_class-aggregationEnd-margin" class="marker aggregation class" refX="1" refY="7" markerWidth="20" markerHeight="28" orient="auto" markerUnits="userSpaceOnUse"><path d="M 18,7 L9,13 L1,7 L9,1 Z" style="stroke-width: 2;"/></marker></defs><defs><marker id="my-svg_class-extensionStart" class="marker extension class" refX="18" refY="7" markerWidth="20" markerHeight="28" orient="auto" markerUnits="userSpaceOnUse"><path d="M 1,7 L18,13 V 1 Z"/></marker></defs><defs><marker id="my-svg_class-extensionEnd" class="marker extension class" refX="1" refY="7" markerWidth="20" markerHeight="28" orient="auto"><path d="M 1,1 V 13 L18,7 Z"/></marker></defs><marker id="my-svg_class-extensionStart-margin" class="marker extension class" refX="18" refY="7" markerWidth="20" markerHeight="28" orient="auto" markerUnits="userSpaceOnUse" viewBox="0 0 20 14"><polygon points="10,7 18,13 18,1" style="stroke-width: 2; stroke-dasharray: 0;"/></marker><defs><marker id="my-svg_class-extensionEnd-margin" class="marker extension class" refX="9" refY="7" markerWidth="20" markerHeight="28" orient="auto" markerUnits="userSpaceOnUse" viewBox="0 0 20 14"><polygon points="10,1 10,13 18,7" style="stroke-width: 2; stroke-dasharray: 0;"/></marker></defs><defs><marker id="my-svg_class-compositionStart" class="marker composition class" refX="18" refY="7" markerWidth="190" markerHeight="240" orient="auto"><path d="M 18,7 L9,13 L1,7 L9,1 Z"/></marker></defs><defs><marker id="my-svg_class-compositionEnd" class="marker composition class" refX="1" refY="7" markerWidth="20" markerHeight="28" orient="auto"><path d="M 18,7 L9,13 L1,7 L9,1 Z"/></marker></defs><defs><marker id="my-svg_class-compositionStart-margin" class="marker composition class" refX="15" refY="7" markerWidth="190" markerHeight="240" orient="auto" markerUnits="userSpaceOnUse"><path viewBox="0 0 15 15" d="M 18,7 L9,13 L1,7 L9,1 Z" style="stroke-width: 0;"/></marker></defs><defs><marker id="my-svg_class-compositionEnd-margin" class="marker composition class" refX="3.5" refY="7" markerWidth="20" markerHeight="28" orient="auto" markerUnits="userSpaceOnUse"><path d="M 18,7 L9,13 L1,7 L9,1 Z" style="stroke-width: 0;"/></marker></defs><defs><marker id="my-svg_class-dependencyStart" class="marker dependency class" refX="6" refY="7" markerWidth="190" markerHeight="240" orient="auto"><path d="M 5,7 L9,13 L1,7 L9,1 Z"/></marker></defs><defs><marker id="my-svg_class-dependencyEnd" class="marker dependency class" refX="13" refY="7" markerWidth="20" markerHeight="28" orient="auto"><path d="M 18,7 L9,13 L14,7 L9,1 Z"/></marker></defs><defs><marker id="my-svg_class-dependencyStart-margin" class="marker dependency class" refX="4" refY="7" markerWidth="190" markerHeight="240" orient="auto" markerUnits="userSpaceOnUse"><path d="M 5,7 L9,13 L1,7 L9,1 Z" style="stroke-width: 0;"/></marker></defs><defs><marker id="my-svg_class-dependencyEnd-margin" class="marker dependency class" refX="16" refY="7" markerWidth="20" markerHeight="28" orient="auto" markerUnits="userSpaceOnUse"><path d="M 18,7 L9,13 L14,7 L9,1 Z" style="stroke-width: 0;"/></marker></defs><defs><marker id="my-svg_class-lollipopStart" class="marker lollipop class" refX="13" refY="7" markerWidth="190" markerHeight="240" orient="auto"><circle fill="transparent" cx="7" cy="7" r="6"/></marker></defs><defs><marker id="my-svg_class-lollipopEnd" class="marker lollipop class" refX="1" refY="7" markerWidth="190" markerHeight="240" orient="auto"><circle fill="transparent" cx="7" cy="7" r="6"/></marker></defs><defs><marker id="my-svg_class-lollipopStart-margin" class="marker lollipop class" refX="13" refY="7" markerWidth="190" markerHeight="240" orient="auto" markerUnits="userSpaceOnUse"><circle fill="transparent" cx="7" cy="7" r="6" stroke-width="2"/></marker></defs><defs><marker id="my-svg_class-lollipopEnd-margin" class="marker lollipop class" refX="1" refY="7" markerWidth="190" markerHeight="240" orient="auto" markerUnits="userSpaceOnUse"><circle fill="transparent" cx="7" cy="7" r="6" stroke-width="2"/></marker></defs><g class="root"><g class="clusters"/><g class="edgePaths"><path d="M136.035,368L136.035,373.917C136.035,379.833,136.035,391.667,139.963,402.706C143.891,413.746,151.746,423.992,155.674,429.115L159.601,434.238" id="my-svg-id_LeadSession_TeammateRuntime_1" class="edge-thickness-normal edge-pattern-solid relation" style=";;;" data-edge="true" data-et="edge" data-id="id_LeadSession_TeammateRuntime_1" data-points="W3sieCI6MTM2LjAzNTE1NjI1LCJ5IjozNjh9LHsieCI6MTM2LjAzNTE1NjI1LCJ5Ijo0MDMuNX0seyJ4IjoxNjMuMjUyMDc0NzIwMzMwNzQsInkiOjQzOX1d" data-look="classic" marker-end="url(#my-svg_class-dependencyEnd)"/><path d="M234.553,625L234.553,630.917C234.553,636.833,234.553,648.667,239.337,659.765C244.121,670.864,253.689,681.228,258.474,686.41L263.258,691.592" id="my-svg-id_TeammateRuntime_TeamMessage_2" class="edge-thickness-normal edge-pattern-solid relation" style=";;;" data-edge="true" data-et="edge" data-id="id_TeammateRuntime_TeamMessage_2" data-points="W3sieCI6MjM0LjU1MjczNDM3NSwieSI6NjI1fSx7IngiOjIzNC41NTI3MzQzNzUsInkiOjY2MC41fSx7IngiOjI2Ny4zMjc4NTkwMTAyMTQsInkiOjY5Nn1d" data-look="classic" marker-end="url(#my-svg_class-dependencyEnd)"/><path d="M439.051,696L444.514,690.083C449.976,684.167,460.901,672.333,466.364,645C471.826,617.667,471.826,574.833,471.826,532C471.826,489.167,471.826,446.333,438.145,413.181C404.463,380.029,337.1,356.557,303.418,344.821L269.736,333.086" id="my-svg-id_TeamMessage_LeadSession_3" class="edge-thickness-normal edge-pattern-solid relation" style=";;;" data-edge="true" data-et="edge" data-id="id_TeamMessage_LeadSession_3" data-points="W3sieCI6NDM5LjA1MTA0NzIzOTc4NiwieSI6Njk2fSx7IngiOjQ3MS44MjYxNzE4NzUsInkiOjY2MC41fSx7IngiOjQ3MS44MjYxNzE4NzUsInkiOjUzMn0seyJ4Ijo0NzEuODI2MTcxODc1LCJ5Ijo0MDMuNX0seyJ4IjoyNjQuMDcwMzEyNSwieSI6MzMxLjExMTQxNzc2OTM3NjJ9XQ==" data-look="classic" marker-end="url(#my-svg_class-dependencyEnd)"/><path d="M171.541,134L165.624,139.917C159.706,145.833,147.871,157.667,141.953,168.5C136.035,179.333,136.035,189.167,136.035,194.083L136.035,199" id="my-svg-id_ToolPool_LeadSession_4" class="edge-thickness-normal edge-pattern-solid relation" style=";;;" data-edge="true" data-et="edge" data-id="id_ToolPool_LeadSession_4" data-points="W3sieCI6MTcxLjU0MTQ5MTUxMzMyNDg3LCJ5IjoxMzR9LHsieCI6MTM2LjAzNTE1NjI1LCJ5IjoxNjkuNX0seyJ4IjoxMzYuMDM1MTU2MjUsInkiOjIwNX1d" data-look="classic" marker-end="url(#my-svg_class-dependencyEnd)"/><path d="M304.036,134L310.562,139.917C317.087,145.833,330.138,157.667,336.664,183.083C343.189,208.5,343.189,247.5,343.189,286.5C343.189,325.5,343.189,364.5,338.833,389.153C334.477,413.806,325.764,424.112,321.407,429.265L317.051,434.418" id="my-svg-id_ToolPool_TeammateRuntime_5" class="edge-thickness-normal edge-pattern-solid relation" style=";;;" data-edge="true" data-et="edge" data-id="id_ToolPool_TeammateRuntime_5" data-points="W3sieCI6MzA0LjAzNjExNzk0MDk4OTg3LCJ5IjoxMzR9LHsieCI6MzQzLjE4OTQ1MzEyNSwieSI6MTY5LjV9LHsieCI6MzQzLjE4OTQ1MzEyNSwieSI6Mjg2LjV9LHsieCI6MzQzLjE4OTQ1MzEyNSwieSI6NDAzLjV9LHsieCI6MzEzLjE3Njk3NDQwNDE4MjksInkiOjQzOX1d" data-look="classic" marker-end="url(#my-svg_class-dependencyEnd)"/></g><g class="edgeLabels"><g class="edgeLabel" transform="translate(136.03515625, 403.5)"><g class="label" data-id="id_LeadSession_TeammateRuntime_1" transform="translate(0, -10.5)"><g><rect class="background" style="" x="-25.125" y="0" width="50.25" height="21"/><text y="-10.1" text-anchor="middle" style=""><tspan class="text-outer-tspan row" x="0" y="-0.1em" dy="1.1em" text-anchor="middle"><tspan font-style="normal" class="text-inner-tspan" font-weight="normal">spawn</tspan></tspan></text></g></g></g><g class="edgeLabel" transform="translate(234.552734375, 660.5)"><g class="label" data-id="id_TeammateRuntime_TeamMessage_2" transform="translate(0, -10.5)"><g><rect class="background" style="" x="-19.3515625" y="0" width="38.703125" height="21"/><text y="-10.1" text-anchor="middle" style=""><tspan class="text-outer-tspan row" x="0" y="-0.1em" dy="1.1em" text-anchor="middle"><tspan font-style="normal" class="text-inner-tspan" font-weight="normal">send</tspan></tspan></text></g></g></g><g class="edgeLabel" transform="translate(471.826171875, 532)"><g class="label" data-id="id_TeamMessage_LeadSession_3" transform="translate(0, -10.5)"><g><rect class="background" style="" x="-39.3515625" y="0" width="78.703125" height="21"/><text y="-10.1" text-anchor="middle" style=""><tspan class="text-outer-tspan row" x="0" y="-0.1em" dy="1.1em" text-anchor="middle"><tspan font-style="normal" class="text-inner-tspan" font-weight="normal">inbox</tspan><tspan font-style="normal" class="text-inner-tspan" font-weight="normal"> 注入</tspan></tspan></text></g></g></g><g class="edgeLabel" transform="translate(136.03515625, 169.5)"><g class="label" data-id="id_ToolPool_LeadSession_4" transform="translate(0, -10.5)"><g><rect class="background" style="" x="-26" y="0" width="52" height="21"/><text y="-10.1" text-anchor="middle" style=""><tspan class="text-outer-tspan row" x="0" y="-0.1em" dy="1.1em" text-anchor="middle"><tspan font-style="normal" class="text-inner-tspan" font-weight="normal">主工具</tspan></tspan></text></g></g></g><g class="edgeLabel" transform="translate(343.189453125, 286.5)"><g class="label" data-id="id_ToolPool_TeammateRuntime_5" transform="translate(0, -10.5)"><g><rect class="background" style="" x="-34" y="0" width="68" height="21"/><text y="-10.1" text-anchor="middle" style=""><tspan class="text-outer-tspan row" x="0" y="-0.1em" dy="1.1em" text-anchor="middle"><tspan font-style="normal" class="text-inner-tspan" font-weight="normal">受限工具</tspan></tspan></text></g></g></g></g><g class="nodes"><g class="node default" id="my-svg-classId-LeadSession-0" data-look="classic" transform="translate(136.03515625, 286.5)"><g class="basic label-container outer-path"><path d="M-128.03515625 -81.5 L128.03515625 -81.5 L128.03515625 81.5 L-128.03515625 81.5" stroke="none" stroke-width="0" fill="#eee" style=""/><path d="M-128.03515625 -81.5 C-55.570698500456814 -81.5, 16.893759249086372 -81.5, 128.03515625 -81.5 M-128.03515625 -81.5 C-28.548220024850252 -81.5, 70.9387162002995 -81.5, 128.03515625 -81.5 M128.03515625 -81.5 C128.03515625 -40.376263614306126, 128.03515625 0.7474727713877485, 128.03515625 81.5 M128.03515625 -81.5 C128.03515625 -40.14886872698732, 128.03515625 1.2022625460253664, 128.03515625 81.5 M128.03515625 81.5 C40.614628573560424 81.5, -46.80589910287915 81.5, -128.03515625 81.5 M128.03515625 81.5 C26.40717532422137 81.5, -75.22080560155726 81.5, -128.03515625 81.5 M-128.03515625 81.5 C-128.03515625 30.32503604919097, -128.03515625 -20.84992790161806, -128.03515625 -81.5 M-128.03515625 81.5 C-128.03515625 25.793527904083128, -128.03515625 -29.912944191833745, -128.03515625 -81.5" stroke="#999" stroke-width="1.3" fill="none" stroke-dasharray="0 0" style=""/></g><g class="annotation-group text" transform="translate(0, -61.5)"/><g class="label-group text" transform="translate(-49.3515625, -61.5)"><g class="label" style="font-weight: bolder" transform="translate(0,-8.5)"><g><rect class="background" style="stroke: none"/><text y="-10.1" style=""><tspan class="text-outer-tspan row" x="0" y="-0.1em" dy="1.1em" font-weight=""><tspan font-style="normal" class="text-inner-tspan" font-weight="">LeadSession</tspan></tspan></text></g></g></g><g class="members-group text" transform="translate(-116.03515625, -20.5)"><g class="label" style="" transform="translate(0,-8.5)"><g><rect class="background" style="stroke: none"/><text y="-10.1" style=""><tspan class="text-outer-tspan row" x="0" y="-0.1em" dy="1.1em"><tspan font-style="normal" class="text-inner-tspan" font-weight="normal">+messages</tspan><tspan font-style="normal" class="text-inner-tspan" font-weight="normal"> 主会话上下文</tspan></tspan></text></g></g><g class="label" style="" transform="translate(0,11.5)"><g><rect class="background" style="stroke: none"/><text y="-10.1" style=""><tspan class="text-outer-tspan row" x="0" y="-0.1em" dy="1.1em"><tspan font-style="normal" class="text-inner-tspan" font-weight="normal">+tools</tspan><tspan font-style="normal" class="text-inner-tspan" font-weight="normal"> 20</tspan><tspan font-style="normal" class="text-inner-tspan" font-weight="normal"> 个主工具</tspan></tspan></text></g></g></g><g class="methods-group text" transform="translate(-116.03515625, 40.5)"><g class="label" style="" transform="translate(0,-8.5)"><g><rect class="background" style="stroke: none"/><text y="-10.1" style=""><tspan class="text-outer-tspan row" x="0" y="-0.1em" dy="1.1em"><tspan font-style="normal" class="text-inner-tspan" font-weight="normal">+injectLeadInbox()</tspan></tspan></text></g></g><g class="label" style="" transform="translate(0,11.5)"><g><rect class="background" style="stroke: none"/><text y="-10.1" style=""><tspan class="text-outer-tspan row" x="0" y="-0.1em" dy="1.1em"><tspan font-style="normal" class="text-inner-tspan" font-weight="normal">+runAgentLoop()</tspan></tspan></text></g></g></g><g class="divider" style=""><path d="M-128.03515625 -40.5 C-30.579327512611172 -40.499619417699044, 66.87650122477766 -40.499238835398096, 128.03515625 -40.499 M-128.03515625 -40.5 C-75.27976628681711 -40.49979398084281, -22.5243763236342 -40.49958796168562, 128.03515625 -40.499" stroke="#999" stroke-width="1.3" fill="none" stroke-dasharray="0 0" style=""/></g><g class="divider" style=""><path d="M-128.03515625 20.5 C-73.44180283820278 20.500213196730535, -18.84844942640555 20.50042639346107, 128.03515625 20.501 M-128.03515625 20.5 C-73.71649176500327 20.50021212402154, -19.39782728000654 20.500424248043085, 128.03515625 20.501" stroke="#999" stroke-width="1.3" fill="none" stroke-dasharray="0 0" style=""/></g></g><g class="node default" id="my-svg-classId-TeammateRuntime-1" data-look="classic" transform="translate(234.552734375, 532)"><g class="basic label-container outer-path"><path d="M-162.921875 -93 L162.921875 -93 L162.921875 93 L-162.921875 93" stroke="none" stroke-width="0" fill="#eee" style=""/><path d="M-162.921875 -93 C-49.85005121552473 -93, 63.22177256895054 -93, 162.921875 -93 M-162.921875 -93 C-40.68924014391774 -93, 81.54339471216451 -93, 162.921875 -93 M162.921875 -93 C162.921875 -49.10239771387914, 162.921875 -5.204795427758285, 162.921875 93 M162.921875 -93 C162.921875 -54.75160868372473, 162.921875 -16.503217367449466, 162.921875 93 M162.921875 93 C51.57917143739448 93, -59.76353212521104 93, -162.921875 93 M162.921875 93 C34.67664314263408 93, -93.56858871473185 93, -162.921875 93 M-162.921875 93 C-162.921875 47.751238002213846, -162.921875 2.5024760044276917, -162.921875 -93 M-162.921875 93 C-162.921875 31.94929749202563, -162.921875 -29.101405015948743, -162.921875 -93" stroke="#999" stroke-width="1.3" fill="none" stroke-dasharray="0 0" style=""/></g><g class="annotation-group text" transform="translate(0, -73)"/><g class="label-group text" transform="translate(-71.03125, -73)"><g class="label" style="font-weight: bolder" transform="translate(0,-8.5)"><g><rect class="background" style="stroke: none"/><text y="-10.1" style=""><tspan class="text-outer-tspan row" x="0" y="-0.1em" dy="1.1em" font-weight=""><tspan font-style="normal" class="text-inner-tspan" font-weight="">TeammateRuntime</tspan></tspan></text></g></g></g><g class="members-group text" transform="translate(-150.921875, -32)"><g class="label" style="" transform="translate(0,-8.5)"><g><rect class="background" style="stroke: none"/><text y="-10.1" style=""><tspan class="text-outer-tspan row" x="0" y="-0.1em" dy="1.1em"><tspan font-style="normal" class="text-inner-tspan" font-weight="normal">+name</tspan><tspan font-style="normal" class="text-inner-tspan" font-weight="normal"> 队友名</tspan></tspan></text></g></g><g class="label" style="" transform="translate(0,11.5)"><g><rect class="background" style="stroke: none"/><text y="-10.1" style=""><tspan class="text-outer-tspan row" x="0" y="-0.1em" dy="1.1em"><tspan font-style="normal" class="text-inner-tspan" font-weight="normal">+role</tspan><tspan font-style="normal" class="text-inner-tspan" font-weight="normal"> 队友角色</tspan></tspan></text></g></g><g class="label" style="" transform="translate(0,31.5)"><g><rect class="background" style="stroke: none"/><text y="-10.1" style=""><tspan class="text-outer-tspan row" x="0" y="-0.1em" dy="1.1em"><tspan font-style="normal" class="text-inner-tspan" font-weight="normal">+prompt</tspan><tspan font-style="normal" class="text-inner-tspan" font-weight="normal"> 初始任务</tspan></tspan></text></g></g><g class="label" style="" transform="translate(0,51.5)"><g><rect class="background" style="stroke: none"/><text y="-10.1" style=""><tspan class="text-outer-tspan row" x="0" y="-0.1em" dy="1.1em"><tspan font-style="normal" class="text-inner-tspan" font-weight="normal">+messages</tspan><tspan font-style="normal" class="text-inner-tspan" font-weight="normal"> 独立上下文</tspan></tspan></text></g></g><g class="label" style="" transform="translate(0,71.5)"><g><rect class="background" style="stroke: none"/><text y="-10.1" style=""><tspan class="text-outer-tspan row" x="0" y="-0.1em" dy="1.1em"><tspan font-style="normal" class="text-inner-tspan" font-weight="normal">+status</tspan><tspan font-style="normal" class="text-inner-tspan" font-weight="normal"> running/completed/failed</tspan></tspan></text></g></g></g><g class="methods-group text" transform="translate(-150.921875, 89)"/><g class="divider" style=""><path d="M-162.921875 -52 C-44.952212358910174 -51.999637956343676, 73.01745028217965 -51.99927591268735, 162.921875 -51.999 M-162.921875 -52 C-64.59422212706413 -51.99969823679947, 33.73343074587174 -51.99939647359894, 162.921875 -51.999" stroke="#999" stroke-width="1.3" fill="none" stroke-dasharray="0 0" style=""/></g><g class="divider" style=""><path d="M-162.921875 69 C-47.45780347083107 69.00035435410847, 68.00626805833787 69.00070870821693, 162.921875 69.001 M-162.921875 69 C-67.2407264488807 69.00029364119628, 28.440422102238614 69.00058728239257, 162.921875 69.001" stroke="#999" stroke-width="1.3" fill="none" stroke-dasharray="0 0" style=""/></g></g><g class="node default" id="my-svg-classId-TeamMessage-2" data-look="classic" transform="translate(353.189453125, 789)"><g class="basic label-container outer-path"><path d="M-134.791015625 -93 L134.791015625 -93 L134.791015625 93 L-134.791015625 93" stroke="none" stroke-width="0" fill="#eee" style=""/><path d="M-134.791015625 -93 C-60.06896459412745 -93, 14.653086436745099 -93, 134.791015625 -93 M-134.791015625 -93 C-72.54257253067482 -93, -10.294129436349621 -93, 134.791015625 -93 M134.791015625 -93 C134.791015625 -36.20944654409923, 134.791015625 20.58110691180154, 134.791015625 93 M134.791015625 -93 C134.791015625 -32.78588794750965, 134.791015625 27.4282241049807, 134.791015625 93 M134.791015625 93 C50.24404054324273 93, -34.302934538514535 93, -134.791015625 93 M134.791015625 93 C56.1106865553069 93, -22.569642514386203 93, -134.791015625 93 M-134.791015625 93 C-134.791015625 29.26196791436866, -134.791015625 -34.47606417126268, -134.791015625 -93 M-134.791015625 93 C-134.791015625 39.265893051571815, -134.791015625 -14.46821389685637, -134.791015625 -93" stroke="#999" stroke-width="1.3" fill="none" stroke-dasharray="0 0" style=""/></g><g class="annotation-group text" transform="translate(0, -73)"/><g class="label-group text" transform="translate(-54.15234375, -73)"><g class="label" style="font-weight: bolder" transform="translate(0,-8.5)"><g><rect class="background" style="stroke: none"/><text y="-10.1" style=""><tspan class="text-outer-tspan row" x="0" y="-0.1em" dy="1.1em" font-weight=""><tspan font-style="normal" class="text-inner-tspan" font-weight="">TeamMessage</tspan></tspan></text></g></g></g><g class="members-group text" transform="translate(-122.791015625, -32)"><g class="label" style="" transform="translate(0,-8.5)"><g><rect class="background" style="stroke: none"/><text y="-10.1" style=""><tspan class="text-outer-tspan row" x="0" y="-0.1em" dy="1.1em"><tspan font-style="normal" class="text-inner-tspan" font-weight="normal">+from</tspan><tspan font-style="normal" class="text-inner-tspan" font-weight="normal"> 发件人</tspan></tspan></text></g></g><g class="label" style="" transform="translate(0,11.5)"><g><rect class="background" style="stroke: none"/><text y="-10.1" style=""><tspan class="text-outer-tspan row" x="0" y="-0.1em" dy="1.1em"><tspan font-style="normal" class="text-inner-tspan" font-weight="normal">+to</tspan><tspan font-style="normal" class="text-inner-tspan" font-weight="normal"> 收件人</tspan></tspan></text></g></g><g class="label" style="" transform="translate(0,31.5)"><g><rect class="background" style="stroke: none"/><text y="-10.1" style=""><tspan class="text-outer-tspan row" x="0" y="-0.1em" dy="1.1em"><tspan font-style="normal" class="text-inner-tspan" font-weight="normal">+type</tspan><tspan font-style="normal" class="text-inner-tspan" font-weight="normal"> message/result/error</tspan></tspan></text></g></g><g class="label" style="" transform="translate(0,51.5)"><g><rect class="background" style="stroke: none"/><text y="-10.1" style=""><tspan class="text-outer-tspan row" x="0" y="-0.1em" dy="1.1em"><tspan font-style="normal" class="text-inner-tspan" font-weight="normal">+content</tspan><tspan font-style="normal" class="text-inner-tspan" font-weight="normal"> 正文</tspan></tspan></text></g></g><g class="label" style="" transform="translate(0,71.5)"><g><rect class="background" style="stroke: none"/><text y="-10.1" style=""><tspan class="text-outer-tspan row" x="0" y="-0.1em" dy="1.1em"><tspan font-style="normal" class="text-inner-tspan" font-weight="normal">+createdAt</tspan><tspan font-style="normal" class="text-inner-tspan" font-weight="normal"> 时间</tspan></tspan></text></g></g></g><g class="methods-group text" transform="translate(-122.791015625, 89)"/><g class="divider" style=""><path d="M-134.791015625 -52 C-27.241247040250585 -51.99960104993613, 80.30852154449883 -51.999202099872264, 134.791015625 -51.999 M-134.791015625 -52 C-50.25543086075248 -51.999686419809315, 34.280153903495034 -51.99937283961864, 134.791015625 -51.999" stroke="#999" stroke-width="1.3" fill="none" stroke-dasharray="0 0" style=""/></g><g class="divider" style=""><path d="M-134.791015625 69 C-36.08611913410671 69.00036614048805, 62.61877735678658 69.0007322809761, 134.791015625 69.001 M-134.791015625 69 C-57.6809358117448 69.0002860356807, 19.429144001510394 69.0005720713614, 134.791015625 69.001" stroke="#999" stroke-width="1.3" fill="none" stroke-dasharray="0 0" style=""/></g></g><g class="node default" id="my-svg-classId-ToolPool-3" data-look="classic" transform="translate(234.552734375, 71)"><g class="basic label-container outer-path"><path d="M-105.953125 -63 L105.953125 -63 L105.953125 63 L-105.953125 63" stroke="none" stroke-width="0" fill="#eee" style=""/><path d="M-105.953125 -63 C-50.35930127196657 -63, 5.2345224560668555 -63, 105.953125 -63 M-105.953125 -63 C-42.150639026826816 -63, 21.651846946346367 -63, 105.953125 -63 M105.953125 -63 C105.953125 -28.692385608908296, 105.953125 5.615228782183408, 105.953125 63 M105.953125 -63 C105.953125 -27.650168113083197, 105.953125 7.699663773833606, 105.953125 63 M105.953125 63 C26.635215515110445 63, -52.68269396977911 63, -105.953125 63 M105.953125 63 C22.37739962363966 63, -61.19832575272068 63, -105.953125 63 M-105.953125 63 C-105.953125 23.50188672325738, -105.953125 -15.996226553485243, -105.953125 -63 M-105.953125 63 C-105.953125 31.352376570231737, -105.953125 -0.2952468595365261, -105.953125 -63" stroke="#999" stroke-width="1.3" fill="none" stroke-dasharray="0 0" style=""/></g><g class="annotation-group text" transform="translate(0, -43)"/><g class="label-group text" transform="translate(-33.625, -43)"><g class="label" style="font-weight: bolder" transform="translate(0,-8.5)"><g><rect class="background" style="stroke: none"/><text y="-10.1" style=""><tspan class="text-outer-tspan row" x="0" y="-0.1em" dy="1.1em" font-weight=""><tspan font-style="normal" class="text-inner-tspan" font-weight="">ToolPool</tspan></tspan></text></g></g></g><g class="members-group text" transform="translate(-93.953125, -2)"><g class="label" style="" transform="translate(0,-8.5)"><g><rect class="background" style="stroke: none"/><text y="-10.1" style=""><tspan class="text-outer-tspan row" x="0" y="-0.1em" dy="1.1em"><tspan font-style="normal" class="text-inner-tspan" font-weight="normal">+Lead:</tspan><tspan font-style="normal" class="text-inner-tspan" font-weight="normal"> 20</tspan><tspan font-style="normal" class="text-inner-tspan" font-weight="normal"> 个工具</tspan></tspan></text></g></g><g class="label" style="" transform="translate(0,11.5)"><g><rect class="background" style="stroke: none"/><text y="-10.1" style=""><tspan class="text-outer-tspan row" x="0" y="-0.1em" dy="1.1em"><tspan font-style="normal" class="text-inner-tspan" font-weight="normal">+Teammate:</tspan><tspan font-style="normal" class="text-inner-tspan" font-weight="normal"> 4</tspan><tspan font-style="normal" class="text-inner-tspan" font-weight="normal"> 个工具</tspan></tspan></text></g></g></g><g class="methods-group text" transform="translate(-93.953125, 59)"/><g class="divider" style=""><path d="M-105.953125 -22 C-61.335823157183476 -21.999789447919337, -16.718521314366953 -21.999578895838674, 105.953125 -21.999 M-105.953125 -22 C-28.09559366295258 -21.99963258501655, 49.76193767409484 -21.999265170033095, 105.953125 -21.999" stroke="#999" stroke-width="1.3" fill="none" stroke-dasharray="0 0" style=""/></g><g class="divider" style=""><path d="M-105.953125 39 C-39.955210972738755 39.0003114486431, 26.04270305452249 39.0006228972862, 105.953125 39.001 M-105.953125 39 C-29.19372384840551 39.00036223283245, 47.56567730318898 39.0007244656649, 105.953125 39.001" stroke="#999" stroke-width="1.3" fill="none" stroke-dasharray="0 0" style=""/></g></g></g></g></g><defs><filter id="my-svg-drop-shadow" height="130%" width="130%"><feDropShadow dx="4" dy="4" stdDeviation="0" flood-opacity="0.06" flood-color="#000000"/></filter></defs><defs><filter id="my-svg-drop-shadow-small" height="150%" width="150%"><feDropShadow dx="2" dy="2" stdDeviation="0" flood-opacity="0.06" flood-color="#000000"/></filter></defs><linearGradient id="my-svg-gradient" gradientUnits="objectBoundingBox" x1="0%" y1="0%" x2="100%" y2="0%"><stop offset="0%" stop-color="hsl(0, 0%, 83.3333333333%)" stop-opacity="1"/><stop offset="100%" stop-color="hsl(0, 0%, 88.9215686275%)" stop-opacity="1"/></linearGradient></svg>