<svg width="1174.2890625" height="1213.199951171875" id="my-svg" xmlns="http://www.w3.org/2000/svg" xmlns:xlink="http://www.w3.org/1999/xlink" class="flowchart" style="max-width: 1174.29px; background-color: white;" viewBox="0 0 1174.2890625 1213.199951171875" role="graphics-document document" aria-roledescription="flowchart-v2"><style>#my-svg{font-family:"trebuchet ms",verdana,arial,sans-serif;font-size:16px;fill:#000000;}@keyframes edge-animation-frame{from{stroke-dashoffset:0;}}@keyframes dash{to{stroke-dashoffset:0;}}#my-svg .edge-animation-slow{stroke-dasharray:9,5!important;stroke-dashoffset:900;animation:dash 50s linear infinite;stroke-linecap:round;}#my-svg .edge-animation-fast{stroke-dasharray:9,5!important;stroke-dashoffset:900;animation:dash 20s linear infinite;stroke-linecap:round;}#my-svg .error-icon{fill:#552222;}#my-svg .error-text{fill:#552222;stroke:#552222;}#my-svg .edge-thickness-normal{stroke-width:1px;}#my-svg .edge-thickness-thick{stroke-width:3.5px;}#my-svg .edge-pattern-solid{stroke-dasharray:0;}#my-svg .edge-thickness-invisible{stroke-width:0;fill:none;}#my-svg .edge-pattern-dashed{stroke-dasharray:3;}#my-svg .edge-pattern-dotted{stroke-dasharray:2;}#my-svg .marker{fill:#666;stroke:#666;}#my-svg .marker.cross{stroke:#666;}#my-svg svg{font-family:"trebuchet ms",verdana,arial,sans-serif;font-size:16px;}#my-svg p{margin:0;}#my-svg .label{font-family:"trebuchet ms",verdana,arial,sans-serif;color:#000000;}#my-svg .cluster-label text{fill:#333;}#my-svg .cluster-label span{color:#333;}#my-svg .cluster-label span p{background-color:transparent;}#my-svg .label text,#my-svg span{fill:#000000;color:#000000;}#my-svg .node rect,#my-svg .node circle,#my-svg .node ellipse,#my-svg .node polygon,#my-svg .node path{fill:#eee;stroke:#999;stroke-width:1px;}#my-svg .rough-node .label text,#my-svg .node .label text,#my-svg .image-shape .label,#my-svg .icon-shape .label{text-anchor:middle;}#my-svg .node .katex path{fill:#000;stroke:#000;stroke-width:1px;}#my-svg .rough-node .label,#my-svg .node .label,#my-svg .image-shape .label,#my-svg .icon-shape .label{text-align:center;}#my-svg .node.clickable{cursor:pointer;}#my-svg .root .anchor path{fill:#666!important;stroke-width:0;stroke:#666;}#my-svg .arrowheadPath{fill:#333333;}#my-svg .edgePath .path{stroke:#666;stroke-width:1px;}#my-svg .flowchart-link{stroke:#666;fill:none;}#my-svg .edgeLabel{background-color:white;text-align:center;}#my-svg .edgeLabel p{background-color:white;}#my-svg .edgeLabel rect{opacity:0.5;background-color:white;fill:white;}#my-svg .labelBkg{background-color:rgba(255, 255, 255, 0.5);}#my-svg .cluster rect{fill:hsl(0, 0%, 98.9215686275%);stroke:#707070;stroke-width:1px;}#my-svg .cluster text{fill:#333;}#my-svg .cluster span{color:#333;}#my-svg div.mermaidTooltip{position:absolute;text-align:center;max-width:200px;padding:2px;font-family:"trebuchet ms",verdana,arial,sans-serif;font-size:12px;background:hsl(-160, 0%, 93.3333333333%);border:1px solid #707070;border-radius:2px;pointer-events:none;z-index:100;}#my-svg .flowchartTitleText{text-anchor:middle;font-size:18px;fill:#000000;}#my-svg rect.text{fill:none;stroke-width:0;}#my-svg .icon-shape,#my-svg .image-shape{background-color:white;text-align:center;}#my-svg .icon-shape p,#my-svg .image-shape p{background-color:white;padding:2px;}#my-svg .icon-shape .label rect,#my-svg .image-shape .label rect{opacity:0.5;background-color:white;fill:white;}#my-svg .label-icon{display:inline-block;height:1em;overflow:visible;vertical-align:-0.125em;}#my-svg .node .label-icon path{fill:currentColor;stroke:revert;stroke-width:revert;}#my-svg .node .neo-node{stroke:#999;}#my-svg [data-look="neo"].node rect,#my-svg [data-look="neo"].cluster rect,#my-svg [data-look="neo"].node polygon{stroke:url(#my-svg-gradient);filter:drop-shadow( 1px 2px 2px rgba(185,185,185,1));}#my-svg [data-look="neo"].swimlane.cluster rect{filter:none;}#my-svg [data-look="neo"].node path{stroke:url(#my-svg-gradient);stroke-width:1px;}#my-svg [data-look="neo"].node .outer-path{filter:drop-shadow( 1px 2px 2px rgba(185,185,185,1));}#my-svg [data-look="neo"].node .neo-line path{stroke:#999;filter:none;}#my-svg [data-look="neo"].node circle{stroke:url(#my-svg-gradient);filter:drop-shadow( 1px 2px 2px rgba(185,185,185,1));}#my-svg [data-look="neo"].node circle .state-start{fill:#000000;}#my-svg [data-look="neo"].icon-shape .icon{fill:url(#my-svg-gradient);filter:drop-shadow( 1px 2px 2px rgba(185,185,185,1));}#my-svg [data-look="neo"].icon-shape .icon-neo path{stroke:url(#my-svg-gradient);filter:drop-shadow( 1px 2px 2px rgba(185,185,185,1));}#my-svg :root{--mermaid-font-family:"trebuchet ms",verdana,arial,sans-serif;}</style><g><marker id="my-svg_flowchart-v2-pointEnd" class="marker flowchart-v2" viewBox="0 0 10 10" refX="5" refY="5" markerUnits="userSpaceOnUse" markerWidth="8" markerHeight="8" orient="auto"><path d="M 0 0 L 10 5 L 0 10 z" class="arrowMarkerPath" style="stroke-width: 1; stroke-dasharray: 1, 0;"/></marker><marker id="my-svg_flowchart-v2-pointStart" class="marker flowchart-v2" viewBox="0 0 10 10" refX="4.5" refY="5" markerUnits="userSpaceOnUse" markerWidth="8" markerHeight="8" orient="auto"><path d="M 0 5 L 10 10 L 10 0 z" class="arrowMarkerPath" style="stroke-width: 1; stroke-dasharray: 1, 0;"/></marker><marker id="my-svg_flowchart-v2-pointEnd-margin" class="marker flowchart-v2" viewBox="0 0 11.5 14" refX="11.5" refY="7" markerUnits="userSpaceOnUse" markerWidth="10.5" markerHeight="14" orient="auto"><path d="M 0 0 L 11.5 7 L 0 14 z" class="arrowMarkerPath" style="stroke-width: 0; stroke-dasharray: 1, 0;"/></marker><marker id="my-svg_flowchart-v2-pointStart-margin" class="marker flowchart-v2" viewBox="0 0 11.5 14" refX="1" refY="7" markerUnits="userSpaceOnUse" markerWidth="11.5" markerHeight="14" orient="auto"><polygon points="0,7 11.5,14 11.5,0" class="arrowMarkerPath" style="stroke-width: 0; stroke-dasharray: 1, 0;"/></marker><marker id="my-svg_flowchart-v2-circleEnd" class="marker flowchart-v2" viewBox="0 0 10 10" refX="11" refY="5" markerUnits="userSpaceOnUse" markerWidth="11" markerHeight="11" orient="auto"><circle cx="5" cy="5" r="5" class="arrowMarkerPath" style="stroke-width: 1; stroke-dasharray: 1, 0;"/></marker><marker id="my-svg_flowchart-v2-circleStart" class="marker flowchart-v2" viewBox="0 0 10 10" refX="-1" refY="5" markerUnits="userSpaceOnUse" markerWidth="11" markerHeight="11" orient="auto"><circle cx="5" cy="5" r="5" class="arrowMarkerPath" style="stroke-width: 1; stroke-dasharray: 1, 0;"/></marker><marker id="my-svg_flowchart-v2-circleEnd-margin" class="marker flowchart-v2" viewBox="0 0 10 10" refY="5" refX="12.25" markerUnits="userSpaceOnUse" markerWidth="14" markerHeight="14" orient="auto"><circle cx="5" cy="5" r="5" class="arrowMarkerPath" style="stroke-width: 0; stroke-dasharray: 1, 0;"/></marker><marker id="my-svg_flowchart-v2-circleStart-margin" class="marker flowchart-v2" viewBox="0 0 10 10" refX="-2" refY="5" markerUnits="userSpaceOnUse" markerWidth="14" markerHeight="14" orient="auto"><circle cx="5" cy="5" r="5" class="arrowMarkerPath" style="stroke-width: 0; stroke-dasharray: 1, 0;"/></marker><marker id="my-svg_flowchart-v2-crossEnd" class="marker cross flowchart-v2" viewBox="0 0 11 11" refX="12" refY="5.2" markerUnits="userSpaceOnUse" markerWidth="11" markerHeight="11" orient="auto"><path d="M 1,1 l 9,9 M 10,1 l -9,9" class="arrowMarkerPath" style="stroke-width: 2; stroke-dasharray: 1, 0;"/></marker><marker id="my-svg_flowchart-v2-crossStart" class="marker cross flowchart-v2" viewBox="0 0 11 11" refX="-1" refY="5.2" markerUnits="userSpaceOnUse" markerWidth="11" markerHeight="11" orient="auto"><path d="M 1,1 l 9,9 M 10,1 l -9,9" class="arrowMarkerPath" style="stroke-width: 2; stroke-dasharray: 1, 0;"/></marker><marker id="my-svg_flowchart-v2-crossEnd-margin" class="marker cross flowchart-v2" viewBox="0 0 15 15" refX="17.7" refY="7.5" markerUnits="userSpaceOnUse" markerWidth="12" markerHeight="12" orient="auto"><path d="M 1,1 L 14,14 M 1,14 L 14,1" class="arrowMarkerPath" style="stroke-width: 2.5;"/></marker><marker id="my-svg_flowchart-v2-crossStart-margin" class="marker cross flowchart-v2" viewBox="0 0 15 15" refX="-3.5" refY="7.5" markerUnits="userSpaceOnUse" markerWidth="12" markerHeight="12" orient="auto"><path d="M 1,1 L 14,14 M 1,14 L 14,1" class="arrowMarkerPath" style="stroke-width: 2.5; stroke-dasharray: 1, 0;"/></marker><g class="root"><g class="clusters"/><g class="edgePaths"><path d="M682.289,40.5L682.206,44.583C682.122,48.667,681.956,56.833,681.872,64.417C681.789,72,681.789,79,681.789,82.5L681.789,86" id="my-svg-L_Start_Request_0" class="edge-thickness-normal edge-pattern-solid edge-thickness-normal edge-pattern-solid flowchart-link" style=";" data-edge="true" data-et="edge" data-id="L_Start_Request_0" data-points="W3sieCI6NjgyLjI4OTA2MjUsInkiOjQwLjV9LHsieCI6NjgxLjc4OTA2MjUsInkiOjY1fSx7IngiOjY4MS43ODkwNjI1LCJ5Ijo5MH1d" data-look="classic" marker-end="url(#my-svg_flowchart-v2-pointEnd)"/><path d="M681.789,137L681.789,141.167C681.789,145.333,681.789,153.667,681.789,161.333C681.789,169,681.789,176,681.789,179.5L681.789,183" id="my-svg-L_Request_Check_0" class="edge-thickness-normal edge-pattern-solid edge-thickness-normal edge-pattern-solid flowchart-link" style=";" data-edge="true" data-et="edge" data-id="L_Request_Check_0" data-points="W3sieCI6NjgxLjc4OTA2MjUsInkiOjEzN30seyJ4Ijo2ODEuNzg5MDYyNSwieSI6MTYyfSx7IngiOjY4MS43ODkwNjI1LCJ5IjoxODd9XQ==" data-look="classic" marker-end="url(#my-svg_flowchart-v2-pointEnd)"/><path d="M615.601,279.812L531.334,296.76C447.067,313.708,278.534,347.604,194.267,376.335C110,405.067,110,428.633,110,440.417L110,452.2" id="my-svg-L_Check_Done_0" class="edge-thickness-normal edge-pattern-solid edge-thickness-normal edge-pattern-solid flowchart-link" style=";" data-edge="true" data-et="edge" data-id="L_Check_Done_0" data-points="W3sieCI6NjE1LjYwMTAxMDA4MjE1ODgsInkiOjI3OS44MTE5NDc1ODIxNTg4NH0seyJ4IjoxMTAsInkiOjM4MS41fSx7IngiOjExMCwieSI6NDU2LjIwMDAwMDc2MjkzOTQ1fV0=" data-look="classic" marker-end="url(#my-svg_flowchart-v2-pointEnd)"/><path d="M622.023,286.234L573.936,302.112C525.849,317.989,429.674,349.745,381.587,370.872C333.5,392,333.5,402.5,333.5,407.75L333.5,413" id="my-svg-L_Check_L1_0" class="edge-thickness-normal edge-pattern-solid edge-thickness-normal edge-pattern-solid flowchart-link" style=";" data-edge="true" data-et="edge" data-id="L_Check_L1_0" data-points="W3sieCI6NjIyLjAyMjk2MjQzNDIzMzgsInkiOjI4Ni4yMzM4OTk5MzQyMzM4fSx7IngiOjMzMy41LCJ5IjozODEuNX0seyJ4IjozMzMuNSwieSI6NDE3fV0=" data-look="classic" marker-end="url(#my-svg_flowchart-v2-pointEnd)"/><path d="M296.974,523.474L284.436,535.478C271.899,547.482,246.825,571.491,234.287,596.612C221.75,621.733,221.75,647.967,221.75,661.083L221.75,674.2" id="my-svg-L_L1_L2_0" class="edge-thickness-normal edge-pattern-solid edge-thickness-normal edge-pattern-solid flowchart-link" style=";" data-edge="true" data-et="edge" data-id="L_L1_L2_0" data-points="W3sieCI6Mjk2Ljk3MzcxNDI4NTcxNDI3LCJ5Ijo1MjMuNDczNzE0Mjg1NzE0M30seyJ4IjoyMjEuNzUsInkiOjU5NS41fSx7IngiOjIyMS43NSwieSI6Njc4LjIwMDAwMDc2MjkzOTV9XQ==" data-look="classic" marker-end="url(#my-svg_flowchart-v2-pointEnd)"/><path d="M373.602,519.898L389.696,532.498C405.79,545.098,437.977,570.299,454.07,588.15C470.164,606,470.164,616.5,470.164,621.75L470.164,627" id="my-svg-L_L1_L3_0" class="edge-thickness-normal edge-pattern-solid edge-thickness-normal edge-pattern-solid flowchart-link" style=";" data-edge="true" data-et="edge" data-id="L_L1_L3_0" data-points="W3sieCI6MzczLjYwMjI2MzYxODU4MzUsInkiOjUxOS44OTc3MzYzODE0MTY1fSx7IngiOjQ3MC4xNjQwNjI1LCJ5Ijo1OTUuNX0seyJ4Ijo0NzAuMTY0MDYyNSwieSI6NjMxfV0=" data-look="classic" marker-end="url(#my-svg_flowchart-v2-pointEnd)"/><path d="M432.339,752.175L421.248,764.396C410.156,776.617,387.972,801.058,376.881,835.113C365.789,869.167,365.789,912.833,365.789,956.5C365.789,1000.167,365.789,1043.833,408.245,1075.81C450.701,1107.786,535.612,1128.072,578.068,1138.215L620.524,1148.358" id="my-svg-L_L3_Stop_0" class="edge-thickness-normal edge-pattern-solid edge-thickness-normal edge-pattern-solid flowchart-link" style=";" data-edge="true" data-et="edge" data-id="L_L3_Stop_0" data-points="W3sieCI6NDMyLjMzOTI3NjE3NTIxMzcsInkiOjc1Mi4xNzUyMTM2NzUyMTM2fSx7IngiOjM2NS43ODkwNjI1LCJ5Ijo4MjUuNX0seyJ4IjozNjUuNzg5MDYyNSwieSI6OTU2LjV9LHsieCI6MzY1Ljc4OTA2MjUsInkiOjEwODcuNX0seyJ4Ijo2MjQuNDE0MDYyNSwieSI6MTE0OS4yODc2NzkwODEwNzQ3fV0=" data-look="classic" marker-end="url(#my-svg_flowchart-v2-pointEnd)"/><path d="M500.312,759.852L506.996,770.794C513.679,781.735,527.047,803.617,533.73,819.809C540.414,836,540.414,846.5,540.414,851.75L540.414,857" id="my-svg-L_L3_L4_0" class="edge-thickness-normal edge-pattern-solid edge-thickness-normal edge-pattern-solid flowchart-link" style=";" data-edge="true" data-et="edge" data-id="L_L3_L4_0" data-points="W3sieCI6NTAwLjMxMTgzNTc3OTM1MjI0LCJ5Ijo3NTkuODUyMjI2NzIwNjQ3OH0seyJ4Ijo1NDAuNDE0MDYyNSwieSI6ODI1LjV9LHsieCI6NTQwLjQxNDA2MjUsInkiOjg2MX1d" data-look="classic" marker-end="url(#my-svg_flowchart-v2-pointEnd)"/><path d="M501.683,1013.269L493.243,1025.641C484.802,1038.013,467.92,1062.756,426.29,1084.176C384.659,1105.595,318.279,1123.69,285.088,1132.738L251.898,1141.785" id="my-svg-L_L4_L5_0" class="edge-thickness-normal edge-pattern-solid edge-thickness-normal edge-pattern-solid flowchart-link" style=";" data-edge="true" data-et="edge" data-id="L_L4_L5_0" data-points="W3sieCI6NTAxLjY4MzIwNjAwNTM4ODU3LCJ5IjoxMDEzLjI2OTE0MzUwNTM4ODZ9LHsieCI6NDUxLjAzOTA2MjUsInkiOjEwODcuNX0seyJ4IjoyNDguMDM5MDYyNSwieSI6MTE0Mi44MzczNjU0NDU3MTczfV0=" data-look="classic" marker-end="url(#my-svg_flowchart-v2-pointEnd)"/><path d="M578.919,1013.495L587.251,1025.83C595.584,1038.164,612.249,1062.832,626.825,1083.483C641.4,1104.134,653.886,1120.767,660.129,1129.084L666.372,1137.401" id="my-svg-L_L4_Stop_0" class="edge-thickness-normal edge-pattern-solid edge-thickness-normal edge-pattern-solid flowchart-link" style=";" data-edge="true" data-et="edge" data-id="L_L4_Stop_0" data-points="W3sieCI6NTc4LjkxODYxODMwODY1NiwieSI6MTAxMy40OTU0NDQxOTEzNDR9LHsieCI6NjI4LjkxNDA2MjUsInkiOjEwODcuNX0seyJ4Ijo2NjguNzczNzIyNzIzMDE1MywieSI6MTE0MC41OTk5OTg0NzQxMjF9XQ==" data-look="classic" marker-end="url(#my-svg_flowchart-v2-pointEnd)"/><path d="M716.363,311.426L725.35,323.105C734.338,334.784,752.314,358.142,761.301,387.654C770.289,417.167,770.289,452.833,770.289,488.5C770.289,524.167,770.289,559.833,770.289,596.833C770.289,633.833,770.289,672.167,770.289,710.5C770.289,748.833,770.289,787.167,770.289,815.583C770.289,844,770.289,862.5,770.289,871.75L770.289,881" id="my-svg-L_Check_C1_0" class="edge-thickness-normal edge-pattern-solid edge-thickness-normal edge-pattern-solid flowchart-link" style=";" data-edge="true" data-et="edge" data-id="L_Check_C1_0" data-points="W3sieCI6NzE2LjM2Mjc3MjU3MzcxMDEsInkiOjMxMS40MjYyODk5MjYyODk5NH0seyJ4Ijo3NzAuMjg5MDYyNSwieSI6MzgxLjV9LHsieCI6NzcwLjI4OTA2MjUsInkiOjQ4OC41fSx7IngiOjc3MC4yODkwNjI1LCJ5Ijo1OTUuNX0seyJ4Ijo3NzAuMjg5MDYyNSwieSI6NzEwLjV9LHsieCI6NzcwLjI4OTA2MjUsInkiOjgyNS41fSx7IngiOjc3MC4yODkwNjI1LCJ5Ijo4ODV9XQ==" data-look="classic" marker-end="url(#my-svg_flowchart-v2-pointEnd)"/><path d="M739.097,996.808L727.4,1011.923C715.703,1027.038,692.308,1057.269,649.692,1080.84C607.075,1104.41,545.236,1121.32,514.317,1129.775L483.397,1138.229" id="my-svg-L_C1_C2_0" class="edge-thickness-normal edge-pattern-solid edge-thickness-normal edge-pattern-solid flowchart-link" style=";" data-edge="true" data-et="edge" data-id="L_C1_C2_0" data-points="W3sieCI6NzM5LjA5Njc1NDgwNzY5MjMsInkiOjk5Ni44MDc2OTIzMDc2OTIzfSx7IngiOjY2OC45MTQwNjI1LCJ5IjoxMDg3LjV9LHsieCI6NDc5LjUzOTA2MjUsInkiOjExMzkuMjg0NDcwMTg2NjU0N31d" data-look="classic" marker-end="url(#my-svg_flowchart-v2-pointEnd)"/><path d="M799.117,999.172L809.062,1013.893C819.008,1028.615,838.898,1058.057,829.538,1081.358C820.177,1104.659,781.564,1121.817,762.258,1130.396L742.952,1138.976" id="my-svg-L_C1_Stop_0" class="edge-thickness-normal edge-pattern-solid edge-thickness-normal edge-pattern-solid flowchart-link" style=";" data-edge="true" data-et="edge" data-id="L_C1_Stop_0" data-points="W3sieCI6Nzk5LjExNzA4MDcyMzIzNDYsInkiOjk5OS4xNzE5ODE3NzY3NjU0fSx7IngiOjg1OC43ODkwNjI1LCJ5IjoxMDg3LjV9LHsieCI6NzM5LjI5NjczMzI2NjIyMTMsInkiOjExNDAuNTk5OTk4NDc0MTIxfV0=" data-look="classic" marker-end="url(#my-svg_flowchart-v2-pointEnd)"/><path d="M740.272,287.517L783.858,303.181C827.444,318.845,914.617,350.172,958.203,383.67C1001.789,417.167,1001.789,452.833,1001.789,488.5C1001.789,524.167,1001.789,559.833,1001.789,596.833C1001.789,633.833,1001.789,672.167,1001.789,710.5C1001.789,748.833,1001.789,787.167,1001.789,811.583C1001.789,836,1001.789,846.5,1001.789,851.75L1001.789,857" id="my-svg-L_Check_R1_0" class="edge-thickness-normal edge-pattern-solid edge-thickness-normal edge-pattern-solid flowchart-link" style=";" data-edge="true" data-et="edge" data-id="L_Check_R1_0" data-points="W3sieCI6NzQwLjI3MTgyMTEyMDY4OTcsInkiOjI4Ny41MTcyNDEzNzkzMTAzNX0seyJ4IjoxMDAxLjc4OTA2MjUsInkiOjM4MS41fSx7IngiOjEwMDEuNzg5MDYyNSwieSI6NDg4LjV9LHsieCI6MTAwMS43ODkwNjI1LCJ5Ijo1OTUuNX0seyJ4IjoxMDAxLjc4OTA2MjUsInkiOjcxMC41fSx7IngiOjEwMDEuNzg5MDYyNSwieSI6ODI1LjV9LHsieCI6MTAwMS43ODkwNjI1LCJ5Ijo4NjF9XQ==" data-look="classic" marker-end="url(#my-svg_flowchart-v2-pointEnd)"/><path d="M989.14,1039.351L987.915,1047.376C986.69,1055.401,984.239,1071.45,989.103,1084.946C993.967,1098.442,1006.145,1109.384,1012.234,1114.855L1018.323,1120.327" id="my-svg-L_R1_R2_0" class="edge-thickness-normal edge-pattern-solid edge-thickness-normal edge-pattern-solid flowchart-link" style=";" data-edge="true" data-et="edge" data-id="L_R1_R2_0" data-points="W3sieCI6OTg5LjE0MDA1NTg3NzQ4MzQsInkiOjEwMzkuMzUwOTkzMzc3NDgzNX0seyJ4Ijo5ODEuNzg5MDYyNSwieSI6MTA4Ny41fSx7IngiOjEwMjEuMjk3ODc1Mjk3NDYzLCJ5IjoxMTIzfV0=" data-look="classic" marker-end="url(#my-svg_flowchart-v2-pointEnd)"/><path d="M1028.266,1025.523L1032.228,1035.853C1036.19,1046.182,1044.115,1066.841,998.125,1087.636C952.136,1108.43,852.232,1129.36,802.281,1139.825L752.329,1150.291" id="my-svg-L_R1_Stop_0" class="edge-thickness-normal edge-pattern-solid edge-thickness-normal edge-pattern-solid flowchart-link" style=";" data-edge="true" data-et="edge" data-id="L_R1_Stop_0" data-points="W3sieCI6MTAyOC4yNjU2MTQyMjQxMzc4LCJ5IjoxMDI1LjUyMzQ0ODI3NTg2MjJ9LHsieCI6MTA1Mi4wMzkwNjI1LCJ5IjoxMDg3LjV9LHsieCI6NzQ4LjQxNDA2MjUsInkiOjExNTEuMTEwNzMzNzc1NjAzNH1d" data-look="classic" marker-end="url(#my-svg_flowchart-v2-pointEnd)"/><path d="M745.122,282.667L809.65,299.139C874.178,315.611,1003.233,348.556,1067.761,382.861C1132.289,417.167,1132.289,452.833,1132.289,488.5C1132.289,524.167,1132.289,559.833,1132.289,596.833C1132.289,633.833,1132.289,672.167,1132.289,710.5C1132.289,748.833,1132.289,787.167,1132.289,828.167C1132.289,869.167,1132.289,912.833,1132.289,956.5C1132.289,1000.167,1132.289,1043.833,1068.967,1076.545C1005.645,1109.257,879.001,1131.014,815.678,1141.893L752.356,1152.771" id="my-svg-L_Check_Stop_0" class="edge-thickness-normal edge-pattern-solid edge-thickness-normal edge-pattern-solid flowchart-link" style=";" data-edge="true" data-et="edge" data-id="L_Check_Stop_0" data-points="W3sieCI6NzQ1LjEyMTk1Mzc0NjY4NDMsInkiOjI4Mi42NjcxMDg3NTMzMTU2M30seyJ4IjoxMTMyLjI4OTA2MjUsInkiOjM4MS41fSx7IngiOjExMzIuMjg5MDYyNSwieSI6NDg4LjV9LHsieCI6MTEzMi4yODkwNjI1LCJ5Ijo1OTUuNX0seyJ4IjoxMTMyLjI4OTA2MjUsInkiOjcxMC41fSx7IngiOjExMzIuMjg5MDYyNSwieSI6ODI1LjV9LHsieCI6MTEzMi4yODkwNjI1LCJ5Ijo5NTYuNX0seyJ4IjoxMTMyLjI4OTA2MjUsInkiOjEwODcuNX0seyJ4Ijo3NDguNDE0MDYyNSwieSI6MTE1My40NDg1ODI5MzA3NjE0fV0=" data-look="classic" marker-end="url(#my-svg_flowchart-v2-pointEnd)"/></g><g class="edgeLabels"><g class="edgeLabel"><g class="label" data-id="L_Start_Request_0" transform="translate(0, 0)"><text y="-10.1" text-anchor="middle"><tspan class="text-outer-tspan row" x="0" y="-0.1em" dy="1.1em" text-anchor="middle"/></text></g></g><g><rect class="background" style="stroke: none"/></g><g class="edgeLabel"><g class="label" data-id="L_Request_Check_0" transform="translate(0, 0)"><text y="-10.1" text-anchor="middle"><tspan class="text-outer-tspan row" x="0" y="-0.1em" dy="1.1em" text-anchor="middle"/></text></g></g><g><rect class="background" style="stroke: none"/></g><g class="edgeLabel" transform="translate(110, 381.5)"><g class="label" data-id="L_Check_Done_0" transform="translate(-0.046875, -10.5)"><g><rect class="background" style="" x="-52.6875" y="0" width="105.46875" height="21"/><text y="-10.1" text-anchor="middle" style=""><tspan class="text-outer-tspan row" x="0" y="-0.1em" dy="1.1em" text-anchor="middle"><tspan font-style="normal" class="text-inner-tspan" font-weight="normal">完整</tspan><tspan font-style="normal" class="text-inner-tspan" font-weight="normal"> message</tspan></tspan></text></g></g></g><g class="edgeLabel" transform="translate(333.5, 381.5)"><g class="label" data-id="L_Check_L1_0" transform="translate(0, -10.5)"><g><rect class="background" style="" x="-34" y="0" width="68" height="21"/><text y="-10.1" text-anchor="middle" style=""><tspan class="text-outer-tspan row" x="0" y="-0.1em" dy="1.1em" text-anchor="middle"><tspan font-style="normal" class="text-inner-tspan" font-weight="normal">输出截断</tspan></tspan></text></g></g></g><g class="edgeLabel" transform="translate(221.75, 595.5)"><g class="label" data-id="L_L1_L2_0" transform="translate(0, -10.5)"><g><rect class="background" style="" x="-10" y="0" width="20" height="21"/><text y="-10.1" text-anchor="middle" style=""><tspan class="text-outer-tspan row" x="0" y="-0.1em" dy="1.1em" text-anchor="middle"><tspan font-style="normal" class="text-inner-tspan" font-weight="normal">是</tspan></tspan></text></g></g></g><g class="edgeLabel" transform="translate(470.1640625, 595.5)"><g class="label" data-id="L_L1_L3_0" transform="translate(0, -10.5)"><g><rect class="background" style="" x="-10" y="0" width="20" height="21"/><text y="-10.1" text-anchor="middle" style=""><tspan class="text-outer-tspan row" x="0" y="-0.1em" dy="1.1em" text-anchor="middle"><tspan font-style="normal" class="text-inner-tspan" font-weight="normal">否</tspan></tspan></text></g></g></g><g class="edgeLabel" transform="translate(365.7890625, 956.5)"><g class="label" data-id="L_L3_Stop_0" transform="translate(0, -10.5)"><g><rect class="background" style="" x="-10" y="0" width="20" height="21"/><text y="-10.1" text-anchor="middle" style=""><tspan class="text-outer-tspan row" x="0" y="-0.1em" dy="1.1em" text-anchor="middle"><tspan font-style="normal" class="text-inner-tspan" font-weight="normal">否</tspan></tspan></text></g></g></g><g class="edgeLabel" transform="translate(540.4140625, 825.5)"><g class="label" data-id="L_L3_L4_0" transform="translate(0, -10.5)"><g><rect class="background" style="" x="-10" y="0" width="20" height="21"/><text y="-10.1" text-anchor="middle" style=""><tspan class="text-outer-tspan row" x="0" y="-0.1em" dy="1.1em" text-anchor="middle"><tspan font-style="normal" class="text-inner-tspan" font-weight="normal">是</tspan></tspan></text></g></g></g><g class="edgeLabel" transform="translate(392.88794, 1103.35187)"><g class="label" data-id="L_L4_L5_0" transform="translate(0, -10.5)"><g><rect class="background" style="" x="-10" y="0" width="20" height="21"/><text y="-10.1" text-anchor="middle" style=""><tspan class="text-outer-tspan row" x="0" y="-0.1em" dy="1.1em" text-anchor="middle"><tspan font-style="normal" class="text-inner-tspan" font-weight="normal">是</tspan></tspan></text></g></g></g><g class="edgeLabel" transform="translate(622.50048, 1078.00645)"><g class="label" data-id="L_L4_Stop_0" transform="translate(0, -10.5)"><g><rect class="background" style="" x="-10" y="0" width="20" height="21"/><text y="-10.1" text-anchor="middle" style=""><tspan class="text-outer-tspan row" x="0" y="-0.1em" dy="1.1em" text-anchor="middle"><tspan font-style="normal" class="text-inner-tspan" font-weight="normal">否</tspan></tspan></text></g></g></g><g class="edgeLabel" transform="translate(770.2890625, 595.5)"><g class="label" data-id="L_Check_C1_0" transform="translate(0, -10.5)"><g><rect class="background" style="" x="-42" y="0" width="84" height="21"/><text y="-10.1" text-anchor="middle" style=""><tspan class="text-outer-tspan row" x="0" y="-0.1em" dy="1.1em" text-anchor="middle"><tspan font-style="normal" class="text-inner-tspan" font-weight="normal">上下文超限</tspan></tspan></text></g></g></g><g class="edgeLabel" transform="translate(629.53429, 1098.26837)"><g class="label" data-id="L_C1_C2_0" transform="translate(0, -10.5)"><g><rect class="background" style="" x="-10" y="0" width="20" height="21"/><text y="-10.1" text-anchor="middle" style=""><tspan class="text-outer-tspan row" x="0" y="-0.1em" dy="1.1em" text-anchor="middle"><tspan font-style="normal" class="text-inner-tspan" font-weight="normal">否</tspan></tspan></text></g></g></g><g class="edgeLabel" transform="translate(847.74813, 1092.40637)"><g class="label" data-id="L_C1_Stop_0" transform="translate(0, -10.5)"><g><rect class="background" style="" x="-10" y="0" width="20" height="21"/><text y="-10.1" text-anchor="middle" style=""><tspan class="text-outer-tspan row" x="0" y="-0.1em" dy="1.1em" text-anchor="middle"><tspan font-style="normal" class="text-inner-tspan" font-weight="normal">是</tspan></tspan></text></g></g></g><g class="edgeLabel" transform="translate(1001.7890625, 595.5)"><g class="label" data-id="L_Check_R1_0" transform="translate(-0.05078125, -10.5)"><g><rect class="background" style="" x="-35.3671875" y="0" width="70.8359375" height="21"/><text y="-10.1" text-anchor="middle" style=""><tspan class="text-outer-tspan row" x="0" y="-0.1em" dy="1.1em" text-anchor="middle"><tspan font-style="normal" class="text-inner-tspan" font-weight="normal">429</tspan><tspan font-style="normal" class="text-inner-tspan" font-weight="normal"> /</tspan><tspan font-style="normal" class="text-inner-tspan" font-weight="normal"> 529</tspan></tspan></text></g></g></g><g class="edgeLabel" transform="translate(983.42848, 1088.97307)"><g class="label" data-id="L_R1_R2_0" transform="translate(0, -10.5)"><g><rect class="background" style="" x="-10" y="0" width="20" height="21"/><text y="-10.1" text-anchor="middle" style=""><tspan class="text-outer-tspan row" x="0" y="-0.1em" dy="1.1em" text-anchor="middle"><tspan font-style="normal" class="text-inner-tspan" font-weight="normal">是</tspan></tspan></text></g></g></g><g class="edgeLabel" transform="translate(1052.0390625, 1087.5)"><g class="label" data-id="L_R1_Stop_0" transform="translate(0, -10.5)"><g><rect class="background" style="" x="-10" y="0" width="20" height="21"/><text y="-10.1" text-anchor="middle" style=""><tspan class="text-outer-tspan row" x="0" y="-0.1em" dy="1.1em" text-anchor="middle"><tspan font-style="normal" class="text-inner-tspan" font-weight="normal">否</tspan></tspan></text></g></g></g><g class="edgeLabel" transform="translate(1132.2890625, 710.5)"><g class="label" data-id="L_Check_Stop_0" transform="translate(0, -10.5)"><g><rect class="background" style="" x="-34" y="0" width="68" height="21"/><text y="-10.1" text-anchor="middle" style=""><tspan class="text-outer-tspan row" x="0" y="-0.1em" dy="1.1em" text-anchor="middle"><tspan font-style="normal" class="text-inner-tspan" font-weight="normal">普通错误</tspan></tspan></text></g></g></g></g><g class="nodes"><g class="node default" id="my-svg-flowchart-Start-0" data-look="classic" transform="translate(681.7890625, 24)"><g class="basic label-container outer-path"><path d="M-11.5 -16 C-3.562142741605756 -16, 4.375714516788488 -16, 11.5 -16 C11.5 -16, 11.499999999999998 -16, 11.499999999999998 -16 C11.88055583422386 -15.987796315103436, 12.261111668447725 -15.975592630206872, 12.525123519691405 -15.967126284005381 C12.866507531402158 -15.934193378969988, 13.207891543112911 -15.901260473934595, 13.546034586952095 -15.868640221171939 C13.783586479851294 -15.83023467337044, 14.021138372750492 -15.79182912556894, 14.558538059221954 -15.704946511857047 C14.917325308541383 -15.623055663505495, 15.276112557860811 -15.541164815153945, 15.558473342552116 -15.476717808624471 C15.81337626252358 -15.40106395998967, 16.068279182495044 -15.325410111354872, 16.54173148837793 -15.184891952170698 C16.896742672296366 -15.054244554801304, 17.251753856214805 -14.923597157431908, 17.504272078069985 -14.830668117536348 C17.806672813962418 -14.69680428215588, 18.109073549854855 -14.562940446775409, 18.44213982588093 -14.415501886438706 C18.688705104032888 -14.286868938759428, 18.935270382184846 -14.158235991080149, 19.351480832063 -13.941099265974232 C19.593116880121226 -13.794618073630298, 19.834752928179455 -13.648136881286364, 20.228558419368778 -13.409409678269451 C20.466335393208627 -13.243546754518071, 20.704112367048477 -13.077683830766693, 21.069768487859456 -12.822617949887306 C21.373253467962684 -12.580596754329475, 21.676738448065915 -12.338575558771643, 21.871654324924613 -12.183135333906153 C22.078184491547397 -11.995570101068106, 22.284714658170177 -11.808004868230059, 22.630920809655784 -11.493589601563642 C22.820809022904164 -11.297514431272445, 23.010697236152545 -11.10143926098125, 23.344447953205048 -10.756814244181072 C23.572314686123576 -10.489149013710556, 23.800181419042104 -10.221483783240037, 24.00930371948848 -9.975836829739738 C24.171853896757263 -9.758034400825357, 24.334404074026047 -9.540231971910977, 24.62275607355129 -9.153866561954718 C24.750803094378142 -8.957151952525168, 24.878850115204994 -8.760437343095617, 25.182284208085537 -8.294281092968403 C25.30723704118119 -8.072414684960695, 25.43218987427684 -7.850548276952988, 25.685588901968003 -7.400612643853364 C25.809821669958037 -7.142640642966647, 25.934054437948074 -6.884668642079931, 26.130601968252996 -6.476533489958305 C26.27326724359972 -6.124147501606445, 26.41593251894644 -5.771761513254585, 26.515494752796165 -5.52584087074093 C26.626696541666462 -5.190918800262556, 26.73789833053676 -4.855996729784182, 26.83868564858657 -4.552441386096524 C26.939179337659738 -4.1692153954201725, 27.039673026732906 -3.785989404743821, 27.098846594909176 -3.560334943301032 C27.144516702240335 -3.3258285945361434, 27.19018680957149 -3.0913222457712544, 27.2949085346312 -2.5535983205340735 C27.340894173571034 -2.1969427858082726, 27.386879812510863 -1.8402872510824717, 27.42606580718717 -1.536368414522911 C27.448883162684133 -1.18096968481987, 27.471700518181095 -0.8255709551168291, 27.491779459211006 -0.5128252411464826 C27.491779459211006 -0.261582233459103, 27.491779459211006 -0.010339225771723304, 27.491779459211006 0.5128252411464788 C27.47690454734941 0.7445140002036207, 27.46202963548781 0.9762027592607627, 27.42606580718717 1.5363684145229002 C27.386576835321794 1.8426370823312685, 27.347087863456416 2.148905750139637, 27.294908534631205 2.5535983205340624 C27.24975693667772 2.7854422332315885, 27.20460533872424 3.0172861459291145, 27.098846594909176 3.5603349433010285 C27.033507302686704 3.8095019827737016, 26.96816801046423 4.058669022246375, 26.83868564858657 4.552441386096513 C26.711944850455275 4.93416447666411, 26.58520405232398 5.315887567231707, 26.515494752796165 5.525840870740919 C26.38096230901716 5.858138607882922, 26.246429865238152 6.190436345024926, 26.130601968253 6.4765334899583005 C25.989548885991812 6.769433233326136, 25.848495803730625 7.06233297669397, 25.685588901968003 7.400612643853361 C25.57999200975069 7.588110618830034, 25.474395117533373 7.775608593806707, 25.18228420808554 8.294281092968399 C24.958965376074758 8.637358788439878, 24.735646544063975 8.980436483911355, 24.622756073551297 9.15386656195471 C24.38771327796165 9.468802495205653, 24.152670482372006 9.783738428456594, 24.00930371948848 9.975836829739734 C23.745143393933972 10.286134579284397, 23.480983068379466 10.596432328829058, 23.344447953205055 10.756814244181063 C23.144404016590777 10.963376032647945, 22.944360079976498 11.169937821114825, 22.630920809655784 11.493589601563638 C22.334520602470167 11.76277242740988, 22.038120395284555 12.03195525325612, 21.871654324924627 12.183135333906142 C21.702377539221597 12.318129065859859, 21.533100753518564 12.453122797813574, 21.06976848785946 12.822617949887304 C20.73332942535187 13.057303275680319, 20.396890362844275 13.291988601473333, 20.228558419368788 13.409409678269446 C19.960090104349437 13.572156748529117, 19.691621789330082 13.73490381878879, 19.351480832063004 13.94109926597423 C19.096649018927923 14.074044859659235, 18.841817205792843 14.206990453344241, 18.442139825880933 14.415501886438705 C18.126877613160303 14.555059116088861, 17.811615400439674 14.694616345739018, 17.50427207806999 14.830668117536346 C17.29824262880321 14.906488859381874, 17.092213179536426 14.982309601227401, 16.54173148837794 15.184891952170695 C16.317093706128315 15.251563266794603, 16.09245592387869 15.318234581418512, 15.558473342552134 15.476717808624468 C15.32976856997406 15.528918180527295, 15.10106379739599 15.581118552430125, 14.558538059221961 15.704946511857045 C14.231450768375838 15.75782744844122, 13.904363477529717 15.810708385025398, 13.546034586952105 15.868640221171937 C13.180165236783566 15.903935197360425, 12.814295886615026 15.939230173548912, 12.525123519691405 15.967126284005381 C12.149576770333477 15.979169337299886, 11.77403002097555 15.991212390594393, 11.500000000000004 16 C11.500000000000002 16, 11.500000000000002 16, 11.5 16 C2.540253853013338 16, -6.419492293973324 16, -11.499999999999996 16 C-11.887429698122595 15.987575883667368, -12.274859396245196 15.975151767334737, -12.5251235196914 15.967126284005381 C-12.856636216898886 15.935145652808126, -13.188148914106375 15.903165021610869, -13.5460345869521 15.868640221171937 C-13.771085248569639 15.83225577549556, -13.996135910187178 15.795871329819184, -14.558538059221956 15.704946511857045 C-14.80764838380599 15.648088705867528, -15.056758708390024 15.59123089987801, -15.558473342552112 15.476717808624471 C-15.817594277074246 15.399812075411843, -16.07671521159638 15.322906342199216, -16.541731488377923 15.184891952170702 C-16.76228198038371 15.103727332366173, -16.9828324723895 15.022562712561644, -17.504272078069988 14.830668117536348 C-17.693869142890076 14.746739121137596, -17.883466207710164 14.662810124738844, -18.44213982588093 14.415501886438708 C-18.649636247762793 14.30725113605074, -18.85713266964466 14.199000385662773, -19.351480832063 13.941099265974234 C-19.543948394229798 13.82442429872378, -19.73641595639659 13.707749331473327, -20.228558419368767 13.409409678269457 C-20.3985455016391 13.290834048299866, -20.568532583909427 13.172258418330276, -21.069768487859456 12.822617949887308 C-21.389773846247216 12.567422192273291, -21.709779204634977 12.312226434659276, -21.871654324924613 12.183135333906154 C-22.081968503521963 11.992133561512276, -22.29228268211931 11.801131789118399, -22.630920809655777 11.493589601563649 C-22.874043196595665 11.242545776329028, -23.117165583535552 10.991501951094406, -23.344447953205048 10.756814244181069 C-23.5347447210023 10.533280832533578, -23.725041488799558 10.309747420886085, -24.009303719488475 9.97583682973974 C-24.18049333112226 9.746458345844918, -24.35168294275605 9.517079861950098, -24.62275607355129 9.15386656195472 C-24.784532371619676 8.905334725103053, -24.94630866968806 8.656802888251386, -25.182284208085534 8.29428109296841 C-25.337912070298856 8.017948064578755, -25.49353993251218 7.7416150361891, -25.685588901968 7.400612643853366 C-25.82431686955316 7.112541050859786, -25.96304483713832 6.824469457866206, -26.130601968252996 6.476533489958307 C-26.229409861952178 6.232476082200667, -26.328217755651355 5.988418674443027, -26.515494752796165 5.525840870740931 C-26.63426786981492 5.168115166206713, -26.75304098683368 4.810389461672494, -26.83868564858657 4.552441386096519 C-26.939062541296625 4.169660790572592, -27.039439434006677 3.7868801950486644, -27.098846594909176 3.5603349433010343 C-27.172077783491734 3.184308267346784, -27.245308972074294 2.808281591392533, -27.2949085346312 2.5535983205340753 C-27.34505619611925 2.16466296080862, -27.395203857607296 1.7757276010831649, -27.42606580718717 1.5363684145229202 C-27.45052230097509 1.1554387828496195, -27.474978794763008 0.7745091511763189, -27.491779459211006 0.5128252411464846 C-27.491779459211006 0.29820489216734425, -27.491779459211006 0.08358454318820385, -27.491779459211006 -0.5128252411464769 C-27.475028558326326 -0.7737340435092035, -27.458277657441645 -1.0346428458719301, -27.42606580718717 -1.5363684145228982 C-27.384748939908608 -1.856813878197169, -27.343432072630044 -2.17725934187144, -27.294908534631205 -2.5535983205340678 C-27.220175286961002 -2.937337752443062, -27.1454420392908 -3.3210771843520566, -27.098846594909176 -3.5603349433010267 C-27.010431914681188 -3.89749843817516, -26.922017234453197 -4.234661933049293, -26.838685648586573 -4.552441386096511 C-26.76662167637494 -4.769486588563243, -26.69455770416331 -4.986531791029974, -26.515494752796172 -5.525840870740911 C-26.436977427064253 -5.71978018332797, -26.358460101332337 -5.913719495915028, -26.130601968253 -6.476533489958299 C-25.973083608817088 -6.803623733679942, -25.815565249381176 -7.1307139774015855, -25.685588901968003 -7.400612643853359 C-25.489744854296784 -7.748353581853873, -25.293900806625565 -8.09609451985439, -25.182284208085537 -8.294281092968404 C-25.013531332625146 -8.553530826167531, -24.844778457164757 -8.812780559366658, -24.622756073551294 -9.153866561954715 C-24.389641600603145 -9.466218718539857, -24.156527127655 -9.778570875124998, -24.00930371948848 -9.975836829739734 C-23.813442590377484 -10.205906456807474, -23.61758146126649 -10.435976083875216, -23.344447953205055 -10.756814244181063 C-23.111536032901434 -10.99731492431884, -22.87862411259781 -11.237815604456614, -22.63092080965579 -11.493589601563633 C-22.34082242012525 -11.757049283352494, -22.050724030594708 -12.020508965141355, -21.871654324924627 -12.18313533390614 C-21.685364883491747 -12.331696206078629, -21.49907544205887 -12.480257078251118, -21.069768487859463 -12.822617949887302 C-20.763905467596725 -13.03597475222584, -20.45804244733399 -13.249331554564378, -20.228558419368788 -13.409409678269444 C-19.974333299106327 -13.563522440165187, -19.720108178843866 -13.71763520206093, -19.351480832063007 -13.941099265974229 C-19.011103616849788 -14.118673841128954, -18.670726401636568 -14.296248416283682, -18.442139825880936 -14.415501886438705 C-18.12589007706632 -14.55549626902345, -17.809640328251703 -14.695490651608198, -17.504272078069995 -14.830668117536344 C-17.148471004694517 -14.961606201527589, -16.792669931319036 -15.092544285518834, -16.54173148837794 -15.184891952170695 C-16.30253432757984 -15.255884413924052, -16.06333716678174 -15.32687687567741, -15.558473342552134 -15.476717808624466 C-15.274398028026335 -15.541556145400309, -14.990322713500534 -15.606394482176153, -14.558538059221963 -15.704946511857043 C-14.340353678790416 -15.740220870440075, -14.12216929835887 -15.775495229023107, -13.546034586952107 -15.868640221171937 C-13.302167734703481 -15.892165763115562, -13.058300882454857 -15.915691305059186, -12.525123519691407 -15.967126284005381 C-12.280141287397948 -15.974982387366046, -12.035159055104488 -15.982838490726708, -11.500000000000005 -16 C-11.500000000000004 -16, -11.500000000000002 -16, -11.5 -16" stroke="none" stroke-width="0" fill="#eee" style=""/><path d="M-11.5 -16 C-6.785131910281366 -16, -2.0702638205627313 -16, 11.5 -16 M-11.5 -16 C-2.906983968757043 -16, 5.686032062485914 -16, 11.5 -16 M11.5 -16 C11.5 -16, 11.5 -16, 11.499999999999998 -16 M11.5 -16 C11.5 -16, 11.499999999999998 -16, 11.499999999999998 -16 M11.499999999999998 -16 C11.883686808447775 -15.987695910854146, 12.267373616895553 -15.975391821708294, 12.525123519691405 -15.967126284005381 M11.499999999999998 -16 C11.844257274886871 -15.988960339250514, 12.188514549773746 -15.977920678501027, 12.525123519691405 -15.967126284005381 M12.525123519691405 -15.967126284005381 C12.781720402598445 -15.942372691314242, 13.038317285505485 -15.917619098623101, 13.546034586952095 -15.868640221171939 M12.525123519691405 -15.967126284005381 C12.860618683479695 -15.934761469046693, 13.196113847267986 -15.902396654088005, 13.546034586952095 -15.868640221171939 M13.546034586952095 -15.868640221171939 C13.85547283082262 -15.818612645632374, 14.164911074693144 -15.768585070092808, 14.558538059221954 -15.704946511857047 M13.546034586952095 -15.868640221171939 C13.92538052299671 -15.807310512103916, 14.304726459041325 -15.745980803035895, 14.558538059221954 -15.704946511857047 M14.558538059221954 -15.704946511857047 C14.957356880788431 -15.61391871837053, 15.356175702354909 -15.52289092488401, 15.558473342552116 -15.476717808624471 M14.558538059221954 -15.704946511857047 C14.881636027477414 -15.631201509014023, 15.204733995732875 -15.557456506170997, 15.558473342552116 -15.476717808624471 M15.558473342552116 -15.476717808624471 C15.916520602947989 -15.370451261167398, 16.27456786334386 -15.264184713710325, 16.54173148837793 -15.184891952170698 M15.558473342552116 -15.476717808624471 C15.785281156551045 -15.4094024399681, 16.012088970549975 -15.342087071311727, 16.54173148837793 -15.184891952170698 M16.54173148837793 -15.184891952170698 C16.830068660826267 -15.078781207350106, 17.118405833274604 -14.972670462529514, 17.504272078069985 -14.830668117536348 M16.54173148837793 -15.184891952170698 C16.821747630231037 -15.081843423527914, 17.101763772084144 -14.97879489488513, 17.504272078069985 -14.830668117536348 M17.504272078069985 -14.830668117536348 C17.826244084522674 -14.688140661239968, 18.148216090975364 -14.545613204943589, 18.44213982588093 -14.415501886438706 M17.504272078069985 -14.830668117536348 C17.87871167359371 -14.664914815953953, 18.25315126911743 -14.499161514371556, 18.44213982588093 -14.415501886438706 M18.44213982588093 -14.415501886438706 C18.652090803506866 -14.305970595891274, 18.862041781132802 -14.196439305343842, 19.351480832063 -13.941099265974232 M18.44213982588093 -14.415501886438706 C18.696764683293065 -14.2826642614218, 18.951389540705197 -14.149826636404896, 19.351480832063 -13.941099265974232 M19.351480832063 -13.941099265974232 C19.657807996202898 -13.755401938894394, 19.964135160342796 -13.569704611814554, 20.228558419368778 -13.409409678269451 M19.351480832063 -13.941099265974232 C19.540407628712618 -13.82657073158814, 19.729334425362236 -13.712042197202047, 20.228558419368778 -13.409409678269451 M20.228558419368778 -13.409409678269451 C20.561919179290502 -13.176871643102766, 20.895279939212227 -12.944333607936082, 21.069768487859456 -12.822617949887306 M20.228558419368778 -13.409409678269451 C20.435920372686954 -13.264762956188974, 20.643282326005128 -13.120116234108497, 21.069768487859456 -12.822617949887306 M21.069768487859456 -12.822617949887306 C21.232648776269663 -12.692725254306675, 21.395529064679874 -12.562832558726042, 21.871654324924613 -12.183135333906153 M21.069768487859456 -12.822617949887306 C21.252507102087637 -12.676888767919083, 21.435245716315823 -12.53115958595086, 21.871654324924613 -12.183135333906153 M21.871654324924613 -12.183135333906153 C22.087918202522978 -11.986730202299961, 22.304182080121343 -11.790325070693768, 22.630920809655784 -11.493589601563642 M21.871654324924613 -12.183135333906153 C22.174064272423653 -11.908494620916278, 22.47647421992269 -11.633853907926403, 22.630920809655784 -11.493589601563642 M22.630920809655784 -11.493589601563642 C22.823495017340296 -11.294740921492894, 23.01606922502481 -11.095892241422145, 23.344447953205048 -10.756814244181072 M22.630920809655784 -11.493589601563642 C22.908158539908342 -11.207318883436912, 23.185396270160904 -10.921048165310182, 23.344447953205048 -10.756814244181072 M23.344447953205048 -10.756814244181072 C23.508533337413912 -10.564070215166481, 23.672618721622776 -10.371326186151888, 24.00930371948848 -9.975836829739738 M23.344447953205048 -10.756814244181072 C23.59227698540644 -10.465700161085897, 23.84010601760783 -10.174586077990721, 24.00930371948848 -9.975836829739738 M24.00930371948848 -9.975836829739738 C24.14822401568017 -9.789696288742208, 24.287144311871863 -9.603555747744679, 24.62275607355129 -9.153866561954718 M24.00930371948848 -9.975836829739738 C24.25461296413977 -9.647144790038936, 24.499922208791062 -9.318452750338135, 24.62275607355129 -9.153866561954718 M24.62275607355129 -9.153866561954718 C24.78513355878725 -8.904411140172297, 24.947511044023212 -8.654955718389873, 25.182284208085537 -8.294281092968403 M24.62275607355129 -9.153866561954718 C24.7871579446282 -8.901301139896887, 24.95155981570511 -8.648735717839054, 25.182284208085537 -8.294281092968403 M25.182284208085537 -8.294281092968403 C25.364380752091655 -7.970950239810977, 25.54647729609777 -7.647619386653552, 25.685588901968003 -7.400612643853364 M25.182284208085537 -8.294281092968403 C25.37648850404506 -7.949451700174873, 25.570692800004583 -7.6046223073813435, 25.685588901968003 -7.400612643853364 M25.685588901968003 -7.400612643853364 C25.82420001124521 -7.112783709636614, 25.96281112052242 -6.8249547754198625, 26.130601968252996 -6.476533489958305 M25.685588901968003 -7.400612643853364 C25.84999321628933 -7.05922356747632, 26.01439753061066 -6.7178344910992775, 26.130601968252996 -6.476533489958305 M26.130601968252996 -6.476533489958305 C26.277567310963054 -6.113526252082864, 26.42453265367311 -5.7505190142074225, 26.515494752796165 -5.52584087074093 M26.130601968252996 -6.476533489958305 C26.20785713146121 -6.285711743207047, 26.285112294669425 -6.094889996455789, 26.515494752796165 -5.52584087074093 M26.515494752796165 -5.52584087074093 C26.60860310772639 -5.245413340492848, 26.70171146265661 -4.964985810244768, 26.83868564858657 -4.552441386096524 M26.515494752796165 -5.52584087074093 C26.641807763622545 -5.145406207377092, 26.76812077444892 -4.764971544013254, 26.83868564858657 -4.552441386096524 M26.83868564858657 -4.552441386096524 C26.93336310248902 -4.191395220898387, 27.028040556391474 -3.830349055700249, 27.098846594909176 -3.560334943301032 M26.83868564858657 -4.552441386096524 C26.913053844537608 -4.268843223555208, 26.987422040488642 -3.9852450610138925, 27.098846594909176 -3.560334943301032 M27.098846594909176 -3.560334943301032 C27.16623310730732 -3.2143194442810046, 27.233619619705465 -2.868303945260977, 27.2949085346312 -2.5535983205340735 M27.098846594909176 -3.560334943301032 C27.161526767775786 -3.238485503090219, 27.224206940642397 -2.916636062879406, 27.2949085346312 -2.5535983205340735 M27.2949085346312 -2.5535983205340735 C27.322934433419064 -2.336234983875109, 27.350960332206924 -2.118871647216144, 27.42606580718717 -1.536368414522911 M27.2949085346312 -2.5535983205340735 C27.329954311728528 -2.281790193938649, 27.36500008882586 -2.009982067343225, 27.42606580718717 -1.536368414522911 M27.42606580718717 -1.536368414522911 C27.445237595250443 -1.2377523402486932, 27.46440938331371 -0.9391362659744751, 27.491779459211006 -0.5128252411464826 M27.42606580718717 -1.536368414522911 C27.442935358773973 -1.2736115317015062, 27.459804910360777 -1.0108546488801013, 27.491779459211006 -0.5128252411464826 M27.491779459211006 -0.5128252411464826 C27.491779459211006 -0.10558203381496967, 27.491779459211006 0.3016611735165433, 27.491779459211006 0.5128252411464788 M27.491779459211006 -0.5128252411464826 C27.491779459211006 -0.10902407036750689, 27.491779459211006 0.2947771004114689, 27.491779459211006 0.5128252411464788 M27.491779459211006 0.5128252411464788 C27.469888085323007 0.8538010598510456, 27.447996711435003 1.1947768785556123, 27.42606580718717 1.5363684145229002 M27.491779459211006 0.5128252411464788 C27.47032362678285 0.8470171500512036, 27.448867794354697 1.1812090589559285, 27.42606580718717 1.5363684145229002 M27.42606580718717 1.5363684145229002 C27.394454212693226 1.781541699002555, 27.36284261819928 2.0267149834822096, 27.294908534631205 2.5535983205340624 M27.42606580718717 1.5363684145229002 C27.37520055212713 1.9308692882878755, 27.324335297067087 2.3253701620528506, 27.294908534631205 2.5535983205340624 M27.294908534631205 2.5535983205340624 C27.231029009241563 2.8816061824673853, 27.167149483851926 3.209614044400708, 27.098846594909176 3.5603349433010285 M27.294908534631205 2.5535983205340624 C27.221954317526013 2.9282028064899666, 27.14900010042082 3.3028072924458707, 27.098846594909176 3.5603349433010285 M27.098846594909176 3.5603349433010285 C27.037721723284076 3.7934305704944835, 26.97659685165897 4.0265261976879385, 26.83868564858657 4.552441386096513 M27.098846594909176 3.5603349433010285 C27.022836052147355 3.85019608602948, 26.94682550938553 4.140057228757931, 26.83868564858657 4.552441386096513 M26.83868564858657 4.552441386096513 C26.72116011559362 4.906409566320517, 26.603634582600673 5.2603777465445205, 26.515494752796165 5.525840870740919 M26.83868564858657 4.552441386096513 C26.764920423923378 4.774610489889569, 26.691155199260187 4.996779593682625, 26.515494752796165 5.525840870740919 M26.515494752796165 5.525840870740919 C26.394643140834223 5.82434668879389, 26.273791528872277 6.1228525068468596, 26.130601968253 6.4765334899583005 M26.515494752796165 5.525840870740919 C26.39862801796838 5.814503965230154, 26.2817612831406 6.103167059719388, 26.130601968253 6.4765334899583005 M26.130601968253 6.4765334899583005 C25.95946127389974 6.831910803607093, 25.78832057954648 7.187288117255884, 25.685588901968003 7.400612643853361 M26.130601968253 6.4765334899583005 C26.008881816398258 6.729287989678705, 25.887161664543516 6.9820424893991095, 25.685588901968003 7.400612643853361 M25.685588901968003 7.400612643853361 C25.53815533812776 7.662395865718931, 25.39072177428751 7.924179087584503, 25.18228420808554 8.294281092968399 M25.685588901968003 7.400612643853361 C25.48835923231981 7.750813893983437, 25.291129562671614 8.101015144113513, 25.18228420808554 8.294281092968399 M25.18228420808554 8.294281092968399 C24.99669351712802 8.579398232357663, 24.811102826170497 8.864515371746927, 24.622756073551297 9.15386656195471 M25.18228420808554 8.294281092968399 C24.966959530271648 8.625077620862484, 24.75163485245775 8.95587414875657, 24.622756073551297 9.15386656195471 M24.622756073551297 9.15386656195471 C24.472076066769464 9.355764043811353, 24.321396059987627 9.557661525667998, 24.00930371948848 9.975836829739734 M24.622756073551297 9.15386656195471 C24.425942198103613 9.417579224941695, 24.22912832265593 9.68129188792868, 24.00930371948848 9.975836829739734 M24.00930371948848 9.975836829739734 C23.850610749849164 10.162246621763853, 23.69191778020985 10.34865641378797, 23.344447953205055 10.756814244181063 M24.00930371948848 9.975836829739734 C23.79170609739293 10.231439378308623, 23.574108475297376 10.487041926877513, 23.344447953205055 10.756814244181063 M23.344447953205055 10.756814244181063 C23.184983088631785 10.92147480916183, 23.025518224058512 11.086135374142598, 22.630920809655784 11.493589601563638 M23.344447953205055 10.756814244181063 C23.091738444264724 11.017757559998497, 22.83902893532439 11.278700875815929, 22.630920809655784 11.493589601563638 M22.630920809655784 11.493589601563638 C22.36029732030702 11.739362694285035, 22.08967383095825 11.98513578700643, 21.871654324924627 12.183135333906142 M22.630920809655784 11.493589601563638 C22.392460176242448 11.710153239507013, 22.15399954282911 11.926716877450387, 21.871654324924627 12.183135333906142 M21.871654324924627 12.183135333906142 C21.59755753136884 12.401720232744877, 21.323460737813054 12.62030513158361, 21.06976848785946 12.822617949887304 M21.871654324924627 12.183135333906142 C21.648371937010687 12.361197096473628, 21.425089549096743 12.539258859041114, 21.06976848785946 12.822617949887304 M21.06976848785946 12.822617949887304 C20.786440244503126 13.020255467370706, 20.503112001146793 13.21789298485411, 20.228558419368788 13.409409678269446 M21.06976848785946 12.822617949887304 C20.840288111405275 12.982693526456355, 20.61080773495109 13.142769103025408, 20.228558419368788 13.409409678269446 M20.228558419368788 13.409409678269446 C19.892201257207493 13.613311366625712, 19.555844095046197 13.817213054981979, 19.351480832063004 13.94109926597423 M20.228558419368788 13.409409678269446 C19.980081650583998 13.56003775571836, 19.731604881799207 13.710665833167274, 19.351480832063004 13.94109926597423 M19.351480832063004 13.94109926597423 C19.139048856333396 14.051924891643193, 18.926616880603785 14.162750517312155, 18.442139825880933 14.415501886438705 M19.351480832063004 13.94109926597423 C19.05916767925327 14.093598850559559, 18.766854526443534 14.246098435144887, 18.442139825880933 14.415501886438705 M18.442139825880933 14.415501886438705 C18.196844324897985 14.524086928291352, 17.951548823915036 14.632671970143997, 17.50427207806999 14.830668117536346 M18.442139825880933 14.415501886438705 C18.25135199257684 14.499958000722435, 18.060564159272744 14.584414115006165, 17.50427207806999 14.830668117536346 M17.50427207806999 14.830668117536346 C17.25617825680285 14.921968937116798, 17.00808443553571 15.013269756697248, 16.54173148837794 15.184891952170695 M17.50427207806999 14.830668117536346 C17.138000793698613 14.96545933595965, 16.771729509327237 15.100250554382955, 16.54173148837794 15.184891952170695 M16.54173148837794 15.184891952170695 C16.160478762557275 15.298045759957875, 15.779226036736606 15.411199567745053, 15.558473342552134 15.476717808624468 M16.54173148837794 15.184891952170695 C16.202356783776093 15.285616583082348, 15.862982079174243 15.386341213994001, 15.558473342552134 15.476717808624468 M15.558473342552134 15.476717808624468 C15.29730652956607 15.53632742941581, 15.036139716580006 15.595937050207151, 14.558538059221961 15.704946511857045 M15.558473342552134 15.476717808624468 C15.306926190192051 15.53413180465208, 15.05537903783197 15.591545800679695, 14.558538059221961 15.704946511857045 M14.558538059221961 15.704946511857045 C14.19638913591413 15.76349594127061, 13.8342402126063 15.822045370684174, 13.546034586952105 15.868640221171937 M14.558538059221961 15.704946511857045 C14.182122863440307 15.765802401567582, 13.805707667658655 15.826658291278118, 13.546034586952105 15.868640221171937 M13.546034586952105 15.868640221171937 C13.334067959792526 15.889088386766856, 13.122101332632946 15.909536552361773, 12.525123519691405 15.967126284005381 M13.546034586952105 15.868640221171937 C13.27483136136094 15.894802870175118, 13.003628135769777 15.920965519178297, 12.525123519691405 15.967126284005381 M12.525123519691405 15.967126284005381 C12.117008159342454 15.980213749263413, 11.708892798993501 15.993301214521445, 11.500000000000004 16 M12.525123519691405 15.967126284005381 C12.232108682574147 15.97652269951295, 11.939093845456888 15.98591911502052, 11.500000000000004 16 M11.500000000000004 16 C11.500000000000002 16, 11.500000000000002 16, 11.5 16 M11.500000000000004 16 C11.500000000000002 16, 11.500000000000002 16, 11.5 16 M11.5 16 C3.8056632857175163 16, -3.8886734285649673 16, -11.499999999999996 16 M11.5 16 C6.538227967031674 16, 1.5764559340633486 16, -11.499999999999996 16 M-11.499999999999996 16 C-11.74403653254043 15.992174223389723, -11.988073065080865 15.984348446779446, -12.5251235196914 15.967126284005381 M-11.499999999999996 16 C-11.892460945071536 15.987414541370443, -12.284921890143073 15.974829082740888, -12.5251235196914 15.967126284005381 M-12.5251235196914 15.967126284005381 C-12.821811809843735 15.93850512147426, -13.11850009999607 15.909883958943137, -13.5460345869521 15.868640221171937 M-12.5251235196914 15.967126284005381 C-12.777481477458425 15.942781615324446, -13.029839435225451 15.918436946643508, -13.5460345869521 15.868640221171937 M-13.5460345869521 15.868640221171937 C-13.797029376904302 15.828061330026133, -14.048024166856504 15.787482438880327, -14.558538059221956 15.704946511857045 M-13.5460345869521 15.868640221171937 C-13.843233726898207 15.820591369039203, -14.140432866844312 15.77254251690647, -14.558538059221956 15.704946511857045 M-14.558538059221956 15.704946511857045 C-14.781582792719497 15.65403800693914, -15.00462752621704 15.603129502021236, -15.558473342552112 15.476717808624471 M-14.558538059221956 15.704946511857045 C-14.780318019780486 15.654326683109057, -15.002097980339018 15.603706854361066, -15.558473342552112 15.476717808624471 M-15.558473342552112 15.476717808624471 C-15.853914809800827 15.389032331948961, -16.14935627704954 15.30134685527345, -16.541731488377923 15.184891952170702 M-15.558473342552112 15.476717808624471 C-15.892553560139469 15.377564553667392, -16.226633777726825 15.278411298710312, -16.541731488377923 15.184891952170702 M-16.541731488377923 15.184891952170702 C-16.85144550679526 15.070914330428119, -17.161159525212604 14.956936708685536, -17.504272078069988 14.830668117536348 M-16.541731488377923 15.184891952170702 C-16.91922312636031 15.045971539898733, -17.2967147643427 14.907051127626767, -17.504272078069988 14.830668117536348 M-17.504272078069988 14.830668117536348 C-17.73517754270846 14.72845311790814, -17.966083007346935 14.62623811827993, -18.44213982588093 14.415501886438708 M-17.504272078069988 14.830668117536348 C-17.862791664324813 14.671962131806998, -18.22131125057964 14.513256146077648, -18.44213982588093 14.415501886438708 M-18.44213982588093 14.415501886438708 C-18.762334004485336 14.248456788554948, -19.082528183089742 14.081411690671189, -19.351480832063 13.941099265974234 M-18.44213982588093 14.415501886438708 C-18.7325383325893 14.264001171498073, -19.022936839297667 14.112500456557438, -19.351480832063 13.941099265974234 M-19.351480832063 13.941099265974234 C-19.591812496955388 13.795408798370838, -19.832144161847772 13.649718330767442, -20.228558419368767 13.409409678269457 M-19.351480832063 13.941099265974234 C-19.590037631732994 13.796484732098918, -19.82859443140299 13.6518701982236, -20.228558419368767 13.409409678269457 M-20.228558419368767 13.409409678269457 C-20.444575647534606 13.25872541113606, -20.66059287570044 13.108041144002666, -21.069768487859456 12.822617949887308 M-20.228558419368767 13.409409678269457 C-20.56060050827566 13.177791490918372, -20.892642597182554 12.946173303567289, -21.069768487859456 12.822617949887308 M-21.069768487859456 12.822617949887308 C-21.30640860730742 12.633903751885603, -21.543048726755387 12.445189553883896, -21.871654324924613 12.183135333906154 M-21.069768487859456 12.822617949887308 C-21.28158667900042 12.653698579171182, -21.493404870141386 12.484779208455056, -21.871654324924613 12.183135333906154 M-21.871654324924613 12.183135333906154 C-22.167667419865598 11.91430407315806, -22.46368051480658 11.645472812409965, -22.630920809655777 11.493589601563649 M-21.871654324924613 12.183135333906154 C-22.064420485610682 12.00807020708419, -22.25718664629675 11.833005080262225, -22.630920809655777 11.493589601563649 M-22.630920809655777 11.493589601563649 C-22.851851400306128 11.265460627978335, -23.072781990956475 11.037331654393022, -23.344447953205048 10.756814244181069 M-22.630920809655777 11.493589601563649 C-22.85192436355772 11.265385287430668, -23.07292791745967 11.037180973297687, -23.344447953205048 10.756814244181069 M-23.344447953205048 10.756814244181069 C-23.599412261376894 10.457318659922294, -23.85437656954874 10.157823075663519, -24.009303719488475 9.97583682973974 M-23.344447953205048 10.756814244181069 C-23.596769883228536 10.460422547650932, -23.849091813252024 10.164030851120796, -24.009303719488475 9.97583682973974 M-24.009303719488475 9.97583682973974 C-24.210824357011756 9.705817534366302, -24.412344994535033 9.435798238992863, -24.62275607355129 9.15386656195472 M-24.009303719488475 9.97583682973974 C-24.23437144202659 9.67426658563, -24.4594391645647 9.372696341520262, -24.62275607355129 9.15386656195472 M-24.62275607355129 9.15386656195472 C-24.793375913788413 8.89174866950829, -24.96399575402554 8.629630777061863, -25.182284208085534 8.29428109296841 M-24.62275607355129 9.15386656195472 C-24.819181602879528 8.852104201266556, -25.015607132207766 8.550341840578392, -25.182284208085534 8.29428109296841 M-25.182284208085534 8.29428109296841 C-25.320739203663422 8.048440228231279, -25.459194199241313 7.802599363494147, -25.685588901968 7.400612643853366 M-25.182284208085534 8.29428109296841 C-25.342652069460666 8.009531716089999, -25.503019930835798 7.72478233921159, -25.685588901968 7.400612643853366 M-25.685588901968 7.400612643853366 C-25.802911492800547 7.156989773688282, -25.920234083633094 6.913366903523198, -26.130601968252996 6.476533489958307 M-25.685588901968 7.400612643853366 C-25.859427799572593 7.039632453420883, -26.033266697177183 6.6786522629884, -26.130601968252996 6.476533489958307 M-26.130601968252996 6.476533489958307 C-26.23874354247889 6.209421710845252, -26.34688511670478 5.942309931732198, -26.515494752796165 5.525840870740931 M-26.130601968252996 6.476533489958307 C-26.21668359565813 6.263910205992583, -26.30276522306326 6.0512869220268595, -26.515494752796165 5.525840870740931 M-26.515494752796165 5.525840870740931 C-26.635567794833996 5.164199999164184, -26.755640836871827 4.802559127587437, -26.83868564858657 4.552441386096519 M-26.515494752796165 5.525840870740931 C-26.6323572781107 5.173869564008376, -26.749219803425238 4.821898257275819, -26.83868564858657 4.552441386096519 M-26.83868564858657 4.552441386096519 C-26.921543035522493 4.236470259091183, -27.004400422458417 3.9204991320858467, -27.098846594909176 3.5603349433010343 M-26.83868564858657 4.552441386096519 C-26.913822218882583 4.265913079162256, -26.9889587891786 3.979384772227992, -27.098846594909176 3.5603349433010343 M-27.098846594909176 3.5603349433010343 C-27.15522307403461 3.270853638165027, -27.21159955316004 2.9813723330290194, -27.2949085346312 2.5535983205340753 M-27.098846594909176 3.5603349433010343 C-27.154088275825693 3.2766805871281126, -27.209329956742213 2.9930262309551905, -27.2949085346312 2.5535983205340753 M-27.2949085346312 2.5535983205340753 C-27.33227321160513 2.2638052644143123, -27.36963788857906 1.9740122082945495, -27.42606580718717 1.5363684145229202 M-27.2949085346312 2.5535983205340753 C-27.339058557328 2.2111794629058092, -27.3832085800248 1.8687606052775434, -27.42606580718717 1.5363684145229202 M-27.42606580718717 1.5363684145229202 C-27.451987288811495 1.1326204147807213, -27.477908770435818 0.7288724150385224, -27.491779459211006 0.5128252411464846 M-27.42606580718717 1.5363684145229202 C-27.44284824773587 1.2749683564347207, -27.459630688284573 1.0135682983465215, -27.491779459211006 0.5128252411464846 M-27.491779459211006 0.5128252411464846 C-27.491779459211006 0.2036710062975834, -27.491779459211006 -0.10548322855131786, -27.491779459211006 -0.5128252411464769 M-27.491779459211006 0.5128252411464846 C-27.491779459211006 0.1884213532278352, -27.491779459211006 -0.13598253469081423, -27.491779459211006 -0.5128252411464769 M-27.491779459211006 -0.5128252411464769 C-27.473237554339725 -0.8016303762729108, -27.454695649468444 -1.0904355113993447, -27.42606580718717 -1.5363684145228982 M-27.491779459211006 -0.5128252411464769 C-27.474575272189416 -0.7807943409775895, -27.45737108516782 -1.048763440808702, -27.42606580718717 -1.5363684145228982 M-27.42606580718717 -1.5363684145228982 C-27.388200376327394 -1.830045218896281, -27.350334945467615 -2.123722023269664, -27.294908534631205 -2.5535983205340678 M-27.42606580718717 -1.5363684145228982 C-27.39756382605795 -1.7574241518083606, -27.36906184492873 -1.978479889093823, -27.294908534631205 -2.5535983205340678 M-27.294908534631205 -2.5535983205340678 C-27.244791229730986 -2.810940088900536, -27.19467392483077 -3.0682818572670043, -27.098846594909176 -3.5603349433010267 M-27.294908534631205 -2.5535983205340678 C-27.248216810203438 -2.7933504571711856, -27.201525085775675 -3.033102593808303, -27.098846594909176 -3.5603349433010267 M-27.098846594909176 -3.5603349433010267 C-27.00304264247598 -3.925676935624449, -26.90723869004278 -4.291018927947872, -26.838685648586573 -4.552441386096511 M-27.098846594909176 -3.5603349433010267 C-27.01291650079061 -3.8880236345135053, -26.92698640667204 -4.215712325725984, -26.838685648586573 -4.552441386096511 M-26.838685648586573 -4.552441386096511 C-26.71495473845697 -4.925099173563538, -26.59122382832737 -5.297756961030565, -26.515494752796172 -5.525840870740911 M-26.838685648586573 -4.552441386096511 C-26.755967036173196 -4.801576667264514, -26.67324842375982 -5.050711948432516, -26.515494752796172 -5.525840870740911 M-26.515494752796172 -5.525840870740911 C-26.427224762997536 -5.743869452127698, -26.3389547731989 -5.961898033514485, -26.130601968253 -6.476533489958299 M-26.515494752796172 -5.525840870740911 C-26.38356354841466 -5.85171349627956, -26.251632344033148 -6.1775861218182095, -26.130601968253 -6.476533489958299 M-26.130601968253 -6.476533489958299 C-26.00509953503274 -6.737141977862058, -25.879597101812482 -6.997750465765817, -25.685588901968003 -7.400612643853359 M-26.130601968253 -6.476533489958299 C-26.03354976359954 -6.678064469505723, -25.936497558946083 -6.879595449053148, -25.685588901968003 -7.400612643853359 M-25.685588901968003 -7.400612643853359 C-25.510505090699176 -7.71149167991954, -25.335421279430346 -8.022370715985721, -25.182284208085537 -8.294281092968404 M-25.685588901968003 -7.400612643853359 C-25.535480250847318 -7.667145754067309, -25.385371599726636 -7.933678864281259, -25.182284208085537 -8.294281092968404 M-25.182284208085537 -8.294281092968404 C-24.97489799400475 -8.61288200879245, -24.76751177992396 -8.931482924616498, -24.622756073551294 -9.153866561954715 M-25.182284208085537 -8.294281092968404 C-25.051290149915328 -8.495523143147684, -24.92029609174512 -8.696765193326964, -24.622756073551294 -9.153866561954715 M-24.622756073551294 -9.153866561954715 C-24.4948793195793 -9.325209762465239, -24.367002565607308 -9.496552962975764, -24.00930371948848 -9.975836829739734 M-24.622756073551294 -9.153866561954715 C-24.444269435849378 -9.393022396008078, -24.265782798147463 -9.63217823006144, -24.00930371948848 -9.975836829739734 M-24.00930371948848 -9.975836829739734 C-23.861637128945922 -10.149294409458056, -23.713970538403363 -10.322751989176378, -23.344447953205055 -10.756814244181063 M-24.00930371948848 -9.975836829739734 C-23.873681489280887 -10.135146418465087, -23.738059259073296 -10.29445600719044, -23.344447953205055 -10.756814244181063 M-23.344447953205055 -10.756814244181063 C-23.196950956085193 -10.909117003435995, -23.04945395896533 -11.061419762690926, -22.63092080965579 -11.493589601563633 M-23.344447953205055 -10.756814244181063 C-23.196104084191987 -10.909991468195205, -23.04776021517892 -11.063168692209347, -22.63092080965579 -11.493589601563633 M-22.63092080965579 -11.493589601563633 C-22.34435836323775 -11.753838033373649, -22.057795916819707 -12.014086465183667, -21.871654324924627 -12.18313533390614 M-22.63092080965579 -11.493589601563633 C-22.436304642193672 -11.67033485559111, -22.241688474731554 -11.847080109618586, -21.871654324924627 -12.18313533390614 M-21.871654324924627 -12.18313533390614 C-21.708101197901993 -12.313564600375196, -21.544548070879355 -12.443993866844252, -21.069768487859463 -12.822617949887302 M-21.871654324924627 -12.18313533390614 C-21.635029794199127 -12.371837100316514, -21.398405263473627 -12.560538866726887, -21.069768487859463 -12.822617949887302 M-21.069768487859463 -12.822617949887302 C-20.846824562962205 -12.97813398080867, -20.623880638064946 -13.133650011730037, -20.228558419368788 -13.409409678269444 M-21.069768487859463 -12.822617949887302 C-20.8460694920298 -12.978660685604618, -20.62237049620014 -13.134703421321936, -20.228558419368788 -13.409409678269444 M-20.228558419368788 -13.409409678269444 C-19.904009053175464 -13.606153411319616, -19.579459686982144 -13.802897144369787, -19.351480832063007 -13.941099265974229 M-20.228558419368788 -13.409409678269444 C-20.039682320153627 -13.523907479572838, -19.850806220938466 -13.638405280876231, -19.351480832063007 -13.941099265974229 M-19.351480832063007 -13.941099265974229 C-19.079059289024737 -14.083221410482968, -18.80663774598647 -14.225343554991706, -18.442139825880936 -14.415501886438705 M-19.351480832063007 -13.941099265974229 C-19.075990010751294 -14.084822650992258, -18.80049918943958 -14.228546036010286, -18.442139825880936 -14.415501886438705 M-18.442139825880936 -14.415501886438705 C-18.08326097290576 -14.574366908887885, -17.724382119930585 -14.733231931337066, -17.504272078069995 -14.830668117536344 M-18.442139825880936 -14.415501886438705 C-18.094743940007294 -14.569283739982152, -17.747348054133653 -14.7230655935256, -17.504272078069995 -14.830668117536344 M-17.504272078069995 -14.830668117536344 C-17.21972467507444 -14.935384192166069, -16.93517727207888 -15.040100266795793, -16.54173148837794 -15.184891952170695 M-17.504272078069995 -14.830668117536344 C-17.223032183038633 -14.934166998660977, -16.94179228800727 -15.037665879785608, -16.54173148837794 -15.184891952170695 M-16.54173148837794 -15.184891952170695 C-16.26208305832739 -15.267890138305134, -15.982434628276842 -15.350888324439573, -15.558473342552134 -15.476717808624466 M-16.54173148837794 -15.184891952170695 C-16.22492780595645 -15.27891762217693, -15.908124123534959 -15.372943292183166, -15.558473342552134 -15.476717808624466 M-15.558473342552134 -15.476717808624466 C-15.330072449683591 -15.528848821966594, -15.10167155681505 -15.580979835308723, -14.558538059221963 -15.704946511857043 M-15.558473342552134 -15.476717808624466 C-15.168285786348664 -15.565775572116149, -14.778098230145192 -15.65483333560783, -14.558538059221963 -15.704946511857043 M-14.558538059221963 -15.704946511857043 C-14.347586531042737 -15.739051518979528, -14.13663500286351 -15.77315652610201, -13.546034586952107 -15.868640221171937 M-14.558538059221963 -15.704946511857043 C-14.192484456644873 -15.764127219533622, -13.826430854067784 -15.823307927210202, -13.546034586952107 -15.868640221171937 M-13.546034586952107 -15.868640221171937 C-13.238294286924955 -15.898327557803697, -12.930553986897802 -15.928014894435456, -12.525123519691407 -15.967126284005381 M-13.546034586952107 -15.868640221171937 C-13.314037289677186 -15.891020721422477, -13.082039992402265 -15.913401221673016, -12.525123519691407 -15.967126284005381 M-12.525123519691407 -15.967126284005381 C-12.174588285668756 -15.978367266685046, -11.824053051646104 -15.98960824936471, -11.500000000000005 -16 M-12.525123519691407 -15.967126284005381 C-12.258102952225864 -15.975689113879996, -11.99108238476032 -15.984251943754611, -11.500000000000005 -16 M-11.500000000000005 -16 C-11.500000000000004 -16, -11.500000000000002 -16, -11.5 -16 M-11.500000000000005 -16 C-11.500000000000004 -16, -11.500000000000002 -16, -11.5 -16" stroke="#999" stroke-width="1.3" fill="none" stroke-dasharray="0 0" style=""/></g><g class="label" style="" transform="translate(0, -8.5)"><rect/><g><rect class="background" style="stroke: none"/><text y="-10.1" style=""><tspan class="text-outer-tspan row" x="0" y="-0.1em" dy="1.1em"><tspan font-style="normal" class="text-inner-tspan" font-weight="normal">开始</tspan></tspan></text></g></g></g><g class="node default" id="my-svg-flowchart-Request-1" data-look="classic" transform="translate(681.7890625, 113.5)"><rect class="basic label-container" style="" x="-86.08203125" y="-23.5" width="172.1640625" height="47"/><g class="label" style="" transform="translate(0, -8.5)"><rect/><g><rect class="background" style="stroke: none"/><text y="-10.1" style=""><tspan class="text-outer-tspan row" x="0" y="-0.1em" dy="1.1em"><tspan font-style="normal" class="text-inner-tspan" font-weight="normal">请求</tspan><tspan font-style="normal" class="text-inner-tspan" font-weight="normal"> DeepSeek</tspan></tspan></text></g></g></g><g class="node default" id="my-svg-flowchart-Check-3" data-look="classic" transform="translate(681.7890625, 266.5)"><polygon points="79.5,0 159,-79.5 79.5,-159 0,-79.5" class="label-container" transform="translate(-79, 79.5)"/><g class="label" style="" transform="translate(0, -8.5)"><rect/><g><rect class="background" style="stroke: none"/><text y="-10.1" style=""><tspan class="text-outer-tspan row" x="0" y="-0.1em" dy="1.1em"><tspan font-style="normal" class="text-inner-tspan" font-weight="normal">返回什么信号？</tspan></tspan></text></g></g></g><g class="node default" id="my-svg-flowchart-Done-5" data-look="classic" transform="translate(110, 488.5)"><rect class="basic label-container" style="" x="-102" y="-32.29999923706055" width="204" height="64.5999984741211"/><g class="label" style="" transform="translate(0, -17.299999237060547)"><rect/><g><rect class="background" style="stroke: none"/><text y="-10.1" style=""><tspan class="text-outer-tspan row" x="0" y="-0.1em" dy="1.1em"><tspan font-style="normal" class="text-inner-tspan" font-weight="normal">回到</tspan><tspan font-style="normal" class="text-inner-tspan" font-weight="normal"> Agent</tspan><tspan font-style="normal" class="text-inner-tspan" font-weight="normal"> Loop</tspan></tspan><tspan class="text-outer-tspan row" x="0" y="1em" dy="1.1em"><tspan font-style="normal" class="text-inner-tspan" font-weight="normal">执行工具或输出答案</tspan></tspan></text></g></g></g><g class="node default" id="my-svg-flowchart-L1-7" data-look="classic" transform="translate(333.5, 488.5)"><polygon points="71.5,0 143,-71.5 71.5,-143 0,-71.5" class="label-container" transform="translate(-71, 71.5)"/><g class="label" style="" transform="translate(0, -8.5)"><rect/><g><rect class="background" style="stroke: none"/><text y="-10.1" style=""><tspan class="text-outer-tspan row" x="0" y="-0.1em" dy="1.1em"><tspan font-style="normal" class="text-inner-tspan" font-weight="normal">第一次截断？</tspan></tspan></text></g></g></g><g class="node default" id="my-svg-flowchart-L2-9" data-look="classic" transform="translate(221.75, 710.5)"><rect class="basic label-container" style="" x="-118.9140625" y="-32.29999923706055" width="237.828125" height="64.5999984741211"/><g class="label" style="" transform="translate(0, -17.299999237060547)"><rect/><g><rect class="background" style="stroke: none"/><text y="-10.1" style=""><tspan class="text-outer-tspan row" x="0" y="-0.1em" dy="1.1em"><tspan font-style="normal" class="text-inner-tspan" font-weight="normal">扩大输出上限</tspan></tspan><tspan class="text-outer-tspan row" x="0" y="1em" dy="1.1em"><tspan font-style="normal" class="text-inner-tspan" font-weight="normal">用原</tspan><tspan font-style="normal" class="text-inner-tspan" font-weight="normal"> messages</tspan><tspan font-style="normal" class="text-inner-tspan" font-weight="normal"> 重新请求</tspan></tspan></text></g></g></g><g class="node default" id="my-svg-flowchart-L3-11" data-look="classic" transform="translate(470.1640625, 710.5)"><polygon points="79.5,0 159,-79.5 79.5,-159 0,-79.5" class="label-container" transform="translate(-79, 79.5)"/><g class="label" style="" transform="translate(0, -8.5)"><rect/><g><rect class="background" style="stroke: none"/><text y="-10.1" style=""><tspan class="text-outer-tspan row" x="0" y="-0.1em" dy="1.1em"><tspan font-style="normal" class="text-inner-tspan" font-weight="normal">工具调用完整？</tspan></tspan></text></g></g></g><g class="node default" id="my-svg-flowchart-Stop-13" data-look="classic" transform="translate(686.4140625, 1164.099998474121)"><rect class="basic label-container" style="" x="-62" y="-23.5" width="124" height="47"/><g class="label" style="" transform="translate(0, -8.5)"><rect/><g><rect class="background" style="stroke: none"/><text y="-10.1" style=""><tspan class="text-outer-tspan row" x="0" y="-0.1em" dy="1.1em"><tspan font-style="normal" class="text-inner-tspan" font-weight="normal">明确停止</tspan></tspan></text></g></g></g><g class="node default" id="my-svg-flowchart-L4-15" data-look="classic" transform="translate(540.4140625, 956.5)"><polygon points="95.5,0 191,-95.5 95.5,-191 0,-95.5" class="label-container" transform="translate(-95, 95.5)"/><g class="label" style="" transform="translate(0, -8.5)"><rect/><g><rect class="background" style="stroke: none"/><text y="-10.1" style=""><tspan class="text-outer-tspan row" x="0" y="-0.1em" dy="1.1em"><tspan font-style="normal" class="text-inner-tspan" font-weight="normal">续写次数还没用完？</tspan></tspan></text></g></g></g><g class="node default" id="my-svg-flowchart-L5-17" data-look="classic" transform="translate(170.0390625, 1164.099998474121)"><rect class="basic label-container" style="" x="-78" y="-41.099998474121094" width="156" height="82.19999694824219"/><g class="label" style="" transform="translate(0, -26.099998474121094)"><rect/><g><rect class="background" style="stroke: none"/><text y="-10.1" style=""><tspan class="text-outer-tspan row" x="0" y="-0.1em" dy="1.1em"><tspan font-style="normal" class="text-inner-tspan" font-weight="normal">保存文本片段</tspan></tspan><tspan class="text-outer-tspan row" x="0" y="1em" dy="1.1em"><tspan font-style="normal" class="text-inner-tspan" font-weight="normal">追加续写提示</tspan></tspan><tspan class="text-outer-tspan row" x="0" y="2.1em" dy="1.1em"><tspan font-style="normal" class="text-inner-tspan" font-weight="normal">重新请求</tspan></tspan></text></g></g></g><g class="node default" id="my-svg-flowchart-C1-21" data-look="classic" transform="translate(770.2890625, 956.5)"><polygon points="71.5,0 143,-71.5 71.5,-143 0,-71.5" class="label-container" transform="translate(-71, 71.5)"/><g class="label" style="" transform="translate(0, -8.5)"><rect/><g><rect class="background" style="stroke: none"/><text y="-10.1" style=""><tspan class="text-outer-tspan row" x="0" y="-0.1em" dy="1.1em"><tspan font-style="normal" class="text-inner-tspan" font-weight="normal">已经压缩过？</tspan></tspan></text></g></g></g><g class="node default" id="my-svg-flowchart-C2-23" data-look="classic" transform="translate(388.7890625, 1164.099998474121)"><rect class="basic label-container" style="" x="-90.75" y="-32.29999923706055" width="181.5" height="64.5999984741211"/><g class="label" style="" transform="translate(0, -17.299999237060547)"><rect/><g><rect class="background" style="stroke: none"/><text y="-10.1" style=""><tspan class="text-outer-tspan row" x="0" y="-0.1em" dy="1.1em"><tspan font-style="normal" class="text-inner-tspan" font-weight="normal">reactive</tspan><tspan font-style="normal" class="text-inner-tspan" font-weight="normal"> compact</tspan></tspan><tspan class="text-outer-tspan row" x="0" y="1em" dy="1.1em"><tspan font-style="normal" class="text-inner-tspan" font-weight="normal">重新请求</tspan></tspan></text></g></g></g><g class="node default" id="my-svg-flowchart-R1-27" data-look="classic" transform="translate(1001.7890625, 956.5)"><polygon points="95.5,0 191,-95.5 95.5,-191 0,-95.5" class="label-container" transform="translate(-95, 95.5)"/><g class="label" style="" transform="translate(0, -8.5)"><rect/><g><rect class="background" style="stroke: none"/><text y="-10.1" style=""><tspan class="text-outer-tspan row" x="0" y="-0.1em" dy="1.1em"><tspan font-style="normal" class="text-inner-tspan" font-weight="normal">重试次数还没用完？</tspan></tspan></text></g></g></g><g class="node default" id="my-svg-flowchart-R2-29" data-look="classic" transform="translate(1067.0390625, 1164.099998474121)"><rect class="basic label-container" style="" x="-94" y="-41.099998474121094" width="188" height="82.19999694824219"/><g class="label" style="" transform="translate(0, -26.099998474121094)"><rect/><g><rect class="background" style="stroke: none"/><text y="-10.1" style=""><tspan class="text-outer-tspan row" x="0" y="-0.1em" dy="1.1em"><tspan font-style="normal" class="text-inner-tspan" font-weight="normal">等待</tspan><tspan font-style="normal" class="text-inner-tspan" font-weight="normal"> +</tspan><tspan font-style="normal" class="text-inner-tspan" font-weight="normal"> 抖动</tspan></tspan><tspan class="text-outer-tspan row" x="0" y="1em" dy="1.1em"><tspan font-style="normal" class="text-inner-tspan" font-weight="normal">必要时切备用模型</tspan></tspan><tspan class="text-outer-tspan row" x="0" y="2.1em" dy="1.1em"><tspan font-style="normal" class="text-inner-tspan" font-weight="normal">重新请求</tspan></tspan></text></g></g></g></g></g></g><defs><filter id="my-svg-drop-shadow" height="130%" width="130%"><feDropShadow dx="4" dy="4" stdDeviation="0" flood-opacity="0.06" flood-color="#000000"/></filter></defs><defs><filter id="my-svg-drop-shadow-small" height="150%" width="150%"><feDropShadow dx="2" dy="2" stdDeviation="0" flood-opacity="0.06" flood-color="#000000"/></filter></defs><linearGradient id="my-svg-gradient" gradientUnits="objectBoundingBox" x1="0%" y1="0%" x2="100%" y2="0%"><stop offset="0%" stop-color="hsl(0, 0%, 83.3333333333%)" stop-opacity="1"/><stop offset="100%" stop-color="hsl(0, 0%, 88.9215686275%)" stop-opacity="1"/></linearGradient></svg>