<svg width="1174.2890625" height="1213.199951171875" id="my-svg" xmlns="http://www.w3.org/2000/svg" xmlns:xlink="http://www.w3.org/1999/xlink" class="flowchart" style="max-width: 1174.29px; background-color: white;" viewBox="0 0 1174.2890625 1213.199951171875" role="graphics-document document" aria-roledescription="flowchart-v2"><style>#my-svg{font-family:"trebuchet ms",verdana,arial,sans-serif;font-size:16px;fill:#000000;}@keyframes edge-animation-frame{from{stroke-dashoffset:0;}}@keyframes dash{to{stroke-dashoffset:0;}}#my-svg .edge-animation-slow{stroke-dasharray:9,5!important;stroke-dashoffset:900;animation:dash 50s linear infinite;stroke-linecap:round;}#my-svg .edge-animation-fast{stroke-dasharray:9,5!important;stroke-dashoffset:900;animation:dash 20s linear infinite;stroke-linecap:round;}#my-svg .error-icon{fill:#552222;}#my-svg .error-text{fill:#552222;stroke:#552222;}#my-svg .edge-thickness-normal{stroke-width:1px;}#my-svg .edge-thickness-thick{stroke-width:3.5px;}#my-svg .edge-pattern-solid{stroke-dasharray:0;}#my-svg .edge-thickness-invisible{stroke-width:0;fill:none;}#my-svg .edge-pattern-dashed{stroke-dasharray:3;}#my-svg .edge-pattern-dotted{stroke-dasharray:2;}#my-svg .marker{fill:#666;stroke:#666;}#my-svg .marker.cross{stroke:#666;}#my-svg svg{font-family:"trebuchet ms",verdana,arial,sans-serif;font-size:16px;}#my-svg p{margin:0;}#my-svg .label{font-family:"trebuchet ms",verdana,arial,sans-serif;color:#000000;}#my-svg .cluster-label text{fill:#333;}#my-svg .cluster-label span{color:#333;}#my-svg .cluster-label span p{background-color:transparent;}#my-svg .label text,#my-svg span{fill:#000000;color:#000000;}#my-svg .node rect,#my-svg .node circle,#my-svg .node ellipse,#my-svg .node polygon,#my-svg .node path{fill:#eee;stroke:#999;stroke-width:1px;}#my-svg .rough-node .label text,#my-svg .node .label text,#my-svg .image-shape .label,#my-svg .icon-shape .label{text-anchor:middle;}#my-svg .node .katex path{fill:#000;stroke:#000;stroke-width:1px;}#my-svg .rough-node .label,#my-svg .node .label,#my-svg .image-shape .label,#my-svg .icon-shape .label{text-align:center;}#my-svg .node.clickable{cursor:pointer;}#my-svg .root .anchor path{fill:#666!important;stroke-width:0;stroke:#666;}#my-svg .arrowheadPath{fill:#333333;}#my-svg .edgePath .path{stroke:#666;stroke-width:1px;}#my-svg .flowchart-link{stroke:#666;fill:none;}#my-svg .edgeLabel{background-color:white;text-align:center;}#my-svg .edgeLabel p{background-color:white;}#my-svg .edgeLabel rect{opacity:0.5;background-color:white;fill:white;}#my-svg .labelBkg{background-color:rgba(255, 255, 255, 0.5);}#my-svg .cluster rect{fill:hsl(0, 0%, 98.9215686275%);stroke:#707070;stroke-width:1px;}#my-svg .cluster text{fill:#333;}#my-svg .cluster span{color:#333;}#my-svg div.mermaidTooltip{position:absolute;text-align:center;max-width:200px;padding:2px;font-family:"trebuchet ms",verdana,arial,sans-serif;font-size:12px;background:hsl(-160, 0%, 93.3333333333%);border:1px solid #707070;border-radius:2px;pointer-events:none;z-index:100;}#my-svg .flowchartTitleText{text-anchor:middle;font-size:18px;fill:#000000;}#my-svg rect.text{fill:none;stroke-width:0;}#my-svg .icon-shape,#my-svg .image-shape{background-color:white;text-align:center;}#my-svg .icon-shape p,#my-svg .image-shape p{background-color:white;padding:2px;}#my-svg .icon-shape .label rect,#my-svg .image-shape .label rect{opacity:0.5;background-color:white;fill:white;}#my-svg .label-icon{display:inline-block;height:1em;overflow:visible;vertical-align:-0.125em;}#my-svg .node .label-icon path{fill:currentColor;stroke:revert;stroke-width:revert;}#my-svg .node .neo-node{stroke:#999;}#my-svg [data-look="neo"].node rect,#my-svg [data-look="neo"].cluster rect,#my-svg [data-look="neo"].node polygon{stroke:url(#my-svg-gradient);filter:drop-shadow( 1px 2px 2px rgba(185,185,185,1));}#my-svg [data-look="neo"].swimlane.cluster rect{filter:none;}#my-svg [data-look="neo"].node path{stroke:url(#my-svg-gradient);stroke-width:1px;}#my-svg [data-look="neo"].node .outer-path{filter:drop-shadow( 1px 2px 2px rgba(185,185,185,1));}#my-svg [data-look="neo"].node .neo-line path{stroke:#999;filter:none;}#my-svg [data-look="neo"].node circle{stroke:url(#my-svg-gradient);filter:drop-shadow( 1px 2px 2px rgba(185,185,185,1));}#my-svg [data-look="neo"].node circle .state-start{fill:#000000;}#my-svg [data-look="neo"].icon-shape .icon{fill:url(#my-svg-gradient);filter:drop-shadow( 1px 2px 2px rgba(185,185,185,1));}#my-svg [data-look="neo"].icon-shape .icon-neo path{stroke:url(#my-svg-gradient);filter:drop-shadow( 1px 2px 2px rgba(185,185,185,1));}#my-svg :root{--mermaid-font-family:"trebuchet ms",verdana,arial,sans-serif;}</style><g><marker id="my-svg_flowchart-v2-pointEnd" class="marker flowchart-v2" viewBox="0 0 10 10" refX="5" refY="5" markerUnits="userSpaceOnUse" markerWidth="8" markerHeight="8" orient="auto"><path d="M 0 0 L 10 5 L 0 10 z" class="arrowMarkerPath" style="stroke-width: 1; stroke-dasharray: 1, 0;"/></marker><marker id="my-svg_flowchart-v2-pointStart" class="marker flowchart-v2" viewBox="0 0 10 10" refX="4.5" refY="5" markerUnits="userSpaceOnUse" markerWidth="8" markerHeight="8" orient="auto"><path d="M 0 5 L 10 10 L 10 0 z" class="arrowMarkerPath" style="stroke-width: 1; stroke-dasharray: 1, 0;"/></marker><marker id="my-svg_flowchart-v2-pointEnd-margin" class="marker flowchart-v2" viewBox="0 0 11.5 14" refX="11.5" refY="7" markerUnits="userSpaceOnUse" markerWidth="10.5" markerHeight="14" orient="auto"><path d="M 0 0 L 11.5 7 L 0 14 z" class="arrowMarkerPath" style="stroke-width: 0; stroke-dasharray: 1, 0;"/></marker><marker id="my-svg_flowchart-v2-pointStart-margin" class="marker flowchart-v2" viewBox="0 0 11.5 14" refX="1" refY="7" markerUnits="userSpaceOnUse" markerWidth="11.5" markerHeight="14" orient="auto"><polygon points="0,7 11.5,14 11.5,0" class="arrowMarkerPath" style="stroke-width: 0; stroke-dasharray: 1, 0;"/></marker><marker id="my-svg_flowchart-v2-circleEnd" class="marker flowchart-v2" viewBox="0 0 10 10" refX="11" refY="5" markerUnits="userSpaceOnUse" markerWidth="11" markerHeight="11" orient="auto"><circle cx="5" cy="5" r="5" class="arrowMarkerPath" style="stroke-width: 1; stroke-dasharray: 1, 0;"/></marker><marker id="my-svg_flowchart-v2-circleStart" class="marker flowchart-v2" viewBox="0 0 10 10" refX="-1" refY="5" markerUnits="userSpaceOnUse" markerWidth="11" markerHeight="11" orient="auto"><circle cx="5" cy="5" r="5" class="arrowMarkerPath" style="stroke-width: 1; stroke-dasharray: 1, 0;"/></marker><marker id="my-svg_flowchart-v2-circleEnd-margin" class="marker flowchart-v2" viewBox="0 0 10 10" refY="5" refX="12.25" markerUnits="userSpaceOnUse" markerWidth="14" markerHeight="14" orient="auto"><circle cx="5" cy="5" r="5" class="arrowMarkerPath" style="stroke-width: 0; stroke-dasharray: 1, 0;"/></marker><marker id="my-svg_flowchart-v2-circleStart-margin" class="marker flowchart-v2" viewBox="0 0 10 10" refX="-2" refY="5" markerUnits="userSpaceOnUse" markerWidth="14" markerHeight="14" orient="auto"><circle cx="5" cy="5" r="5" class="arrowMarkerPath" style="stroke-width: 0; stroke-dasharray: 1, 0;"/></marker><marker id="my-svg_flowchart-v2-crossEnd" class="marker cross flowchart-v2" viewBox="0 0 11 11" refX="12" refY="5.2" markerUnits="userSpaceOnUse" markerWidth="11" markerHeight="11" orient="auto"><path d="M 1,1 l 9,9 M 10,1 l -9,9" class="arrowMarkerPath" style="stroke-width: 2; stroke-dasharray: 1, 0;"/></marker><marker id="my-svg_flowchart-v2-crossStart" class="marker cross flowchart-v2" viewBox="0 0 11 11" refX="-1" refY="5.2" markerUnits="userSpaceOnUse" markerWidth="11" markerHeight="11" orient="auto"><path d="M 1,1 l 9,9 M 10,1 l -9,9" class="arrowMarkerPath" style="stroke-width: 2; stroke-dasharray: 1, 0;"/></marker><marker id="my-svg_flowchart-v2-crossEnd-margin" class="marker cross flowchart-v2" viewBox="0 0 15 15" refX="17.7" refY="7.5" markerUnits="userSpaceOnUse" markerWidth="12" markerHeight="12" orient="auto"><path d="M 1,1 L 14,14 M 1,14 L 14,1" class="arrowMarkerPath" style="stroke-width: 2.5;"/></marker><marker id="my-svg_flowchart-v2-crossStart-margin" class="marker cross flowchart-v2" viewBox="0 0 15 15" refX="-3.5" refY="7.5" markerUnits="userSpaceOnUse" markerWidth="12" markerHeight="12" orient="auto"><path d="M 1,1 L 14,14 M 1,14 L 14,1" class="arrowMarkerPath" style="stroke-width: 2.5; stroke-dasharray: 1, 0;"/></marker><g class="root"><g class="clusters"/><g class="edgePaths"><path d="M682.289,40.5L682.206,44.583C682.122,48.667,681.956,56.833,681.872,64.417C681.789,72,681.789,79,681.789,82.5L681.789,86" id="my-svg-L_Start_Request_0" class="edge-thickness-normal edge-pattern-solid edge-thickness-normal edge-pattern-solid flowchart-link" style=";" data-edge="true" data-et="edge" data-id="L_Start_Request_0" data-points="W3sieCI6NjgyLjI4OTA2MjUsInkiOjQwLjV9LHsieCI6NjgxLjc4OTA2MjUsInkiOjY1fSx7IngiOjY4MS43ODkwNjI1LCJ5Ijo5MH1d" data-look="classic" marker-end="url(#my-svg_flowchart-v2-pointEnd)"/><path d="M681.789,137L681.789,141.167C681.789,145.333,681.789,153.667,681.789,161.333C681.789,169,681.789,176,681.789,179.5L681.789,183" id="my-svg-L_Request_Check_0" class="edge-thickness-normal edge-pattern-solid edge-thickness-normal edge-pattern-solid flowchart-link" style=";" data-edge="true" data-et="edge" data-id="L_Request_Check_0" data-points="W3sieCI6NjgxLjc4OTA2MjUsInkiOjEzN30seyJ4Ijo2ODEuNzg5MDYyNSwieSI6MTYyfSx7IngiOjY4MS43ODkwNjI1LCJ5IjoxODd9XQ==" data-look="classic" marker-end="url(#my-svg_flowchart-v2-pointEnd)"/><path d="M615.601,279.812L531.334,296.76C447.067,313.708,278.534,347.604,194.267,376.335C110,405.067,110,428.633,110,440.417L110,452.2" id="my-svg-L_Check_Done_0" class="edge-thickness-normal edge-pattern-solid edge-thickness-normal edge-pattern-solid flowchart-link" style=";" data-edge="true" data-et="edge" data-id="L_Check_Done_0" data-points="W3sieCI6NjE1LjYwMTAxMDA4MjE1ODgsInkiOjI3OS44MTE5NDc1ODIxNTg4NH0seyJ4IjoxMTAsInkiOjM4MS41fSx7IngiOjExMCwieSI6NDU2LjIwMDAwMDc2MjkzOTQ1fV0=" data-look="classic" marker-end="url(#my-svg_flowchart-v2-pointEnd)"/><path d="M622.023,286.234L573.936,302.112C525.849,317.989,429.674,349.745,381.587,370.872C333.5,392,333.5,402.5,333.5,407.75L333.5,413" id="my-svg-L_Check_L1_0" class="edge-thickness-normal edge-pattern-solid edge-thickness-normal edge-pattern-solid flowchart-link" style=";" data-edge="true" data-et="edge" data-id="L_Check_L1_0" data-points="W3sieCI6NjIyLjAyMjk2MjQzNDIzMzgsInkiOjI4Ni4yMzM4OTk5MzQyMzM4fSx7IngiOjMzMy41LCJ5IjozODEuNX0seyJ4IjozMzMuNSwieSI6NDE3fV0=" data-look="classic" marker-end="url(#my-svg_flowchart-v2-pointEnd)"/><path d="M296.974,523.474L284.436,535.478C271.899,547.482,246.825,571.491,234.287,596.612C221.75,621.733,221.75,647.967,221.75,661.083L221.75,674.2" id="my-svg-L_L1_L2_0" class="edge-thickness-normal edge-pattern-solid edge-thickness-normal edge-pattern-solid flowchart-link" style=";" data-edge="true" data-et="edge" data-id="L_L1_L2_0" data-points="W3sieCI6Mjk2Ljk3MzcxNDI4NTcxNDI3LCJ5Ijo1MjMuNDczNzE0Mjg1NzE0M30seyJ4IjoyMjEuNzUsInkiOjU5NS41fSx7IngiOjIyMS43NSwieSI6Njc4LjIwMDAwMDc2MjkzOTV9XQ==" data-look="classic" marker-end="url(#my-svg_flowchart-v2-pointEnd)"/><path d="M373.602,519.898L389.696,532.498C405.79,545.098,437.977,570.299,454.07,588.15C470.164,606,470.164,616.5,470.164,621.75L470.164,627" id="my-svg-L_L1_L3_0" class="edge-thickness-normal edge-pattern-solid edge-thickness-normal edge-pattern-solid flowchart-link" style=";" data-edge="true" data-et="edge" data-id="L_L1_L3_0" data-points="W3sieCI6MzczLjYwMjI2MzYxODU4MzUsInkiOjUxOS44OTc3MzYzODE0MTY1fSx7IngiOjQ3MC4xNjQwNjI1LCJ5Ijo1OTUuNX0seyJ4Ijo0NzAuMTY0MDYyNSwieSI6NjMxfV0=" data-look="classic" marker-end="url(#my-svg_flowchart-v2-pointEnd)"/><path d="M432.339,752.175L421.248,764.396C410.156,776.617,387.972,801.058,376.881,835.113C365.789,869.167,365.789,912.833,365.789,956.5C365.789,1000.167,365.789,1043.833,408.245,1075.81C450.701,1107.786,535.612,1128.072,578.068,1138.215L620.524,1148.358" id="my-svg-L_L3_Stop_0" class="edge-thickness-normal edge-pattern-solid edge-thickness-normal edge-pattern-solid flowchart-link" style=";" data-edge="true" data-et="edge" data-id="L_L3_Stop_0" data-points="W3sieCI6NDMyLjMzOTI3NjE3NTIxMzcsInkiOjc1Mi4xNzUyMTM2NzUyMTM2fSx7IngiOjM2NS43ODkwNjI1LCJ5Ijo4MjUuNX0seyJ4IjozNjUuNzg5MDYyNSwieSI6OTU2LjV9LHsieCI6MzY1Ljc4OTA2MjUsInkiOjEwODcuNX0seyJ4Ijo2MjQuNDE0MDYyNSwieSI6MTE0OS4yODc2NzkwODEwNzQ3fV0=" data-look="classic" marker-end="url(#my-svg_flowchart-v2-pointEnd)"/><path d="M500.312,759.852L506.996,770.794C513.679,781.735,527.047,803.617,533.73,819.809C540.414,836,540.414,846.5,540.414,851.75L540.414,857" id="my-svg-L_L3_L4_0" class="edge-thickness-normal edge-pattern-solid edge-thickness-normal edge-pattern-solid flowchart-link" style=";" data-edge="true" data-et="edge" data-id="L_L3_L4_0" data-points="W3sieCI6NTAwLjMxMTgzNTc3OTM1MjI0LCJ5Ijo3NTkuODUyMjI2NzIwNjQ3OH0seyJ4Ijo1NDAuNDE0MDYyNSwieSI6ODI1LjV9LHsieCI6NTQwLjQxNDA2MjUsInkiOjg2MX1d" data-look="classic" marker-end="url(#my-svg_flowchart-v2-pointEnd)"/><path d="M501.683,1013.269L493.243,1025.641C484.802,1038.013,467.92,1062.756,426.29,1084.176C384.659,1105.595,318.279,1123.69,285.088,1132.738L251.898,1141.785" id="my-svg-L_L4_L5_0" class="edge-thickness-normal edge-pattern-solid edge-thickness-normal edge-pattern-solid flowchart-link" style=";" data-edge="true" data-et="edge" data-id="L_L4_L5_0" data-points="W3sieCI6NTAxLjY4MzIwNjAwNTM4ODU3LCJ5IjoxMDEzLjI2OTE0MzUwNTM4ODZ9LHsieCI6NDUxLjAzOTA2MjUsInkiOjEwODcuNX0seyJ4IjoyNDguMDM5MDYyNSwieSI6MTE0Mi44MzczNjU0NDU3MTczfV0=" data-look="classic" marker-end="url(#my-svg_flowchart-v2-pointEnd)"/><path d="M578.919,1013.495L587.251,1025.83C595.584,1038.164,612.249,1062.832,626.825,1083.483C641.4,1104.134,653.886,1120.767,660.129,1129.084L666.372,1137.401" id="my-svg-L_L4_Stop_0" class="edge-thickness-normal edge-pattern-solid edge-thickness-normal edge-pattern-solid flowchart-link" style=";" data-edge="true" data-et="edge" data-id="L_L4_Stop_0" data-points="W3sieCI6NTc4LjkxODYxODMwODY1NiwieSI6MTAxMy40OTU0NDQxOTEzNDR9LHsieCI6NjI4LjkxNDA2MjUsInkiOjEwODcuNX0seyJ4Ijo2NjguNzczNzIyNzIzMDE1MywieSI6MTE0MC41OTk5OTg0NzQxMjF9XQ==" data-look="classic" marker-end="url(#my-svg_flowchart-v2-pointEnd)"/><path d="M716.363,311.426L725.35,323.105C734.338,334.784,752.314,358.142,761.301,387.654C770.289,417.167,770.289,452.833,770.289,488.5C770.289,524.167,770.289,559.833,770.289,596.833C770.289,633.833,770.289,672.167,770.289,710.5C770.289,748.833,770.289,787.167,770.289,815.583C770.289,844,770.289,862.5,770.289,871.75L770.289,881" id="my-svg-L_Check_C1_0" class="edge-thickness-normal edge-pattern-solid edge-thickness-normal edge-pattern-solid flowchart-link" style=";" data-edge="true" data-et="edge" data-id="L_Check_C1_0" data-points="W3sieCI6NzE2LjM2Mjc3MjU3MzcxMDEsInkiOjMxMS40MjYyODk5MjYyODk5NH0seyJ4Ijo3NzAuMjg5MDYyNSwieSI6MzgxLjV9LHsieCI6NzcwLjI4OTA2MjUsInkiOjQ4OC41fSx7IngiOjc3MC4yODkwNjI1LCJ5Ijo1OTUuNX0seyJ4Ijo3NzAuMjg5MDYyNSwieSI6NzEwLjV9LHsieCI6NzcwLjI4OTA2MjUsInkiOjgyNS41fSx7IngiOjc3MC4yODkwNjI1LCJ5Ijo4ODV9XQ==" data-look="classic" marker-end="url(#my-svg_flowchart-v2-pointEnd)"/><path d="M739.097,996.808L727.4,1011.923C715.703,1027.038,692.308,1057.269,649.692,1080.84C607.075,1104.41,545.236,1121.32,514.317,1129.775L483.397,1138.229" id="my-svg-L_C1_C2_0" class="edge-thickness-normal edge-pattern-solid edge-thickness-normal edge-pattern-solid flowchart-link" style=";" data-edge="true" data-et="edge" data-id="L_C1_C2_0" data-points="W3sieCI6NzM5LjA5Njc1NDgwNzY5MjMsInkiOjk5Ni44MDc2OTIzMDc2OTIzfSx7IngiOjY2OC45MTQwNjI1LCJ5IjoxMDg3LjV9LHsieCI6NDc5LjUzOTA2MjUsInkiOjExMzkuMjg0NDcwMTg2NjU0N31d" data-look="classic" marker-end="url(#my-svg_flowchart-v2-pointEnd)"/><path d="M799.117,999.172L809.062,1013.893C819.008,1028.615,838.898,1058.057,829.538,1081.358C820.177,1104.659,781.564,1121.817,762.258,1130.396L742.952,1138.976" id="my-svg-L_C1_Stop_0" class="edge-thickness-normal edge-pattern-solid edge-thickness-normal edge-pattern-solid flowchart-link" style=";" data-edge="true" data-et="edge" data-id="L_C1_Stop_0" data-points="W3sieCI6Nzk5LjExNzA4MDcyMzIzNDYsInkiOjk5OS4xNzE5ODE3NzY3NjU0fSx7IngiOjg1OC43ODkwNjI1LCJ5IjoxMDg3LjV9LHsieCI6NzM5LjI5NjczMzI2NjIyMTMsInkiOjExNDAuNTk5OTk4NDc0MTIxfV0=" data-look="classic" marker-end="url(#my-svg_flowchart-v2-pointEnd)"/><path d="M740.272,287.517L783.858,303.181C827.444,318.845,914.617,350.172,958.203,383.67C1001.789,417.167,1001.789,452.833,1001.789,488.5C1001.789,524.167,1001.789,559.833,1001.789,596.833C1001.789,633.833,1001.789,672.167,1001.789,710.5C1001.789,748.833,1001.789,787.167,1001.789,811.583C1001.789,836,1001.789,846.5,1001.789,851.75L1001.789,857" id="my-svg-L_Check_R1_0" class="edge-thickness-normal edge-pattern-solid edge-thickness-normal edge-pattern-solid flowchart-link" style=";" data-edge="true" data-et="edge" data-id="L_Check_R1_0" data-points="W3sieCI6NzQwLjI3MTgyMTEyMDY4OTcsInkiOjI4Ny41MTcyNDEzNzkzMTAzNX0seyJ4IjoxMDAxLjc4OTA2MjUsInkiOjM4MS41fSx7IngiOjEwMDEuNzg5MDYyNSwieSI6NDg4LjV9LHsieCI6MTAwMS43ODkwNjI1LCJ5Ijo1OTUuNX0seyJ4IjoxMDAxLjc4OTA2MjUsInkiOjcxMC41fSx7IngiOjEwMDEuNzg5MDYyNSwieSI6ODI1LjV9LHsieCI6MTAwMS43ODkwNjI1LCJ5Ijo4NjF9XQ==" data-look="classic" marker-end="url(#my-svg_flowchart-v2-pointEnd)"/><path d="M989.14,1039.351L987.915,1047.376C986.69,1055.401,984.239,1071.45,989.103,1084.946C993.967,1098.442,1006.145,1109.384,1012.234,1114.855L1018.323,1120.327" id="my-svg-L_R1_R2_0" class="edge-thickness-normal edge-pattern-solid edge-thickness-normal edge-pattern-solid flowchart-link" style=";" data-edge="true" data-et="edge" data-id="L_R1_R2_0" data-points="W3sieCI6OTg5LjE0MDA1NTg3NzQ4MzQsInkiOjEwMzkuMzUwOTkzMzc3NDgzNX0seyJ4Ijo5ODEuNzg5MDYyNSwieSI6MTA4Ny41fSx7IngiOjEwMjEuMjk3ODc1Mjk3NDYzLCJ5IjoxMTIzfV0=" data-look="classic" marker-end="url(#my-svg_flowchart-v2-pointEnd)"/><path d="M1028.266,1025.523L1032.228,1035.853C1036.19,1046.182,1044.115,1066.841,998.125,1087.636C952.136,1108.43,852.232,1129.36,802.281,1139.825L752.329,1150.291" id="my-svg-L_R1_Stop_0" class="edge-thickness-normal edge-pattern-solid edge-thickness-normal edge-pattern-solid flowchart-link" style=";" data-edge="true" data-et="edge" data-id="L_R1_Stop_0" data-points="W3sieCI6MTAyOC4yNjU2MTQyMjQxMzc4LCJ5IjoxMDI1LjUyMzQ0ODI3NTg2MjJ9LHsieCI6MTA1Mi4wMzkwNjI1LCJ5IjoxMDg3LjV9LHsieCI6NzQ4LjQxNDA2MjUsInkiOjExNTEuMTEwNzMzNzc1NjAzNH1d" data-look="classic" marker-end="url(#my-svg_flowchart-v2-pointEnd)"/><path d="M745.122,282.667L809.65,299.139C874.178,315.611,1003.233,348.556,1067.761,382.861C1132.289,417.167,1132.289,452.833,1132.289,488.5C1132.289,524.167,1132.289,559.833,1132.289,596.833C1132.289,633.833,1132.289,672.167,1132.289,710.5C1132.289,748.833,1132.289,787.167,1132.289,828.167C1132.289,869.167,1132.289,912.833,1132.289,956.5C1132.289,1000.167,1132.289,1043.833,1068.967,1076.545C1005.645,1109.257,879.001,1131.014,815.678,1141.893L752.356,1152.771" id="my-svg-L_Check_Stop_0" class="edge-thickness-normal edge-pattern-solid edge-thickness-normal edge-pattern-solid flowchart-link" style=";" data-edge="true" data-et="edge" data-id="L_Check_Stop_0" data-points="W3sieCI6NzQ1LjEyMTk1Mzc0NjY4NDMsInkiOjI4Mi42NjcxMDg3NTMzMTU2M30seyJ4IjoxMTMyLjI4OTA2MjUsInkiOjM4MS41fSx7IngiOjExMzIuMjg5MDYyNSwieSI6NDg4LjV9LHsieCI6MTEzMi4yODkwNjI1LCJ5Ijo1OTUuNX0seyJ4IjoxMTMyLjI4OTA2MjUsInkiOjcxMC41fSx7IngiOjExMzIuMjg5MDYyNSwieSI6ODI1LjV9LHsieCI6MTEzMi4yODkwNjI1LCJ5Ijo5NTYuNX0seyJ4IjoxMTMyLjI4OTA2MjUsInkiOjEwODcuNX0seyJ4Ijo3NDguNDE0MDYyNSwieSI6MTE1My40NDg1ODI5MzA3NjE0fV0=" data-look="classic" marker-end="url(#my-svg_flowchart-v2-pointEnd)"/></g><g class="edgeLabels"><g class="edgeLabel"><g class="label" data-id="L_Start_Request_0" transform="translate(0, 0)"><text y="-10.1" text-anchor="middle"><tspan class="text-outer-tspan row" x="0" y="-0.1em" dy="1.1em" text-anchor="middle"/></text></g></g><g><rect class="background" style="stroke: none"/></g><g class="edgeLabel"><g class="label" data-id="L_Request_Check_0" transform="translate(0, 0)"><text y="-10.1" text-anchor="middle"><tspan class="text-outer-tspan row" x="0" y="-0.1em" dy="1.1em" text-anchor="middle"/></text></g></g><g><rect class="background" style="stroke: none"/></g><g class="edgeLabel" transform="translate(110, 381.5)"><g class="label" data-id="L_Check_Done_0" transform="translate(-0.046875, -10.5)"><g><rect class="background" style="" x="-52.6875" y="0" width="105.46875" height="21"/><text y="-10.1" text-anchor="middle" style=""><tspan class="text-outer-tspan row" x="0" y="-0.1em" dy="1.1em" text-anchor="middle"><tspan font-style="normal" class="text-inner-tspan" font-weight="normal">完整</tspan><tspan font-style="normal" class="text-inner-tspan" font-weight="normal"> message</tspan></tspan></text></g></g></g><g class="edgeLabel" transform="translate(333.5, 381.5)"><g class="label" data-id="L_Check_L1_0" transform="translate(0, -10.5)"><g><rect class="background" style="" x="-34" y="0" width="68" height="21"/><text y="-10.1" text-anchor="middle" style=""><tspan class="text-outer-tspan row" x="0" y="-0.1em" dy="1.1em" text-anchor="middle"><tspan font-style="normal" class="text-inner-tspan" font-weight="normal">输出截断</tspan></tspan></text></g></g></g><g class="edgeLabel" transform="translate(221.75, 595.5)"><g class="label" data-id="L_L1_L2_0" transform="translate(0, -10.5)"><g><rect class="background" style="" x="-10" y="0" width="20" height="21"/><text y="-10.1" text-anchor="middle" style=""><tspan class="text-outer-tspan row" x="0" y="-0.1em" dy="1.1em" text-anchor="middle"><tspan font-style="normal" class="text-inner-tspan" font-weight="normal">是</tspan></tspan></text></g></g></g><g class="edgeLabel" transform="translate(470.1640625, 595.5)"><g class="label" data-id="L_L1_L3_0" transform="translate(0, -10.5)"><g><rect class="background" style="" x="-10" y="0" width="20" height="21"/><text y="-10.1" text-anchor="middle" style=""><tspan class="text-outer-tspan row" x="0" y="-0.1em" dy="1.1em" text-anchor="middle"><tspan font-style="normal" class="text-inner-tspan" font-weight="normal">否</tspan></tspan></text></g></g></g><g class="edgeLabel" transform="translate(365.7890625, 956.5)"><g class="label" data-id="L_L3_Stop_0" transform="translate(0, -10.5)"><g><rect class="background" style="" x="-10" y="0" width="20" height="21"/><text y="-10.1" text-anchor="middle" style=""><tspan class="text-outer-tspan row" x="0" y="-0.1em" dy="1.1em" text-anchor="middle"><tspan font-style="normal" class="text-inner-tspan" font-weight="normal">否</tspan></tspan></text></g></g></g><g class="edgeLabel" transform="translate(540.4140625, 825.5)"><g class="label" data-id="L_L3_L4_0" transform="translate(0, -10.5)"><g><rect class="background" style="" x="-10" y="0" width="20" height="21"/><text y="-10.1" text-anchor="middle" style=""><tspan class="text-outer-tspan row" x="0" y="-0.1em" dy="1.1em" text-anchor="middle"><tspan font-style="normal" class="text-inner-tspan" font-weight="normal">是</tspan></tspan></text></g></g></g><g class="edgeLabel" transform="translate(392.88794, 1103.35187)"><g class="label" data-id="L_L4_L5_0" transform="translate(0, -10.5)"><g><rect class="background" style="" x="-10" y="0" width="20" height="21"/><text y="-10.1" text-anchor="middle" style=""><tspan class="text-outer-tspan row" x="0" y="-0.1em" dy="1.1em" text-anchor="middle"><tspan font-style="normal" class="text-inner-tspan" font-weight="normal">是</tspan></tspan></text></g></g></g><g class="edgeLabel" transform="translate(622.50048, 1078.00645)"><g class="label" data-id="L_L4_Stop_0" transform="translate(0, -10.5)"><g><rect class="background" style="" x="-10" y="0" width="20" height="21"/><text y="-10.1" text-anchor="middle" style=""><tspan class="text-outer-tspan row" x="0" y="-0.1em" dy="1.1em" text-anchor="middle"><tspan font-style="normal" class="text-inner-tspan" font-weight="normal">否</tspan></tspan></text></g></g></g><g class="edgeLabel" transform="translate(770.2890625, 595.5)"><g class="label" data-id="L_Check_C1_0" transform="translate(0, -10.5)"><g><rect class="background" style="" x="-42" y="0" width="84" height="21"/><text y="-10.1" text-anchor="middle" style=""><tspan class="text-outer-tspan row" x="0" y="-0.1em" dy="1.1em" text-anchor="middle"><tspan font-style="normal" class="text-inner-tspan" font-weight="normal">上下文超限</tspan></tspan></text></g></g></g><g class="edgeLabel" transform="translate(629.53429, 1098.26837)"><g class="label" data-id="L_C1_C2_0" transform="translate(0, -10.5)"><g><rect class="background" style="" x="-10" y="0" width="20" height="21"/><text y="-10.1" text-anchor="middle" style=""><tspan class="text-outer-tspan row" x="0" y="-0.1em" dy="1.1em" text-anchor="middle"><tspan font-style="normal" class="text-inner-tspan" font-weight="normal">否</tspan></tspan></text></g></g></g><g class="edgeLabel" transform="translate(847.74813, 1092.40637)"><g class="label" data-id="L_C1_Stop_0" transform="translate(0, -10.5)"><g><rect class="background" style="" x="-10" y="0" width="20" height="21"/><text y="-10.1" text-anchor="middle" style=""><tspan class="text-outer-tspan row" x="0" y="-0.1em" dy="1.1em" text-anchor="middle"><tspan font-style="normal" class="text-inner-tspan" font-weight="normal">是</tspan></tspan></text></g></g></g><g class="edgeLabel" transform="translate(1001.7890625, 595.5)"><g class="label" data-id="L_Check_R1_0" transform="translate(-0.05078125, -10.5)"><g><rect class="background" style="" x="-35.3671875" y="0" width="70.8359375" height="21"/><text y="-10.1" text-anchor="middle" style=""><tspan class="text-outer-tspan row" x="0" y="-0.1em" dy="1.1em" text-anchor="middle"><tspan font-style="normal" class="text-inner-tspan" font-weight="normal">429</tspan><tspan font-style="normal" class="text-inner-tspan" font-weight="normal"> /</tspan><tspan font-style="normal" class="text-inner-tspan" font-weight="normal"> 529</tspan></tspan></text></g></g></g><g class="edgeLabel" transform="translate(983.42848, 1088.97307)"><g class="label" data-id="L_R1_R2_0" transform="translate(0, -10.5)"><g><rect class="background" style="" x="-10" y="0" width="20" height="21"/><text y="-10.1" text-anchor="middle" style=""><tspan class="text-outer-tspan row" x="0" y="-0.1em" dy="1.1em" text-anchor="middle"><tspan font-style="normal" class="text-inner-tspan" font-weight="normal">是</tspan></tspan></text></g></g></g><g class="edgeLabel" transform="translate(1052.0390625, 1087.5)"><g class="label" data-id="L_R1_Stop_0" transform="translate(0, -10.5)"><g><rect class="background" style="" x="-10" y="0" width="20" height="21"/><text y="-10.1" text-anchor="middle" style=""><tspan class="text-outer-tspan row" x="0" y="-0.1em" dy="1.1em" text-anchor="middle"><tspan font-style="normal" class="text-inner-tspan" font-weight="normal">否</tspan></tspan></text></g></g></g><g class="edgeLabel" transform="translate(1132.2890625, 710.5)"><g class="label" data-id="L_Check_Stop_0" transform="translate(0, -10.5)"><g><rect class="background" style="" x="-34" y="0" width="68" height="21"/><text y="-10.1" text-anchor="middle" style=""><tspan class="text-outer-tspan row" x="0" y="-0.1em" dy="1.1em" text-anchor="middle"><tspan font-style="normal" class="text-inner-tspan" font-weight="normal">普通错误</tspan></tspan></text></g></g></g></g><g class="nodes"><g class="node default" id="my-svg-flowchart-Start-0" data-look="classic" transform="translate(681.7890625, 24)"><g class="basic label-container outer-path"><path d="M-11.5 -16 C-2.323494083959856 -16, 6.853011832080288 -16, 11.5 -16 C11.5 -16, 11.499999999999998 -16, 11.499999999999998 -16 C11.79338975288364 -15.990591561673533, 12.086779505767279 -15.981183123347064, 12.525123519691405 -15.967126284005381 C12.832786804446288 -15.937446376944314, 13.140450089201172 -15.907766469883246, 13.546034586952095 -15.868640221171939 C13.898612370241407 -15.811638179451268, 14.251190153530718 -15.7546361377306, 14.558538059221954 -15.704946511857047 C14.877314310965222 -15.632187912606094, 15.196090562708491 -15.55942931335514, 15.558473342552116 -15.476717808624471 C15.840998073322258 -15.392865951534468, 16.1235228040924 -15.309014094444464, 16.54173148837793 -15.184891952170698 C16.846294081152436 -15.072810102683935, 17.15085667392694 -14.960728253197171, 17.504272078069985 -14.830668117536348 C17.747121262990547 -14.723165987237131, 17.989970447911112 -14.615663856937916, 18.44213982588093 -14.415501886438706 C18.646853935854356 -14.308702666391214, 18.851568045827783 -14.201903446343723, 19.351480832063 -13.941099265974232 C19.595498907425778 -13.793174074679934, 19.839516982788552 -13.645248883385635, 20.228558419368778 -13.409409678269451 C20.475169847920977 -13.237384221348117, 20.721781276473177 -13.065358764426785, 21.069768487859456 -12.822617949887306 C21.247829819361613 -12.680618776425366, 21.425891150863773 -12.538619602963427, 21.871654324924613 -12.183135333906153 C22.101287859318344 -11.974588233740144, 22.330921393712075 -11.766041133574136, 22.630920809655784 -11.493589601563642 C22.797864210269694 -11.321206834121687, 22.9648076108836 -11.148824066679735, 23.344447953205048 -10.756814244181072 C23.514611153187136 -10.55693086692174, 23.68477435316922 -10.357047489662406, 24.00930371948848 -9.975836829739738 C24.219413287720784 -9.694309149683889, 24.42952285595309 -9.41278146962804, 24.62275607355129 -9.153866561954718 C24.81037084611278 -8.86563988967975, 24.997985618674264 -8.57741321740478, 25.182284208085537 -8.294281092968403 C25.290195885615226 -8.10267298227218, 25.398107563144915 -7.9110648715759595, 25.685588901968003 -7.400612643853364 C25.803739327735062 -7.1552707567339295, 25.921889753502125 -6.909928869614495, 26.130601968252996 -6.476533489958305 C26.234991256728648 -6.21868992919385, 26.339380545204303 -5.9608463684293955, 26.515494752796165 -5.52584087074093 C26.638880564722847 -5.15422246407717, 26.762266376649528 -4.782604057413411, 26.83868564858657 -4.552441386096524 C26.93404487370445 -4.188795331772442, 27.02940409882233 -3.8251492774483604, 27.098846594909176 -3.560334943301032 C27.144629834263117 -3.325247685509603, 27.190413073617062 -3.090160427718174, 27.2949085346312 -2.5535983205340735 C27.32694445416466 -2.305134054840427, 27.358980373698117 -2.0566697891467807, 27.42606580718717 -1.536368414522911 C27.440121082783143 -1.3174461519014045, 27.45417635837911 -1.098523889279898, 27.491779459211006 -0.5128252411464826 C27.491779459211006 -0.2612468833202443, 27.491779459211006 -0.009668525494005986, 27.491779459211006 0.5128252411464788 C27.47278180385179 0.8087290579976363, 27.453784148492577 1.104632874848794, 27.42606580718717 1.5363684145229002 C27.37992958591139 1.8941918361104881, 27.33379336463561 2.2520152576980763, 27.294908534631205 2.5535983205340624 C27.220267355366055 2.9368650006417845, 27.1456261761009 3.3201316807495065, 27.098846594909176 3.5603349433010285 C27.000152146461847 3.9366996496752353, 26.901457698014514 4.313064356049442, 26.83868564858657 4.552441386096513 C26.73565490533191 4.86275356905991, 26.63262416207725 5.173065752023306, 26.515494752796165 5.525840870740919 C26.39492032907593 5.823662028477795, 26.2743459053557 6.12148318621467, 26.130601968253 6.4765334899583005 C25.96764933049732 6.814908128885875, 25.804696692741636 7.153282767813449, 25.685588901968003 7.400612643853361 C25.52312928558146 7.689076143567694, 25.360669669194916 7.977539643282026, 25.18228420808554 8.294281092968399 C24.979033810238686 8.60652828443496, 24.775783412391835 8.91877547590152, 24.622756073551297 9.15386656195471 C24.379796240807515 9.479410603735275, 24.136836408063733 9.804954645515839, 24.00930371948848 9.975836829739734 C23.834649910672784 10.180995131657903, 23.65999610185709 10.386153433576073, 23.344447953205055 10.756814244181063 C23.18458909079639 10.921881644274697, 23.024730228387728 11.08694904436833, 22.630920809655784 11.493589601563638 C22.440854543756902 11.666202755375183, 22.250788277858017 11.838815909186728, 21.871654324924627 12.183135333906142 C21.567449169014772 12.425730850505074, 21.263244013104917 12.668326367104005, 21.06976848785946 12.822617949887304 C20.769422199110057 13.032126519137599, 20.469075910360658 13.241635088387895, 20.228558419368788 13.409409678269446 C20.037527214850815 13.525213917072207, 19.846496010332842 13.64101815587497, 19.351480832063004 13.94109926597423 C19.060123877139855 14.0931000027346, 18.76876692221671 14.24510073949497, 18.442139825880933 14.415501886438705 C18.234623444946124 14.507363232523819, 18.027107064011314 14.599224578608933, 17.50427207806999 14.830668117536346 C17.276981019405337 14.914313328180453, 17.049689960740682 14.99795853882456, 16.54173148837794 15.184891952170695 C16.156562489483015 15.299208089249376, 15.77139349058809 15.41352422632806, 15.558473342552134 15.476717808624468 C15.350838829678997 15.524109031245938, 15.14320431680586 15.57150025386741, 14.558538059221961 15.704946511857045 C14.251812999914875 15.754535440757454, 13.94508794060779 15.804124369657863, 13.546034586952105 15.868640221171937 C13.177441704240978 15.90419793326928, 12.808848821529851 15.939755645366626, 12.525123519691405 15.967126284005381 C12.224223490188637 15.976775562285159, 11.923323460685868 15.986424840564935, 11.500000000000004 16 C11.500000000000002 16, 11.500000000000002 16, 11.5 16 C2.7953547054752157 16, -5.909290589049569 16, -11.499999999999996 16 C-11.895837758723058 15.987306253529209, -12.29167551744612 15.974612507058417, -12.5251235196914 15.967126284005381 C-12.75912056187777 15.944552870768279, -12.99311760406414 15.921979457531176, -13.5460345869521 15.868640221171937 C-13.940186833787582 15.804916742599902, -14.334339080623064 15.741193264027867, -14.558538059221956 15.704946511857045 C-14.813333933371736 15.646791016280824, -15.068129807521515 15.588635520704603, -15.558473342552112 15.476717808624471 C-15.877943950808898 15.3819006090293, -16.197414559065685 15.28708340943413, -16.541731488377923 15.184891952170702 C-16.900181381110446 15.052979078170647, -17.258631273842965 14.921066204170595, -17.504272078069988 14.830668117536348 C-17.840623465415813 14.681775335867755, -18.176974852761642 14.532882554199162, -18.44213982588093 14.415501886438708 C-18.75335022237489 14.253143621927581, -19.064560618868853 14.090785357416454, -19.351480832063 13.941099265974234 C-19.67073200780084 13.7475673271138, -19.989983183538683 13.554035388253363, -20.228558419368767 13.409409678269457 C-20.510633672799397 13.212646192317168, -20.792708926230024 13.015882706364879, -21.069768487859456 12.822617949887308 C-21.310847612335188 12.630363763502844, -21.551926736810916 12.43810957711838, -21.871654324924613 12.183135333906154 C-22.119557189631625 11.957996511329616, -22.367460054338636 11.732857688753077, -22.630920809655777 11.493589601563649 C-22.814959565596332 11.303554476192156, -22.998998321536888 11.113519350820665, -23.344447953205048 10.756814244181069 C-23.565321591058026 10.497363501092927, -23.786195228911005 10.237912758004788, -24.009303719488475 9.97583682973974 C-24.24145078995324 9.66478090435015, -24.473597860418003 9.353724978960562, -24.62275607355129 9.15386656195472 C-24.78307738591276 8.907569973867238, -24.943398698274237 8.661273385779756, -25.182284208085534 8.29428109296841 C-25.3158366125972 8.05714527511054, -25.44938901710886 7.820009457252671, -25.685588901968 7.400612643853366 C-25.79686608951973 7.169543182951799, -25.908143277071467 6.938473722050231, -26.130601968252996 6.476533489958307 C-26.26108383210307 6.154240763553408, -26.391565695953144 5.83194803714851, -26.515494752796165 5.525840870740931 C-26.586671430849787 5.311468056907005, -26.65784810890341 5.0970952430730785, -26.83868564858657 4.552441386096519 C-26.926255158544762 4.218500891760238, -27.013824668502956 3.884560397423957, -27.098846594909176 3.5603349433010343 C-27.157106023634174 3.2611850899327934, -27.215365452359173 2.962035236564553, -27.2949085346312 2.5535983205340753 C-27.34511739844106 2.164188287686395, -27.395326262250926 1.7747782548387143, -27.42606580718717 1.5363684145229202 C-27.449586761804326 1.1700105605878954, -27.47310771642148 0.8036527066528708, -27.491779459211006 0.5128252411464846 C-27.491779459211006 0.2466734169759412, -27.491779459211006 -0.019478407194602254, -27.491779459211006 -0.5128252411464769 C-27.477605393389634 -0.7335977574143695, -27.46343132756826 -0.954370273682262, -27.42606580718717 -1.5363684145228982 C-27.38357967699318 -1.8658824504721596, -27.341093546799186 -2.195396486421421, -27.294908534631205 -2.5535983205340678 C-27.217571420180956 -2.9507080580311595, -27.140234305730708 -3.3478177955282513, -27.098846594909176 -3.5603349433010267 C-27.021854404702662 -3.8539395331847817, -26.944862214496148 -4.147544123068537, -26.838685648586573 -4.552441386096511 C-26.769153854939645 -4.761860070174219, -26.699622061292715 -4.9712787542519274, -26.515494752796172 -5.525840870740911 C-26.391361169650875 -5.832453221069359, -26.267227586505577 -6.139065571397808, -26.130601968253 -6.476533489958299 C-26.028154350049054 -6.689268161186668, -25.925706731845107 -6.902002832415038, -25.685588901968003 -7.400612643853359 C-25.547064182027615 -7.6465773112564674, -25.408539462087223 -7.892541978659576, -25.182284208085537 -8.294281092968404 C-25.056364792867534 -8.487727128840666, -24.930445377649527 -8.681173164712927, -24.622756073551294 -9.153866561954715 C-24.498995727034224 -9.319694151488076, -24.375235380517154 -9.485521741021437, -24.00930371948848 -9.975836829739734 C-23.828041762749432 -10.188757438222945, -23.646779806010382 -10.401678046706154, -23.344447953205055 -10.756814244181063 C-23.11591821423606 -10.992789962307057, -22.887388475267066 -11.22876568043305, -22.63092080965579 -11.493589601563633 C-22.47658785329452 -11.633750709104678, -22.322254896933252 -11.773911816645724, -21.871654324924627 -12.18313533390614 C-21.553776818770388 -12.43663418598845, -21.23589931261615 -12.690133038070757, -21.069768487859463 -12.822617949887302 C-20.854399926015244 -12.97284973547505, -20.639031364171025 -13.1230815210628, -20.228558419368788 -13.409409678269444 C-19.964308723136632 -13.569599397028963, -19.700059026904476 -13.72978911578848, -19.351480832063007 -13.941099265974229 C-19.132534711001167 -14.055323317090508, -18.913588589939327 -14.169547368206786, -18.442139825880936 -14.415501886438705 C-18.071985988678644 -14.579358009944706, -17.701832151476356 -14.743214133450707, -17.504272078069995 -14.830668117536344 C-17.24808048692818 -14.92494899128564, -16.991888895786364 -15.019229865034937, -16.54173148837794 -15.184891952170695 C-16.330916650861642 -15.247460689355869, -16.12010181334534 -15.310029426541044, -15.558473342552134 -15.476717808624466 C-15.327630785667752 -15.529406115844862, -15.096788228783373 -15.582094423065259, -14.558538059221963 -15.704946511857043 C-14.180218924541643 -15.766110215643451, -13.801899789861324 -15.827273919429858, -13.546034586952107 -15.868640221171937 C-13.208654936396895 -15.901186830302604, -12.871275285841683 -15.93373343943327, -12.525123519691407 -15.967126284005381 C-12.122506340008941 -15.980037433310999, -11.719889160326476 -15.992948582616616, -11.500000000000005 -16 C-11.500000000000004 -16, -11.500000000000002 -16, -11.5 -16" stroke="none" stroke-width="0" fill="#eee" style=""/><path d="M-11.5 -16 C-2.4332408656932447 -16, 6.633518268613511 -16, 11.5 -16 M-11.5 -16 C-4.283127029307445 -16, 2.9337459413851104 -16, 11.5 -16 M11.5 -16 C11.5 -16, 11.499999999999998 -16, 11.499999999999998 -16 M11.5 -16 C11.5 -16, 11.499999999999998 -16, 11.499999999999998 -16 M11.499999999999998 -16 C11.817322230189047 -15.989824093708089, 12.134644460378096 -15.979648187416178, 12.525123519691405 -15.967126284005381 M11.499999999999998 -16 C11.895973029559233 -15.987301915656781, 12.291946059118468 -15.974603831313562, 12.525123519691405 -15.967126284005381 M12.525123519691405 -15.967126284005381 C12.807027953912655 -15.939931302275744, 13.088932388133905 -15.912736320546104, 13.546034586952095 -15.868640221171939 M12.525123519691405 -15.967126284005381 C12.815427906102208 -15.939120968990437, 13.10573229251301 -15.911115653975493, 13.546034586952095 -15.868640221171939 M13.546034586952095 -15.868640221171939 C13.894119489434765 -15.812364553577275, 14.242204391917433 -15.756088885982614, 14.558538059221954 -15.704946511857047 M13.546034586952095 -15.868640221171939 C13.809638309343162 -15.82602281561315, 14.07324203173423 -15.78340541005436, 14.558538059221954 -15.704946511857047 M14.558538059221954 -15.704946511857047 C14.776102459279247 -15.655288857284361, 14.99366685933654 -15.605631202711676, 15.558473342552116 -15.476717808624471 M14.558538059221954 -15.704946511857047 C14.826119990031335 -15.643872682285089, 15.093701920840715 -15.58279885271313, 15.558473342552116 -15.476717808624471 M15.558473342552116 -15.476717808624471 C15.77892594481764 -15.411288633451386, 15.999378547083165 -15.345859458278301, 16.54173148837793 -15.184891952170698 M15.558473342552116 -15.476717808624471 C15.872086504356052 -15.383639068390142, 16.185699666159987 -15.290560328155813, 16.54173148837793 -15.184891952170698 M16.54173148837793 -15.184891952170698 C16.897774841659235 -15.0538647069345, 17.253818194940536 -14.9228374616983, 17.504272078069985 -14.830668117536348 M16.54173148837793 -15.184891952170698 C16.806531982594795 -15.087442922509958, 17.07133247681166 -14.989993892849215, 17.504272078069985 -14.830668117536348 M17.504272078069985 -14.830668117536348 C17.72222244042823 -14.73418795738814, 17.940172802786474 -14.637707797239935, 18.44213982588093 -14.415501886438706 M17.504272078069985 -14.830668117536348 C17.76352392068421 -14.715905017243701, 18.022775763298434 -14.601141916951054, 18.44213982588093 -14.415501886438706 M18.44213982588093 -14.415501886438706 C18.78690015901026 -14.235640641474667, 19.13166049213959 -14.055779396510628, 19.351480832063 -13.941099265974232 M18.44213982588093 -14.415501886438706 C18.67681391732595 -14.293072563247767, 18.911488008770974 -14.17064324005683, 19.351480832063 -13.941099265974232 M19.351480832063 -13.941099265974232 C19.62339814754195 -13.776261391367377, 19.895315463020896 -13.611423516760523, 20.228558419368778 -13.409409678269451 M19.351480832063 -13.941099265974232 C19.635642973960405 -13.768838505633921, 19.91980511585781 -13.59657774529361, 20.228558419368778 -13.409409678269451 M20.228558419368778 -13.409409678269451 C20.40318942048271 -13.287594651546568, 20.57782042159665 -13.165779624823687, 21.069768487859456 -12.822617949887306 M20.228558419368778 -13.409409678269451 C20.525491821676045 -13.202281790859717, 20.822425223983313 -12.995153903449982, 21.069768487859456 -12.822617949887306 M21.069768487859456 -12.822617949887306 C21.38119049940677 -12.574267182966095, 21.69261251095408 -12.325916416044885, 21.871654324924613 -12.183135333906153 M21.069768487859456 -12.822617949887306 C21.3824134322031 -12.573291926604629, 21.695058376546747 -12.323965903321952, 21.871654324924613 -12.183135333906153 M21.871654324924613 -12.183135333906153 C22.039557773019514 -12.030649864828161, 22.20746122111441 -11.87816439575017, 22.630920809655784 -11.493589601563642 M21.871654324924613 -12.183135333906153 C22.067583724373264 -12.005197437334724, 22.263513123821912 -11.827259540763293, 22.630920809655784 -11.493589601563642 M22.630920809655784 -11.493589601563642 C22.84404597833783 -11.273520366997662, 23.05717114701988 -11.053451132431682, 23.344447953205048 -10.756814244181072 M22.630920809655784 -11.493589601563642 C22.84134211829604 -11.27631232448185, 23.051763426936297 -11.059035047400059, 23.344447953205048 -10.756814244181072 M23.344447953205048 -10.756814244181072 C23.574901816807632 -10.486110022797158, 23.805355680410216 -10.215405801413244, 24.00930371948848 -9.975836829739738 M23.344447953205048 -10.756814244181072 C23.510182748689264 -10.562132722828292, 23.67591754417348 -10.367451201475511, 24.00930371948848 -9.975836829739738 M24.00930371948848 -9.975836829739738 C24.22274111605409 -9.689850162888655, 24.4361785126197 -9.403863496037573, 24.62275607355129 -9.153866561954718 M24.00930371948848 -9.975836829739738 C24.22409860599088 -9.688031250043238, 24.438893492493275 -9.40022567034674, 24.62275607355129 -9.153866561954718 M24.62275607355129 -9.153866561954718 C24.757978674590273 -8.946128334406252, 24.89320127562926 -8.738390106857784, 25.182284208085537 -8.294281092968403 M24.62275607355129 -9.153866561954718 C24.74943854960666 -8.959248259725744, 24.876121025662023 -8.76462995749677, 25.182284208085537 -8.294281092968403 M25.182284208085537 -8.294281092968403 C25.307147825784597 -8.072573095931384, 25.432011443483656 -7.8508650988943645, 25.685588901968003 -7.400612643853364 M25.182284208085537 -8.294281092968403 C25.286900813399637 -8.108523716653202, 25.391517418713736 -7.922766340338003, 25.685588901968003 -7.400612643853364 M25.685588901968003 -7.400612643853364 C25.855746849702136 -7.047276024586599, 26.02590479743627 -6.693939405319834, 26.130601968252996 -6.476533489958305 M25.685588901968003 -7.400612643853364 C25.803272244821535 -7.156240664397845, 25.920955587675067 -6.911868684942326, 26.130601968252996 -6.476533489958305 M26.130601968252996 -6.476533489958305 C26.275021248122847 -6.119815076522948, 26.4194405279927 -5.763096663087591, 26.515494752796165 -5.52584087074093 M26.130601968252996 -6.476533489958305 C26.228746087825556 -6.2341156171266165, 26.326890207398115 -5.991697744294928, 26.515494752796165 -5.52584087074093 M26.515494752796165 -5.52584087074093 C26.612137169950792 -5.234769308149293, 26.70877958710542 -4.943697745557657, 26.83868564858657 -4.552441386096524 M26.515494752796165 -5.52584087074093 C26.604261488170895 -5.25848960685086, 26.693028223545625 -4.991138342960791, 26.83868564858657 -4.552441386096524 M26.83868564858657 -4.552441386096524 C26.89631735512107 -4.332666711340852, 26.953949061655575 -4.11289203658518, 27.098846594909176 -3.560334943301032 M26.83868564858657 -4.552441386096524 C26.942430416146372 -4.156817624124308, 27.046175183706175 -3.761193862152092, 27.098846594909176 -3.560334943301032 M27.098846594909176 -3.560334943301032 C27.175378203138422 -3.167361310004986, 27.251909811367668 -2.774387676708941, 27.2949085346312 -2.5535983205340735 M27.098846594909176 -3.560334943301032 C27.15858260229353 -3.2536031705920054, 27.218318609677883 -2.9468713978829792, 27.2949085346312 -2.5535983205340735 M27.2949085346312 -2.5535983205340735 C27.342086825951245 -2.187692809463194, 27.38926511727129 -1.821787298392314, 27.42606580718717 -1.536368414522911 M27.2949085346312 -2.5535983205340735 C27.331899417429927 -2.266704338223189, 27.36889030022865 -1.9798103559123037, 27.42606580718717 -1.536368414522911 M27.42606580718717 -1.536368414522911 C27.440963626391383 -1.3043228551141137, 27.45586144559559 -1.0722772957053162, 27.491779459211006 -0.5128252411464826 M27.42606580718717 -1.536368414522911 C27.442881926725246 -1.2744437789900422, 27.459698046263316 -1.0125191434571734, 27.491779459211006 -0.5128252411464826 M27.491779459211006 -0.5128252411464826 C27.491779459211006 -0.18355952954722965, 27.491779459211006 0.14570618205202335, 27.491779459211006 0.5128252411464788 M27.491779459211006 -0.5128252411464826 C27.491779459211006 -0.24918663493817267, 27.491779459211006 0.01445197127013731, 27.491779459211006 0.5128252411464788 M27.491779459211006 0.5128252411464788 C27.471246311476442 0.8326455911708481, 27.450713163741877 1.1524659411952176, 27.42606580718717 1.5363684145229002 M27.491779459211006 0.5128252411464788 C27.476229728285507 0.7550248518280358, 27.460679997360007 0.9972244625095928, 27.42606580718717 1.5363684145229002 M27.42606580718717 1.5363684145229002 C27.38059666180017 1.8890181272461526, 27.33512751641317 2.2416678399694048, 27.294908534631205 2.5535983205340624 M27.42606580718717 1.5363684145229002 C27.394760604637913 1.7791653835834822, 27.363455402088658 2.0219623526440644, 27.294908534631205 2.5535983205340624 M27.294908534631205 2.5535983205340624 C27.217852700218973 2.9492637444844982, 27.140796865806742 3.344929168434934, 27.098846594909176 3.5603349433010285 M27.294908534631205 2.5535983205340624 C27.249635865648322 2.7860639073791753, 27.204363196665444 3.018529494224288, 27.098846594909176 3.5603349433010285 M27.098846594909176 3.5603349433010285 C26.995540948915938 3.954284144423435, 26.892235302922703 4.348233345545841, 26.83868564858657 4.552441386096513 M27.098846594909176 3.5603349433010285 C27.02771476686409 3.8315914323662317, 26.956582938819004 4.102847921431435, 26.83868564858657 4.552441386096513 M26.83868564858657 4.552441386096513 C26.748322501023978 4.824600789142679, 26.657959353461386 5.096760192188846, 26.515494752796165 5.525840870740919 M26.83868564858657 4.552441386096513 C26.72637643573684 4.890698841156895, 26.61406722288711 5.2289562962172775, 26.515494752796165 5.525840870740919 M26.515494752796165 5.525840870740919 C26.419595822945478 5.762713081551791, 26.323696893094795 5.999585292362664, 26.130601968253 6.4765334899583005 M26.515494752796165 5.525840870740919 C26.38844649541707 5.8396525227782385, 26.261398238037977 6.153464174815559, 26.130601968253 6.4765334899583005 M26.130601968253 6.4765334899583005 C25.994934053045355 6.758250818715339, 25.859266137837707 7.039968147472377, 25.685588901968003 7.400612643853361 M26.130601968253 6.4765334899583005 C25.97582176989179 6.797937883621065, 25.82104157153058 7.11934227728383, 25.685588901968003 7.400612643853361 M25.685588901968003 7.400612643853361 C25.554105179286218 7.6340753076455306, 25.422621456604432 7.867537971437701, 25.18228420808554 8.294281092968399 M25.685588901968003 7.400612643853361 C25.49307703914732 7.742436950231445, 25.300565176326636 8.08426125660953, 25.18228420808554 8.294281092968399 M25.18228420808554 8.294281092968399 C24.9644199463028 8.62897910381241, 24.746555684520064 8.96367711465642, 24.622756073551297 9.15386656195471 M25.18228420808554 8.294281092968399 C24.972195994197257 8.617033006085297, 24.762107780308973 8.939784919202195, 24.622756073551297 9.15386656195471 M24.622756073551297 9.15386656195471 C24.38165836781666 9.476915523186284, 24.140560662082017 9.799964484417856, 24.00930371948848 9.975836829739734 M24.622756073551297 9.15386656195471 C24.46369137945438 9.366998760952832, 24.30462668535747 9.580130959950957, 24.00930371948848 9.975836829739734 M24.00930371948848 9.975836829739734 C23.785039517338536 10.239270322579664, 23.560775315188593 10.502703815419594, 23.344447953205055 10.756814244181063 M24.00930371948848 9.975836829739734 C23.821934420671013 10.195931469745862, 23.63456512185355 10.41602610975199, 23.344447953205055 10.756814244181063 M23.344447953205055 10.756814244181063 C23.066643853988182 11.0436697847632, 22.788839754771313 11.330525325345338, 22.630920809655784 11.493589601563638 M23.344447953205055 10.756814244181063 C23.150016560833535 10.957580619918843, 22.955585168462015 11.158346995656624, 22.630920809655784 11.493589601563638 M22.630920809655784 11.493589601563638 C22.416132016256302 11.688655100728994, 22.201343222856824 11.883720599894348, 21.871654324924627 12.183135333906142 M22.630920809655784 11.493589601563638 C22.380416088874554 11.721091360985444, 22.129911368093325 11.948593120407251, 21.871654324924627 12.183135333906142 M21.871654324924627 12.183135333906142 C21.637515035634383 12.369855186406951, 21.403375746344135 12.556575038907761, 21.06976848785946 12.822617949887304 M21.871654324924627 12.183135333906142 C21.669701529363632 12.344187314176445, 21.467748733802637 12.505239294446746, 21.06976848785946 12.822617949887304 M21.06976848785946 12.822617949887304 C20.824583748404326 12.993648210254902, 20.57939900894919 13.1646784706225, 20.228558419368788 13.409409678269446 M21.06976848785946 12.822617949887304 C20.791744604617456 13.016555375376997, 20.513720721375456 13.21049280086669, 20.228558419368788 13.409409678269446 M20.228558419368788 13.409409678269446 C19.938858483044246 13.58502748213518, 19.649158546719704 13.760645286000914, 19.351480832063004 13.94109926597423 M20.228558419368788 13.409409678269446 C19.947633898206696 13.579707773893638, 19.666709377044604 13.750005869517832, 19.351480832063004 13.94109926597423 M19.351480832063004 13.94109926597423 C19.137153096805793 14.052913908174451, 18.922825361548583 14.164728550374672, 18.442139825880933 14.415501886438705 M19.351480832063004 13.94109926597423 C19.066413388504074 14.089818768684513, 18.781345944945144 14.238538271394795, 18.442139825880933 14.415501886438705 M18.442139825880933 14.415501886438705 C18.105691974536725 14.564437369857878, 17.76924412319252 14.71337285327705, 17.50427207806999 14.830668117536346 M18.442139825880933 14.415501886438705 C18.132877445394758 14.552403168337367, 17.823615064908584 14.689304450236031, 17.50427207806999 14.830668117536346 M17.50427207806999 14.830668117536346 C17.130012030061845 14.968399274825302, 16.755751982053702 15.10613043211426, 16.54173148837794 15.184891952170695 M17.50427207806999 14.830668117536346 C17.23778055586947 14.928739461126765, 16.971289033668945 15.026810804717185, 16.54173148837794 15.184891952170695 M16.54173148837794 15.184891952170695 C16.166384303032636 15.296293026543601, 15.791037117687331 15.407694100916506, 15.558473342552134 15.476717808624468 M16.54173148837794 15.184891952170695 C16.269943281077335 15.265557265452102, 15.998155073776731 15.34622257873351, 15.558473342552134 15.476717808624468 M15.558473342552134 15.476717808624468 C15.301842122218272 15.535292209990452, 15.045210901884408 15.593866611356438, 14.558538059221961 15.704946511857045 M15.558473342552134 15.476717808624468 C15.345089774081796 15.525421215669907, 15.131706205611458 15.574124622715344, 14.558538059221961 15.704946511857045 M14.558538059221961 15.704946511857045 C14.325921468548987 15.74255415826845, 14.093304877876012 15.780161804679853, 13.546034586952105 15.868640221171937 M14.558538059221961 15.704946511857045 C14.28564905125735 15.7490650903789, 14.012760043292737 15.793183668900754, 13.546034586952105 15.868640221171937 M13.546034586952105 15.868640221171937 C13.270136207851117 15.895255805987462, 12.99423782875013 15.921871390802988, 12.525123519691405 15.967126284005381 M13.546034586952105 15.868640221171937 C13.17498130946212 15.90443528459454, 12.803928031972138 15.940230348017144, 12.525123519691405 15.967126284005381 M12.525123519691405 15.967126284005381 C12.279324994048471 15.975008564304945, 12.033526468405535 15.982890844604507, 11.500000000000004 16 M12.525123519691405 15.967126284005381 C12.226225631362938 15.97671135751463, 11.927327743034473 15.986296431023877, 11.500000000000004 16 M11.500000000000004 16 C11.500000000000004 16, 11.500000000000002 16, 11.5 16 M11.500000000000004 16 C11.500000000000002 16, 11.500000000000002 16, 11.5 16 M11.5 16 C3.4783901468011997 16, -4.5432197063976005 16, -11.499999999999996 16 M11.5 16 C6.400599081464726 16, 1.3011981629294525 16, -11.499999999999996 16 M-11.499999999999996 16 C-11.741280542621686 15.992262602622208, -11.982561085243377 15.984525205244417, -12.5251235196914 15.967126284005381 M-11.499999999999996 16 C-11.730613189033775 15.992604683889029, -11.961226378067554 15.985209367778056, -12.5251235196914 15.967126284005381 M-12.5251235196914 15.967126284005381 C-12.87201235834985 15.933662334934867, -13.2189011970083 15.900198385864352, -13.5460345869521 15.868640221171937 M-12.5251235196914 15.967126284005381 C-12.858913897471437 15.934925927702603, -13.192704275251476 15.902725571399825, -13.5460345869521 15.868640221171937 M-13.5460345869521 15.868640221171937 C-13.938930052676763 15.805119929223416, -14.331825518401425 15.741599637274897, -14.558538059221956 15.704946511857045 M-13.5460345869521 15.868640221171937 C-13.768697629143656 15.832641787288088, -13.991360671335212 15.796643353404239, -14.558538059221956 15.704946511857045 M-14.558538059221956 15.704946511857045 C-14.911220119780566 15.62444913300007, -15.263902180339178 15.543951754143096, -15.558473342552112 15.476717808624471 M-14.558538059221956 15.704946511857045 C-14.87754585487282 15.632135064220149, -15.196553650523683 15.559323616583253, -15.558473342552112 15.476717808624471 M-15.558473342552112 15.476717808624471 C-15.907486848570533 15.373132432047482, -16.256500354588955 15.269547055470493, -16.541731488377923 15.184891952170702 M-15.558473342552112 15.476717808624471 C-15.892471853283878 15.377588803833243, -16.226470364015643 15.278459799042015, -16.541731488377923 15.184891952170702 M-16.541731488377923 15.184891952170702 C-16.761927976451652 15.103857609085548, -16.98212446452538 15.022823266000392, -17.504272078069988 14.830668117536348 M-16.541731488377923 15.184891952170702 C-16.905340247735406 15.051080567564622, -17.26894900709289 14.917269182958542, -17.504272078069988 14.830668117536348 M-17.504272078069988 14.830668117536348 C-17.874040817080747 14.666982465576206, -18.243809556091506 14.503296813616064, -18.44213982588093 14.415501886438708 M-17.504272078069988 14.830668117536348 C-17.840351768470523 14.681895608045833, -18.176431458871054 14.533123098555318, -18.44213982588093 14.415501886438708 M-18.44213982588093 14.415501886438708 C-18.695987639868907 14.283069644478465, -18.94983545385688 14.150637402518223, -19.351480832063 13.941099265974234 M-18.44213982588093 14.415501886438708 C-18.78049455055885 14.238982443300781, -19.118849275236773 14.062463000162854, -19.351480832063 13.941099265974234 M-19.351480832063 13.941099265974234 C-19.595222942208743 13.793341366416254, -19.83896505235448 13.645583466858271, -20.228558419368767 13.409409678269457 M-19.351480832063 13.941099265974234 C-19.64914758930793 13.760651928448324, -19.94681434655286 13.580204590922413, -20.228558419368767 13.409409678269457 M-20.228558419368767 13.409409678269457 C-20.40487339887808 13.286419981116207, -20.5811883783874 13.163430283962956, -21.069768487859456 12.822617949887308 M-20.228558419368767 13.409409678269457 C-20.556565293721846 13.180606281909489, -20.88457216807493 12.951802885549522, -21.069768487859456 12.822617949887308 M-21.069768487859456 12.822617949887308 C-21.243789234261058 12.683841035518576, -21.41780998066266 12.545064121149846, -21.871654324924613 12.183135333906154 M-21.069768487859456 12.822617949887308 C-21.276297219563872 12.657916782313402, -21.482825951268293 12.493215614739494, -21.871654324924613 12.183135333906154 M-21.871654324924613 12.183135333906154 C-22.056206550168916 12.015529885923579, -22.24075877541322 11.847924437941005, -22.630920809655777 11.493589601563649 M-21.871654324924613 12.183135333906154 C-22.027113829718697 12.041951124885266, -22.18257333451278 11.900766915864377, -22.630920809655777 11.493589601563649 M-22.630920809655777 11.493589601563649 C-22.791443235357907 11.327837017889951, -22.951965661060036 11.162084434216252, -23.344447953205048 10.756814244181069 M-22.630920809655777 11.493589601563649 C-22.800045457046288 11.318954517741163, -22.969170104436795 11.144319433918678, -23.344447953205048 10.756814244181069 M-23.344447953205048 10.756814244181069 C-23.507490610384778 10.565295061667747, -23.670533267564508 10.373775879154426, -24.009303719488475 9.97583682973974 M-23.344447953205048 10.756814244181069 C-23.58517508806639 10.474042453810924, -23.82590222292773 10.191270663440777, -24.009303719488475 9.97583682973974 M-24.009303719488475 9.97583682973974 C-24.221735506925285 9.691197587508377, -24.434167294362098 9.406558345277013, -24.62275607355129 9.15386656195472 M-24.009303719488475 9.97583682973974 C-24.157098636473265 9.777805105374046, -24.304893553458054 9.579773381008353, -24.62275607355129 9.15386656195472 M-24.62275607355129 9.15386656195472 C-24.761345304030172 8.940956287519986, -24.89993453450905 8.728046013085255, -25.182284208085534 8.29428109296841 M-24.62275607355129 9.15386656195472 C-24.763860385686083 8.937092446702513, -24.90496469782088 8.720318331450308, -25.182284208085534 8.29428109296841 M-25.182284208085534 8.29428109296841 C-25.284404861787248 8.112955531483507, -25.386525515488962 7.931629969998604, -25.685588901968 7.400612643853366 M-25.182284208085534 8.29428109296841 C-25.381129728400285 7.941210736357239, -25.579975248715037 7.5881403797460685, -25.685588901968 7.400612643853366 M-25.685588901968 7.400612643853366 C-25.786943530010145 7.190147590082222, -25.88829815805229 6.979682536311079, -26.130601968252996 6.476533489958307 M-25.685588901968 7.400612643853366 C-25.82557455645682 7.109929437094147, -25.965560210945643 6.819246230334928, -26.130601968252996 6.476533489958307 M-26.130601968252996 6.476533489958307 C-26.280669548948385 6.105863664281405, -26.430737129643774 5.735193838604505, -26.515494752796165 5.525840870740931 M-26.130601968252996 6.476533489958307 C-26.261339394846622 6.153609518635865, -26.39207682144025 5.830685547313423, -26.515494752796165 5.525840870740931 M-26.515494752796165 5.525840870740931 C-26.586907158415634 5.310758083036754, -26.658319564035107 5.095675295332578, -26.83868564858657 4.552441386096519 M-26.515494752796165 5.525840870740931 C-26.589477208262508 5.303017502379806, -26.663459663728855 5.080194134018681, -26.83868564858657 4.552441386096519 M-26.83868564858657 4.552441386096519 C-26.915482021068538 4.259583534064391, -26.99227839355051 3.9667256820322634, -27.098846594909176 3.5603349433010343 M-26.83868564858657 4.552441386096519 C-26.92895280318694 4.208213603573017, -27.019219957787318 3.8639858210495146, -27.098846594909176 3.5603349433010343 M-27.098846594909176 3.5603349433010343 C-27.16845483195387 3.2029113577826465, -27.238063068998564 2.8454877722642586, -27.2949085346312 2.5535983205340753 M-27.098846594909176 3.5603349433010343 C-27.160800369643997 3.2422154039726565, -27.22275414437882 2.9240958646442787, -27.2949085346312 2.5535983205340753 M-27.2949085346312 2.5535983205340753 C-27.327411378416986 2.30151268254401, -27.35991422220277 2.049427044553944, -27.42606580718717 1.5363684145229202 M-27.2949085346312 2.5535983205340753 C-27.340416230543955 2.2006496175457726, -27.385923926456705 1.8477009145574703, -27.42606580718717 1.5363684145229202 M-27.42606580718717 1.5363684145229202 C-27.44550545091011 1.2335802721401634, -27.46494509463305 0.9307921297574067, -27.491779459211006 0.5128252411464846 M-27.42606580718717 1.5363684145229202 C-27.44123940153475 1.3000274346544518, -27.45641299588233 1.0636864547859832, -27.491779459211006 0.5128252411464846 M-27.491779459211006 0.5128252411464846 C-27.491779459211006 0.18056910585866837, -27.491779459211006 -0.1516870294291479, -27.491779459211006 -0.5128252411464769 M-27.491779459211006 0.5128252411464846 C-27.491779459211006 0.12978198513524436, -27.491779459211006 -0.2532612708759959, -27.491779459211006 -0.5128252411464769 M-27.491779459211006 -0.5128252411464769 C-27.47019093196175 -0.8490839789992117, -27.448602404712492 -1.1853427168519466, -27.42606580718717 -1.5363684145228982 M-27.491779459211006 -0.5128252411464769 C-27.473846688224125 -0.7921426243393851, -27.45591391723724 -1.0714600075322933, -27.42606580718717 -1.5363684145228982 M-27.42606580718717 -1.5363684145228982 C-27.39798283867943 -1.754174372659579, -27.369899870171686 -1.9719803307962602, -27.294908534631205 -2.5535983205340678 M-27.42606580718717 -1.5363684145228982 C-27.39763224579037 -1.7568935018747203, -27.369198684393567 -1.9774185892265423, -27.294908534631205 -2.5535983205340678 M-27.294908534631205 -2.5535983205340678 C-27.244500352860747 -2.8124336801523775, -27.194092171090286 -3.0712690397706868, -27.098846594909176 -3.5603349433010267 M-27.294908534631205 -2.5535983205340678 C-27.25224649120101 -2.7726588969220454, -27.209584447770812 -2.991719473310023, -27.098846594909176 -3.5603349433010267 M-27.098846594909176 -3.5603349433010267 C-27.01132878879137 -3.8940782684853352, -26.92381098267356 -4.227821593669644, -26.838685648586573 -4.552441386096511 M-27.098846594909176 -3.5603349433010267 C-27.019944604400294 -3.8612224294504034, -26.94104261389141 -4.16210991559978, -26.838685648586573 -4.552441386096511 M-26.838685648586573 -4.552441386096511 C-26.741584433717744 -4.8448947743038335, -26.64448321884892 -5.137348162511156, -26.515494752796172 -5.525840870740911 M-26.838685648586573 -4.552441386096511 C-26.71521801980439 -4.924306212093303, -26.591750391022202 -5.296171038090096, -26.515494752796172 -5.525840870740911 M-26.515494752796172 -5.525840870740911 C-26.389076241850095 -5.838097036913359, -26.262657730904017 -6.150353203085806, -26.130601968253 -6.476533489958299 M-26.515494752796172 -5.525840870740911 C-26.422798272768432 -5.754802968573952, -26.330101792740688 -5.983765066406994, -26.130601968253 -6.476533489958299 M-26.130601968253 -6.476533489958299 C-26.017584897861948 -6.711215854803239, -25.9045678274709 -6.945898219648179, -25.685588901968003 -7.400612643853359 M-26.130601968253 -6.476533489958299 C-25.983676018028234 -6.781628369311746, -25.836750067803468 -7.086723248665194, -25.685588901968003 -7.400612643853359 M-25.685588901968003 -7.400612643853359 C-25.554011142775845 -7.634242278991927, -25.422433383583687 -7.867871914130495, -25.182284208085537 -8.294281092968404 M-25.685588901968003 -7.400612643853359 C-25.549911337587854 -7.641521898253498, -25.4142337732077 -7.882431152653639, -25.182284208085537 -8.294281092968404 M-25.182284208085537 -8.294281092968404 C-24.984755663192043 -8.597737981765952, -24.78722711829855 -8.901194870563502, -24.622756073551294 -9.153866561954715 M-25.182284208085537 -8.294281092968404 C-25.000372068169202 -8.573746990129141, -24.818459928252867 -8.853212887289878, -24.622756073551294 -9.153866561954715 M-24.622756073551294 -9.153866561954715 C-24.47917335361758 -9.346254326011012, -24.335590633683864 -9.538642090067308, -24.00930371948848 -9.975836829739734 M-24.622756073551294 -9.153866561954715 C-24.45502251038688 -9.37861425575307, -24.287288947222464 -9.603361949551422, -24.00930371948848 -9.975836829739734 M-24.00930371948848 -9.975836829739734 C-23.81228202201462 -10.207269726444704, -23.615260324540763 -10.438702623149672, -23.344447953205055 -10.756814244181063 M-24.00930371948848 -9.975836829739734 C-23.863177166059355 -10.147485394234021, -23.71705061263023 -10.319133958728308, -23.344447953205055 -10.756814244181063 M-23.344447953205055 -10.756814244181063 C-23.175968622709348 -10.93078298532816, -23.007489292213645 -11.104751726475257, -22.63092080965579 -11.493589601563633 M-23.344447953205055 -10.756814244181063 C-23.146148511942496 -10.961574697971564, -22.947849070679936 -11.166335151762063, -22.63092080965579 -11.493589601563633 M-22.63092080965579 -11.493589601563633 C-22.47419440602889 -11.635924374584182, -22.317468002401988 -11.778259147604729, -21.871654324924627 -12.18313533390614 M-22.63092080965579 -11.493589601563633 C-22.342898298045984 -11.755164025949604, -22.054875786436174 -12.016738450335573, -21.871654324924627 -12.18313533390614 M-21.871654324924627 -12.18313533390614 C-21.695188365867157 -12.323862240298086, -21.518722406809683 -12.464589146690033, -21.069768487859463 -12.822617949887302 M-21.871654324924627 -12.18313533390614 C-21.70744218785942 -12.314090143347151, -21.543230050794214 -12.445044952788164, -21.069768487859463 -12.822617949887302 M-21.069768487859463 -12.822617949887302 C-20.765428655627286 -13.03491224219347, -20.46108882339511 -13.247206534499636, -20.228558419368788 -13.409409678269444 M-21.069768487859463 -12.822617949887302 C-20.83684520924905 -12.985095145959706, -20.603921930638634 -13.147572342032111, -20.228558419368788 -13.409409678269444 M-20.228558419368788 -13.409409678269444 C-20.040009974270696 -13.523708853721562, -19.851461529172603 -13.638008029173678, -19.351480832063007 -13.941099265974229 M-20.228558419368788 -13.409409678269444 C-19.922288475116606 -13.595072318317088, -19.616018530864423 -13.780734958364734, -19.351480832063007 -13.941099265974229 M-19.351480832063007 -13.941099265974229 C-19.1388059250666 -14.052051628729476, -18.92613101807019 -14.163003991484723, -18.442139825880936 -14.415501886438705 M-19.351480832063007 -13.941099265974229 C-19.074264219004576 -14.085722995441097, -18.797047605946148 -14.230346724907966, -18.442139825880936 -14.415501886438705 M-18.442139825880936 -14.415501886438705 C-18.207080086498028 -14.519555860264093, -17.97202034711512 -14.62360983408948, -17.504272078069995 -14.830668117536344 M-18.442139825880936 -14.415501886438705 C-18.069188296513413 -14.580596465275663, -17.696236767145894 -14.745691044112624, -17.504272078069995 -14.830668117536344 M-17.504272078069995 -14.830668117536344 C-17.285060108859867 -14.911340148578901, -17.06584813964974 -14.992012179621458, -16.54173148837794 -15.184891952170695 M-17.504272078069995 -14.830668117536344 C-17.23772808433374 -14.928758771136955, -16.971184090597486 -15.026849424737565, -16.54173148837794 -15.184891952170695 M-16.54173148837794 -15.184891952170695 C-16.212496390469106 -15.282607201039742, -15.883261292560269 -15.38032244990879, -15.558473342552134 -15.476717808624466 M-16.54173148837794 -15.184891952170695 C-16.16762966507509 -15.29592340962644, -15.793527841772237 -15.406954867082183, -15.558473342552134 -15.476717808624466 M-15.558473342552134 -15.476717808624466 C-15.183971887576925 -15.562195321872174, -14.809470432601715 -15.647672835119883, -14.558538059221963 -15.704946511857043 M-15.558473342552134 -15.476717808624466 C-15.258591104952469 -15.545163972442106, -14.958708867352806 -15.613610136259746, -14.558538059221963 -15.704946511857043 M-14.558538059221963 -15.704946511857043 C-14.154075747701324 -15.770336841731629, -13.749613436180685 -15.835727171606214, -13.546034586952107 -15.868640221171937 M-14.558538059221963 -15.704946511857043 C-14.20784255069158 -15.761644241991949, -13.857147042161198 -15.818341972126854, -13.546034586952107 -15.868640221171937 M-13.546034586952107 -15.868640221171937 C-13.317595595739258 -15.890677455916158, -13.089156604526409 -15.91271469066038, -12.525123519691407 -15.967126284005381 M-13.546034586952107 -15.868640221171937 C-13.243556834163474 -15.897819886200736, -12.941079081374841 -15.926999551229533, -12.525123519691407 -15.967126284005381 M-12.525123519691407 -15.967126284005381 C-12.15432502449606 -15.979017070030809, -11.783526529300715 -15.990907856056237, -11.500000000000005 -16 M-12.525123519691407 -15.967126284005381 C-12.154999378865291 -15.97899544479874, -11.784875238039175 -15.990864605592096, -11.500000000000005 -16 M-11.500000000000005 -16 C-11.500000000000004 -16, -11.500000000000002 -16, -11.5 -16 M-11.500000000000005 -16 C-11.500000000000004 -16, -11.500000000000002 -16, -11.5 -16" stroke="#999" stroke-width="1.3" fill="none" stroke-dasharray="0 0" style=""/></g><g class="label" style="" transform="translate(0, -8.5)"><rect/><g><rect class="background" style="stroke: none"/><text y="-10.1" style=""><tspan class="text-outer-tspan row" x="0" y="-0.1em" dy="1.1em"><tspan font-style="normal" class="text-inner-tspan" font-weight="normal">开始</tspan></tspan></text></g></g></g><g class="node default" id="my-svg-flowchart-Request-1" data-look="classic" transform="translate(681.7890625, 113.5)"><rect class="basic label-container" style="" x="-86.08203125" y="-23.5" width="172.1640625" height="47"/><g class="label" style="" transform="translate(0, -8.5)"><rect/><g><rect class="background" style="stroke: none"/><text y="-10.1" style=""><tspan class="text-outer-tspan row" x="0" y="-0.1em" dy="1.1em"><tspan font-style="normal" class="text-inner-tspan" font-weight="normal">请求</tspan><tspan font-style="normal" class="text-inner-tspan" font-weight="normal"> DeepSeek</tspan></tspan></text></g></g></g><g class="node default" id="my-svg-flowchart-Check-3" data-look="classic" transform="translate(681.7890625, 266.5)"><polygon points="79.5,0 159,-79.5 79.5,-159 0,-79.5" class="label-container" transform="translate(-79, 79.5)"/><g class="label" style="" transform="translate(0, -8.5)"><rect/><g><rect class="background" style="stroke: none"/><text y="-10.1" style=""><tspan class="text-outer-tspan row" x="0" y="-0.1em" dy="1.1em"><tspan font-style="normal" class="text-inner-tspan" font-weight="normal">返回什么信号？</tspan></tspan></text></g></g></g><g class="node default" id="my-svg-flowchart-Done-5" data-look="classic" transform="translate(110, 488.5)"><rect class="basic label-container" style="" x="-102" y="-32.29999923706055" width="204" height="64.5999984741211"/><g class="label" style="" transform="translate(0, -17.299999237060547)"><rect/><g><rect class="background" style="stroke: none"/><text y="-10.1" style=""><tspan class="text-outer-tspan row" x="0" y="-0.1em" dy="1.1em"><tspan font-style="normal" class="text-inner-tspan" font-weight="normal">回到</tspan><tspan font-style="normal" class="text-inner-tspan" font-weight="normal"> Agent</tspan><tspan font-style="normal" class="text-inner-tspan" font-weight="normal"> Loop</tspan></tspan><tspan class="text-outer-tspan row" x="0" y="1em" dy="1.1em"><tspan font-style="normal" class="text-inner-tspan" font-weight="normal">执行工具或输出答案</tspan></tspan></text></g></g></g><g class="node default" id="my-svg-flowchart-L1-7" data-look="classic" transform="translate(333.5, 488.5)"><polygon points="71.5,0 143,-71.5 71.5,-143 0,-71.5" class="label-container" transform="translate(-71, 71.5)"/><g class="label" style="" transform="translate(0, -8.5)"><rect/><g><rect class="background" style="stroke: none"/><text y="-10.1" style=""><tspan class="text-outer-tspan row" x="0" y="-0.1em" dy="1.1em"><tspan font-style="normal" class="text-inner-tspan" font-weight="normal">第一次截断？</tspan></tspan></text></g></g></g><g class="node default" id="my-svg-flowchart-L2-9" data-look="classic" transform="translate(221.75, 710.5)"><rect class="basic label-container" style="" x="-118.9140625" y="-32.29999923706055" width="237.828125" height="64.5999984741211"/><g class="label" style="" transform="translate(0, -17.299999237060547)"><rect/><g><rect class="background" style="stroke: none"/><text y="-10.1" style=""><tspan class="text-outer-tspan row" x="0" y="-0.1em" dy="1.1em"><tspan font-style="normal" class="text-inner-tspan" font-weight="normal">扩大输出上限</tspan></tspan><tspan class="text-outer-tspan row" x="0" y="1em" dy="1.1em"><tspan font-style="normal" class="text-inner-tspan" font-weight="normal">用原</tspan><tspan font-style="normal" class="text-inner-tspan" font-weight="normal"> messages</tspan><tspan font-style="normal" class="text-inner-tspan" font-weight="normal"> 重新请求</tspan></tspan></text></g></g></g><g class="node default" id="my-svg-flowchart-L3-11" data-look="classic" transform="translate(470.1640625, 710.5)"><polygon points="79.5,0 159,-79.5 79.5,-159 0,-79.5" class="label-container" transform="translate(-79, 79.5)"/><g class="label" style="" transform="translate(0, -8.5)"><rect/><g><rect class="background" style="stroke: none"/><text y="-10.1" style=""><tspan class="text-outer-tspan row" x="0" y="-0.1em" dy="1.1em"><tspan font-style="normal" class="text-inner-tspan" font-weight="normal">工具调用完整？</tspan></tspan></text></g></g></g><g class="node default" id="my-svg-flowchart-Stop-13" data-look="classic" transform="translate(686.4140625, 1164.099998474121)"><rect class="basic label-container" style="" x="-62" y="-23.5" width="124" height="47"/><g class="label" style="" transform="translate(0, -8.5)"><rect/><g><rect class="background" style="stroke: none"/><text y="-10.1" style=""><tspan class="text-outer-tspan row" x="0" y="-0.1em" dy="1.1em"><tspan font-style="normal" class="text-inner-tspan" font-weight="normal">明确停止</tspan></tspan></text></g></g></g><g class="node default" id="my-svg-flowchart-L4-15" data-look="classic" transform="translate(540.4140625, 956.5)"><polygon points="95.5,0 191,-95.5 95.5,-191 0,-95.5" class="label-container" transform="translate(-95, 95.5)"/><g class="label" style="" transform="translate(0, -8.5)"><rect/><g><rect class="background" style="stroke: none"/><text y="-10.1" style=""><tspan class="text-outer-tspan row" x="0" y="-0.1em" dy="1.1em"><tspan font-style="normal" class="text-inner-tspan" font-weight="normal">续写次数还没用完？</tspan></tspan></text></g></g></g><g class="node default" id="my-svg-flowchart-L5-17" data-look="classic" transform="translate(170.0390625, 1164.099998474121)"><rect class="basic label-container" style="" x="-78" y="-41.099998474121094" width="156" height="82.19999694824219"/><g class="label" style="" transform="translate(0, -26.099998474121094)"><rect/><g><rect class="background" style="stroke: none"/><text y="-10.1" style=""><tspan class="text-outer-tspan row" x="0" y="-0.1em" dy="1.1em"><tspan font-style="normal" class="text-inner-tspan" font-weight="normal">保存文本片段</tspan></tspan><tspan class="text-outer-tspan row" x="0" y="1em" dy="1.1em"><tspan font-style="normal" class="text-inner-tspan" font-weight="normal">追加续写提示</tspan></tspan><tspan class="text-outer-tspan row" x="0" y="2.1em" dy="1.1em"><tspan font-style="normal" class="text-inner-tspan" font-weight="normal">重新请求</tspan></tspan></text></g></g></g><g class="node default" id="my-svg-flowchart-C1-21" data-look="classic" transform="translate(770.2890625, 956.5)"><polygon points="71.5,0 143,-71.5 71.5,-143 0,-71.5" class="label-container" transform="translate(-71, 71.5)"/><g class="label" style="" transform="translate(0, -8.5)"><rect/><g><rect class="background" style="stroke: none"/><text y="-10.1" style=""><tspan class="text-outer-tspan row" x="0" y="-0.1em" dy="1.1em"><tspan font-style="normal" class="text-inner-tspan" font-weight="normal">已经压缩过？</tspan></tspan></text></g></g></g><g class="node default" id="my-svg-flowchart-C2-23" data-look="classic" transform="translate(388.7890625, 1164.099998474121)"><rect class="basic label-container" style="" x="-90.75" y="-32.29999923706055" width="181.5" height="64.5999984741211"/><g class="label" style="" transform="translate(0, -17.299999237060547)"><rect/><g><rect class="background" style="stroke: none"/><text y="-10.1" style=""><tspan class="text-outer-tspan row" x="0" y="-0.1em" dy="1.1em"><tspan font-style="normal" class="text-inner-tspan" font-weight="normal">reactive</tspan><tspan font-style="normal" class="text-inner-tspan" font-weight="normal"> compact</tspan></tspan><tspan class="text-outer-tspan row" x="0" y="1em" dy="1.1em"><tspan font-style="normal" class="text-inner-tspan" font-weight="normal">重新请求</tspan></tspan></text></g></g></g><g class="node default" id="my-svg-flowchart-R1-27" data-look="classic" transform="translate(1001.7890625, 956.5)"><polygon points="95.5,0 191,-95.5 95.5,-191 0,-95.5" class="label-container" transform="translate(-95, 95.5)"/><g class="label" style="" transform="translate(0, -8.5)"><rect/><g><rect class="background" style="stroke: none"/><text y="-10.1" style=""><tspan class="text-outer-tspan row" x="0" y="-0.1em" dy="1.1em"><tspan font-style="normal" class="text-inner-tspan" font-weight="normal">重试次数还没用完？</tspan></tspan></text></g></g></g><g class="node default" id="my-svg-flowchart-R2-29" data-look="classic" transform="translate(1067.0390625, 1164.099998474121)"><rect class="basic label-container" style="" x="-94" y="-41.099998474121094" width="188" height="82.19999694824219"/><g class="label" style="" transform="translate(0, -26.099998474121094)"><rect/><g><rect class="background" style="stroke: none"/><text y="-10.1" style=""><tspan class="text-outer-tspan row" x="0" y="-0.1em" dy="1.1em"><tspan font-style="normal" class="text-inner-tspan" font-weight="normal">等待</tspan><tspan font-style="normal" class="text-inner-tspan" font-weight="normal"> +</tspan><tspan font-style="normal" class="text-inner-tspan" font-weight="normal"> 抖动</tspan></tspan><tspan class="text-outer-tspan row" x="0" y="1em" dy="1.1em"><tspan font-style="normal" class="text-inner-tspan" font-weight="normal">必要时切备用模型</tspan></tspan><tspan class="text-outer-tspan row" x="0" y="2.1em" dy="1.1em"><tspan font-style="normal" class="text-inner-tspan" font-weight="normal">重新请求</tspan></tspan></text></g></g></g></g></g></g><defs><filter id="my-svg-drop-shadow" height="130%" width="130%"><feDropShadow dx="4" dy="4" stdDeviation="0" flood-opacity="0.06" flood-color="#000000"/></filter></defs><defs><filter id="my-svg-drop-shadow-small" height="150%" width="150%"><feDropShadow dx="2" dy="2" stdDeviation="0" flood-opacity="0.06" flood-color="#000000"/></filter></defs><linearGradient id="my-svg-gradient" gradientUnits="objectBoundingBox" x1="0%" y1="0%" x2="100%" y2="0%"><stop offset="0%" stop-color="hsl(0, 0%, 83.3333333333%)" stop-opacity="1"/><stop offset="100%" stop-color="hsl(0, 0%, 88.9215686275%)" stop-opacity="1"/></linearGradient></svg>