<svg width="1174.2890625" height="1213.199951171875" id="my-svg" xmlns="http://www.w3.org/2000/svg" xmlns:xlink="http://www.w3.org/1999/xlink" class="flowchart" style="max-width: 1174.29px; background-color: white;" viewBox="0 0 1174.2890625 1213.199951171875" role="graphics-document document" aria-roledescription="flowchart-v2"><style>#my-svg{font-family:"trebuchet ms",verdana,arial,sans-serif;font-size:16px;fill:#000000;}@keyframes edge-animation-frame{from{stroke-dashoffset:0;}}@keyframes dash{to{stroke-dashoffset:0;}}#my-svg .edge-animation-slow{stroke-dasharray:9,5!important;stroke-dashoffset:900;animation:dash 50s linear infinite;stroke-linecap:round;}#my-svg .edge-animation-fast{stroke-dasharray:9,5!important;stroke-dashoffset:900;animation:dash 20s linear infinite;stroke-linecap:round;}#my-svg .error-icon{fill:#552222;}#my-svg .error-text{fill:#552222;stroke:#552222;}#my-svg .edge-thickness-normal{stroke-width:1px;}#my-svg .edge-thickness-thick{stroke-width:3.5px;}#my-svg .edge-pattern-solid{stroke-dasharray:0;}#my-svg .edge-thickness-invisible{stroke-width:0;fill:none;}#my-svg .edge-pattern-dashed{stroke-dasharray:3;}#my-svg .edge-pattern-dotted{stroke-dasharray:2;}#my-svg .marker{fill:#666;stroke:#666;}#my-svg .marker.cross{stroke:#666;}#my-svg svg{font-family:"trebuchet ms",verdana,arial,sans-serif;font-size:16px;}#my-svg p{margin:0;}#my-svg .label{font-family:"trebuchet ms",verdana,arial,sans-serif;color:#000000;}#my-svg .cluster-label text{fill:#333;}#my-svg .cluster-label span{color:#333;}#my-svg .cluster-label span p{background-color:transparent;}#my-svg .label text,#my-svg span{fill:#000000;color:#000000;}#my-svg .node rect,#my-svg .node circle,#my-svg .node ellipse,#my-svg .node polygon,#my-svg .node path{fill:#eee;stroke:#999;stroke-width:1px;}#my-svg .rough-node .label text,#my-svg .node .label text,#my-svg .image-shape .label,#my-svg .icon-shape .label{text-anchor:middle;}#my-svg .node .katex path{fill:#000;stroke:#000;stroke-width:1px;}#my-svg .rough-node .label,#my-svg .node .label,#my-svg .image-shape .label,#my-svg .icon-shape .label{text-align:center;}#my-svg .node.clickable{cursor:pointer;}#my-svg .root .anchor path{fill:#666!important;stroke-width:0;stroke:#666;}#my-svg .arrowheadPath{fill:#333333;}#my-svg .edgePath .path{stroke:#666;stroke-width:1px;}#my-svg .flowchart-link{stroke:#666;fill:none;}#my-svg .edgeLabel{background-color:white;text-align:center;}#my-svg .edgeLabel p{background-color:white;}#my-svg .edgeLabel rect{opacity:0.5;background-color:white;fill:white;}#my-svg .labelBkg{background-color:rgba(255, 255, 255, 0.5);}#my-svg .cluster rect{fill:hsl(0, 0%, 98.9215686275%);stroke:#707070;stroke-width:1px;}#my-svg .cluster text{fill:#333;}#my-svg .cluster span{color:#333;}#my-svg div.mermaidTooltip{position:absolute;text-align:center;max-width:200px;padding:2px;font-family:"trebuchet ms",verdana,arial,sans-serif;font-size:12px;background:hsl(-160, 0%, 93.3333333333%);border:1px solid #707070;border-radius:2px;pointer-events:none;z-index:100;}#my-svg .flowchartTitleText{text-anchor:middle;font-size:18px;fill:#000000;}#my-svg rect.text{fill:none;stroke-width:0;}#my-svg .icon-shape,#my-svg .image-shape{background-color:white;text-align:center;}#my-svg .icon-shape p,#my-svg .image-shape p{background-color:white;padding:2px;}#my-svg .icon-shape .label rect,#my-svg .image-shape .label rect{opacity:0.5;background-color:white;fill:white;}#my-svg .label-icon{display:inline-block;height:1em;overflow:visible;vertical-align:-0.125em;}#my-svg .node .label-icon path{fill:currentColor;stroke:revert;stroke-width:revert;}#my-svg .node .neo-node{stroke:#999;}#my-svg [data-look="neo"].node rect,#my-svg [data-look="neo"].cluster rect,#my-svg [data-look="neo"].node polygon{stroke:url(#my-svg-gradient);filter:drop-shadow( 1px 2px 2px rgba(185,185,185,1));}#my-svg [data-look="neo"].swimlane.cluster rect{filter:none;}#my-svg [data-look="neo"].node path{stroke:url(#my-svg-gradient);stroke-width:1px;}#my-svg [data-look="neo"].node .outer-path{filter:drop-shadow( 1px 2px 2px rgba(185,185,185,1));}#my-svg [data-look="neo"].node .neo-line path{stroke:#999;filter:none;}#my-svg [data-look="neo"].node circle{stroke:url(#my-svg-gradient);filter:drop-shadow( 1px 2px 2px rgba(185,185,185,1));}#my-svg [data-look="neo"].node circle .state-start{fill:#000000;}#my-svg [data-look="neo"].icon-shape .icon{fill:url(#my-svg-gradient);filter:drop-shadow( 1px 2px 2px rgba(185,185,185,1));}#my-svg [data-look="neo"].icon-shape .icon-neo path{stroke:url(#my-svg-gradient);filter:drop-shadow( 1px 2px 2px rgba(185,185,185,1));}#my-svg :root{--mermaid-font-family:"trebuchet ms",verdana,arial,sans-serif;}</style><g><marker id="my-svg_flowchart-v2-pointEnd" class="marker flowchart-v2" viewBox="0 0 10 10" refX="5" refY="5" markerUnits="userSpaceOnUse" markerWidth="8" markerHeight="8" orient="auto"><path d="M 0 0 L 10 5 L 0 10 z" class="arrowMarkerPath" style="stroke-width: 1; stroke-dasharray: 1, 0;"/></marker><marker id="my-svg_flowchart-v2-pointStart" class="marker flowchart-v2" viewBox="0 0 10 10" refX="4.5" refY="5" markerUnits="userSpaceOnUse" markerWidth="8" markerHeight="8" orient="auto"><path d="M 0 5 L 10 10 L 10 0 z" class="arrowMarkerPath" style="stroke-width: 1; stroke-dasharray: 1, 0;"/></marker><marker id="my-svg_flowchart-v2-pointEnd-margin" class="marker flowchart-v2" viewBox="0 0 11.5 14" refX="11.5" refY="7" markerUnits="userSpaceOnUse" markerWidth="10.5" markerHeight="14" orient="auto"><path d="M 0 0 L 11.5 7 L 0 14 z" class="arrowMarkerPath" style="stroke-width: 0; stroke-dasharray: 1, 0;"/></marker><marker id="my-svg_flowchart-v2-pointStart-margin" class="marker flowchart-v2" viewBox="0 0 11.5 14" refX="1" refY="7" markerUnits="userSpaceOnUse" markerWidth="11.5" markerHeight="14" orient="auto"><polygon points="0,7 11.5,14 11.5,0" class="arrowMarkerPath" style="stroke-width: 0; stroke-dasharray: 1, 0;"/></marker><marker id="my-svg_flowchart-v2-circleEnd" class="marker flowchart-v2" viewBox="0 0 10 10" refX="11" refY="5" markerUnits="userSpaceOnUse" markerWidth="11" markerHeight="11" orient="auto"><circle cx="5" cy="5" r="5" class="arrowMarkerPath" style="stroke-width: 1; stroke-dasharray: 1, 0;"/></marker><marker id="my-svg_flowchart-v2-circleStart" class="marker flowchart-v2" viewBox="0 0 10 10" refX="-1" refY="5" markerUnits="userSpaceOnUse" markerWidth="11" markerHeight="11" orient="auto"><circle cx="5" cy="5" r="5" class="arrowMarkerPath" style="stroke-width: 1; stroke-dasharray: 1, 0;"/></marker><marker id="my-svg_flowchart-v2-circleEnd-margin" class="marker flowchart-v2" viewBox="0 0 10 10" refY="5" refX="12.25" markerUnits="userSpaceOnUse" markerWidth="14" markerHeight="14" orient="auto"><circle cx="5" cy="5" r="5" class="arrowMarkerPath" style="stroke-width: 0; stroke-dasharray: 1, 0;"/></marker><marker id="my-svg_flowchart-v2-circleStart-margin" class="marker flowchart-v2" viewBox="0 0 10 10" refX="-2" refY="5" markerUnits="userSpaceOnUse" markerWidth="14" markerHeight="14" orient="auto"><circle cx="5" cy="5" r="5" class="arrowMarkerPath" style="stroke-width: 0; stroke-dasharray: 1, 0;"/></marker><marker id="my-svg_flowchart-v2-crossEnd" class="marker cross flowchart-v2" viewBox="0 0 11 11" refX="12" refY="5.2" markerUnits="userSpaceOnUse" markerWidth="11" markerHeight="11" orient="auto"><path d="M 1,1 l 9,9 M 10,1 l -9,9" class="arrowMarkerPath" style="stroke-width: 2; stroke-dasharray: 1, 0;"/></marker><marker id="my-svg_flowchart-v2-crossStart" class="marker cross flowchart-v2" viewBox="0 0 11 11" refX="-1" refY="5.2" markerUnits="userSpaceOnUse" markerWidth="11" markerHeight="11" orient="auto"><path d="M 1,1 l 9,9 M 10,1 l -9,9" class="arrowMarkerPath" style="stroke-width: 2; stroke-dasharray: 1, 0;"/></marker><marker id="my-svg_flowchart-v2-crossEnd-margin" class="marker cross flowchart-v2" viewBox="0 0 15 15" refX="17.7" refY="7.5" markerUnits="userSpaceOnUse" markerWidth="12" markerHeight="12" orient="auto"><path d="M 1,1 L 14,14 M 1,14 L 14,1" class="arrowMarkerPath" style="stroke-width: 2.5;"/></marker><marker id="my-svg_flowchart-v2-crossStart-margin" class="marker cross flowchart-v2" viewBox="0 0 15 15" refX="-3.5" refY="7.5" markerUnits="userSpaceOnUse" markerWidth="12" markerHeight="12" orient="auto"><path d="M 1,1 L 14,14 M 1,14 L 14,1" class="arrowMarkerPath" style="stroke-width: 2.5; stroke-dasharray: 1, 0;"/></marker><g class="root"><g class="clusters"/><g class="edgePaths"><path d="M682.289,40.5L682.206,44.583C682.122,48.667,681.956,56.833,681.872,64.417C681.789,72,681.789,79,681.789,82.5L681.789,86" id="my-svg-L_Start_Request_0" class="edge-thickness-normal edge-pattern-solid edge-thickness-normal edge-pattern-solid flowchart-link" style=";" data-edge="true" data-et="edge" data-id="L_Start_Request_0" data-points="W3sieCI6NjgyLjI4OTA2MjUsInkiOjQwLjV9LHsieCI6NjgxLjc4OTA2MjUsInkiOjY1fSx7IngiOjY4MS43ODkwNjI1LCJ5Ijo5MH1d" data-look="classic" marker-end="url(#my-svg_flowchart-v2-pointEnd)"/><path d="M681.789,137L681.789,141.167C681.789,145.333,681.789,153.667,681.789,161.333C681.789,169,681.789,176,681.789,179.5L681.789,183" id="my-svg-L_Request_Check_0" class="edge-thickness-normal edge-pattern-solid edge-thickness-normal edge-pattern-solid flowchart-link" style=";" data-edge="true" data-et="edge" data-id="L_Request_Check_0" data-points="W3sieCI6NjgxLjc4OTA2MjUsInkiOjEzN30seyJ4Ijo2ODEuNzg5MDYyNSwieSI6MTYyfSx7IngiOjY4MS43ODkwNjI1LCJ5IjoxODd9XQ==" data-look="classic" marker-end="url(#my-svg_flowchart-v2-pointEnd)"/><path d="M615.601,279.812L531.334,296.76C447.067,313.708,278.534,347.604,194.267,376.335C110,405.067,110,428.633,110,440.417L110,452.2" id="my-svg-L_Check_Done_0" class="edge-thickness-normal edge-pattern-solid edge-thickness-normal edge-pattern-solid flowchart-link" style=";" data-edge="true" data-et="edge" data-id="L_Check_Done_0" data-points="W3sieCI6NjE1LjYwMTAxMDA4MjE1ODgsInkiOjI3OS44MTE5NDc1ODIxNTg4NH0seyJ4IjoxMTAsInkiOjM4MS41fSx7IngiOjExMCwieSI6NDU2LjIwMDAwMDc2MjkzOTQ1fV0=" data-look="classic" marker-end="url(#my-svg_flowchart-v2-pointEnd)"/><path d="M622.023,286.234L573.936,302.112C525.849,317.989,429.674,349.745,381.587,370.872C333.5,392,333.5,402.5,333.5,407.75L333.5,413" id="my-svg-L_Check_L1_0" class="edge-thickness-normal edge-pattern-solid edge-thickness-normal edge-pattern-solid flowchart-link" style=";" data-edge="true" data-et="edge" data-id="L_Check_L1_0" data-points="W3sieCI6NjIyLjAyMjk2MjQzNDIzMzgsInkiOjI4Ni4yMzM4OTk5MzQyMzM4fSx7IngiOjMzMy41LCJ5IjozODEuNX0seyJ4IjozMzMuNSwieSI6NDE3fV0=" data-look="classic" marker-end="url(#my-svg_flowchart-v2-pointEnd)"/><path d="M296.974,523.474L284.436,535.478C271.899,547.482,246.825,571.491,234.287,596.612C221.75,621.733,221.75,647.967,221.75,661.083L221.75,674.2" id="my-svg-L_L1_L2_0" class="edge-thickness-normal edge-pattern-solid edge-thickness-normal edge-pattern-solid flowchart-link" style=";" data-edge="true" data-et="edge" data-id="L_L1_L2_0" data-points="W3sieCI6Mjk2Ljk3MzcxNDI4NTcxNDI3LCJ5Ijo1MjMuNDczNzE0Mjg1NzE0M30seyJ4IjoyMjEuNzUsInkiOjU5NS41fSx7IngiOjIyMS43NSwieSI6Njc4LjIwMDAwMDc2MjkzOTV9XQ==" data-look="classic" marker-end="url(#my-svg_flowchart-v2-pointEnd)"/><path d="M373.602,519.898L389.696,532.498C405.79,545.098,437.977,570.299,454.07,588.15C470.164,606,470.164,616.5,470.164,621.75L470.164,627" id="my-svg-L_L1_L3_0" class="edge-thickness-normal edge-pattern-solid edge-thickness-normal edge-pattern-solid flowchart-link" style=";" data-edge="true" data-et="edge" data-id="L_L1_L3_0" data-points="W3sieCI6MzczLjYwMjI2MzYxODU4MzUsInkiOjUxOS44OTc3MzYzODE0MTY1fSx7IngiOjQ3MC4xNjQwNjI1LCJ5Ijo1OTUuNX0seyJ4Ijo0NzAuMTY0MDYyNSwieSI6NjMxfV0=" data-look="classic" marker-end="url(#my-svg_flowchart-v2-pointEnd)"/><path d="M432.339,752.175L421.248,764.396C410.156,776.617,387.972,801.058,376.881,835.113C365.789,869.167,365.789,912.833,365.789,956.5C365.789,1000.167,365.789,1043.833,408.245,1075.81C450.701,1107.786,535.612,1128.072,578.068,1138.215L620.524,1148.358" id="my-svg-L_L3_Stop_0" class="edge-thickness-normal edge-pattern-solid edge-thickness-normal edge-pattern-solid flowchart-link" style=";" data-edge="true" data-et="edge" data-id="L_L3_Stop_0" data-points="W3sieCI6NDMyLjMzOTI3NjE3NTIxMzcsInkiOjc1Mi4xNzUyMTM2NzUyMTM2fSx7IngiOjM2NS43ODkwNjI1LCJ5Ijo4MjUuNX0seyJ4IjozNjUuNzg5MDYyNSwieSI6OTU2LjV9LHsieCI6MzY1Ljc4OTA2MjUsInkiOjEwODcuNX0seyJ4Ijo2MjQuNDE0MDYyNSwieSI6MTE0OS4yODc2NzkwODEwNzQ3fV0=" data-look="classic" marker-end="url(#my-svg_flowchart-v2-pointEnd)"/><path d="M500.312,759.852L506.996,770.794C513.679,781.735,527.047,803.617,533.73,819.809C540.414,836,540.414,846.5,540.414,851.75L540.414,857" id="my-svg-L_L3_L4_0" class="edge-thickness-normal edge-pattern-solid edge-thickness-normal edge-pattern-solid flowchart-link" style=";" data-edge="true" data-et="edge" data-id="L_L3_L4_0" data-points="W3sieCI6NTAwLjMxMTgzNTc3OTM1MjI0LCJ5Ijo3NTkuODUyMjI2NzIwNjQ3OH0seyJ4Ijo1NDAuNDE0MDYyNSwieSI6ODI1LjV9LHsieCI6NTQwLjQxNDA2MjUsInkiOjg2MX1d" data-look="classic" marker-end="url(#my-svg_flowchart-v2-pointEnd)"/><path d="M501.683,1013.269L493.243,1025.641C484.802,1038.013,467.92,1062.756,426.29,1084.176C384.659,1105.595,318.279,1123.69,285.088,1132.738L251.898,1141.785" id="my-svg-L_L4_L5_0" class="edge-thickness-normal edge-pattern-solid edge-thickness-normal edge-pattern-solid flowchart-link" style=";" data-edge="true" data-et="edge" data-id="L_L4_L5_0" data-points="W3sieCI6NTAxLjY4MzIwNjAwNTM4ODU3LCJ5IjoxMDEzLjI2OTE0MzUwNTM4ODZ9LHsieCI6NDUxLjAzOTA2MjUsInkiOjEwODcuNX0seyJ4IjoyNDguMDM5MDYyNSwieSI6MTE0Mi44MzczNjU0NDU3MTczfV0=" data-look="classic" marker-end="url(#my-svg_flowchart-v2-pointEnd)"/><path d="M578.919,1013.495L587.251,1025.83C595.584,1038.164,612.249,1062.832,626.825,1083.483C641.4,1104.134,653.886,1120.767,660.129,1129.084L666.372,1137.401" id="my-svg-L_L4_Stop_0" class="edge-thickness-normal edge-pattern-solid edge-thickness-normal edge-pattern-solid flowchart-link" style=";" data-edge="true" data-et="edge" data-id="L_L4_Stop_0" data-points="W3sieCI6NTc4LjkxODYxODMwODY1NiwieSI6MTAxMy40OTU0NDQxOTEzNDR9LHsieCI6NjI4LjkxNDA2MjUsInkiOjEwODcuNX0seyJ4Ijo2NjguNzczNzIyNzIzMDE1MywieSI6MTE0MC41OTk5OTg0NzQxMjF9XQ==" data-look="classic" marker-end="url(#my-svg_flowchart-v2-pointEnd)"/><path d="M716.363,311.426L725.35,323.105C734.338,334.784,752.314,358.142,761.301,387.654C770.289,417.167,770.289,452.833,770.289,488.5C770.289,524.167,770.289,559.833,770.289,596.833C770.289,633.833,770.289,672.167,770.289,710.5C770.289,748.833,770.289,787.167,770.289,815.583C770.289,844,770.289,862.5,770.289,871.75L770.289,881" id="my-svg-L_Check_C1_0" class="edge-thickness-normal edge-pattern-solid edge-thickness-normal edge-pattern-solid flowchart-link" style=";" data-edge="true" data-et="edge" data-id="L_Check_C1_0" data-points="W3sieCI6NzE2LjM2Mjc3MjU3MzcxMDEsInkiOjMxMS40MjYyODk5MjYyODk5NH0seyJ4Ijo3NzAuMjg5MDYyNSwieSI6MzgxLjV9LHsieCI6NzcwLjI4OTA2MjUsInkiOjQ4OC41fSx7IngiOjc3MC4yODkwNjI1LCJ5Ijo1OTUuNX0seyJ4Ijo3NzAuMjg5MDYyNSwieSI6NzEwLjV9LHsieCI6NzcwLjI4OTA2MjUsInkiOjgyNS41fSx7IngiOjc3MC4yODkwNjI1LCJ5Ijo4ODV9XQ==" data-look="classic" marker-end="url(#my-svg_flowchart-v2-pointEnd)"/><path d="M739.097,996.808L727.4,1011.923C715.703,1027.038,692.308,1057.269,649.692,1080.84C607.075,1104.41,545.236,1121.32,514.317,1129.775L483.397,1138.229" id="my-svg-L_C1_C2_0" class="edge-thickness-normal edge-pattern-solid edge-thickness-normal edge-pattern-solid flowchart-link" style=";" data-edge="true" data-et="edge" data-id="L_C1_C2_0" data-points="W3sieCI6NzM5LjA5Njc1NDgwNzY5MjMsInkiOjk5Ni44MDc2OTIzMDc2OTIzfSx7IngiOjY2OC45MTQwNjI1LCJ5IjoxMDg3LjV9LHsieCI6NDc5LjUzOTA2MjUsInkiOjExMzkuMjg0NDcwMTg2NjU0N31d" data-look="classic" marker-end="url(#my-svg_flowchart-v2-pointEnd)"/><path d="M799.117,999.172L809.062,1013.893C819.008,1028.615,838.898,1058.057,829.538,1081.358C820.177,1104.659,781.564,1121.817,762.258,1130.396L742.952,1138.976" id="my-svg-L_C1_Stop_0" class="edge-thickness-normal edge-pattern-solid edge-thickness-normal edge-pattern-solid flowchart-link" style=";" data-edge="true" data-et="edge" data-id="L_C1_Stop_0" data-points="W3sieCI6Nzk5LjExNzA4MDcyMzIzNDYsInkiOjk5OS4xNzE5ODE3NzY3NjU0fSx7IngiOjg1OC43ODkwNjI1LCJ5IjoxMDg3LjV9LHsieCI6NzM5LjI5NjczMzI2NjIyMTMsInkiOjExNDAuNTk5OTk4NDc0MTIxfV0=" data-look="classic" marker-end="url(#my-svg_flowchart-v2-pointEnd)"/><path d="M740.272,287.517L783.858,303.181C827.444,318.845,914.617,350.172,958.203,383.67C1001.789,417.167,1001.789,452.833,1001.789,488.5C1001.789,524.167,1001.789,559.833,1001.789,596.833C1001.789,633.833,1001.789,672.167,1001.789,710.5C1001.789,748.833,1001.789,787.167,1001.789,811.583C1001.789,836,1001.789,846.5,1001.789,851.75L1001.789,857" id="my-svg-L_Check_R1_0" class="edge-thickness-normal edge-pattern-solid edge-thickness-normal edge-pattern-solid flowchart-link" style=";" data-edge="true" data-et="edge" data-id="L_Check_R1_0" data-points="W3sieCI6NzQwLjI3MTgyMTEyMDY4OTcsInkiOjI4Ny41MTcyNDEzNzkzMTAzNX0seyJ4IjoxMDAxLjc4OTA2MjUsInkiOjM4MS41fSx7IngiOjEwMDEuNzg5MDYyNSwieSI6NDg4LjV9LHsieCI6MTAwMS43ODkwNjI1LCJ5Ijo1OTUuNX0seyJ4IjoxMDAxLjc4OTA2MjUsInkiOjcxMC41fSx7IngiOjEwMDEuNzg5MDYyNSwieSI6ODI1LjV9LHsieCI6MTAwMS43ODkwNjI1LCJ5Ijo4NjF9XQ==" data-look="classic" marker-end="url(#my-svg_flowchart-v2-pointEnd)"/><path d="M989.14,1039.351L987.915,1047.376C986.69,1055.401,984.239,1071.45,989.103,1084.946C993.967,1098.442,1006.145,1109.384,1012.234,1114.855L1018.323,1120.327" id="my-svg-L_R1_R2_0" class="edge-thickness-normal edge-pattern-solid edge-thickness-normal edge-pattern-solid flowchart-link" style=";" data-edge="true" data-et="edge" data-id="L_R1_R2_0" data-points="W3sieCI6OTg5LjE0MDA1NTg3NzQ4MzQsInkiOjEwMzkuMzUwOTkzMzc3NDgzNX0seyJ4Ijo5ODEuNzg5MDYyNSwieSI6MTA4Ny41fSx7IngiOjEwMjEuMjk3ODc1Mjk3NDYzLCJ5IjoxMTIzfV0=" data-look="classic" marker-end="url(#my-svg_flowchart-v2-pointEnd)"/><path d="M1028.266,1025.523L1032.228,1035.853C1036.19,1046.182,1044.115,1066.841,998.125,1087.636C952.136,1108.43,852.232,1129.36,802.281,1139.825L752.329,1150.291" id="my-svg-L_R1_Stop_0" class="edge-thickness-normal edge-pattern-solid edge-thickness-normal edge-pattern-solid flowchart-link" style=";" data-edge="true" data-et="edge" data-id="L_R1_Stop_0" data-points="W3sieCI6MTAyOC4yNjU2MTQyMjQxMzc4LCJ5IjoxMDI1LjUyMzQ0ODI3NTg2MjJ9LHsieCI6MTA1Mi4wMzkwNjI1LCJ5IjoxMDg3LjV9LHsieCI6NzQ4LjQxNDA2MjUsInkiOjExNTEuMTEwNzMzNzc1NjAzNH1d" data-look="classic" marker-end="url(#my-svg_flowchart-v2-pointEnd)"/><path d="M745.122,282.667L809.65,299.139C874.178,315.611,1003.233,348.556,1067.761,382.861C1132.289,417.167,1132.289,452.833,1132.289,488.5C1132.289,524.167,1132.289,559.833,1132.289,596.833C1132.289,633.833,1132.289,672.167,1132.289,710.5C1132.289,748.833,1132.289,787.167,1132.289,828.167C1132.289,869.167,1132.289,912.833,1132.289,956.5C1132.289,1000.167,1132.289,1043.833,1068.967,1076.545C1005.645,1109.257,879.001,1131.014,815.678,1141.893L752.356,1152.771" id="my-svg-L_Check_Stop_0" class="edge-thickness-normal edge-pattern-solid edge-thickness-normal edge-pattern-solid flowchart-link" style=";" data-edge="true" data-et="edge" data-id="L_Check_Stop_0" data-points="W3sieCI6NzQ1LjEyMTk1Mzc0NjY4NDMsInkiOjI4Mi42NjcxMDg3NTMzMTU2M30seyJ4IjoxMTMyLjI4OTA2MjUsInkiOjM4MS41fSx7IngiOjExMzIuMjg5MDYyNSwieSI6NDg4LjV9LHsieCI6MTEzMi4yODkwNjI1LCJ5Ijo1OTUuNX0seyJ4IjoxMTMyLjI4OTA2MjUsInkiOjcxMC41fSx7IngiOjExMzIuMjg5MDYyNSwieSI6ODI1LjV9LHsieCI6MTEzMi4yODkwNjI1LCJ5Ijo5NTYuNX0seyJ4IjoxMTMyLjI4OTA2MjUsInkiOjEwODcuNX0seyJ4Ijo3NDguNDE0MDYyNSwieSI6MTE1My40NDg1ODI5MzA3NjE0fV0=" data-look="classic" marker-end="url(#my-svg_flowchart-v2-pointEnd)"/></g><g class="edgeLabels"><g class="edgeLabel"><g class="label" data-id="L_Start_Request_0" transform="translate(0, 0)"><text y="-10.1" text-anchor="middle"><tspan class="text-outer-tspan row" x="0" y="-0.1em" dy="1.1em" text-anchor="middle"/></text></g></g><g><rect class="background" style="stroke: none"/></g><g class="edgeLabel"><g class="label" data-id="L_Request_Check_0" transform="translate(0, 0)"><text y="-10.1" text-anchor="middle"><tspan class="text-outer-tspan row" x="0" y="-0.1em" dy="1.1em" text-anchor="middle"/></text></g></g><g><rect class="background" style="stroke: none"/></g><g class="edgeLabel" transform="translate(110, 381.5)"><g class="label" data-id="L_Check_Done_0" transform="translate(-0.046875, -10.5)"><g><rect class="background" style="" x="-52.6875" y="0" width="105.46875" height="21"/><text y="-10.1" text-anchor="middle" style=""><tspan class="text-outer-tspan row" x="0" y="-0.1em" dy="1.1em" text-anchor="middle"><tspan font-style="normal" class="text-inner-tspan" font-weight="normal">完整</tspan><tspan font-style="normal" class="text-inner-tspan" font-weight="normal"> message</tspan></tspan></text></g></g></g><g class="edgeLabel" transform="translate(333.5, 381.5)"><g class="label" data-id="L_Check_L1_0" transform="translate(0, -10.5)"><g><rect class="background" style="" x="-34" y="0" width="68" height="21"/><text y="-10.1" text-anchor="middle" style=""><tspan class="text-outer-tspan row" x="0" y="-0.1em" dy="1.1em" text-anchor="middle"><tspan font-style="normal" class="text-inner-tspan" font-weight="normal">输出截断</tspan></tspan></text></g></g></g><g class="edgeLabel" transform="translate(221.75, 595.5)"><g class="label" data-id="L_L1_L2_0" transform="translate(0, -10.5)"><g><rect class="background" style="" x="-10" y="0" width="20" height="21"/><text y="-10.1" text-anchor="middle" style=""><tspan class="text-outer-tspan row" x="0" y="-0.1em" dy="1.1em" text-anchor="middle"><tspan font-style="normal" class="text-inner-tspan" font-weight="normal">是</tspan></tspan></text></g></g></g><g class="edgeLabel" transform="translate(470.1640625, 595.5)"><g class="label" data-id="L_L1_L3_0" transform="translate(0, -10.5)"><g><rect class="background" style="" x="-10" y="0" width="20" height="21"/><text y="-10.1" text-anchor="middle" style=""><tspan class="text-outer-tspan row" x="0" y="-0.1em" dy="1.1em" text-anchor="middle"><tspan font-style="normal" class="text-inner-tspan" font-weight="normal">否</tspan></tspan></text></g></g></g><g class="edgeLabel" transform="translate(365.7890625, 956.5)"><g class="label" data-id="L_L3_Stop_0" transform="translate(0, -10.5)"><g><rect class="background" style="" x="-10" y="0" width="20" height="21"/><text y="-10.1" text-anchor="middle" style=""><tspan class="text-outer-tspan row" x="0" y="-0.1em" dy="1.1em" text-anchor="middle"><tspan font-style="normal" class="text-inner-tspan" font-weight="normal">否</tspan></tspan></text></g></g></g><g class="edgeLabel" transform="translate(540.4140625, 825.5)"><g class="label" data-id="L_L3_L4_0" transform="translate(0, -10.5)"><g><rect class="background" style="" x="-10" y="0" width="20" height="21"/><text y="-10.1" text-anchor="middle" style=""><tspan class="text-outer-tspan row" x="0" y="-0.1em" dy="1.1em" text-anchor="middle"><tspan font-style="normal" class="text-inner-tspan" font-weight="normal">是</tspan></tspan></text></g></g></g><g class="edgeLabel" transform="translate(392.88794, 1103.35187)"><g class="label" data-id="L_L4_L5_0" transform="translate(0, -10.5)"><g><rect class="background" style="" x="-10" y="0" width="20" height="21"/><text y="-10.1" text-anchor="middle" style=""><tspan class="text-outer-tspan row" x="0" y="-0.1em" dy="1.1em" text-anchor="middle"><tspan font-style="normal" class="text-inner-tspan" font-weight="normal">是</tspan></tspan></text></g></g></g><g class="edgeLabel" transform="translate(622.50048, 1078.00645)"><g class="label" data-id="L_L4_Stop_0" transform="translate(0, -10.5)"><g><rect class="background" style="" x="-10" y="0" width="20" height="21"/><text y="-10.1" text-anchor="middle" style=""><tspan class="text-outer-tspan row" x="0" y="-0.1em" dy="1.1em" text-anchor="middle"><tspan font-style="normal" class="text-inner-tspan" font-weight="normal">否</tspan></tspan></text></g></g></g><g class="edgeLabel" transform="translate(770.2890625, 595.5)"><g class="label" data-id="L_Check_C1_0" transform="translate(0, -10.5)"><g><rect class="background" style="" x="-42" y="0" width="84" height="21"/><text y="-10.1" text-anchor="middle" style=""><tspan class="text-outer-tspan row" x="0" y="-0.1em" dy="1.1em" text-anchor="middle"><tspan font-style="normal" class="text-inner-tspan" font-weight="normal">上下文超限</tspan></tspan></text></g></g></g><g class="edgeLabel" transform="translate(629.53429, 1098.26837)"><g class="label" data-id="L_C1_C2_0" transform="translate(0, -10.5)"><g><rect class="background" style="" x="-10" y="0" width="20" height="21"/><text y="-10.1" text-anchor="middle" style=""><tspan class="text-outer-tspan row" x="0" y="-0.1em" dy="1.1em" text-anchor="middle"><tspan font-style="normal" class="text-inner-tspan" font-weight="normal">否</tspan></tspan></text></g></g></g><g class="edgeLabel" transform="translate(847.74813, 1092.40637)"><g class="label" data-id="L_C1_Stop_0" transform="translate(0, -10.5)"><g><rect class="background" style="" x="-10" y="0" width="20" height="21"/><text y="-10.1" text-anchor="middle" style=""><tspan class="text-outer-tspan row" x="0" y="-0.1em" dy="1.1em" text-anchor="middle"><tspan font-style="normal" class="text-inner-tspan" font-weight="normal">是</tspan></tspan></text></g></g></g><g class="edgeLabel" transform="translate(1001.7890625, 595.5)"><g class="label" data-id="L_Check_R1_0" transform="translate(-0.05078125, -10.5)"><g><rect class="background" style="" x="-35.3671875" y="0" width="70.8359375" height="21"/><text y="-10.1" text-anchor="middle" style=""><tspan class="text-outer-tspan row" x="0" y="-0.1em" dy="1.1em" text-anchor="middle"><tspan font-style="normal" class="text-inner-tspan" font-weight="normal">429</tspan><tspan font-style="normal" class="text-inner-tspan" font-weight="normal"> /</tspan><tspan font-style="normal" class="text-inner-tspan" font-weight="normal"> 529</tspan></tspan></text></g></g></g><g class="edgeLabel" transform="translate(983.42848, 1088.97307)"><g class="label" data-id="L_R1_R2_0" transform="translate(0, -10.5)"><g><rect class="background" style="" x="-10" y="0" width="20" height="21"/><text y="-10.1" text-anchor="middle" style=""><tspan class="text-outer-tspan row" x="0" y="-0.1em" dy="1.1em" text-anchor="middle"><tspan font-style="normal" class="text-inner-tspan" font-weight="normal">是</tspan></tspan></text></g></g></g><g class="edgeLabel" transform="translate(1052.0390625, 1087.5)"><g class="label" data-id="L_R1_Stop_0" transform="translate(0, -10.5)"><g><rect class="background" style="" x="-10" y="0" width="20" height="21"/><text y="-10.1" text-anchor="middle" style=""><tspan class="text-outer-tspan row" x="0" y="-0.1em" dy="1.1em" text-anchor="middle"><tspan font-style="normal" class="text-inner-tspan" font-weight="normal">否</tspan></tspan></text></g></g></g><g class="edgeLabel" transform="translate(1132.2890625, 710.5)"><g class="label" data-id="L_Check_Stop_0" transform="translate(0, -10.5)"><g><rect class="background" style="" x="-34" y="0" width="68" height="21"/><text y="-10.1" text-anchor="middle" style=""><tspan class="text-outer-tspan row" x="0" y="-0.1em" dy="1.1em" text-anchor="middle"><tspan font-style="normal" class="text-inner-tspan" font-weight="normal">普通错误</tspan></tspan></text></g></g></g></g><g class="nodes"><g class="node default" id="my-svg-flowchart-Start-0" data-look="classic" transform="translate(681.7890625, 24)"><g class="basic label-container outer-path"><path d="M-11.5 -16 C-5.397985273669952 -16, 0.7040294526600963 -16, 11.5 -16 C11.5 -16, 11.5 -16, 11.499999999999998 -16 C11.761678547747849 -15.99160847830012, 12.023357095495697 -15.983216956600241, 12.525123519691405 -15.967126284005381 C12.889900534216677 -15.931936684122673, 13.254677548741947 -15.896747084239966, 13.546034586952095 -15.868640221171939 C13.823142357335794 -15.823839585859156, 14.100250127719493 -15.779038950546376, 14.558538059221954 -15.704946511857047 C14.846225092361388 -15.639283823876308, 15.133912125500823 -15.57362113589557, 15.558473342552116 -15.476717808624471 C15.8032724336319 -15.404062723368641, 16.048071524711684 -15.331407638112813, 16.54173148837793 -15.184891952170698 C16.816035132869015 -15.083945675362886, 17.0903387773601 -14.982999398555073, 17.504272078069985 -14.830668117536348 C17.743977980655043 -14.724557425084901, 17.983683883240104 -14.618446732633455, 18.44213982588093 -14.415501886438706 C18.63508917272361 -14.314840335780834, 18.828038519566288 -14.214178785122964, 19.351480832063 -13.941099265974232 C19.63479467019199 -13.76935275236352, 19.91810850832098 -13.59760623875281, 20.228558419368778 -13.409409678269451 C20.519042601610717 -13.20678048759505, 20.80952678385266 -13.00415129692065, 21.069768487859456 -12.822617949887306 C21.272795051766554 -12.660709667935162, 21.475821615673656 -12.498801385983018, 21.871654324924613 -12.183135333906153 C22.0589701922517 -12.013020019305955, 22.24628605957879 -11.842904704705756, 22.630920809655784 -11.493589601563642 C22.78460299307675 -11.334900129639584, 22.93828517649771 -11.176210657715526, 23.344447953205048 -10.756814244181072 C23.539844367166655 -10.527290497970844, 23.73524078112826 -10.297766751760618, 24.00930371948848 -9.975836829739738 C24.171100134221863 -9.75904437395361, 24.33289654895525 -9.542251918167484, 24.62275607355129 -9.153866561954718 C24.754260315626613 -8.951840732293622, 24.885764557701936 -8.749814902632528, 25.182284208085537 -8.294281092968403 C25.373096283677828 -7.95547493093645, 25.563908359270123 -7.616668768904498, 25.685588901968003 -7.400612643853364 C25.863382377605426 -7.031420687521291, 26.041175853242848 -6.662228731189218, 26.130601968252996 -6.476533489958305 C26.230198428947478 -6.230528306476368, 26.329794889641956 -5.984523122994432, 26.515494752796165 -5.52584087074093 C26.635247393131667 -5.165164998042522, 26.75500003346717 -4.804489125344114, 26.83868564858657 -4.552441386096524 C26.9095971107295 -4.2820252477234275, 26.98050857287243 -4.0116091093503305, 27.098846594909176 -3.560334943301032 C27.158656606011874 -3.253223177139007, 27.21846661711457 -2.9461114109769824, 27.2949085346312 -2.5535983205340735 C27.326378316934353 -2.3095249034022376, 27.357848099237504 -2.0654514862704016, 27.42606580718717 -1.536368414522911 C27.443878695013797 -1.2589183083189506, 27.461691582840423 -0.9814682021149902, 27.491779459211006 -0.5128252411464826 C27.491779459211006 -0.2779080838814736, 27.491779459211006 -0.04299092661646453, 27.491779459211006 0.5128252411464788 C27.470296796993498 0.8474350456770235, 27.448814134775986 1.1820448502075682, 27.42606580718717 1.5363684145229002 C27.375757492959657 1.9265497651711951, 27.325449178732143 2.31673111581949, 27.294908534631205 2.5535983205340624 C27.222376556292033 2.926034699666654, 27.149844577952862 3.2984710787992455, 27.098846594909176 3.5603349433010285 C27.01912543265944 3.864346286329556, 26.939404270409703 4.168357629358083, 26.83868564858657 4.552441386096513 C26.72553791729489 4.893224325104271, 26.61239018600321 5.234007264112028, 26.515494752796165 5.525840870740919 C26.39321655302461 5.827870388264826, 26.270938353253054 6.129899905788734, 26.130601968253 6.4765334899583005 C25.962046297646516 6.826542946486265, 25.79349062704003 7.17655240301423, 25.685588901968003 7.400612643853361 C25.503953136423945 7.723125338192524, 25.322317370879887 8.045638032531688, 25.18228420808554 8.294281092968399 C24.967066246171566 8.624913676582976, 24.751848284257594 8.95554626019755, 24.622756073551297 9.15386656195471 C24.395781547281803 9.457991749351107, 24.168807021012306 9.762116936747505, 24.00930371948848 9.975836829739734 C23.837897396686376 10.17718044979915, 23.666491073884274 10.378524069858567, 23.344447953205055 10.756814244181063 C23.1343746639453 10.97373216267956, 22.92430137468555 11.190650081178058, 22.630920809655784 11.493589601563638 C22.364510084870915 11.735536772971743, 22.098099360086046 11.97748394437985, 21.871654324924627 12.183135333906142 C21.657673965386426 12.353778976381347, 21.44369360584822 12.524422618856553, 21.06976848785946 12.822617949887304 C20.812851613952514 13.00183203937257, 20.55593474004557 13.181046128857835, 20.228558419368788 13.409409678269446 C19.940831355566182 13.583831515218497, 19.653104291763572 13.758253352167548, 19.351480832063004 13.94109926597423 C19.136141041695176 14.053441896677407, 18.92080125132735 14.165784527380584, 18.442139825880933 14.415501886438705 C18.181511667842617 14.530874240742651, 17.920883509804302 14.646246595046598, 17.50427207806999 14.830668117536346 C17.234318030197425 14.930013702581315, 16.964363982324855 15.029359287626283, 16.54173148837794 15.184891952170695 C16.170872589150214 15.294960926783398, 15.80001368992249 15.405029901396102, 15.558473342552134 15.476717808624468 C15.162077979022667 15.56719246362858, 14.7656826154932 15.657667118632691, 14.558538059221961 15.704946511857045 C14.18959404278129 15.764594519231593, 13.820650026340617 15.824242526606142, 13.546034586952105 15.868640221171937 C13.30677145870094 15.891721647398315, 13.067508330449774 15.914803073624693, 12.525123519691405 15.967126284005381 C12.244361261311541 15.97612978316104, 11.963599002931677 15.9851332823167, 11.500000000000004 16 C11.500000000000002 16, 11.500000000000002 16, 11.5 16 C4.655715748286395 16, -2.1885685034272093 16, -11.499999999999996 16 C-11.791307613918056 15.99065833181752, -12.082615227836115 15.981316663635042, -12.5251235196914 15.967126284005381 C-12.841430622390972 15.936612518222901, -13.157737725090543 15.906098752440421, -13.5460345869521 15.868640221171937 C-13.799333669529847 15.82768878986449, -14.052632752107597 15.786737358557042, -14.558538059221956 15.704946511857045 C-14.824279916798941 15.644292666992781, -15.090021774375925 15.583638822128519, -15.558473342552112 15.476717808624471 C-15.879567091393723 15.381418869423763, -16.200660840235333 15.286119930223055, -16.541731488377923 15.184891952170702 C-16.841674458472426 15.074510166533504, -17.141617428566928 14.964128380896305, -17.504272078069988 14.830668117536348 C-17.715080688666013 14.737349399040738, -17.925889299262035 14.644030680545127, -18.44213982588093 14.415501886438708 C-18.653281454680304 14.305349433936742, -18.864423083479675 14.195196981434776, -19.351480832063 13.941099265974234 C-19.600877726236806 13.789913403107242, -19.85027462041061 13.63872754024025, -20.228558419368767 13.409409678269457 C-20.408436263971193 13.283934680661195, -20.58831410857362 13.158459683052936, -21.069768487859456 12.822617949887308 C-21.292771571488686 12.644778925054279, -21.515774655117916 12.466939900221252, -21.871654324924613 12.183135333906154 C-22.094788684007273 11.980490612798905, -22.317923043089934 11.777845891691655, -22.630920809655777 11.493589601563649 C-22.792140050576958 11.327117498966686, -22.95335929149814 11.160645396369725, -23.344447953205048 10.756814244181069 C-23.536840009864445 10.53081958701079, -23.729232066523842 10.30482492984051, -24.009303719488475 9.97583682973974 C-24.154279634194367 9.78158231161138, -24.29925554890026 9.58732779348302, -24.62275607355129 9.15386656195472 C-24.8114349913064 8.864005076899355, -25.000113909061508 8.574143591843988, -25.182284208085534 8.29428109296841 C-25.354035613165657 7.989319081532992, -25.525787018245783 7.684357070097574, -25.685588901968 7.400612643853366 C-25.862127253366598 7.034026979858571, -26.038665604765196 6.667441315863777, -26.130601968252996 6.476533489958307 C-26.282244520460743 6.10197345419588, -26.433887072668487 5.727413418433453, -26.515494752796165 5.525840870740931 C-26.63309400721443 5.171650653329782, -26.750693261632698 4.817460435918633, -26.83868564858657 4.552441386096519 C-26.91244889264827 4.271150167297043, -26.986212136709973 3.9898589484975684, -27.098846594909176 3.5603349433010343 C-27.138651142166843 3.355947005826965, -27.178455689424506 3.151559068352896, -27.2949085346312 2.5535983205340753 C-27.32676419972194 2.30653207270289, -27.35861986481268 2.059465824871705, -27.42606580718717 1.5363684145229202 C-27.449485798454376 1.1715831462595052, -27.47290578972158 0.8067978779960902, -27.491779459211006 0.5128252411464846 C-27.491779459211006 0.2726513691343133, -27.491779459211006 0.032477497122141985, -27.491779459211006 -0.5128252411464769 C-27.475999393214956 -0.7586125064749871, -27.460219327218905 -1.0043997718034974, -27.42606580718717 -1.5363684145228982 C-27.391204855117934 -1.8067430746983018, -27.356343903048693 -2.0771177348737053, -27.294908534631205 -2.5535983205340678 C-27.241658347228274 -2.8270267784170198, -27.188408159825343 -3.1004552362999718, -27.098846594909176 -3.5603349433010267 C-27.007558928817172 -3.9084543784346035, -26.916271262725164 -4.25657381356818, -26.838685648586573 -4.552441386096511 C-26.734153414343513 -4.867275820686869, -26.629621180100454 -5.182110255277228, -26.515494752796172 -5.525840870740911 C-26.407988440309378 -5.791383541076442, -26.300482127822587 -6.056926211411973, -26.130601968253 -6.476533489958299 C-26.019410689702596 -6.7074245589804455, -25.908219411152192 -6.938315628002593, -25.685588901968003 -7.400612643853359 C-25.583572515341373 -7.581753068588266, -25.48155612871474 -7.762893493323173, -25.182284208085537 -8.294281092968404 C-25.063848153814774 -8.47623067686192, -24.945412099544015 -8.658180260755437, -24.622756073551294 -9.153866561954715 C-24.421714592563998 -9.423243831221994, -24.2206731115767 -9.692621100489273, -24.00930371948848 -9.975836829739734 C-23.78623672884709 -10.23786400981845, -23.5631697382057 -10.499891189897166, -23.344447953205055 -10.756814244181063 C-23.105323032407256 -11.003730357425901, -22.86619811160946 -11.25064647067074, -22.63092080965579 -11.493589601563633 C-22.42829078332655 -11.677612830179143, -22.225660756997307 -11.861636058794655, -21.871654324924627 -12.18313533390614 C-21.675179420909394 -12.339818841441515, -21.478704516894158 -12.496502348976888, -21.069768487859463 -12.822617949887302 C-20.823730057866037 -12.994243707818743, -20.57769162787261 -13.165869465750184, -20.228558419368788 -13.409409678269444 C-19.913838976134258 -13.600194454254956, -19.599119532899728 -13.790979230240467, -19.351480832063007 -13.941099265974229 C-19.110065422592097 -14.067045530461254, -18.868650013121183 -14.19299179494828, -18.442139825880936 -14.415501886438705 C-18.108469887483537 -14.563207670200185, -17.774799949086137 -14.710913453961666, -17.504272078069995 -14.830668117536344 C-17.266868248131694 -14.918034921490587, -17.029464418193392 -15.005401725444829, -16.54173148837794 -15.184891952170695 C-16.264955833692984 -15.267037513656133, -15.988180179008024 -15.34918307514157, -15.558473342552134 -15.476717808624466 C-15.207115672002331 -15.556912904104383, -14.855758001452529 -15.6371079995843, -14.558538059221963 -15.704946511857043 C-14.210714844597145 -15.761179871788269, -13.862891629972328 -15.817413231719495, -13.546034586952107 -15.868640221171937 C-13.246512358844619 -15.897534770289283, -12.946990130737133 -15.92642931940663, -12.525123519691407 -15.967126284005381 C-12.136364848949654 -15.979593017903222, -11.747606178207903 -15.992059751801062, -11.500000000000005 -16 C-11.500000000000004 -16, -11.500000000000004 -16, -11.5 -16" stroke="none" stroke-width="0" fill="#eee" style=""/><path d="M-11.5 -16 C-4.651134275660935 -16, 2.1977314486781303 -16, 11.5 -16 M-11.5 -16 C-3.415556437163218 -16, 4.668887125673564 -16, 11.5 -16 M11.5 -16 C11.5 -16, 11.499999999999998 -16, 11.499999999999998 -16 M11.5 -16 C11.5 -16, 11.499999999999998 -16, 11.499999999999998 -16 M11.499999999999998 -16 C11.72585340525359 -15.992757320890503, 11.951706810507183 -15.985514641781004, 12.525123519691405 -15.967126284005381 M11.499999999999998 -16 C11.71014837171283 -15.99326095074816, 11.920296743425663 -15.986521901496321, 12.525123519691405 -15.967126284005381 M12.525123519691405 -15.967126284005381 C12.805127777469952 -15.940114610011873, 13.085132035248499 -15.913102936018367, 13.546034586952095 -15.868640221171939 M12.525123519691405 -15.967126284005381 C12.915967081575312 -15.929422075648596, 13.306810643459217 -15.891717867291812, 13.546034586952095 -15.868640221171939 M13.546034586952095 -15.868640221171939 C13.891952846458404 -15.812714839611127, 14.237871105964711 -15.756789458050315, 14.558538059221954 -15.704946511857047 M13.546034586952095 -15.868640221171939 C13.87925712201758 -15.814767385881906, 14.212479657083069 -15.760894550591871, 14.558538059221954 -15.704946511857047 M14.558538059221954 -15.704946511857047 C14.76470624777941 -15.65788996819197, 14.970874436336864 -15.610833424526893, 15.558473342552116 -15.476717808624471 M14.558538059221954 -15.704946511857047 C14.762317654917052 -15.658435148925777, 14.96609725061215 -15.611923785994508, 15.558473342552116 -15.476717808624471 M15.558473342552116 -15.476717808624471 C15.939574262801694 -15.36360905593395, 16.32067518305127 -15.250500303243426, 16.54173148837793 -15.184891952170698 M15.558473342552116 -15.476717808624471 C15.857892498412685 -15.387851774848276, 16.157311654273254 -15.29898574107208, 16.54173148837793 -15.184891952170698 M16.54173148837793 -15.184891952170698 C16.920900407266366 -15.04535428502069, 17.3000693261548 -14.90581661787068, 17.504272078069985 -14.830668117536348 M16.54173148837793 -15.184891952170698 C16.886807917878887 -15.057900636262799, 17.231884347379843 -14.930909320354901, 17.504272078069985 -14.830668117536348 M17.504272078069985 -14.830668117536348 C17.732626631675398 -14.729582330552388, 17.960981185280815 -14.628496543568426, 18.44213982588093 -14.415501886438706 M17.504272078069985 -14.830668117536348 C17.866208122386197 -14.670449767168849, 18.228144166702414 -14.510231416801348, 18.44213982588093 -14.415501886438706 M18.44213982588093 -14.415501886438706 C18.674629045675342 -14.294212409388413, 18.907118265469755 -14.17292293233812, 19.351480832063 -13.941099265974232 M18.44213982588093 -14.415501886438706 C18.794839580510352 -14.231498650363513, 19.147539335139772 -14.047495414288317, 19.351480832063 -13.941099265974232 M19.351480832063 -13.941099265974232 C19.56422149580438 -13.812134625411298, 19.77696215954576 -13.683169984848362, 20.228558419368778 -13.409409678269451 M19.351480832063 -13.941099265974232 C19.691709700358057 -13.734850526607008, 20.031938568653114 -13.528601787239783, 20.228558419368778 -13.409409678269451 M20.228558419368778 -13.409409678269451 C20.5106616064758 -13.212626706993738, 20.792764793582823 -13.015843735718025, 21.069768487859456 -12.822617949887306 M20.228558419368778 -13.409409678269451 C20.405482426460733 -13.28599514983893, 20.582406433552688 -13.16258062140841, 21.069768487859456 -12.822617949887306 M21.069768487859456 -12.822617949887306 C21.238462476502626 -12.688088983079949, 21.407156465145796 -12.55356001627259, 21.871654324924613 -12.183135333906153 M21.069768487859456 -12.822617949887306 C21.376226021312494 -12.578226222135969, 21.682683554765532 -12.33383449438463, 21.871654324924613 -12.183135333906153 M21.871654324924613 -12.183135333906153 C22.079140600827152 -11.994701787917496, 22.28662687672969 -11.806268241928839, 22.630920809655784 -11.493589601563642 M21.871654324924613 -12.183135333906153 C22.088610696256758 -11.986101297813324, 22.3055670675889 -11.789067261720495, 22.630920809655784 -11.493589601563642 M22.630920809655784 -11.493589601563642 C22.850204608530753 -11.267161075690527, 23.069488407405725 -11.040732549817413, 23.344447953205048 -10.756814244181072 M22.630920809655784 -11.493589601563642 C22.904662501880622 -11.210928829730594, 23.17840419410546 -10.928268057897547, 23.344447953205048 -10.756814244181072 M23.344447953205048 -10.756814244181072 C23.60207789861717 -10.45418745074081, 23.8597078440293 -10.151560657300546, 24.00930371948848 -9.975836829739738 M23.344447953205048 -10.756814244181072 C23.57636578866735 -10.484390358148376, 23.808283624129647 -10.21196647211568, 24.00930371948848 -9.975836829739738 M24.00930371948848 -9.975836829739738 C24.24135140593272 -9.66491406988358, 24.473399092376958 -9.353991310027423, 24.62275607355129 -9.153866561954718 M24.00930371948848 -9.975836829739738 C24.20984056762013 -9.70713572252602, 24.410377415751785 -9.438434615312303, 24.62275607355129 -9.153866561954718 M24.62275607355129 -9.153866561954718 C24.8418694630518 -8.817249555498455, 25.060982852552307 -8.48063254904219, 25.182284208085537 -8.294281092968403 M24.62275607355129 -9.153866561954718 C24.824530932627614 -8.843886194277328, 25.02630579170394 -8.533905826599936, 25.182284208085537 -8.294281092968403 M25.182284208085537 -8.294281092968403 C25.31638566195257 -8.0561703823828, 25.4504871158196 -7.8180596717972, 25.685588901968003 -7.400612643853364 M25.182284208085537 -8.294281092968403 C25.317795738235205 -8.053666649157273, 25.453307268384876 -7.813052205346145, 25.685588901968003 -7.400612643853364 M25.685588901968003 -7.400612643853364 C25.842617646480157 -7.074539095996984, 25.99964639099231 -6.748465548140604, 26.130601968252996 -6.476533489958305 M25.685588901968003 -7.400612643853364 C25.84987664733575 -7.059465625402604, 26.0141643927035 -6.7183186069518435, 26.130601968252996 -6.476533489958305 M26.130601968252996 -6.476533489958305 C26.23258928670154 -6.224622841599739, 26.334576605150087 -5.972712193241174, 26.515494752796165 -5.52584087074093 M26.130601968252996 -6.476533489958305 C26.260352721604352 -6.156046620620296, 26.39010347495571 -5.835559751282287, 26.515494752796165 -5.52584087074093 M26.515494752796165 -5.52584087074093 C26.612273363532232 -5.234359114781498, 26.7090519742683 -4.942877358822066, 26.83868564858657 -4.552441386096524 M26.515494752796165 -5.52584087074093 C26.640145301439308 -5.150413278595623, 26.764795850082447 -4.774985686450317, 26.83868564858657 -4.552441386096524 M26.83868564858657 -4.552441386096524 C26.8946364186914 -4.339076850469638, 26.950587188796234 -4.125712314842753, 27.098846594909176 -3.560334943301032 M26.83868564858657 -4.552441386096524 C26.921589019883964 -4.236294900791154, 27.00449239118136 -3.9201484154857846, 27.098846594909176 -3.560334943301032 M27.098846594909176 -3.560334943301032 C27.16657406937177 -3.2125686761424057, 27.234301543834366 -2.8648024089837794, 27.2949085346312 -2.5535983205340735 M27.098846594909176 -3.560334943301032 C27.177111988342098 -3.1584586894197426, 27.25537738177502 -2.756582435538453, 27.2949085346312 -2.5535983205340735 M27.2949085346312 -2.5535983205340735 C27.32408175069693 -2.3273366176314054, 27.353254966762655 -2.1010749147287373, 27.42606580718717 -1.536368414522911 M27.2949085346312 -2.5535983205340735 C27.339503562915265 -2.207728087447253, 27.384098591199333 -1.8618578543604323, 27.42606580718717 -1.536368414522911 M27.42606580718717 -1.536368414522911 C27.451295789203826 -1.143391079338607, 27.476525771220476 -0.7504137441543032, 27.491779459211006 -0.5128252411464826 M27.42606580718717 -1.536368414522911 C27.44586451645522 -1.227987536442565, 27.46566322572327 -0.9196066583622188, 27.491779459211006 -0.5128252411464826 M27.491779459211006 -0.5128252411464826 C27.491779459211006 -0.16995000270395932, 27.491779459211006 0.172925235738564, 27.491779459211006 0.5128252411464788 M27.491779459211006 -0.5128252411464826 C27.491779459211006 -0.29658407118732455, 27.491779459211006 -0.0803429012281664, 27.491779459211006 0.5128252411464788 M27.491779459211006 0.5128252411464788 C27.476866209525312 0.745111142759646, 27.461952959839618 0.9773970443728133, 27.42606580718717 1.5363684145229002 M27.491779459211006 0.5128252411464788 C27.472975697746804 0.8057090040745177, 27.4541719362826 1.0985927670025566, 27.42606580718717 1.5363684145229002 M27.42606580718717 1.5363684145229002 C27.37836991578229 1.9062883296400823, 27.330674024377412 2.2762082447572647, 27.294908534631205 2.5535983205340624 M27.42606580718717 1.5363684145229002 C27.376444914116504 1.9212182624253566, 27.326824021045837 2.3060681103278133, 27.294908534631205 2.5535983205340624 M27.294908534631205 2.5535983205340624 C27.240179770460497 2.834618957622248, 27.185451006289785 3.1156395947104336, 27.098846594909176 3.5603349433010285 M27.294908534631205 2.5535983205340624 C27.238309265640755 2.8442236045402716, 27.18170999665031 3.1348488885464807, 27.098846594909176 3.5603349433010285 M27.098846594909176 3.5603349433010285 C27.011678773777263 3.8927436240496647, 26.924510952645353 4.225152304798301, 26.83868564858657 4.552441386096513 M27.098846594909176 3.5603349433010285 C26.996821925501273 3.949399225524788, 26.894797256093373 4.338463507748547, 26.83868564858657 4.552441386096513 M26.83868564858657 4.552441386096513 C26.72718054871485 4.888276980985136, 26.615675448843124 5.224112575873758, 26.515494752796165 5.525840870740919 M26.83868564858657 4.552441386096513 C26.75045064361107 4.81819116274383, 26.662215638635573 5.083940939391146, 26.515494752796165 5.525840870740919 M26.515494752796165 5.525840870740919 C26.41017453971048 5.785983833290361, 26.304854326624795 6.046126795839802, 26.130601968253 6.4765334899583005 M26.515494752796165 5.525840870740919 C26.422857610171032 5.754656404042312, 26.330220467545896 5.9834719373437055, 26.130601968253 6.4765334899583005 M26.130601968253 6.4765334899583005 C25.97436715827496 6.800958415767117, 25.818132348296917 7.125383341575934, 25.685588901968003 7.400612643853361 M26.130601968253 6.4765334899583005 C26.02947910416776 6.686517280913983, 25.928356240082515 6.8965010718696655, 25.685588901968003 7.400612643853361 M25.685588901968003 7.400612643853361 C25.577732139434474 7.592123247413157, 25.469875376900944 7.783633850972953, 25.18228420808554 8.294281092968399 M25.685588901968003 7.400612643853361 C25.528955221104194 7.678731605107135, 25.372321540240385 7.9568505663609095, 25.18228420808554 8.294281092968399 M25.18228420808554 8.294281092968399 C25.04423917956462 8.50635532705702, 24.906194151043696 8.718429561145642, 24.622756073551297 9.15386656195471 M25.18228420808554 8.294281092968399 C25.0261873778736 8.534087742041905, 24.87009054766166 8.77389439111541, 24.622756073551297 9.15386656195471 M24.622756073551297 9.15386656195471 C24.41512834637745 9.432068801092594, 24.207500619203604 9.710271040230477, 24.00930371948848 9.975836829739734 M24.622756073551297 9.15386656195471 C24.468278206428916 9.36085283067549, 24.31380033930654 9.56783909939627, 24.00930371948848 9.975836829739734 M24.00930371948848 9.975836829739734 C23.804999210055442 10.215824531775695, 23.600694700622405 10.455812233811658, 23.344447953205055 10.756814244181063 M24.00930371948848 9.975836829739734 C23.75462767370772 10.274993804591345, 23.49995162792696 10.574150779442958, 23.344447953205055 10.756814244181063 M23.344447953205055 10.756814244181063 C23.16917751499528 10.93779536160325, 22.993907076785504 11.118776479025437, 22.630920809655784 11.493589601563638 M23.344447953205055 10.756814244181063 C23.086651275572812 11.023010479337211, 22.82885459794057 11.28920671449336, 22.630920809655784 11.493589601563638 M22.630920809655784 11.493589601563638 C22.345956220794044 11.752386901418017, 22.060991631932303 12.011184201272396, 21.871654324924627 12.183135333906142 M22.630920809655784 11.493589601563638 C22.349791245126603 11.748904033788369, 22.068661680597426 12.004218466013098, 21.871654324924627 12.183135333906142 M21.871654324924627 12.183135333906142 C21.709268992578174 12.312633315197264, 21.54688366023172 12.442131296488384, 21.06976848785946 12.822617949887304 M21.871654324924627 12.183135333906142 C21.661146397287943 12.35100980434518, 21.450638469651256 12.51888427478422, 21.06976848785946 12.822617949887304 M21.06976848785946 12.822617949887304 C20.883223391534834 12.952743733676297, 20.69667829521021 13.082869517465287, 20.228558419368788 13.409409678269446 M21.06976848785946 12.822617949887304 C20.884005162424245 12.952198404146161, 20.698241836989027 13.081778858405016, 20.228558419368788 13.409409678269446 M20.228558419368788 13.409409678269446 C19.945356065316773 13.581088609577543, 19.662153711264754 13.752767540885639, 19.351480832063004 13.94109926597423 M20.228558419368788 13.409409678269446 C19.922772393247698 13.594778964302202, 19.61698636712661 13.78014825033496, 19.351480832063004 13.94109926597423 M19.351480832063004 13.94109926597423 C19.041219705573017 14.10296229693232, 18.73095857908303 14.264825327890412, 18.442139825880933 14.415501886438705 M19.351480832063004 13.94109926597423 C19.127227819231564 14.058091919127483, 18.902974806400128 14.175084572280733, 18.442139825880933 14.415501886438705 M18.442139825880933 14.415501886438705 C18.073329725830796 14.578763177367994, 17.70451962578066 14.742024468297283, 17.50427207806999 14.830668117536346 M18.442139825880933 14.415501886438705 C18.214977334244022 14.51605998295047, 17.987814842607115 14.616618079462237, 17.50427207806999 14.830668117536346 M17.50427207806999 14.830668117536346 C17.252905096745675 14.923173490274598, 17.001538115421358 15.01567886301285, 16.54173148837794 15.184891952170695 M17.50427207806999 14.830668117536346 C17.29952842332981 14.90601567511033, 17.09478476858963 14.981363232684314, 16.54173148837794 15.184891952170695 M16.54173148837794 15.184891952170695 C16.16972028123406 15.295302925724325, 15.79770907409018 15.405713899277956, 15.558473342552134 15.476717808624468 M16.54173148837794 15.184891952170695 C16.330595395862144 15.24755603615342, 16.119459303346346 15.310220120136142, 15.558473342552134 15.476717808624468 M15.558473342552134 15.476717808624468 C15.269922333810818 15.542577693398368, 14.981371325069501 15.608437578172268, 14.558538059221961 15.704946511857045 M15.558473342552134 15.476717808624468 C15.274318239586155 15.541574356591113, 14.990163136620177 15.60643090455776, 14.558538059221961 15.704946511857045 M14.558538059221961 15.704946511857045 C14.188973088600772 15.764694910287927, 13.819408117979581 15.824443308718811, 13.546034586952105 15.868640221171937 M14.558538059221961 15.704946511857045 C14.243014660791516 15.75595788799478, 13.927491262361073 15.806969264132514, 13.546034586952105 15.868640221171937 M13.546034586952105 15.868640221171937 C13.207264354363668 15.90132097807893, 12.868494121775228 15.934001734985923, 12.525123519691405 15.967126284005381 M13.546034586952105 15.868640221171937 C13.285650710715942 15.893759140555012, 13.025266834479776 15.918878059938088, 12.525123519691405 15.967126284005381 M12.525123519691405 15.967126284005381 C12.155807175372141 15.978969540337046, 11.786490831052879 15.990812796668708, 11.500000000000004 16 M12.525123519691405 15.967126284005381 C12.154167025470914 15.979022136752018, 11.78321053125042 15.990917989498657, 11.500000000000004 16 M11.500000000000004 16 C11.500000000000002 16, 11.500000000000002 16, 11.5 16 M11.500000000000004 16 C11.500000000000002 16, 11.5 16, 11.5 16 M11.5 16 C4.007829739574382 16, -3.4843405208512355 16, -11.499999999999996 16 M11.5 16 C6.34655636627647 16, 1.1931127325529403 16, -11.499999999999996 16 M-11.499999999999996 16 C-11.90835389480759 15.986904885406158, -12.316707789615185 15.973809770812316, -12.5251235196914 15.967126284005381 M-11.499999999999996 16 C-11.852821116077763 15.988685713532027, -12.20564223215553 15.977371427064055, -12.5251235196914 15.967126284005381 M-12.5251235196914 15.967126284005381 C-12.834635370369025 15.937268048012973, -13.14414722104665 15.907409812020564, -13.5460345869521 15.868640221171937 M-12.5251235196914 15.967126284005381 C-12.87598177794646 15.933279409800308, -13.22684003620152 15.899432535595233, -13.5460345869521 15.868640221171937 M-13.5460345869521 15.868640221171937 C-13.9032343022222 15.81089094133223, -14.260434017492301 15.753141661492524, -14.558538059221956 15.704946511857045 M-13.5460345869521 15.868640221171937 C-13.95034632236032 15.803274235275472, -14.35465805776854 15.737908249379009, -14.558538059221956 15.704946511857045 M-14.558538059221956 15.704946511857045 C-14.841938671958445 15.64026217136177, -15.125339284694935 15.575577830866498, -15.558473342552112 15.476717808624471 M-14.558538059221956 15.704946511857045 C-14.792379888121763 15.651573640371206, -15.02622171702157 15.598200768885366, -15.558473342552112 15.476717808624471 M-15.558473342552112 15.476717808624471 C-15.947744903864466 15.361184052555087, -16.33701646517682 15.245650296485703, -16.541731488377923 15.184891952170702 M-15.558473342552112 15.476717808624471 C-15.873377861153799 15.38325580047104, -16.188282379755485 15.28979379231761, -16.541731488377923 15.184891952170702 M-16.541731488377923 15.184891952170702 C-16.88170830030597 15.059777342669982, -17.221685112234017 14.934662733169263, -17.504272078069988 14.830668117536348 M-16.541731488377923 15.184891952170702 C-16.76268709613632 15.103578246024362, -16.983642703894724 15.022264539878023, -17.504272078069988 14.830668117536348 M-17.504272078069988 14.830668117536348 C-17.77465489148972 14.710977666656621, -18.04503770490945 14.591287215776893, -18.44213982588093 14.415501886438708 M-17.504272078069988 14.830668117536348 C-17.79828847604088 14.700515779841199, -18.092304874011774 14.570363442146048, -18.44213982588093 14.415501886438708 M-18.44213982588093 14.415501886438708 C-18.68686583657819 14.28782848341244, -18.931591847275445 14.16015508038617, -19.351480832063 13.941099265974234 M-18.44213982588093 14.415501886438708 C-18.69522813508591 14.283465877637267, -18.948316444290892 14.151429868835828, -19.351480832063 13.941099265974234 M-19.351480832063 13.941099265974234 C-19.687235094627216 13.737563058896749, -20.022989357191427 13.534026851819261, -20.228558419368767 13.409409678269457 M-19.351480832063 13.941099265974234 C-19.527293493096614 13.834520597665778, -19.70310615413023 13.727941929357323, -20.228558419368767 13.409409678269457 M-20.228558419368767 13.409409678269457 C-20.467790939690182 13.242531428302131, -20.707023460011598 13.075653178334804, -21.069768487859456 12.822617949887308 M-20.228558419368767 13.409409678269457 C-20.503180532275206 13.217845180505591, -20.77780264518164 13.026280682741724, -21.069768487859456 12.822617949887308 M-21.069768487859456 12.822617949887308 C-21.32162141761515 12.621771940495071, -21.573474347370848 12.420925931102836, -21.871654324924613 12.183135333906154 M-21.069768487859456 12.822617949887308 C-21.298819072293874 12.639956204092897, -21.527869656728296 12.457294458298485, -21.871654324924613 12.183135333906154 M-21.871654324924613 12.183135333906154 C-22.153070147281696 11.92756092989609, -22.434485969638782 11.671986525886025, -22.630920809655777 11.493589601563649 M-21.871654324924613 12.183135333906154 C-22.172942897738835 11.90951302373508, -22.474231470553057 11.635890713564008, -22.630920809655777 11.493589601563649 M-22.630920809655777 11.493589601563649 C-22.856621339356842 11.260535274289191, -23.082321869057907 11.027480947014734, -23.344447953205048 10.756814244181069 M-22.630920809655777 11.493589601563649 C-22.803515121634444 11.315371804189128, -22.976109433613114 11.137154006814608, -23.344447953205048 10.756814244181069 M-23.344447953205048 10.756814244181069 C-23.591084673899697 10.46710071802616, -23.837721394594347 10.177387191871253, -24.009303719488475 9.97583682973974 M-23.344447953205048 10.756814244181069 C-23.52691153919698 10.542482133602778, -23.709375125188913 10.32815002302449, -24.009303719488475 9.97583682973974 M-24.009303719488475 9.97583682973974 C-24.16343113036928 9.769320140455449, -24.317558541250087 9.562803451171156, -24.62275607355129 9.15386656195472 M-24.009303719488475 9.97583682973974 C-24.20600082350376 9.712280629834073, -24.402697927519043 9.448724429928408, -24.62275607355129 9.15386656195472 M-24.62275607355129 9.15386656195472 C-24.818076417363663 8.85380206300279, -25.013396761176033 8.553737564050863, -25.182284208085534 8.29428109296841 M-24.62275607355129 9.15386656195472 C-24.750577026083732 8.95749925413322, -24.878397978616174 8.76113194631172, -25.182284208085534 8.29428109296841 M-25.182284208085534 8.29428109296841 C-25.284020126002453 8.113638668828132, -25.385756043919372 7.932996244687854, -25.685588901968 7.400612643853366 M-25.182284208085534 8.29428109296841 C-25.37436891453259 7.953215245985976, -25.566453620979644 7.612149399003542, -25.685588901968 7.400612643853366 M-25.685588901968 7.400612643853366 C-25.826680449457783 7.1076330266153285, -25.96777199694757 6.81465340937729, -26.130601968252996 6.476533489958307 M-25.685588901968 7.400612643853366 C-25.78339974922571 7.197506326705869, -25.881210596483413 6.994400009558372, -26.130601968252996 6.476533489958307 M-26.130601968252996 6.476533489958307 C-26.239492634725313 6.20757143851387, -26.34838330119763 5.938609387069435, -26.515494752796165 5.525840870740931 M-26.130601968252996 6.476533489958307 C-26.21089841122137 6.278199723400316, -26.29119485418974 6.079865956842326, -26.515494752796165 5.525840870740931 M-26.515494752796165 5.525840870740931 C-26.581919503268228 5.325780105665815, -26.648344253740294 5.125719340590698, -26.83868564858657 4.552441386096519 M-26.515494752796165 5.525840870740931 C-26.634616341308654 5.1670656255889815, -26.753737929821142 4.8082903804370325, -26.83868564858657 4.552441386096519 M-26.83868564858657 4.552441386096519 C-26.94241227299043 4.156886811841204, -27.046138897394293 3.7613322375858895, -27.098846594909176 3.5603349433010343 M-26.83868564858657 4.552441386096519 C-26.942480425404153 4.156626917150243, -27.046275202221736 3.7608124482039664, -27.098846594909176 3.5603349433010343 M-27.098846594909176 3.5603349433010343 C-27.155828090997357 3.2677470039316834, -27.21280958708554 2.975159064562332, -27.2949085346312 2.5535983205340753 M-27.098846594909176 3.5603349433010343 C-27.170309180116806 3.193389671882578, -27.24177176532444 2.826444400464121, -27.2949085346312 2.5535983205340753 M-27.2949085346312 2.5535983205340753 C-27.33941990917633 2.2083768893271647, -27.383931283721456 1.8631554581202543, -27.42606580718717 1.5363684145229202 M-27.2949085346312 2.5535983205340753 C-27.33066602766384 2.2762702656886042, -27.366423520696475 1.9989422108431332, -27.42606580718717 1.5363684145229202 M-27.42606580718717 1.5363684145229202 C-27.452018323666284 1.1321370218665132, -27.477970840145392 0.7279056292101065, -27.491779459211006 0.5128252411464846 M-27.42606580718717 1.5363684145229202 C-27.44685003520969 1.2126372863453265, -27.467634263232203 0.8889061581677328, -27.491779459211006 0.5128252411464846 M-27.491779459211006 0.5128252411464846 C-27.491779459211006 0.2506374694413463, -27.491779459211006 -0.011550302263792056, -27.491779459211006 -0.5128252411464769 M-27.491779459211006 0.5128252411464846 C-27.491779459211006 0.11004815797982681, -27.491779459211006 -0.292728925186831, -27.491779459211006 -0.5128252411464769 M-27.491779459211006 -0.5128252411464769 C-27.46904210884854 -0.8669778263007506, -27.446304758486075 -1.2211304114550243, -27.42606580718717 -1.5363684145228982 M-27.491779459211006 -0.5128252411464769 C-27.470835023575354 -0.8390517322159173, -27.449890587939702 -1.1652782232853578, -27.42606580718717 -1.5363684145228982 M-27.42606580718717 -1.5363684145228982 C-27.37894658547067 -1.9018157934133495, -27.331827363754165 -2.267263172303801, -27.294908534631205 -2.5535983205340678 M-27.42606580718717 -1.5363684145228982 C-27.395627985835592 -1.7724381462980938, -27.36519016448401 -2.0085078780732895, -27.294908534631205 -2.5535983205340678 M-27.294908534631205 -2.5535983205340678 C-27.247684857815557 -2.796081920254792, -27.200461180999906 -3.0385655199755166, -27.098846594909176 -3.5603349433010267 M-27.294908534631205 -2.5535983205340678 C-27.226882323823503 -2.9028985356868637, -27.1588561130158 -3.2521987508396597, -27.098846594909176 -3.5603349433010267 M-27.098846594909176 -3.5603349433010267 C-27.020335964746895 -3.8597300028321566, -26.941825334584617 -4.1591250623632865, -26.838685648586573 -4.552441386096511 M-27.098846594909176 -3.5603349433010267 C-27.027927276973916 -3.8307810392150015, -26.957007959038656 -4.101227135128976, -26.838685648586573 -4.552441386096511 M-26.838685648586573 -4.552441386096511 C-26.71809828059502 -4.915631325499158, -26.597510912603465 -5.278821264901804, -26.515494752796172 -5.525840870740911 M-26.838685648586573 -4.552441386096511 C-26.716764953251598 -4.919647095020681, -26.594844257916623 -5.286852803944853, -26.515494752796172 -5.525840870740911 M-26.515494752796172 -5.525840870740911 C-26.365098660103175 -5.897322127403256, -26.21470256741018 -6.268803384065601, -26.130601968253 -6.476533489958299 M-26.515494752796172 -5.525840870740911 C-26.372044614801126 -5.880165485008417, -26.22859447680608 -6.234490099275924, -26.130601968253 -6.476533489958299 M-26.130601968253 -6.476533489958299 C-25.96273970310214 -6.825103075221156, -25.794877437951282 -7.173672660484013, -25.685588901968003 -7.400612643853359 M-26.130601968253 -6.476533489958299 C-26.03391008627429 -6.677316251761935, -25.937218204295583 -6.878099013565571, -25.685588901968003 -7.400612643853359 M-25.685588901968003 -7.400612643853359 C-25.564163195420377 -7.6162162815147525, -25.442737488872755 -7.831819919176147, -25.182284208085537 -8.294281092968404 M-25.685588901968003 -7.400612643853359 C-25.55162945050184 -7.638471214796917, -25.417669999035677 -7.876329785740476, -25.182284208085537 -8.294281092968404 M-25.182284208085537 -8.294281092968404 C-25.002561981662762 -8.570382694928925, -24.822839755239983 -8.846484296889447, -24.622756073551294 -9.153866561954715 M-25.182284208085537 -8.294281092968404 C-24.981915529440098 -8.602101189891638, -24.781546850794662 -8.90992128681487, -24.622756073551294 -9.153866561954715 M-24.622756073551294 -9.153866561954715 C-24.448407072291424 -9.387478340122168, -24.274058071031554 -9.621090118289624, -24.00930371948848 -9.975836829739734 M-24.622756073551294 -9.153866561954715 C-24.41735961297354 -9.429079107126402, -24.21196315239579 -9.704291652298087, -24.00930371948848 -9.975836829739734 M-24.00930371948848 -9.975836829739734 C-23.762410167116506 -10.265852044996963, -23.515516614744534 -10.555867260254193, -23.344447953205055 -10.756814244181063 M-24.00930371948848 -9.975836829739734 C-23.86143130351616 -10.149536183719654, -23.71355888754384 -10.323235537699572, -23.344447953205055 -10.756814244181063 M-23.344447953205055 -10.756814244181063 C-23.0789714907005 -11.030940487739937, -22.81349502819595 -11.30506673129881, -22.63092080965579 -11.493589601563633 M-23.344447953205055 -10.756814244181063 C-23.125283096254783 -10.983119952751613, -22.90611823930451 -11.209425661322163, -22.63092080965579 -11.493589601563633 M-22.63092080965579 -11.493589601563633 C-22.469693658638963 -11.640011834280461, -22.308466507622136 -11.78643406699729, -21.871654324924627 -12.18313533390614 M-22.63092080965579 -11.493589601563633 C-22.380238716180077 -11.721252446173542, -22.129556622704364 -11.948915290783454, -21.871654324924627 -12.18313533390614 M-21.871654324924627 -12.18313533390614 C-21.651117705824948 -12.35900741891223, -21.430581086725272 -12.534879503918317, -21.069768487859463 -12.822617949887302 M-21.871654324924627 -12.18313533390614 C-21.552120605617564 -12.437954971904142, -21.232586886310504 -12.692774609902145, -21.069768487859463 -12.822617949887302 M-21.069768487859463 -12.822617949887302 C-20.79760909264667 -13.012464562397414, -20.525449697433874 -13.202311174907527, -20.228558419368788 -13.409409678269444 M-21.069768487859463 -12.822617949887302 C-20.794820955470218 -13.014409446195193, -20.519873423080973 -13.206200942503084, -20.228558419368788 -13.409409678269444 M-20.228558419368788 -13.409409678269444 C-19.965767946167645 -13.568714807452217, -19.7029774729665 -13.728019936634988, -19.351480832063007 -13.941099265974229 M-20.228558419368788 -13.409409678269444 C-20.01975437391537 -13.535987917692081, -19.810950328461953 -13.662566157114716, -19.351480832063007 -13.941099265974229 M-19.351480832063007 -13.941099265974229 C-19.090532576448258 -14.07723580378311, -18.829584320833508 -14.21337234159199, -18.442139825880936 -14.415501886438705 M-19.351480832063007 -13.941099265974229 C-19.159594258182004 -14.041206368658733, -18.967707684300997 -14.141313471343237, -18.442139825880936 -14.415501886438705 M-18.442139825880936 -14.415501886438705 C-18.205984556847095 -14.520040818742828, -17.96982928781326 -14.62457975104695, -17.504272078069995 -14.830668117536344 M-18.442139825880936 -14.415501886438705 C-18.203284707929082 -14.52123596177066, -17.96442958997723 -14.626970037102616, -17.504272078069995 -14.830668117536344 M-17.504272078069995 -14.830668117536344 C-17.274188309538946 -14.91534107122681, -17.044104541007897 -15.000014024917279, -16.54173148837794 -15.184891952170695 M-17.504272078069995 -14.830668117536344 C-17.2427191176763 -14.926922024730285, -16.98116615728261 -15.023175931924227, -16.54173148837794 -15.184891952170695 M-16.54173148837794 -15.184891952170695 C-16.2721830153088 -15.264892524088808, -16.002634542239658 -15.34489309600692, -15.558473342552134 -15.476717808624466 M-16.54173148837794 -15.184891952170695 C-16.257197400303692 -15.269340175961226, -15.972663312229445 -15.353788399751757, -15.558473342552134 -15.476717808624466 M-15.558473342552134 -15.476717808624466 C-15.30956762970792 -15.533528913319586, -15.06066191686371 -15.590340018014706, -14.558538059221963 -15.704946511857043 M-15.558473342552134 -15.476717808624466 C-15.234773110633625 -15.550600274218445, -14.911072878715116 -15.624482739812422, -14.558538059221963 -15.704946511857043 M-14.558538059221963 -15.704946511857043 C-14.259379815034993 -15.75331209677036, -13.960221570848024 -15.801677681683676, -13.546034586952107 -15.868640221171937 M-14.558538059221963 -15.704946511857043 C-14.324435396118306 -15.742794414934377, -14.090332733014648 -15.78064231801171, -13.546034586952107 -15.868640221171937 M-13.546034586952107 -15.868640221171937 C-13.322740055402527 -15.89018117607956, -13.099445523852946 -15.911722130987185, -12.525123519691407 -15.967126284005381 M-13.546034586952107 -15.868640221171937 C-13.225879121375302 -15.89952523389285, -12.905723655798498 -15.930410246613764, -12.525123519691407 -15.967126284005381 M-12.525123519691407 -15.967126284005381 C-12.234457997549965 -15.97644736155434, -11.943792475408522 -15.9857684391033, -11.500000000000005 -16 M-12.525123519691407 -15.967126284005381 C-12.205718482251097 -15.977368981871901, -11.886313444810785 -15.987611679738423, -11.500000000000005 -16 M-11.500000000000005 -16 C-11.500000000000004 -16, -11.500000000000002 -16, -11.5 -16 M-11.500000000000005 -16 C-11.500000000000004 -16, -11.500000000000002 -16, -11.5 -16" stroke="#999" stroke-width="1.3" fill="none" stroke-dasharray="0 0" style=""/></g><g class="label" style="" transform="translate(0, -8.5)"><rect/><g><rect class="background" style="stroke: none"/><text y="-10.1" style=""><tspan class="text-outer-tspan row" x="0" y="-0.1em" dy="1.1em"><tspan font-style="normal" class="text-inner-tspan" font-weight="normal">开始</tspan></tspan></text></g></g></g><g class="node default" id="my-svg-flowchart-Request-1" data-look="classic" transform="translate(681.7890625, 113.5)"><rect class="basic label-container" style="" x="-86.08203125" y="-23.5" width="172.1640625" height="47"/><g class="label" style="" transform="translate(0, -8.5)"><rect/><g><rect class="background" style="stroke: none"/><text y="-10.1" style=""><tspan class="text-outer-tspan row" x="0" y="-0.1em" dy="1.1em"><tspan font-style="normal" class="text-inner-tspan" font-weight="normal">请求</tspan><tspan font-style="normal" class="text-inner-tspan" font-weight="normal"> DeepSeek</tspan></tspan></text></g></g></g><g class="node default" id="my-svg-flowchart-Check-3" data-look="classic" transform="translate(681.7890625, 266.5)"><polygon points="79.5,0 159,-79.5 79.5,-159 0,-79.5" class="label-container" transform="translate(-79, 79.5)"/><g class="label" style="" transform="translate(0, -8.5)"><rect/><g><rect class="background" style="stroke: none"/><text y="-10.1" style=""><tspan class="text-outer-tspan row" x="0" y="-0.1em" dy="1.1em"><tspan font-style="normal" class="text-inner-tspan" font-weight="normal">返回什么信号？</tspan></tspan></text></g></g></g><g class="node default" id="my-svg-flowchart-Done-5" data-look="classic" transform="translate(110, 488.5)"><rect class="basic label-container" style="" x="-102" y="-32.29999923706055" width="204" height="64.5999984741211"/><g class="label" style="" transform="translate(0, -17.299999237060547)"><rect/><g><rect class="background" style="stroke: none"/><text y="-10.1" style=""><tspan class="text-outer-tspan row" x="0" y="-0.1em" dy="1.1em"><tspan font-style="normal" class="text-inner-tspan" font-weight="normal">回到</tspan><tspan font-style="normal" class="text-inner-tspan" font-weight="normal"> Agent</tspan><tspan font-style="normal" class="text-inner-tspan" font-weight="normal"> Loop</tspan></tspan><tspan class="text-outer-tspan row" x="0" y="1em" dy="1.1em"><tspan font-style="normal" class="text-inner-tspan" font-weight="normal">执行工具或输出答案</tspan></tspan></text></g></g></g><g class="node default" id="my-svg-flowchart-L1-7" data-look="classic" transform="translate(333.5, 488.5)"><polygon points="71.5,0 143,-71.5 71.5,-143 0,-71.5" class="label-container" transform="translate(-71, 71.5)"/><g class="label" style="" transform="translate(0, -8.5)"><rect/><g><rect class="background" style="stroke: none"/><text y="-10.1" style=""><tspan class="text-outer-tspan row" x="0" y="-0.1em" dy="1.1em"><tspan font-style="normal" class="text-inner-tspan" font-weight="normal">第一次截断？</tspan></tspan></text></g></g></g><g class="node default" id="my-svg-flowchart-L2-9" data-look="classic" transform="translate(221.75, 710.5)"><rect class="basic label-container" style="" x="-118.9140625" y="-32.29999923706055" width="237.828125" height="64.5999984741211"/><g class="label" style="" transform="translate(0, -17.299999237060547)"><rect/><g><rect class="background" style="stroke: none"/><text y="-10.1" style=""><tspan class="text-outer-tspan row" x="0" y="-0.1em" dy="1.1em"><tspan font-style="normal" class="text-inner-tspan" font-weight="normal">扩大输出上限</tspan></tspan><tspan class="text-outer-tspan row" x="0" y="1em" dy="1.1em"><tspan font-style="normal" class="text-inner-tspan" font-weight="normal">用原</tspan><tspan font-style="normal" class="text-inner-tspan" font-weight="normal"> messages</tspan><tspan font-style="normal" class="text-inner-tspan" font-weight="normal"> 重新请求</tspan></tspan></text></g></g></g><g class="node default" id="my-svg-flowchart-L3-11" data-look="classic" transform="translate(470.1640625, 710.5)"><polygon points="79.5,0 159,-79.5 79.5,-159 0,-79.5" class="label-container" transform="translate(-79, 79.5)"/><g class="label" style="" transform="translate(0, -8.5)"><rect/><g><rect class="background" style="stroke: none"/><text y="-10.1" style=""><tspan class="text-outer-tspan row" x="0" y="-0.1em" dy="1.1em"><tspan font-style="normal" class="text-inner-tspan" font-weight="normal">工具调用完整？</tspan></tspan></text></g></g></g><g class="node default" id="my-svg-flowchart-Stop-13" data-look="classic" transform="translate(686.4140625, 1164.099998474121)"><rect class="basic label-container" style="" x="-62" y="-23.5" width="124" height="47"/><g class="label" style="" transform="translate(0, -8.5)"><rect/><g><rect class="background" style="stroke: none"/><text y="-10.1" style=""><tspan class="text-outer-tspan row" x="0" y="-0.1em" dy="1.1em"><tspan font-style="normal" class="text-inner-tspan" font-weight="normal">明确停止</tspan></tspan></text></g></g></g><g class="node default" id="my-svg-flowchart-L4-15" data-look="classic" transform="translate(540.4140625, 956.5)"><polygon points="95.5,0 191,-95.5 95.5,-191 0,-95.5" class="label-container" transform="translate(-95, 95.5)"/><g class="label" style="" transform="translate(0, -8.5)"><rect/><g><rect class="background" style="stroke: none"/><text y="-10.1" style=""><tspan class="text-outer-tspan row" x="0" y="-0.1em" dy="1.1em"><tspan font-style="normal" class="text-inner-tspan" font-weight="normal">续写次数还没用完？</tspan></tspan></text></g></g></g><g class="node default" id="my-svg-flowchart-L5-17" data-look="classic" transform="translate(170.0390625, 1164.099998474121)"><rect class="basic label-container" style="" x="-78" y="-41.099998474121094" width="156" height="82.19999694824219"/><g class="label" style="" transform="translate(0, -26.099998474121094)"><rect/><g><rect class="background" style="stroke: none"/><text y="-10.1" style=""><tspan class="text-outer-tspan row" x="0" y="-0.1em" dy="1.1em"><tspan font-style="normal" class="text-inner-tspan" font-weight="normal">保存文本片段</tspan></tspan><tspan class="text-outer-tspan row" x="0" y="1em" dy="1.1em"><tspan font-style="normal" class="text-inner-tspan" font-weight="normal">追加续写提示</tspan></tspan><tspan class="text-outer-tspan row" x="0" y="2.1em" dy="1.1em"><tspan font-style="normal" class="text-inner-tspan" font-weight="normal">重新请求</tspan></tspan></text></g></g></g><g class="node default" id="my-svg-flowchart-C1-21" data-look="classic" transform="translate(770.2890625, 956.5)"><polygon points="71.5,0 143,-71.5 71.5,-143 0,-71.5" class="label-container" transform="translate(-71, 71.5)"/><g class="label" style="" transform="translate(0, -8.5)"><rect/><g><rect class="background" style="stroke: none"/><text y="-10.1" style=""><tspan class="text-outer-tspan row" x="0" y="-0.1em" dy="1.1em"><tspan font-style="normal" class="text-inner-tspan" font-weight="normal">已经压缩过？</tspan></tspan></text></g></g></g><g class="node default" id="my-svg-flowchart-C2-23" data-look="classic" transform="translate(388.7890625, 1164.099998474121)"><rect class="basic label-container" style="" x="-90.75" y="-32.29999923706055" width="181.5" height="64.5999984741211"/><g class="label" style="" transform="translate(0, -17.299999237060547)"><rect/><g><rect class="background" style="stroke: none"/><text y="-10.1" style=""><tspan class="text-outer-tspan row" x="0" y="-0.1em" dy="1.1em"><tspan font-style="normal" class="text-inner-tspan" font-weight="normal">reactive</tspan><tspan font-style="normal" class="text-inner-tspan" font-weight="normal"> compact</tspan></tspan><tspan class="text-outer-tspan row" x="0" y="1em" dy="1.1em"><tspan font-style="normal" class="text-inner-tspan" font-weight="normal">重新请求</tspan></tspan></text></g></g></g><g class="node default" id="my-svg-flowchart-R1-27" data-look="classic" transform="translate(1001.7890625, 956.5)"><polygon points="95.5,0 191,-95.5 95.5,-191 0,-95.5" class="label-container" transform="translate(-95, 95.5)"/><g class="label" style="" transform="translate(0, -8.5)"><rect/><g><rect class="background" style="stroke: none"/><text y="-10.1" style=""><tspan class="text-outer-tspan row" x="0" y="-0.1em" dy="1.1em"><tspan font-style="normal" class="text-inner-tspan" font-weight="normal">重试次数还没用完？</tspan></tspan></text></g></g></g><g class="node default" id="my-svg-flowchart-R2-29" data-look="classic" transform="translate(1067.0390625, 1164.099998474121)"><rect class="basic label-container" style="" x="-94" y="-41.099998474121094" width="188" height="82.19999694824219"/><g class="label" style="" transform="translate(0, -26.099998474121094)"><rect/><g><rect class="background" style="stroke: none"/><text y="-10.1" style=""><tspan class="text-outer-tspan row" x="0" y="-0.1em" dy="1.1em"><tspan font-style="normal" class="text-inner-tspan" font-weight="normal">等待</tspan><tspan font-style="normal" class="text-inner-tspan" font-weight="normal"> +</tspan><tspan font-style="normal" class="text-inner-tspan" font-weight="normal"> 抖动</tspan></tspan><tspan class="text-outer-tspan row" x="0" y="1em" dy="1.1em"><tspan font-style="normal" class="text-inner-tspan" font-weight="normal">必要时切备用模型</tspan></tspan><tspan class="text-outer-tspan row" x="0" y="2.1em" dy="1.1em"><tspan font-style="normal" class="text-inner-tspan" font-weight="normal">重新请求</tspan></tspan></text></g></g></g></g></g></g><defs><filter id="my-svg-drop-shadow" height="130%" width="130%"><feDropShadow dx="4" dy="4" stdDeviation="0" flood-opacity="0.06" flood-color="#000000"/></filter></defs><defs><filter id="my-svg-drop-shadow-small" height="150%" width="150%"><feDropShadow dx="2" dy="2" stdDeviation="0" flood-opacity="0.06" flood-color="#000000"/></filter></defs><linearGradient id="my-svg-gradient" gradientUnits="objectBoundingBox" x1="0%" y1="0%" x2="100%" y2="0%"><stop offset="0%" stop-color="hsl(0, 0%, 83.3333333333%)" stop-opacity="1"/><stop offset="100%" stop-color="hsl(0, 0%, 88.9215686275%)" stop-opacity="1"/></linearGradient></svg>