<svg width="437.76953125" height="680.25" id="my-svg" xmlns="http://www.w3.org/2000/svg" xmlns:xlink="http://www.w3.org/1999/xlink" class="classDiagram" style="max-width: 437.77px; background-color: white;" viewBox="0 0 437.76953125 680.25" role="graphics-document document" aria-roledescription="class"><style>#my-svg{font-family:"trebuchet ms",verdana,arial,sans-serif;font-size:16px;fill:#000000;}@keyframes edge-animation-frame{from{stroke-dashoffset:0;}}@keyframes dash{to{stroke-dashoffset:0;}}#my-svg .edge-animation-slow{stroke-dasharray:9,5!important;stroke-dashoffset:900;animation:dash 50s linear infinite;stroke-linecap:round;}#my-svg .edge-animation-fast{stroke-dasharray:9,5!important;stroke-dashoffset:900;animation:dash 20s linear infinite;stroke-linecap:round;}#my-svg .error-icon{fill:#552222;}#my-svg .error-text{fill:#552222;stroke:#552222;}#my-svg .edge-thickness-normal{stroke-width:1px;}#my-svg .edge-thickness-thick{stroke-width:3.5px;}#my-svg .edge-pattern-solid{stroke-dasharray:0;}#my-svg .edge-thickness-invisible{stroke-width:0;fill:none;}#my-svg .edge-pattern-dashed{stroke-dasharray:3;}#my-svg .edge-pattern-dotted{stroke-dasharray:2;}#my-svg .marker{fill:#666;stroke:#666;}#my-svg .marker.cross{stroke:#666;}#my-svg svg{font-family:"trebuchet ms",verdana,arial,sans-serif;font-size:16px;}#my-svg p{margin:0;}#my-svg g.classGroup text{fill:#999;stroke:none;font-family:"trebuchet ms",verdana,arial,sans-serif;font-size:10px;}#my-svg g.classGroup text .title{font-weight:bolder;}#my-svg .cluster-label text{fill:#333;}#my-svg .cluster-label span{color:#333;}#my-svg .cluster-label span p{background-color:transparent;}#my-svg .cluster rect{fill:hsl(0, 0%, 98.9215686275%);stroke:#707070;stroke-width:1px;}#my-svg .cluster text{fill:#333;}#my-svg .cluster span{color:#333;}#my-svg .nodeLabel,#my-svg .edgeLabel{color:#111111;}#my-svg .noteLabel .nodeLabel,#my-svg .noteLabel .edgeLabel{color:#fff;}#my-svg .edgeLabel .label rect{fill:#eee;}#my-svg .label text{fill:#111111;}#my-svg .labelBkg{background:#eee;}#my-svg .edgeLabel .label span{background:#eee;}#my-svg .classTitle{font-weight:bolder;}#my-svg .node rect,#my-svg .node circle,#my-svg .node ellipse,#my-svg .node polygon,#my-svg .node path{fill:#eee;stroke:#999;stroke-width:1;}#my-svg .divider{stroke:#999;stroke-width:1;}#my-svg g.clickable{cursor:pointer;}#my-svg g.classGroup rect{fill:#eee;stroke:#999;}#my-svg g.classGroup line{stroke:#999;stroke-width:1;}#my-svg .classLabel .box{stroke:none;stroke-width:0;fill:#eee;opacity:0.5;}#my-svg .classLabel .label{fill:#999;font-size:10px;}#my-svg .relation{stroke:#666;stroke-width:1;fill:none;}#my-svg .dashed-line{stroke-dasharray:3;}#my-svg .dotted-line{stroke-dasharray:1 2;}#my-svg [id$="-compositionStart"],#my-svg .composition{fill:#666!important;stroke:#666!important;stroke-width:1;}#my-svg [id$="-compositionEnd"],#my-svg .composition{fill:#666!important;stroke:#666!important;stroke-width:1;}#my-svg [id$="-dependencyStart"],#my-svg .dependency{fill:#666!important;stroke:#666!important;stroke-width:1;}#my-svg [id$="-dependencyEnd"],#my-svg .dependency{fill:#666!important;stroke:#666!important;stroke-width:1;}#my-svg [id$="-extensionStart"],#my-svg .extension{fill:transparent!important;stroke:#666!important;stroke-width:1;}#my-svg [id$="-extensionEnd"],#my-svg .extension{fill:transparent!important;stroke:#666!important;stroke-width:1;}#my-svg [id$="-aggregationStart"],#my-svg .aggregation{fill:transparent!important;stroke:#666!important;stroke-width:1;}#my-svg [id$="-aggregationEnd"],#my-svg .aggregation{fill:transparent!important;stroke:#666!important;stroke-width:1;}#my-svg [id$="-lollipopStart"],#my-svg .lollipop{fill:#eee!important;stroke:#666!important;stroke-width:1;}#my-svg [id$="-lollipopEnd"],#my-svg .lollipop{fill:#eee!important;stroke:#666!important;stroke-width:1;}#my-svg .edgeTerminals{font-size:11px;line-height:initial;}#my-svg .classTitleText{text-anchor:middle;font-size:18px;fill:#000000;}#my-svg .edgeLabel[data-look="neo"]{background-color:white;text-align:center;}#my-svg .edgeLabel[data-look="neo"] p{background-color:white;}#my-svg .edgeLabel[data-look="neo"] rect{opacity:0.5;background-color:white;fill:white;}#my-svg .label-icon{display:inline-block;height:1em;overflow:visible;vertical-align:-0.125em;}#my-svg .node .label-icon path{fill:currentColor;stroke:revert;stroke-width:revert;}#my-svg .node .neo-node{stroke:#999;}#my-svg [data-look="neo"].node rect,#my-svg [data-look="neo"].cluster rect,#my-svg [data-look="neo"].node polygon{stroke:url(#my-svg-gradient);filter:drop-shadow( 1px 2px 2px rgba(185,185,185,1));}#my-svg [data-look="neo"].node path{stroke:url(#my-svg-gradient);stroke-width:1px;}#my-svg [data-look="neo"].node .outer-path{filter:drop-shadow( 1px 2px 2px rgba(185,185,185,1));}#my-svg [data-look="neo"].node .neo-line path{stroke:#999;filter:none;}#my-svg [data-look="neo"].node circle{stroke:url(#my-svg-gradient);filter:drop-shadow( 1px 2px 2px rgba(185,185,185,1));}#my-svg [data-look="neo"].node circle .state-start{fill:#000000;}#my-svg [data-look="neo"].icon-shape .icon{fill:url(#my-svg-gradient);filter:drop-shadow( 1px 2px 2px rgba(185,185,185,1));}#my-svg [data-look="neo"].icon-shape .icon-neo path{stroke:url(#my-svg-gradient);filter:drop-shadow( 1px 2px 2px rgba(185,185,185,1));}#my-svg :root{--mermaid-font-family:"trebuchet ms",verdana,arial,sans-serif;}</style><g><defs><marker id="my-svg_class-aggregationStart" class="marker aggregation class" refX="18" refY="7" markerWidth="190" markerHeight="240" orient="auto"><path d="M 18,7 L9,13 L1,7 L9,1 Z"/></marker></defs><defs><marker id="my-svg_class-aggregationEnd" class="marker aggregation class" refX="1" refY="7" markerWidth="20" markerHeight="28" orient="auto"><path d="M 18,7 L9,13 L1,7 L9,1 Z"/></marker></defs><defs><marker id="my-svg_class-aggregationStart-margin" class="marker aggregation class" refX="15" refY="7" markerWidth="190" markerHeight="240" orient="auto" markerUnits="userSpaceOnUse"><path d="M 18,7 L9,13 L1,7 L9,1 Z" style="stroke-width: 2;"/></marker></defs><defs><marker id="my-svg_class-aggregationEnd-margin" class="marker aggregation class" refX="1" refY="7" markerWidth="20" markerHeight="28" orient="auto" markerUnits="userSpaceOnUse"><path d="M 18,7 L9,13 L1,7 L9,1 Z" style="stroke-width: 2;"/></marker></defs><defs><marker id="my-svg_class-extensionStart" class="marker extension class" refX="18" refY="7" markerWidth="20" markerHeight="28" orient="auto" markerUnits="userSpaceOnUse"><path d="M 1,7 L18,13 V 1 Z"/></marker></defs><defs><marker id="my-svg_class-extensionEnd" class="marker extension class" refX="1" refY="7" markerWidth="20" markerHeight="28" orient="auto"><path d="M 1,1 V 13 L18,7 Z"/></marker></defs><marker id="my-svg_class-extensionStart-margin" class="marker extension class" refX="18" refY="7" markerWidth="20" markerHeight="28" orient="auto" markerUnits="userSpaceOnUse" viewBox="0 0 20 14"><polygon points="10,7 18,13 18,1" style="stroke-width: 2; stroke-dasharray: 0;"/></marker><defs><marker id="my-svg_class-extensionEnd-margin" class="marker extension class" refX="9" refY="7" markerWidth="20" markerHeight="28" orient="auto" markerUnits="userSpaceOnUse" viewBox="0 0 20 14"><polygon points="10,1 10,13 18,7" style="stroke-width: 2; stroke-dasharray: 0;"/></marker></defs><defs><marker id="my-svg_class-compositionStart" class="marker composition class" refX="18" refY="7" markerWidth="190" markerHeight="240" orient="auto"><path d="M 18,7 L9,13 L1,7 L9,1 Z"/></marker></defs><defs><marker id="my-svg_class-compositionEnd" class="marker composition class" refX="1" refY="7" markerWidth="20" markerHeight="28" orient="auto"><path d="M 18,7 L9,13 L1,7 L9,1 Z"/></marker></defs><defs><marker id="my-svg_class-compositionStart-margin" class="marker composition class" refX="15" refY="7" markerWidth="190" markerHeight="240" orient="auto" markerUnits="userSpaceOnUse"><path viewBox="0 0 15 15" d="M 18,7 L9,13 L1,7 L9,1 Z" style="stroke-width: 0;"/></marker></defs><defs><marker id="my-svg_class-compositionEnd-margin" class="marker composition class" refX="3.5" refY="7" markerWidth="20" markerHeight="28" orient="auto" markerUnits="userSpaceOnUse"><path d="M 18,7 L9,13 L1,7 L9,1 Z" style="stroke-width: 0;"/></marker></defs><defs><marker id="my-svg_class-dependencyStart" class="marker dependency class" refX="6" refY="7" markerWidth="190" markerHeight="240" orient="auto"><path d="M 5,7 L9,13 L1,7 L9,1 Z"/></marker></defs><defs><marker id="my-svg_class-dependencyEnd" class="marker dependency class" refX="13" refY="7" markerWidth="20" markerHeight="28" orient="auto"><path d="M 18,7 L9,13 L14,7 L9,1 Z"/></marker></defs><defs><marker id="my-svg_class-dependencyStart-margin" class="marker dependency class" refX="4" refY="7" markerWidth="190" markerHeight="240" orient="auto" markerUnits="userSpaceOnUse"><path d="M 5,7 L9,13 L1,7 L9,1 Z" style="stroke-width: 0;"/></marker></defs><defs><marker id="my-svg_class-dependencyEnd-margin" class="marker dependency class" refX="16" refY="7" markerWidth="20" markerHeight="28" orient="auto" markerUnits="userSpaceOnUse"><path d="M 18,7 L9,13 L14,7 L9,1 Z" style="stroke-width: 0;"/></marker></defs><defs><marker id="my-svg_class-lollipopStart" class="marker lollipop class" refX="13" refY="7" markerWidth="190" markerHeight="240" orient="auto"><circle fill="transparent" cx="7" cy="7" r="6"/></marker></defs><defs><marker id="my-svg_class-lollipopEnd" class="marker lollipop class" refX="1" refY="7" markerWidth="190" markerHeight="240" orient="auto"><circle fill="transparent" cx="7" cy="7" r="6"/></marker></defs><defs><marker id="my-svg_class-lollipopStart-margin" class="marker lollipop class" refX="13" refY="7" markerWidth="190" markerHeight="240" orient="auto" markerUnits="userSpaceOnUse"><circle fill="transparent" cx="7" cy="7" r="6" stroke-width="2"/></marker></defs><defs><marker id="my-svg_class-lollipopEnd-margin" class="marker lollipop class" refX="1" refY="7" markerWidth="190" markerHeight="240" orient="auto" markerUnits="userSpaceOnUse"><circle fill="transparent" cx="7" cy="7" r="6" stroke-width="2"/></marker></defs><g class="root"><g class="clusters"/><g class="edgePaths"><path d="M176.821,212L172.554,218.083C168.287,224.167,159.753,236.333,155.486,247.5C151.219,258.667,151.219,268.833,151.219,273.917L151.219,279" id="my-svg-id_TaskBoard_Task_1" class="edge-thickness-normal edge-pattern-solid relation" style=";;;" data-edge="true" data-et="edge" data-id="id_TaskBoard_Task_1" data-points="W3sieCI6MTc2LjgyMDUzMTA4MDc3NjE2LCJ5IjoyMTJ9LHsieCI6MTUxLjIxODc1LCJ5IjoyNDguNX0seyJ4IjoxNTEuMjE4NzUsInkiOjI4NX1d" data-look="classic" marker-end="url(#my-svg_class-dependencyEnd)"/><path d="M319.91,212L324.177,218.083C328.444,224.167,336.978,236.333,341.245,260.333C345.512,284.333,345.512,320.167,345.512,338.083L345.512,356" id="my-svg-id_TaskBoard_Disk_2" class="edge-thickness-normal edge-pattern-solid relation" style=";;;" data-edge="true" data-et="edge" data-id="id_TaskBoard_Disk_2" data-points="W3sieCI6MzE5LjkwOTkzNzY2OTIyMzg0LCJ5IjoyMTJ9LHsieCI6MzQ1LjUxMTcxODc1LCJ5IjoyNDguNX0seyJ4IjozNDUuNTExNzE4NzUsInkiOjM2Mn1d" data-look="classic" marker-end="url(#my-svg_class-dependencyEnd)"/><path d="M105.476,549L104.032,553.167C102.588,557.333,99.7,565.667,98.256,574C96.813,582.333,96.813,590.667,96.813,594.833L96.813,599" id="my-svg-Task-cyclic-special-1" class="edge-thickness-normal edge-pattern-solid relation" style=";;;" data-edge="true" data-et="edge" data-id="Task-cyclic-special-1" data-points="W3sieCI6MTA1LjQ3NTkxNTYwNTA5NTU0LCJ5Ijo1NDl9LHsieCI6OTYuODEyNSwieSI6NTc0fSx7IngiOjk2LjgxMjUsInkiOjU5OX1d" data-look="classic"/><path d="M96.813,599.1L96.813,605.183C96.813,611.267,96.813,623.433,105.872,635.603C114.931,647.772,133.05,659.944,142.109,666.03L151.169,672.116" id="my-svg-Task-cyclic-special-mid" class="edge-thickness-normal edge-pattern-solid relation" style=";;;" data-edge="true" data-et="edge" data-id="Task-cyclic-special-mid" data-points="W3sieCI6OTYuODEyNSwieSI6NTk5LjEwMDAwMDAwMTQ5MDF9LHsieCI6OTYuODEyNSwieSI6NjM1LjYwMDAwMDAwMTQ5MDF9LHsieCI6MTUxLjE2ODc0OTk5OTI1NDk0LCJ5Ijo2NzIuMTE2NDEwMTEwODY2N31d" data-look="classic"/><path d="M151.269,672.116L160.328,666.03C169.388,659.944,187.506,647.772,196.566,635.594C205.625,623.417,205.625,611.233,205.625,600.967C205.625,590.7,205.625,582.35,204.509,574.953C203.392,567.556,201.159,561.113,200.043,557.891L198.926,554.669" id="my-svg-Task-cyclic-special-2" class="edge-thickness-normal edge-pattern-solid relation" style=";;;" data-edge="true" data-et="edge" data-id="Task-cyclic-special-2" data-points="W3sieCI6MTUxLjI2ODc1MDAwMDc0NTA2LCJ5Ijo2NzIuMTE2NDEwMTEwODY2N30seyJ4IjoyMDUuNjI1LCJ5Ijo2MzUuNjAwMDAwMDAxNDkwMX0seyJ4IjoyMDUuNjI1LCJ5Ijo1OTkuMDUwMDAwMDAwNzQ1MX0seyJ4IjoyMDUuNjI1LCJ5Ijo1NzR9LHsieCI6MTk2Ljk2MTU4NDM5NDkwNDQ2LCJ5Ijo1NDl9XQ==" data-look="classic" marker-end="url(#my-svg_class-dependencyEnd)"/></g><g class="edgeLabels"><g class="edgeLabel" transform="translate(151.21875, 248.5)"><g class="label" data-id="id_TaskBoard_Task_1" transform="translate(0, -10.5)"><g><rect class="background" style="" x="-58.390625" y="-1" width="116.78125" height="23"/><text y="-10.1" text-anchor="middle" style=""><tspan class="text-outer-tspan row" x="0" y="-0.1em" dy="1.1em" text-anchor="middle"><tspan font-style="normal" class="text-inner-tspan" font-weight="normal">创建/读取/更新</tspan></tspan></text></g></g></g><g class="edgeLabel" transform="translate(345.51171875, 248.5)"><g class="label" data-id="id_TaskBoard_Disk_2" transform="translate(0, -10.5)"><g><rect class="background" style="" x="-18" y="-1" width="36" height="23"/><text y="-10.1" text-anchor="middle" style=""><tspan class="text-outer-tspan row" x="0" y="-0.1em" dy="1.1em" text-anchor="middle"><tspan font-style="normal" class="text-inner-tspan" font-weight="normal">落盘</tspan></tspan></text></g></g></g><g class="edgeLabel"><g class="label" data-id="Task-cyclic-special-1" transform="translate(0, 0)"><text y="-10.1" text-anchor="middle"><tspan class="text-outer-tspan row" x="0" y="-0.1em" dy="1.1em" text-anchor="middle"/></text></g></g><g><rect class="background" style="stroke: none"/></g><g class="edgeLabel" transform="translate(96.8125, 635.6000000014901)"><g class="label" data-id="Task-cyclic-special-mid" transform="translate(0, -10.5)"><g><rect class="background" style="" x="-88.8125" y="-1" width="177.625" height="23"/><text y="-10.1" text-anchor="middle" style=""><tspan class="text-outer-tspan row" x="0" y="-0.1em" dy="1.1em" text-anchor="middle"><tspan font-style="normal" class="text-inner-tspan" font-weight="normal">blockedBy</tspan><tspan font-style="normal" class="text-inner-tspan" font-weight="normal"> 指向上游任务</tspan></tspan></text></g></g></g><g class="edgeLabel"><g class="label" data-id="Task-cyclic-special-2" transform="translate(0, 0)"><text y="-10.1" text-anchor="middle"><tspan class="text-outer-tspan row" x="0" y="-0.1em" dy="1.1em" text-anchor="middle"/></text></g></g><g><rect class="background" style="stroke: none"/></g></g><g class="nodes"><g class="node default" id="my-svg-classId-Task-0" data-look="classic" transform="translate(151.21875, 417)"><g class="basic label-container outer-path"><path d="M-60.03515625 -132 L60.03515625 -132 L60.03515625 132 L-60.03515625 132" stroke="none" stroke-width="0" fill="#eee" style=""/><path d="M-60.03515625 -132 C-30.26732601075558 -132, -0.49949577151115676 -132, 60.03515625 -132 M-60.03515625 -132 C-16.23259039915854 -132, 27.56997545168292 -132, 60.03515625 -132 M60.03515625 -132 C60.03515625 -56.36470506694823, 60.03515625 19.270589866103535, 60.03515625 132 M60.03515625 -132 C60.03515625 -74.56887614816517, 60.03515625 -17.137752296330333, 60.03515625 132 M60.03515625 132 C32.76129934032082 132, 5.487442430641629 132, -60.03515625 132 M60.03515625 132 C24.20274234887001 132, -11.629671552259978 132, -60.03515625 132 M-60.03515625 132 C-60.03515625 41.09131926344074, -60.03515625 -49.817361473118524, -60.03515625 -132 M-60.03515625 132 C-60.03515625 61.39027481907931, -60.03515625 -9.219450361841382, -60.03515625 -132" stroke="#999" stroke-width="1.3" fill="none" stroke-dasharray="0 0" style=""/></g><g class="annotation-group text" transform="translate(0, -112)"/><g class="label-group text" transform="translate(-16.1015625, -112)"><g class="label" style="font-weight: bolder" transform="translate(0,-9.5)"><g><rect class="background" style="stroke: none"/><text y="-10.1" style=""><tspan class="text-outer-tspan row" x="0" y="-0.1em" dy="1.1em" font-weight=""><tspan font-style="normal" class="text-inner-tspan" font-weight="">Task</tspan></tspan></text></g></g></g><g class="members-group text" transform="translate(-48.03515625, -69)"><g class="label" style="" transform="translate(0,-9.5)"><g><rect class="background" style="stroke: none"/><text y="-10.1" style=""><tspan class="text-outer-tspan row" x="0" y="-0.1em" dy="1.1em"><tspan font-style="normal" class="text-inner-tspan" font-weight="normal">id</tspan></tspan></text></g></g><g class="label" style="" transform="translate(0,12.5)"><g><rect class="background" style="stroke: none"/><text y="-10.1" style=""><tspan class="text-outer-tspan row" x="0" y="-0.1em" dy="1.1em"><tspan font-style="normal" class="text-inner-tspan" font-weight="normal">subject</tspan></tspan></text></g></g><g class="label" style="" transform="translate(0,34.5)"><g><rect class="background" style="stroke: none"/><text y="-10.1" style=""><tspan class="text-outer-tspan row" x="0" y="-0.1em" dy="1.1em"><tspan font-style="normal" class="text-inner-tspan" font-weight="normal">description</tspan></tspan></text></g></g><g class="label" style="" transform="translate(0,56.5)"><g><rect class="background" style="stroke: none"/><text y="-10.1" style=""><tspan class="text-outer-tspan row" x="0" y="-0.1em" dy="1.1em"><tspan font-style="normal" class="text-inner-tspan" font-weight="normal">status</tspan></tspan></text></g></g><g class="label" style="" transform="translate(0,78.5)"><g><rect class="background" style="stroke: none"/><text y="-10.1" style=""><tspan class="text-outer-tspan row" x="0" y="-0.1em" dy="1.1em"><tspan font-style="normal" class="text-inner-tspan" font-weight="normal">owner</tspan></tspan></text></g></g><g class="label" style="" transform="translate(0,100.5)"><g><rect class="background" style="stroke: none"/><text y="-10.1" style=""><tspan class="text-outer-tspan row" x="0" y="-0.1em" dy="1.1em"><tspan font-style="normal" class="text-inner-tspan" font-weight="normal">blockedBy</tspan></tspan></text></g></g><g class="label" style="" transform="translate(0,122.5)"><g><rect class="background" style="stroke: none"/><text y="-10.1" style=""><tspan class="text-outer-tspan row" x="0" y="-0.1em" dy="1.1em"><tspan font-style="normal" class="text-inner-tspan" font-weight="normal">createdAt</tspan></tspan></text></g></g><g class="label" style="" transform="translate(0,144.5)"><g><rect class="background" style="stroke: none"/><text y="-10.1" style=""><tspan class="text-outer-tspan row" x="0" y="-0.1em" dy="1.1em"><tspan font-style="normal" class="text-inner-tspan" font-weight="normal">updatedAt</tspan></tspan></text></g></g></g><g class="methods-group text" transform="translate(-48.03515625, 128)"/><g class="divider" style=""><path d="M-60.03515625 -89 C-12.459555122066753 -88.99960376882397, 35.116046005866494 -88.99920753764793, 60.03515625 -88.999 M-60.03515625 -89 C-30.204121575828342 -88.99975155361844, -0.37308690165668423 -88.99950310723686, 60.03515625 -88.999" stroke="#999" stroke-width="1.3" fill="none" stroke-dasharray="0 0" style=""/></g><g class="divider" style=""><path d="M-60.03515625 108 C-23.666654284631605 108.00030289337313, 12.70184768073679 108.00060578674625, 60.03515625 108.001 M-60.03515625 108 C-29.911221705512315 108.00025088578448, 0.21271283897537074 108.00050177156896, 60.03515625 108.001" stroke="#999" stroke-width="1.3" fill="none" stroke-dasharray="0 0" style=""/></g></g><g class="node default" id="my-svg-classId-TaskBoard-1" data-look="classic" transform="translate(248.365234375, 110)"><g class="basic label-container outer-path"><path d="M-89.18359375 -102 L89.18359375 -102 L89.18359375 102 L-89.18359375 102" stroke="none" stroke-width="0" fill="#eee" style=""/><path d="M-89.18359375 -102 C-18.194569782329168 -102, 52.794454185341664 -102, 89.18359375 -102 M-89.18359375 -102 C-42.86807852447126 -102, 3.447436701057484 -102, 89.18359375 -102 M89.18359375 -102 C89.18359375 -54.48301640570487, 89.18359375 -6.966032811409747, 89.18359375 102 M89.18359375 -102 C89.18359375 -22.9832917460497, 89.18359375 56.0334165079006, 89.18359375 102 M89.18359375 102 C24.340272856559565 102, -40.50304803688087 102, -89.18359375 102 M89.18359375 102 C30.6825788115301 102, -27.8184361269398 102, -89.18359375 102 M-89.18359375 102 C-89.18359375 51.475445690146316, -89.18359375 0.9508913802926315, -89.18359375 -102 M-89.18359375 102 C-89.18359375 33.18122638418629, -89.18359375 -35.63754723162742, -89.18359375 -102" stroke="#999" stroke-width="1.3" fill="none" stroke-dasharray="0 0" style=""/></g><g class="annotation-group text" transform="translate(0, -82)"/><g class="label-group text" transform="translate(-37.7109375, -82)"><g class="label" style="font-weight: bolder" transform="translate(0,-9.5)"><g><rect class="background" style="stroke: none"/><text y="-10.1" style=""><tspan class="text-outer-tspan row" x="0" y="-0.1em" dy="1.1em" font-weight=""><tspan font-style="normal" class="text-inner-tspan" font-weight="">TaskBoard</tspan></tspan></text></g></g></g><g class="members-group text" transform="translate(-77.18359375, -39)"/><g class="methods-group text" transform="translate(-77.18359375, -9)"><g class="label" style="" transform="translate(0,-9.5)"><g><rect class="background" style="stroke: none"/><text y="-10.1" style=""><tspan class="text-outer-tspan row" x="0" y="-0.1em" dy="1.1em"><tspan font-style="normal" class="text-inner-tspan" font-weight="normal">create_task()</tspan></tspan></text></g></g><g class="label" style="" transform="translate(0,12.5)"><g><rect class="background" style="stroke: none"/><text y="-10.1" style=""><tspan class="text-outer-tspan row" x="0" y="-0.1em" dy="1.1em"><tspan font-style="normal" class="text-inner-tspan" font-weight="normal">list_tasks()</tspan></tspan></text></g></g><g class="label" style="" transform="translate(0,34.5)"><g><rect class="background" style="stroke: none"/><text y="-10.1" style=""><tspan class="text-outer-tspan row" x="0" y="-0.1em" dy="1.1em"><tspan font-style="normal" class="text-inner-tspan" font-weight="normal">get_task()</tspan></tspan></text></g></g><g class="label" style="" transform="translate(0,56.5)"><g><rect class="background" style="stroke: none"/><text y="-10.1" style=""><tspan class="text-outer-tspan row" x="0" y="-0.1em" dy="1.1em"><tspan font-style="normal" class="text-inner-tspan" font-weight="normal">claim_task()</tspan></tspan></text></g></g><g class="label" style="" transform="translate(0,78.5)"><g><rect class="background" style="stroke: none"/><text y="-10.1" style=""><tspan class="text-outer-tspan row" x="0" y="-0.1em" dy="1.1em"><tspan font-style="normal" class="text-inner-tspan" font-weight="normal">complete_task()</tspan></tspan></text></g></g></g><g class="divider" style=""><path d="M-89.18359375 -59 C-29.47135399417064 -58.999665228562534, 30.240885761658717 -58.999330457125076, 89.18359375 -58.999 M-89.18359375 -59 C-20.171773477323896 -58.99961309127963, 48.84004679535221 -58.99922618255925, 89.18359375 -58.999" stroke="#999" stroke-width="1.3" fill="none" stroke-dasharray="0 0" style=""/></g><g class="divider" style=""><path d="M-89.18359375 -35 C-45.84333629378545 -34.999757016646036, -2.5030788375708966 -34.99951403329207, 89.18359375 -34.999 M-89.18359375 -35 C-30.344549243987124 -34.99967012405516, 28.49449526202575 -34.99934024811031, 89.18359375 -34.999" stroke="#999" stroke-width="1.3" fill="none" stroke-dasharray="0 0" style=""/></g></g><g class="node default" id="my-svg-classId-Disk-2" data-look="classic" transform="translate(345.51171875, 417)"><g class="basic label-container outer-path"><path d="M-84.2578125 -55 L84.2578125 -55 L84.2578125 55 L-84.2578125 55" stroke="none" stroke-width="0" fill="#eee" style=""/><path d="M-84.2578125 -55 C-32.8647063688508 -55, 18.528399762298406 -55, 84.2578125 -55 M-84.2578125 -55 C-32.057215505544654 -55, 20.14338148891069 -55, 84.2578125 -55 M84.2578125 -55 C84.2578125 -24.713847603044943, 84.2578125 5.572304793910114, 84.2578125 55 M84.2578125 -55 C84.2578125 -20.743432742469253, 84.2578125 13.513134515061495, 84.2578125 55 M84.2578125 55 C30.785540187880024 55, -22.686732124239953 55, -84.2578125 55 M84.2578125 55 C26.665124122705564 55, -30.927564254588873 55, -84.2578125 55 M-84.2578125 55 C-84.2578125 23.943692044404912, -84.2578125 -7.112615911190176, -84.2578125 -55 M-84.2578125 55 C-84.2578125 12.200505838593593, -84.2578125 -30.598988322812815, -84.2578125 -55" stroke="#999" stroke-width="1.3" fill="none" stroke-dasharray="0 0" style=""/></g><g class="annotation-group text" transform="translate(0, -35)"/><g class="label-group text" transform="translate(-15.359375, -35)"><g class="label" style="font-weight: bolder" transform="translate(0,-9.5)"><g><rect class="background" style="stroke: none"/><text y="-10.1" style=""><tspan class="text-outer-tspan row" x="0" y="-0.1em" dy="1.1em" font-weight=""><tspan font-style="normal" class="text-inner-tspan" font-weight="">Disk</tspan></tspan></text></g></g></g><g class="members-group text" transform="translate(-72.2578125, 8)"><g class="label" style="" transform="translate(0,-9.5)"><g><rect class="background" style="stroke: none"/><text y="-10.1" style=""><tspan class="text-outer-tspan row" x="0" y="-0.1em" dy="1.1em"><tspan font-style="normal" class="text-inner-tspan" font-weight="normal">.tasks/task_*.json</tspan></tspan></text></g></g></g><g class="methods-group text" transform="translate(-72.2578125, 51)"/><g class="divider" style=""><path d="M-84.2578125 -12 C-35.05374458923355 -11.99970801480331, 14.150323321532895 -11.999416029606623, 84.2578125 -11.999 M-84.2578125 -12 C-35.40076423148916 -11.999710074076107, 13.456284037021675 -11.999420148152215, 84.2578125 -11.999" stroke="#999" stroke-width="1.3" fill="none" stroke-dasharray="0 0" style=""/></g><g class="divider" style=""><path d="M-84.2578125 31 C-39.21828267414494 31.000267272128777, 5.821247151710125 31.000534544257555, 84.2578125 31.001 M-84.2578125 31 C-37.967729902940995 31.000274693118797, 8.32235269411801 31.00054938623759, 84.2578125 31.001" stroke="#999" stroke-width="1.3" fill="none" stroke-dasharray="0 0" style=""/></g></g><g class="label edgeLabel" id="Task---Task---1" transform="translate(96.8125, 599.0500000007451)"><rect width="0.1" height="0.1"/><g class="label" style="" transform="translate(0, 0)"><rect/><g><rect class="background" style="stroke: none"/><text y="-10.1" style=""><tspan class="text-outer-tspan row" x="0" y="-0.1em" dy="1.1em"/></text></g></g></g><g class="label edgeLabel" id="Task---Task---2" transform="translate(151.21875, 672.1500000022352)"><rect width="0.1" height="0.1"/><g class="label" style="" transform="translate(0, 0)"><rect/><g><rect class="background" style="stroke: none"/><text y="-10.1" style=""><tspan class="text-outer-tspan row" x="0" y="-0.1em" dy="1.1em"/></text></g></g></g></g></g></g><defs><filter id="my-svg-drop-shadow" height="130%" width="130%"><feDropShadow dx="4" dy="4" stdDeviation="0" flood-opacity="0.06" flood-color="#000000"/></filter></defs><defs><filter id="my-svg-drop-shadow-small" height="150%" width="150%"><feDropShadow dx="2" dy="2" stdDeviation="0" flood-opacity="0.06" flood-color="#000000"/></filter></defs><linearGradient id="my-svg-gradient" gradientUnits="objectBoundingBox" x1="0%" y1="0%" x2="100%" y2="0%"><stop offset="0%" stop-color="hsl(0, 0%, 83.3333333333%)" stop-opacity="1"/><stop offset="100%" stop-color="hsl(0, 0%, 88.9215686275%)" stop-opacity="1"/></linearGradient></svg>