<svg width="1174.2890625" height="1213.199951171875" id="my-svg" xmlns="http://www.w3.org/2000/svg" xmlns:xlink="http://www.w3.org/1999/xlink" class="flowchart" style="max-width: 1174.29px; background-color: white;" viewBox="0 0 1174.2890625 1213.199951171875" role="graphics-document document" aria-roledescription="flowchart-v2"><style>#my-svg{font-family:"trebuchet ms",verdana,arial,sans-serif;font-size:16px;fill:#000000;}@keyframes edge-animation-frame{from{stroke-dashoffset:0;}}@keyframes dash{to{stroke-dashoffset:0;}}#my-svg .edge-animation-slow{stroke-dasharray:9,5!important;stroke-dashoffset:900;animation:dash 50s linear infinite;stroke-linecap:round;}#my-svg .edge-animation-fast{stroke-dasharray:9,5!important;stroke-dashoffset:900;animation:dash 20s linear infinite;stroke-linecap:round;}#my-svg .error-icon{fill:#552222;}#my-svg .error-text{fill:#552222;stroke:#552222;}#my-svg .edge-thickness-normal{stroke-width:1px;}#my-svg .edge-thickness-thick{stroke-width:3.5px;}#my-svg .edge-pattern-solid{stroke-dasharray:0;}#my-svg .edge-thickness-invisible{stroke-width:0;fill:none;}#my-svg .edge-pattern-dashed{stroke-dasharray:3;}#my-svg .edge-pattern-dotted{stroke-dasharray:2;}#my-svg .marker{fill:#666;stroke:#666;}#my-svg .marker.cross{stroke:#666;}#my-svg svg{font-family:"trebuchet ms",verdana,arial,sans-serif;font-size:16px;}#my-svg p{margin:0;}#my-svg .label{font-family:"trebuchet ms",verdana,arial,sans-serif;color:#000000;}#my-svg .cluster-label text{fill:#333;}#my-svg .cluster-label span{color:#333;}#my-svg .cluster-label span p{background-color:transparent;}#my-svg .label text,#my-svg span{fill:#000000;color:#000000;}#my-svg .node rect,#my-svg .node circle,#my-svg .node ellipse,#my-svg .node polygon,#my-svg .node path{fill:#eee;stroke:#999;stroke-width:1px;}#my-svg .rough-node .label text,#my-svg .node .label text,#my-svg .image-shape .label,#my-svg .icon-shape .label{text-anchor:middle;}#my-svg .node .katex path{fill:#000;stroke:#000;stroke-width:1px;}#my-svg .rough-node .label,#my-svg .node .label,#my-svg .image-shape .label,#my-svg .icon-shape .label{text-align:center;}#my-svg .node.clickable{cursor:pointer;}#my-svg .root .anchor path{fill:#666!important;stroke-width:0;stroke:#666;}#my-svg .arrowheadPath{fill:#333333;}#my-svg .edgePath .path{stroke:#666;stroke-width:1px;}#my-svg .flowchart-link{stroke:#666;fill:none;}#my-svg .edgeLabel{background-color:white;text-align:center;}#my-svg .edgeLabel p{background-color:white;}#my-svg .edgeLabel rect{opacity:0.5;background-color:white;fill:white;}#my-svg .labelBkg{background-color:rgba(255, 255, 255, 0.5);}#my-svg .cluster rect{fill:hsl(0, 0%, 98.9215686275%);stroke:#707070;stroke-width:1px;}#my-svg .cluster text{fill:#333;}#my-svg .cluster span{color:#333;}#my-svg div.mermaidTooltip{position:absolute;text-align:center;max-width:200px;padding:2px;font-family:"trebuchet ms",verdana,arial,sans-serif;font-size:12px;background:hsl(-160, 0%, 93.3333333333%);border:1px solid #707070;border-radius:2px;pointer-events:none;z-index:100;}#my-svg .flowchartTitleText{text-anchor:middle;font-size:18px;fill:#000000;}#my-svg rect.text{fill:none;stroke-width:0;}#my-svg .icon-shape,#my-svg .image-shape{background-color:white;text-align:center;}#my-svg .icon-shape p,#my-svg .image-shape p{background-color:white;padding:2px;}#my-svg .icon-shape .label rect,#my-svg .image-shape .label rect{opacity:0.5;background-color:white;fill:white;}#my-svg .label-icon{display:inline-block;height:1em;overflow:visible;vertical-align:-0.125em;}#my-svg .node .label-icon path{fill:currentColor;stroke:revert;stroke-width:revert;}#my-svg .node .neo-node{stroke:#999;}#my-svg [data-look="neo"].node rect,#my-svg [data-look="neo"].cluster rect,#my-svg [data-look="neo"].node polygon{stroke:url(#my-svg-gradient);filter:drop-shadow( 1px 2px 2px rgba(185,185,185,1));}#my-svg [data-look="neo"].swimlane.cluster rect{filter:none;}#my-svg [data-look="neo"].node path{stroke:url(#my-svg-gradient);stroke-width:1px;}#my-svg [data-look="neo"].node .outer-path{filter:drop-shadow( 1px 2px 2px rgba(185,185,185,1));}#my-svg [data-look="neo"].node .neo-line path{stroke:#999;filter:none;}#my-svg [data-look="neo"].node circle{stroke:url(#my-svg-gradient);filter:drop-shadow( 1px 2px 2px rgba(185,185,185,1));}#my-svg [data-look="neo"].node circle .state-start{fill:#000000;}#my-svg [data-look="neo"].icon-shape .icon{fill:url(#my-svg-gradient);filter:drop-shadow( 1px 2px 2px rgba(185,185,185,1));}#my-svg [data-look="neo"].icon-shape .icon-neo path{stroke:url(#my-svg-gradient);filter:drop-shadow( 1px 2px 2px rgba(185,185,185,1));}#my-svg :root{--mermaid-font-family:"trebuchet ms",verdana,arial,sans-serif;}</style><g><marker id="my-svg_flowchart-v2-pointEnd" class="marker flowchart-v2" viewBox="0 0 10 10" refX="5" refY="5" markerUnits="userSpaceOnUse" markerWidth="8" markerHeight="8" orient="auto"><path d="M 0 0 L 10 5 L 0 10 z" class="arrowMarkerPath" style="stroke-width: 1; stroke-dasharray: 1, 0;"/></marker><marker id="my-svg_flowchart-v2-pointStart" class="marker flowchart-v2" viewBox="0 0 10 10" refX="4.5" refY="5" markerUnits="userSpaceOnUse" markerWidth="8" markerHeight="8" orient="auto"><path d="M 0 5 L 10 10 L 10 0 z" class="arrowMarkerPath" style="stroke-width: 1; stroke-dasharray: 1, 0;"/></marker><marker id="my-svg_flowchart-v2-pointEnd-margin" class="marker flowchart-v2" viewBox="0 0 11.5 14" refX="11.5" refY="7" markerUnits="userSpaceOnUse" markerWidth="10.5" markerHeight="14" orient="auto"><path d="M 0 0 L 11.5 7 L 0 14 z" class="arrowMarkerPath" style="stroke-width: 0; stroke-dasharray: 1, 0;"/></marker><marker id="my-svg_flowchart-v2-pointStart-margin" class="marker flowchart-v2" viewBox="0 0 11.5 14" refX="1" refY="7" markerUnits="userSpaceOnUse" markerWidth="11.5" markerHeight="14" orient="auto"><polygon points="0,7 11.5,14 11.5,0" class="arrowMarkerPath" style="stroke-width: 0; stroke-dasharray: 1, 0;"/></marker><marker id="my-svg_flowchart-v2-circleEnd" class="marker flowchart-v2" viewBox="0 0 10 10" refX="11" refY="5" markerUnits="userSpaceOnUse" markerWidth="11" markerHeight="11" orient="auto"><circle cx="5" cy="5" r="5" class="arrowMarkerPath" style="stroke-width: 1; stroke-dasharray: 1, 0;"/></marker><marker id="my-svg_flowchart-v2-circleStart" class="marker flowchart-v2" viewBox="0 0 10 10" refX="-1" refY="5" markerUnits="userSpaceOnUse" markerWidth="11" markerHeight="11" orient="auto"><circle cx="5" cy="5" r="5" class="arrowMarkerPath" style="stroke-width: 1; stroke-dasharray: 1, 0;"/></marker><marker id="my-svg_flowchart-v2-circleEnd-margin" class="marker flowchart-v2" viewBox="0 0 10 10" refY="5" refX="12.25" markerUnits="userSpaceOnUse" markerWidth="14" markerHeight="14" orient="auto"><circle cx="5" cy="5" r="5" class="arrowMarkerPath" style="stroke-width: 0; stroke-dasharray: 1, 0;"/></marker><marker id="my-svg_flowchart-v2-circleStart-margin" class="marker flowchart-v2" viewBox="0 0 10 10" refX="-2" refY="5" markerUnits="userSpaceOnUse" markerWidth="14" markerHeight="14" orient="auto"><circle cx="5" cy="5" r="5" class="arrowMarkerPath" style="stroke-width: 0; stroke-dasharray: 1, 0;"/></marker><marker id="my-svg_flowchart-v2-crossEnd" class="marker cross flowchart-v2" viewBox="0 0 11 11" refX="12" refY="5.2" markerUnits="userSpaceOnUse" markerWidth="11" markerHeight="11" orient="auto"><path d="M 1,1 l 9,9 M 10,1 l -9,9" class="arrowMarkerPath" style="stroke-width: 2; stroke-dasharray: 1, 0;"/></marker><marker id="my-svg_flowchart-v2-crossStart" class="marker cross flowchart-v2" viewBox="0 0 11 11" refX="-1" refY="5.2" markerUnits="userSpaceOnUse" markerWidth="11" markerHeight="11" orient="auto"><path d="M 1,1 l 9,9 M 10,1 l -9,9" class="arrowMarkerPath" style="stroke-width: 2; stroke-dasharray: 1, 0;"/></marker><marker id="my-svg_flowchart-v2-crossEnd-margin" class="marker cross flowchart-v2" viewBox="0 0 15 15" refX="17.7" refY="7.5" markerUnits="userSpaceOnUse" markerWidth="12" markerHeight="12" orient="auto"><path d="M 1,1 L 14,14 M 1,14 L 14,1" class="arrowMarkerPath" style="stroke-width: 2.5;"/></marker><marker id="my-svg_flowchart-v2-crossStart-margin" class="marker cross flowchart-v2" viewBox="0 0 15 15" refX="-3.5" refY="7.5" markerUnits="userSpaceOnUse" markerWidth="12" markerHeight="12" orient="auto"><path d="M 1,1 L 14,14 M 1,14 L 14,1" class="arrowMarkerPath" style="stroke-width: 2.5; stroke-dasharray: 1, 0;"/></marker><g class="root"><g class="clusters"/><g class="edgePaths"><path d="M682.289,40.5L682.206,44.583C682.122,48.667,681.956,56.833,681.872,64.417C681.789,72,681.789,79,681.789,82.5L681.789,86" id="my-svg-L_Start_Request_0" class="edge-thickness-normal edge-pattern-solid edge-thickness-normal edge-pattern-solid flowchart-link" style=";" data-edge="true" data-et="edge" data-id="L_Start_Request_0" data-points="W3sieCI6NjgyLjI4OTA2MjUsInkiOjQwLjV9LHsieCI6NjgxLjc4OTA2MjUsInkiOjY1fSx7IngiOjY4MS43ODkwNjI1LCJ5Ijo5MH1d" data-look="classic" marker-end="url(#my-svg_flowchart-v2-pointEnd)"/><path d="M681.789,137L681.789,141.167C681.789,145.333,681.789,153.667,681.789,161.333C681.789,169,681.789,176,681.789,179.5L681.789,183" id="my-svg-L_Request_Check_0" class="edge-thickness-normal edge-pattern-solid edge-thickness-normal edge-pattern-solid flowchart-link" style=";" data-edge="true" data-et="edge" data-id="L_Request_Check_0" data-points="W3sieCI6NjgxLjc4OTA2MjUsInkiOjEzN30seyJ4Ijo2ODEuNzg5MDYyNSwieSI6MTYyfSx7IngiOjY4MS43ODkwNjI1LCJ5IjoxODd9XQ==" data-look="classic" marker-end="url(#my-svg_flowchart-v2-pointEnd)"/><path d="M615.601,279.812L531.334,296.76C447.067,313.708,278.534,347.604,194.267,376.335C110,405.067,110,428.633,110,440.417L110,452.2" id="my-svg-L_Check_Done_0" class="edge-thickness-normal edge-pattern-solid edge-thickness-normal edge-pattern-solid flowchart-link" style=";" data-edge="true" data-et="edge" data-id="L_Check_Done_0" data-points="W3sieCI6NjE1LjYwMTAxMDA4MjE1ODgsInkiOjI3OS44MTE5NDc1ODIxNTg4NH0seyJ4IjoxMTAsInkiOjM4MS41fSx7IngiOjExMCwieSI6NDU2LjIwMDAwMDc2MjkzOTQ1fV0=" data-look="classic" marker-end="url(#my-svg_flowchart-v2-pointEnd)"/><path d="M622.023,286.234L573.936,302.112C525.849,317.989,429.674,349.745,381.587,370.872C333.5,392,333.5,402.5,333.5,407.75L333.5,413" id="my-svg-L_Check_L1_0" class="edge-thickness-normal edge-pattern-solid edge-thickness-normal edge-pattern-solid flowchart-link" style=";" data-edge="true" data-et="edge" data-id="L_Check_L1_0" data-points="W3sieCI6NjIyLjAyMjk2MjQzNDIzMzgsInkiOjI4Ni4yMzM4OTk5MzQyMzM4fSx7IngiOjMzMy41LCJ5IjozODEuNX0seyJ4IjozMzMuNSwieSI6NDE3fV0=" data-look="classic" marker-end="url(#my-svg_flowchart-v2-pointEnd)"/><path d="M296.974,523.474L284.436,535.478C271.899,547.482,246.825,571.491,234.287,596.612C221.75,621.733,221.75,647.967,221.75,661.083L221.75,674.2" id="my-svg-L_L1_L2_0" class="edge-thickness-normal edge-pattern-solid edge-thickness-normal edge-pattern-solid flowchart-link" style=";" data-edge="true" data-et="edge" data-id="L_L1_L2_0" data-points="W3sieCI6Mjk2Ljk3MzcxNDI4NTcxNDI3LCJ5Ijo1MjMuNDczNzE0Mjg1NzE0M30seyJ4IjoyMjEuNzUsInkiOjU5NS41fSx7IngiOjIyMS43NSwieSI6Njc4LjIwMDAwMDc2MjkzOTV9XQ==" data-look="classic" marker-end="url(#my-svg_flowchart-v2-pointEnd)"/><path d="M373.602,519.898L389.696,532.498C405.79,545.098,437.977,570.299,454.07,588.15C470.164,606,470.164,616.5,470.164,621.75L470.164,627" id="my-svg-L_L1_L3_0" class="edge-thickness-normal edge-pattern-solid edge-thickness-normal edge-pattern-solid flowchart-link" style=";" data-edge="true" data-et="edge" data-id="L_L1_L3_0" data-points="W3sieCI6MzczLjYwMjI2MzYxODU4MzUsInkiOjUxOS44OTc3MzYzODE0MTY1fSx7IngiOjQ3MC4xNjQwNjI1LCJ5Ijo1OTUuNX0seyJ4Ijo0NzAuMTY0MDYyNSwieSI6NjMxfV0=" data-look="classic" marker-end="url(#my-svg_flowchart-v2-pointEnd)"/><path d="M432.339,752.175L421.248,764.396C410.156,776.617,387.972,801.058,376.881,835.113C365.789,869.167,365.789,912.833,365.789,956.5C365.789,1000.167,365.789,1043.833,408.245,1075.81C450.701,1107.786,535.612,1128.072,578.068,1138.215L620.524,1148.358" id="my-svg-L_L3_Stop_0" class="edge-thickness-normal edge-pattern-solid edge-thickness-normal edge-pattern-solid flowchart-link" style=";" data-edge="true" data-et="edge" data-id="L_L3_Stop_0" data-points="W3sieCI6NDMyLjMzOTI3NjE3NTIxMzcsInkiOjc1Mi4xNzUyMTM2NzUyMTM2fSx7IngiOjM2NS43ODkwNjI1LCJ5Ijo4MjUuNX0seyJ4IjozNjUuNzg5MDYyNSwieSI6OTU2LjV9LHsieCI6MzY1Ljc4OTA2MjUsInkiOjEwODcuNX0seyJ4Ijo2MjQuNDE0MDYyNSwieSI6MTE0OS4yODc2NzkwODEwNzQ3fV0=" data-look="classic" marker-end="url(#my-svg_flowchart-v2-pointEnd)"/><path d="M500.312,759.852L506.996,770.794C513.679,781.735,527.047,803.617,533.73,819.809C540.414,836,540.414,846.5,540.414,851.75L540.414,857" id="my-svg-L_L3_L4_0" class="edge-thickness-normal edge-pattern-solid edge-thickness-normal edge-pattern-solid flowchart-link" style=";" data-edge="true" data-et="edge" data-id="L_L3_L4_0" data-points="W3sieCI6NTAwLjMxMTgzNTc3OTM1MjI0LCJ5Ijo3NTkuODUyMjI2NzIwNjQ3OH0seyJ4Ijo1NDAuNDE0MDYyNSwieSI6ODI1LjV9LHsieCI6NTQwLjQxNDA2MjUsInkiOjg2MX1d" data-look="classic" marker-end="url(#my-svg_flowchart-v2-pointEnd)"/><path d="M501.683,1013.269L493.243,1025.641C484.802,1038.013,467.92,1062.756,426.29,1084.176C384.659,1105.595,318.279,1123.69,285.088,1132.738L251.898,1141.785" id="my-svg-L_L4_L5_0" class="edge-thickness-normal edge-pattern-solid edge-thickness-normal edge-pattern-solid flowchart-link" style=";" data-edge="true" data-et="edge" data-id="L_L4_L5_0" data-points="W3sieCI6NTAxLjY4MzIwNjAwNTM4ODU3LCJ5IjoxMDEzLjI2OTE0MzUwNTM4ODZ9LHsieCI6NDUxLjAzOTA2MjUsInkiOjEwODcuNX0seyJ4IjoyNDguMDM5MDYyNSwieSI6MTE0Mi44MzczNjU0NDU3MTczfV0=" data-look="classic" marker-end="url(#my-svg_flowchart-v2-pointEnd)"/><path d="M578.919,1013.495L587.251,1025.83C595.584,1038.164,612.249,1062.832,626.825,1083.483C641.4,1104.134,653.886,1120.767,660.129,1129.084L666.372,1137.401" id="my-svg-L_L4_Stop_0" class="edge-thickness-normal edge-pattern-solid edge-thickness-normal edge-pattern-solid flowchart-link" style=";" data-edge="true" data-et="edge" data-id="L_L4_Stop_0" data-points="W3sieCI6NTc4LjkxODYxODMwODY1NiwieSI6MTAxMy40OTU0NDQxOTEzNDR9LHsieCI6NjI4LjkxNDA2MjUsInkiOjEwODcuNX0seyJ4Ijo2NjguNzczNzIyNzIzMDE1MywieSI6MTE0MC41OTk5OTg0NzQxMjF9XQ==" data-look="classic" marker-end="url(#my-svg_flowchart-v2-pointEnd)"/><path d="M716.363,311.426L725.35,323.105C734.338,334.784,752.314,358.142,761.301,387.654C770.289,417.167,770.289,452.833,770.289,488.5C770.289,524.167,770.289,559.833,770.289,596.833C770.289,633.833,770.289,672.167,770.289,710.5C770.289,748.833,770.289,787.167,770.289,815.583C770.289,844,770.289,862.5,770.289,871.75L770.289,881" id="my-svg-L_Check_C1_0" class="edge-thickness-normal edge-pattern-solid edge-thickness-normal edge-pattern-solid flowchart-link" style=";" data-edge="true" data-et="edge" data-id="L_Check_C1_0" data-points="W3sieCI6NzE2LjM2Mjc3MjU3MzcxMDEsInkiOjMxMS40MjYyODk5MjYyODk5NH0seyJ4Ijo3NzAuMjg5MDYyNSwieSI6MzgxLjV9LHsieCI6NzcwLjI4OTA2MjUsInkiOjQ4OC41fSx7IngiOjc3MC4yODkwNjI1LCJ5Ijo1OTUuNX0seyJ4Ijo3NzAuMjg5MDYyNSwieSI6NzEwLjV9LHsieCI6NzcwLjI4OTA2MjUsInkiOjgyNS41fSx7IngiOjc3MC4yODkwNjI1LCJ5Ijo4ODV9XQ==" data-look="classic" marker-end="url(#my-svg_flowchart-v2-pointEnd)"/><path d="M739.097,996.808L727.4,1011.923C715.703,1027.038,692.308,1057.269,649.692,1080.84C607.075,1104.41,545.236,1121.32,514.317,1129.775L483.397,1138.229" id="my-svg-L_C1_C2_0" class="edge-thickness-normal edge-pattern-solid edge-thickness-normal edge-pattern-solid flowchart-link" style=";" data-edge="true" data-et="edge" data-id="L_C1_C2_0" data-points="W3sieCI6NzM5LjA5Njc1NDgwNzY5MjMsInkiOjk5Ni44MDc2OTIzMDc2OTIzfSx7IngiOjY2OC45MTQwNjI1LCJ5IjoxMDg3LjV9LHsieCI6NDc5LjUzOTA2MjUsInkiOjExMzkuMjg0NDcwMTg2NjU0N31d" data-look="classic" marker-end="url(#my-svg_flowchart-v2-pointEnd)"/><path d="M799.117,999.172L809.062,1013.893C819.008,1028.615,838.898,1058.057,829.538,1081.358C820.177,1104.659,781.564,1121.817,762.258,1130.396L742.952,1138.976" id="my-svg-L_C1_Stop_0" class="edge-thickness-normal edge-pattern-solid edge-thickness-normal edge-pattern-solid flowchart-link" style=";" data-edge="true" data-et="edge" data-id="L_C1_Stop_0" data-points="W3sieCI6Nzk5LjExNzA4MDcyMzIzNDYsInkiOjk5OS4xNzE5ODE3NzY3NjU0fSx7IngiOjg1OC43ODkwNjI1LCJ5IjoxMDg3LjV9LHsieCI6NzM5LjI5NjczMzI2NjIyMTMsInkiOjExNDAuNTk5OTk4NDc0MTIxfV0=" data-look="classic" marker-end="url(#my-svg_flowchart-v2-pointEnd)"/><path d="M740.272,287.517L783.858,303.181C827.444,318.845,914.617,350.172,958.203,383.67C1001.789,417.167,1001.789,452.833,1001.789,488.5C1001.789,524.167,1001.789,559.833,1001.789,596.833C1001.789,633.833,1001.789,672.167,1001.789,710.5C1001.789,748.833,1001.789,787.167,1001.789,811.583C1001.789,836,1001.789,846.5,1001.789,851.75L1001.789,857" id="my-svg-L_Check_R1_0" class="edge-thickness-normal edge-pattern-solid edge-thickness-normal edge-pattern-solid flowchart-link" style=";" data-edge="true" data-et="edge" data-id="L_Check_R1_0" data-points="W3sieCI6NzQwLjI3MTgyMTEyMDY4OTcsInkiOjI4Ny41MTcyNDEzNzkzMTAzNX0seyJ4IjoxMDAxLjc4OTA2MjUsInkiOjM4MS41fSx7IngiOjEwMDEuNzg5MDYyNSwieSI6NDg4LjV9LHsieCI6MTAwMS43ODkwNjI1LCJ5Ijo1OTUuNX0seyJ4IjoxMDAxLjc4OTA2MjUsInkiOjcxMC41fSx7IngiOjEwMDEuNzg5MDYyNSwieSI6ODI1LjV9LHsieCI6MTAwMS43ODkwNjI1LCJ5Ijo4NjF9XQ==" data-look="classic" marker-end="url(#my-svg_flowchart-v2-pointEnd)"/><path d="M989.14,1039.351L987.915,1047.376C986.69,1055.401,984.239,1071.45,989.103,1084.946C993.967,1098.442,1006.145,1109.384,1012.234,1114.855L1018.323,1120.327" id="my-svg-L_R1_R2_0" class="edge-thickness-normal edge-pattern-solid edge-thickness-normal edge-pattern-solid flowchart-link" style=";" data-edge="true" data-et="edge" data-id="L_R1_R2_0" data-points="W3sieCI6OTg5LjE0MDA1NTg3NzQ4MzQsInkiOjEwMzkuMzUwOTkzMzc3NDgzNX0seyJ4Ijo5ODEuNzg5MDYyNSwieSI6MTA4Ny41fSx7IngiOjEwMjEuMjk3ODc1Mjk3NDYzLCJ5IjoxMTIzfV0=" data-look="classic" marker-end="url(#my-svg_flowchart-v2-pointEnd)"/><path d="M1028.266,1025.523L1032.228,1035.853C1036.19,1046.182,1044.115,1066.841,998.125,1087.636C952.136,1108.43,852.232,1129.36,802.281,1139.825L752.329,1150.291" id="my-svg-L_R1_Stop_0" class="edge-thickness-normal edge-pattern-solid edge-thickness-normal edge-pattern-solid flowchart-link" style=";" data-edge="true" data-et="edge" data-id="L_R1_Stop_0" data-points="W3sieCI6MTAyOC4yNjU2MTQyMjQxMzc4LCJ5IjoxMDI1LjUyMzQ0ODI3NTg2MjJ9LHsieCI6MTA1Mi4wMzkwNjI1LCJ5IjoxMDg3LjV9LHsieCI6NzQ4LjQxNDA2MjUsInkiOjExNTEuMTEwNzMzNzc1NjAzNH1d" data-look="classic" marker-end="url(#my-svg_flowchart-v2-pointEnd)"/><path d="M745.122,282.667L809.65,299.139C874.178,315.611,1003.233,348.556,1067.761,382.861C1132.289,417.167,1132.289,452.833,1132.289,488.5C1132.289,524.167,1132.289,559.833,1132.289,596.833C1132.289,633.833,1132.289,672.167,1132.289,710.5C1132.289,748.833,1132.289,787.167,1132.289,828.167C1132.289,869.167,1132.289,912.833,1132.289,956.5C1132.289,1000.167,1132.289,1043.833,1068.967,1076.545C1005.645,1109.257,879.001,1131.014,815.678,1141.893L752.356,1152.771" id="my-svg-L_Check_Stop_0" class="edge-thickness-normal edge-pattern-solid edge-thickness-normal edge-pattern-solid flowchart-link" style=";" data-edge="true" data-et="edge" data-id="L_Check_Stop_0" data-points="W3sieCI6NzQ1LjEyMTk1Mzc0NjY4NDMsInkiOjI4Mi42NjcxMDg3NTMzMTU2M30seyJ4IjoxMTMyLjI4OTA2MjUsInkiOjM4MS41fSx7IngiOjExMzIuMjg5MDYyNSwieSI6NDg4LjV9LHsieCI6MTEzMi4yODkwNjI1LCJ5Ijo1OTUuNX0seyJ4IjoxMTMyLjI4OTA2MjUsInkiOjcxMC41fSx7IngiOjExMzIuMjg5MDYyNSwieSI6ODI1LjV9LHsieCI6MTEzMi4yODkwNjI1LCJ5Ijo5NTYuNX0seyJ4IjoxMTMyLjI4OTA2MjUsInkiOjEwODcuNX0seyJ4Ijo3NDguNDE0MDYyNSwieSI6MTE1My40NDg1ODI5MzA3NjE0fV0=" data-look="classic" marker-end="url(#my-svg_flowchart-v2-pointEnd)"/></g><g class="edgeLabels"><g class="edgeLabel"><g class="label" data-id="L_Start_Request_0" transform="translate(0, 0)"><text y="-10.1" text-anchor="middle"><tspan class="text-outer-tspan row" x="0" y="-0.1em" dy="1.1em" text-anchor="middle"/></text></g></g><g><rect class="background" style="stroke: none"/></g><g class="edgeLabel"><g class="label" data-id="L_Request_Check_0" transform="translate(0, 0)"><text y="-10.1" text-anchor="middle"><tspan class="text-outer-tspan row" x="0" y="-0.1em" dy="1.1em" text-anchor="middle"/></text></g></g><g><rect class="background" style="stroke: none"/></g><g class="edgeLabel" transform="translate(110, 381.5)"><g class="label" data-id="L_Check_Done_0" transform="translate(-0.046875, -10.5)"><g><rect class="background" style="" x="-52.6875" y="0" width="105.46875" height="21"/><text y="-10.1" text-anchor="middle" style=""><tspan class="text-outer-tspan row" x="0" y="-0.1em" dy="1.1em" text-anchor="middle"><tspan font-style="normal" class="text-inner-tspan" font-weight="normal">完整</tspan><tspan font-style="normal" class="text-inner-tspan" font-weight="normal"> message</tspan></tspan></text></g></g></g><g class="edgeLabel" transform="translate(333.5, 381.5)"><g class="label" data-id="L_Check_L1_0" transform="translate(0, -10.5)"><g><rect class="background" style="" x="-34" y="0" width="68" height="21"/><text y="-10.1" text-anchor="middle" style=""><tspan class="text-outer-tspan row" x="0" y="-0.1em" dy="1.1em" text-anchor="middle"><tspan font-style="normal" class="text-inner-tspan" font-weight="normal">输出截断</tspan></tspan></text></g></g></g><g class="edgeLabel" transform="translate(221.75, 595.5)"><g class="label" data-id="L_L1_L2_0" transform="translate(0, -10.5)"><g><rect class="background" style="" x="-10" y="0" width="20" height="21"/><text y="-10.1" text-anchor="middle" style=""><tspan class="text-outer-tspan row" x="0" y="-0.1em" dy="1.1em" text-anchor="middle"><tspan font-style="normal" class="text-inner-tspan" font-weight="normal">是</tspan></tspan></text></g></g></g><g class="edgeLabel" transform="translate(470.1640625, 595.5)"><g class="label" data-id="L_L1_L3_0" transform="translate(0, -10.5)"><g><rect class="background" style="" x="-10" y="0" width="20" height="21"/><text y="-10.1" text-anchor="middle" style=""><tspan class="text-outer-tspan row" x="0" y="-0.1em" dy="1.1em" text-anchor="middle"><tspan font-style="normal" class="text-inner-tspan" font-weight="normal">否</tspan></tspan></text></g></g></g><g class="edgeLabel" transform="translate(365.7890625, 956.5)"><g class="label" data-id="L_L3_Stop_0" transform="translate(0, -10.5)"><g><rect class="background" style="" x="-10" y="0" width="20" height="21"/><text y="-10.1" text-anchor="middle" style=""><tspan class="text-outer-tspan row" x="0" y="-0.1em" dy="1.1em" text-anchor="middle"><tspan font-style="normal" class="text-inner-tspan" font-weight="normal">否</tspan></tspan></text></g></g></g><g class="edgeLabel" transform="translate(540.4140625, 825.5)"><g class="label" data-id="L_L3_L4_0" transform="translate(0, -10.5)"><g><rect class="background" style="" x="-10" y="0" width="20" height="21"/><text y="-10.1" text-anchor="middle" style=""><tspan class="text-outer-tspan row" x="0" y="-0.1em" dy="1.1em" text-anchor="middle"><tspan font-style="normal" class="text-inner-tspan" font-weight="normal">是</tspan></tspan></text></g></g></g><g class="edgeLabel" transform="translate(392.88794, 1103.35187)"><g class="label" data-id="L_L4_L5_0" transform="translate(0, -10.5)"><g><rect class="background" style="" x="-10" y="0" width="20" height="21"/><text y="-10.1" text-anchor="middle" style=""><tspan class="text-outer-tspan row" x="0" y="-0.1em" dy="1.1em" text-anchor="middle"><tspan font-style="normal" class="text-inner-tspan" font-weight="normal">是</tspan></tspan></text></g></g></g><g class="edgeLabel" transform="translate(622.50048, 1078.00645)"><g class="label" data-id="L_L4_Stop_0" transform="translate(0, -10.5)"><g><rect class="background" style="" x="-10" y="0" width="20" height="21"/><text y="-10.1" text-anchor="middle" style=""><tspan class="text-outer-tspan row" x="0" y="-0.1em" dy="1.1em" text-anchor="middle"><tspan font-style="normal" class="text-inner-tspan" font-weight="normal">否</tspan></tspan></text></g></g></g><g class="edgeLabel" transform="translate(770.2890625, 595.5)"><g class="label" data-id="L_Check_C1_0" transform="translate(0, -10.5)"><g><rect class="background" style="" x="-42" y="0" width="84" height="21"/><text y="-10.1" text-anchor="middle" style=""><tspan class="text-outer-tspan row" x="0" y="-0.1em" dy="1.1em" text-anchor="middle"><tspan font-style="normal" class="text-inner-tspan" font-weight="normal">上下文超限</tspan></tspan></text></g></g></g><g class="edgeLabel" transform="translate(629.53429, 1098.26837)"><g class="label" data-id="L_C1_C2_0" transform="translate(0, -10.5)"><g><rect class="background" style="" x="-10" y="0" width="20" height="21"/><text y="-10.1" text-anchor="middle" style=""><tspan class="text-outer-tspan row" x="0" y="-0.1em" dy="1.1em" text-anchor="middle"><tspan font-style="normal" class="text-inner-tspan" font-weight="normal">否</tspan></tspan></text></g></g></g><g class="edgeLabel" transform="translate(847.74813, 1092.40637)"><g class="label" data-id="L_C1_Stop_0" transform="translate(0, -10.5)"><g><rect class="background" style="" x="-10" y="0" width="20" height="21"/><text y="-10.1" text-anchor="middle" style=""><tspan class="text-outer-tspan row" x="0" y="-0.1em" dy="1.1em" text-anchor="middle"><tspan font-style="normal" class="text-inner-tspan" font-weight="normal">是</tspan></tspan></text></g></g></g><g class="edgeLabel" transform="translate(1001.7890625, 595.5)"><g class="label" data-id="L_Check_R1_0" transform="translate(-0.05078125, -10.5)"><g><rect class="background" style="" x="-35.3671875" y="0" width="70.8359375" height="21"/><text y="-10.1" text-anchor="middle" style=""><tspan class="text-outer-tspan row" x="0" y="-0.1em" dy="1.1em" text-anchor="middle"><tspan font-style="normal" class="text-inner-tspan" font-weight="normal">429</tspan><tspan font-style="normal" class="text-inner-tspan" font-weight="normal"> /</tspan><tspan font-style="normal" class="text-inner-tspan" font-weight="normal"> 529</tspan></tspan></text></g></g></g><g class="edgeLabel" transform="translate(983.42848, 1088.97307)"><g class="label" data-id="L_R1_R2_0" transform="translate(0, -10.5)"><g><rect class="background" style="" x="-10" y="0" width="20" height="21"/><text y="-10.1" text-anchor="middle" style=""><tspan class="text-outer-tspan row" x="0" y="-0.1em" dy="1.1em" text-anchor="middle"><tspan font-style="normal" class="text-inner-tspan" font-weight="normal">是</tspan></tspan></text></g></g></g><g class="edgeLabel" transform="translate(1052.0390625, 1087.5)"><g class="label" data-id="L_R1_Stop_0" transform="translate(0, -10.5)"><g><rect class="background" style="" x="-10" y="0" width="20" height="21"/><text y="-10.1" text-anchor="middle" style=""><tspan class="text-outer-tspan row" x="0" y="-0.1em" dy="1.1em" text-anchor="middle"><tspan font-style="normal" class="text-inner-tspan" font-weight="normal">否</tspan></tspan></text></g></g></g><g class="edgeLabel" transform="translate(1132.2890625, 710.5)"><g class="label" data-id="L_Check_Stop_0" transform="translate(0, -10.5)"><g><rect class="background" style="" x="-34" y="0" width="68" height="21"/><text y="-10.1" text-anchor="middle" style=""><tspan class="text-outer-tspan row" x="0" y="-0.1em" dy="1.1em" text-anchor="middle"><tspan font-style="normal" class="text-inner-tspan" font-weight="normal">普通错误</tspan></tspan></text></g></g></g></g><g class="nodes"><g class="node default" id="my-svg-flowchart-Start-0" data-look="classic" transform="translate(681.7890625, 24)"><g class="basic label-container outer-path"><path d="M-11.5 -16 C-5.960268545689667 -16, -0.4205370913793338 -16, 11.5 -16 C11.5 -16, 11.499999999999998 -16, 11.499999999999998 -16 C11.801776837650287 -15.990322604189537, 12.103553675300574 -15.980645208379071, 12.525123519691405 -15.967126284005381 C12.843704739927214 -15.936393136839207, 13.162285960163022 -15.905659989673033, 13.546034586952095 -15.868640221171939 C13.839961002731467 -15.821120477702127, 14.133887418510842 -15.773600734232316, 14.558538059221954 -15.704946511857047 C14.93364174009428 -15.619331544478213, 15.308745420966606 -15.53371657709938, 15.558473342552116 -15.476717808624471 C15.81523304394846 -15.400512877009211, 16.071992745344804 -15.324307945393953, 16.54173148837793 -15.184891952170698 C16.769222007605453 -15.101173338195663, 16.996712526832976 -15.017454724220627, 17.504272078069985 -14.830668117536348 C17.77853884467098 -14.709258355796653, 18.052805611271975 -14.587848594056956, 18.44213982588093 -14.415501886438706 C18.784252003110275 -14.237022182711465, 19.126364180339618 -14.058542478984224, 19.351480832063 -13.941099265974232 C19.64014692018052 -13.76610818696716, 19.928813008298043 -13.59111710796009, 20.228558419368778 -13.409409678269451 C20.544330399630173 -13.189140814387814, 20.86010237989157 -12.968871950506175, 21.069768487859456 -12.822617949887306 C21.375606920194272 -12.578719938802779, 21.681445352529085 -12.334821927718252, 21.871654324924613 -12.183135333906153 C22.097221008766976 -11.978281639807928, 22.322787692609335 -11.773427945709706, 22.630920809655784 -11.493589601563642 C22.840904894968514 -11.276763793464223, 23.050888980281247 -11.059937985364803, 23.344447953205048 -10.756814244181072 C23.57963549861076 -10.480549570797077, 23.814823044016475 -10.204284897413082, 24.00930371948848 -9.975836829739738 C24.201825206542704 -9.71787557615536, 24.394346693596926 -9.459914322570981, 24.62275607355129 -9.153866561954718 C24.772562988301775 -8.923722912108799, 24.922369903052264 -8.693579262262881, 25.182284208085537 -8.294281092968403 C25.34143455347481 -8.011693539009752, 25.50058489886408 -7.729105985051101, 25.685588901968003 -7.400612643853364 C25.82989881136945 -7.100950029243841, 25.974208720770896 -6.801287414634317, 26.130601968252996 -6.476533489958305 C26.24684548664881 -6.18940975210511, 26.36308900504462 -5.902286014251916, 26.515494752796165 -5.52584087074093 C26.640337654364938 -5.149833942230898, 26.76518055593371 -4.773827013720865, 26.83868564858657 -4.552441386096524 C26.925530197865694 -4.221265481029468, 27.012374747144822 -3.890089575962412, 27.098846594909176 -3.560334943301032 C27.139249432756746 -3.35287491009657, 27.179652270604315 -3.145414876892108, 27.2949085346312 -2.5535983205340735 C27.32879891267483 -2.2907512408398025, 27.362689290718457 -2.027904161145531, 27.42606580718717 -1.536368414522911 C27.450497028666664 -1.1558324194527765, 27.474928250146156 -0.775296424382642, 27.491779459211006 -0.5128252411464826 C27.491779459211006 -0.16297813769826808, 27.491779459211006 0.1868689657499465, 27.491779459211006 0.5128252411464788 C27.469903706785644 0.8535577429610435, 27.44802795436028 1.1942902447756083, 27.42606580718717 1.5363684145229002 C27.379774044871034 1.8953981817044459, 27.333482282554897 2.2544279488859917, 27.294908534631205 2.5535983205340624 C27.221070772171768 2.932739625146648, 27.14723300971233 3.3118809297592335, 27.098846594909176 3.5603349433010285 C27.0297164543687 3.8239581303743053, 26.96058631382822 4.087581317447582, 26.83868564858657 4.552441386096513 C26.750591367990165 4.817767323335391, 26.662497087393756 5.0830932605742705, 26.515494752796165 5.525840870740919 C26.41136909303196 5.783033263491182, 26.307243433267757 6.040225656241446, 26.130601968253 6.4765334899583005 C25.955169664128807 6.84082242312217, 25.779737360004617 7.20511135628604, 25.685588901968003 7.400612643853361 C25.530335561721436 7.676280670566579, 25.37508222147487 7.951948697279798, 25.18228420808554 8.294281092968399 C25.001019489787726 8.57275237666604, 24.819754771489915 8.851223660363681, 24.622756073551297 9.15386656195471 C24.41364344634291 9.4340584318617, 24.204530819134526 9.714250301768693, 24.00930371948848 9.975836829739734 C23.807047589343075 10.21341838890836, 23.604791459197667 10.450999948076987, 23.344447953205055 10.756814244181063 C23.07397710594292 11.036097600048755, 22.80350625868078 11.315380955916448, 22.630920809655784 11.493589601563638 C22.349320600534163 11.74933146075465, 22.067720391412543 12.005073319945662, 21.871654324924627 12.183135333906142 C21.63394543655821 12.372701846679178, 21.396236548191794 12.562268359452212, 21.06976848785946 12.822617949887304 C20.8324293385691 12.98817546618608, 20.595090189278736 13.153732982484854, 20.228558419368788 13.409409678269446 C20.032831974984227 13.528060199071627, 19.83710553059966 13.646710719873807, 19.351480832063004 13.94109926597423 C19.048464780373187 14.099182546049763, 18.74544872868337 14.257265826125296, 18.442139825880933 14.415501886438705 C18.204542258573753 14.520679281404178, 17.966944691266576 14.62585667636965, 17.50427207806999 14.830668117536346 C17.276789510022947 14.914383805403466, 17.049306941975907 14.998099493270585, 16.54173148837794 15.184891952170695 C16.232126947858955 15.276780954649334, 15.922522407339969 15.368669957127974, 15.558473342552134 15.476717808624468 C15.184970720861545 15.561967344692958, 14.811468099170956 15.647216880761448, 14.558538059221961 15.704946511857045 C14.209406482627898 15.76139139760496, 13.860274906033835 15.817836283352873, 13.546034586952105 15.868640221171937 C13.259605244719882 15.896271715335397, 12.973175902487661 15.923903209498855, 12.525123519691405 15.967126284005381 C12.142036251512405 15.97941114706175, 11.758948983333402 15.991696010118117, 11.500000000000004 16 C11.500000000000002 16, 11.500000000000002 16, 11.5 16 C4.972960534916183 16, -1.554078930167634 16, -11.499999999999996 16 C-11.899229101635536 15.987197499762853, -12.298458203271077 15.974394999525707, -12.5251235196914 15.967126284005381 C-12.82644096858243 15.938058552098115, -13.12775841747346 15.908990820190848, -13.5460345869521 15.868640221171937 C-13.838293781379207 15.821390021120866, -14.130552975806316 15.774139821069793, -14.558538059221956 15.704946511857045 C-14.775703136685566 15.655380000060545, -14.992868214149176 15.605813488264044, -15.558473342552112 15.476717808624471 C-15.949880938690137 15.360550088631104, -16.341288534828163 15.244382368637737, -16.541731488377923 15.184891952170702 C-16.804538591899583 15.088176508712499, -17.06734569542124 14.991461065254294, -17.504272078069988 14.830668117536348 C-17.85568821388352 14.675106618600987, -18.207104349697055 14.519545119665628, -18.44213982588093 14.415501886438708 C-18.663711782527823 14.299907938579635, -18.885283739174717 14.184313990720563, -19.351480832063 13.941099265974234 C-19.586932318049172 13.798367191502901, -19.82238380403534 13.655635117031569, -20.228558419368767 13.409409678269457 C-20.549937913027062 13.185229255787485, -20.871317406685357 12.961048833305513, -21.069768487859456 12.822617949887308 C-21.301586688052264 12.637749104174928, -21.533404888245077 12.452880258462548, -21.871654324924613 12.183135333906154 C-22.11128005080824 11.965513589807923, -22.350905776691867 11.74789184570969, -22.630920809655777 11.493589601563649 C-22.839846335538546 11.27785684298501, -23.04877186142132 11.062124084406369, -23.344447953205048 10.756814244181069 C-23.590141671930724 10.46820842179725, -23.835835390656396 10.179602599413432, -24.009303719488475 9.97583682973974 C-24.243355419377494 9.662228874436959, -24.477407119266513 9.34862091913418, -24.62275607355129 9.15386656195472 C-24.82223205852985 8.847417882225626, -25.02170804350841 8.540969202496532, -25.182284208085534 8.29428109296841 C-25.286718441378135 8.108847536644548, -25.391152674670735 7.923413980320689, -25.685588901968 7.400612643853366 C-25.79628349621143 7.17075295042199, -25.90697809045486 6.9408932569906145, -26.130601968252996 6.476533489958307 C-26.221281437814337 6.252553446973519, -26.311960907375678 6.028573403988732, -26.515494752796165 5.525840870740931 C-26.600192246358585 5.270745514843904, -26.684889739921005 5.015650158946877, -26.83868564858657 4.552441386096519 C-26.91998899203967 4.242396500417895, -27.00129233549277 3.932351614739271, -27.098846594909176 3.5603349433010343 C-27.171014839161266 3.189766261830372, -27.24318308341336 2.81919758035971, -27.2949085346312 2.5535983205340753 C-27.34492782138088 2.165658609928933, -27.394947108130562 1.7777188993237916, -27.42606580718717 1.5363684145229202 C-27.451369995113918 1.1422352623909742, -27.476674183040664 0.7481021102590282, -27.491779459211006 0.5128252411464846 C-27.491779459211006 0.19065832834797242, -27.491779459211006 -0.1315085844505398, -27.491779459211006 -0.5128252411464769 C-27.47424477732971 -0.7859420651881759, -27.456710095448408 -1.059058889229875, -27.42606580718717 -1.5363684145228982 C-27.39910364830607 -1.7454815945242377, -27.37214148942497 -1.9545947745255772, -27.294908534631205 -2.5535983205340678 C-27.236046417036103 -2.8558428538719527, -27.177184299441 -3.158087387209838, -27.098846594909176 -3.5603349433010267 C-27.010919236910205 -3.89564006730912, -26.922991878911237 -4.230945191317213, -26.838685648586573 -4.552441386096511 C-26.754336563177713 -4.806487392146316, -26.669987477768853 -5.060533398196122, -26.515494752796172 -5.525840870740911 C-26.40518197974563 -5.798315552928126, -26.29486920669509 -6.070790235115341, -26.130601968253 -6.476533489958299 C-26.000034840618834 -6.7476589241796345, -25.86946771298467 -7.018784358400971, -25.685588901968003 -7.400612643853359 C-25.572402294442014 -7.601586926902597, -25.459215686916025 -7.802561209951835, -25.182284208085537 -8.294281092968404 C-24.96952699420432 -8.6211333068013, -24.7567697803231 -8.947985520634195, -24.622756073551294 -9.153866561954715 C-24.38110677215372 -9.47765461112322, -24.139457470756145 -9.801442660291727, -24.00930371948848 -9.975836829739734 C-23.849172636246404 -10.163935911832635, -23.68904155300433 -10.352034993925535, -23.344447953205055 -10.756814244181063 C-23.122626734738617 -10.985862864108391, -22.900805516272175 -11.21491148403572, -22.63092080965579 -11.493589601563633 C-22.405797619302085 -11.698040526609656, -22.18067442894838 -11.90249145165568, -21.871654324924627 -12.18313533390614 C-21.643013684972814 -12.365470159884753, -21.414373045021005 -12.547804985863367, -21.069768487859463 -12.822617949887302 C-20.748145992833646 -13.0469678796039, -20.42652349780783 -13.271317809320495, -20.228558419368788 -13.409409678269444 C-19.995579869671204 -13.550642644230049, -19.762601319973623 -13.691875610190653, -19.351480832063007 -13.941099265974229 C-19.095051891890712 -14.07487807981154, -18.838622951718417 -14.208656893648852, -18.442139825880936 -14.415501886438705 C-18.164020866885743 -14.538616899480084, -17.88590190789055 -14.661731912521464, -17.504272078069995 -14.830668117536344 C-17.215033129159647 -14.937110724430887, -16.925794180249294 -15.04355333132543, -16.54173148837794 -15.184891952170695 C-16.316858153946143 -15.251633177445832, -16.091984819514348 -15.31837440272097, -15.558473342552134 -15.476717808624466 C-15.330313949355373 -15.528793701242442, -15.102154556158611 -15.58086959386042, -14.558538059221963 -15.704946511857043 C-14.291447146010716 -15.74812769938407, -14.024356232799471 -15.791308886911098, -13.546034586952107 -15.868640221171937 C-13.200434570249621 -15.901979839138395, -12.854834553547136 -15.935319457104853, -12.525123519691407 -15.967126284005381 C-12.161347903894109 -15.978791859957719, -11.797572288096811 -15.990457435910058, -11.500000000000005 -16 C-11.500000000000004 -16, -11.500000000000004 -16, -11.5 -16" stroke="none" stroke-width="0" fill="#eee" style=""/><path d="M-11.5 -16 C-4.7026205563672425 -16, 2.094758887265515 -16, 11.5 -16 M-11.5 -16 C-6.7672401183199975 -16, -2.034480236639995 -16, 11.5 -16 M11.5 -16 C11.5 -16, 11.499999999999998 -16, 11.499999999999998 -16 M11.5 -16 C11.5 -16, 11.499999999999998 -16, 11.499999999999998 -16 M11.499999999999998 -16 C11.902759044623103 -15.98708430136186, 12.30551808924621 -15.974168602723719, 12.525123519691405 -15.967126284005381 M11.499999999999998 -16 C11.85651510490246 -15.988567254500332, 12.213030209804923 -15.977134509000665, 12.525123519691405 -15.967126284005381 M12.525123519691405 -15.967126284005381 C12.768133516471632 -15.943683401878273, 13.01114351325186 -15.920240519751166, 13.546034586952095 -15.868640221171939 M12.525123519691405 -15.967126284005381 C12.909131436413865 -15.930081502116256, 13.293139353136326 -15.893036720227128, 13.546034586952095 -15.868640221171939 M13.546034586952095 -15.868640221171939 C13.876825491704643 -15.815160513013327, 14.207616396457194 -15.761680804854715, 14.558538059221954 -15.704946511857047 M13.546034586952095 -15.868640221171939 C13.816878390960664 -15.824852295364904, 14.087722194969233 -15.781064369557868, 14.558538059221954 -15.704946511857047 M14.558538059221954 -15.704946511857047 C14.82497794396992 -15.64413334684606, 15.091417828717885 -15.583320181835074, 15.558473342552116 -15.476717808624471 M14.558538059221954 -15.704946511857047 C14.77183641091509 -15.656262554984913, 14.985134762608228 -15.607578598112779, 15.558473342552116 -15.476717808624471 M15.558473342552116 -15.476717808624471 C15.767919093815841 -15.41455540905258, 15.977364845079567 -15.35239300948069, 16.54173148837793 -15.184891952170698 M15.558473342552116 -15.476717808624471 C15.901036129512175 -15.375046971603489, 16.243598916472234 -15.273376134582506, 16.54173148837793 -15.184891952170698 M16.54173148837793 -15.184891952170698 C16.903496441418163 -15.051759105333325, 17.265261394458395 -14.918626258495953, 17.504272078069985 -14.830668117536348 M16.54173148837793 -15.184891952170698 C16.89377377236989 -15.055337137418457, 17.24581605636185 -14.925782322666215, 17.504272078069985 -14.830668117536348 M17.504272078069985 -14.830668117536348 C17.71613029650621 -14.73688476878539, 17.927988514942438 -14.643101420034432, 18.44213982588093 -14.415501886438706 M17.504272078069985 -14.830668117536348 C17.816519947576364 -14.692445248209827, 18.128767817082743 -14.554222378883305, 18.44213982588093 -14.415501886438706 M18.44213982588093 -14.415501886438706 C18.668761497600393 -14.29727350546077, 18.895383169319857 -14.179045124482833, 19.351480832063 -13.941099265974232 M18.44213982588093 -14.415501886438706 C18.7747967217616 -14.241954996934671, 19.10745361764227 -14.068408107430637, 19.351480832063 -13.941099265974232 M19.351480832063 -13.941099265974232 C19.647878626379246 -13.761421181232945, 19.94427642069549 -13.581743096491657, 20.228558419368778 -13.409409678269451 M19.351480832063 -13.941099265974232 C19.646131169604203 -13.762480499799171, 19.94078150714541 -13.58386173362411, 20.228558419368778 -13.409409678269451 M20.228558419368778 -13.409409678269451 C20.533623522414697 -13.196609468440084, 20.83868862546062 -12.983809258610716, 21.069768487859456 -12.822617949887306 M20.228558419368778 -13.409409678269451 C20.4942931711665 -13.224044618887362, 20.76002792296422 -13.038679559505272, 21.069768487859456 -12.822617949887306 M21.069768487859456 -12.822617949887306 C21.23214832433163 -12.693124351409672, 21.394528160803798 -12.563630752932038, 21.871654324924613 -12.183135333906153 M21.069768487859456 -12.822617949887306 C21.360712501471056 -12.590597841377415, 21.651656515082657 -12.358577732867523, 21.871654324924613 -12.183135333906153 M21.871654324924613 -12.183135333906153 C22.139805474571503 -11.939607554687479, 22.407956624218393 -11.696079775468805, 22.630920809655784 -11.493589601563642 M21.871654324924613 -12.183135333906153 C22.085124520583722 -11.989267350320421, 22.298594716242828 -11.795399366734689, 22.630920809655784 -11.493589601563642 M22.630920809655784 -11.493589601563642 C22.779825731083083 -11.339833044868545, 22.928730652510385 -11.18607648817345, 23.344447953205048 -10.756814244181072 M22.630920809655784 -11.493589601563642 C22.889907235037924 -11.226164854175618, 23.148893660420065 -10.958740106787594, 23.344447953205048 -10.756814244181072 M23.344447953205048 -10.756814244181072 C23.51707597668375 -10.554035544990187, 23.689704000162447 -10.351256845799304, 24.00930371948848 -9.975836829739738 M23.344447953205048 -10.756814244181072 C23.53142045130124 -10.53718570888075, 23.718392949397437 -10.317557173580429, 24.00930371948848 -9.975836829739738 M24.00930371948848 -9.975836829739738 C24.19013934709663 -9.7335335632094, 24.37097497470478 -9.491230296679063, 24.62275607355129 -9.153866561954718 M24.00930371948848 -9.975836829739738 C24.17487917559173 -9.753980802795741, 24.340454631694985 -9.532124775851743, 24.62275607355129 -9.153866561954718 M24.62275607355129 -9.153866561954718 C24.7459648767104 -8.964584754106175, 24.869173679869508 -8.775302946257632, 25.182284208085537 -8.294281092968403 M24.62275607355129 -9.153866561954718 C24.750734671883816 -8.957257067850463, 24.87871327021634 -8.760647573746208, 25.182284208085537 -8.294281092968403 M25.182284208085537 -8.294281092968403 C25.377003243494713 -7.948537728158991, 25.57172227890389 -7.602794363349578, 25.685588901968003 -7.400612643853364 M25.182284208085537 -8.294281092968403 C25.36217700152691 -7.974863222092626, 25.542069794968278 -7.6554453512168505, 25.685588901968003 -7.400612643853364 M25.685588901968003 -7.400612643853364 C25.836584347066154 -7.087067371322086, 25.987579792164308 -6.773522098790807, 26.130601968252996 -6.476533489958305 M25.685588901968003 -7.400612643853364 C25.829510247582558 -7.101756890261254, 25.973431593197116 -6.802901136669145, 26.130601968252996 -6.476533489958305 M26.130601968252996 -6.476533489958305 C26.24531585421475 -6.193187973790673, 26.3600297401765 -5.909842457623041, 26.515494752796165 -5.52584087074093 M26.130601968252996 -6.476533489958305 C26.23684019352047 -6.214123019571287, 26.343078418787947 -5.951712549184268, 26.515494752796165 -5.52584087074093 M26.515494752796165 -5.52584087074093 C26.604797109996575 -5.25687639925166, 26.694099467196985 -4.987911927762391, 26.83868564858657 -4.552441386096524 M26.515494752796165 -5.52584087074093 C26.609460854978128 -5.242829942434074, 26.70342695716009 -4.959819014127219, 26.83868564858657 -4.552441386096524 M26.83868564858657 -4.552441386096524 C26.941755876063784 -4.159389937806741, 27.044826103541 -3.766338489516957, 27.098846594909176 -3.560334943301032 M26.83868564858657 -4.552441386096524 C26.914758867783284 -4.262341230957681, 26.990832086980003 -3.9722410758188387, 27.098846594909176 -3.560334943301032 M27.098846594909176 -3.560334943301032 C27.174050833145593 -3.1741770743784095, 27.249255071382013 -2.788019205455787, 27.2949085346312 -2.5535983205340735 M27.098846594909176 -3.560334943301032 C27.170072297444793 -3.194606014338203, 27.24129799998041 -2.8288770853753737, 27.2949085346312 -2.5535983205340735 M27.2949085346312 -2.5535983205340735 C27.338538934698963 -2.2152095534055256, 27.382169334766722 -1.8768207862769772, 27.42606580718717 -1.536368414522911 M27.2949085346312 -2.5535983205340735 C27.335292750724665 -2.24038631527864, 27.37567696681813 -1.9271743100232066, 27.42606580718717 -1.536368414522911 M27.42606580718717 -1.536368414522911 C27.444686212218944 -1.2463405760326607, 27.463306617250712 -0.9563127375424102, 27.491779459211006 -0.5128252411464826 M27.42606580718717 -1.536368414522911 C27.451147701425683 -1.1456976660174483, 27.476229595664197 -0.7550269175119855, 27.491779459211006 -0.5128252411464826 M27.491779459211006 -0.5128252411464826 C27.491779459211006 -0.11046203524935427, 27.491779459211006 0.2919011706477741, 27.491779459211006 0.5128252411464788 M27.491779459211006 -0.5128252411464826 C27.491779459211006 -0.20625674218019174, 27.491779459211006 0.10031175678609916, 27.491779459211006 0.5128252411464788 M27.491779459211006 0.5128252411464788 C27.47517565236985 0.7714429350491421, 27.458571845528695 1.0300606289518055, 27.42606580718717 1.5363684145229002 M27.491779459211006 0.5128252411464788 C27.47623974596304 0.7548688184143519, 27.46070003271507 0.9969123956822251, 27.42606580718717 1.5363684145229002 M27.42606580718717 1.5363684145229002 C27.389711003944473 1.8183290894053616, 27.353356200701775 2.1002897642878233, 27.294908534631205 2.5535983205340624 M27.42606580718717 1.5363684145229002 C27.394172078298393 1.7837298776551378, 27.362278349409614 2.0310913407873756, 27.294908534631205 2.5535983205340624 M27.294908534631205 2.5535983205340624 C27.224953320599276 2.9128035595482884, 27.154998106567348 3.2720087985625144, 27.098846594909176 3.5603349433010285 M27.294908534631205 2.5535983205340624 C27.245683724291194 2.8063573179626595, 27.196458913951187 3.0591163153912566, 27.098846594909176 3.5603349433010285 M27.098846594909176 3.5603349433010285 C27.038684072322688 3.78976071652554, 26.978521549736197 4.0191864897500515, 26.83868564858657 4.552441386096513 M27.098846594909176 3.5603349433010285 C27.043965263862216 3.769621244302431, 26.98908393281525 3.9789075453038336, 26.83868564858657 4.552441386096513 M26.83868564858657 4.552441386096513 C26.773286041099528 4.74941458383509, 26.70788643361249 4.9463877815736685, 26.515494752796165 5.525840870740919 M26.83868564858657 4.552441386096513 C26.72816747074321 4.885304529080378, 26.617649292899852 5.218167672064244, 26.515494752796165 5.525840870740919 M26.515494752796165 5.525840870740919 C26.36402267524881 5.899979830796292, 26.212550597701448 6.274118790851666, 26.130601968253 6.4765334899583005 M26.515494752796165 5.525840870740919 C26.422672632977502 5.755113301286624, 26.329850513158835 5.9843857318323295, 26.130601968253 6.4765334899583005 M26.130601968253 6.4765334899583005 C26.034060989450126 6.677002898088503, 25.937520010647255 6.877472306218705, 25.685588901968003 7.400612643853361 M26.130601968253 6.4765334899583005 C25.987950996042873 6.772751285994474, 25.84530002383275 7.068969082030646, 25.685588901968003 7.400612643853361 M25.685588901968003 7.400612643853361 C25.534811520656852 7.668333152236761, 25.384034139345697 7.9360536606201615, 25.18228420808554 8.294281092968399 M25.685588901968003 7.400612643853361 C25.517892753430562 7.69837413665799, 25.350196604893124 7.99613562946262, 25.18228420808554 8.294281092968399 M25.18228420808554 8.294281092968399 C25.028506597226713 8.53052479831793, 24.87472898636788 8.766768503667464, 24.622756073551297 9.15386656195471 M25.18228420808554 8.294281092968399 C25.002999851040908 8.569710009979701, 24.82371549399627 8.845138926991003, 24.622756073551297 9.15386656195471 M24.622756073551297 9.15386656195471 C24.39643746146332 9.457112884102882, 24.170118849375346 9.760359206251055, 24.00930371948848 9.975836829739734 M24.622756073551297 9.15386656195471 C24.42724268982503 9.415836684512232, 24.231729306098757 9.677806807069757, 24.00930371948848 9.975836829739734 M24.00930371948848 9.975836829739734 C23.744430276613773 10.286972247466226, 23.47955683373907 10.598107665192718, 23.344447953205055 10.756814244181063 M24.00930371948848 9.975836829739734 C23.875105343537715 10.133473878235415, 23.740906967586948 10.291110926731099, 23.344447953205055 10.756814244181063 M23.344447953205055 10.756814244181063 C23.098676154731567 11.010593804344857, 22.85290435625808 11.264373364508652, 22.630920809655784 11.493589601563638 M23.344447953205055 10.756814244181063 C23.100367721306235 11.008847122976313, 22.856287489407414 11.260880001771564, 22.630920809655784 11.493589601563638 M22.630920809655784 11.493589601563638 C22.42567841155172 11.679985317105475, 22.220436013447657 11.866381032647311, 21.871654324924627 12.183135333906142 M22.630920809655784 11.493589601563638 C22.34890959373759 11.749704726252654, 22.0668983778194 12.005819850941668, 21.871654324924627 12.183135333906142 M21.871654324924627 12.183135333906142 C21.698976817610774 12.320841050847486, 21.526299310296924 12.45854676778883, 21.06976848785946 12.822617949887304 M21.871654324924627 12.183135333906142 C21.692217735876515 12.32623123866384, 21.5127811468284 12.46932714342154, 21.06976848785946 12.822617949887304 M21.06976848785946 12.822617949887304 C20.735395470581963 13.05586209196546, 20.401022453304467 13.289106234043617, 20.228558419368788 13.409409678269446 M21.06976848785946 12.822617949887304 C20.743691055894384 13.050075450761614, 20.417613623929313 13.277532951635925, 20.228558419368788 13.409409678269446 M20.228558419368788 13.409409678269446 C20.01058254341008 13.541547935244047, 19.792606667451373 13.673686192218648, 19.351480832063004 13.94109926597423 M20.228558419368788 13.409409678269446 C19.94323514913597 13.582374321430233, 19.657911878903146 13.75533896459102, 19.351480832063004 13.94109926597423 M19.351480832063004 13.94109926597423 C19.166014846925115 14.037856751624034, 18.980548861787227 14.134614237273837, 18.442139825880933 14.415501886438705 M19.351480832063004 13.94109926597423 C18.99987577655484 14.124531398219052, 18.64827072104668 14.307963530463875, 18.442139825880933 14.415501886438705 M18.442139825880933 14.415501886438705 C18.143447101694182 14.547724295031326, 17.84475437750743 14.67994670362395, 17.50427207806999 14.830668117536346 M18.442139825880933 14.415501886438705 C18.245672128017773 14.502472308275538, 18.049204430154614 14.58944273011237, 17.50427207806999 14.830668117536346 M17.50427207806999 14.830668117536346 C17.139153506112375 14.96503512713583, 16.774034934154756 15.099402136735314, 16.54173148837794 15.184891952170695 M17.50427207806999 14.830668117536346 C17.170002108116602 14.953682556436924, 16.83573213816321 15.076696995337501, 16.54173148837794 15.184891952170695 M16.54173148837794 15.184891952170695 C16.208703335616764 15.283732959809766, 15.875675182855584 15.38257396744884, 15.558473342552134 15.476717808624468 M16.54173148837794 15.184891952170695 C16.22976563034977 15.277481781291252, 15.9177997723216 15.37007161041181, 15.558473342552134 15.476717808624468 M15.558473342552134 15.476717808624468 C15.18957916868576 15.560915496550013, 14.820684994819388 15.645113184475557, 14.558538059221961 15.704946511857045 M15.558473342552134 15.476717808624468 C15.315469627015952 15.53218182094816, 15.072465911479771 15.587645833271855, 14.558538059221961 15.704946511857045 M14.558538059221961 15.704946511857045 C14.288081398140786 15.748671847397917, 14.017624737059611 15.79239718293879, 13.546034586952105 15.868640221171937 M14.558538059221961 15.704946511857045 C14.244052549202577 15.755790090245425, 13.929567039183194 15.806633668633804, 13.546034586952105 15.868640221171937 M13.546034586952105 15.868640221171937 C13.264679511584697 15.895782206913646, 12.98332443621729 15.922924192655355, 12.525123519691405 15.967126284005381 M13.546034586952105 15.868640221171937 C13.223456549707064 15.899758936468116, 12.900878512462024 15.930877651764295, 12.525123519691405 15.967126284005381 M12.525123519691405 15.967126284005381 C12.167575836119296 15.978592142293191, 11.810028152547185 15.990058000581003, 11.500000000000004 16 M12.525123519691405 15.967126284005381 C12.139441970246374 15.979494340612488, 11.753760420801342 15.991862397219597, 11.500000000000004 16 M11.500000000000004 16 C11.500000000000002 16, 11.500000000000002 16, 11.5 16 M11.500000000000004 16 C11.500000000000002 16, 11.500000000000002 16, 11.5 16 M11.5 16 C3.038892571154662 16, -5.422214857690676 16, -11.499999999999996 16 M11.5 16 C6.82268467278894 16, 2.1453693455778797 16, -11.499999999999996 16 M-11.499999999999996 16 C-11.791821413343591 15.990641855269994, -12.083642826687187 15.981283710539987, -12.5251235196914 15.967126284005381 M-11.499999999999996 16 C-11.851520093851509 15.988727434782538, -12.20304018770302 15.977454869565074, -12.5251235196914 15.967126284005381 M-12.5251235196914 15.967126284005381 C-12.905282218568665 15.930452831532419, -13.28544091744593 15.893779379059456, -13.5460345869521 15.868640221171937 M-12.5251235196914 15.967126284005381 C-12.78076014158043 15.942465326539766, -13.036396763469462 15.91780436907415, -13.5460345869521 15.868640221171937 M-13.5460345869521 15.868640221171937 C-13.913479895456474 15.809234513273875, -14.28092520396085 15.749828805375815, -14.558538059221956 15.704946511857045 M-13.5460345869521 15.868640221171937 C-13.841620773982369 15.820852138758, -14.137206961012636 15.773064056344062, -14.558538059221956 15.704946511857045 M-14.558538059221956 15.704946511857045 C-14.951209714596926 15.61532176893973, -15.343881369971896 15.525697026022415, -15.558473342552112 15.476717808624471 M-14.558538059221956 15.704946511857045 C-14.85991465448825 15.636159270653593, -15.161291249754544 15.567372029450139, -15.558473342552112 15.476717808624471 M-15.558473342552112 15.476717808624471 C-15.792456070957744 15.407272963034085, -16.026438799363376 15.337828117443697, -16.541731488377923 15.184891952170702 M-15.558473342552112 15.476717808624471 C-15.890272566154765 15.37824154070887, -16.22207178975742 15.279765272793268, -16.541731488377923 15.184891952170702 M-16.541731488377923 15.184891952170702 C-16.810469712641282 15.085993801452872, -17.079207936904645 14.987095650735043, -17.504272078069988 14.830668117536348 M-16.541731488377923 15.184891952170702 C-16.923191872212946 15.044511004738279, -17.304652256047973 14.904130057305856, -17.504272078069988 14.830668117536348 M-17.504272078069988 14.830668117536348 C-17.711666376187797 14.738860813892863, -17.919060674305605 14.647053510249378, -18.44213982588093 14.415501886438708 M-17.504272078069988 14.830668117536348 C-17.848857404719734 14.678130415189042, -18.19344273136948 14.525592712841735, -18.44213982588093 14.415501886438708 M-18.44213982588093 14.415501886438708 C-18.64249984089577 14.31097419494218, -18.842859855910614 14.206446503445651, -19.351480832063 13.941099265974234 M-18.44213982588093 14.415501886438708 C-18.62915571783602 14.317935815395131, -18.816171609791116 14.220369744351556, -19.351480832063 13.941099265974234 M-19.351480832063 13.941099265974234 C-19.635351617189794 13.769015127820468, -19.91922240231659 13.596930989666703, -20.228558419368767 13.409409678269457 M-19.351480832063 13.941099265974234 C-19.67680669066456 13.743884818663012, -20.00213254926612 13.546670371351793, -20.228558419368767 13.409409678269457 M-20.228558419368767 13.409409678269457 C-20.453618973756374 13.252417178243038, -20.67867952814398 13.095424678216617, -21.069768487859456 12.822617949887308 M-20.228558419368767 13.409409678269457 C-20.55679717192963 13.180444533709585, -20.8850359244905 12.951479389149712, -21.069768487859456 12.822617949887308 M-21.069768487859456 12.822617949887308 C-21.33357540440097 12.612238954142327, -21.59738232094249 12.401859958397347, -21.871654324924613 12.183135333906154 M-21.069768487859456 12.822617949887308 C-21.375669737167545 12.578669843938226, -21.681570986475634 12.334721737989144, -21.871654324924613 12.183135333906154 M-21.871654324924613 12.183135333906154 C-22.078659452737103 11.995138753882397, -22.285664580549597 11.807142173858642, -22.630920809655777 11.493589601563649 M-21.871654324924613 12.183135333906154 C-22.105229098146857 11.971008904915553, -22.338803871369105 11.758882475924953, -22.630920809655777 11.493589601563649 M-22.630920809655777 11.493589601563649 C-22.85891051512259 11.25817151236623, -23.086900220589406 11.022753423168812, -23.344447953205048 10.756814244181069 M-22.630920809655777 11.493589601563649 C-22.824919677193705 11.2932698432275, -23.01891854473163 11.092950084891353, -23.344447953205048 10.756814244181069 M-23.344447953205048 10.756814244181069 C-23.581686275574295 10.478140611483193, -23.818924597943543 10.199466978785317, -24.009303719488475 9.97583682973974 M-23.344447953205048 10.756814244181069 C-23.55781443965695 10.506181828297647, -23.771180926108855 10.255549412414226, -24.009303719488475 9.97583682973974 M-24.009303719488475 9.97583682973974 C-24.169085276326747 9.761744099975735, -24.328866833165023 9.54765137021173, -24.62275607355129 9.15386656195472 M-24.009303719488475 9.97583682973974 C-24.136112254442107 9.805924945397063, -24.26292078939574 9.636013061054387, -24.62275607355129 9.15386656195472 M-24.62275607355129 9.15386656195472 C-24.80191879234438 8.87862451396223, -24.981081511137475 8.60338246596974, -25.182284208085534 8.29428109296841 M-24.62275607355129 9.15386656195472 C-24.7521918371343 8.955018470722061, -24.881627600717316 8.756170379489403, -25.182284208085534 8.29428109296841 M-25.182284208085534 8.29428109296841 C-25.293865422358856 8.096157348202976, -25.40544663663218 7.8980336034375425, -25.685588901968 7.400612643853366 M-25.182284208085534 8.29428109296841 C-25.379770608004936 7.943623992245049, -25.577257007924334 7.592966891521688, -25.685588901968 7.400612643853366 M-25.685588901968 7.400612643853366 C-25.795559771365834 7.172255780549099, -25.905530640763672 6.943898917244831, -26.130601968252996 6.476533489958307 M-25.685588901968 7.400612643853366 C-25.82465905487738 7.111830495712449, -25.963729207786763 6.823048347571533, -26.130601968252996 6.476533489958307 M-26.130601968252996 6.476533489958307 C-26.212388507432514 6.27451915694973, -26.294175046612036 6.072504823941155, -26.515494752796165 5.525840870740931 M-26.130601968252996 6.476533489958307 C-26.21944679987156 6.257085038162493, -26.30829163149012 6.037636586366678, -26.515494752796165 5.525840870740931 M-26.515494752796165 5.525840870740931 C-26.63537068746922 5.1647936551421, -26.755246622142273 4.80374643954327, -26.83868564858657 4.552441386096519 M-26.515494752796165 5.525840870740931 C-26.631743780933185 5.175717319759551, -26.747992809070205 4.8255937687781705, -26.83868564858657 4.552441386096519 M-26.83868564858657 4.552441386096519 C-26.90810798331081 4.287703935962791, -26.97753031803505 4.022966485829063, -27.098846594909176 3.5603349433010343 M-26.83868564858657 4.552441386096519 C-26.933516988335985 4.19080838746937, -27.028348328085396 3.8291753888422204, -27.098846594909176 3.5603349433010343 M-27.098846594909176 3.5603349433010343 C-27.17311165630712 3.178999548948874, -27.247376717705066 2.797664154596714, -27.2949085346312 2.5535983205340753 M-27.098846594909176 3.5603349433010343 C-27.16105348794616 3.2409156949876334, -27.223260380983138 2.921496446674233, -27.2949085346312 2.5535983205340753 M-27.2949085346312 2.5535983205340753 C-27.327278704703282 2.3025416736680953, -27.359648874775367 2.051485026802115, -27.42606580718717 1.5363684145229202 M-27.2949085346312 2.5535983205340753 C-27.339303177165853 2.209282239749064, -27.383697819700505 1.8649661589640525, -27.42606580718717 1.5363684145229202 M-27.42606580718717 1.5363684145229202 C-27.441847800352544 1.2905511319766596, -27.457629793517913 1.0447338494303993, -27.491779459211006 0.5128252411464846 M-27.42606580718717 1.5363684145229202 C-27.45058015269725 1.1545376955799243, -27.475094498207326 0.7727069766369281, -27.491779459211006 0.5128252411464846 M-27.491779459211006 0.5128252411464846 C-27.491779459211006 0.15051230851532982, -27.491779459211006 -0.211800624115825, -27.491779459211006 -0.5128252411464769 M-27.491779459211006 0.5128252411464846 C-27.491779459211006 0.24628982174385877, -27.491779459211006 -0.0202455976587671, -27.491779459211006 -0.5128252411464769 M-27.491779459211006 -0.5128252411464769 C-27.471662626167284 -0.8261611538178282, -27.45154579312356 -1.1394970664891795, -27.42606580718717 -1.5363684145228982 M-27.491779459211006 -0.5128252411464769 C-27.47726422136521 -0.7389117870838291, -27.46274898351942 -0.9649983330211813, -27.42606580718717 -1.5363684145228982 M-27.42606580718717 -1.5363684145228982 C-27.393901337951704 -1.7858296863203298, -27.361736868716235 -2.0352909581177614, -27.294908534631205 -2.5535983205340678 M-27.42606580718717 -1.5363684145228982 C-27.37817037541565 -1.9078359253200654, -27.330274943644127 -2.2793034361172326, -27.294908534631205 -2.5535983205340678 M-27.294908534631205 -2.5535983205340678 C-27.24445904304544 -2.812645797323155, -27.19400955145967 -3.071693274112242, -27.098846594909176 -3.5603349433010267 M-27.294908534631205 -2.5535983205340678 C-27.231005749695893 -2.8817256153185054, -27.16710296476058 -3.209852910102943, -27.098846594909176 -3.5603349433010267 M-27.098846594909176 -3.5603349433010267 C-27.018406731887023 -3.867087003861673, -26.937966868864866 -4.173839064422319, -26.838685648586573 -4.552441386096511 M-27.098846594909176 -3.5603349433010267 C-27.002633872969795 -3.927235750913356, -26.90642115103041 -4.294136558525685, -26.838685648586573 -4.552441386096511 M-26.838685648586573 -4.552441386096511 C-26.71058745275721 -4.9382527422587374, -26.582489256927847 -5.324064098420964, -26.515494752796172 -5.525840870740911 M-26.838685648586573 -4.552441386096511 C-26.736098928204303 -4.861416242913705, -26.633512207822033 -5.1703910997309, -26.515494752796172 -5.525840870740911 M-26.515494752796172 -5.525840870740911 C-26.430797176231376 -5.735045522372202, -26.34609959966658 -5.944250174003494, -26.130601968253 -6.476533489958299 M-26.515494752796172 -5.525840870740911 C-26.4238063221168 -5.7523130671941765, -26.332117891437424 -5.978785263647442, -26.130601968253 -6.476533489958299 M-26.130601968253 -6.476533489958299 C-26.0159991814793 -6.714508628800703, -25.9013963947056 -6.952483767643108, -25.685588901968003 -7.400612643853359 M-26.130601968253 -6.476533489958299 C-25.996813638253876 -6.754347819813163, -25.86302530825475 -7.032162149668028, -25.685588901968003 -7.400612643853359 M-25.685588901968003 -7.400612643853359 C-25.498184716769966 -7.733367751403994, -25.31078053157193 -8.066122858954628, -25.182284208085537 -8.294281092968404 M-25.685588901968003 -7.400612643853359 C-25.531210085054127 -7.674727865834294, -25.37683126814025 -7.948843087815229, -25.182284208085537 -8.294281092968404 M-25.182284208085537 -8.294281092968404 C-24.993618873421227 -8.584121710748736, -24.804953538756916 -8.873962328529066, -24.622756073551294 -9.153866561954715 M-25.182284208085537 -8.294281092968404 C-24.979446623063236 -8.605894093080689, -24.776609038040935 -8.917507093192972, -24.622756073551294 -9.153866561954715 M-24.622756073551294 -9.153866561954715 C-24.424810515910917 -9.419095575981542, -24.226864958270536 -9.684324590008371, -24.00930371948848 -9.975836829739734 M-24.622756073551294 -9.153866561954715 C-24.459434892675997 -9.372702065461947, -24.2961137118007 -9.591537568969182, -24.00930371948848 -9.975836829739734 M-24.00930371948848 -9.975836829739734 C-23.791532019177676 -10.231643860485589, -23.573760318866874 -10.487450891231441, -23.344447953205055 -10.756814244181063 M-24.00930371948848 -9.975836829739734 C-23.767942746678937 -10.259353162230239, -23.526581773869395 -10.542869494720742, -23.344447953205055 -10.756814244181063 M-23.344447953205055 -10.756814244181063 C-23.160839550117583 -10.946404994899119, -22.97723114703011 -11.135995745617175, -22.63092080965579 -11.493589601563633 M-23.344447953205055 -10.756814244181063 C-23.165173845814 -10.941929478740276, -22.98589973842294 -11.127044713299489, -22.63092080965579 -11.493589601563633 M-22.63092080965579 -11.493589601563633 C-22.332760892481417 -11.764370549462289, -22.034600975307043 -12.035151497360944, -21.871654324924627 -12.18313533390614 M-22.63092080965579 -11.493589601563633 C-22.39401091663871 -11.70874489810947, -22.157101023621625 -11.923900194655308, -21.871654324924627 -12.18313533390614 M-21.871654324924627 -12.18313533390614 C-21.597218998413187 -12.40199020376827, -21.322783671901746 -12.620845073630397, -21.069768487859463 -12.822617949887302 M-21.871654324924627 -12.18313533390614 C-21.622385781912037 -12.381920363644172, -21.373117238899443 -12.580705393382203, -21.069768487859463 -12.822617949887302 M-21.069768487859463 -12.822617949887302 C-20.781928050324137 -13.023402978700231, -20.49408761278881 -13.22418800751316, -20.228558419368788 -13.409409678269444 M-21.069768487859463 -12.822617949887302 C-20.89318934357725 -12.945791916950617, -20.71661019929504 -13.068965884013931, -20.228558419368788 -13.409409678269444 M-20.228558419368788 -13.409409678269444 C-19.87905222854821 -13.621282385071236, -19.529546037727638 -13.83315509187303, -19.351480832063007 -13.941099265974229 M-20.228558419368788 -13.409409678269444 C-19.96271084465297 -13.570568040355933, -19.696863269937154 -13.731726402442424, -19.351480832063007 -13.941099265974229 M-19.351480832063007 -13.941099265974229 C-19.12252845859355 -14.060543572562253, -18.89357608512409 -14.179987879150275, -18.442139825880936 -14.415501886438705 M-19.351480832063007 -13.941099265974229 C-19.09307670629423 -14.07590853287206, -18.834672580525453 -14.210717799769888, -18.442139825880936 -14.415501886438705 M-18.442139825880936 -14.415501886438705 C-18.156978009590937 -14.541734563485557, -17.871816193300933 -14.667967240532409, -17.504272078069995 -14.830668117536344 M-18.442139825880936 -14.415501886438705 C-18.17781888328921 -14.532508926921883, -17.913497940697482 -14.649515967405064, -17.504272078069995 -14.830668117536344 M-17.504272078069995 -14.830668117536344 C-17.169694621622153 -14.953795714309255, -16.83511716517431 -15.076923311082163, -16.54173148837794 -15.184891952170695 M-17.504272078069995 -14.830668117536344 C-17.24316645462768 -14.926757400597042, -16.98206083118536 -15.02284668365774, -16.54173148837794 -15.184891952170695 M-16.54173148837794 -15.184891952170695 C-16.15898191588733 -15.298490016192403, -15.776232343396721 -15.412088080214113, -15.558473342552134 -15.476717808624466 M-16.54173148837794 -15.184891952170695 C-16.281413271280925 -15.262153032566884, -16.021095054183906 -15.339414112963073, -15.558473342552134 -15.476717808624466 M-15.558473342552134 -15.476717808624466 C-15.195653568290567 -15.559529054479377, -14.832833794028998 -15.642340300334286, -14.558538059221963 -15.704946511857043 M-15.558473342552134 -15.476717808624466 C-15.355687444951123 -15.523002366450246, -15.15290154735011 -15.569286924276026, -14.558538059221963 -15.704946511857043 M-14.558538059221963 -15.704946511857043 C-14.231402174054935 -15.75783530479417, -13.904266288887905 -15.810724097731296, -13.546034586952107 -15.868640221171937 M-14.558538059221963 -15.704946511857043 C-14.333191849753707 -15.741378739417916, -14.10784564028545 -15.777810966978791, -13.546034586952107 -15.868640221171937 M-13.546034586952107 -15.868640221171937 C-13.176545383607847 -15.904284400242776, -12.807056180263586 -15.939928579313616, -12.525123519691407 -15.967126284005381 M-13.546034586952107 -15.868640221171937 C-13.235514157507678 -15.898595753544987, -12.92499372806325 -15.928551285918035, -12.525123519691407 -15.967126284005381 M-12.525123519691407 -15.967126284005381 C-12.135843127779355 -15.979609748485684, -11.7465627358673 -15.992093212965987, -11.500000000000005 -16 M-12.525123519691407 -15.967126284005381 C-12.129450425963665 -15.979814749990274, -11.733777332235924 -15.992503215975168, -11.500000000000005 -16 M-11.500000000000005 -16 C-11.500000000000004 -16, -11.500000000000004 -16, -11.5 -16 M-11.500000000000005 -16 C-11.500000000000004 -16, -11.500000000000004 -16, -11.5 -16" stroke="#999" stroke-width="1.3" fill="none" stroke-dasharray="0 0" style=""/></g><g class="label" style="" transform="translate(0, -8.5)"><rect/><g><rect class="background" style="stroke: none"/><text y="-10.1" style=""><tspan class="text-outer-tspan row" x="0" y="-0.1em" dy="1.1em"><tspan font-style="normal" class="text-inner-tspan" font-weight="normal">开始</tspan></tspan></text></g></g></g><g class="node default" id="my-svg-flowchart-Request-1" data-look="classic" transform="translate(681.7890625, 113.5)"><rect class="basic label-container" style="" x="-86.08203125" y="-23.5" width="172.1640625" height="47"/><g class="label" style="" transform="translate(0, -8.5)"><rect/><g><rect class="background" style="stroke: none"/><text y="-10.1" style=""><tspan class="text-outer-tspan row" x="0" y="-0.1em" dy="1.1em"><tspan font-style="normal" class="text-inner-tspan" font-weight="normal">请求</tspan><tspan font-style="normal" class="text-inner-tspan" font-weight="normal"> DeepSeek</tspan></tspan></text></g></g></g><g class="node default" id="my-svg-flowchart-Check-3" data-look="classic" transform="translate(681.7890625, 266.5)"><polygon points="79.5,0 159,-79.5 79.5,-159 0,-79.5" class="label-container" transform="translate(-79, 79.5)"/><g class="label" style="" transform="translate(0, -8.5)"><rect/><g><rect class="background" style="stroke: none"/><text y="-10.1" style=""><tspan class="text-outer-tspan row" x="0" y="-0.1em" dy="1.1em"><tspan font-style="normal" class="text-inner-tspan" font-weight="normal">返回什么信号？</tspan></tspan></text></g></g></g><g class="node default" id="my-svg-flowchart-Done-5" data-look="classic" transform="translate(110, 488.5)"><rect class="basic label-container" style="" x="-102" y="-32.29999923706055" width="204" height="64.5999984741211"/><g class="label" style="" transform="translate(0, -17.299999237060547)"><rect/><g><rect class="background" style="stroke: none"/><text y="-10.1" style=""><tspan class="text-outer-tspan row" x="0" y="-0.1em" dy="1.1em"><tspan font-style="normal" class="text-inner-tspan" font-weight="normal">回到</tspan><tspan font-style="normal" class="text-inner-tspan" font-weight="normal"> Agent</tspan><tspan font-style="normal" class="text-inner-tspan" font-weight="normal"> Loop</tspan></tspan><tspan class="text-outer-tspan row" x="0" y="1em" dy="1.1em"><tspan font-style="normal" class="text-inner-tspan" font-weight="normal">执行工具或输出答案</tspan></tspan></text></g></g></g><g class="node default" id="my-svg-flowchart-L1-7" data-look="classic" transform="translate(333.5, 488.5)"><polygon points="71.5,0 143,-71.5 71.5,-143 0,-71.5" class="label-container" transform="translate(-71, 71.5)"/><g class="label" style="" transform="translate(0, -8.5)"><rect/><g><rect class="background" style="stroke: none"/><text y="-10.1" style=""><tspan class="text-outer-tspan row" x="0" y="-0.1em" dy="1.1em"><tspan font-style="normal" class="text-inner-tspan" font-weight="normal">第一次截断？</tspan></tspan></text></g></g></g><g class="node default" id="my-svg-flowchart-L2-9" data-look="classic" transform="translate(221.75, 710.5)"><rect class="basic label-container" style="" x="-118.9140625" y="-32.29999923706055" width="237.828125" height="64.5999984741211"/><g class="label" style="" transform="translate(0, -17.299999237060547)"><rect/><g><rect class="background" style="stroke: none"/><text y="-10.1" style=""><tspan class="text-outer-tspan row" x="0" y="-0.1em" dy="1.1em"><tspan font-style="normal" class="text-inner-tspan" font-weight="normal">扩大输出上限</tspan></tspan><tspan class="text-outer-tspan row" x="0" y="1em" dy="1.1em"><tspan font-style="normal" class="text-inner-tspan" font-weight="normal">用原</tspan><tspan font-style="normal" class="text-inner-tspan" font-weight="normal"> messages</tspan><tspan font-style="normal" class="text-inner-tspan" font-weight="normal"> 重新请求</tspan></tspan></text></g></g></g><g class="node default" id="my-svg-flowchart-L3-11" data-look="classic" transform="translate(470.1640625, 710.5)"><polygon points="79.5,0 159,-79.5 79.5,-159 0,-79.5" class="label-container" transform="translate(-79, 79.5)"/><g class="label" style="" transform="translate(0, -8.5)"><rect/><g><rect class="background" style="stroke: none"/><text y="-10.1" style=""><tspan class="text-outer-tspan row" x="0" y="-0.1em" dy="1.1em"><tspan font-style="normal" class="text-inner-tspan" font-weight="normal">工具调用完整？</tspan></tspan></text></g></g></g><g class="node default" id="my-svg-flowchart-Stop-13" data-look="classic" transform="translate(686.4140625, 1164.099998474121)"><rect class="basic label-container" style="" x="-62" y="-23.5" width="124" height="47"/><g class="label" style="" transform="translate(0, -8.5)"><rect/><g><rect class="background" style="stroke: none"/><text y="-10.1" style=""><tspan class="text-outer-tspan row" x="0" y="-0.1em" dy="1.1em"><tspan font-style="normal" class="text-inner-tspan" font-weight="normal">明确停止</tspan></tspan></text></g></g></g><g class="node default" id="my-svg-flowchart-L4-15" data-look="classic" transform="translate(540.4140625, 956.5)"><polygon points="95.5,0 191,-95.5 95.5,-191 0,-95.5" class="label-container" transform="translate(-95, 95.5)"/><g class="label" style="" transform="translate(0, -8.5)"><rect/><g><rect class="background" style="stroke: none"/><text y="-10.1" style=""><tspan class="text-outer-tspan row" x="0" y="-0.1em" dy="1.1em"><tspan font-style="normal" class="text-inner-tspan" font-weight="normal">续写次数还没用完？</tspan></tspan></text></g></g></g><g class="node default" id="my-svg-flowchart-L5-17" data-look="classic" transform="translate(170.0390625, 1164.099998474121)"><rect class="basic label-container" style="" x="-78" y="-41.099998474121094" width="156" height="82.19999694824219"/><g class="label" style="" transform="translate(0, -26.099998474121094)"><rect/><g><rect class="background" style="stroke: none"/><text y="-10.1" style=""><tspan class="text-outer-tspan row" x="0" y="-0.1em" dy="1.1em"><tspan font-style="normal" class="text-inner-tspan" font-weight="normal">保存文本片段</tspan></tspan><tspan class="text-outer-tspan row" x="0" y="1em" dy="1.1em"><tspan font-style="normal" class="text-inner-tspan" font-weight="normal">追加续写提示</tspan></tspan><tspan class="text-outer-tspan row" x="0" y="2.1em" dy="1.1em"><tspan font-style="normal" class="text-inner-tspan" font-weight="normal">重新请求</tspan></tspan></text></g></g></g><g class="node default" id="my-svg-flowchart-C1-21" data-look="classic" transform="translate(770.2890625, 956.5)"><polygon points="71.5,0 143,-71.5 71.5,-143 0,-71.5" class="label-container" transform="translate(-71, 71.5)"/><g class="label" style="" transform="translate(0, -8.5)"><rect/><g><rect class="background" style="stroke: none"/><text y="-10.1" style=""><tspan class="text-outer-tspan row" x="0" y="-0.1em" dy="1.1em"><tspan font-style="normal" class="text-inner-tspan" font-weight="normal">已经压缩过？</tspan></tspan></text></g></g></g><g class="node default" id="my-svg-flowchart-C2-23" data-look="classic" transform="translate(388.7890625, 1164.099998474121)"><rect class="basic label-container" style="" x="-90.75" y="-32.29999923706055" width="181.5" height="64.5999984741211"/><g class="label" style="" transform="translate(0, -17.299999237060547)"><rect/><g><rect class="background" style="stroke: none"/><text y="-10.1" style=""><tspan class="text-outer-tspan row" x="0" y="-0.1em" dy="1.1em"><tspan font-style="normal" class="text-inner-tspan" font-weight="normal">reactive</tspan><tspan font-style="normal" class="text-inner-tspan" font-weight="normal"> compact</tspan></tspan><tspan class="text-outer-tspan row" x="0" y="1em" dy="1.1em"><tspan font-style="normal" class="text-inner-tspan" font-weight="normal">重新请求</tspan></tspan></text></g></g></g><g class="node default" id="my-svg-flowchart-R1-27" data-look="classic" transform="translate(1001.7890625, 956.5)"><polygon points="95.5,0 191,-95.5 95.5,-191 0,-95.5" class="label-container" transform="translate(-95, 95.5)"/><g class="label" style="" transform="translate(0, -8.5)"><rect/><g><rect class="background" style="stroke: none"/><text y="-10.1" style=""><tspan class="text-outer-tspan row" x="0" y="-0.1em" dy="1.1em"><tspan font-style="normal" class="text-inner-tspan" font-weight="normal">重试次数还没用完？</tspan></tspan></text></g></g></g><g class="node default" id="my-svg-flowchart-R2-29" data-look="classic" transform="translate(1067.0390625, 1164.099998474121)"><rect class="basic label-container" style="" x="-94" y="-41.099998474121094" width="188" height="82.19999694824219"/><g class="label" style="" transform="translate(0, -26.099998474121094)"><rect/><g><rect class="background" style="stroke: none"/><text y="-10.1" style=""><tspan class="text-outer-tspan row" x="0" y="-0.1em" dy="1.1em"><tspan font-style="normal" class="text-inner-tspan" font-weight="normal">等待</tspan><tspan font-style="normal" class="text-inner-tspan" font-weight="normal"> +</tspan><tspan font-style="normal" class="text-inner-tspan" font-weight="normal"> 抖动</tspan></tspan><tspan class="text-outer-tspan row" x="0" y="1em" dy="1.1em"><tspan font-style="normal" class="text-inner-tspan" font-weight="normal">必要时切备用模型</tspan></tspan><tspan class="text-outer-tspan row" x="0" y="2.1em" dy="1.1em"><tspan font-style="normal" class="text-inner-tspan" font-weight="normal">重新请求</tspan></tspan></text></g></g></g></g></g></g><defs><filter id="my-svg-drop-shadow" height="130%" width="130%"><feDropShadow dx="4" dy="4" stdDeviation="0" flood-opacity="0.06" flood-color="#000000"/></filter></defs><defs><filter id="my-svg-drop-shadow-small" height="150%" width="150%"><feDropShadow dx="2" dy="2" stdDeviation="0" flood-opacity="0.06" flood-color="#000000"/></filter></defs><linearGradient id="my-svg-gradient" gradientUnits="objectBoundingBox" x1="0%" y1="0%" x2="100%" y2="0%"><stop offset="0%" stop-color="hsl(0, 0%, 83.3333333333%)" stop-opacity="1"/><stop offset="100%" stop-color="hsl(0, 0%, 88.9215686275%)" stop-opacity="1"/></linearGradient></svg>