<svg width="434.693359375" height="650.75" id="my-svg" xmlns="http://www.w3.org/2000/svg" xmlns:xlink="http://www.w3.org/1999/xlink" class="classDiagram" style="max-width: 434.693px; background-color: white;" viewBox="0 0 434.693359375 650.75" role="graphics-document document" aria-roledescription="class"><style>#my-svg{font-family:"trebuchet ms",verdana,arial,sans-serif;font-size:16px;fill:#000000;}@keyframes edge-animation-frame{from{stroke-dashoffset:0;}}@keyframes dash{to{stroke-dashoffset:0;}}#my-svg .edge-animation-slow{stroke-dasharray:9,5!important;stroke-dashoffset:900;animation:dash 50s linear infinite;stroke-linecap:round;}#my-svg .edge-animation-fast{stroke-dasharray:9,5!important;stroke-dashoffset:900;animation:dash 20s linear infinite;stroke-linecap:round;}#my-svg .error-icon{fill:#552222;}#my-svg .error-text{fill:#552222;stroke:#552222;}#my-svg .edge-thickness-normal{stroke-width:1px;}#my-svg .edge-thickness-thick{stroke-width:3.5px;}#my-svg .edge-pattern-solid{stroke-dasharray:0;}#my-svg .edge-thickness-invisible{stroke-width:0;fill:none;}#my-svg .edge-pattern-dashed{stroke-dasharray:3;}#my-svg .edge-pattern-dotted{stroke-dasharray:2;}#my-svg .marker{fill:#666;stroke:#666;}#my-svg .marker.cross{stroke:#666;}#my-svg svg{font-family:"trebuchet ms",verdana,arial,sans-serif;font-size:16px;}#my-svg p{margin:0;}#my-svg g.classGroup text{fill:#999;stroke:none;font-family:"trebuchet ms",verdana,arial,sans-serif;font-size:10px;}#my-svg g.classGroup text .title{font-weight:bolder;}#my-svg .cluster-label text{fill:#333;}#my-svg .cluster-label span{color:#333;}#my-svg .cluster-label span p{background-color:transparent;}#my-svg .cluster rect{fill:hsl(0, 0%, 98.9215686275%);stroke:#707070;stroke-width:1px;}#my-svg .cluster text{fill:#333;}#my-svg .cluster span{color:#333;}#my-svg .nodeLabel,#my-svg .edgeLabel{color:#111111;}#my-svg .noteLabel .nodeLabel,#my-svg .noteLabel .edgeLabel{color:#fff;}#my-svg .edgeLabel .label rect{fill:#eee;}#my-svg .label text{fill:#111111;}#my-svg .labelBkg{background:#eee;}#my-svg .edgeLabel .label span{background:#eee;}#my-svg .classTitle{font-weight:bolder;}#my-svg .node rect,#my-svg .node circle,#my-svg .node ellipse,#my-svg .node polygon,#my-svg .node path{fill:#eee;stroke:#999;stroke-width:1;}#my-svg .divider{stroke:#999;stroke-width:1;}#my-svg g.clickable{cursor:pointer;}#my-svg g.classGroup rect{fill:#eee;stroke:#999;}#my-svg g.classGroup line{stroke:#999;stroke-width:1;}#my-svg .classLabel .box{stroke:none;stroke-width:0;fill:#eee;opacity:0.5;}#my-svg .classLabel .label{fill:#999;font-size:10px;}#my-svg .relation{stroke:#666;stroke-width:1;fill:none;}#my-svg .dashed-line{stroke-dasharray:3;}#my-svg .dotted-line{stroke-dasharray:1 2;}#my-svg [id$="-compositionStart"],#my-svg .composition{fill:#666!important;stroke:#666!important;stroke-width:1;}#my-svg [id$="-compositionEnd"],#my-svg .composition{fill:#666!important;stroke:#666!important;stroke-width:1;}#my-svg [id$="-dependencyStart"],#my-svg .dependency{fill:#666!important;stroke:#666!important;stroke-width:1;}#my-svg [id$="-dependencyEnd"],#my-svg .dependency{fill:#666!important;stroke:#666!important;stroke-width:1;}#my-svg [id$="-extensionStart"],#my-svg .extension{fill:transparent!important;stroke:#666!important;stroke-width:1;}#my-svg [id$="-extensionEnd"],#my-svg .extension{fill:transparent!important;stroke:#666!important;stroke-width:1;}#my-svg [id$="-aggregationStart"],#my-svg .aggregation{fill:transparent!important;stroke:#666!important;stroke-width:1;}#my-svg [id$="-aggregationEnd"],#my-svg .aggregation{fill:transparent!important;stroke:#666!important;stroke-width:1;}#my-svg [id$="-lollipopStart"],#my-svg .lollipop{fill:#eee!important;stroke:#666!important;stroke-width:1;}#my-svg [id$="-lollipopEnd"],#my-svg .lollipop{fill:#eee!important;stroke:#666!important;stroke-width:1;}#my-svg .edgeTerminals{font-size:11px;line-height:initial;}#my-svg .classTitleText{text-anchor:middle;font-size:18px;fill:#000000;}#my-svg .edgeLabel[data-look="neo"]{background-color:white;text-align:center;}#my-svg .edgeLabel[data-look="neo"] p{background-color:white;}#my-svg .edgeLabel[data-look="neo"] rect{opacity:0.5;background-color:white;fill:white;}#my-svg .label-icon{display:inline-block;height:1em;overflow:visible;vertical-align:-0.125em;}#my-svg .node .label-icon path{fill:currentColor;stroke:revert;stroke-width:revert;}#my-svg .node .neo-node{stroke:#999;}#my-svg [data-look="neo"].node rect,#my-svg [data-look="neo"].cluster rect,#my-svg [data-look="neo"].node polygon{stroke:url(#my-svg-gradient);filter:drop-shadow( 1px 2px 2px rgba(185,185,185,1));}#my-svg [data-look="neo"].swimlane.cluster rect{filter:none;}#my-svg [data-look="neo"].node path{stroke:url(#my-svg-gradient);stroke-width:1px;}#my-svg [data-look="neo"].node .outer-path{filter:drop-shadow( 1px 2px 2px rgba(185,185,185,1));}#my-svg [data-look="neo"].node .neo-line path{stroke:#999;filter:none;}#my-svg [data-look="neo"].node circle{stroke:url(#my-svg-gradient);filter:drop-shadow( 1px 2px 2px rgba(185,185,185,1));}#my-svg [data-look="neo"].node circle .state-start{fill:#000000;}#my-svg [data-look="neo"].icon-shape .icon{fill:url(#my-svg-gradient);filter:drop-shadow( 1px 2px 2px rgba(185,185,185,1));}#my-svg [data-look="neo"].icon-shape .icon-neo path{stroke:url(#my-svg-gradient);filter:drop-shadow( 1px 2px 2px rgba(185,185,185,1));}#my-svg :root{--mermaid-font-family:"trebuchet ms",verdana,arial,sans-serif;}</style><g><defs><marker id="my-svg_class-aggregationStart" class="marker aggregation class" refX="18" refY="7" markerWidth="190" markerHeight="240" orient="auto"><path d="M 18,7 L9,13 L1,7 L9,1 Z"/></marker></defs><defs><marker id="my-svg_class-aggregationEnd" class="marker aggregation class" refX="1" refY="7" markerWidth="20" markerHeight="28" orient="auto"><path d="M 18,7 L9,13 L1,7 L9,1 Z"/></marker></defs><defs><marker id="my-svg_class-aggregationStart-margin" class="marker aggregation class" refX="15" refY="7" markerWidth="190" markerHeight="240" orient="auto" markerUnits="userSpaceOnUse"><path d="M 18,7 L9,13 L1,7 L9,1 Z" style="stroke-width: 2;"/></marker></defs><defs><marker id="my-svg_class-aggregationEnd-margin" class="marker aggregation class" refX="1" refY="7" markerWidth="20" markerHeight="28" orient="auto" markerUnits="userSpaceOnUse"><path d="M 18,7 L9,13 L1,7 L9,1 Z" style="stroke-width: 2;"/></marker></defs><defs><marker id="my-svg_class-extensionStart" class="marker extension class" refX="18" refY="7" markerWidth="20" markerHeight="28" orient="auto" markerUnits="userSpaceOnUse"><path d="M 1,7 L18,13 V 1 Z"/></marker></defs><defs><marker id="my-svg_class-extensionEnd" class="marker extension class" refX="1" refY="7" markerWidth="20" markerHeight="28" orient="auto"><path d="M 1,1 V 13 L18,7 Z"/></marker></defs><marker id="my-svg_class-extensionStart-margin" class="marker extension class" refX="18" refY="7" markerWidth="20" markerHeight="28" orient="auto" markerUnits="userSpaceOnUse" viewBox="0 0 20 14"><polygon points="10,7 18,13 18,1" style="stroke-width: 2; stroke-dasharray: 0;"/></marker><defs><marker id="my-svg_class-extensionEnd-margin" class="marker extension class" refX="9" refY="7" markerWidth="20" markerHeight="28" orient="auto" markerUnits="userSpaceOnUse" viewBox="0 0 20 14"><polygon points="10,1 10,13 18,7" style="stroke-width: 2; stroke-dasharray: 0;"/></marker></defs><defs><marker id="my-svg_class-compositionStart" class="marker composition class" refX="18" refY="7" markerWidth="190" markerHeight="240" orient="auto"><path d="M 18,7 L9,13 L1,7 L9,1 Z"/></marker></defs><defs><marker id="my-svg_class-compositionEnd" class="marker composition class" refX="1" refY="7" markerWidth="20" markerHeight="28" orient="auto"><path d="M 18,7 L9,13 L1,7 L9,1 Z"/></marker></defs><defs><marker id="my-svg_class-compositionStart-margin" class="marker composition class" refX="15" refY="7" markerWidth="190" markerHeight="240" orient="auto" markerUnits="userSpaceOnUse"><path viewBox="0 0 15 15" d="M 18,7 L9,13 L1,7 L9,1 Z" style="stroke-width: 0;"/></marker></defs><defs><marker id="my-svg_class-compositionEnd-margin" class="marker composition class" refX="3.5" refY="7" markerWidth="20" markerHeight="28" orient="auto" markerUnits="userSpaceOnUse"><path d="M 18,7 L9,13 L1,7 L9,1 Z" style="stroke-width: 0;"/></marker></defs><defs><marker id="my-svg_class-dependencyStart" class="marker dependency class" refX="6" refY="7" markerWidth="190" markerHeight="240" orient="auto"><path d="M 5,7 L9,13 L1,7 L9,1 Z"/></marker></defs><defs><marker id="my-svg_class-dependencyEnd" class="marker dependency class" refX="13" refY="7" markerWidth="20" markerHeight="28" orient="auto"><path d="M 18,7 L9,13 L14,7 L9,1 Z"/></marker></defs><defs><marker id="my-svg_class-dependencyStart-margin" class="marker dependency class" refX="4" refY="7" markerWidth="190" markerHeight="240" orient="auto" markerUnits="userSpaceOnUse"><path d="M 5,7 L9,13 L1,7 L9,1 Z" style="stroke-width: 0;"/></marker></defs><defs><marker id="my-svg_class-dependencyEnd-margin" class="marker dependency class" refX="16" refY="7" markerWidth="20" markerHeight="28" orient="auto" markerUnits="userSpaceOnUse"><path d="M 18,7 L9,13 L14,7 L9,1 Z" style="stroke-width: 0;"/></marker></defs><defs><marker id="my-svg_class-lollipopStart" class="marker lollipop class" refX="13" refY="7" markerWidth="190" markerHeight="240" orient="auto"><circle fill="transparent" cx="7" cy="7" r="6"/></marker></defs><defs><marker id="my-svg_class-lollipopEnd" class="marker lollipop class" refX="1" refY="7" markerWidth="190" markerHeight="240" orient="auto"><circle fill="transparent" cx="7" cy="7" r="6"/></marker></defs><defs><marker id="my-svg_class-lollipopStart-margin" class="marker lollipop class" refX="13" refY="7" markerWidth="190" markerHeight="240" orient="auto" markerUnits="userSpaceOnUse"><circle fill="transparent" cx="7" cy="7" r="6" stroke-width="2"/></marker></defs><defs><marker id="my-svg_class-lollipopEnd-margin" class="marker lollipop class" refX="1" refY="7" markerWidth="190" markerHeight="240" orient="auto" markerUnits="userSpaceOnUse"><circle fill="transparent" cx="7" cy="7" r="6" stroke-width="2"/></marker></defs><g class="root"><g class="clusters"/><g class="edgePaths"><path d="M177.226,204.5L172.973,210.417C168.721,216.333,160.216,228.167,155.963,239C151.711,249.833,151.711,259.667,151.711,264.583L151.711,269.5" id="my-svg-id_TaskBoard_Task_1" class="edge-thickness-normal edge-pattern-solid relation" style=";;;" data-edge="true" data-et="edge" data-id="id_TaskBoard_Task_1" data-points="W3sieCI6MTc3LjIyNTUyNTcwMDkzNDU4LCJ5IjoyMDQuNX0seyJ4IjoxNTEuNzEwOTM3NSwieSI6MjQwfSx7IngiOjE1MS43MTA5Mzc1LCJ5IjoyNzUuNX1d" data-look="classic" marker-end="url(#my-svg_class-dependencyEnd)"/><path d="M318.454,204.5L322.707,210.417C326.959,216.333,335.464,228.167,339.716,250.625C343.969,273.083,343.969,306.167,343.969,322.708L343.969,339.25" id="my-svg-id_TaskBoard_Disk_2" class="edge-thickness-normal edge-pattern-solid relation" style=";;;" data-edge="true" data-et="edge" data-id="id_TaskBoard_Disk_2" data-points="W3sieCI6MzE4LjQ1NDE2MTc5OTA2NTQ1LCJ5IjoyMDQuNX0seyJ4IjozNDMuOTY4NzUsInkiOjI0MH0seyJ4IjozNDMuOTY4NzUsInkiOjM0NS4yNX1d" data-look="classic" marker-end="url(#my-svg_class-dependencyEnd)"/><path d="M106.359,521.5L104.822,525.667C103.286,529.833,100.213,538.167,98.677,546.5C97.141,554.833,97.141,563.167,97.141,567.333L97.141,571.5" id="my-svg-Task-cyclic-special-1" class="edge-thickness-normal edge-pattern-solid relation" style=";;;" data-edge="true" data-et="edge" data-id="Task-cyclic-special-1" data-points="W3sieCI6MTA2LjM1ODU4MzE5MjU2NzU2LCJ5Ijo1MjEuNX0seyJ4Ijo5Ny4xNDA2MjUsInkiOjU0Ni41fSx7IngiOjk3LjE0MDYyNSwieSI6NTcxLjV9XQ==" data-look="classic"/><path d="M97.141,571.6L97.141,577.517C97.141,583.433,97.141,595.267,106.227,607.103C115.314,618.939,133.487,630.778,142.574,636.698L151.661,642.617" id="my-svg-Task-cyclic-special-mid" class="edge-thickness-normal edge-pattern-solid relation" style=";;;" data-edge="true" data-et="edge" data-id="Task-cyclic-special-mid" data-points="W3sieCI6OTcuMTQwNjI1LCJ5Ijo1NzEuNjAwMDAwMDAxNDkwMX0seyJ4Ijo5Ny4xNDA2MjUsInkiOjYwNy4xMDAwMDAwMDE0OTAxfSx7IngiOjE1MS42NjA5Mzc0OTkyNTQ5NCwieSI6NjQyLjYxNzQyNzM0NjA1ODN9XQ==" data-look="classic"/><path d="M151.761,642.617L160.848,636.698C169.934,630.778,188.108,618.939,197.195,607.095C206.281,595.25,206.281,583.4,206.281,573.3C206.281,563.2,206.281,554.85,205.091,547.447C203.9,540.043,201.52,533.586,200.329,530.358L199.139,527.13" id="my-svg-Task-cyclic-special-2" class="edge-thickness-normal edge-pattern-solid relation" style=";;;" data-edge="true" data-et="edge" data-id="Task-cyclic-special-2" data-points="W3sieCI6MTUxLjc2MDkzNzUwMDc0NTA2LCJ5Ijo2NDIuNjE3NDI3MzQ2MDU4M30seyJ4IjoyMDYuMjgxMjUsInkiOjYwNy4xMDAwMDAwMDE0OTAxfSx7IngiOjIwNi4yODEyNSwieSI6NTcxLjU1MDAwMDAwMDc0NTF9LHsieCI6MjA2LjI4MTI1LCJ5Ijo1NDYuNX0seyJ4IjoxOTcuMDYzMjkxODA3NDMyNDUsInkiOjUyMS41fV0=" data-look="classic" marker-end="url(#my-svg_class-dependencyEnd)"/></g><g class="edgeLabels"><g class="edgeLabel" transform="translate(151.7109375, 240)"><g class="label" data-id="id_TaskBoard_Task_1" transform="translate(0, -10.5)"><g><rect class="background" style="" x="-54.4453125" y="0" width="108.890625" height="21"/><text y="-10.1" text-anchor="middle" style=""><tspan class="text-outer-tspan row" x="0" y="-0.1em" dy="1.1em" text-anchor="middle"><tspan font-style="normal" class="text-inner-tspan" font-weight="normal">创建/读取/更新</tspan></tspan></text></g></g></g><g class="edgeLabel" transform="translate(343.96875, 240)"><g class="label" data-id="id_TaskBoard_Disk_2" transform="translate(0, -10.5)"><g><rect class="background" style="" x="-18" y="0" width="36" height="21"/><text y="-10.1" text-anchor="middle" style=""><tspan class="text-outer-tspan row" x="0" y="-0.1em" dy="1.1em" text-anchor="middle"><tspan font-style="normal" class="text-inner-tspan" font-weight="normal">落盘</tspan></tspan></text></g></g></g><g class="edgeLabel"><g class="label" data-id="Task-cyclic-special-1" transform="translate(0, 0)"><text y="-10.1" text-anchor="middle"><tspan class="text-outer-tspan row" x="0" y="-0.1em" dy="1.1em" text-anchor="middle"/></text></g></g><g><rect class="background" style="stroke: none"/></g><g class="edgeLabel" transform="translate(97.140625, 607.1000000014901)"><g class="label" data-id="Task-cyclic-special-mid" transform="translate(0, -10.5)"><g><rect class="background" style="" x="-89.140625" y="0" width="178.28125" height="21"/><text y="-10.1" text-anchor="middle" style=""><tspan class="text-outer-tspan row" x="0" y="-0.1em" dy="1.1em" text-anchor="middle"><tspan font-style="normal" class="text-inner-tspan" font-weight="normal">blockedBy</tspan><tspan font-style="normal" class="text-inner-tspan" font-weight="normal"> 指向上游任务</tspan></tspan></text></g></g></g><g class="edgeLabel"><g class="label" data-id="Task-cyclic-special-2" transform="translate(0, 0)"><text y="-10.1" text-anchor="middle"><tspan class="text-outer-tspan row" x="0" y="-0.1em" dy="1.1em" text-anchor="middle"/></text></g></g><g><rect class="background" style="stroke: none"/></g></g><g class="nodes"><g class="node default" id="my-svg-classId-Task-0" data-look="classic" transform="translate(151.7109375, 398.5)"><g class="basic label-container outer-path"><path d="M-59.533203125 -123 L59.533203125 -123 L59.533203125 123 L-59.533203125 123" stroke="none" stroke-width="0" fill="#eee" style=""/><path d="M-59.533203125 -123 C-29.31219263867138 -123, 0.9088178476572395 -123, 59.533203125 -123 M-59.533203125 -123 C-35.709688457953106 -123, -11.886173790906206 -123, 59.533203125 -123 M59.533203125 -123 C59.533203125 -40.05781555916229, 59.533203125 42.884368881675414, 59.533203125 123 M59.533203125 -123 C59.533203125 -36.4506805483623, 59.533203125 50.0986389032754, 59.533203125 123 M59.533203125 123 C30.611750704290074 123, 1.690298283580148 123, -59.533203125 123 M59.533203125 123 C34.29642296762929 123, 9.05964281025858 123, -59.533203125 123 M-59.533203125 123 C-59.533203125 59.755750832093035, -59.533203125 -3.4884983358139294, -59.533203125 -123 M-59.533203125 123 C-59.533203125 33.90242027640477, -59.533203125 -55.19515944719046, -59.533203125 -123" stroke="#999" stroke-width="1.3" fill="none" stroke-dasharray="0 0" style=""/></g><g class="annotation-group text" transform="translate(0, -103)"/><g class="label-group text" transform="translate(-17.69140625, -103)"><g class="label" style="font-weight: bolder" transform="translate(0,-8.5)"><g><rect class="background" style="stroke: none"/><text y="-10.1" style=""><tspan class="text-outer-tspan row" x="0" y="-0.1em" dy="1.1em" font-weight=""><tspan font-style="normal" class="text-inner-tspan" font-weight="">Task</tspan></tspan></text></g></g></g><g class="members-group text" transform="translate(-47.533203125, -62)"><g class="label" style="" transform="translate(0,-8.5)"><g><rect class="background" style="stroke: none"/><text y="-10.1" style=""><tspan class="text-outer-tspan row" x="0" y="-0.1em" dy="1.1em"><tspan font-style="normal" class="text-inner-tspan" font-weight="normal">id</tspan></tspan></text></g></g><g class="label" style="" transform="translate(0,11.5)"><g><rect class="background" style="stroke: none"/><text y="-10.1" style=""><tspan class="text-outer-tspan row" x="0" y="-0.1em" dy="1.1em"><tspan font-style="normal" class="text-inner-tspan" font-weight="normal">subject</tspan></tspan></text></g></g><g class="label" style="" transform="translate(0,31.5)"><g><rect class="background" style="stroke: none"/><text y="-10.1" style=""><tspan class="text-outer-tspan row" x="0" y="-0.1em" dy="1.1em"><tspan font-style="normal" class="text-inner-tspan" font-weight="normal">description</tspan></tspan></text></g></g><g class="label" style="" transform="translate(0,51.5)"><g><rect class="background" style="stroke: none"/><text y="-10.1" style=""><tspan class="text-outer-tspan row" x="0" y="-0.1em" dy="1.1em"><tspan font-style="normal" class="text-inner-tspan" font-weight="normal">status</tspan></tspan></text></g></g><g class="label" style="" transform="translate(0,71.5)"><g><rect class="background" style="stroke: none"/><text y="-10.1" style=""><tspan class="text-outer-tspan row" x="0" y="-0.1em" dy="1.1em"><tspan font-style="normal" class="text-inner-tspan" font-weight="normal">owner</tspan></tspan></text></g></g><g class="label" style="" transform="translate(0,91.5)"><g><rect class="background" style="stroke: none"/><text y="-10.1" style=""><tspan class="text-outer-tspan row" x="0" y="-0.1em" dy="1.1em"><tspan font-style="normal" class="text-inner-tspan" font-weight="normal">blockedBy</tspan></tspan></text></g></g><g class="label" style="" transform="translate(0,111.5)"><g><rect class="background" style="stroke: none"/><text y="-10.1" style=""><tspan class="text-outer-tspan row" x="0" y="-0.1em" dy="1.1em"><tspan font-style="normal" class="text-inner-tspan" font-weight="normal">createdAt</tspan></tspan></text></g></g><g class="label" style="" transform="translate(0,131.5)"><g><rect class="background" style="stroke: none"/><text y="-10.1" style=""><tspan class="text-outer-tspan row" x="0" y="-0.1em" dy="1.1em"><tspan font-style="normal" class="text-inner-tspan" font-weight="normal">updatedAt</tspan></tspan></text></g></g></g><g class="methods-group text" transform="translate(-47.533203125, 119)"/><g class="divider" style=""><path d="M-59.533203125 -82 C-28.769907559131163 -81.9997416290914, 1.9933880067376748 -81.9994832581828, 59.533203125 -81.999 M-59.533203125 -82 C-17.338980260725606 -81.99964562445282, 24.85524260354879 -81.99929124890566, 59.533203125 -81.999" stroke="#999" stroke-width="1.3" fill="none" stroke-dasharray="0 0" style=""/></g><g class="divider" style=""><path d="M-59.533203125 99 C-19.967659538569677 99.00033229812533, 19.597884047860646 99.00066459625066, 59.533203125 99.001 M-59.533203125 99 C-26.22043020109875 99.00027978313929, 7.092342722802499 99.00055956627857, 59.533203125 99.001" stroke="#999" stroke-width="1.3" fill="none" stroke-dasharray="0 0" style=""/></g></g><g class="node default" id="my-svg-classId-TaskBoard-1" data-look="classic" transform="translate(247.83984375, 106.25)"><g class="basic label-container outer-path"><path d="M-89.29296875 -98.25 L89.29296875 -98.25 L89.29296875 98.25 L-89.29296875 98.25" stroke="none" stroke-width="0" fill="#eee" style=""/><path d="M-89.29296875 -98.25 C-51.841628766816775 -98.25, -14.390288783633551 -98.25, 89.29296875 -98.25 M-89.29296875 -98.25 C-22.162001880782555 -98.25, 44.96896498843489 -98.25, 89.29296875 -98.25 M89.29296875 -98.25 C89.29296875 -44.91061279199808, 89.29296875 8.428774416003833, 89.29296875 98.25 M89.29296875 -98.25 C89.29296875 -21.313716559033423, 89.29296875 55.62256688193315, 89.29296875 98.25 M89.29296875 98.25 C31.752290360103117 98.25, -25.788388029793765 98.25, -89.29296875 98.25 M89.29296875 98.25 C47.58423648813388 98.25, 5.875504226267765 98.25, -89.29296875 98.25 M-89.29296875 98.25 C-89.29296875 47.996283214631205, -89.29296875 -2.2574335707375894, -89.29296875 -98.25 M-89.29296875 98.25 C-89.29296875 26.848168995638346, -89.29296875 -44.55366200872331, -89.29296875 -98.25" stroke="#999" stroke-width="1.3" fill="none" stroke-dasharray="0 0" style=""/></g><g class="annotation-group text" transform="translate(0, -78.25)"/><g class="label-group text" transform="translate(-40.7578125, -78.25)"><g class="label" style="font-weight: bolder" transform="translate(0,-8.5)"><g><rect class="background" style="stroke: none"/><text y="-10.1" style=""><tspan class="text-outer-tspan row" x="0" y="-0.1em" dy="1.1em" font-weight=""><tspan font-style="normal" class="text-inner-tspan" font-weight="">TaskBoard</tspan></tspan></text></g></g></g><g class="members-group text" transform="translate(-77.29296875, -37.25)"/><g class="methods-group text" transform="translate(-77.29296875, -7.25)"><g class="label" style="" transform="translate(0,-9)"><g><rect class="background" style="stroke: none"/><text y="-10.1" style=""><tspan class="text-outer-tspan row" x="0" y="-0.1em" dy="1.1em"><tspan font-style="normal" class="text-inner-tspan" font-weight="normal">create_task()</tspan></tspan></text></g></g><g class="label" style="" transform="translate(0,12)"><g><rect class="background" style="stroke: none"/><text y="-10.1" style=""><tspan class="text-outer-tspan row" x="0" y="-0.1em" dy="1.1em"><tspan font-style="normal" class="text-inner-tspan" font-weight="normal">list_tasks()</tspan></tspan></text></g></g><g class="label" style="" transform="translate(0,33)"><g><rect class="background" style="stroke: none"/><text y="-10.1" style=""><tspan class="text-outer-tspan row" x="0" y="-0.1em" dy="1.1em"><tspan font-style="normal" class="text-inner-tspan" font-weight="normal">get_task()</tspan></tspan></text></g></g><g class="label" style="" transform="translate(0,54)"><g><rect class="background" style="stroke: none"/><text y="-10.1" style=""><tspan class="text-outer-tspan row" x="0" y="-0.1em" dy="1.1em"><tspan font-style="normal" class="text-inner-tspan" font-weight="normal">claim_task()</tspan></tspan></text></g></g><g class="label" style="" transform="translate(0,75)"><g><rect class="background" style="stroke: none"/><text y="-10.1" style=""><tspan class="text-outer-tspan row" x="0" y="-0.1em" dy="1.1em"><tspan font-style="normal" class="text-inner-tspan" font-weight="normal">complete_task()</tspan></tspan></text></g></g></g><g class="divider" style=""><path d="M-89.29296875 -57.25 C-24.64059150406274 -57.249637976101866, 40.01178574187452 -57.24927595220373, 89.29296875 -57.249 M-89.29296875 -57.25 C-40.797020960372116 -57.249728444756244, 7.698926829255768 -57.24945688951249, 89.29296875 -57.249" stroke="#999" stroke-width="1.3" fill="none" stroke-dasharray="0 0" style=""/></g><g class="divider" style=""><path d="M-89.29296875 -33.25 C-22.82993573791913 -33.24962783725336, 43.63309727416174 -33.24925567450671, 89.29296875 -33.249 M-89.29296875 -33.25 C-32.014485780695786 -33.24967926655496, 25.26399718860843 -33.24935853310993, 89.29296875 -33.249" stroke="#999" stroke-width="1.3" fill="none" stroke-dasharray="0 0" style=""/></g></g><g class="node default" id="my-svg-classId-Disk-2" data-look="classic" transform="translate(343.96875, 398.5)"><g class="basic label-container outer-path"><path d="M-82.724609375 -53.25 L82.724609375 -53.25 L82.724609375 53.25 L-82.724609375 53.25" stroke="none" stroke-width="0" fill="#eee" style=""/><path d="M-82.724609375 -53.25 C-34.28012018264467 -53.25, 14.164369009710654 -53.25, 82.724609375 -53.25 M-82.724609375 -53.25 C-37.480505957901634 -53.25, 7.763597459196731 -53.25, 82.724609375 -53.25 M82.724609375 -53.25 C82.724609375 -15.382547251676215, 82.724609375 22.48490549664757, 82.724609375 53.25 M82.724609375 -53.25 C82.724609375 -21.536997108097584, 82.724609375 10.176005783804833, 82.724609375 53.25 M82.724609375 53.25 C43.633042275938664 53.25, 4.541475176877327 53.25, -82.724609375 53.25 M82.724609375 53.25 C16.68675979777848 53.25, -49.35108977944304 53.25, -82.724609375 53.25 M-82.724609375 53.25 C-82.724609375 17.723803822331348, -82.724609375 -17.802392355337304, -82.724609375 -53.25 M-82.724609375 53.25 C-82.724609375 30.66161765585877, -82.724609375 8.07323531171754, -82.724609375 -53.25" stroke="#999" stroke-width="1.3" fill="none" stroke-dasharray="0 0" style=""/></g><g class="annotation-group text" transform="translate(0, -33.25)"/><g class="label-group text" transform="translate(-16.94921875, -33.25)"><g class="label" style="font-weight: bolder" transform="translate(0,-8.5)"><g><rect class="background" style="stroke: none"/><text y="-10.1" style=""><tspan class="text-outer-tspan row" x="0" y="-0.1em" dy="1.1em" font-weight=""><tspan font-style="normal" class="text-inner-tspan" font-weight="">Disk</tspan></tspan></text></g></g></g><g class="members-group text" transform="translate(-70.724609375, 7.75)"><g class="label" style="" transform="translate(0,-9)"><g><rect class="background" style="stroke: none"/><text y="-10.1" style=""><tspan class="text-outer-tspan row" x="0" y="-0.1em" dy="1.1em"><tspan font-style="normal" class="text-inner-tspan" font-weight="normal">.tasks/task_*.json</tspan></tspan></text></g></g></g><g class="methods-group text" transform="translate(-70.724609375, 49.75)"/><g class="divider" style=""><path d="M-82.724609375 -12.25 C-28.598643818976093 -12.2496728545111, 25.527321737047814 -12.2493457090222, 82.724609375 -12.249 M-82.724609375 -12.25 C-48.12148235677732 -12.249790853487978, -13.518355338554642 -12.249581706975958, 82.724609375 -12.249" stroke="#999" stroke-width="1.3" fill="none" stroke-dasharray="0 0" style=""/></g><g class="divider" style=""><path d="M-82.724609375 29.75 C-27.814621363200665 29.750331884238722, 27.09536664859867 29.75066376847744, 82.724609375 29.751 M-82.724609375 29.75 C-25.161039478982445 29.750347922887343, 32.40253041703511 29.750695845774686, 82.724609375 29.751" stroke="#999" stroke-width="1.3" fill="none" stroke-dasharray="0 0" style=""/></g></g><g class="label edgeLabel" id="Task---Task---1" transform="translate(97.140625, 571.5500000007451)"><rect width="0.1" height="0.1"/><g class="label" style="" transform="translate(0, 0)"><rect/><g><rect class="background" style="stroke: none"/><text y="-10.1" style=""><tspan class="text-outer-tspan row" x="0" y="-0.1em" dy="1.1em"/></text></g></g></g><g class="label edgeLabel" id="Task---Task---2" transform="translate(151.7109375, 642.6500000022352)"><rect width="0.1" height="0.1"/><g class="label" style="" transform="translate(0, 0)"><rect/><g><rect class="background" style="stroke: none"/><text y="-10.1" style=""><tspan class="text-outer-tspan row" x="0" y="-0.1em" dy="1.1em"/></text></g></g></g></g></g></g><defs><filter id="my-svg-drop-shadow" height="130%" width="130%"><feDropShadow dx="4" dy="4" stdDeviation="0" flood-opacity="0.06" flood-color="#000000"/></filter></defs><defs><filter id="my-svg-drop-shadow-small" height="150%" width="150%"><feDropShadow dx="2" dy="2" stdDeviation="0" flood-opacity="0.06" flood-color="#000000"/></filter></defs><linearGradient id="my-svg-gradient" gradientUnits="objectBoundingBox" x1="0%" y1="0%" x2="100%" y2="0%"><stop offset="0%" stop-color="hsl(0, 0%, 83.3333333333%)" stop-opacity="1"/><stop offset="100%" stop-color="hsl(0, 0%, 88.9215686275%)" stop-opacity="1"/></linearGradient></svg>