<svg width="519.177734375" height="890" id="my-svg" xmlns="http://www.w3.org/2000/svg" xmlns:xlink="http://www.w3.org/1999/xlink" class="classDiagram" style="max-width: 519.178px; background-color: white;" viewBox="0 0 519.177734375 890" role="graphics-document document" aria-roledescription="class"><style>#my-svg{font-family:"trebuchet ms",verdana,arial,sans-serif;font-size:16px;fill:#000000;}@keyframes edge-animation-frame{from{stroke-dashoffset:0;}}@keyframes dash{to{stroke-dashoffset:0;}}#my-svg .edge-animation-slow{stroke-dasharray:9,5!important;stroke-dashoffset:900;animation:dash 50s linear infinite;stroke-linecap:round;}#my-svg .edge-animation-fast{stroke-dasharray:9,5!important;stroke-dashoffset:900;animation:dash 20s linear infinite;stroke-linecap:round;}#my-svg .error-icon{fill:#552222;}#my-svg .error-text{fill:#552222;stroke:#552222;}#my-svg .edge-thickness-normal{stroke-width:1px;}#my-svg .edge-thickness-thick{stroke-width:3.5px;}#my-svg .edge-pattern-solid{stroke-dasharray:0;}#my-svg .edge-thickness-invisible{stroke-width:0;fill:none;}#my-svg .edge-pattern-dashed{stroke-dasharray:3;}#my-svg .edge-pattern-dotted{stroke-dasharray:2;}#my-svg .marker{fill:#666;stroke:#666;}#my-svg .marker.cross{stroke:#666;}#my-svg svg{font-family:"trebuchet ms",verdana,arial,sans-serif;font-size:16px;}#my-svg p{margin:0;}#my-svg g.classGroup text{fill:#999;stroke:none;font-family:"trebuchet ms",verdana,arial,sans-serif;font-size:10px;}#my-svg g.classGroup text .title{font-weight:bolder;}#my-svg .cluster-label text{fill:#333;}#my-svg .cluster-label span{color:#333;}#my-svg .cluster-label span p{background-color:transparent;}#my-svg .cluster rect{fill:hsl(0, 0%, 98.9215686275%);stroke:#707070;stroke-width:1px;}#my-svg .cluster text{fill:#333;}#my-svg .cluster span{color:#333;}#my-svg .nodeLabel,#my-svg .edgeLabel{color:#111111;}#my-svg .noteLabel .nodeLabel,#my-svg .noteLabel .edgeLabel{color:#fff;}#my-svg .edgeLabel .label rect{fill:#eee;}#my-svg .label text{fill:#111111;}#my-svg .labelBkg{background:#eee;}#my-svg .edgeLabel .label span{background:#eee;}#my-svg .classTitle{font-weight:bolder;}#my-svg .node rect,#my-svg .node circle,#my-svg .node ellipse,#my-svg .node polygon,#my-svg .node path{fill:#eee;stroke:#999;stroke-width:1;}#my-svg .divider{stroke:#999;stroke-width:1;}#my-svg g.clickable{cursor:pointer;}#my-svg g.classGroup rect{fill:#eee;stroke:#999;}#my-svg g.classGroup line{stroke:#999;stroke-width:1;}#my-svg .classLabel .box{stroke:none;stroke-width:0;fill:#eee;opacity:0.5;}#my-svg .classLabel .label{fill:#999;font-size:10px;}#my-svg .relation{stroke:#666;stroke-width:1;fill:none;}#my-svg .dashed-line{stroke-dasharray:3;}#my-svg .dotted-line{stroke-dasharray:1 2;}#my-svg [id$="-compositionStart"],#my-svg .composition{fill:#666!important;stroke:#666!important;stroke-width:1;}#my-svg [id$="-compositionEnd"],#my-svg .composition{fill:#666!important;stroke:#666!important;stroke-width:1;}#my-svg [id$="-dependencyStart"],#my-svg .dependency{fill:#666!important;stroke:#666!important;stroke-width:1;}#my-svg [id$="-dependencyEnd"],#my-svg .dependency{fill:#666!important;stroke:#666!important;stroke-width:1;}#my-svg [id$="-extensionStart"],#my-svg .extension{fill:transparent!important;stroke:#666!important;stroke-width:1;}#my-svg [id$="-extensionEnd"],#my-svg .extension{fill:transparent!important;stroke:#666!important;stroke-width:1;}#my-svg [id$="-aggregationStart"],#my-svg .aggregation{fill:transparent!important;stroke:#666!important;stroke-width:1;}#my-svg [id$="-aggregationEnd"],#my-svg .aggregation{fill:transparent!important;stroke:#666!important;stroke-width:1;}#my-svg [id$="-lollipopStart"],#my-svg .lollipop{fill:#eee!important;stroke:#666!important;stroke-width:1;}#my-svg [id$="-lollipopEnd"],#my-svg .lollipop{fill:#eee!important;stroke:#666!important;stroke-width:1;}#my-svg .edgeTerminals{font-size:11px;line-height:initial;}#my-svg .classTitleText{text-anchor:middle;font-size:18px;fill:#000000;}#my-svg .edgeLabel[data-look="neo"]{background-color:white;text-align:center;}#my-svg .edgeLabel[data-look="neo"] p{background-color:white;}#my-svg .edgeLabel[data-look="neo"] rect{opacity:0.5;background-color:white;fill:white;}#my-svg .label-icon{display:inline-block;height:1em;overflow:visible;vertical-align:-0.125em;}#my-svg .node .label-icon path{fill:currentColor;stroke:revert;stroke-width:revert;}#my-svg .node .neo-node{stroke:#999;}#my-svg [data-look="neo"].node rect,#my-svg [data-look="neo"].cluster rect,#my-svg [data-look="neo"].node polygon{stroke:url(#my-svg-gradient);filter:drop-shadow( 1px 2px 2px rgba(185,185,185,1));}#my-svg [data-look="neo"].swimlane.cluster rect{filter:none;}#my-svg [data-look="neo"].node path{stroke:url(#my-svg-gradient);stroke-width:1px;}#my-svg [data-look="neo"].node .outer-path{filter:drop-shadow( 1px 2px 2px rgba(185,185,185,1));}#my-svg [data-look="neo"].node .neo-line path{stroke:#999;filter:none;}#my-svg [data-look="neo"].node circle{stroke:url(#my-svg-gradient);filter:drop-shadow( 1px 2px 2px rgba(185,185,185,1));}#my-svg [data-look="neo"].node circle .state-start{fill:#000000;}#my-svg [data-look="neo"].icon-shape .icon{fill:url(#my-svg-gradient);filter:drop-shadow( 1px 2px 2px rgba(185,185,185,1));}#my-svg [data-look="neo"].icon-shape .icon-neo path{stroke:url(#my-svg-gradient);filter:drop-shadow( 1px 2px 2px rgba(185,185,185,1));}#my-svg :root{--mermaid-font-family:"trebuchet ms",verdana,arial,sans-serif;}</style><g><defs><marker id="my-svg_class-aggregationStart" class="marker aggregation class" refX="18" refY="7" markerWidth="190" markerHeight="240" orient="auto"><path d="M 18,7 L9,13 L1,7 L9,1 Z"/></marker></defs><defs><marker id="my-svg_class-aggregationEnd" class="marker aggregation class" refX="1" refY="7" markerWidth="20" markerHeight="28" orient="auto"><path d="M 18,7 L9,13 L1,7 L9,1 Z"/></marker></defs><defs><marker id="my-svg_class-aggregationStart-margin" class="marker aggregation class" refX="15" refY="7" markerWidth="190" markerHeight="240" orient="auto" markerUnits="userSpaceOnUse"><path d="M 18,7 L9,13 L1,7 L9,1 Z" style="stroke-width: 2;"/></marker></defs><defs><marker id="my-svg_class-aggregationEnd-margin" class="marker aggregation class" refX="1" refY="7" markerWidth="20" markerHeight="28" orient="auto" markerUnits="userSpaceOnUse"><path d="M 18,7 L9,13 L1,7 L9,1 Z" style="stroke-width: 2;"/></marker></defs><defs><marker id="my-svg_class-extensionStart" class="marker extension class" refX="18" refY="7" markerWidth="20" markerHeight="28" orient="auto" markerUnits="userSpaceOnUse"><path d="M 1,7 L18,13 V 1 Z"/></marker></defs><defs><marker id="my-svg_class-extensionEnd" class="marker extension class" refX="1" refY="7" markerWidth="20" markerHeight="28" orient="auto"><path d="M 1,1 V 13 L18,7 Z"/></marker></defs><marker id="my-svg_class-extensionStart-margin" class="marker extension class" refX="18" refY="7" markerWidth="20" markerHeight="28" orient="auto" markerUnits="userSpaceOnUse" viewBox="0 0 20 14"><polygon points="10,7 18,13 18,1" style="stroke-width: 2; stroke-dasharray: 0;"/></marker><defs><marker id="my-svg_class-extensionEnd-margin" class="marker extension class" refX="9" refY="7" markerWidth="20" markerHeight="28" orient="auto" markerUnits="userSpaceOnUse" viewBox="0 0 20 14"><polygon points="10,1 10,13 18,7" style="stroke-width: 2; stroke-dasharray: 0;"/></marker></defs><defs><marker id="my-svg_class-compositionStart" class="marker composition class" refX="18" refY="7" markerWidth="190" markerHeight="240" orient="auto"><path d="M 18,7 L9,13 L1,7 L9,1 Z"/></marker></defs><defs><marker id="my-svg_class-compositionEnd" class="marker composition class" refX="1" refY="7" markerWidth="20" markerHeight="28" orient="auto"><path d="M 18,7 L9,13 L1,7 L9,1 Z"/></marker></defs><defs><marker id="my-svg_class-compositionStart-margin" class="marker composition class" refX="15" refY="7" markerWidth="190" markerHeight="240" orient="auto" markerUnits="userSpaceOnUse"><path viewBox="0 0 15 15" d="M 18,7 L9,13 L1,7 L9,1 Z" style="stroke-width: 0;"/></marker></defs><defs><marker id="my-svg_class-compositionEnd-margin" class="marker composition class" refX="3.5" refY="7" markerWidth="20" markerHeight="28" orient="auto" markerUnits="userSpaceOnUse"><path d="M 18,7 L9,13 L1,7 L9,1 Z" style="stroke-width: 0;"/></marker></defs><defs><marker id="my-svg_class-dependencyStart" class="marker dependency class" refX="6" refY="7" markerWidth="190" markerHeight="240" orient="auto"><path d="M 5,7 L9,13 L1,7 L9,1 Z"/></marker></defs><defs><marker id="my-svg_class-dependencyEnd" class="marker dependency class" refX="13" refY="7" markerWidth="20" markerHeight="28" orient="auto"><path d="M 18,7 L9,13 L14,7 L9,1 Z"/></marker></defs><defs><marker id="my-svg_class-dependencyStart-margin" class="marker dependency class" refX="4" refY="7" markerWidth="190" markerHeight="240" orient="auto" markerUnits="userSpaceOnUse"><path d="M 5,7 L9,13 L1,7 L9,1 Z" style="stroke-width: 0;"/></marker></defs><defs><marker id="my-svg_class-dependencyEnd-margin" class="marker dependency class" refX="16" refY="7" markerWidth="20" markerHeight="28" orient="auto" markerUnits="userSpaceOnUse"><path d="M 18,7 L9,13 L14,7 L9,1 Z" style="stroke-width: 0;"/></marker></defs><defs><marker id="my-svg_class-lollipopStart" class="marker lollipop class" refX="13" refY="7" markerWidth="190" markerHeight="240" orient="auto"><circle fill="transparent" cx="7" cy="7" r="6"/></marker></defs><defs><marker id="my-svg_class-lollipopEnd" class="marker lollipop class" refX="1" refY="7" markerWidth="190" markerHeight="240" orient="auto"><circle fill="transparent" cx="7" cy="7" r="6"/></marker></defs><defs><marker id="my-svg_class-lollipopStart-margin" class="marker lollipop class" refX="13" refY="7" markerWidth="190" markerHeight="240" orient="auto" markerUnits="userSpaceOnUse"><circle fill="transparent" cx="7" cy="7" r="6" stroke-width="2"/></marker></defs><defs><marker id="my-svg_class-lollipopEnd-margin" class="marker lollipop class" refX="1" refY="7" markerWidth="190" markerHeight="240" orient="auto" markerUnits="userSpaceOnUse"><circle fill="transparent" cx="7" cy="7" r="6" stroke-width="2"/></marker></defs><g class="root"><g class="clusters"/><g class="edgePaths"><path d="M136.035,368L136.035,373.917C136.035,379.833,136.035,391.667,139.963,402.706C143.891,413.746,151.746,423.992,155.674,429.115L159.601,434.238" id="my-svg-id_LeadSession_TeammateRuntime_1" class="edge-thickness-normal edge-pattern-solid relation" style=";;;" data-edge="true" data-et="edge" data-id="id_LeadSession_TeammateRuntime_1" data-points="W3sieCI6MTM2LjAzNTE1NjI1LCJ5IjozNjh9LHsieCI6MTM2LjAzNTE1NjI1LCJ5Ijo0MDMuNX0seyJ4IjoxNjMuMjUyMDc0NzIwMzMwNzQsInkiOjQzOX1d" data-look="classic" marker-end="url(#my-svg_class-dependencyEnd)"/><path d="M234.553,625L234.553,630.917C234.553,636.833,234.553,648.667,239.337,659.765C244.121,670.864,253.689,681.228,258.474,686.41L263.258,691.592" id="my-svg-id_TeammateRuntime_TeamMessage_2" class="edge-thickness-normal edge-pattern-solid relation" style=";;;" data-edge="true" data-et="edge" data-id="id_TeammateRuntime_TeamMessage_2" data-points="W3sieCI6MjM0LjU1MjczNDM3NSwieSI6NjI1fSx7IngiOjIzNC41NTI3MzQzNzUsInkiOjY2MC41fSx7IngiOjI2Ny4zMjc4NTkwMTAyMTQsInkiOjY5Nn1d" data-look="classic" marker-end="url(#my-svg_class-dependencyEnd)"/><path d="M439.051,696L444.514,690.083C449.976,684.167,460.901,672.333,466.364,645C471.826,617.667,471.826,574.833,471.826,532C471.826,489.167,471.826,446.333,438.145,413.181C404.463,380.029,337.1,356.557,303.418,344.821L269.736,333.086" id="my-svg-id_TeamMessage_LeadSession_3" class="edge-thickness-normal edge-pattern-solid relation" style=";;;" data-edge="true" data-et="edge" data-id="id_TeamMessage_LeadSession_3" data-points="W3sieCI6NDM5LjA1MTA0NzIzOTc4NiwieSI6Njk2fSx7IngiOjQ3MS44MjYxNzE4NzUsInkiOjY2MC41fSx7IngiOjQ3MS44MjYxNzE4NzUsInkiOjUzMn0seyJ4Ijo0NzEuODI2MTcxODc1LCJ5Ijo0MDMuNX0seyJ4IjoyNjQuMDcwMzEyNSwieSI6MzMxLjExMTQxNzc2OTM3NjJ9XQ==" data-look="classic" marker-end="url(#my-svg_class-dependencyEnd)"/><path d="M171.541,134L165.624,139.917C159.706,145.833,147.871,157.667,141.953,168.5C136.035,179.333,136.035,189.167,136.035,194.083L136.035,199" id="my-svg-id_ToolPool_LeadSession_4" class="edge-thickness-normal edge-pattern-solid relation" style=";;;" data-edge="true" data-et="edge" data-id="id_ToolPool_LeadSession_4" data-points="W3sieCI6MTcxLjU0MTQ5MTUxMzMyNDg3LCJ5IjoxMzR9LHsieCI6MTM2LjAzNTE1NjI1LCJ5IjoxNjkuNX0seyJ4IjoxMzYuMDM1MTU2MjUsInkiOjIwNX1d" data-look="classic" marker-end="url(#my-svg_class-dependencyEnd)"/><path d="M304.036,134L310.562,139.917C317.087,145.833,330.138,157.667,336.664,183.083C343.189,208.5,343.189,247.5,343.189,286.5C343.189,325.5,343.189,364.5,338.833,389.153C334.477,413.806,325.764,424.112,321.407,429.265L317.051,434.418" id="my-svg-id_ToolPool_TeammateRuntime_5" class="edge-thickness-normal edge-pattern-solid relation" style=";;;" data-edge="true" data-et="edge" data-id="id_ToolPool_TeammateRuntime_5" data-points="W3sieCI6MzA0LjAzNjExNzk0MDk4OTg3LCJ5IjoxMzR9LHsieCI6MzQzLjE4OTQ1MzEyNSwieSI6MTY5LjV9LHsieCI6MzQzLjE4OTQ1MzEyNSwieSI6Mjg2LjV9LHsieCI6MzQzLjE4OTQ1MzEyNSwieSI6NDAzLjV9LHsieCI6MzEzLjE3Njk3NDQwNDE4MjksInkiOjQzOX1d" data-look="classic" marker-end="url(#my-svg_class-dependencyEnd)"/></g><g class="edgeLabels"><g class="edgeLabel" transform="translate(136.03515625, 403.5)"><g class="label" data-id="id_LeadSession_TeammateRuntime_1" transform="translate(0, -10.5)"><g><rect class="background" style="" x="-25.125" y="0" width="50.25" height="21"/><text y="-10.1" text-anchor="middle" style=""><tspan class="text-outer-tspan row" x="0" y="-0.1em" dy="1.1em" text-anchor="middle"><tspan font-style="normal" class="text-inner-tspan" font-weight="normal">spawn</tspan></tspan></text></g></g></g><g class="edgeLabel" transform="translate(234.552734375, 660.5)"><g class="label" data-id="id_TeammateRuntime_TeamMessage_2" transform="translate(0, -10.5)"><g><rect class="background" style="" x="-19.3515625" y="0" width="38.703125" height="21"/><text y="-10.1" text-anchor="middle" style=""><tspan class="text-outer-tspan row" x="0" y="-0.1em" dy="1.1em" text-anchor="middle"><tspan font-style="normal" class="text-inner-tspan" font-weight="normal">send</tspan></tspan></text></g></g></g><g class="edgeLabel" transform="translate(471.826171875, 532)"><g class="label" data-id="id_TeamMessage_LeadSession_3" transform="translate(0, -10.5)"><g><rect class="background" style="" x="-39.3515625" y="0" width="78.703125" height="21"/><text y="-10.1" text-anchor="middle" style=""><tspan class="text-outer-tspan row" x="0" y="-0.1em" dy="1.1em" text-anchor="middle"><tspan font-style="normal" class="text-inner-tspan" font-weight="normal">inbox</tspan><tspan font-style="normal" class="text-inner-tspan" font-weight="normal"> 注入</tspan></tspan></text></g></g></g><g class="edgeLabel" transform="translate(136.03515625, 169.5)"><g class="label" data-id="id_ToolPool_LeadSession_4" transform="translate(0, -10.5)"><g><rect class="background" style="" x="-26" y="0" width="52" height="21"/><text y="-10.1" text-anchor="middle" style=""><tspan class="text-outer-tspan row" x="0" y="-0.1em" dy="1.1em" text-anchor="middle"><tspan font-style="normal" class="text-inner-tspan" font-weight="normal">主工具</tspan></tspan></text></g></g></g><g class="edgeLabel" transform="translate(343.189453125, 286.5)"><g class="label" data-id="id_ToolPool_TeammateRuntime_5" transform="translate(0, -10.5)"><g><rect class="background" style="" x="-34" y="0" width="68" height="21"/><text y="-10.1" text-anchor="middle" style=""><tspan class="text-outer-tspan row" x="0" y="-0.1em" dy="1.1em" text-anchor="middle"><tspan font-style="normal" class="text-inner-tspan" font-weight="normal">受限工具</tspan></tspan></text></g></g></g></g><g class="nodes"><g class="node default" id="my-svg-classId-LeadSession-0" data-look="classic" transform="translate(136.03515625, 286.5)"><g class="basic label-container outer-path"><path d="M-128.03515625 -81.5 L128.03515625 -81.5 L128.03515625 81.5 L-128.03515625 81.5" stroke="none" stroke-width="0" fill="#eee" style=""/><path d="M-128.03515625 -81.5 C-72.12843256294525 -81.5, -16.221708875890513 -81.5, 128.03515625 -81.5 M-128.03515625 -81.5 C-37.51096673725456 -81.5, 53.013222775490874 -81.5, 128.03515625 -81.5 M128.03515625 -81.5 C128.03515625 -47.2713534856286, 128.03515625 -13.042706971257203, 128.03515625 81.5 M128.03515625 -81.5 C128.03515625 -44.29446039269946, 128.03515625 -7.088920785398926, 128.03515625 81.5 M128.03515625 81.5 C31.10645160533103 81.5, -65.82225303933794 81.5, -128.03515625 81.5 M128.03515625 81.5 C45.46588061901285 81.5, -37.1033950119743 81.5, -128.03515625 81.5 M-128.03515625 81.5 C-128.03515625 28.81876053244377, -128.03515625 -23.862478935112463, -128.03515625 -81.5 M-128.03515625 81.5 C-128.03515625 44.11521337207983, -128.03515625 6.730426744159658, -128.03515625 -81.5" stroke="#999" stroke-width="1.3" fill="none" stroke-dasharray="0 0" style=""/></g><g class="annotation-group text" transform="translate(0, -61.5)"/><g class="label-group text" transform="translate(-49.3515625, -61.5)"><g class="label" style="font-weight: bolder" transform="translate(0,-8.5)"><g><rect class="background" style="stroke: none"/><text y="-10.1" style=""><tspan class="text-outer-tspan row" x="0" y="-0.1em" dy="1.1em" font-weight=""><tspan font-style="normal" class="text-inner-tspan" font-weight="">LeadSession</tspan></tspan></text></g></g></g><g class="members-group text" transform="translate(-116.03515625, -20.5)"><g class="label" style="" transform="translate(0,-8.5)"><g><rect class="background" style="stroke: none"/><text y="-10.1" style=""><tspan class="text-outer-tspan row" x="0" y="-0.1em" dy="1.1em"><tspan font-style="normal" class="text-inner-tspan" font-weight="normal">+messages</tspan><tspan font-style="normal" class="text-inner-tspan" font-weight="normal"> 主会话上下文</tspan></tspan></text></g></g><g class="label" style="" transform="translate(0,11.5)"><g><rect class="background" style="stroke: none"/><text y="-10.1" style=""><tspan class="text-outer-tspan row" x="0" y="-0.1em" dy="1.1em"><tspan font-style="normal" class="text-inner-tspan" font-weight="normal">+tools</tspan><tspan font-style="normal" class="text-inner-tspan" font-weight="normal"> 20</tspan><tspan font-style="normal" class="text-inner-tspan" font-weight="normal"> 个主工具</tspan></tspan></text></g></g></g><g class="methods-group text" transform="translate(-116.03515625, 40.5)"><g class="label" style="" transform="translate(0,-8.5)"><g><rect class="background" style="stroke: none"/><text y="-10.1" style=""><tspan class="text-outer-tspan row" x="0" y="-0.1em" dy="1.1em"><tspan font-style="normal" class="text-inner-tspan" font-weight="normal">+injectLeadInbox()</tspan></tspan></text></g></g><g class="label" style="" transform="translate(0,11.5)"><g><rect class="background" style="stroke: none"/><text y="-10.1" style=""><tspan class="text-outer-tspan row" x="0" y="-0.1em" dy="1.1em"><tspan font-style="normal" class="text-inner-tspan" font-weight="normal">+runAgentLoop()</tspan></tspan></text></g></g></g><g class="divider" style=""><path d="M-128.03515625 -40.5 C-43.138865309475236 -40.499668464922344, 41.75742563104953 -40.49933692984469, 128.03515625 -40.499 M-128.03515625 -40.5 C-28.22307125723482 -40.49961021610034, 71.58901373553036 -40.49922043220069, 128.03515625 -40.499" stroke="#999" stroke-width="1.3" fill="none" stroke-dasharray="0 0" style=""/></g><g class="divider" style=""><path d="M-128.03515625 20.5 C-71.70511287569249 20.500219978812947, -15.37506950138497 20.50043995762589, 128.03515625 20.501 M-128.03515625 20.5 C-64.15353776346936 20.500249469053493, -0.27191927693871776 20.500498938106983, 128.03515625 20.501" stroke="#999" stroke-width="1.3" fill="none" stroke-dasharray="0 0" style=""/></g></g><g class="node default" id="my-svg-classId-TeammateRuntime-1" data-look="classic" transform="translate(234.552734375, 532)"><g class="basic label-container outer-path"><path d="M-162.921875 -93 L162.921875 -93 L162.921875 93 L-162.921875 93" stroke="none" stroke-width="0" fill="#eee" style=""/><path d="M-162.921875 -93 C-37.05674629215345 -93, 88.8083824156931 -93, 162.921875 -93 M-162.921875 -93 C-87.03864595165183 -93, -11.15541690330366 -93, 162.921875 -93 M162.921875 -93 C162.921875 -39.576282165614614, 162.921875 13.847435668770771, 162.921875 93 M162.921875 -93 C162.921875 -46.60129911050437, 162.921875 -0.20259822100874203, 162.921875 93 M162.921875 93 C86.55873368165551 93, 10.195592363311022 93, -162.921875 93 M162.921875 93 C81.22462906841002 93, -0.472616863179951 93, -162.921875 93 M-162.921875 93 C-162.921875 39.59736315912147, -162.921875 -13.805273681757058, -162.921875 -93 M-162.921875 93 C-162.921875 45.28578643882007, -162.921875 -2.4284271223598637, -162.921875 -93" stroke="#999" stroke-width="1.3" fill="none" stroke-dasharray="0 0" style=""/></g><g class="annotation-group text" transform="translate(0, -73)"/><g class="label-group text" transform="translate(-71.03125, -73)"><g class="label" style="font-weight: bolder" transform="translate(0,-8.5)"><g><rect class="background" style="stroke: none"/><text y="-10.1" style=""><tspan class="text-outer-tspan row" x="0" y="-0.1em" dy="1.1em" font-weight=""><tspan font-style="normal" class="text-inner-tspan" font-weight="">TeammateRuntime</tspan></tspan></text></g></g></g><g class="members-group text" transform="translate(-150.921875, -32)"><g class="label" style="" transform="translate(0,-8.5)"><g><rect class="background" style="stroke: none"/><text y="-10.1" style=""><tspan class="text-outer-tspan row" x="0" y="-0.1em" dy="1.1em"><tspan font-style="normal" class="text-inner-tspan" font-weight="normal">+name</tspan><tspan font-style="normal" class="text-inner-tspan" font-weight="normal"> 队友名</tspan></tspan></text></g></g><g class="label" style="" transform="translate(0,11.5)"><g><rect class="background" style="stroke: none"/><text y="-10.1" style=""><tspan class="text-outer-tspan row" x="0" y="-0.1em" dy="1.1em"><tspan font-style="normal" class="text-inner-tspan" font-weight="normal">+role</tspan><tspan font-style="normal" class="text-inner-tspan" font-weight="normal"> 队友角色</tspan></tspan></text></g></g><g class="label" style="" transform="translate(0,31.5)"><g><rect class="background" style="stroke: none"/><text y="-10.1" style=""><tspan class="text-outer-tspan row" x="0" y="-0.1em" dy="1.1em"><tspan font-style="normal" class="text-inner-tspan" font-weight="normal">+prompt</tspan><tspan font-style="normal" class="text-inner-tspan" font-weight="normal"> 初始任务</tspan></tspan></text></g></g><g class="label" style="" transform="translate(0,51.5)"><g><rect class="background" style="stroke: none"/><text y="-10.1" style=""><tspan class="text-outer-tspan row" x="0" y="-0.1em" dy="1.1em"><tspan font-style="normal" class="text-inner-tspan" font-weight="normal">+messages</tspan><tspan font-style="normal" class="text-inner-tspan" font-weight="normal"> 独立上下文</tspan></tspan></text></g></g><g class="label" style="" transform="translate(0,71.5)"><g><rect class="background" style="stroke: none"/><text y="-10.1" style=""><tspan class="text-outer-tspan row" x="0" y="-0.1em" dy="1.1em"><tspan font-style="normal" class="text-inner-tspan" font-weight="normal">+status</tspan><tspan font-style="normal" class="text-inner-tspan" font-weight="normal"> running/completed/failed</tspan></tspan></text></g></g></g><g class="methods-group text" transform="translate(-150.921875, 89)"/><g class="divider" style=""><path d="M-162.921875 -52 C-54.44327250750479 -51.99966708398583, 54.035329984990426 -51.99933416797166, 162.921875 -51.999 M-162.921875 -52 C-70.78115623435075 -51.99971722422552, 21.359562531298508 -51.99943444845104, 162.921875 -51.999" stroke="#999" stroke-width="1.3" fill="none" stroke-dasharray="0 0" style=""/></g><g class="divider" style=""><path d="M-162.921875 69 C-88.08204976812199 69.00022968010046, -13.242224536243981 69.0004593602009, 162.921875 69.001 M-162.921875 69 C-79.95507092197545 69.00025462143766, 3.011733156049104 69.00050924287532, 162.921875 69.001" stroke="#999" stroke-width="1.3" fill="none" stroke-dasharray="0 0" style=""/></g></g><g class="node default" id="my-svg-classId-TeamMessage-2" data-look="classic" transform="translate(353.189453125, 789)"><g class="basic label-container outer-path"><path d="M-134.791015625 -93 L134.791015625 -93 L134.791015625 93 L-134.791015625 93" stroke="none" stroke-width="0" fill="#eee" style=""/><path d="M-134.791015625 -93 C-36.090986869276165 -93, 62.60904188644767 -93, 134.791015625 -93 M-134.791015625 -93 C-57.47641866457414 -93, 19.83817829585172 -93, 134.791015625 -93 M134.791015625 -93 C134.791015625 -53.25855625000207, 134.791015625 -13.517112500004146, 134.791015625 93 M134.791015625 -93 C134.791015625 -40.897231189628926, 134.791015625 11.205537620742149, 134.791015625 93 M134.791015625 93 C63.95268099304788 93, -6.885653638904245 93, -134.791015625 93 M134.791015625 93 C31.14472406831561 93, -72.50156748836878 93, -134.791015625 93 M-134.791015625 93 C-134.791015625 25.22619904868168, -134.791015625 -42.54760190263664, -134.791015625 -93 M-134.791015625 93 C-134.791015625 54.88453977979863, -134.791015625 16.76907955959726, -134.791015625 -93" stroke="#999" stroke-width="1.3" fill="none" stroke-dasharray="0 0" style=""/></g><g class="annotation-group text" transform="translate(0, -73)"/><g class="label-group text" transform="translate(-54.15234375, -73)"><g class="label" style="font-weight: bolder" transform="translate(0,-8.5)"><g><rect class="background" style="stroke: none"/><text y="-10.1" style=""><tspan class="text-outer-tspan row" x="0" y="-0.1em" dy="1.1em" font-weight=""><tspan font-style="normal" class="text-inner-tspan" font-weight="">TeamMessage</tspan></tspan></text></g></g></g><g class="members-group text" transform="translate(-122.791015625, -32)"><g class="label" style="" transform="translate(0,-8.5)"><g><rect class="background" style="stroke: none"/><text y="-10.1" style=""><tspan class="text-outer-tspan row" x="0" y="-0.1em" dy="1.1em"><tspan font-style="normal" class="text-inner-tspan" font-weight="normal">+from</tspan><tspan font-style="normal" class="text-inner-tspan" font-weight="normal"> 发件人</tspan></tspan></text></g></g><g class="label" style="" transform="translate(0,11.5)"><g><rect class="background" style="stroke: none"/><text y="-10.1" style=""><tspan class="text-outer-tspan row" x="0" y="-0.1em" dy="1.1em"><tspan font-style="normal" class="text-inner-tspan" font-weight="normal">+to</tspan><tspan font-style="normal" class="text-inner-tspan" font-weight="normal"> 收件人</tspan></tspan></text></g></g><g class="label" style="" transform="translate(0,31.5)"><g><rect class="background" style="stroke: none"/><text y="-10.1" style=""><tspan class="text-outer-tspan row" x="0" y="-0.1em" dy="1.1em"><tspan font-style="normal" class="text-inner-tspan" font-weight="normal">+type</tspan><tspan font-style="normal" class="text-inner-tspan" font-weight="normal"> message/result/error</tspan></tspan></text></g></g><g class="label" style="" transform="translate(0,51.5)"><g><rect class="background" style="stroke: none"/><text y="-10.1" style=""><tspan class="text-outer-tspan row" x="0" y="-0.1em" dy="1.1em"><tspan font-style="normal" class="text-inner-tspan" font-weight="normal">+content</tspan><tspan font-style="normal" class="text-inner-tspan" font-weight="normal"> 正文</tspan></tspan></text></g></g><g class="label" style="" transform="translate(0,71.5)"><g><rect class="background" style="stroke: none"/><text y="-10.1" style=""><tspan class="text-outer-tspan row" x="0" y="-0.1em" dy="1.1em"><tspan font-style="normal" class="text-inner-tspan" font-weight="normal">+createdAt</tspan><tspan font-style="normal" class="text-inner-tspan" font-weight="normal"> 时间</tspan></tspan></text></g></g></g><g class="methods-group text" transform="translate(-122.791015625, 89)"/><g class="divider" style=""><path d="M-134.791015625 -52 C-60.69344432622535 -51.9997251390571, 13.404126972549307 -51.999450278114196, 134.791015625 -51.999 M-134.791015625 -52 C-47.53521160015271 -51.99967632930274, 39.72059242469459 -51.999352658605474, 134.791015625 -51.999" stroke="#999" stroke-width="1.3" fill="none" stroke-dasharray="0 0" style=""/></g><g class="divider" style=""><path d="M-134.791015625 69 C-67.35608574637324 69.00025014623402, 0.07884413225352205 69.00050029246806, 134.791015625 69.001 M-134.791015625 69 C-53.62948461095881 69.00030106432034, 27.532046403082376 69.00060212864068, 134.791015625 69.001" stroke="#999" stroke-width="1.3" fill="none" stroke-dasharray="0 0" style=""/></g></g><g class="node default" id="my-svg-classId-ToolPool-3" data-look="classic" transform="translate(234.552734375, 71)"><g class="basic label-container outer-path"><path d="M-105.953125 -63 L105.953125 -63 L105.953125 63 L-105.953125 63" stroke="none" stroke-width="0" fill="#eee" style=""/><path d="M-105.953125 -63 C-39.7814650135157 -63, 26.3901949729686 -63, 105.953125 -63 M-105.953125 -63 C-34.01542645538787 -63, 37.922272089224265 -63, 105.953125 -63 M105.953125 -63 C105.953125 -33.04201571137994, 105.953125 -3.084031422759878, 105.953125 63 M105.953125 -63 C105.953125 -37.65427222438958, 105.953125 -12.308544448779159, 105.953125 63 M105.953125 63 C52.45222839119809 63, -1.0486682176038187 63, -105.953125 63 M105.953125 63 C61.17544041182266 63, 16.397755823645326 63, -105.953125 63 M-105.953125 63 C-105.953125 22.45514911459361, -105.953125 -18.08970177081278, -105.953125 -63 M-105.953125 63 C-105.953125 29.80812072457882, -105.953125 -3.3837585508423587, -105.953125 -63" stroke="#999" stroke-width="1.3" fill="none" stroke-dasharray="0 0" style=""/></g><g class="annotation-group text" transform="translate(0, -43)"/><g class="label-group text" transform="translate(-33.625, -43)"><g class="label" style="font-weight: bolder" transform="translate(0,-8.5)"><g><rect class="background" style="stroke: none"/><text y="-10.1" style=""><tspan class="text-outer-tspan row" x="0" y="-0.1em" dy="1.1em" font-weight=""><tspan font-style="normal" class="text-inner-tspan" font-weight="">ToolPool</tspan></tspan></text></g></g></g><g class="members-group text" transform="translate(-93.953125, -2)"><g class="label" style="" transform="translate(0,-8.5)"><g><rect class="background" style="stroke: none"/><text y="-10.1" style=""><tspan class="text-outer-tspan row" x="0" y="-0.1em" dy="1.1em"><tspan font-style="normal" class="text-inner-tspan" font-weight="normal">+Lead:</tspan><tspan font-style="normal" class="text-inner-tspan" font-weight="normal"> 20</tspan><tspan font-style="normal" class="text-inner-tspan" font-weight="normal"> 个工具</tspan></tspan></text></g></g><g class="label" style="" transform="translate(0,11.5)"><g><rect class="background" style="stroke: none"/><text y="-10.1" style=""><tspan class="text-outer-tspan row" x="0" y="-0.1em" dy="1.1em"><tspan font-style="normal" class="text-inner-tspan" font-weight="normal">+Teammate:</tspan><tspan font-style="normal" class="text-inner-tspan" font-weight="normal"> 4</tspan><tspan font-style="normal" class="text-inner-tspan" font-weight="normal"> 个工具</tspan></tspan></text></g></g></g><g class="methods-group text" transform="translate(-93.953125, 59)"/><g class="divider" style=""><path d="M-105.953125 -22 C-58.39505005192388 -21.999775570211128, -10.836975103847763 -21.999551140422255, 105.953125 -21.999 M-105.953125 -22 C-40.83110416144051 -21.9996926847564, 24.290916677118986 -21.999385369512805, 105.953125 -21.999" stroke="#999" stroke-width="1.3" fill="none" stroke-dasharray="0 0" style=""/></g><g class="divider" style=""><path d="M-105.953125 39 C-41.73923613836524 39.00030302970706, 22.474652723269514 39.00060605941412, 105.953125 39.001 M-105.953125 39 C-38.12881506770805 39.00032006752954, 29.695494864583907 39.000640135059086, 105.953125 39.001" stroke="#999" stroke-width="1.3" fill="none" stroke-dasharray="0 0" style=""/></g></g></g></g></g><defs><filter id="my-svg-drop-shadow" height="130%" width="130%"><feDropShadow dx="4" dy="4" stdDeviation="0" flood-opacity="0.06" flood-color="#000000"/></filter></defs><defs><filter id="my-svg-drop-shadow-small" height="150%" width="150%"><feDropShadow dx="2" dy="2" stdDeviation="0" flood-opacity="0.06" flood-color="#000000"/></filter></defs><linearGradient id="my-svg-gradient" gradientUnits="objectBoundingBox" x1="0%" y1="0%" x2="100%" y2="0%"><stop offset="0%" stop-color="hsl(0, 0%, 83.3333333333%)" stop-opacity="1"/><stop offset="100%" stop-color="hsl(0, 0%, 88.9215686275%)" stop-opacity="1"/></linearGradient></svg>