<svg width="519.177734375" height="890" id="my-svg" xmlns="http://www.w3.org/2000/svg" xmlns:xlink="http://www.w3.org/1999/xlink" class="classDiagram" style="max-width: 519.178px; background-color: white;" viewBox="0 0 519.177734375 890" role="graphics-document document" aria-roledescription="class"><style>#my-svg{font-family:"trebuchet ms",verdana,arial,sans-serif;font-size:16px;fill:#000000;}@keyframes edge-animation-frame{from{stroke-dashoffset:0;}}@keyframes dash{to{stroke-dashoffset:0;}}#my-svg .edge-animation-slow{stroke-dasharray:9,5!important;stroke-dashoffset:900;animation:dash 50s linear infinite;stroke-linecap:round;}#my-svg .edge-animation-fast{stroke-dasharray:9,5!important;stroke-dashoffset:900;animation:dash 20s linear infinite;stroke-linecap:round;}#my-svg .error-icon{fill:#552222;}#my-svg .error-text{fill:#552222;stroke:#552222;}#my-svg .edge-thickness-normal{stroke-width:1px;}#my-svg .edge-thickness-thick{stroke-width:3.5px;}#my-svg .edge-pattern-solid{stroke-dasharray:0;}#my-svg .edge-thickness-invisible{stroke-width:0;fill:none;}#my-svg .edge-pattern-dashed{stroke-dasharray:3;}#my-svg .edge-pattern-dotted{stroke-dasharray:2;}#my-svg .marker{fill:#666;stroke:#666;}#my-svg .marker.cross{stroke:#666;}#my-svg svg{font-family:"trebuchet ms",verdana,arial,sans-serif;font-size:16px;}#my-svg p{margin:0;}#my-svg g.classGroup text{fill:#999;stroke:none;font-family:"trebuchet ms",verdana,arial,sans-serif;font-size:10px;}#my-svg g.classGroup text .title{font-weight:bolder;}#my-svg .cluster-label text{fill:#333;}#my-svg .cluster-label span{color:#333;}#my-svg .cluster-label span p{background-color:transparent;}#my-svg .cluster rect{fill:hsl(0, 0%, 98.9215686275%);stroke:#707070;stroke-width:1px;}#my-svg .cluster text{fill:#333;}#my-svg .cluster span{color:#333;}#my-svg .nodeLabel,#my-svg .edgeLabel{color:#111111;}#my-svg .noteLabel .nodeLabel,#my-svg .noteLabel .edgeLabel{color:#fff;}#my-svg .edgeLabel .label rect{fill:#eee;}#my-svg .label text{fill:#111111;}#my-svg .labelBkg{background:#eee;}#my-svg .edgeLabel .label span{background:#eee;}#my-svg .classTitle{font-weight:bolder;}#my-svg .node rect,#my-svg .node circle,#my-svg .node ellipse,#my-svg .node polygon,#my-svg .node path{fill:#eee;stroke:#999;stroke-width:1;}#my-svg .divider{stroke:#999;stroke-width:1;}#my-svg g.clickable{cursor:pointer;}#my-svg g.classGroup rect{fill:#eee;stroke:#999;}#my-svg g.classGroup line{stroke:#999;stroke-width:1;}#my-svg .classLabel .box{stroke:none;stroke-width:0;fill:#eee;opacity:0.5;}#my-svg .classLabel .label{fill:#999;font-size:10px;}#my-svg .relation{stroke:#666;stroke-width:1;fill:none;}#my-svg .dashed-line{stroke-dasharray:3;}#my-svg .dotted-line{stroke-dasharray:1 2;}#my-svg [id$="-compositionStart"],#my-svg .composition{fill:#666!important;stroke:#666!important;stroke-width:1;}#my-svg [id$="-compositionEnd"],#my-svg .composition{fill:#666!important;stroke:#666!important;stroke-width:1;}#my-svg [id$="-dependencyStart"],#my-svg .dependency{fill:#666!important;stroke:#666!important;stroke-width:1;}#my-svg [id$="-dependencyEnd"],#my-svg .dependency{fill:#666!important;stroke:#666!important;stroke-width:1;}#my-svg [id$="-extensionStart"],#my-svg .extension{fill:transparent!important;stroke:#666!important;stroke-width:1;}#my-svg [id$="-extensionEnd"],#my-svg .extension{fill:transparent!important;stroke:#666!important;stroke-width:1;}#my-svg [id$="-aggregationStart"],#my-svg .aggregation{fill:transparent!important;stroke:#666!important;stroke-width:1;}#my-svg [id$="-aggregationEnd"],#my-svg .aggregation{fill:transparent!important;stroke:#666!important;stroke-width:1;}#my-svg [id$="-lollipopStart"],#my-svg .lollipop{fill:#eee!important;stroke:#666!important;stroke-width:1;}#my-svg [id$="-lollipopEnd"],#my-svg .lollipop{fill:#eee!important;stroke:#666!important;stroke-width:1;}#my-svg .edgeTerminals{font-size:11px;line-height:initial;}#my-svg .classTitleText{text-anchor:middle;font-size:18px;fill:#000000;}#my-svg .edgeLabel[data-look="neo"]{background-color:white;text-align:center;}#my-svg .edgeLabel[data-look="neo"] p{background-color:white;}#my-svg .edgeLabel[data-look="neo"] rect{opacity:0.5;background-color:white;fill:white;}#my-svg .label-icon{display:inline-block;height:1em;overflow:visible;vertical-align:-0.125em;}#my-svg .node .label-icon path{fill:currentColor;stroke:revert;stroke-width:revert;}#my-svg .node .neo-node{stroke:#999;}#my-svg [data-look="neo"].node rect,#my-svg [data-look="neo"].cluster rect,#my-svg [data-look="neo"].node polygon{stroke:url(#my-svg-gradient);filter:drop-shadow( 1px 2px 2px rgba(185,185,185,1));}#my-svg [data-look="neo"].swimlane.cluster rect{filter:none;}#my-svg [data-look="neo"].node path{stroke:url(#my-svg-gradient);stroke-width:1px;}#my-svg [data-look="neo"].node .outer-path{filter:drop-shadow( 1px 2px 2px rgba(185,185,185,1));}#my-svg [data-look="neo"].node .neo-line path{stroke:#999;filter:none;}#my-svg [data-look="neo"].node circle{stroke:url(#my-svg-gradient);filter:drop-shadow( 1px 2px 2px rgba(185,185,185,1));}#my-svg [data-look="neo"].node circle .state-start{fill:#000000;}#my-svg [data-look="neo"].icon-shape .icon{fill:url(#my-svg-gradient);filter:drop-shadow( 1px 2px 2px rgba(185,185,185,1));}#my-svg [data-look="neo"].icon-shape .icon-neo path{stroke:url(#my-svg-gradient);filter:drop-shadow( 1px 2px 2px rgba(185,185,185,1));}#my-svg :root{--mermaid-font-family:"trebuchet ms",verdana,arial,sans-serif;}</style><g><defs><marker id="my-svg_class-aggregationStart" class="marker aggregation class" refX="18" refY="7" markerWidth="190" markerHeight="240" orient="auto"><path d="M 18,7 L9,13 L1,7 L9,1 Z"/></marker></defs><defs><marker id="my-svg_class-aggregationEnd" class="marker aggregation class" refX="1" refY="7" markerWidth="20" markerHeight="28" orient="auto"><path d="M 18,7 L9,13 L1,7 L9,1 Z"/></marker></defs><defs><marker id="my-svg_class-aggregationStart-margin" class="marker aggregation class" refX="15" refY="7" markerWidth="190" markerHeight="240" orient="auto" markerUnits="userSpaceOnUse"><path d="M 18,7 L9,13 L1,7 L9,1 Z" style="stroke-width: 2;"/></marker></defs><defs><marker id="my-svg_class-aggregationEnd-margin" class="marker aggregation class" refX="1" refY="7" markerWidth="20" markerHeight="28" orient="auto" markerUnits="userSpaceOnUse"><path d="M 18,7 L9,13 L1,7 L9,1 Z" style="stroke-width: 2;"/></marker></defs><defs><marker id="my-svg_class-extensionStart" class="marker extension class" refX="18" refY="7" markerWidth="20" markerHeight="28" orient="auto" markerUnits="userSpaceOnUse"><path d="M 1,7 L18,13 V 1 Z"/></marker></defs><defs><marker id="my-svg_class-extensionEnd" class="marker extension class" refX="1" refY="7" markerWidth="20" markerHeight="28" orient="auto"><path d="M 1,1 V 13 L18,7 Z"/></marker></defs><marker id="my-svg_class-extensionStart-margin" class="marker extension class" refX="18" refY="7" markerWidth="20" markerHeight="28" orient="auto" markerUnits="userSpaceOnUse" viewBox="0 0 20 14"><polygon points="10,7 18,13 18,1" style="stroke-width: 2; stroke-dasharray: 0;"/></marker><defs><marker id="my-svg_class-extensionEnd-margin" class="marker extension class" refX="9" refY="7" markerWidth="20" markerHeight="28" orient="auto" markerUnits="userSpaceOnUse" viewBox="0 0 20 14"><polygon points="10,1 10,13 18,7" style="stroke-width: 2; stroke-dasharray: 0;"/></marker></defs><defs><marker id="my-svg_class-compositionStart" class="marker composition class" refX="18" refY="7" markerWidth="190" markerHeight="240" orient="auto"><path d="M 18,7 L9,13 L1,7 L9,1 Z"/></marker></defs><defs><marker id="my-svg_class-compositionEnd" class="marker composition class" refX="1" refY="7" markerWidth="20" markerHeight="28" orient="auto"><path d="M 18,7 L9,13 L1,7 L9,1 Z"/></marker></defs><defs><marker id="my-svg_class-compositionStart-margin" class="marker composition class" refX="15" refY="7" markerWidth="190" markerHeight="240" orient="auto" markerUnits="userSpaceOnUse"><path viewBox="0 0 15 15" d="M 18,7 L9,13 L1,7 L9,1 Z" style="stroke-width: 0;"/></marker></defs><defs><marker id="my-svg_class-compositionEnd-margin" class="marker composition class" refX="3.5" refY="7" markerWidth="20" markerHeight="28" orient="auto" markerUnits="userSpaceOnUse"><path d="M 18,7 L9,13 L1,7 L9,1 Z" style="stroke-width: 0;"/></marker></defs><defs><marker id="my-svg_class-dependencyStart" class="marker dependency class" refX="6" refY="7" markerWidth="190" markerHeight="240" orient="auto"><path d="M 5,7 L9,13 L1,7 L9,1 Z"/></marker></defs><defs><marker id="my-svg_class-dependencyEnd" class="marker dependency class" refX="13" refY="7" markerWidth="20" markerHeight="28" orient="auto"><path d="M 18,7 L9,13 L14,7 L9,1 Z"/></marker></defs><defs><marker id="my-svg_class-dependencyStart-margin" class="marker dependency class" refX="4" refY="7" markerWidth="190" markerHeight="240" orient="auto" markerUnits="userSpaceOnUse"><path d="M 5,7 L9,13 L1,7 L9,1 Z" style="stroke-width: 0;"/></marker></defs><defs><marker id="my-svg_class-dependencyEnd-margin" class="marker dependency class" refX="16" refY="7" markerWidth="20" markerHeight="28" orient="auto" markerUnits="userSpaceOnUse"><path d="M 18,7 L9,13 L14,7 L9,1 Z" style="stroke-width: 0;"/></marker></defs><defs><marker id="my-svg_class-lollipopStart" class="marker lollipop class" refX="13" refY="7" markerWidth="190" markerHeight="240" orient="auto"><circle fill="transparent" cx="7" cy="7" r="6"/></marker></defs><defs><marker id="my-svg_class-lollipopEnd" class="marker lollipop class" refX="1" refY="7" markerWidth="190" markerHeight="240" orient="auto"><circle fill="transparent" cx="7" cy="7" r="6"/></marker></defs><defs><marker id="my-svg_class-lollipopStart-margin" class="marker lollipop class" refX="13" refY="7" markerWidth="190" markerHeight="240" orient="auto" markerUnits="userSpaceOnUse"><circle fill="transparent" cx="7" cy="7" r="6" stroke-width="2"/></marker></defs><defs><marker id="my-svg_class-lollipopEnd-margin" class="marker lollipop class" refX="1" refY="7" markerWidth="190" markerHeight="240" orient="auto" markerUnits="userSpaceOnUse"><circle fill="transparent" cx="7" cy="7" r="6" stroke-width="2"/></marker></defs><g class="root"><g class="clusters"/><g class="edgePaths"><path d="M136.035,368L136.035,373.917C136.035,379.833,136.035,391.667,139.963,402.706C143.891,413.746,151.746,423.992,155.674,429.115L159.601,434.238" id="my-svg-id_LeadSession_TeammateRuntime_1" class="edge-thickness-normal edge-pattern-solid relation" style=";;;" data-edge="true" data-et="edge" data-id="id_LeadSession_TeammateRuntime_1" data-points="W3sieCI6MTM2LjAzNTE1NjI1LCJ5IjozNjh9LHsieCI6MTM2LjAzNTE1NjI1LCJ5Ijo0MDMuNX0seyJ4IjoxNjMuMjUyMDc0NzIwMzMwNzQsInkiOjQzOX1d" data-look="classic" marker-end="url(#my-svg_class-dependencyEnd)"/><path d="M234.553,625L234.553,630.917C234.553,636.833,234.553,648.667,239.337,659.765C244.121,670.864,253.689,681.228,258.474,686.41L263.258,691.592" id="my-svg-id_TeammateRuntime_TeamMessage_2" class="edge-thickness-normal edge-pattern-solid relation" style=";;;" data-edge="true" data-et="edge" data-id="id_TeammateRuntime_TeamMessage_2" data-points="W3sieCI6MjM0LjU1MjczNDM3NSwieSI6NjI1fSx7IngiOjIzNC41NTI3MzQzNzUsInkiOjY2MC41fSx7IngiOjI2Ny4zMjc4NTkwMTAyMTQsInkiOjY5Nn1d" data-look="classic" marker-end="url(#my-svg_class-dependencyEnd)"/><path d="M439.051,696L444.514,690.083C449.976,684.167,460.901,672.333,466.364,645C471.826,617.667,471.826,574.833,471.826,532C471.826,489.167,471.826,446.333,438.145,413.181C404.463,380.029,337.1,356.557,303.418,344.821L269.736,333.086" id="my-svg-id_TeamMessage_LeadSession_3" class="edge-thickness-normal edge-pattern-solid relation" style=";;;" data-edge="true" data-et="edge" data-id="id_TeamMessage_LeadSession_3" data-points="W3sieCI6NDM5LjA1MTA0NzIzOTc4NiwieSI6Njk2fSx7IngiOjQ3MS44MjYxNzE4NzUsInkiOjY2MC41fSx7IngiOjQ3MS44MjYxNzE4NzUsInkiOjUzMn0seyJ4Ijo0NzEuODI2MTcxODc1LCJ5Ijo0MDMuNX0seyJ4IjoyNjQuMDcwMzEyNSwieSI6MzMxLjExMTQxNzc2OTM3NjJ9XQ==" data-look="classic" marker-end="url(#my-svg_class-dependencyEnd)"/><path d="M171.541,134L165.624,139.917C159.706,145.833,147.871,157.667,141.953,168.5C136.035,179.333,136.035,189.167,136.035,194.083L136.035,199" id="my-svg-id_ToolPool_LeadSession_4" class="edge-thickness-normal edge-pattern-solid relation" style=";;;" data-edge="true" data-et="edge" data-id="id_ToolPool_LeadSession_4" data-points="W3sieCI6MTcxLjU0MTQ5MTUxMzMyNDg3LCJ5IjoxMzR9LHsieCI6MTM2LjAzNTE1NjI1LCJ5IjoxNjkuNX0seyJ4IjoxMzYuMDM1MTU2MjUsInkiOjIwNX1d" data-look="classic" marker-end="url(#my-svg_class-dependencyEnd)"/><path d="M304.036,134L310.562,139.917C317.087,145.833,330.138,157.667,336.664,183.083C343.189,208.5,343.189,247.5,343.189,286.5C343.189,325.5,343.189,364.5,338.833,389.153C334.477,413.806,325.764,424.112,321.407,429.265L317.051,434.418" id="my-svg-id_ToolPool_TeammateRuntime_5" class="edge-thickness-normal edge-pattern-solid relation" style=";;;" data-edge="true" data-et="edge" data-id="id_ToolPool_TeammateRuntime_5" data-points="W3sieCI6MzA0LjAzNjExNzk0MDk4OTg3LCJ5IjoxMzR9LHsieCI6MzQzLjE4OTQ1MzEyNSwieSI6MTY5LjV9LHsieCI6MzQzLjE4OTQ1MzEyNSwieSI6Mjg2LjV9LHsieCI6MzQzLjE4OTQ1MzEyNSwieSI6NDAzLjV9LHsieCI6MzEzLjE3Njk3NDQwNDE4MjksInkiOjQzOX1d" data-look="classic" marker-end="url(#my-svg_class-dependencyEnd)"/></g><g class="edgeLabels"><g class="edgeLabel" transform="translate(136.03515625, 403.5)"><g class="label" data-id="id_LeadSession_TeammateRuntime_1" transform="translate(0, -10.5)"><g><rect class="background" style="" x="-25.125" y="0" width="50.25" height="21"/><text y="-10.1" text-anchor="middle" style=""><tspan class="text-outer-tspan row" x="0" y="-0.1em" dy="1.1em" text-anchor="middle"><tspan font-style="normal" class="text-inner-tspan" font-weight="normal">spawn</tspan></tspan></text></g></g></g><g class="edgeLabel" transform="translate(234.552734375, 660.5)"><g class="label" data-id="id_TeammateRuntime_TeamMessage_2" transform="translate(0, -10.5)"><g><rect class="background" style="" x="-19.3515625" y="0" width="38.703125" height="21"/><text y="-10.1" text-anchor="middle" style=""><tspan class="text-outer-tspan row" x="0" y="-0.1em" dy="1.1em" text-anchor="middle"><tspan font-style="normal" class="text-inner-tspan" font-weight="normal">send</tspan></tspan></text></g></g></g><g class="edgeLabel" transform="translate(471.826171875, 532)"><g class="label" data-id="id_TeamMessage_LeadSession_3" transform="translate(0, -10.5)"><g><rect class="background" style="" x="-39.3515625" y="0" width="78.703125" height="21"/><text y="-10.1" text-anchor="middle" style=""><tspan class="text-outer-tspan row" x="0" y="-0.1em" dy="1.1em" text-anchor="middle"><tspan font-style="normal" class="text-inner-tspan" font-weight="normal">inbox</tspan><tspan font-style="normal" class="text-inner-tspan" font-weight="normal"> 注入</tspan></tspan></text></g></g></g><g class="edgeLabel" transform="translate(136.03515625, 169.5)"><g class="label" data-id="id_ToolPool_LeadSession_4" transform="translate(0, -10.5)"><g><rect class="background" style="" x="-26" y="0" width="52" height="21"/><text y="-10.1" text-anchor="middle" style=""><tspan class="text-outer-tspan row" x="0" y="-0.1em" dy="1.1em" text-anchor="middle"><tspan font-style="normal" class="text-inner-tspan" font-weight="normal">主工具</tspan></tspan></text></g></g></g><g class="edgeLabel" transform="translate(343.189453125, 286.5)"><g class="label" data-id="id_ToolPool_TeammateRuntime_5" transform="translate(0, -10.5)"><g><rect class="background" style="" x="-34" y="0" width="68" height="21"/><text y="-10.1" text-anchor="middle" style=""><tspan class="text-outer-tspan row" x="0" y="-0.1em" dy="1.1em" text-anchor="middle"><tspan font-style="normal" class="text-inner-tspan" font-weight="normal">受限工具</tspan></tspan></text></g></g></g></g><g class="nodes"><g class="node default" id="my-svg-classId-LeadSession-0" data-look="classic" transform="translate(136.03515625, 286.5)"><g class="basic label-container outer-path"><path d="M-128.03515625 -81.5 L128.03515625 -81.5 L128.03515625 81.5 L-128.03515625 81.5" stroke="none" stroke-width="0" fill="#eee" style=""/><path d="M-128.03515625 -81.5 C-54.43673968395508 -81.5, 19.161676882089836 -81.5, 128.03515625 -81.5 M-128.03515625 -81.5 C-44.79575018460322 -81.5, 38.44365588079356 -81.5, 128.03515625 -81.5 M128.03515625 -81.5 C128.03515625 -46.63699696102887, 128.03515625 -11.773993922057741, 128.03515625 81.5 M128.03515625 -81.5 C128.03515625 -22.709254301819364, 128.03515625 36.08149139636127, 128.03515625 81.5 M128.03515625 81.5 C57.2006786008469 81.5, -13.633799048306201 81.5, -128.03515625 81.5 M128.03515625 81.5 C62.155421966732874 81.5, -3.7243123165342524 81.5, -128.03515625 81.5 M-128.03515625 81.5 C-128.03515625 35.51083110955415, -128.03515625 -10.478337780891707, -128.03515625 -81.5 M-128.03515625 81.5 C-128.03515625 45.128342845732796, -128.03515625 8.756685691465592, -128.03515625 -81.5" stroke="#999" stroke-width="1.3" fill="none" stroke-dasharray="0 0" style=""/></g><g class="annotation-group text" transform="translate(0, -61.5)"/><g class="label-group text" transform="translate(-49.3515625, -61.5)"><g class="label" style="font-weight: bolder" transform="translate(0,-8.5)"><g><rect class="background" style="stroke: none"/><text y="-10.1" style=""><tspan class="text-outer-tspan row" x="0" y="-0.1em" dy="1.1em" font-weight=""><tspan font-style="normal" class="text-inner-tspan" font-weight="">LeadSession</tspan></tspan></text></g></g></g><g class="members-group text" transform="translate(-116.03515625, -20.5)"><g class="label" style="" transform="translate(0,-8.5)"><g><rect class="background" style="stroke: none"/><text y="-10.1" style=""><tspan class="text-outer-tspan row" x="0" y="-0.1em" dy="1.1em"><tspan font-style="normal" class="text-inner-tspan" font-weight="normal">+messages</tspan><tspan font-style="normal" class="text-inner-tspan" font-weight="normal"> 主会话上下文</tspan></tspan></text></g></g><g class="label" style="" transform="translate(0,11.5)"><g><rect class="background" style="stroke: none"/><text y="-10.1" style=""><tspan class="text-outer-tspan row" x="0" y="-0.1em" dy="1.1em"><tspan font-style="normal" class="text-inner-tspan" font-weight="normal">+tools</tspan><tspan font-style="normal" class="text-inner-tspan" font-weight="normal"> 20</tspan><tspan font-style="normal" class="text-inner-tspan" font-weight="normal"> 个主工具</tspan></tspan></text></g></g></g><g class="methods-group text" transform="translate(-116.03515625, 40.5)"><g class="label" style="" transform="translate(0,-8.5)"><g><rect class="background" style="stroke: none"/><text y="-10.1" style=""><tspan class="text-outer-tspan row" x="0" y="-0.1em" dy="1.1em"><tspan font-style="normal" class="text-inner-tspan" font-weight="normal">+injectLeadInbox()</tspan></tspan></text></g></g><g class="label" style="" transform="translate(0,11.5)"><g><rect class="background" style="stroke: none"/><text y="-10.1" style=""><tspan class="text-outer-tspan row" x="0" y="-0.1em" dy="1.1em"><tspan font-style="normal" class="text-inner-tspan" font-weight="normal">+runAgentLoop()</tspan></tspan></text></g></g></g><g class="divider" style=""><path d="M-128.03515625 -40.5 C-62.66394875950678 -40.49974471383718, 2.707258730986439 -40.49948942767436, 128.03515625 -40.499 M-128.03515625 -40.5 C-49.79587234781721 -40.499694461715855, 28.443411554365582 -40.49938892343171, 128.03515625 -40.499" stroke="#999" stroke-width="1.3" fill="none" stroke-dasharray="0 0" style=""/></g><g class="divider" style=""><path d="M-128.03515625 20.5 C-74.19248170776996 20.50021026519637, -20.349807165539914 20.50042053039274, 128.03515625 20.501 M-128.03515625 20.5 C-45.36260376222626 20.500322850984485, 37.309948725547486 20.50064570196897, 128.03515625 20.501" stroke="#999" stroke-width="1.3" fill="none" stroke-dasharray="0 0" style=""/></g></g><g class="node default" id="my-svg-classId-TeammateRuntime-1" data-look="classic" transform="translate(234.552734375, 532)"><g class="basic label-container outer-path"><path d="M-162.921875 -93 L162.921875 -93 L162.921875 93 L-162.921875 93" stroke="none" stroke-width="0" fill="#eee" style=""/><path d="M-162.921875 -93 C-57.11927805589485 -93, 48.683318888210295 -93, 162.921875 -93 M-162.921875 -93 C-62.69812759204207 -93, 37.52561981591586 -93, 162.921875 -93 M162.921875 -93 C162.921875 -47.20363163418163, 162.921875 -1.4072632683632662, 162.921875 93 M162.921875 -93 C162.921875 -42.27042046573147, 162.921875 8.459159068537062, 162.921875 93 M162.921875 93 C68.86961551852787 93, -25.18264396294427 93, -162.921875 93 M162.921875 93 C97.09198864688149 93, 31.26210229376298 93, -162.921875 93 M-162.921875 93 C-162.921875 30.598972683195775, -162.921875 -31.80205463360845, -162.921875 -93 M-162.921875 93 C-162.921875 25.363643383062097, -162.921875 -42.272713233875805, -162.921875 -93" stroke="#999" stroke-width="1.3" fill="none" stroke-dasharray="0 0" style=""/></g><g class="annotation-group text" transform="translate(0, -73)"/><g class="label-group text" transform="translate(-71.03125, -73)"><g class="label" style="font-weight: bolder" transform="translate(0,-8.5)"><g><rect class="background" style="stroke: none"/><text y="-10.1" style=""><tspan class="text-outer-tspan row" x="0" y="-0.1em" dy="1.1em" font-weight=""><tspan font-style="normal" class="text-inner-tspan" font-weight="">TeammateRuntime</tspan></tspan></text></g></g></g><g class="members-group text" transform="translate(-150.921875, -32)"><g class="label" style="" transform="translate(0,-8.5)"><g><rect class="background" style="stroke: none"/><text y="-10.1" style=""><tspan class="text-outer-tspan row" x="0" y="-0.1em" dy="1.1em"><tspan font-style="normal" class="text-inner-tspan" font-weight="normal">+name</tspan><tspan font-style="normal" class="text-inner-tspan" font-weight="normal"> 队友名</tspan></tspan></text></g></g><g class="label" style="" transform="translate(0,11.5)"><g><rect class="background" style="stroke: none"/><text y="-10.1" style=""><tspan class="text-outer-tspan row" x="0" y="-0.1em" dy="1.1em"><tspan font-style="normal" class="text-inner-tspan" font-weight="normal">+role</tspan><tspan font-style="normal" class="text-inner-tspan" font-weight="normal"> 队友角色</tspan></tspan></text></g></g><g class="label" style="" transform="translate(0,31.5)"><g><rect class="background" style="stroke: none"/><text y="-10.1" style=""><tspan class="text-outer-tspan row" x="0" y="-0.1em" dy="1.1em"><tspan font-style="normal" class="text-inner-tspan" font-weight="normal">+prompt</tspan><tspan font-style="normal" class="text-inner-tspan" font-weight="normal"> 初始任务</tspan></tspan></text></g></g><g class="label" style="" transform="translate(0,51.5)"><g><rect class="background" style="stroke: none"/><text y="-10.1" style=""><tspan class="text-outer-tspan row" x="0" y="-0.1em" dy="1.1em"><tspan font-style="normal" class="text-inner-tspan" font-weight="normal">+messages</tspan><tspan font-style="normal" class="text-inner-tspan" font-weight="normal"> 独立上下文</tspan></tspan></text></g></g><g class="label" style="" transform="translate(0,71.5)"><g><rect class="background" style="stroke: none"/><text y="-10.1" style=""><tspan class="text-outer-tspan row" x="0" y="-0.1em" dy="1.1em"><tspan font-style="normal" class="text-inner-tspan" font-weight="normal">+status</tspan><tspan font-style="normal" class="text-inner-tspan" font-weight="normal"> running/completed/failed</tspan></tspan></text></g></g></g><g class="methods-group text" transform="translate(-150.921875, 89)"/><g class="divider" style=""><path d="M-162.921875 -52 C-40.01851194836016 -51.99962281503619, 82.88485110327969 -51.99924563007238, 162.921875 -51.999 M-162.921875 -52 C-90.88389073900436 -51.999778918625076, -18.845906478008715 -51.99955783725015, 162.921875 -51.999" stroke="#999" stroke-width="1.3" fill="none" stroke-dasharray="0 0" style=""/></g><g class="divider" style=""><path d="M-162.921875 69 C-32.78265105043266 69.00039939149961, 97.35657289913468 69.00079878299921, 162.921875 69.001 M-162.921875 69 C-61.545108215539514 69.00031112079573, 39.83165856892097 69.00062224159147, 162.921875 69.001" stroke="#999" stroke-width="1.3" fill="none" stroke-dasharray="0 0" style=""/></g></g><g class="node default" id="my-svg-classId-TeamMessage-2" data-look="classic" transform="translate(353.189453125, 789)"><g class="basic label-container outer-path"><path d="M-134.791015625 -93 L134.791015625 -93 L134.791015625 93 L-134.791015625 93" stroke="none" stroke-width="0" fill="#eee" style=""/><path d="M-134.791015625 -93 C-72.69505699606543 -93, -10.599098367130864 -93, 134.791015625 -93 M-134.791015625 -93 C-57.52345706514039 -93, 19.744101494719217 -93, 134.791015625 -93 M134.791015625 -93 C134.791015625 -49.038598065756915, 134.791015625 -5.07719613151383, 134.791015625 93 M134.791015625 -93 C134.791015625 -36.872112539574005, 134.791015625 19.25577492085199, 134.791015625 93 M134.791015625 93 C62.156770206715194 93, -10.477475211569612 93, -134.791015625 93 M134.791015625 93 C68.89784245709397 93, 3.0046692891879445 93, -134.791015625 93 M-134.791015625 93 C-134.791015625 53.68713421736894, -134.791015625 14.374268434737886, -134.791015625 -93 M-134.791015625 93 C-134.791015625 42.85806676467673, -134.791015625 -7.283866470646544, -134.791015625 -93" stroke="#999" stroke-width="1.3" fill="none" stroke-dasharray="0 0" style=""/></g><g class="annotation-group text" transform="translate(0, -73)"/><g class="label-group text" transform="translate(-54.15234375, -73)"><g class="label" style="font-weight: bolder" transform="translate(0,-8.5)"><g><rect class="background" style="stroke: none"/><text y="-10.1" style=""><tspan class="text-outer-tspan row" x="0" y="-0.1em" dy="1.1em" font-weight=""><tspan font-style="normal" class="text-inner-tspan" font-weight="">TeamMessage</tspan></tspan></text></g></g></g><g class="members-group text" transform="translate(-122.791015625, -32)"><g class="label" style="" transform="translate(0,-8.5)"><g><rect class="background" style="stroke: none"/><text y="-10.1" style=""><tspan class="text-outer-tspan row" x="0" y="-0.1em" dy="1.1em"><tspan font-style="normal" class="text-inner-tspan" font-weight="normal">+from</tspan><tspan font-style="normal" class="text-inner-tspan" font-weight="normal"> 发件人</tspan></tspan></text></g></g><g class="label" style="" transform="translate(0,11.5)"><g><rect class="background" style="stroke: none"/><text y="-10.1" style=""><tspan class="text-outer-tspan row" x="0" y="-0.1em" dy="1.1em"><tspan font-style="normal" class="text-inner-tspan" font-weight="normal">+to</tspan><tspan font-style="normal" class="text-inner-tspan" font-weight="normal"> 收件人</tspan></tspan></text></g></g><g class="label" style="" transform="translate(0,31.5)"><g><rect class="background" style="stroke: none"/><text y="-10.1" style=""><tspan class="text-outer-tspan row" x="0" y="-0.1em" dy="1.1em"><tspan font-style="normal" class="text-inner-tspan" font-weight="normal">+type</tspan><tspan font-style="normal" class="text-inner-tspan" font-weight="normal"> message/result/error</tspan></tspan></text></g></g><g class="label" style="" transform="translate(0,51.5)"><g><rect class="background" style="stroke: none"/><text y="-10.1" style=""><tspan class="text-outer-tspan row" x="0" y="-0.1em" dy="1.1em"><tspan font-style="normal" class="text-inner-tspan" font-weight="normal">+content</tspan><tspan font-style="normal" class="text-inner-tspan" font-weight="normal"> 正文</tspan></tspan></text></g></g><g class="label" style="" transform="translate(0,71.5)"><g><rect class="background" style="stroke: none"/><text y="-10.1" style=""><tspan class="text-outer-tspan row" x="0" y="-0.1em" dy="1.1em"><tspan font-style="normal" class="text-inner-tspan" font-weight="normal">+createdAt</tspan><tspan font-style="normal" class="text-inner-tspan" font-weight="normal"> 时间</tspan></tspan></text></g></g></g><g class="methods-group text" transform="translate(-122.791015625, 89)"/><g class="divider" style=""><path d="M-134.791015625 -52 C-47.414318310174494 -51.9996758808556, 39.96237900465101 -51.999351761711196, 134.791015625 -51.999 M-134.791015625 -52 C-51.465189271476405 -51.999690907342874, 31.86063708204719 -51.99938181468574, 134.791015625 -51.999" stroke="#999" stroke-width="1.3" fill="none" stroke-dasharray="0 0" style=""/></g><g class="divider" style=""><path d="M-134.791015625 69 C-27.190908598200977 69.0003991367916, 80.40919842859805 69.00079827358321, 134.791015625 69.001 M-134.791015625 69 C-29.270429433777082 69.00039142292127, 76.25015675744584 69.00078284584252, 134.791015625 69.001" stroke="#999" stroke-width="1.3" fill="none" stroke-dasharray="0 0" style=""/></g></g><g class="node default" id="my-svg-classId-ToolPool-3" data-look="classic" transform="translate(234.552734375, 71)"><g class="basic label-container outer-path"><path d="M-105.953125 -63 L105.953125 -63 L105.953125 63 L-105.953125 63" stroke="none" stroke-width="0" fill="#eee" style=""/><path d="M-105.953125 -63 C-34.815418540665135 -63, 36.32228791866973 -63, 105.953125 -63 M-105.953125 -63 C-41.526908357406995 -63, 22.89930828518601 -63, 105.953125 -63 M105.953125 -63 C105.953125 -37.191311227133625, 105.953125 -11.382622454267242, 105.953125 63 M105.953125 -63 C105.953125 -13.270483468301997, 105.953125 36.45903306339601, 105.953125 63 M105.953125 63 C30.900833671225314 63, -44.15145765754937 63, -105.953125 63 M105.953125 63 C47.140129252703886 63, -11.672866494592228 63, -105.953125 63 M-105.953125 63 C-105.953125 25.37903699904598, -105.953125 -12.241926001908041, -105.953125 -63 M-105.953125 63 C-105.953125 23.70605851331719, -105.953125 -15.587882973365623, -105.953125 -63" stroke="#999" stroke-width="1.3" fill="none" stroke-dasharray="0 0" style=""/></g><g class="annotation-group text" transform="translate(0, -43)"/><g class="label-group text" transform="translate(-33.625, -43)"><g class="label" style="font-weight: bolder" transform="translate(0,-8.5)"><g><rect class="background" style="stroke: none"/><text y="-10.1" style=""><tspan class="text-outer-tspan row" x="0" y="-0.1em" dy="1.1em" font-weight=""><tspan font-style="normal" class="text-inner-tspan" font-weight="">ToolPool</tspan></tspan></text></g></g></g><g class="members-group text" transform="translate(-93.953125, -2)"><g class="label" style="" transform="translate(0,-8.5)"><g><rect class="background" style="stroke: none"/><text y="-10.1" style=""><tspan class="text-outer-tspan row" x="0" y="-0.1em" dy="1.1em"><tspan font-style="normal" class="text-inner-tspan" font-weight="normal">+Lead:</tspan><tspan font-style="normal" class="text-inner-tspan" font-weight="normal"> 20</tspan><tspan font-style="normal" class="text-inner-tspan" font-weight="normal"> 个工具</tspan></tspan></text></g></g><g class="label" style="" transform="translate(0,11.5)"><g><rect class="background" style="stroke: none"/><text y="-10.1" style=""><tspan class="text-outer-tspan row" x="0" y="-0.1em" dy="1.1em"><tspan font-style="normal" class="text-inner-tspan" font-weight="normal">+Teammate:</tspan><tspan font-style="normal" class="text-inner-tspan" font-weight="normal"> 4</tspan><tspan font-style="normal" class="text-inner-tspan" font-weight="normal"> 个工具</tspan></tspan></text></g></g></g><g class="methods-group text" transform="translate(-93.953125, 59)"/><g class="divider" style=""><path d="M-105.953125 -22 C-48.918704155650715 -21.999730850690604, 8.11571668869857 -21.999461701381207, 105.953125 -21.999 M-105.953125 -22 C-47.614247227651205 -21.999724694869677, 10.72463054469759 -21.999449389739354, 105.953125 -21.999" stroke="#999" stroke-width="1.3" fill="none" stroke-dasharray="0 0" style=""/></g><g class="divider" style=""><path d="M-105.953125 39 C-57.60666037398813 39.000228150253356, -9.260195747976255 39.00045630050672, 105.953125 39.001 M-105.953125 39 C-51.36731917169689 39.00025759412867, 3.218486656606217 39.00051518825734, 105.953125 39.001" stroke="#999" stroke-width="1.3" fill="none" stroke-dasharray="0 0" style=""/></g></g></g></g></g><defs><filter id="my-svg-drop-shadow" height="130%" width="130%"><feDropShadow dx="4" dy="4" stdDeviation="0" flood-opacity="0.06" flood-color="#000000"/></filter></defs><defs><filter id="my-svg-drop-shadow-small" height="150%" width="150%"><feDropShadow dx="2" dy="2" stdDeviation="0" flood-opacity="0.06" flood-color="#000000"/></filter></defs><linearGradient id="my-svg-gradient" gradientUnits="objectBoundingBox" x1="0%" y1="0%" x2="100%" y2="0%"><stop offset="0%" stop-color="hsl(0, 0%, 83.3333333333%)" stop-opacity="1"/><stop offset="100%" stop-color="hsl(0, 0%, 88.9215686275%)" stop-opacity="1"/></linearGradient></svg>