<svg width="1174.2890625" height="1213.199951171875" id="my-svg" xmlns="http://www.w3.org/2000/svg" xmlns:xlink="http://www.w3.org/1999/xlink" class="flowchart" style="max-width: 1174.29px; background-color: white;" viewBox="0 0 1174.2890625 1213.199951171875" role="graphics-document document" aria-roledescription="flowchart-v2"><style>#my-svg{font-family:"trebuchet ms",verdana,arial,sans-serif;font-size:16px;fill:#000000;}@keyframes edge-animation-frame{from{stroke-dashoffset:0;}}@keyframes dash{to{stroke-dashoffset:0;}}#my-svg .edge-animation-slow{stroke-dasharray:9,5!important;stroke-dashoffset:900;animation:dash 50s linear infinite;stroke-linecap:round;}#my-svg .edge-animation-fast{stroke-dasharray:9,5!important;stroke-dashoffset:900;animation:dash 20s linear infinite;stroke-linecap:round;}#my-svg .error-icon{fill:#552222;}#my-svg .error-text{fill:#552222;stroke:#552222;}#my-svg .edge-thickness-normal{stroke-width:1px;}#my-svg .edge-thickness-thick{stroke-width:3.5px;}#my-svg .edge-pattern-solid{stroke-dasharray:0;}#my-svg .edge-thickness-invisible{stroke-width:0;fill:none;}#my-svg .edge-pattern-dashed{stroke-dasharray:3;}#my-svg .edge-pattern-dotted{stroke-dasharray:2;}#my-svg .marker{fill:#666;stroke:#666;}#my-svg .marker.cross{stroke:#666;}#my-svg svg{font-family:"trebuchet ms",verdana,arial,sans-serif;font-size:16px;}#my-svg p{margin:0;}#my-svg .label{font-family:"trebuchet ms",verdana,arial,sans-serif;color:#000000;}#my-svg .cluster-label text{fill:#333;}#my-svg .cluster-label span{color:#333;}#my-svg .cluster-label span p{background-color:transparent;}#my-svg .label text,#my-svg span{fill:#000000;color:#000000;}#my-svg .node rect,#my-svg .node circle,#my-svg .node ellipse,#my-svg .node polygon,#my-svg .node path{fill:#eee;stroke:#999;stroke-width:1px;}#my-svg .rough-node .label text,#my-svg .node .label text,#my-svg .image-shape .label,#my-svg .icon-shape .label{text-anchor:middle;}#my-svg .node .katex path{fill:#000;stroke:#000;stroke-width:1px;}#my-svg .rough-node .label,#my-svg .node .label,#my-svg .image-shape .label,#my-svg .icon-shape .label{text-align:center;}#my-svg .node.clickable{cursor:pointer;}#my-svg .root .anchor path{fill:#666!important;stroke-width:0;stroke:#666;}#my-svg .arrowheadPath{fill:#333333;}#my-svg .edgePath .path{stroke:#666;stroke-width:1px;}#my-svg .flowchart-link{stroke:#666;fill:none;}#my-svg .edgeLabel{background-color:white;text-align:center;}#my-svg .edgeLabel p{background-color:white;}#my-svg .edgeLabel rect{opacity:0.5;background-color:white;fill:white;}#my-svg .labelBkg{background-color:rgba(255, 255, 255, 0.5);}#my-svg .cluster rect{fill:hsl(0, 0%, 98.9215686275%);stroke:#707070;stroke-width:1px;}#my-svg .cluster text{fill:#333;}#my-svg .cluster span{color:#333;}#my-svg div.mermaidTooltip{position:absolute;text-align:center;max-width:200px;padding:2px;font-family:"trebuchet ms",verdana,arial,sans-serif;font-size:12px;background:hsl(-160, 0%, 93.3333333333%);border:1px solid #707070;border-radius:2px;pointer-events:none;z-index:100;}#my-svg .flowchartTitleText{text-anchor:middle;font-size:18px;fill:#000000;}#my-svg rect.text{fill:none;stroke-width:0;}#my-svg .icon-shape,#my-svg .image-shape{background-color:white;text-align:center;}#my-svg .icon-shape p,#my-svg .image-shape p{background-color:white;padding:2px;}#my-svg .icon-shape .label rect,#my-svg .image-shape .label rect{opacity:0.5;background-color:white;fill:white;}#my-svg .label-icon{display:inline-block;height:1em;overflow:visible;vertical-align:-0.125em;}#my-svg .node .label-icon path{fill:currentColor;stroke:revert;stroke-width:revert;}#my-svg .node .neo-node{stroke:#999;}#my-svg [data-look="neo"].node rect,#my-svg [data-look="neo"].cluster rect,#my-svg [data-look="neo"].node polygon{stroke:url(#my-svg-gradient);filter:drop-shadow( 1px 2px 2px rgba(185,185,185,1));}#my-svg [data-look="neo"].swimlane.cluster rect{filter:none;}#my-svg [data-look="neo"].node path{stroke:url(#my-svg-gradient);stroke-width:1px;}#my-svg [data-look="neo"].node .outer-path{filter:drop-shadow( 1px 2px 2px rgba(185,185,185,1));}#my-svg [data-look="neo"].node .neo-line path{stroke:#999;filter:none;}#my-svg [data-look="neo"].node circle{stroke:url(#my-svg-gradient);filter:drop-shadow( 1px 2px 2px rgba(185,185,185,1));}#my-svg [data-look="neo"].node circle .state-start{fill:#000000;}#my-svg [data-look="neo"].icon-shape .icon{fill:url(#my-svg-gradient);filter:drop-shadow( 1px 2px 2px rgba(185,185,185,1));}#my-svg [data-look="neo"].icon-shape .icon-neo path{stroke:url(#my-svg-gradient);filter:drop-shadow( 1px 2px 2px rgba(185,185,185,1));}#my-svg :root{--mermaid-font-family:"trebuchet ms",verdana,arial,sans-serif;}</style><g><marker id="my-svg_flowchart-v2-pointEnd" class="marker flowchart-v2" viewBox="0 0 10 10" refX="5" refY="5" markerUnits="userSpaceOnUse" markerWidth="8" markerHeight="8" orient="auto"><path d="M 0 0 L 10 5 L 0 10 z" class="arrowMarkerPath" style="stroke-width: 1; stroke-dasharray: 1, 0;"/></marker><marker id="my-svg_flowchart-v2-pointStart" class="marker flowchart-v2" viewBox="0 0 10 10" refX="4.5" refY="5" markerUnits="userSpaceOnUse" markerWidth="8" markerHeight="8" orient="auto"><path d="M 0 5 L 10 10 L 10 0 z" class="arrowMarkerPath" style="stroke-width: 1; stroke-dasharray: 1, 0;"/></marker><marker id="my-svg_flowchart-v2-pointEnd-margin" class="marker flowchart-v2" viewBox="0 0 11.5 14" refX="11.5" refY="7" markerUnits="userSpaceOnUse" markerWidth="10.5" markerHeight="14" orient="auto"><path d="M 0 0 L 11.5 7 L 0 14 z" class="arrowMarkerPath" style="stroke-width: 0; stroke-dasharray: 1, 0;"/></marker><marker id="my-svg_flowchart-v2-pointStart-margin" class="marker flowchart-v2" viewBox="0 0 11.5 14" refX="1" refY="7" markerUnits="userSpaceOnUse" markerWidth="11.5" markerHeight="14" orient="auto"><polygon points="0,7 11.5,14 11.5,0" class="arrowMarkerPath" style="stroke-width: 0; stroke-dasharray: 1, 0;"/></marker><marker id="my-svg_flowchart-v2-circleEnd" class="marker flowchart-v2" viewBox="0 0 10 10" refX="11" refY="5" markerUnits="userSpaceOnUse" markerWidth="11" markerHeight="11" orient="auto"><circle cx="5" cy="5" r="5" class="arrowMarkerPath" style="stroke-width: 1; stroke-dasharray: 1, 0;"/></marker><marker id="my-svg_flowchart-v2-circleStart" class="marker flowchart-v2" viewBox="0 0 10 10" refX="-1" refY="5" markerUnits="userSpaceOnUse" markerWidth="11" markerHeight="11" orient="auto"><circle cx="5" cy="5" r="5" class="arrowMarkerPath" style="stroke-width: 1; stroke-dasharray: 1, 0;"/></marker><marker id="my-svg_flowchart-v2-circleEnd-margin" class="marker flowchart-v2" viewBox="0 0 10 10" refY="5" refX="12.25" markerUnits="userSpaceOnUse" markerWidth="14" markerHeight="14" orient="auto"><circle cx="5" cy="5" r="5" class="arrowMarkerPath" style="stroke-width: 0; stroke-dasharray: 1, 0;"/></marker><marker id="my-svg_flowchart-v2-circleStart-margin" class="marker flowchart-v2" viewBox="0 0 10 10" refX="-2" refY="5" markerUnits="userSpaceOnUse" markerWidth="14" markerHeight="14" orient="auto"><circle cx="5" cy="5" r="5" class="arrowMarkerPath" style="stroke-width: 0; stroke-dasharray: 1, 0;"/></marker><marker id="my-svg_flowchart-v2-crossEnd" class="marker cross flowchart-v2" viewBox="0 0 11 11" refX="12" refY="5.2" markerUnits="userSpaceOnUse" markerWidth="11" markerHeight="11" orient="auto"><path d="M 1,1 l 9,9 M 10,1 l -9,9" class="arrowMarkerPath" style="stroke-width: 2; stroke-dasharray: 1, 0;"/></marker><marker id="my-svg_flowchart-v2-crossStart" class="marker cross flowchart-v2" viewBox="0 0 11 11" refX="-1" refY="5.2" markerUnits="userSpaceOnUse" markerWidth="11" markerHeight="11" orient="auto"><path d="M 1,1 l 9,9 M 10,1 l -9,9" class="arrowMarkerPath" style="stroke-width: 2; stroke-dasharray: 1, 0;"/></marker><marker id="my-svg_flowchart-v2-crossEnd-margin" class="marker cross flowchart-v2" viewBox="0 0 15 15" refX="17.7" refY="7.5" markerUnits="userSpaceOnUse" markerWidth="12" markerHeight="12" orient="auto"><path d="M 1,1 L 14,14 M 1,14 L 14,1" class="arrowMarkerPath" style="stroke-width: 2.5;"/></marker><marker id="my-svg_flowchart-v2-crossStart-margin" class="marker cross flowchart-v2" viewBox="0 0 15 15" refX="-3.5" refY="7.5" markerUnits="userSpaceOnUse" markerWidth="12" markerHeight="12" orient="auto"><path d="M 1,1 L 14,14 M 1,14 L 14,1" class="arrowMarkerPath" style="stroke-width: 2.5; stroke-dasharray: 1, 0;"/></marker><g class="root"><g class="clusters"/><g class="edgePaths"><path d="M682.289,40.5L682.206,44.583C682.122,48.667,681.956,56.833,681.872,64.417C681.789,72,681.789,79,681.789,82.5L681.789,86" id="my-svg-L_Start_Request_0" class="edge-thickness-normal edge-pattern-solid edge-thickness-normal edge-pattern-solid flowchart-link" style=";" data-edge="true" data-et="edge" data-id="L_Start_Request_0" data-points="W3sieCI6NjgyLjI4OTA2MjUsInkiOjQwLjV9LHsieCI6NjgxLjc4OTA2MjUsInkiOjY1fSx7IngiOjY4MS43ODkwNjI1LCJ5Ijo5MH1d" data-look="classic" marker-end="url(#my-svg_flowchart-v2-pointEnd)"/><path d="M681.789,137L681.789,141.167C681.789,145.333,681.789,153.667,681.789,161.333C681.789,169,681.789,176,681.789,179.5L681.789,183" id="my-svg-L_Request_Check_0" class="edge-thickness-normal edge-pattern-solid edge-thickness-normal edge-pattern-solid flowchart-link" style=";" data-edge="true" data-et="edge" data-id="L_Request_Check_0" data-points="W3sieCI6NjgxLjc4OTA2MjUsInkiOjEzN30seyJ4Ijo2ODEuNzg5MDYyNSwieSI6MTYyfSx7IngiOjY4MS43ODkwNjI1LCJ5IjoxODd9XQ==" data-look="classic" marker-end="url(#my-svg_flowchart-v2-pointEnd)"/><path d="M615.601,279.812L531.334,296.76C447.067,313.708,278.534,347.604,194.267,376.335C110,405.067,110,428.633,110,440.417L110,452.2" id="my-svg-L_Check_Done_0" class="edge-thickness-normal edge-pattern-solid edge-thickness-normal edge-pattern-solid flowchart-link" style=";" data-edge="true" data-et="edge" data-id="L_Check_Done_0" data-points="W3sieCI6NjE1LjYwMTAxMDA4MjE1ODgsInkiOjI3OS44MTE5NDc1ODIxNTg4NH0seyJ4IjoxMTAsInkiOjM4MS41fSx7IngiOjExMCwieSI6NDU2LjIwMDAwMDc2MjkzOTQ1fV0=" data-look="classic" marker-end="url(#my-svg_flowchart-v2-pointEnd)"/><path d="M622.023,286.234L573.936,302.112C525.849,317.989,429.674,349.745,381.587,370.872C333.5,392,333.5,402.5,333.5,407.75L333.5,413" id="my-svg-L_Check_L1_0" class="edge-thickness-normal edge-pattern-solid edge-thickness-normal edge-pattern-solid flowchart-link" style=";" data-edge="true" data-et="edge" data-id="L_Check_L1_0" data-points="W3sieCI6NjIyLjAyMjk2MjQzNDIzMzgsInkiOjI4Ni4yMzM4OTk5MzQyMzM4fSx7IngiOjMzMy41LCJ5IjozODEuNX0seyJ4IjozMzMuNSwieSI6NDE3fV0=" data-look="classic" marker-end="url(#my-svg_flowchart-v2-pointEnd)"/><path d="M296.974,523.474L284.436,535.478C271.899,547.482,246.825,571.491,234.287,596.612C221.75,621.733,221.75,647.967,221.75,661.083L221.75,674.2" id="my-svg-L_L1_L2_0" class="edge-thickness-normal edge-pattern-solid edge-thickness-normal edge-pattern-solid flowchart-link" style=";" data-edge="true" data-et="edge" data-id="L_L1_L2_0" data-points="W3sieCI6Mjk2Ljk3MzcxNDI4NTcxNDI3LCJ5Ijo1MjMuNDczNzE0Mjg1NzE0M30seyJ4IjoyMjEuNzUsInkiOjU5NS41fSx7IngiOjIyMS43NSwieSI6Njc4LjIwMDAwMDc2MjkzOTV9XQ==" data-look="classic" marker-end="url(#my-svg_flowchart-v2-pointEnd)"/><path d="M373.602,519.898L389.696,532.498C405.79,545.098,437.977,570.299,454.07,588.15C470.164,606,470.164,616.5,470.164,621.75L470.164,627" id="my-svg-L_L1_L3_0" class="edge-thickness-normal edge-pattern-solid edge-thickness-normal edge-pattern-solid flowchart-link" style=";" data-edge="true" data-et="edge" data-id="L_L1_L3_0" data-points="W3sieCI6MzczLjYwMjI2MzYxODU4MzUsInkiOjUxOS44OTc3MzYzODE0MTY1fSx7IngiOjQ3MC4xNjQwNjI1LCJ5Ijo1OTUuNX0seyJ4Ijo0NzAuMTY0MDYyNSwieSI6NjMxfV0=" data-look="classic" marker-end="url(#my-svg_flowchart-v2-pointEnd)"/><path d="M432.339,752.175L421.248,764.396C410.156,776.617,387.972,801.058,376.881,835.113C365.789,869.167,365.789,912.833,365.789,956.5C365.789,1000.167,365.789,1043.833,408.245,1075.81C450.701,1107.786,535.612,1128.072,578.068,1138.215L620.524,1148.358" id="my-svg-L_L3_Stop_0" class="edge-thickness-normal edge-pattern-solid edge-thickness-normal edge-pattern-solid flowchart-link" style=";" data-edge="true" data-et="edge" data-id="L_L3_Stop_0" data-points="W3sieCI6NDMyLjMzOTI3NjE3NTIxMzcsInkiOjc1Mi4xNzUyMTM2NzUyMTM2fSx7IngiOjM2NS43ODkwNjI1LCJ5Ijo4MjUuNX0seyJ4IjozNjUuNzg5MDYyNSwieSI6OTU2LjV9LHsieCI6MzY1Ljc4OTA2MjUsInkiOjEwODcuNX0seyJ4Ijo2MjQuNDE0MDYyNSwieSI6MTE0OS4yODc2NzkwODEwNzQ3fV0=" data-look="classic" marker-end="url(#my-svg_flowchart-v2-pointEnd)"/><path d="M500.312,759.852L506.996,770.794C513.679,781.735,527.047,803.617,533.73,819.809C540.414,836,540.414,846.5,540.414,851.75L540.414,857" id="my-svg-L_L3_L4_0" class="edge-thickness-normal edge-pattern-solid edge-thickness-normal edge-pattern-solid flowchart-link" style=";" data-edge="true" data-et="edge" data-id="L_L3_L4_0" data-points="W3sieCI6NTAwLjMxMTgzNTc3OTM1MjI0LCJ5Ijo3NTkuODUyMjI2NzIwNjQ3OH0seyJ4Ijo1NDAuNDE0MDYyNSwieSI6ODI1LjV9LHsieCI6NTQwLjQxNDA2MjUsInkiOjg2MX1d" data-look="classic" marker-end="url(#my-svg_flowchart-v2-pointEnd)"/><path d="M501.683,1013.269L493.243,1025.641C484.802,1038.013,467.92,1062.756,426.29,1084.176C384.659,1105.595,318.279,1123.69,285.088,1132.738L251.898,1141.785" id="my-svg-L_L4_L5_0" class="edge-thickness-normal edge-pattern-solid edge-thickness-normal edge-pattern-solid flowchart-link" style=";" data-edge="true" data-et="edge" data-id="L_L4_L5_0" data-points="W3sieCI6NTAxLjY4MzIwNjAwNTM4ODU3LCJ5IjoxMDEzLjI2OTE0MzUwNTM4ODZ9LHsieCI6NDUxLjAzOTA2MjUsInkiOjEwODcuNX0seyJ4IjoyNDguMDM5MDYyNSwieSI6MTE0Mi44MzczNjU0NDU3MTczfV0=" data-look="classic" marker-end="url(#my-svg_flowchart-v2-pointEnd)"/><path d="M578.919,1013.495L587.251,1025.83C595.584,1038.164,612.249,1062.832,626.825,1083.483C641.4,1104.134,653.886,1120.767,660.129,1129.084L666.372,1137.401" id="my-svg-L_L4_Stop_0" class="edge-thickness-normal edge-pattern-solid edge-thickness-normal edge-pattern-solid flowchart-link" style=";" data-edge="true" data-et="edge" data-id="L_L4_Stop_0" data-points="W3sieCI6NTc4LjkxODYxODMwODY1NiwieSI6MTAxMy40OTU0NDQxOTEzNDR9LHsieCI6NjI4LjkxNDA2MjUsInkiOjEwODcuNX0seyJ4Ijo2NjguNzczNzIyNzIzMDE1MywieSI6MTE0MC41OTk5OTg0NzQxMjF9XQ==" data-look="classic" marker-end="url(#my-svg_flowchart-v2-pointEnd)"/><path d="M716.363,311.426L725.35,323.105C734.338,334.784,752.314,358.142,761.301,387.654C770.289,417.167,770.289,452.833,770.289,488.5C770.289,524.167,770.289,559.833,770.289,596.833C770.289,633.833,770.289,672.167,770.289,710.5C770.289,748.833,770.289,787.167,770.289,815.583C770.289,844,770.289,862.5,770.289,871.75L770.289,881" id="my-svg-L_Check_C1_0" class="edge-thickness-normal edge-pattern-solid edge-thickness-normal edge-pattern-solid flowchart-link" style=";" data-edge="true" data-et="edge" data-id="L_Check_C1_0" data-points="W3sieCI6NzE2LjM2Mjc3MjU3MzcxMDEsInkiOjMxMS40MjYyODk5MjYyODk5NH0seyJ4Ijo3NzAuMjg5MDYyNSwieSI6MzgxLjV9LHsieCI6NzcwLjI4OTA2MjUsInkiOjQ4OC41fSx7IngiOjc3MC4yODkwNjI1LCJ5Ijo1OTUuNX0seyJ4Ijo3NzAuMjg5MDYyNSwieSI6NzEwLjV9LHsieCI6NzcwLjI4OTA2MjUsInkiOjgyNS41fSx7IngiOjc3MC4yODkwNjI1LCJ5Ijo4ODV9XQ==" data-look="classic" marker-end="url(#my-svg_flowchart-v2-pointEnd)"/><path d="M739.097,996.808L727.4,1011.923C715.703,1027.038,692.308,1057.269,649.692,1080.84C607.075,1104.41,545.236,1121.32,514.317,1129.775L483.397,1138.229" id="my-svg-L_C1_C2_0" class="edge-thickness-normal edge-pattern-solid edge-thickness-normal edge-pattern-solid flowchart-link" style=";" data-edge="true" data-et="edge" data-id="L_C1_C2_0" data-points="W3sieCI6NzM5LjA5Njc1NDgwNzY5MjMsInkiOjk5Ni44MDc2OTIzMDc2OTIzfSx7IngiOjY2OC45MTQwNjI1LCJ5IjoxMDg3LjV9LHsieCI6NDc5LjUzOTA2MjUsInkiOjExMzkuMjg0NDcwMTg2NjU0N31d" data-look="classic" marker-end="url(#my-svg_flowchart-v2-pointEnd)"/><path d="M799.117,999.172L809.062,1013.893C819.008,1028.615,838.898,1058.057,829.538,1081.358C820.177,1104.659,781.564,1121.817,762.258,1130.396L742.952,1138.976" id="my-svg-L_C1_Stop_0" class="edge-thickness-normal edge-pattern-solid edge-thickness-normal edge-pattern-solid flowchart-link" style=";" data-edge="true" data-et="edge" data-id="L_C1_Stop_0" data-points="W3sieCI6Nzk5LjExNzA4MDcyMzIzNDYsInkiOjk5OS4xNzE5ODE3NzY3NjU0fSx7IngiOjg1OC43ODkwNjI1LCJ5IjoxMDg3LjV9LHsieCI6NzM5LjI5NjczMzI2NjIyMTMsInkiOjExNDAuNTk5OTk4NDc0MTIxfV0=" data-look="classic" marker-end="url(#my-svg_flowchart-v2-pointEnd)"/><path d="M740.272,287.517L783.858,303.181C827.444,318.845,914.617,350.172,958.203,383.67C1001.789,417.167,1001.789,452.833,1001.789,488.5C1001.789,524.167,1001.789,559.833,1001.789,596.833C1001.789,633.833,1001.789,672.167,1001.789,710.5C1001.789,748.833,1001.789,787.167,1001.789,811.583C1001.789,836,1001.789,846.5,1001.789,851.75L1001.789,857" id="my-svg-L_Check_R1_0" class="edge-thickness-normal edge-pattern-solid edge-thickness-normal edge-pattern-solid flowchart-link" style=";" data-edge="true" data-et="edge" data-id="L_Check_R1_0" data-points="W3sieCI6NzQwLjI3MTgyMTEyMDY4OTcsInkiOjI4Ny41MTcyNDEzNzkzMTAzNX0seyJ4IjoxMDAxLjc4OTA2MjUsInkiOjM4MS41fSx7IngiOjEwMDEuNzg5MDYyNSwieSI6NDg4LjV9LHsieCI6MTAwMS43ODkwNjI1LCJ5Ijo1OTUuNX0seyJ4IjoxMDAxLjc4OTA2MjUsInkiOjcxMC41fSx7IngiOjEwMDEuNzg5MDYyNSwieSI6ODI1LjV9LHsieCI6MTAwMS43ODkwNjI1LCJ5Ijo4NjF9XQ==" data-look="classic" marker-end="url(#my-svg_flowchart-v2-pointEnd)"/><path d="M989.14,1039.351L987.915,1047.376C986.69,1055.401,984.239,1071.45,989.103,1084.946C993.967,1098.442,1006.145,1109.384,1012.234,1114.855L1018.323,1120.327" id="my-svg-L_R1_R2_0" class="edge-thickness-normal edge-pattern-solid edge-thickness-normal edge-pattern-solid flowchart-link" style=";" data-edge="true" data-et="edge" data-id="L_R1_R2_0" data-points="W3sieCI6OTg5LjE0MDA1NTg3NzQ4MzQsInkiOjEwMzkuMzUwOTkzMzc3NDgzNX0seyJ4Ijo5ODEuNzg5MDYyNSwieSI6MTA4Ny41fSx7IngiOjEwMjEuMjk3ODc1Mjk3NDYzLCJ5IjoxMTIzfV0=" data-look="classic" marker-end="url(#my-svg_flowchart-v2-pointEnd)"/><path d="M1028.266,1025.523L1032.228,1035.853C1036.19,1046.182,1044.115,1066.841,998.125,1087.636C952.136,1108.43,852.232,1129.36,802.281,1139.825L752.329,1150.291" id="my-svg-L_R1_Stop_0" class="edge-thickness-normal edge-pattern-solid edge-thickness-normal edge-pattern-solid flowchart-link" style=";" data-edge="true" data-et="edge" data-id="L_R1_Stop_0" data-points="W3sieCI6MTAyOC4yNjU2MTQyMjQxMzc4LCJ5IjoxMDI1LjUyMzQ0ODI3NTg2MjJ9LHsieCI6MTA1Mi4wMzkwNjI1LCJ5IjoxMDg3LjV9LHsieCI6NzQ4LjQxNDA2MjUsInkiOjExNTEuMTEwNzMzNzc1NjAzNH1d" data-look="classic" marker-end="url(#my-svg_flowchart-v2-pointEnd)"/><path d="M745.122,282.667L809.65,299.139C874.178,315.611,1003.233,348.556,1067.761,382.861C1132.289,417.167,1132.289,452.833,1132.289,488.5C1132.289,524.167,1132.289,559.833,1132.289,596.833C1132.289,633.833,1132.289,672.167,1132.289,710.5C1132.289,748.833,1132.289,787.167,1132.289,828.167C1132.289,869.167,1132.289,912.833,1132.289,956.5C1132.289,1000.167,1132.289,1043.833,1068.967,1076.545C1005.645,1109.257,879.001,1131.014,815.678,1141.893L752.356,1152.771" id="my-svg-L_Check_Stop_0" class="edge-thickness-normal edge-pattern-solid edge-thickness-normal edge-pattern-solid flowchart-link" style=";" data-edge="true" data-et="edge" data-id="L_Check_Stop_0" data-points="W3sieCI6NzQ1LjEyMTk1Mzc0NjY4NDMsInkiOjI4Mi42NjcxMDg3NTMzMTU2M30seyJ4IjoxMTMyLjI4OTA2MjUsInkiOjM4MS41fSx7IngiOjExMzIuMjg5MDYyNSwieSI6NDg4LjV9LHsieCI6MTEzMi4yODkwNjI1LCJ5Ijo1OTUuNX0seyJ4IjoxMTMyLjI4OTA2MjUsInkiOjcxMC41fSx7IngiOjExMzIuMjg5MDYyNSwieSI6ODI1LjV9LHsieCI6MTEzMi4yODkwNjI1LCJ5Ijo5NTYuNX0seyJ4IjoxMTMyLjI4OTA2MjUsInkiOjEwODcuNX0seyJ4Ijo3NDguNDE0MDYyNSwieSI6MTE1My40NDg1ODI5MzA3NjE0fV0=" data-look="classic" marker-end="url(#my-svg_flowchart-v2-pointEnd)"/></g><g class="edgeLabels"><g class="edgeLabel"><g class="label" data-id="L_Start_Request_0" transform="translate(0, 0)"><text y="-10.1" text-anchor="middle"><tspan class="text-outer-tspan row" x="0" y="-0.1em" dy="1.1em" text-anchor="middle"/></text></g></g><g><rect class="background" style="stroke: none"/></g><g class="edgeLabel"><g class="label" data-id="L_Request_Check_0" transform="translate(0, 0)"><text y="-10.1" text-anchor="middle"><tspan class="text-outer-tspan row" x="0" y="-0.1em" dy="1.1em" text-anchor="middle"/></text></g></g><g><rect class="background" style="stroke: none"/></g><g class="edgeLabel" transform="translate(110, 381.5)"><g class="label" data-id="L_Check_Done_0" transform="translate(-0.046875, -10.5)"><g><rect class="background" style="" x="-52.6875" y="0" width="105.46875" height="21"/><text y="-10.1" text-anchor="middle" style=""><tspan class="text-outer-tspan row" x="0" y="-0.1em" dy="1.1em" text-anchor="middle"><tspan font-style="normal" class="text-inner-tspan" font-weight="normal">完整</tspan><tspan font-style="normal" class="text-inner-tspan" font-weight="normal"> message</tspan></tspan></text></g></g></g><g class="edgeLabel" transform="translate(333.5, 381.5)"><g class="label" data-id="L_Check_L1_0" transform="translate(0, -10.5)"><g><rect class="background" style="" x="-34" y="0" width="68" height="21"/><text y="-10.1" text-anchor="middle" style=""><tspan class="text-outer-tspan row" x="0" y="-0.1em" dy="1.1em" text-anchor="middle"><tspan font-style="normal" class="text-inner-tspan" font-weight="normal">输出截断</tspan></tspan></text></g></g></g><g class="edgeLabel" transform="translate(221.75, 595.5)"><g class="label" data-id="L_L1_L2_0" transform="translate(0, -10.5)"><g><rect class="background" style="" x="-10" y="0" width="20" height="21"/><text y="-10.1" text-anchor="middle" style=""><tspan class="text-outer-tspan row" x="0" y="-0.1em" dy="1.1em" text-anchor="middle"><tspan font-style="normal" class="text-inner-tspan" font-weight="normal">是</tspan></tspan></text></g></g></g><g class="edgeLabel" transform="translate(470.1640625, 595.5)"><g class="label" data-id="L_L1_L3_0" transform="translate(0, -10.5)"><g><rect class="background" style="" x="-10" y="0" width="20" height="21"/><text y="-10.1" text-anchor="middle" style=""><tspan class="text-outer-tspan row" x="0" y="-0.1em" dy="1.1em" text-anchor="middle"><tspan font-style="normal" class="text-inner-tspan" font-weight="normal">否</tspan></tspan></text></g></g></g><g class="edgeLabel" transform="translate(365.7890625, 956.5)"><g class="label" data-id="L_L3_Stop_0" transform="translate(0, -10.5)"><g><rect class="background" style="" x="-10" y="0" width="20" height="21"/><text y="-10.1" text-anchor="middle" style=""><tspan class="text-outer-tspan row" x="0" y="-0.1em" dy="1.1em" text-anchor="middle"><tspan font-style="normal" class="text-inner-tspan" font-weight="normal">否</tspan></tspan></text></g></g></g><g class="edgeLabel" transform="translate(540.4140625, 825.5)"><g class="label" data-id="L_L3_L4_0" transform="translate(0, -10.5)"><g><rect class="background" style="" x="-10" y="0" width="20" height="21"/><text y="-10.1" text-anchor="middle" style=""><tspan class="text-outer-tspan row" x="0" y="-0.1em" dy="1.1em" text-anchor="middle"><tspan font-style="normal" class="text-inner-tspan" font-weight="normal">是</tspan></tspan></text></g></g></g><g class="edgeLabel" transform="translate(392.88794, 1103.35187)"><g class="label" data-id="L_L4_L5_0" transform="translate(0, -10.5)"><g><rect class="background" style="" x="-10" y="0" width="20" height="21"/><text y="-10.1" text-anchor="middle" style=""><tspan class="text-outer-tspan row" x="0" y="-0.1em" dy="1.1em" text-anchor="middle"><tspan font-style="normal" class="text-inner-tspan" font-weight="normal">是</tspan></tspan></text></g></g></g><g class="edgeLabel" transform="translate(622.50048, 1078.00645)"><g class="label" data-id="L_L4_Stop_0" transform="translate(0, -10.5)"><g><rect class="background" style="" x="-10" y="0" width="20" height="21"/><text y="-10.1" text-anchor="middle" style=""><tspan class="text-outer-tspan row" x="0" y="-0.1em" dy="1.1em" text-anchor="middle"><tspan font-style="normal" class="text-inner-tspan" font-weight="normal">否</tspan></tspan></text></g></g></g><g class="edgeLabel" transform="translate(770.2890625, 595.5)"><g class="label" data-id="L_Check_C1_0" transform="translate(0, -10.5)"><g><rect class="background" style="" x="-42" y="0" width="84" height="21"/><text y="-10.1" text-anchor="middle" style=""><tspan class="text-outer-tspan row" x="0" y="-0.1em" dy="1.1em" text-anchor="middle"><tspan font-style="normal" class="text-inner-tspan" font-weight="normal">上下文超限</tspan></tspan></text></g></g></g><g class="edgeLabel" transform="translate(629.53429, 1098.26837)"><g class="label" data-id="L_C1_C2_0" transform="translate(0, -10.5)"><g><rect class="background" style="" x="-10" y="0" width="20" height="21"/><text y="-10.1" text-anchor="middle" style=""><tspan class="text-outer-tspan row" x="0" y="-0.1em" dy="1.1em" text-anchor="middle"><tspan font-style="normal" class="text-inner-tspan" font-weight="normal">否</tspan></tspan></text></g></g></g><g class="edgeLabel" transform="translate(847.74813, 1092.40637)"><g class="label" data-id="L_C1_Stop_0" transform="translate(0, -10.5)"><g><rect class="background" style="" x="-10" y="0" width="20" height="21"/><text y="-10.1" text-anchor="middle" style=""><tspan class="text-outer-tspan row" x="0" y="-0.1em" dy="1.1em" text-anchor="middle"><tspan font-style="normal" class="text-inner-tspan" font-weight="normal">是</tspan></tspan></text></g></g></g><g class="edgeLabel" transform="translate(1001.7890625, 595.5)"><g class="label" data-id="L_Check_R1_0" transform="translate(-0.05078125, -10.5)"><g><rect class="background" style="" x="-35.3671875" y="0" width="70.8359375" height="21"/><text y="-10.1" text-anchor="middle" style=""><tspan class="text-outer-tspan row" x="0" y="-0.1em" dy="1.1em" text-anchor="middle"><tspan font-style="normal" class="text-inner-tspan" font-weight="normal">429</tspan><tspan font-style="normal" class="text-inner-tspan" font-weight="normal"> /</tspan><tspan font-style="normal" class="text-inner-tspan" font-weight="normal"> 529</tspan></tspan></text></g></g></g><g class="edgeLabel" transform="translate(983.42848, 1088.97307)"><g class="label" data-id="L_R1_R2_0" transform="translate(0, -10.5)"><g><rect class="background" style="" x="-10" y="0" width="20" height="21"/><text y="-10.1" text-anchor="middle" style=""><tspan class="text-outer-tspan row" x="0" y="-0.1em" dy="1.1em" text-anchor="middle"><tspan font-style="normal" class="text-inner-tspan" font-weight="normal">是</tspan></tspan></text></g></g></g><g class="edgeLabel" transform="translate(1052.0390625, 1087.5)"><g class="label" data-id="L_R1_Stop_0" transform="translate(0, -10.5)"><g><rect class="background" style="" x="-10" y="0" width="20" height="21"/><text y="-10.1" text-anchor="middle" style=""><tspan class="text-outer-tspan row" x="0" y="-0.1em" dy="1.1em" text-anchor="middle"><tspan font-style="normal" class="text-inner-tspan" font-weight="normal">否</tspan></tspan></text></g></g></g><g class="edgeLabel" transform="translate(1132.2890625, 710.5)"><g class="label" data-id="L_Check_Stop_0" transform="translate(0, -10.5)"><g><rect class="background" style="" x="-34" y="0" width="68" height="21"/><text y="-10.1" text-anchor="middle" style=""><tspan class="text-outer-tspan row" x="0" y="-0.1em" dy="1.1em" text-anchor="middle"><tspan font-style="normal" class="text-inner-tspan" font-weight="normal">普通错误</tspan></tspan></text></g></g></g></g><g class="nodes"><g class="node default" id="my-svg-flowchart-Start-0" data-look="classic" transform="translate(681.7890625, 24)"><g class="basic label-container outer-path"><path d="M-11.5 -16 C-3.686573904774221 -16, 4.126852190451558 -16, 11.5 -16 C11.5 -16, 11.499999999999998 -16, 11.499999999999998 -16 C11.798646907316051 -15.990422974963316, 12.097293814632105 -15.98084594992663, 12.525123519691405 -15.967126284005381 C12.832905777079253 -15.937434899797497, 13.1406880344671 -15.907743515589612, 13.546034586952095 -15.868640221171939 C13.920211643978249 -15.808146176378365, 14.294388701004404 -15.747652131584793, 14.558538059221954 -15.704946511857047 C14.779047878699668 -15.654616584522309, 14.999557698177382 -15.60428665718757, 15.558473342552116 -15.476717808624471 C15.837414063904937 -15.393929666716678, 16.11635478525776 -15.311141524808887, 16.54173148837793 -15.184891952170698 C16.919962815696124 -15.04569932738554, 17.298194143014317 -14.906506702600383, 17.504272078069985 -14.830668117536348 C17.788920876211915 -14.704662538405504, 18.07356967435385 -14.578656959274658, 18.44213982588093 -14.415501886438706 C18.74774181683959 -14.256069523502992, 19.053343807798246 -14.096637160567276, 19.351480832063 -13.941099265974232 C19.567052199256445 -13.810418636343597, 19.78262356644989 -13.679738006712961, 20.228558419368778 -13.409409678269451 C20.412470442600863 -13.28112061228592, 20.596382465832946 -13.152831546302387, 21.069768487859456 -12.822617949887306 C21.314524293788427 -12.627431707884487, 21.559280099717395 -12.432245465881667, 21.871654324924613 -12.183135333906153 C22.129258538726774 -11.949186002765032, 22.386862752528934 -11.715236671623911, 22.630920809655784 -11.493589601563642 C22.783024807298037 -11.336529736027565, 22.93512880494029 -11.179469870491486, 23.344447953205048 -10.756814244181072 C23.596789013556972 -10.460400076078605, 23.8491300739089 -10.163985907976137, 24.00930371948848 -9.975836829739738 C24.208290942396165 -9.709212079152374, 24.40727816530385 -9.442587328565011, 24.62275607355129 -9.153866561954718 C24.774506511641803 -8.920737138349429, 24.926256949732316 -8.68760771474414, 25.182284208085537 -8.294281092968403 C25.35919583734675 -7.980156580970107, 25.53610746660796 -7.666032068971812, 25.685588901968003 -7.400612643853364 C25.81472065352919 -7.132467798759694, 25.94385240509038 -6.864322953666024, 26.130601968252996 -6.476533489958305 C26.21522306840285 -6.2675177365505, 26.2998441685527 -6.058501983142696, 26.515494752796165 -5.52584087074093 C26.623872897570273 -5.199423166393689, 26.732251042344377 -4.87300546204645, 26.83868564858657 -4.552441386096524 C26.900310538936033 -4.317438970797594, 26.961935429285496 -4.082436555498665, 27.098846594909176 -3.560334943301032 C27.166532001058115 -3.2127846880418818, 27.234217407207055 -2.8652344327827315, 27.2949085346312 -2.5535983205340735 C27.344928147216315 -2.1656560828136553, 27.39494775980143 -1.7777138450932375, 27.42606580718717 -1.536368414522911 C27.449381900394016 -1.1732014424146233, 27.47269799360086 -0.8100344703063358, 27.491779459211006 -0.5128252411464826 C27.491779459211006 -0.22024848752833792, 27.491779459211006 0.0723282660898068, 27.491779459211006 0.5128252411464788 C27.468909205971137 0.8690478958935839, 27.446038952731268 1.225270550640689, 27.42606580718717 1.5363684145229002 C27.38497560835367 1.8550558824980066, 27.34388540952017 2.1737433504731127, 27.294908534631205 2.5535983205340624 C27.249019877327797 2.7892268772158966, 27.203131220024392 3.0248554338977303, 27.098846594909176 3.5603349433010285 C27.012905023950136 3.8880674006803173, 26.926963452991096 4.215799858059606, 26.83868564858657 4.552441386096513 C26.744459147235602 4.836236595211434, 26.650232645884635 5.120031804326356, 26.515494752796165 5.525840870740919 C26.373866170581223 5.875666207014184, 26.232237588366285 6.2254915432874505, 26.130601968253 6.4765334899583005 C26.004810058456314 6.737743082166816, 25.87901814865963 6.99895267437533, 25.685588901968003 7.400612643853361 C25.56173562173714 7.620526684407839, 25.437882341506274 7.840440724962317, 25.18228420808554 8.294281092968399 C25.051942338748276 8.494521205963055, 24.92160046941101 8.69476131895771, 24.622756073551297 9.15386656195471 C24.448748641141716 9.387020668980343, 24.27474120873213 9.620174776005976, 24.00930371948848 9.975836829739734 C23.819610322177187 10.19866148808166, 23.6299169248659 10.421486146423586, 23.344447953205055 10.756814244181063 C23.100466212974432 11.008745422242583, 22.856484472743812 11.260676600304102, 22.630920809655784 11.493589601563638 C22.456120794075137 11.652338350759011, 22.281320778494486 11.811087099954385, 21.871654324924627 12.183135333906142 C21.70929330853467 12.312613923869034, 21.54693229214471 12.442092513831927, 21.06976848785946 12.822617949887304 C20.774766990531297 13.028398224014435, 20.479765493203132 13.234178498141565, 20.228558419368788 13.409409678269446 C19.88732694237813 13.616266204919924, 19.546095465387477 13.823122731570404, 19.351480832063004 13.94109926597423 C19.071917624001838 14.08694721255096, 18.79235441594067 14.23279515912769, 18.442139825880933 14.415501886438705 C18.251203324472723 14.500023811682045, 18.060266823064516 14.584545736925383, 17.50427207806999 14.830668117536346 C17.265679534587015 14.918472379063376, 17.02708699110404 15.006276640590405, 16.54173148837794 15.184891952170695 C16.178782682503726 15.292613252597004, 15.815833876629512 15.400334553023312, 15.558473342552134 15.476717808624468 C15.333529803214725 15.528059703584455, 15.108586263877317 15.579401598544443, 14.558538059221961 15.704946511857045 C14.339669364252165 15.740331505107683, 14.12080066928237 15.77571649835832, 13.546034586952105 15.868640221171937 C13.318101374959898 15.890628664003032, 13.090168162967691 15.912617106834125, 12.525123519691405 15.967126284005381 C12.290726001349512 15.974642956191515, 12.056328483007619 15.982159628377646, 11.500000000000004 16 C11.500000000000002 16, 11.500000000000002 16, 11.5 16 C2.9106180564357373 16, -5.678763887128525 16, -11.499999999999996 16 C-11.725571584747742 15.992766358325595, -11.951143169495488 15.985532716651187, -12.5251235196914 15.967126284005381 C-12.765002532955736 15.943985444092492, -13.004881546220071 15.920844604179605, -13.5460345869521 15.868640221171937 C-13.890499659215216 15.812949779654968, -14.234964731478334 15.757259338138, -14.558538059221956 15.704946511857045 C-14.923273716737695 15.621697978151676, -15.288009374253434 15.538449444446309, -15.558473342552112 15.476717808624471 C-15.888711365451357 15.378704896882732, -16.2189493883506 15.280691985140992, -16.541731488377923 15.184891952170702 C-16.735598612179093 15.113547058523825, -16.92946573598026 15.042202164876947, -17.504272078069988 14.830668117536348 C-17.82877736461864 14.687019253288568, -18.1532826511673 14.543370389040788, -18.44213982588093 14.415501886438708 C-18.75820103327583 14.250612956987652, -19.074262240670734 14.085724027536598, -19.351480832063 13.941099265974234 C-19.59603717897102 13.792847771305974, -19.84059352587904 13.644596276637712, -20.228558419368767 13.409409678269457 C-20.467819247546526 13.242511681966974, -20.70708007572428 13.07561368566449, -21.069768487859456 12.822617949887308 C-21.381743208593832 12.573826412097624, -21.693717929328205 12.32503487430794, -21.871654324924613 12.183135333906154 C-22.02611408727938 12.042859064516916, -22.180573849634154 11.902582795127676, -22.630920809655777 11.493589601563649 C-22.832531302182957 11.285410215500061, -23.03414179471014 11.077230829436473, -23.344447953205048 10.756814244181069 C-23.608402250183616 10.446758507525063, -23.872356547162184 10.136702770869057, -24.009303719488475 9.97583682973974 C-24.23758000745274 9.669967400265282, -24.465856295417 9.364097970790825, -24.62275607355129 9.15386656195472 C-24.834787038015666 8.828130062251372, -25.046818002480038 8.502393562548022, -25.182284208085534 8.29428109296841 C-25.290172671569657 8.102714201160767, -25.39806113505378 7.911147309353123, -25.685588901968 7.400612643853366 C-25.854952721647958 7.048925048482716, -26.024316541327913 6.697237453112066, -26.130601968252996 6.476533489958307 C-26.281462654495435 6.103904678246539, -26.432323340737874 5.73127586653477, -26.515494752796165 5.525840870740931 C-26.63938274430285 5.152709979193655, -26.76327073580953 4.779579087646378, -26.83868564858657 4.552441386096519 C-26.93058773194088 4.2019789116516595, -27.022489815295188 3.851516437206799, -27.098846594909176 3.5603349433010343 C-27.141024363879833 3.3437610139113505, -27.183202132850486 3.127187084521667, -27.2949085346312 2.5535983205340753 C-27.32644320789032 2.309021621961925, -27.35797788114944 2.0644449233897744, -27.42606580718717 1.5363684145229202 C-27.440745619257783 1.307718492192141, -27.45542543132839 1.0790685698613618, -27.491779459211006 0.5128252411464846 C-27.491779459211006 0.28576213703276593, -27.491779459211006 0.05869903291904721, -27.491779459211006 -0.5128252411464769 C-27.469823066034845 -0.854813787746759, -27.447866672858684 -1.196802334347041, -27.42606580718717 -1.5363684145228982 C-27.399819709215937 -1.739927967509551, -27.373573611244698 -1.9434875204962037, -27.294908534631205 -2.5535983205340678 C-27.23847583207322 -2.8433683211133927, -27.18204312951524 -3.1331383216927176, -27.098846594909176 -3.5603349433010267 C-27.00553167974133 -3.916185157776093, -26.912216764573483 -4.2720353722511595, -26.838685648586573 -4.552441386096511 C-26.74120471790531 -4.846038417831393, -26.643723787224044 -5.139635449566275, -26.515494752796172 -5.525840870740911 C-26.43824570588373 -5.716647510123365, -26.360996658971285 -5.907454149505818, -26.130601968253 -6.476533489958299 C-26.027820435779226 -6.689961541312585, -25.925038903305452 -6.903389592666872, -25.685588901968003 -7.400612643853359 C-25.49319980431179 -7.742218968250611, -25.30081070665557 -8.083825292647862, -25.182284208085537 -8.294281092968404 C-25.03123808446614 -8.526328500411147, -24.88019196084674 -8.758375907853889, -24.622756073551294 -9.153866561954715 C-24.40702930981229 -9.442920772252501, -24.191302546073285 -9.731974982550287, -24.00930371948848 -9.975836829739734 C-23.79247075859055 -10.230541163755442, -23.57563779769262 -10.485245497771148, -23.344447953205055 -10.756814244181063 C-23.194949123679493 -10.91118405974838, -23.045450294153927 -11.065553875315693, -22.63092080965579 -11.493589601563633 C-22.407775086205774 -11.696244643488633, -22.184629362755754 -11.898899685413634, -21.871654324924627 -12.18313533390614 C-21.66379460880305 -12.348897926133748, -21.455934892681473 -12.514660518361358, -21.069768487859463 -12.822617949887302 C-20.901366645332136 -12.940087785236097, -20.73296480280481 -13.057557620584891, -20.228558419368788 -13.409409678269444 C-19.931805398299165 -13.589303103556174, -19.635052377229538 -13.769196528842905, -19.351480832063007 -13.941099265974229 C-19.058136526741382 -14.094136802164526, -18.76479222141976 -14.247174338354823, -18.442139825880936 -14.415501886438705 C-18.121099006879245 -14.557617133673222, -17.800058187877553 -14.699732380907738, -17.504272078069995 -14.830668117536344 C-17.229138411967675 -14.931919849969727, -16.954004745865355 -15.033171582403112, -16.54173148837794 -15.184891952170695 C-16.293329286757093 -15.258616421722, -16.044927085136244 -15.332340891273303, -15.558473342552134 -15.476717808624466 C-15.232829770331644 -15.551043828960891, -14.907186198111155 -15.625369849297314, -14.558538059221963 -15.704946511857043 C-14.198776691788794 -15.763109939752566, -13.839015324355623 -15.821273367648088, -13.546034586952107 -15.868640221171937 C-13.231633098832255 -15.898970154607749, -12.917231610712403 -15.92930008804356, -12.525123519691407 -15.967126284005381 C-12.238277315115562 -15.976324883473863, -11.951431110539719 -15.985523482942343, -11.500000000000005 -16 C-11.500000000000004 -16, -11.500000000000002 -16, -11.5 -16" stroke="none" stroke-width="0" fill="#eee" style=""/><path d="M-11.5 -16 C-3.2126812589812896 -16, 5.074637482037421 -16, 11.5 -16 M-11.5 -16 C-5.066174939989428 -16, 1.3676501200211444 -16, 11.5 -16 M11.5 -16 C11.5 -16, 11.499999999999998 -16, 11.499999999999998 -16 M11.5 -16 C11.5 -16, 11.499999999999998 -16, 11.499999999999998 -16 M11.499999999999998 -16 C11.825473227182133 -15.989562707099473, 12.150946454364268 -15.979125414198947, 12.525123519691405 -15.967126284005381 M11.499999999999998 -16 C11.746526839469833 -15.992094364093585, 11.993053678939669 -15.98418872818717, 12.525123519691405 -15.967126284005381 M12.525123519691405 -15.967126284005381 C12.917228242013325 -15.92930041301791, 13.309332964335244 -15.891474542030435, 13.546034586952095 -15.868640221171939 M12.525123519691405 -15.967126284005381 C12.774107263307116 -15.943107121705536, 13.023091006922824 -15.919087959405692, 13.546034586952095 -15.868640221171939 M13.546034586952095 -15.868640221171939 C13.88824594715122 -15.813314142343678, 14.230457307350344 -15.757988063515418, 14.558538059221954 -15.704946511857047 M13.546034586952095 -15.868640221171939 C13.864422122596713 -15.817165793541133, 14.18280965824133 -15.765691365910326, 14.558538059221954 -15.704946511857047 M14.558538059221954 -15.704946511857047 C14.801975998830372 -15.649383390722443, 15.045413938438788 -15.593820269587837, 15.558473342552116 -15.476717808624471 M14.558538059221954 -15.704946511857047 C14.939790168423784 -15.617928205834248, 15.321042277625615 -15.53090989981145, 15.558473342552116 -15.476717808624471 M15.558473342552116 -15.476717808624471 C15.948870249598988 -15.360850055848141, 16.33926715664586 -15.244982303071811, 16.54173148837793 -15.184891952170698 M15.558473342552116 -15.476717808624471 C15.820608364320343 -15.39891751013847, 16.08274338608857 -15.321117211652467, 16.54173148837793 -15.184891952170698 M16.54173148837793 -15.184891952170698 C16.91259604303455 -15.048410367822699, 17.28346059769117 -14.911928783474702, 17.504272078069985 -14.830668117536348 M16.54173148837793 -15.184891952170698 C16.881727894022532 -15.059770132001164, 17.221724299667134 -14.934648311831628, 17.504272078069985 -14.830668117536348 M17.504272078069985 -14.830668117536348 C17.768786116975463 -14.71357559904307, 18.03330015588094 -14.59648308054979, 18.44213982588093 -14.415501886438706 M17.504272078069985 -14.830668117536348 C17.780350839196103 -14.708456239571287, 18.056429600322225 -14.586244361606227, 18.44213982588093 -14.415501886438706 M18.44213982588093 -14.415501886438706 C18.64279827261622 -14.310818503304775, 18.843456719351508 -14.206135120170844, 19.351480832063 -13.941099265974232 M18.44213982588093 -14.415501886438706 C18.685090363273222 -14.288754746698395, 18.92804090066551 -14.162007606958081, 19.351480832063 -13.941099265974232 M19.351480832063 -13.941099265974232 C19.55230978042279 -13.819355577276626, 19.75313872878258 -13.697611888579022, 20.228558419368778 -13.409409678269451 M19.351480832063 -13.941099265974232 C19.614372815397893 -13.781732600751843, 19.877264798732785 -13.622365935529452, 20.228558419368778 -13.409409678269451 M20.228558419368778 -13.409409678269451 C20.41569028739121 -13.278874587945007, 20.602822155413644 -13.148339497620562, 21.069768487859456 -12.822617949887306 M20.228558419368778 -13.409409678269451 C20.40987573207626 -13.282930570024675, 20.59119304478374 -13.156451461779898, 21.069768487859456 -12.822617949887306 M21.069768487859456 -12.822617949887306 C21.31350708805314 -12.628242902389395, 21.557245688246823 -12.433867854891485, 21.871654324924613 -12.183135333906153 M21.069768487859456 -12.822617949887306 C21.26660895903327 -12.665642912271116, 21.46344943020708 -12.508667874654925, 21.871654324924613 -12.183135333906153 M21.871654324924613 -12.183135333906153 C22.162204782658176 -11.919265095736378, 22.45275524039174 -11.655394857566604, 22.630920809655784 -11.493589601563642 M21.871654324924613 -12.183135333906153 C22.060956641010343 -12.01121597910191, 22.250258957096072 -11.839296624297669, 22.630920809655784 -11.493589601563642 M22.630920809655784 -11.493589601563642 C22.810143681232816 -11.308527272188947, 22.98936655280985 -11.123464942814252, 23.344447953205048 -10.756814244181072 M22.630920809655784 -11.493589601563642 C22.849684292066375 -11.267698345158776, 23.068447774476965 -11.04180708875391, 23.344447953205048 -10.756814244181072 M23.344447953205048 -10.756814244181072 C23.594608594968246 -10.462961319822258, 23.84476923673144 -10.169108395463443, 24.00930371948848 -9.975836829739738 M23.344447953205048 -10.756814244181072 C23.5321197227135 -10.536364304890242, 23.719791492221955 -10.31591436559941, 24.00930371948848 -9.975836829739738 M24.00930371948848 -9.975836829739738 C24.233031829966908 -9.676061543748801, 24.45675994044534 -9.376286257757865, 24.62275607355129 -9.153866561954718 M24.00930371948848 -9.975836829739738 C24.229651402662817 -9.680591008373023, 24.449999085837156 -9.385345187006308, 24.62275607355129 -9.153866561954718 M24.62275607355129 -9.153866561954718 C24.787358039528684 -8.900993740396743, 24.951960005506074 -8.648120918838766, 25.182284208085537 -8.294281092968403 M24.62275607355129 -9.153866561954718 C24.80110569722941 -8.879873646405436, 24.97945532090753 -8.605880730856152, 25.182284208085537 -8.294281092968403 M25.182284208085537 -8.294281092968403 C25.371450719531882 -7.9583967967090175, 25.560617230978227 -7.622512500449633, 25.685588901968003 -7.400612643853364 M25.182284208085537 -8.294281092968403 C25.328962620251588 -8.033838719367768, 25.475641032417638 -7.773396345767135, 25.685588901968003 -7.400612643853364 M25.685588901968003 -7.400612643853364 C25.834025728084182 -7.092380398383832, 25.982462554200357 -6.784148152914301, 26.130601968252996 -6.476533489958305 M25.685588901968003 -7.400612643853364 C25.788113426337226 -7.1877182753272715, 25.89063795070645 -6.974823906801179, 26.130601968252996 -6.476533489958305 M26.130601968252996 -6.476533489958305 C26.209836287977648 -6.280823188347058, 26.2890706077023 -6.08511288673581, 26.515494752796165 -5.52584087074093 M26.130601968252996 -6.476533489958305 C26.21954390399536 -6.256845189099324, 26.308485839737724 -6.037156888240343, 26.515494752796165 -5.52584087074093 M26.515494752796165 -5.52584087074093 C26.58538811925774 -5.315333186954318, 26.65528148571931 -5.104825503167706, 26.83868564858657 -4.552441386096524 M26.515494752796165 -5.52584087074093 C26.62824427989441 -5.186257259318569, 26.74099380699266 -4.846673647896208, 26.83868564858657 -4.552441386096524 M26.83868564858657 -4.552441386096524 C26.94181385507643 -4.1591688387032635, 27.04494206156629 -3.7658962913100034, 27.098846594909176 -3.560334943301032 M26.83868564858657 -4.552441386096524 C26.92581986134629 -4.220160868637015, 27.01295407410601 -3.8878803511775053, 27.098846594909176 -3.560334943301032 M27.098846594909176 -3.560334943301032 C27.16904949106299 -3.199857908938563, 27.2392523872168 -2.839380874576094, 27.2949085346312 -2.5535983205340735 M27.098846594909176 -3.560334943301032 C27.140736866482772 -3.3452372522826543, 27.182627138056368 -3.130139561264276, 27.2949085346312 -2.5535983205340735 M27.2949085346312 -2.5535983205340735 C27.33215828357576 -2.2646966235149795, 27.369408032520326 -1.9757949264958854, 27.42606580718717 -1.536368414522911 M27.2949085346312 -2.5535983205340735 C27.3339619206603 -2.250707970455732, 27.3730153066894 -1.9478176203773905, 27.42606580718717 -1.536368414522911 M27.42606580718717 -1.536368414522911 C27.447257574131115 -1.2062895386846113, 27.468449341075058 -0.8762106628463115, 27.491779459211006 -0.5128252411464826 M27.42606580718717 -1.536368414522911 C27.447581051242487 -1.2012511215689414, 27.469096295297803 -0.8661338286149718, 27.491779459211006 -0.5128252411464826 M27.491779459211006 -0.5128252411464826 C27.491779459211006 -0.22044752223397462, 27.491779459211006 0.0719301966785334, 27.491779459211006 0.5128252411464788 M27.491779459211006 -0.5128252411464826 C27.491779459211006 -0.21496724372400844, 27.491779459211006 0.08289075369846577, 27.491779459211006 0.5128252411464788 M27.491779459211006 0.5128252411464788 C27.472550047237036 0.8123388543430448, 27.453320635263065 1.1118524675396106, 27.42606580718717 1.5363684145229002 M27.491779459211006 0.5128252411464788 C27.477266816736485 0.7388713620812853, 27.462754174261967 0.9649174830160918, 27.42606580718717 1.5363684145229002 M27.42606580718717 1.5363684145229002 C27.386792611529767 1.840963564672052, 27.347519415872366 2.145558714821204, 27.294908534631205 2.5535983205340624 M27.42606580718717 1.5363684145229002 C27.388011511098092 1.8315100203190835, 27.349957215009013 2.1266516261152666, 27.294908534631205 2.5535983205340624 M27.294908534631205 2.5535983205340624 C27.24981433699668 2.785147494725313, 27.20472013936215 3.016696668916564, 27.098846594909176 3.5603349433010285 M27.294908534631205 2.5535983205340624 C27.22818616292762 2.8962035974537077, 27.161463791224037 3.2388088743733525, 27.098846594909176 3.5603349433010285 M27.098846594909176 3.5603349433010285 C27.021322856349602 3.8559665574295083, 26.94379911779003 4.151598171557988, 26.83868564858657 4.552441386096513 M27.098846594909176 3.5603349433010285 C27.040176891473205 3.784067950112704, 26.981507188037234 4.007800956924379, 26.83868564858657 4.552441386096513 M26.83868564858657 4.552441386096513 C26.755667203249274 4.802479716259466, 26.672648757911983 5.052518046422418, 26.515494752796165 5.525840870740919 M26.83868564858657 4.552441386096513 C26.70964468921761 4.941092195831038, 26.580603729848647 5.329743005565564, 26.515494752796165 5.525840870740919 M26.515494752796165 5.525840870740919 C26.375876875076486 5.870699728036559, 26.23625899735681 6.2155585853322, 26.130601968253 6.4765334899583005 M26.515494752796165 5.525840870740919 C26.39338968423767 5.827442750821309, 26.27128461567917 6.1290446309016975, 26.130601968253 6.4765334899583005 M26.130601968253 6.4765334899583005 C25.955381046745572 6.840383482595599, 25.780160125238144 7.204233475232897, 25.685588901968003 7.400612643853361 M26.130601968253 6.4765334899583005 C25.998414832006095 6.751022906726625, 25.866227695759186 7.02551232349495, 25.685588901968003 7.400612643853361 M25.685588901968003 7.400612643853361 C25.56205121480923 7.6199663169510785, 25.438513527650453 7.8393199900487955, 25.18228420808554 8.294281092968399 M25.685588901968003 7.400612643853361 C25.55331234341132 7.635483068024753, 25.421035784854634 7.870353492196144, 25.18228420808554 8.294281092968399 M25.18228420808554 8.294281092968399 C25.016264036023706 8.549332659913738, 24.850243863961868 8.804384226859076, 24.622756073551297 9.15386656195471 M25.18228420808554 8.294281092968399 C25.06762884075182 8.47042252647003, 24.952973473418098 8.646563959971658, 24.622756073551297 9.15386656195471 M24.622756073551297 9.15386656195471 C24.422211909780113 9.42257747145893, 24.22166774600893 9.691288380963147, 24.00930371948848 9.975836829739734 M24.622756073551297 9.15386656195471 C24.485217913334644 9.338155166660863, 24.34767975311799 9.522443771367017, 24.00930371948848 9.975836829739734 M24.00930371948848 9.975836829739734 C23.753237167884382 10.276627171853459, 23.49717061628029 10.577417513967184, 23.344447953205055 10.756814244181063 M24.00930371948848 9.975836829739734 C23.843412128909755 10.170702531532418, 23.67752053833103 10.365568233325101, 23.344447953205055 10.756814244181063 M23.344447953205055 10.756814244181063 C23.087177078247183 11.022467544906721, 22.82990620328931 11.288120845632381, 22.630920809655784 11.493589601563638 M23.344447953205055 10.756814244181063 C23.094651535073076 11.014749554569667, 22.844855116941098 11.272684864958272, 22.630920809655784 11.493589601563638 M22.630920809655784 11.493589601563638 C22.440671384303553 11.666369095944582, 22.250421958951318 11.839148590325525, 21.871654324924627 12.183135333906142 M22.630920809655784 11.493589601563638 C22.383054062447297 11.718695623183637, 22.135187315238806 11.943801644803633, 21.871654324924627 12.183135333906142 M21.871654324924627 12.183135333906142 C21.671087000554166 12.34308243777093, 21.470519676183706 12.503029541635717, 21.06976848785946 12.822617949887304 M21.871654324924627 12.183135333906142 C21.704105035530063 12.316751433524464, 21.536555746135498 12.450367533142785, 21.06976848785946 12.822617949887304 M21.06976848785946 12.822617949887304 C20.807283355623596 13.005716215336804, 20.544798223387733 13.188814480786304, 20.228558419368788 13.409409678269446 M21.06976848785946 12.822617949887304 C20.888452240398106 12.949096315062496, 20.707135992936752 13.075574680237688, 20.228558419368788 13.409409678269446 M20.228558419368788 13.409409678269446 C19.918318888500075 13.597478705051913, 19.608079357631357 13.785547731834379, 19.351480832063004 13.94109926597423 M20.228558419368788 13.409409678269446 C20.018189300053603 13.53693667466448, 19.807820180738418 13.664463671059513, 19.351480832063004 13.94109926597423 M19.351480832063004 13.94109926597423 C19.086503190175534 14.079337932020643, 18.82152554828807 14.217576598067055, 18.442139825880933 14.415501886438705 M19.351480832063004 13.94109926597423 C19.12544677593889 14.059021088272457, 18.89941271981478 14.176942910570684, 18.442139825880933 14.415501886438705 M18.442139825880933 14.415501886438705 C18.2541137064868 14.498735471897827, 18.06608758709267 14.58196905735695, 17.50427207806999 14.830668117536346 M18.442139825880933 14.415501886438705 C18.20986915296772 14.518321223272677, 17.977598480054507 14.62114056010665, 17.50427207806999 14.830668117536346 M17.50427207806999 14.830668117536346 C17.210355779434654 14.938832032366632, 16.916439480799315 15.046995947196917, 16.54173148837794 15.184891952170695 M17.50427207806999 14.830668117536346 C17.227145478328847 14.932653267971293, 16.950018878587702 15.03463841840624, 16.54173148837794 15.184891952170695 M16.54173148837794 15.184891952170695 C16.267736686383845 15.266212171174478, 15.993741884389747 15.347532390178262, 15.558473342552134 15.476717808624468 M16.54173148837794 15.184891952170695 C16.18461885088096 15.290881108457313, 15.82750621338398 15.396870264743932, 15.558473342552134 15.476717808624468 M15.558473342552134 15.476717808624468 C15.227682611625484 15.552218634347224, 14.896891880698835 15.62771946006998, 14.558538059221961 15.704946511857045 M15.558473342552134 15.476717808624468 C15.218533592190818 15.554306838330255, 14.878593841829503 15.631895868036041, 14.558538059221961 15.704946511857045 M14.558538059221961 15.704946511857045 C14.350093097576487 15.738646276741065, 14.141648135931014 15.772346041625084, 13.546034586952105 15.868640221171937 M14.558538059221961 15.704946511857045 C14.353752439560738 15.738054662707672, 14.148966819899517 15.7711628135583, 13.546034586952105 15.868640221171937 M13.546034586952105 15.868640221171937 C13.167297069419087 15.905176573989841, 12.788559551886067 15.941712926807744, 12.525123519691405 15.967126284005381 M13.546034586952105 15.868640221171937 C13.192914886164466 15.902705254018347, 12.839795185376827 15.936770286864755, 12.525123519691405 15.967126284005381 M12.525123519691405 15.967126284005381 C12.295164441412648 15.974500624057589, 12.065205363133892 15.981874964109796, 11.500000000000004 16 M12.525123519691405 15.967126284005381 C12.210957618722391 15.977200972962628, 11.896791717753377 15.987275661919874, 11.500000000000004 16 M11.500000000000004 16 C11.500000000000002 16, 11.500000000000002 16, 11.5 16 M11.500000000000004 16 C11.500000000000004 16, 11.500000000000002 16, 11.5 16 M11.5 16 C4.755399298090268 16, -1.9892014038194645 16, -11.499999999999996 16 M11.5 16 C6.4456265549303 16, 1.3912531098605996 16, -11.499999999999996 16 M-11.499999999999996 16 C-11.712370120635638 15.993189703584578, -11.924740241271278 15.986379407169157, -12.5251235196914 15.967126284005381 M-11.499999999999996 16 C-11.903469172964689 15.987061528928125, -12.306938345929382 15.974123057856252, -12.5251235196914 15.967126284005381 M-12.5251235196914 15.967126284005381 C-12.744064362235187 15.946005324240069, -12.963005204778977 15.924884364474758, -13.5460345869521 15.868640221171937 M-12.5251235196914 15.967126284005381 C-12.850743689580648 15.935714097831715, -13.176363859469896 15.904301911658049, -13.5460345869521 15.868640221171937 M-13.5460345869521 15.868640221171937 C-13.950968009744004 15.803173725680535, -14.355901432535907 15.737707230189136, -14.558538059221956 15.704946511857045 M-13.5460345869521 15.868640221171937 C-13.814101068353757 15.825301311345529, -14.082167549755415 15.78196240151912, -14.558538059221956 15.704946511857045 M-14.558538059221956 15.704946511857045 C-14.909218677438744 15.624905949153959, -15.259899295655533 15.544865386450875, -15.558473342552112 15.476717808624471 M-14.558538059221956 15.704946511857045 C-14.867675801936608 15.634387839394725, -15.176813544651258 15.563829166932404, -15.558473342552112 15.476717808624471 M-15.558473342552112 15.476717808624471 C-15.854958230375496 15.388722650199426, -16.15144311819888 15.30072749177438, -16.541731488377923 15.184891952170702 M-15.558473342552112 15.476717808624471 C-15.879519445793111 15.381433010387928, -16.20056554903411 15.286148212151385, -16.541731488377923 15.184891952170702 M-16.541731488377923 15.184891952170702 C-16.91802320336504 15.046413122652961, -17.294314918352153 14.90793429313522, -17.504272078069988 14.830668117536348 M-16.541731488377923 15.184891952170702 C-16.835759895201967 15.076686780490656, -17.12978830202601 14.96848160881061, -17.504272078069988 14.830668117536348 M-17.504272078069988 14.830668117536348 C-17.76621989960825 14.714711587347404, -18.02816772114651 14.59875505715846, -18.44213982588093 14.415501886438708 M-17.504272078069988 14.830668117536348 C-17.766939299089863 14.71439313053712, -18.029606520109734 14.598118143537894, -18.44213982588093 14.415501886438708 M-18.44213982588093 14.415501886438708 C-18.6924168587921 14.28493251867904, -18.94269389170327 14.154363150919373, -19.351480832063 13.941099265974234 M-18.44213982588093 14.415501886438708 C-18.69006197734565 14.28616105882128, -18.93798412881037 14.156820231203852, -19.351480832063 13.941099265974234 M-19.351480832063 13.941099265974234 C-19.657885854539973 13.755354740712912, -19.96429087701695 13.56961021545159, -20.228558419368767 13.409409678269457 M-19.351480832063 13.941099265974234 C-19.701847037555318 13.728705213224424, -20.052213243047632 13.516311160474615, -20.228558419368767 13.409409678269457 M-20.228558419368767 13.409409678269457 C-20.44659999979659 13.257313310630897, -20.664641580224412 13.105216942992337, -21.069768487859456 12.822617949887308 M-20.228558419368767 13.409409678269457 C-20.485042036307203 13.230497810090034, -20.74152565324564 13.05158594191061, -21.069768487859456 12.822617949887308 M-21.069768487859456 12.822617949887308 C-21.24519402355961 12.682720753435996, -21.420619559259762 12.542823556984684, -21.871654324924613 12.183135333906154 M-21.069768487859456 12.822617949887308 C-21.35050824096507 12.598735467584163, -21.631247994070687 12.37485298528102, -21.871654324924613 12.183135333906154 M-21.871654324924613 12.183135333906154 C-22.082552533347446 11.991603161077354, -22.293450741770283 11.800070988248553, -22.630920809655777 11.493589601563649 M-21.871654324924613 12.183135333906154 C-22.04078836849888 12.029532270573572, -22.209922412073148 11.875929207240992, -22.630920809655777 11.493589601563649 M-22.630920809655777 11.493589601563649 C-22.853628371804056 11.26362575901465, -23.076335933952336 11.03366191646565, -23.344447953205048 10.756814244181069 M-22.630920809655777 11.493589601563649 C-22.79374728168417 11.325457900892362, -22.956573753712565 11.157326200221075, -23.344447953205048 10.756814244181069 M-23.344447953205048 10.756814244181069 C-23.500676588200715 10.573299199853995, -23.65690522319638 10.389784155526923, -24.009303719488475 9.97583682973974 M-23.344447953205048 10.756814244181069 C-23.498211546424756 10.576194778188889, -23.65197513964446 10.395575312196707, -24.009303719488475 9.97583682973974 M-24.009303719488475 9.97583682973974 C-24.14060934807625 9.79989924962097, -24.271914976664025 9.6239616695022, -24.62275607355129 9.15386656195472 M-24.009303719488475 9.97583682973974 C-24.158510897963826 9.775912803636365, -24.307718076439176 9.575988777532988, -24.62275607355129 9.15386656195472 M-24.62275607355129 9.15386656195472 C-24.78117754513629 8.910488639478581, -24.93959901672129 8.667110717002442, -25.182284208085534 8.29428109296841 M-24.62275607355129 9.15386656195472 C-24.82948427159577 8.836276535464489, -25.036212469640255 8.518686508974257, -25.182284208085534 8.29428109296841 M-25.182284208085534 8.29428109296841 C-25.36195318192892 7.975260636453043, -25.54162215577231 7.656240179937677, -25.685588901968 7.400612643853366 M-25.182284208085534 8.29428109296841 C-25.28965059806247 8.103641195538456, -25.397016988039404 7.913001298108502, -25.685588901968 7.400612643853366 M-25.685588901968 7.400612643853366 C-25.81229195972324 7.137511033413469, -25.93899501747848 6.8744094229735735, -26.130601968252996 6.476533489958307 M-25.685588901968 7.400612643853366 C-25.779032547030305 7.206574915507776, -25.872476192092613 7.012537187162186, -26.130601968252996 6.476533489958307 M-26.130601968252996 6.476533489958307 C-26.240961449393286 6.203943437886375, -26.35132093053358 5.931353385814443, -26.515494752796165 5.525840870740931 M-26.130601968252996 6.476533489958307 C-26.243664627089146 6.197266536715219, -26.356727285925295 5.917999583472132, -26.515494752796165 5.525840870740931 M-26.515494752796165 5.525840870740931 C-26.586175971342506 5.312960302002184, -26.656857189888846 5.100079733263437, -26.83868564858657 4.552441386096519 M-26.515494752796165 5.525840870740931 C-26.602581859903037 5.263548379581226, -26.689668967009908 5.001255888421522, -26.83868564858657 4.552441386096519 M-26.83868564858657 4.552441386096519 C-26.903111615958267 4.306757250117344, -26.967537583329968 4.061073114138169, -27.098846594909176 3.5603349433010343 M-26.83868564858657 4.552441386096519 C-26.93973727888677 4.167087723708236, -27.040788909186972 3.7817340613199533, -27.098846594909176 3.5603349433010343 M-27.098846594909176 3.5603349433010343 C-27.17058100516229 3.191993907724268, -27.242315415415405 2.823652872147501, -27.2949085346312 2.5535983205340753 M-27.098846594909176 3.5603349433010343 C-27.143627639265237 3.330393745009737, -27.188408683621297 3.10045254671844, -27.2949085346312 2.5535983205340753 M-27.2949085346312 2.5535983205340753 C-27.32375003991082 2.329909300984768, -27.35259154519044 2.106220281435461, -27.42606580718717 1.5363684145229202 M-27.2949085346312 2.5535983205340753 C-27.32988231239328 2.2823486065649736, -27.36485609015536 2.0110988925958715, -27.42606580718717 1.5363684145229202 M-27.42606580718717 1.5363684145229202 C-27.447653687134697 1.2001197589171653, -27.46924156708222 0.8638711033114105, -27.491779459211006 0.5128252411464846 M-27.42606580718717 1.5363684145229202 C-27.445161254007655 1.2389414167266601, -27.464256700828138 0.9415144189304, -27.491779459211006 0.5128252411464846 M-27.491779459211006 0.5128252411464846 C-27.491779459211006 0.17325193789388904, -27.491779459211006 -0.16632136535870656, -27.491779459211006 -0.5128252411464769 M-27.491779459211006 0.5128252411464846 C-27.491779459211006 0.13953505838175806, -27.491779459211006 -0.23375512438296853, -27.491779459211006 -0.5128252411464769 M-27.491779459211006 -0.5128252411464769 C-27.4726549072271 -0.8107055753563588, -27.45353035524319 -1.1085859095662407, -27.42606580718717 -1.5363684145228982 M-27.491779459211006 -0.5128252411464769 C-27.469539689027265 -0.8592276133776295, -27.447299918843523 -1.2056299856087822, -27.42606580718717 -1.5363684145228982 M-27.42606580718717 -1.5363684145228982 C-27.397371201801302 -1.758918107504953, -27.368676596415437 -1.9814678004870077, -27.294908534631205 -2.5535983205340678 M-27.42606580718717 -1.5363684145228982 C-27.388507817521646 -1.8276607657047999, -27.350949827856116 -2.1189531168867015, -27.294908534631205 -2.5535983205340678 M-27.294908534631205 -2.5535983205340678 C-27.24219295398 -2.8242816857360893, -27.189477373328792 -3.094965050938111, -27.098846594909176 -3.5603349433010267 M-27.294908534631205 -2.5535983205340678 C-27.244168435547245 -2.8141380054064595, -27.193428336463285 -3.0746776902788517, -27.098846594909176 -3.5603349433010267 M-27.098846594909176 -3.5603349433010267 C-27.045292983707494 -3.764558073094954, -26.991739372505815 -3.968781202888881, -26.838685648586573 -4.552441386096511 M-27.098846594909176 -3.5603349433010267 C-27.021560140088145 -3.8550616916950284, -26.944273685267113 -4.14978844008903, -26.838685648586573 -4.552441386096511 M-26.838685648586573 -4.552441386096511 C-26.722811729682057 -4.901435167835125, -26.60693781077754 -5.250428949573739, -26.515494752796172 -5.525840870740911 M-26.838685648586573 -4.552441386096511 C-26.74636070459339 -4.830509407421813, -26.654035760600205 -5.108577428747115, -26.515494752796172 -5.525840870740911 M-26.515494752796172 -5.525840870740911 C-26.373002184584077 -5.877800269131176, -26.230509616371982 -6.22975966752144, -26.130601968253 -6.476533489958299 M-26.515494752796172 -5.525840870740911 C-26.417056062875332 -5.76898633802798, -26.318617372954495 -6.0121318053150485, -26.130601968253 -6.476533489958299 M-26.130601968253 -6.476533489958299 C-25.97291882100051 -6.803965919106962, -25.81523567374802 -7.131398348255625, -25.685588901968003 -7.400612643853359 M-26.130601968253 -6.476533489958299 C-25.95507767418641 -6.84101344220583, -25.77955338011982 -7.205493394453361, -25.685588901968003 -7.400612643853359 M-25.685588901968003 -7.400612643853359 C-25.51395320285311 -7.705369207631014, -25.34231750373821 -8.010125771408669, -25.182284208085537 -8.294281092968404 M-25.685588901968003 -7.400612643853359 C-25.502534975775184 -7.725643426028736, -25.319481049582365 -8.050674208204113, -25.182284208085537 -8.294281092968404 M-25.182284208085537 -8.294281092968404 C-25.006366815714987 -8.564537448083707, -24.830449423344433 -8.834793803199009, -24.622756073551294 -9.153866561954715 M-25.182284208085537 -8.294281092968404 C-25.069187288105454 -8.468028332833136, -24.95609036812537 -8.641775572697869, -24.622756073551294 -9.153866561954715 M-24.622756073551294 -9.153866561954715 C-24.442558953332014 -9.395314286753184, -24.26236183311273 -9.636762011551655, -24.00930371948848 -9.975836829739734 M-24.622756073551294 -9.153866561954715 C-24.398718084463262 -9.454057057051992, -24.17468009537523 -9.75424755214927, -24.00930371948848 -9.975836829739734 M-24.00930371948848 -9.975836829739734 C-23.79235021021259 -10.23068276673959, -23.5753967009367 -10.485528703739448, -23.344447953205055 -10.756814244181063 M-24.00930371948848 -9.975836829739734 C-23.810178983669 -10.209740074951743, -23.61105424784952 -10.44364332016375, -23.344447953205055 -10.756814244181063 M-23.344447953205055 -10.756814244181063 C-23.089741946292712 -11.019819108070129, -22.83503593938037 -11.282823971959195, -22.63092080965579 -11.493589601563633 M-23.344447953205055 -10.756814244181063 C-23.091716631141118 -11.017780083839511, -22.83898530907718 -11.278745923497958, -22.63092080965579 -11.493589601563633 M-22.63092080965579 -11.493589601563633 C-22.355589447585565 -11.743638259727172, -22.080258085515336 -11.993686917890711, -21.871654324924627 -12.18313533390614 M-22.63092080965579 -11.493589601563633 C-22.448170455780822 -11.659558637643483, -22.265420101905853 -11.825527673723334, -21.871654324924627 -12.18313533390614 M-21.871654324924627 -12.18313533390614 C-21.692434215112478 -12.326058602233912, -21.513214105300328 -12.468981870561683, -21.069768487859463 -12.822617949887302 M-21.871654324924627 -12.18313533390614 C-21.574324725104155 -12.42024777749002, -21.276995125283687 -12.657360221073901, -21.069768487859463 -12.822617949887302 M-21.069768487859463 -12.822617949887302 C-20.808494455876023 -13.004871404228396, -20.547220423892586 -13.187124858569488, -20.228558419368788 -13.409409678269444 M-21.069768487859463 -12.822617949887302 C-20.805973885204114 -13.006629645215375, -20.542179282548766 -13.190641340543445, -20.228558419368788 -13.409409678269444 M-20.228558419368788 -13.409409678269444 C-19.955036399961212 -13.575220333828122, -19.681514380553633 -13.741030989386799, -19.351480832063007 -13.941099265974229 M-20.228558419368788 -13.409409678269444 C-19.953155711874285 -13.576360417998567, -19.67775300437978 -13.743311157727689, -19.351480832063007 -13.941099265974229 M-19.351480832063007 -13.941099265974229 C-19.13874898853763 -14.05208133248017, -18.92601714501225 -14.163063398986113, -18.442139825880936 -14.415501886438705 M-19.351480832063007 -13.941099265974229 C-19.059322810628203 -14.093517918620623, -18.767164789193398 -14.245936571267018, -18.442139825880936 -14.415501886438705 M-18.442139825880936 -14.415501886438705 C-18.099615111622587 -14.567127416806233, -17.75709039736424 -14.718752947173764, -17.504272078069995 -14.830668117536344 M-18.442139825880936 -14.415501886438705 C-18.16975637974494 -14.536077958075262, -17.897372933608942 -14.656654029711818, -17.504272078069995 -14.830668117536344 M-17.504272078069995 -14.830668117536344 C-17.265917678405565 -14.918384739936773, -17.027563278741134 -15.0061013623372, -16.54173148837794 -15.184891952170695 M-17.504272078069995 -14.830668117536344 C-17.141411344803924 -14.964204221626106, -16.778550611537856 -15.097740325715868, -16.54173148837794 -15.184891952170695 M-16.54173148837794 -15.184891952170695 C-16.339213018202425 -15.244998371077646, -16.13669454802691 -15.305104789984597, -15.558473342552134 -15.476717808624466 M-16.54173148837794 -15.184891952170695 C-16.307805644168596 -15.254319914830216, -16.073879799959254 -15.323747877489735, -15.558473342552134 -15.476717808624466 M-15.558473342552134 -15.476717808624466 C-15.2481321840342 -15.547551152890863, -14.937791025516267 -15.618384497157262, -14.558538059221963 -15.704946511857043 M-15.558473342552134 -15.476717808624466 C-15.211529403315929 -15.555905498734342, -14.864585464079722 -15.63509318884422, -14.558538059221963 -15.704946511857043 M-14.558538059221963 -15.704946511857043 C-14.31594067301637 -15.744167775887936, -14.073343286810774 -15.783389039918829, -13.546034586952107 -15.868640221171937 M-14.558538059221963 -15.704946511857043 C-14.351433263089328 -15.738429609174087, -14.144328466956692 -15.77191270649113, -13.546034586952107 -15.868640221171937 M-13.546034586952107 -15.868640221171937 C-13.243869227141994 -15.897789750025805, -12.941703867331881 -15.926939278879674, -12.525123519691407 -15.967126284005381 M-13.546034586952107 -15.868640221171937 C-13.317314160265571 -15.89070460565783, -13.088593733579035 -15.912768990143721, -12.525123519691407 -15.967126284005381 M-12.525123519691407 -15.967126284005381 C-12.244679468313391 -15.976119578881843, -11.964235416935377 -15.985112873758306, -11.500000000000005 -16 M-12.525123519691407 -15.967126284005381 C-12.20587598601995 -15.977363931032597, -11.886628452348493 -15.987601578059813, -11.500000000000005 -16 M-11.500000000000005 -16 C-11.500000000000004 -16, -11.500000000000002 -16, -11.5 -16 M-11.500000000000005 -16 C-11.500000000000004 -16, -11.500000000000002 -16, -11.5 -16" stroke="#999" stroke-width="1.3" fill="none" stroke-dasharray="0 0" style=""/></g><g class="label" style="" transform="translate(0, -8.5)"><rect/><g><rect class="background" style="stroke: none"/><text y="-10.1" style=""><tspan class="text-outer-tspan row" x="0" y="-0.1em" dy="1.1em"><tspan font-style="normal" class="text-inner-tspan" font-weight="normal">开始</tspan></tspan></text></g></g></g><g class="node default" id="my-svg-flowchart-Request-1" data-look="classic" transform="translate(681.7890625, 113.5)"><rect class="basic label-container" style="" x="-86.08203125" y="-23.5" width="172.1640625" height="47"/><g class="label" style="" transform="translate(0, -8.5)"><rect/><g><rect class="background" style="stroke: none"/><text y="-10.1" style=""><tspan class="text-outer-tspan row" x="0" y="-0.1em" dy="1.1em"><tspan font-style="normal" class="text-inner-tspan" font-weight="normal">请求</tspan><tspan font-style="normal" class="text-inner-tspan" font-weight="normal"> DeepSeek</tspan></tspan></text></g></g></g><g class="node default" id="my-svg-flowchart-Check-3" data-look="classic" transform="translate(681.7890625, 266.5)"><polygon points="79.5,0 159,-79.5 79.5,-159 0,-79.5" class="label-container" transform="translate(-79, 79.5)"/><g class="label" style="" transform="translate(0, -8.5)"><rect/><g><rect class="background" style="stroke: none"/><text y="-10.1" style=""><tspan class="text-outer-tspan row" x="0" y="-0.1em" dy="1.1em"><tspan font-style="normal" class="text-inner-tspan" font-weight="normal">返回什么信号？</tspan></tspan></text></g></g></g><g class="node default" id="my-svg-flowchart-Done-5" data-look="classic" transform="translate(110, 488.5)"><rect class="basic label-container" style="" x="-102" y="-32.29999923706055" width="204" height="64.5999984741211"/><g class="label" style="" transform="translate(0, -17.299999237060547)"><rect/><g><rect class="background" style="stroke: none"/><text y="-10.1" style=""><tspan class="text-outer-tspan row" x="0" y="-0.1em" dy="1.1em"><tspan font-style="normal" class="text-inner-tspan" font-weight="normal">回到</tspan><tspan font-style="normal" class="text-inner-tspan" font-weight="normal"> Agent</tspan><tspan font-style="normal" class="text-inner-tspan" font-weight="normal"> Loop</tspan></tspan><tspan class="text-outer-tspan row" x="0" y="1em" dy="1.1em"><tspan font-style="normal" class="text-inner-tspan" font-weight="normal">执行工具或输出答案</tspan></tspan></text></g></g></g><g class="node default" id="my-svg-flowchart-L1-7" data-look="classic" transform="translate(333.5, 488.5)"><polygon points="71.5,0 143,-71.5 71.5,-143 0,-71.5" class="label-container" transform="translate(-71, 71.5)"/><g class="label" style="" transform="translate(0, -8.5)"><rect/><g><rect class="background" style="stroke: none"/><text y="-10.1" style=""><tspan class="text-outer-tspan row" x="0" y="-0.1em" dy="1.1em"><tspan font-style="normal" class="text-inner-tspan" font-weight="normal">第一次截断？</tspan></tspan></text></g></g></g><g class="node default" id="my-svg-flowchart-L2-9" data-look="classic" transform="translate(221.75, 710.5)"><rect class="basic label-container" style="" x="-118.9140625" y="-32.29999923706055" width="237.828125" height="64.5999984741211"/><g class="label" style="" transform="translate(0, -17.299999237060547)"><rect/><g><rect class="background" style="stroke: none"/><text y="-10.1" style=""><tspan class="text-outer-tspan row" x="0" y="-0.1em" dy="1.1em"><tspan font-style="normal" class="text-inner-tspan" font-weight="normal">扩大输出上限</tspan></tspan><tspan class="text-outer-tspan row" x="0" y="1em" dy="1.1em"><tspan font-style="normal" class="text-inner-tspan" font-weight="normal">用原</tspan><tspan font-style="normal" class="text-inner-tspan" font-weight="normal"> messages</tspan><tspan font-style="normal" class="text-inner-tspan" font-weight="normal"> 重新请求</tspan></tspan></text></g></g></g><g class="node default" id="my-svg-flowchart-L3-11" data-look="classic" transform="translate(470.1640625, 710.5)"><polygon points="79.5,0 159,-79.5 79.5,-159 0,-79.5" class="label-container" transform="translate(-79, 79.5)"/><g class="label" style="" transform="translate(0, -8.5)"><rect/><g><rect class="background" style="stroke: none"/><text y="-10.1" style=""><tspan class="text-outer-tspan row" x="0" y="-0.1em" dy="1.1em"><tspan font-style="normal" class="text-inner-tspan" font-weight="normal">工具调用完整？</tspan></tspan></text></g></g></g><g class="node default" id="my-svg-flowchart-Stop-13" data-look="classic" transform="translate(686.4140625, 1164.099998474121)"><rect class="basic label-container" style="" x="-62" y="-23.5" width="124" height="47"/><g class="label" style="" transform="translate(0, -8.5)"><rect/><g><rect class="background" style="stroke: none"/><text y="-10.1" style=""><tspan class="text-outer-tspan row" x="0" y="-0.1em" dy="1.1em"><tspan font-style="normal" class="text-inner-tspan" font-weight="normal">明确停止</tspan></tspan></text></g></g></g><g class="node default" id="my-svg-flowchart-L4-15" data-look="classic" transform="translate(540.4140625, 956.5)"><polygon points="95.5,0 191,-95.5 95.5,-191 0,-95.5" class="label-container" transform="translate(-95, 95.5)"/><g class="label" style="" transform="translate(0, -8.5)"><rect/><g><rect class="background" style="stroke: none"/><text y="-10.1" style=""><tspan class="text-outer-tspan row" x="0" y="-0.1em" dy="1.1em"><tspan font-style="normal" class="text-inner-tspan" font-weight="normal">续写次数还没用完？</tspan></tspan></text></g></g></g><g class="node default" id="my-svg-flowchart-L5-17" data-look="classic" transform="translate(170.0390625, 1164.099998474121)"><rect class="basic label-container" style="" x="-78" y="-41.099998474121094" width="156" height="82.19999694824219"/><g class="label" style="" transform="translate(0, -26.099998474121094)"><rect/><g><rect class="background" style="stroke: none"/><text y="-10.1" style=""><tspan class="text-outer-tspan row" x="0" y="-0.1em" dy="1.1em"><tspan font-style="normal" class="text-inner-tspan" font-weight="normal">保存文本片段</tspan></tspan><tspan class="text-outer-tspan row" x="0" y="1em" dy="1.1em"><tspan font-style="normal" class="text-inner-tspan" font-weight="normal">追加续写提示</tspan></tspan><tspan class="text-outer-tspan row" x="0" y="2.1em" dy="1.1em"><tspan font-style="normal" class="text-inner-tspan" font-weight="normal">重新请求</tspan></tspan></text></g></g></g><g class="node default" id="my-svg-flowchart-C1-21" data-look="classic" transform="translate(770.2890625, 956.5)"><polygon points="71.5,0 143,-71.5 71.5,-143 0,-71.5" class="label-container" transform="translate(-71, 71.5)"/><g class="label" style="" transform="translate(0, -8.5)"><rect/><g><rect class="background" style="stroke: none"/><text y="-10.1" style=""><tspan class="text-outer-tspan row" x="0" y="-0.1em" dy="1.1em"><tspan font-style="normal" class="text-inner-tspan" font-weight="normal">已经压缩过？</tspan></tspan></text></g></g></g><g class="node default" id="my-svg-flowchart-C2-23" data-look="classic" transform="translate(388.7890625, 1164.099998474121)"><rect class="basic label-container" style="" x="-90.75" y="-32.29999923706055" width="181.5" height="64.5999984741211"/><g class="label" style="" transform="translate(0, -17.299999237060547)"><rect/><g><rect class="background" style="stroke: none"/><text y="-10.1" style=""><tspan class="text-outer-tspan row" x="0" y="-0.1em" dy="1.1em"><tspan font-style="normal" class="text-inner-tspan" font-weight="normal">reactive</tspan><tspan font-style="normal" class="text-inner-tspan" font-weight="normal"> compact</tspan></tspan><tspan class="text-outer-tspan row" x="0" y="1em" dy="1.1em"><tspan font-style="normal" class="text-inner-tspan" font-weight="normal">重新请求</tspan></tspan></text></g></g></g><g class="node default" id="my-svg-flowchart-R1-27" data-look="classic" transform="translate(1001.7890625, 956.5)"><polygon points="95.5,0 191,-95.5 95.5,-191 0,-95.5" class="label-container" transform="translate(-95, 95.5)"/><g class="label" style="" transform="translate(0, -8.5)"><rect/><g><rect class="background" style="stroke: none"/><text y="-10.1" style=""><tspan class="text-outer-tspan row" x="0" y="-0.1em" dy="1.1em"><tspan font-style="normal" class="text-inner-tspan" font-weight="normal">重试次数还没用完？</tspan></tspan></text></g></g></g><g class="node default" id="my-svg-flowchart-R2-29" data-look="classic" transform="translate(1067.0390625, 1164.099998474121)"><rect class="basic label-container" style="" x="-94" y="-41.099998474121094" width="188" height="82.19999694824219"/><g class="label" style="" transform="translate(0, -26.099998474121094)"><rect/><g><rect class="background" style="stroke: none"/><text y="-10.1" style=""><tspan class="text-outer-tspan row" x="0" y="-0.1em" dy="1.1em"><tspan font-style="normal" class="text-inner-tspan" font-weight="normal">等待</tspan><tspan font-style="normal" class="text-inner-tspan" font-weight="normal"> +</tspan><tspan font-style="normal" class="text-inner-tspan" font-weight="normal"> 抖动</tspan></tspan><tspan class="text-outer-tspan row" x="0" y="1em" dy="1.1em"><tspan font-style="normal" class="text-inner-tspan" font-weight="normal">必要时切备用模型</tspan></tspan><tspan class="text-outer-tspan row" x="0" y="2.1em" dy="1.1em"><tspan font-style="normal" class="text-inner-tspan" font-weight="normal">重新请求</tspan></tspan></text></g></g></g></g></g></g><defs><filter id="my-svg-drop-shadow" height="130%" width="130%"><feDropShadow dx="4" dy="4" stdDeviation="0" flood-opacity="0.06" flood-color="#000000"/></filter></defs><defs><filter id="my-svg-drop-shadow-small" height="150%" width="150%"><feDropShadow dx="2" dy="2" stdDeviation="0" flood-opacity="0.06" flood-color="#000000"/></filter></defs><linearGradient id="my-svg-gradient" gradientUnits="objectBoundingBox" x1="0%" y1="0%" x2="100%" y2="0%"><stop offset="0%" stop-color="hsl(0, 0%, 83.3333333333%)" stop-opacity="1"/><stop offset="100%" stop-color="hsl(0, 0%, 88.9215686275%)" stop-opacity="1"/></linearGradient></svg>