<svg width="1174.2890625" height="1213.199951171875" id="my-svg" xmlns="http://www.w3.org/2000/svg" xmlns:xlink="http://www.w3.org/1999/xlink" class="flowchart" style="max-width: 1174.29px; background-color: white;" viewBox="0 0 1174.2890625 1213.199951171875" role="graphics-document document" aria-roledescription="flowchart-v2"><style>#my-svg{font-family:"trebuchet ms",verdana,arial,sans-serif;font-size:16px;fill:#000000;}@keyframes edge-animation-frame{from{stroke-dashoffset:0;}}@keyframes dash{to{stroke-dashoffset:0;}}#my-svg .edge-animation-slow{stroke-dasharray:9,5!important;stroke-dashoffset:900;animation:dash 50s linear infinite;stroke-linecap:round;}#my-svg .edge-animation-fast{stroke-dasharray:9,5!important;stroke-dashoffset:900;animation:dash 20s linear infinite;stroke-linecap:round;}#my-svg .error-icon{fill:#552222;}#my-svg .error-text{fill:#552222;stroke:#552222;}#my-svg .edge-thickness-normal{stroke-width:1px;}#my-svg .edge-thickness-thick{stroke-width:3.5px;}#my-svg .edge-pattern-solid{stroke-dasharray:0;}#my-svg .edge-thickness-invisible{stroke-width:0;fill:none;}#my-svg .edge-pattern-dashed{stroke-dasharray:3;}#my-svg .edge-pattern-dotted{stroke-dasharray:2;}#my-svg .marker{fill:#666;stroke:#666;}#my-svg .marker.cross{stroke:#666;}#my-svg svg{font-family:"trebuchet ms",verdana,arial,sans-serif;font-size:16px;}#my-svg p{margin:0;}#my-svg .label{font-family:"trebuchet ms",verdana,arial,sans-serif;color:#000000;}#my-svg .cluster-label text{fill:#333;}#my-svg .cluster-label span{color:#333;}#my-svg .cluster-label span p{background-color:transparent;}#my-svg .label text,#my-svg span{fill:#000000;color:#000000;}#my-svg .node rect,#my-svg .node circle,#my-svg .node ellipse,#my-svg .node polygon,#my-svg .node path{fill:#eee;stroke:#999;stroke-width:1px;}#my-svg .rough-node .label text,#my-svg .node .label text,#my-svg .image-shape .label,#my-svg .icon-shape .label{text-anchor:middle;}#my-svg .node .katex path{fill:#000;stroke:#000;stroke-width:1px;}#my-svg .rough-node .label,#my-svg .node .label,#my-svg .image-shape .label,#my-svg .icon-shape .label{text-align:center;}#my-svg .node.clickable{cursor:pointer;}#my-svg .root .anchor path{fill:#666!important;stroke-width:0;stroke:#666;}#my-svg .arrowheadPath{fill:#333333;}#my-svg .edgePath .path{stroke:#666;stroke-width:1px;}#my-svg .flowchart-link{stroke:#666;fill:none;}#my-svg .edgeLabel{background-color:white;text-align:center;}#my-svg .edgeLabel p{background-color:white;}#my-svg .edgeLabel rect{opacity:0.5;background-color:white;fill:white;}#my-svg .labelBkg{background-color:rgba(255, 255, 255, 0.5);}#my-svg .cluster rect{fill:hsl(0, 0%, 98.9215686275%);stroke:#707070;stroke-width:1px;}#my-svg .cluster text{fill:#333;}#my-svg .cluster span{color:#333;}#my-svg div.mermaidTooltip{position:absolute;text-align:center;max-width:200px;padding:2px;font-family:"trebuchet ms",verdana,arial,sans-serif;font-size:12px;background:hsl(-160, 0%, 93.3333333333%);border:1px solid #707070;border-radius:2px;pointer-events:none;z-index:100;}#my-svg .flowchartTitleText{text-anchor:middle;font-size:18px;fill:#000000;}#my-svg rect.text{fill:none;stroke-width:0;}#my-svg .icon-shape,#my-svg .image-shape{background-color:white;text-align:center;}#my-svg .icon-shape p,#my-svg .image-shape p{background-color:white;padding:2px;}#my-svg .icon-shape .label rect,#my-svg .image-shape .label rect{opacity:0.5;background-color:white;fill:white;}#my-svg .label-icon{display:inline-block;height:1em;overflow:visible;vertical-align:-0.125em;}#my-svg .node .label-icon path{fill:currentColor;stroke:revert;stroke-width:revert;}#my-svg .node .neo-node{stroke:#999;}#my-svg [data-look="neo"].node rect,#my-svg [data-look="neo"].cluster rect,#my-svg [data-look="neo"].node polygon{stroke:url(#my-svg-gradient);filter:drop-shadow( 1px 2px 2px rgba(185,185,185,1));}#my-svg [data-look="neo"].swimlane.cluster rect{filter:none;}#my-svg [data-look="neo"].node path{stroke:url(#my-svg-gradient);stroke-width:1px;}#my-svg [data-look="neo"].node .outer-path{filter:drop-shadow( 1px 2px 2px rgba(185,185,185,1));}#my-svg [data-look="neo"].node .neo-line path{stroke:#999;filter:none;}#my-svg [data-look="neo"].node circle{stroke:url(#my-svg-gradient);filter:drop-shadow( 1px 2px 2px rgba(185,185,185,1));}#my-svg [data-look="neo"].node circle .state-start{fill:#000000;}#my-svg [data-look="neo"].icon-shape .icon{fill:url(#my-svg-gradient);filter:drop-shadow( 1px 2px 2px rgba(185,185,185,1));}#my-svg [data-look="neo"].icon-shape .icon-neo path{stroke:url(#my-svg-gradient);filter:drop-shadow( 1px 2px 2px rgba(185,185,185,1));}#my-svg :root{--mermaid-font-family:"trebuchet ms",verdana,arial,sans-serif;}</style><g><marker id="my-svg_flowchart-v2-pointEnd" class="marker flowchart-v2" viewBox="0 0 10 10" refX="5" refY="5" markerUnits="userSpaceOnUse" markerWidth="8" markerHeight="8" orient="auto"><path d="M 0 0 L 10 5 L 0 10 z" class="arrowMarkerPath" style="stroke-width: 1; stroke-dasharray: 1, 0;"/></marker><marker id="my-svg_flowchart-v2-pointStart" class="marker flowchart-v2" viewBox="0 0 10 10" refX="4.5" refY="5" markerUnits="userSpaceOnUse" markerWidth="8" markerHeight="8" orient="auto"><path d="M 0 5 L 10 10 L 10 0 z" class="arrowMarkerPath" style="stroke-width: 1; stroke-dasharray: 1, 0;"/></marker><marker id="my-svg_flowchart-v2-pointEnd-margin" class="marker flowchart-v2" viewBox="0 0 11.5 14" refX="11.5" refY="7" markerUnits="userSpaceOnUse" markerWidth="10.5" markerHeight="14" orient="auto"><path d="M 0 0 L 11.5 7 L 0 14 z" class="arrowMarkerPath" style="stroke-width: 0; stroke-dasharray: 1, 0;"/></marker><marker id="my-svg_flowchart-v2-pointStart-margin" class="marker flowchart-v2" viewBox="0 0 11.5 14" refX="1" refY="7" markerUnits="userSpaceOnUse" markerWidth="11.5" markerHeight="14" orient="auto"><polygon points="0,7 11.5,14 11.5,0" class="arrowMarkerPath" style="stroke-width: 0; stroke-dasharray: 1, 0;"/></marker><marker id="my-svg_flowchart-v2-circleEnd" class="marker flowchart-v2" viewBox="0 0 10 10" refX="11" refY="5" markerUnits="userSpaceOnUse" markerWidth="11" markerHeight="11" orient="auto"><circle cx="5" cy="5" r="5" class="arrowMarkerPath" style="stroke-width: 1; stroke-dasharray: 1, 0;"/></marker><marker id="my-svg_flowchart-v2-circleStart" class="marker flowchart-v2" viewBox="0 0 10 10" refX="-1" refY="5" markerUnits="userSpaceOnUse" markerWidth="11" markerHeight="11" orient="auto"><circle cx="5" cy="5" r="5" class="arrowMarkerPath" style="stroke-width: 1; stroke-dasharray: 1, 0;"/></marker><marker id="my-svg_flowchart-v2-circleEnd-margin" class="marker flowchart-v2" viewBox="0 0 10 10" refY="5" refX="12.25" markerUnits="userSpaceOnUse" markerWidth="14" markerHeight="14" orient="auto"><circle cx="5" cy="5" r="5" class="arrowMarkerPath" style="stroke-width: 0; stroke-dasharray: 1, 0;"/></marker><marker id="my-svg_flowchart-v2-circleStart-margin" class="marker flowchart-v2" viewBox="0 0 10 10" refX="-2" refY="5" markerUnits="userSpaceOnUse" markerWidth="14" markerHeight="14" orient="auto"><circle cx="5" cy="5" r="5" class="arrowMarkerPath" style="stroke-width: 0; stroke-dasharray: 1, 0;"/></marker><marker id="my-svg_flowchart-v2-crossEnd" class="marker cross flowchart-v2" viewBox="0 0 11 11" refX="12" refY="5.2" markerUnits="userSpaceOnUse" markerWidth="11" markerHeight="11" orient="auto"><path d="M 1,1 l 9,9 M 10,1 l -9,9" class="arrowMarkerPath" style="stroke-width: 2; stroke-dasharray: 1, 0;"/></marker><marker id="my-svg_flowchart-v2-crossStart" class="marker cross flowchart-v2" viewBox="0 0 11 11" refX="-1" refY="5.2" markerUnits="userSpaceOnUse" markerWidth="11" markerHeight="11" orient="auto"><path d="M 1,1 l 9,9 M 10,1 l -9,9" class="arrowMarkerPath" style="stroke-width: 2; stroke-dasharray: 1, 0;"/></marker><marker id="my-svg_flowchart-v2-crossEnd-margin" class="marker cross flowchart-v2" viewBox="0 0 15 15" refX="17.7" refY="7.5" markerUnits="userSpaceOnUse" markerWidth="12" markerHeight="12" orient="auto"><path d="M 1,1 L 14,14 M 1,14 L 14,1" class="arrowMarkerPath" style="stroke-width: 2.5;"/></marker><marker id="my-svg_flowchart-v2-crossStart-margin" class="marker cross flowchart-v2" viewBox="0 0 15 15" refX="-3.5" refY="7.5" markerUnits="userSpaceOnUse" markerWidth="12" markerHeight="12" orient="auto"><path d="M 1,1 L 14,14 M 1,14 L 14,1" class="arrowMarkerPath" style="stroke-width: 2.5; stroke-dasharray: 1, 0;"/></marker><g class="root"><g class="clusters"/><g class="edgePaths"><path d="M682.289,40.5L682.206,44.583C682.122,48.667,681.956,56.833,681.872,64.417C681.789,72,681.789,79,681.789,82.5L681.789,86" id="my-svg-L_Start_Request_0" class="edge-thickness-normal edge-pattern-solid edge-thickness-normal edge-pattern-solid flowchart-link" style=";" data-edge="true" data-et="edge" data-id="L_Start_Request_0" data-points="W3sieCI6NjgyLjI4OTA2MjUsInkiOjQwLjV9LHsieCI6NjgxLjc4OTA2MjUsInkiOjY1fSx7IngiOjY4MS43ODkwNjI1LCJ5Ijo5MH1d" data-look="classic" marker-end="url(#my-svg_flowchart-v2-pointEnd)"/><path d="M681.789,137L681.789,141.167C681.789,145.333,681.789,153.667,681.789,161.333C681.789,169,681.789,176,681.789,179.5L681.789,183" id="my-svg-L_Request_Check_0" class="edge-thickness-normal edge-pattern-solid edge-thickness-normal edge-pattern-solid flowchart-link" style=";" data-edge="true" data-et="edge" data-id="L_Request_Check_0" data-points="W3sieCI6NjgxLjc4OTA2MjUsInkiOjEzN30seyJ4Ijo2ODEuNzg5MDYyNSwieSI6MTYyfSx7IngiOjY4MS43ODkwNjI1LCJ5IjoxODd9XQ==" data-look="classic" marker-end="url(#my-svg_flowchart-v2-pointEnd)"/><path d="M615.601,279.812L531.334,296.76C447.067,313.708,278.534,347.604,194.267,376.335C110,405.067,110,428.633,110,440.417L110,452.2" id="my-svg-L_Check_Done_0" class="edge-thickness-normal edge-pattern-solid edge-thickness-normal edge-pattern-solid flowchart-link" style=";" data-edge="true" data-et="edge" data-id="L_Check_Done_0" data-points="W3sieCI6NjE1LjYwMTAxMDA4MjE1ODgsInkiOjI3OS44MTE5NDc1ODIxNTg4NH0seyJ4IjoxMTAsInkiOjM4MS41fSx7IngiOjExMCwieSI6NDU2LjIwMDAwMDc2MjkzOTQ1fV0=" data-look="classic" marker-end="url(#my-svg_flowchart-v2-pointEnd)"/><path d="M622.023,286.234L573.936,302.112C525.849,317.989,429.674,349.745,381.587,370.872C333.5,392,333.5,402.5,333.5,407.75L333.5,413" id="my-svg-L_Check_L1_0" class="edge-thickness-normal edge-pattern-solid edge-thickness-normal edge-pattern-solid flowchart-link" style=";" data-edge="true" data-et="edge" data-id="L_Check_L1_0" data-points="W3sieCI6NjIyLjAyMjk2MjQzNDIzMzgsInkiOjI4Ni4yMzM4OTk5MzQyMzM4fSx7IngiOjMzMy41LCJ5IjozODEuNX0seyJ4IjozMzMuNSwieSI6NDE3fV0=" data-look="classic" marker-end="url(#my-svg_flowchart-v2-pointEnd)"/><path d="M296.974,523.474L284.436,535.478C271.899,547.482,246.825,571.491,234.287,596.612C221.75,621.733,221.75,647.967,221.75,661.083L221.75,674.2" id="my-svg-L_L1_L2_0" class="edge-thickness-normal edge-pattern-solid edge-thickness-normal edge-pattern-solid flowchart-link" style=";" data-edge="true" data-et="edge" data-id="L_L1_L2_0" data-points="W3sieCI6Mjk2Ljk3MzcxNDI4NTcxNDI3LCJ5Ijo1MjMuNDczNzE0Mjg1NzE0M30seyJ4IjoyMjEuNzUsInkiOjU5NS41fSx7IngiOjIyMS43NSwieSI6Njc4LjIwMDAwMDc2MjkzOTV9XQ==" data-look="classic" marker-end="url(#my-svg_flowchart-v2-pointEnd)"/><path d="M373.602,519.898L389.696,532.498C405.79,545.098,437.977,570.299,454.07,588.15C470.164,606,470.164,616.5,470.164,621.75L470.164,627" id="my-svg-L_L1_L3_0" class="edge-thickness-normal edge-pattern-solid edge-thickness-normal edge-pattern-solid flowchart-link" style=";" data-edge="true" data-et="edge" data-id="L_L1_L3_0" data-points="W3sieCI6MzczLjYwMjI2MzYxODU4MzUsInkiOjUxOS44OTc3MzYzODE0MTY1fSx7IngiOjQ3MC4xNjQwNjI1LCJ5Ijo1OTUuNX0seyJ4Ijo0NzAuMTY0MDYyNSwieSI6NjMxfV0=" data-look="classic" marker-end="url(#my-svg_flowchart-v2-pointEnd)"/><path d="M432.339,752.175L421.248,764.396C410.156,776.617,387.972,801.058,376.881,835.113C365.789,869.167,365.789,912.833,365.789,956.5C365.789,1000.167,365.789,1043.833,408.245,1075.81C450.701,1107.786,535.612,1128.072,578.068,1138.215L620.524,1148.358" id="my-svg-L_L3_Stop_0" class="edge-thickness-normal edge-pattern-solid edge-thickness-normal edge-pattern-solid flowchart-link" style=";" data-edge="true" data-et="edge" data-id="L_L3_Stop_0" data-points="W3sieCI6NDMyLjMzOTI3NjE3NTIxMzcsInkiOjc1Mi4xNzUyMTM2NzUyMTM2fSx7IngiOjM2NS43ODkwNjI1LCJ5Ijo4MjUuNX0seyJ4IjozNjUuNzg5MDYyNSwieSI6OTU2LjV9LHsieCI6MzY1Ljc4OTA2MjUsInkiOjEwODcuNX0seyJ4Ijo2MjQuNDE0MDYyNSwieSI6MTE0OS4yODc2NzkwODEwNzQ3fV0=" data-look="classic" marker-end="url(#my-svg_flowchart-v2-pointEnd)"/><path d="M500.312,759.852L506.996,770.794C513.679,781.735,527.047,803.617,533.73,819.809C540.414,836,540.414,846.5,540.414,851.75L540.414,857" id="my-svg-L_L3_L4_0" class="edge-thickness-normal edge-pattern-solid edge-thickness-normal edge-pattern-solid flowchart-link" style=";" data-edge="true" data-et="edge" data-id="L_L3_L4_0" data-points="W3sieCI6NTAwLjMxMTgzNTc3OTM1MjI0LCJ5Ijo3NTkuODUyMjI2NzIwNjQ3OH0seyJ4Ijo1NDAuNDE0MDYyNSwieSI6ODI1LjV9LHsieCI6NTQwLjQxNDA2MjUsInkiOjg2MX1d" data-look="classic" marker-end="url(#my-svg_flowchart-v2-pointEnd)"/><path d="M501.683,1013.269L493.243,1025.641C484.802,1038.013,467.92,1062.756,426.29,1084.176C384.659,1105.595,318.279,1123.69,285.088,1132.738L251.898,1141.785" id="my-svg-L_L4_L5_0" class="edge-thickness-normal edge-pattern-solid edge-thickness-normal edge-pattern-solid flowchart-link" style=";" data-edge="true" data-et="edge" data-id="L_L4_L5_0" data-points="W3sieCI6NTAxLjY4MzIwNjAwNTM4ODU3LCJ5IjoxMDEzLjI2OTE0MzUwNTM4ODZ9LHsieCI6NDUxLjAzOTA2MjUsInkiOjEwODcuNX0seyJ4IjoyNDguMDM5MDYyNSwieSI6MTE0Mi44MzczNjU0NDU3MTczfV0=" data-look="classic" marker-end="url(#my-svg_flowchart-v2-pointEnd)"/><path d="M578.919,1013.495L587.251,1025.83C595.584,1038.164,612.249,1062.832,626.825,1083.483C641.4,1104.134,653.886,1120.767,660.129,1129.084L666.372,1137.401" id="my-svg-L_L4_Stop_0" class="edge-thickness-normal edge-pattern-solid edge-thickness-normal edge-pattern-solid flowchart-link" style=";" data-edge="true" data-et="edge" data-id="L_L4_Stop_0" data-points="W3sieCI6NTc4LjkxODYxODMwODY1NiwieSI6MTAxMy40OTU0NDQxOTEzNDR9LHsieCI6NjI4LjkxNDA2MjUsInkiOjEwODcuNX0seyJ4Ijo2NjguNzczNzIyNzIzMDE1MywieSI6MTE0MC41OTk5OTg0NzQxMjF9XQ==" data-look="classic" marker-end="url(#my-svg_flowchart-v2-pointEnd)"/><path d="M716.363,311.426L725.35,323.105C734.338,334.784,752.314,358.142,761.301,387.654C770.289,417.167,770.289,452.833,770.289,488.5C770.289,524.167,770.289,559.833,770.289,596.833C770.289,633.833,770.289,672.167,770.289,710.5C770.289,748.833,770.289,787.167,770.289,815.583C770.289,844,770.289,862.5,770.289,871.75L770.289,881" id="my-svg-L_Check_C1_0" class="edge-thickness-normal edge-pattern-solid edge-thickness-normal edge-pattern-solid flowchart-link" style=";" data-edge="true" data-et="edge" data-id="L_Check_C1_0" data-points="W3sieCI6NzE2LjM2Mjc3MjU3MzcxMDEsInkiOjMxMS40MjYyODk5MjYyODk5NH0seyJ4Ijo3NzAuMjg5MDYyNSwieSI6MzgxLjV9LHsieCI6NzcwLjI4OTA2MjUsInkiOjQ4OC41fSx7IngiOjc3MC4yODkwNjI1LCJ5Ijo1OTUuNX0seyJ4Ijo3NzAuMjg5MDYyNSwieSI6NzEwLjV9LHsieCI6NzcwLjI4OTA2MjUsInkiOjgyNS41fSx7IngiOjc3MC4yODkwNjI1LCJ5Ijo4ODV9XQ==" data-look="classic" marker-end="url(#my-svg_flowchart-v2-pointEnd)"/><path d="M739.097,996.808L727.4,1011.923C715.703,1027.038,692.308,1057.269,649.692,1080.84C607.075,1104.41,545.236,1121.32,514.317,1129.775L483.397,1138.229" id="my-svg-L_C1_C2_0" class="edge-thickness-normal edge-pattern-solid edge-thickness-normal edge-pattern-solid flowchart-link" style=";" data-edge="true" data-et="edge" data-id="L_C1_C2_0" data-points="W3sieCI6NzM5LjA5Njc1NDgwNzY5MjMsInkiOjk5Ni44MDc2OTIzMDc2OTIzfSx7IngiOjY2OC45MTQwNjI1LCJ5IjoxMDg3LjV9LHsieCI6NDc5LjUzOTA2MjUsInkiOjExMzkuMjg0NDcwMTg2NjU0N31d" data-look="classic" marker-end="url(#my-svg_flowchart-v2-pointEnd)"/><path d="M799.117,999.172L809.062,1013.893C819.008,1028.615,838.898,1058.057,829.538,1081.358C820.177,1104.659,781.564,1121.817,762.258,1130.396L742.952,1138.976" id="my-svg-L_C1_Stop_0" class="edge-thickness-normal edge-pattern-solid edge-thickness-normal edge-pattern-solid flowchart-link" style=";" data-edge="true" data-et="edge" data-id="L_C1_Stop_0" data-points="W3sieCI6Nzk5LjExNzA4MDcyMzIzNDYsInkiOjk5OS4xNzE5ODE3NzY3NjU0fSx7IngiOjg1OC43ODkwNjI1LCJ5IjoxMDg3LjV9LHsieCI6NzM5LjI5NjczMzI2NjIyMTMsInkiOjExNDAuNTk5OTk4NDc0MTIxfV0=" data-look="classic" marker-end="url(#my-svg_flowchart-v2-pointEnd)"/><path d="M740.272,287.517L783.858,303.181C827.444,318.845,914.617,350.172,958.203,383.67C1001.789,417.167,1001.789,452.833,1001.789,488.5C1001.789,524.167,1001.789,559.833,1001.789,596.833C1001.789,633.833,1001.789,672.167,1001.789,710.5C1001.789,748.833,1001.789,787.167,1001.789,811.583C1001.789,836,1001.789,846.5,1001.789,851.75L1001.789,857" id="my-svg-L_Check_R1_0" class="edge-thickness-normal edge-pattern-solid edge-thickness-normal edge-pattern-solid flowchart-link" style=";" data-edge="true" data-et="edge" data-id="L_Check_R1_0" data-points="W3sieCI6NzQwLjI3MTgyMTEyMDY4OTcsInkiOjI4Ny41MTcyNDEzNzkzMTAzNX0seyJ4IjoxMDAxLjc4OTA2MjUsInkiOjM4MS41fSx7IngiOjEwMDEuNzg5MDYyNSwieSI6NDg4LjV9LHsieCI6MTAwMS43ODkwNjI1LCJ5Ijo1OTUuNX0seyJ4IjoxMDAxLjc4OTA2MjUsInkiOjcxMC41fSx7IngiOjEwMDEuNzg5MDYyNSwieSI6ODI1LjV9LHsieCI6MTAwMS43ODkwNjI1LCJ5Ijo4NjF9XQ==" data-look="classic" marker-end="url(#my-svg_flowchart-v2-pointEnd)"/><path d="M989.14,1039.351L987.915,1047.376C986.69,1055.401,984.239,1071.45,989.103,1084.946C993.967,1098.442,1006.145,1109.384,1012.234,1114.855L1018.323,1120.327" id="my-svg-L_R1_R2_0" class="edge-thickness-normal edge-pattern-solid edge-thickness-normal edge-pattern-solid flowchart-link" style=";" data-edge="true" data-et="edge" data-id="L_R1_R2_0" data-points="W3sieCI6OTg5LjE0MDA1NTg3NzQ4MzQsInkiOjEwMzkuMzUwOTkzMzc3NDgzNX0seyJ4Ijo5ODEuNzg5MDYyNSwieSI6MTA4Ny41fSx7IngiOjEwMjEuMjk3ODc1Mjk3NDYzLCJ5IjoxMTIzfV0=" data-look="classic" marker-end="url(#my-svg_flowchart-v2-pointEnd)"/><path d="M1028.266,1025.523L1032.228,1035.853C1036.19,1046.182,1044.115,1066.841,998.125,1087.636C952.136,1108.43,852.232,1129.36,802.281,1139.825L752.329,1150.291" id="my-svg-L_R1_Stop_0" class="edge-thickness-normal edge-pattern-solid edge-thickness-normal edge-pattern-solid flowchart-link" style=";" data-edge="true" data-et="edge" data-id="L_R1_Stop_0" data-points="W3sieCI6MTAyOC4yNjU2MTQyMjQxMzc4LCJ5IjoxMDI1LjUyMzQ0ODI3NTg2MjJ9LHsieCI6MTA1Mi4wMzkwNjI1LCJ5IjoxMDg3LjV9LHsieCI6NzQ4LjQxNDA2MjUsInkiOjExNTEuMTEwNzMzNzc1NjAzNH1d" data-look="classic" marker-end="url(#my-svg_flowchart-v2-pointEnd)"/><path d="M745.122,282.667L809.65,299.139C874.178,315.611,1003.233,348.556,1067.761,382.861C1132.289,417.167,1132.289,452.833,1132.289,488.5C1132.289,524.167,1132.289,559.833,1132.289,596.833C1132.289,633.833,1132.289,672.167,1132.289,710.5C1132.289,748.833,1132.289,787.167,1132.289,828.167C1132.289,869.167,1132.289,912.833,1132.289,956.5C1132.289,1000.167,1132.289,1043.833,1068.967,1076.545C1005.645,1109.257,879.001,1131.014,815.678,1141.893L752.356,1152.771" id="my-svg-L_Check_Stop_0" class="edge-thickness-normal edge-pattern-solid edge-thickness-normal edge-pattern-solid flowchart-link" style=";" data-edge="true" data-et="edge" data-id="L_Check_Stop_0" data-points="W3sieCI6NzQ1LjEyMTk1Mzc0NjY4NDMsInkiOjI4Mi42NjcxMDg3NTMzMTU2M30seyJ4IjoxMTMyLjI4OTA2MjUsInkiOjM4MS41fSx7IngiOjExMzIuMjg5MDYyNSwieSI6NDg4LjV9LHsieCI6MTEzMi4yODkwNjI1LCJ5Ijo1OTUuNX0seyJ4IjoxMTMyLjI4OTA2MjUsInkiOjcxMC41fSx7IngiOjExMzIuMjg5MDYyNSwieSI6ODI1LjV9LHsieCI6MTEzMi4yODkwNjI1LCJ5Ijo5NTYuNX0seyJ4IjoxMTMyLjI4OTA2MjUsInkiOjEwODcuNX0seyJ4Ijo3NDguNDE0MDYyNSwieSI6MTE1My40NDg1ODI5MzA3NjE0fV0=" data-look="classic" marker-end="url(#my-svg_flowchart-v2-pointEnd)"/></g><g class="edgeLabels"><g class="edgeLabel"><g class="label" data-id="L_Start_Request_0" transform="translate(0, 0)"><text y="-10.1" text-anchor="middle"><tspan class="text-outer-tspan row" x="0" y="-0.1em" dy="1.1em" text-anchor="middle"/></text></g></g><g><rect class="background" style="stroke: none"/></g><g class="edgeLabel"><g class="label" data-id="L_Request_Check_0" transform="translate(0, 0)"><text y="-10.1" text-anchor="middle"><tspan class="text-outer-tspan row" x="0" y="-0.1em" dy="1.1em" text-anchor="middle"/></text></g></g><g><rect class="background" style="stroke: none"/></g><g class="edgeLabel" transform="translate(110, 381.5)"><g class="label" data-id="L_Check_Done_0" transform="translate(-0.046875, -10.5)"><g><rect class="background" style="" x="-52.6875" y="0" width="105.46875" height="21"/><text y="-10.1" text-anchor="middle" style=""><tspan class="text-outer-tspan row" x="0" y="-0.1em" dy="1.1em" text-anchor="middle"><tspan font-style="normal" class="text-inner-tspan" font-weight="normal">完整</tspan><tspan font-style="normal" class="text-inner-tspan" font-weight="normal"> message</tspan></tspan></text></g></g></g><g class="edgeLabel" transform="translate(333.5, 381.5)"><g class="label" data-id="L_Check_L1_0" transform="translate(0, -10.5)"><g><rect class="background" style="" x="-34" y="0" width="68" height="21"/><text y="-10.1" text-anchor="middle" style=""><tspan class="text-outer-tspan row" x="0" y="-0.1em" dy="1.1em" text-anchor="middle"><tspan font-style="normal" class="text-inner-tspan" font-weight="normal">输出截断</tspan></tspan></text></g></g></g><g class="edgeLabel" transform="translate(221.75, 595.5)"><g class="label" data-id="L_L1_L2_0" transform="translate(0, -10.5)"><g><rect class="background" style="" x="-10" y="0" width="20" height="21"/><text y="-10.1" text-anchor="middle" style=""><tspan class="text-outer-tspan row" x="0" y="-0.1em" dy="1.1em" text-anchor="middle"><tspan font-style="normal" class="text-inner-tspan" font-weight="normal">是</tspan></tspan></text></g></g></g><g class="edgeLabel" transform="translate(470.1640625, 595.5)"><g class="label" data-id="L_L1_L3_0" transform="translate(0, -10.5)"><g><rect class="background" style="" x="-10" y="0" width="20" height="21"/><text y="-10.1" text-anchor="middle" style=""><tspan class="text-outer-tspan row" x="0" y="-0.1em" dy="1.1em" text-anchor="middle"><tspan font-style="normal" class="text-inner-tspan" font-weight="normal">否</tspan></tspan></text></g></g></g><g class="edgeLabel" transform="translate(365.7890625, 956.5)"><g class="label" data-id="L_L3_Stop_0" transform="translate(0, -10.5)"><g><rect class="background" style="" x="-10" y="0" width="20" height="21"/><text y="-10.1" text-anchor="middle" style=""><tspan class="text-outer-tspan row" x="0" y="-0.1em" dy="1.1em" text-anchor="middle"><tspan font-style="normal" class="text-inner-tspan" font-weight="normal">否</tspan></tspan></text></g></g></g><g class="edgeLabel" transform="translate(540.4140625, 825.5)"><g class="label" data-id="L_L3_L4_0" transform="translate(0, -10.5)"><g><rect class="background" style="" x="-10" y="0" width="20" height="21"/><text y="-10.1" text-anchor="middle" style=""><tspan class="text-outer-tspan row" x="0" y="-0.1em" dy="1.1em" text-anchor="middle"><tspan font-style="normal" class="text-inner-tspan" font-weight="normal">是</tspan></tspan></text></g></g></g><g class="edgeLabel" transform="translate(392.88794, 1103.35187)"><g class="label" data-id="L_L4_L5_0" transform="translate(0, -10.5)"><g><rect class="background" style="" x="-10" y="0" width="20" height="21"/><text y="-10.1" text-anchor="middle" style=""><tspan class="text-outer-tspan row" x="0" y="-0.1em" dy="1.1em" text-anchor="middle"><tspan font-style="normal" class="text-inner-tspan" font-weight="normal">是</tspan></tspan></text></g></g></g><g class="edgeLabel" transform="translate(622.50048, 1078.00645)"><g class="label" data-id="L_L4_Stop_0" transform="translate(0, -10.5)"><g><rect class="background" style="" x="-10" y="0" width="20" height="21"/><text y="-10.1" text-anchor="middle" style=""><tspan class="text-outer-tspan row" x="0" y="-0.1em" dy="1.1em" text-anchor="middle"><tspan font-style="normal" class="text-inner-tspan" font-weight="normal">否</tspan></tspan></text></g></g></g><g class="edgeLabel" transform="translate(770.2890625, 595.5)"><g class="label" data-id="L_Check_C1_0" transform="translate(0, -10.5)"><g><rect class="background" style="" x="-42" y="0" width="84" height="21"/><text y="-10.1" text-anchor="middle" style=""><tspan class="text-outer-tspan row" x="0" y="-0.1em" dy="1.1em" text-anchor="middle"><tspan font-style="normal" class="text-inner-tspan" font-weight="normal">上下文超限</tspan></tspan></text></g></g></g><g class="edgeLabel" transform="translate(629.53429, 1098.26837)"><g class="label" data-id="L_C1_C2_0" transform="translate(0, -10.5)"><g><rect class="background" style="" x="-10" y="0" width="20" height="21"/><text y="-10.1" text-anchor="middle" style=""><tspan class="text-outer-tspan row" x="0" y="-0.1em" dy="1.1em" text-anchor="middle"><tspan font-style="normal" class="text-inner-tspan" font-weight="normal">否</tspan></tspan></text></g></g></g><g class="edgeLabel" transform="translate(847.74813, 1092.40637)"><g class="label" data-id="L_C1_Stop_0" transform="translate(0, -10.5)"><g><rect class="background" style="" x="-10" y="0" width="20" height="21"/><text y="-10.1" text-anchor="middle" style=""><tspan class="text-outer-tspan row" x="0" y="-0.1em" dy="1.1em" text-anchor="middle"><tspan font-style="normal" class="text-inner-tspan" font-weight="normal">是</tspan></tspan></text></g></g></g><g class="edgeLabel" transform="translate(1001.7890625, 595.5)"><g class="label" data-id="L_Check_R1_0" transform="translate(-0.05078125, -10.5)"><g><rect class="background" style="" x="-35.3671875" y="0" width="70.8359375" height="21"/><text y="-10.1" text-anchor="middle" style=""><tspan class="text-outer-tspan row" x="0" y="-0.1em" dy="1.1em" text-anchor="middle"><tspan font-style="normal" class="text-inner-tspan" font-weight="normal">429</tspan><tspan font-style="normal" class="text-inner-tspan" font-weight="normal"> /</tspan><tspan font-style="normal" class="text-inner-tspan" font-weight="normal"> 529</tspan></tspan></text></g></g></g><g class="edgeLabel" transform="translate(983.42848, 1088.97307)"><g class="label" data-id="L_R1_R2_0" transform="translate(0, -10.5)"><g><rect class="background" style="" x="-10" y="0" width="20" height="21"/><text y="-10.1" text-anchor="middle" style=""><tspan class="text-outer-tspan row" x="0" y="-0.1em" dy="1.1em" text-anchor="middle"><tspan font-style="normal" class="text-inner-tspan" font-weight="normal">是</tspan></tspan></text></g></g></g><g class="edgeLabel" transform="translate(1052.0390625, 1087.5)"><g class="label" data-id="L_R1_Stop_0" transform="translate(0, -10.5)"><g><rect class="background" style="" x="-10" y="0" width="20" height="21"/><text y="-10.1" text-anchor="middle" style=""><tspan class="text-outer-tspan row" x="0" y="-0.1em" dy="1.1em" text-anchor="middle"><tspan font-style="normal" class="text-inner-tspan" font-weight="normal">否</tspan></tspan></text></g></g></g><g class="edgeLabel" transform="translate(1132.2890625, 710.5)"><g class="label" data-id="L_Check_Stop_0" transform="translate(0, -10.5)"><g><rect class="background" style="" x="-34" y="0" width="68" height="21"/><text y="-10.1" text-anchor="middle" style=""><tspan class="text-outer-tspan row" x="0" y="-0.1em" dy="1.1em" text-anchor="middle"><tspan font-style="normal" class="text-inner-tspan" font-weight="normal">普通错误</tspan></tspan></text></g></g></g></g><g class="nodes"><g class="node default" id="my-svg-flowchart-Start-0" data-look="classic" transform="translate(681.7890625, 24)"><g class="basic label-container outer-path"><path d="M-11.5 -16 C-4.68915282507028 -16, 2.1216943498594407 -16, 11.5 -16 C11.5 -16, 11.499999999999998 -16, 11.499999999999998 -16 C11.849275370432071 -15.98879941869351, 12.198550740864144 -15.977598837387019, 12.525123519691405 -15.967126284005381 C12.89832983058623 -15.931123520039614, 13.271536141481054 -15.89512075607385, 13.546034586952095 -15.868640221171939 C13.819878282409224 -15.824367296180005, 14.093721977866355 -15.780094371188072, 14.558538059221954 -15.704946511857047 C14.765356034086606 -15.657741658707604, 14.97217400895126 -15.61053680555816, 15.558473342552116 -15.476717808624471 C15.792487713894241 -15.40726357157663, 16.026502085236366 -15.337809334528789, 16.54173148837793 -15.184891952170698 C16.896242239404295 -15.054428718731536, 17.250752990430662 -14.923965485292376, 17.504272078069985 -14.830668117536348 C17.873010591791104 -14.667438515751382, 18.241749105512223 -14.504208913966416, 18.44213982588093 -14.415501886438706 C18.80433193045179 -14.226546497479204, 19.16652403502265 -14.0375911085197, 19.351480832063 -13.941099265974232 C19.614476919165018 -13.78166949243643, 19.87747300626703 -13.622239718898628, 20.228558419368778 -13.409409678269451 C20.47518534008205 -13.237373414687198, 20.721812260795325 -13.065337151104945, 21.069768487859456 -12.822617949887306 C21.374245016206917 -12.579806020990906, 21.678721544554378 -12.336994092094509, 21.871654324924613 -12.183135333906153 C22.175171943722106 -11.9074886631504, 22.478689562519595 -11.631841992394646, 22.630920809655784 -11.493589601563642 C22.903532847703815 -11.21209529041448, 23.176144885751846 -10.93060097926532, 23.344447953205048 -10.756814244181072 C23.589443448999525 -10.469028594182248, 23.834438944794 -10.181242944183424, 24.00930371948848 -9.975836829739738 C24.158694574837146 -9.775666693359424, 24.308085430185812 -9.575496556979111, 24.62275607355129 -9.153866561954718 C24.750520722230586 -8.95758575197135, 24.878285370909882 -8.761304941987982, 25.182284208085537 -8.294281092968403 C25.3809745892637 -7.9414862016037855, 25.57966497044187 -7.588691310239168, 25.685588901968003 -7.400612643853364 C25.8445066038578 -7.070616635585097, 26.003424305747593 -6.740620627316829, 26.130601968252996 -6.476533489958305 C26.219508099090078 -6.256933627907614, 26.308414229927156 -6.037333765856924, 26.515494752796165 -5.52584087074093 C26.635381294853012 -5.164761707392175, 26.755267836909855 -4.803682544043421, 26.83868564858657 -4.552441386096524 C26.93934957086094 -4.168566222444447, 27.040013493135316 -3.78469105879237, 27.098846594909176 -3.560334943301032 C27.174419719156102 -3.172282922678537, 27.249992843403028 -2.7842309020560423, 27.2949085346312 -2.5535983205340735 C27.34437318332109 -2.1699602731950005, 27.39383783201098 -1.7863222258559275, 27.42606580718717 -1.536368414522911 C27.451768310292056 -1.1360311819772553, 27.477470813396938 -0.7356939494315994, 27.491779459211006 -0.5128252411464826 C27.491779459211006 -0.2109841840982209, 27.491779459211006 0.09085687295004086, 27.491779459211006 0.5128252411464788 C27.469449402378903 0.8606339008039221, 27.447119345546803 1.2084425604613656, 27.42606580718717 1.5363684145229002 C27.38718030673944 1.8379566771849105, 27.34829480629171 2.139544939846921, 27.294908534631205 2.5535983205340624 C27.217866114528597 2.949194864839689, 27.14082369442599 3.3447914091453157, 27.098846594909176 3.5603349433010285 C27.013443899391476 3.8860124350723955, 26.928041203873775 4.211689926843762, 26.83868564858657 4.552441386096513 C26.754390505251493 4.80632492721458, 26.67009536191642 5.060208468332648, 26.515494752796165 5.525840870740919 C26.362920545538344 5.902702112489366, 26.21034633828052 6.279563354237814, 26.130601968253 6.4765334899583005 C26.032379141302645 6.680495291752535, 25.93415631435229 6.88445709354677, 25.685588901968003 7.400612643853361 C25.532657787461762 7.672157323613774, 25.37972667295552 7.943702003374188, 25.18228420808554 8.294281092968399 C24.984627501883036 8.597934871952718, 24.786970795680528 8.90158865093704, 24.622756073551297 9.15386656195471 C24.47408996331275 9.3530656059131, 24.3254238530742 9.552264649871491, 24.00930371948848 9.975836829739734 C23.746321233278586 10.284751022169257, 23.483338747068693 10.593665214598778, 23.344447953205055 10.756814244181063 C23.088636875876222 11.020960184003124, 22.83282579854739 11.285106123825186, 22.630920809655784 11.493589601563638 C22.334797118190554 11.762521303148832, 22.038673426725325 12.031453004734024, 21.871654324924627 12.183135333906142 C21.706262225632212 12.31503113182324, 21.540870126339797 12.446926929740336, 21.06976848785946 12.822617949887304 C20.86185335825453 12.967650543798806, 20.653938228649597 13.112683137710308, 20.228558419368788 13.409409678269446 C20.009710576208352 13.542076526885982, 19.790862733047916 13.67474337550252, 19.351480832063004 13.94109926597423 C18.989734438793164 14.129822127633483, 18.62798804552332 14.318544989292736, 18.442139825880933 14.415501886438705 C18.134462892398712 14.551701337979331, 17.826785958916496 14.687900789519958, 17.50427207806999 14.830668117536346 C17.276651270516638 14.91443467881966, 17.049030462963287 14.998201240102972, 16.54173148837794 15.184891952170695 C16.313264581738903 15.252699730813896, 16.084797675099864 15.320507509457098, 15.558473342552134 15.476717808624468 C15.275636847203657 15.541273393007138, 14.99280035185518 15.605828977389807, 14.558538059221961 15.704946511857045 C14.170719436357881 15.76764601922337, 13.782900813493802 15.830345526589696, 13.546034586952105 15.868640221171937 C13.164461373758307 15.905450130139814, 12.782888160564509 15.942260039107689, 12.525123519691405 15.967126284005381 C12.175311080001576 15.978344088077627, 11.825498640311748 15.98956189214987, 11.500000000000004 16 C11.500000000000002 16, 11.500000000000002 16, 11.5 16 C4.974930597471123 16, -1.5501388050577543 16, -11.499999999999996 16 C-11.888282142687844 15.987548547429343, -12.276564285375692 15.975097094858686, -12.5251235196914 15.967126284005381 C-12.876802867349955 15.933200200293056, -13.22848221500851 15.899274116580733, -13.5460345869521 15.868640221171937 C-13.84531275683992 15.820255247601345, -14.144590926727739 15.771870274030753, -14.558538059221956 15.704946511857045 C-14.954382971581229 15.6145974937405, -15.350227883940502 15.524248475623956, -15.558473342552112 15.476717808624471 C-15.94201165222805 15.362885651546323, -16.325549961903988 15.249053494468177, -16.541731488377923 15.184891952170702 C-16.768934460704774 15.101279158113167, -16.996137433031624 15.017666364055634, -17.504272078069988 14.830668117536348 C-17.85044963998947 14.67742557986711, -18.196627201908953 14.52418304219787, -18.44213982588093 14.415501886438708 C-18.64847106521455 14.307859011039824, -18.854802304548173 14.20021613564094, -19.351480832063 13.941099265974234 C-19.659439827430873 13.75441271321429, -19.96739882279875 13.567726160454345, -20.228558419368767 13.409409678269457 C-20.498149320548226 13.221354736008687, -20.76774022172768 13.033299793747915, -21.069768487859456 12.822617949887308 C-21.272092438775758 12.661269983098006, -21.474416389692063 12.499922016308705, -21.871654324924613 12.183135333906154 C-22.069364801691748 12.003579910038798, -22.267075278458886 11.824024486171444, -22.630920809655777 11.493589601563649 C-22.80658698818639 11.312199849769312, -22.982253166717005 11.130810097974974, -23.344447953205048 10.756814244181069 C-23.573256044965987 10.48804324004942, -23.80206413672693 10.219272235917769, -24.009303719488475 9.97583682973974 C-24.240560166152683 9.665974259105399, -24.47181661281689 9.35611168847106, -24.62275607355129 9.15386656195472 C-24.81140185878835 8.864055977344405, -25.000047644025408 8.57424539273409, -25.182284208085534 8.29428109296841 C-25.370793976408407 7.959562910627197, -25.559303744731285 7.624844728285984, -25.685588901968 7.400612643853366 C-25.7782440722366 7.208212200287562, -25.870899242505203 7.015811756721758, -26.130601968252996 6.476533489958307 C-26.26761765295696 6.138102099721466, -26.404633337660925 5.799670709484625, -26.515494752796165 5.525840870740931 C-26.63869586758463 5.154778742429984, -26.761896982373095 4.783716614119036, -26.83868564858657 4.552441386096519 C-26.935683852021814 4.182545197110635, -27.03268205545706 3.8126490081247506, -27.098846594909176 3.5603349433010343 C-27.167947301635166 3.20551741870261, -27.237048008361157 2.850699894104185, -27.2949085346312 2.5535983205340753 C-27.340890557926368 2.1969708280343054, -27.386872581221535 1.8403433355345356, -27.42606580718717 1.5363684145229202 C-27.447279692292707 1.2059450304643395, -27.468493577398245 0.8755216464057589, -27.491779459211006 0.5128252411464846 C-27.491779459211006 0.13271259709096073, -27.491779459211006 -0.2474000469645632, -27.491779459211006 -0.5128252411464769 C-27.47403170839744 -0.7892607857943761, -27.456283957583874 -1.0656963304422753, -27.42606580718717 -1.5363684145228982 C-27.37712497248159 -1.9159438640384838, -27.328184137776002 -2.2955193135540695, -27.294908534631205 -2.5535983205340678 C-27.25009044660205 -2.7837297302575097, -27.205272358572895 -3.013861139980952, -27.098846594909176 -3.5603349433010267 C-27.03606978040623 -3.799730144644278, -26.973292965903283 -4.03912534598753, -26.838685648586573 -4.552441386096511 C-26.745896405309193 -4.831907802889764, -26.653107162031816 -5.111374219683016, -26.515494752796172 -5.525840870740911 C-26.421296059708396 -5.758513463875553, -26.32709736662062 -5.991186057010194, -26.130601968253 -6.476533489958299 C-26.015012673878804 -6.716557132941017, -25.899423379504608 -6.956580775923735, -25.685588901968003 -7.400612643853359 C-25.50253691607742 -7.725639980825635, -25.319484930186842 -8.050667317797913, -25.182284208085537 -8.294281092968404 C-25.05220487856412 -8.494117874304106, -24.9221255490427 -8.693954655639807, -24.622756073551294 -9.153866561954715 C-24.481639429965146 -9.342950008369451, -24.340522786378997 -9.532033454784187, -24.00930371948848 -9.975836829739734 C-23.757128627767894 -10.272056041643946, -23.50495353604731 -10.568275253548158, -23.344447953205055 -10.756814244181063 C-23.087645125592555 -11.021984247595224, -22.830842297980052 -11.287154251009385, -22.63092080965579 -11.493589601563633 C-22.465008646168613 -11.644266638647395, -22.29909648268144 -11.794943675731156, -21.871654324924627 -12.18313533390614 C-21.659130760933866 -12.35261722069922, -21.446607196943106 -12.522099107492298, -21.069768487859463 -12.822617949887302 C-20.76724719639468 -13.033643706877497, -20.464725904929896 -13.244669463867691, -20.228558419368788 -13.409409678269444 C-19.889043303699243 -13.615225736600609, -19.549528188029694 -13.821041794931773, -19.351480832063007 -13.941099265974229 C-19.04903684362853 -14.098884101015875, -18.746592855194056 -14.256668936057523, -18.442139825880936 -14.415501886438705 C-18.151190766626044 -14.544296404273652, -17.860241707371152 -14.673090922108598, -17.504272078069995 -14.830668117536344 C-17.305884549860554 -14.903676561791626, -17.107497021651113 -14.976685006046909, -16.54173148837794 -15.184891952170695 C-16.192258147900233 -15.28861380520148, -15.842784807422523 -15.392335658232266, -15.558473342552134 -15.476717808624466 C-15.338813494057497 -15.526853735628896, -15.119153645562863 -15.576989662633325, -14.558538059221963 -15.704946511857043 C-14.230742633485047 -15.757941934198696, -13.902947207748129 -15.810937356540348, -13.546034586952107 -15.868640221171937 C-13.305300708863298 -15.891863528866317, -13.06456683077449 -15.915086836560697, -12.525123519691407 -15.967126284005381 C-12.160336521578158 -15.978824293020056, -11.795549523464908 -15.99052230203473, -11.500000000000005 -16 C-11.500000000000004 -16, -11.500000000000002 -16, -11.5 -16" stroke="none" stroke-width="0" fill="#eee" style=""/><path d="M-11.5 -16 C-3.0512895281868175 -16, 5.397420943626365 -16, 11.5 -16 M-11.5 -16 C-5.53542582604988 -16, 0.4291483479002398 -16, 11.5 -16 M11.5 -16 C11.5 -16, 11.5 -16, 11.499999999999998 -16 M11.5 -16 C11.5 -16, 11.5 -16, 11.499999999999998 -16 M11.499999999999998 -16 C11.865214037996356 -15.988288296647458, 12.230428075992714 -15.976576593294915, 12.525123519691405 -15.967126284005381 M11.499999999999998 -16 C11.797454613576882 -15.990461209502872, 12.094909227153765 -15.980922419005742, 12.525123519691405 -15.967126284005381 M12.525123519691405 -15.967126284005381 C12.920016777481182 -15.929031406355028, 13.31491003527096 -15.890936528704676, 13.546034586952095 -15.868640221171939 M12.525123519691405 -15.967126284005381 C12.766361246610222 -15.943854370620338, 13.00759897352904 -15.920582457235293, 13.546034586952095 -15.868640221171939 M13.546034586952095 -15.868640221171939 C13.78074633466943 -15.83069384601779, 14.015458082386766 -15.792747470863638, 14.558538059221954 -15.704946511857047 M13.546034586952095 -15.868640221171939 C13.748997266614847 -15.835826789123153, 13.9519599462776 -15.803013357074368, 14.558538059221954 -15.704946511857047 M14.558538059221954 -15.704946511857047 C14.79851858883779 -15.65017252199154, 15.038499118453627 -15.595398532126033, 15.558473342552116 -15.476717808624471 M14.558538059221954 -15.704946511857047 C14.772570624564295 -15.656094975510674, 14.986603189906635 -15.607243439164302, 15.558473342552116 -15.476717808624471 M15.558473342552116 -15.476717808624471 C15.826991372697268 -15.397023066757292, 16.09550940284242 -15.317328324890113, 16.54173148837793 -15.184891952170698 M15.558473342552116 -15.476717808624471 C15.949510931817635 -15.360659904728656, 16.340548521083154 -15.244602000832844, 16.54173148837793 -15.184891952170698 M16.54173148837793 -15.184891952170698 C16.798831785451377 -15.090276666238577, 17.055932082524823 -14.995661380306455, 17.504272078069985 -14.830668117536348 M16.54173148837793 -15.184891952170698 C16.736623547066955 -15.113169873010696, 16.931515605755976 -15.041447793850693, 17.504272078069985 -14.830668117536348 M17.504272078069985 -14.830668117536348 C17.727936668530063 -14.731658438114014, 17.95160125899014 -14.63264875869168, 18.44213982588093 -14.415501886438706 M17.504272078069985 -14.830668117536348 C17.791771241722333 -14.70340076614713, 18.079270405374682 -14.576133414757912, 18.44213982588093 -14.415501886438706 M18.44213982588093 -14.415501886438706 C18.725900663750068 -14.267464039079867, 19.009661501619206 -14.119426191721029, 19.351480832063 -13.941099265974232 M18.44213982588093 -14.415501886438706 C18.637218888611027 -14.313729264366517, 18.832297951341125 -14.211956642294327, 19.351480832063 -13.941099265974232 M19.351480832063 -13.941099265974232 C19.697835093413527 -13.731137277339977, 20.044189354764054 -13.521175288705724, 20.228558419368778 -13.409409678269451 M19.351480832063 -13.941099265974232 C19.637981599552575 -13.767420817056658, 19.924482367042152 -13.593742368139084, 20.228558419368778 -13.409409678269451 M20.228558419368778 -13.409409678269451 C20.51155900294939 -13.21200072206143, 20.79455958653 -13.014591765853408, 21.069768487859456 -12.822617949887306 M20.228558419368778 -13.409409678269451 C20.531868436808907 -13.197833740182253, 20.835178454249036 -12.986257802095054, 21.069768487859456 -12.822617949887306 M21.069768487859456 -12.822617949887306 C21.25742204335573 -12.672969233049859, 21.445075598852007 -12.523320516212413, 21.871654324924613 -12.183135333906153 M21.069768487859456 -12.822617949887306 C21.24087674551754 -12.686163667786952, 21.41198500317562 -12.549709385686597, 21.871654324924613 -12.183135333906153 M21.871654324924613 -12.183135333906153 C22.156417459206637 -11.92452098977088, 22.441180593488657 -11.665906645635609, 22.630920809655784 -11.493589601563642 M21.871654324924613 -12.183135333906153 C22.05555731903397 -12.01611950046262, 22.23946031314333 -11.849103667019088, 22.630920809655784 -11.493589601563642 M22.630920809655784 -11.493589601563642 C22.834984903658736 -11.282876670531893, 23.03904899766169 -11.072163739500146, 23.344447953205048 -10.756814244181072 M22.630920809655784 -11.493589601563642 C22.782505681461853 -11.33706577607445, 22.934090553267918 -11.180541950585258, 23.344447953205048 -10.756814244181072 M23.344447953205048 -10.756814244181072 C23.531372334854407 -10.537242229197105, 23.718296716503765 -10.31767021421314, 24.00930371948848 -9.975836829739738 M23.344447953205048 -10.756814244181072 C23.591055719399467 -10.467134729629691, 23.837663485593886 -10.17745521507831, 24.00930371948848 -9.975836829739738 M24.00930371948848 -9.975836829739738 C24.143839141982152 -9.79557162002734, 24.278374564475826 -9.615306410314945, 24.62275607355129 -9.153866561954718 M24.00930371948848 -9.975836829739738 C24.189977257241665 -9.733750748848362, 24.37065079499485 -9.491664667956988, 24.62275607355129 -9.153866561954718 M24.62275607355129 -9.153866561954718 C24.79402128613206 -8.890757204281707, 24.965286498712832 -8.627647846608697, 25.182284208085537 -8.294281092968403 M24.62275607355129 -9.153866561954718 C24.813782099104998 -8.860399289034012, 25.004808124658705 -8.566932016113304, 25.182284208085537 -8.294281092968403 M25.182284208085537 -8.294281092968403 C25.32074218118337 -8.048434941343109, 25.459200154281202 -7.802588789717814, 25.685588901968003 -7.400612643853364 M25.182284208085537 -8.294281092968403 C25.29119817084145 -8.100893323360635, 25.400112133597364 -7.907505553752868, 25.685588901968003 -7.400612643853364 M25.685588901968003 -7.400612643853364 C25.778277306185714 -7.208143189281139, 25.87096571040343 -7.015673734708913, 26.130601968252996 -6.476533489958305 M25.685588901968003 -7.400612643853364 C25.797411790993632 -7.168410022165108, 25.909234680019264 -6.936207400476852, 26.130601968252996 -6.476533489958305 M26.130601968252996 -6.476533489958305 C26.274195874587374 -6.12185376511308, 26.41778978092175 -5.7671740402678555, 26.515494752796165 -5.52584087074093 M26.130601968252996 -6.476533489958305 C26.222236977254056 -6.250193246083312, 26.313871986255116 -6.02385300220832, 26.515494752796165 -5.52584087074093 M26.515494752796165 -5.52584087074093 C26.6162623600583 -5.222344892805269, 26.717029967320432 -4.91884891486961, 26.83868564858657 -4.552441386096524 M26.515494752796165 -5.52584087074093 C26.591553773609593 -5.296763218410142, 26.66761279442302 -5.067685566079354, 26.83868564858657 -4.552441386096524 M26.83868564858657 -4.552441386096524 C26.94213010517347 -4.157962840019587, 27.04557456176037 -3.763484293942649, 27.098846594909176 -3.560334943301032 M26.83868564858657 -4.552441386096524 C26.910006269915648 -4.280464946415929, 26.981326891244727 -4.008488506735334, 27.098846594909176 -3.560334943301032 M27.098846594909176 -3.560334943301032 C27.16870767309219 -3.2016130719753573, 27.238568751275206 -2.8428912006496825, 27.2949085346312 -2.5535983205340735 M27.098846594909176 -3.560334943301032 C27.174224443824258 -3.1732856202361033, 27.249602292739336 -2.786236297171175, 27.2949085346312 -2.5535983205340735 M27.2949085346312 -2.5535983205340735 C27.335388495263004 -2.2396437395461692, 27.37586845589481 -1.9256891585582645, 27.42606580718717 -1.536368414522911 M27.2949085346312 -2.5535983205340735 C27.346021205318785 -2.1571785400196473, 27.397133876006365 -1.7607587595052208, 27.42606580718717 -1.536368414522911 M27.42606580718717 -1.536368414522911 C27.448657619801814 -1.184482697266912, 27.47124943241646 -0.832596980010913, 27.491779459211006 -0.5128252411464826 M27.42606580718717 -1.536368414522911 C27.450006858709095 -1.16346721219998, 27.47394791023102 -0.7905660098770493, 27.491779459211006 -0.5128252411464826 M27.491779459211006 -0.5128252411464826 C27.491779459211006 -0.14727038608147225, 27.491779459211006 0.21828446898353815, 27.491779459211006 0.5128252411464788 M27.491779459211006 -0.5128252411464826 C27.491779459211006 -0.29672526696865476, 27.491779459211006 -0.08062529279082686, 27.491779459211006 0.5128252411464788 M27.491779459211006 0.5128252411464788 C27.467579288383448 0.8897624358120197, 27.44337911755589 1.2666996304775608, 27.42606580718717 1.5363684145229002 M27.491779459211006 0.5128252411464788 C27.467390955124813 0.892695878335132, 27.443002451038616 1.2725665155237853, 27.42606580718717 1.5363684145229002 M27.42606580718717 1.5363684145229002 C27.379655526402985 1.8963173875385169, 27.333245245618798 2.2562663605541333, 27.294908534631205 2.5535983205340624 M27.42606580718717 1.5363684145229002 C27.378504860168878 1.905241727625501, 27.330943913150584 2.274115040728102, 27.294908534631205 2.5535983205340624 M27.294908534631205 2.5535983205340624 C27.227000099917372 2.9022937803368283, 27.15909166520354 3.2509892401395937, 27.098846594909176 3.5603349433010285 M27.294908534631205 2.5535983205340624 C27.252745075635424 2.770098771227183, 27.21058161663964 2.986599221920303, 27.098846594909176 3.5603349433010285 M27.098846594909176 3.5603349433010285 C27.02240113281179 3.8518546219512197, 26.9459556707144 4.14337430060141, 26.83868564858657 4.552441386096513 M27.098846594909176 3.5603349433010285 C26.999169540660972 3.9404467514580124, 26.89949248641277 4.320558559614996, 26.83868564858657 4.552441386096513 M26.83868564858657 4.552441386096513 C26.714440629756176 4.926647587058222, 26.590195610925786 5.30085378801993, 26.515494752796165 5.525840870740919 M26.83868564858657 4.552441386096513 C26.754382908627903 4.806347807034485, 26.670080168669234 5.0602542279724565, 26.515494752796165 5.525840870740919 M26.515494752796165 5.525840870740919 C26.362109987512778 5.904704206483588, 26.208725222229386 6.283567542226258, 26.130601968253 6.4765334899583005 M26.515494752796165 5.525840870740919 C26.416439219548984 5.770509952969907, 26.317383686301806 6.015179035198895, 26.130601968253 6.4765334899583005 M26.130601968253 6.4765334899583005 C25.958610718499116 6.833677000095455, 25.786619468745233 7.1908205102326095, 25.685588901968003 7.400612643853361 M26.130601968253 6.4765334899583005 C26.036541768776466 6.671851506737184, 25.942481569299932 6.867169523516067, 25.685588901968003 7.400612643853361 M25.685588901968003 7.400612643853361 C25.515015375193304 7.703483213084389, 25.3444418484186 8.006353782315417, 25.18228420808554 8.294281092968399 M25.685588901968003 7.400612643853361 C25.49416039018192 7.7405133507683255, 25.302731878395836 8.08041405768329, 25.18228420808554 8.294281092968399 M25.18228420808554 8.294281092968399 C24.98136113796989 8.602952884064832, 24.78043806785424 8.911624675161264, 24.622756073551297 9.15386656195471 M25.18228420808554 8.294281092968399 C24.9771140716284 8.60947751846236, 24.771943935171258 8.92467394395632, 24.622756073551297 9.15386656195471 M24.622756073551297 9.15386656195471 C24.46899664561405 9.359890187618568, 24.315237217676803 9.565913813282426, 24.00930371948848 9.975836829739734 M24.622756073551297 9.15386656195471 C24.436710324017024 9.403150917214179, 24.250664574482748 9.652435272473648, 24.00930371948848 9.975836829739734 M24.00930371948848 9.975836829739734 C23.811131544850014 10.208621142386258, 23.612959370211545 10.441405455032783, 23.344447953205055 10.756814244181063 M24.00930371948848 9.975836829739734 C23.772774789353235 10.25367716995399, 23.53624585921799 10.531517510168248, 23.344447953205055 10.756814244181063 M23.344447953205055 10.756814244181063 C23.180472809259655 10.926132042914379, 23.01649766531425 11.095449841647692, 22.630920809655784 11.493589601563638 M23.344447953205055 10.756814244181063 C23.180580196089565 10.926021157195873, 23.01671243897407 11.095228070210682, 22.630920809655784 11.493589601563638 M22.630920809655784 11.493589601563638 C22.375798387590333 11.72528503511409, 22.120675965524885 11.956980468664545, 21.871654324924627 12.183135333906142 M22.630920809655784 11.493589601563638 C22.32829348909435 11.768427727017407, 22.025666168532915 12.043265852471176, 21.871654324924627 12.183135333906142 M21.871654324924627 12.183135333906142 C21.63936451854645 12.368380273001383, 21.407074712168274 12.553625212096625, 21.06976848785946 12.822617949887304 M21.871654324924627 12.183135333906142 C21.672123668358275 12.342255722784044, 21.47259301179192 12.501376111661944, 21.06976848785946 12.822617949887304 M21.06976848785946 12.822617949887304 C20.788149749122443 13.019062990951534, 20.506531010385427 13.215508032015762, 20.228558419368788 13.409409678269446 M21.06976848785946 12.822617949887304 C20.883944676633263 12.95224059641556, 20.69812086540707 13.081863242943815, 20.228558419368788 13.409409678269446 M20.228558419368788 13.409409678269446 C20.004537239916104 13.545212633748243, 19.780516060463416 13.681015589227039, 19.351480832063004 13.94109926597423 M20.228558419368788 13.409409678269446 C20.047050797989282 13.519440665006883, 19.865543176609776 13.62947165174432, 19.351480832063004 13.94109926597423 M19.351480832063004 13.94109926597423 C19.04866054501239 14.099080415762884, 18.745840257961774 14.25706156555154, 18.442139825880933 14.415501886438705 M19.351480832063004 13.94109926597423 C19.10074504978787 14.071907962983234, 18.85000926751274 14.202716659992237, 18.442139825880933 14.415501886438705 M18.442139825880933 14.415501886438705 C18.142163009675258 14.54829272447687, 17.84218619346958 14.681083562515033, 17.50427207806999 14.830668117536346 M18.442139825880933 14.415501886438705 C18.12104774780996 14.557639824542646, 17.799955669738992 14.699777762646587, 17.50427207806999 14.830668117536346 M17.50427207806999 14.830668117536346 C17.131298092053317 14.967925992124215, 16.75832410603664 15.105183866712084, 16.54173148837794 15.184891952170695 M17.50427207806999 14.830668117536346 C17.137586022168115 14.96561197571698, 16.770899966266235 15.100555833897616, 16.54173148837794 15.184891952170695 M16.54173148837794 15.184891952170695 C16.238314626997752 15.274944483960729, 15.934897765617565 15.364997015750763, 15.558473342552134 15.476717808624468 M16.54173148837794 15.184891952170695 C16.180606619706307 15.292071917609318, 15.819481751034672 15.399251883047944, 15.558473342552134 15.476717808624468 M15.558473342552134 15.476717808624468 C15.238148738526567 15.549829809179911, 14.917824134501 15.622941809735357, 14.558538059221961 15.704946511857045 M15.558473342552134 15.476717808624468 C15.304677170315335 15.534645128762715, 15.050880998078535 15.592572448900963, 14.558538059221961 15.704946511857045 M14.558538059221961 15.704946511857045 C14.328158650766278 15.742192467997164, 14.097779242310597 15.779438424137282, 13.546034586952105 15.868640221171937 M14.558538059221961 15.704946511857045 C14.311440889575199 15.744895265978364, 14.064343719928438 15.784844020099682, 13.546034586952105 15.868640221171937 M13.546034586952105 15.868640221171937 C13.247651379632915 15.897424890323709, 12.949268172313722 15.926209559475483, 12.525123519691405 15.967126284005381 M13.546034586952105 15.868640221171937 C13.18317695010109 15.903644660998799, 12.820319313250074 15.93864910082566, 12.525123519691405 15.967126284005381 M12.525123519691405 15.967126284005381 C12.232056826838807 15.976524362425453, 11.93899013398621 15.985922440845522, 11.500000000000004 16 M12.525123519691405 15.967126284005381 C12.229426791978144 15.97660870252438, 11.933730064264884 15.98609112104338, 11.500000000000004 16 M11.500000000000004 16 C11.500000000000002 16, 11.500000000000002 16, 11.5 16 M11.500000000000004 16 C11.500000000000004 16, 11.500000000000002 16, 11.5 16 M11.5 16 C3.1522912062989725 16, -5.195417587402055 16, -11.499999999999996 16 M11.5 16 C6.120770880695791 16, 0.7415417613915825 16, -11.499999999999996 16 M-11.499999999999996 16 C-11.820930832793778 15.989708372846273, -12.141861665587559 15.979416745692548, -12.5251235196914 15.967126284005381 M-11.499999999999996 16 C-11.750495891771193 15.991967084311572, -12.000991783542391 15.983934168623145, -12.5251235196914 15.967126284005381 M-12.5251235196914 15.967126284005381 C-12.84891272608134 15.935890728678437, -13.172701932471279 15.904655173351493, -13.5460345869521 15.868640221171937 M-12.5251235196914 15.967126284005381 C-12.731799566364906 15.9471884943471, -12.938475613038412 15.92725070468882, -13.5460345869521 15.868640221171937 M-13.5460345869521 15.868640221171937 C-13.795533455700964 15.828303178965246, -14.045032324449828 15.787966136758554, -14.558538059221956 15.704946511857045 M-13.5460345869521 15.868640221171937 C-13.82712930032349 15.82319500783611, -14.108224013694878 15.777749794500282, -14.558538059221956 15.704946511857045 M-14.558538059221956 15.704946511857045 C-14.87442505441083 15.632847366560473, -15.190312049599704 15.560748221263898, -15.558473342552112 15.476717808624471 M-14.558538059221956 15.704946511857045 C-14.875993550076869 15.632489367660089, -15.193449040931784 15.560032223463134, -15.558473342552112 15.476717808624471 M-15.558473342552112 15.476717808624471 C-15.907235401665423 15.373207060169047, -16.255997460778733 15.269696311713624, -16.541731488377923 15.184891952170702 M-15.558473342552112 15.476717808624471 C-15.888782198833185 15.378683873906818, -16.21909105511426 15.280649939189162, -16.541731488377923 15.184891952170702 M-16.541731488377923 15.184891952170702 C-16.827064130392998 15.079886902323125, -17.112396772408072 14.97488185247555, -17.504272078069988 14.830668117536348 M-16.541731488377923 15.184891952170702 C-16.80633440817021 15.087515631724564, -17.070937327962493 14.990139311278424, -17.504272078069988 14.830668117536348 M-17.504272078069988 14.830668117536348 C-17.822392116151796 14.689845813373175, -18.140512154233605 14.549023509210004, -18.44213982588093 14.415501886438708 M-17.504272078069988 14.830668117536348 C-17.870566324202397 14.668520520506283, -18.236860570334805 14.506372923476217, -18.44213982588093 14.415501886438708 M-18.44213982588093 14.415501886438708 C-18.771684742691644 14.24357851442215, -19.101229659502362 14.071655142405593, -19.351480832063 13.941099265974234 M-18.44213982588093 14.415501886438708 C-18.690729911621684 14.285812597937305, -18.93931999736244 14.156123309435902, -19.351480832063 13.941099265974234 M-19.351480832063 13.941099265974234 C-19.60057800461863 13.79009509611354, -19.84967517717426 13.639090926252845, -20.228558419368767 13.409409678269457 M-19.351480832063 13.941099265974234 C-19.576220939695848 13.80486049200773, -19.800961047328695 13.668621718041228, -20.228558419368767 13.409409678269457 M-20.228558419368767 13.409409678269457 C-20.475763144946114 13.236970363026796, -20.722967870523462 13.064531047784135, -21.069768487859456 12.822617949887308 M-20.228558419368767 13.409409678269457 C-20.47183802120887 13.239708359430029, -20.715117623048975 13.0700070405906, -21.069768487859456 12.822617949887308 M-21.069768487859456 12.822617949887308 C-21.38159642587372 12.57394346741086, -21.693424363887985 12.325268984934413, -21.871654324924613 12.183135333906154 M-21.069768487859456 12.822617949887308 C-21.33369379718101 12.612144539050812, -21.597619106502567 12.401671128214314, -21.871654324924613 12.183135333906154 M-21.871654324924613 12.183135333906154 C-22.174583187425227 11.908023356041587, -22.477512049925842 11.632911378177019, -22.630920809655777 11.493589601563649 M-21.871654324924613 12.183135333906154 C-22.16017615568956 11.92110744107475, -22.4486979864545 11.659079548243346, -22.630920809655777 11.493589601563649 M-22.630920809655777 11.493589601563649 C-22.91086292724442 11.204526381478082, -23.19080504483306 10.915463161392518, -23.344447953205048 10.756814244181069 M-22.630920809655777 11.493589601563649 C-22.823818339377603 11.294407064944142, -23.01671586909943 11.095224528324636, -23.344447953205048 10.756814244181069 M-23.344447953205048 10.756814244181069 C-23.485884747623565 10.590674537475486, -23.627321542042083 10.424534830769904, -24.009303719488475 9.97583682973974 M-23.344447953205048 10.756814244181069 C-23.538402331808975 10.528984394756108, -23.7323567104129 10.301154545331148, -24.009303719488475 9.97583682973974 M-24.009303719488475 9.97583682973974 C-24.19859918565029 9.722198150254641, -24.387894651812108 9.468559470769542, -24.62275607355129 9.15386656195472 M-24.009303719488475 9.97583682973974 C-24.160900206548348 9.772711347803595, -24.312496693608217 9.569585865867452, -24.62275607355129 9.15386656195472 M-24.62275607355129 9.15386656195472 C-24.819404722233397 8.85176143002308, -25.0160533709155 8.54965629809144, -25.182284208085534 8.29428109296841 M-24.62275607355129 9.15386656195472 C-24.81160380760271 8.863745729734692, -25.000451541654137 8.573624897514664, -25.182284208085534 8.29428109296841 M-25.182284208085534 8.29428109296841 C-25.29290317795216 8.097865910584883, -25.403522147818784 7.901450728201356, -25.685588901968 7.400612643853366 M-25.182284208085534 8.29428109296841 C-25.302838899555116 8.080224030777922, -25.423393591024695 7.866166968587435, -25.685588901968 7.400612643853366 M-25.685588901968 7.400612643853366 C-25.826710367191296 7.107570901801552, -25.967831832414593 6.814529159749737, -26.130601968252996 6.476533489958307 M-25.685588901968 7.400612643853366 C-25.80598174772898 7.150614323636463, -25.926374593489953 6.90061600341956, -26.130601968252996 6.476533489958307 M-26.130601968252996 6.476533489958307 C-26.280713601683946 6.105754853172872, -26.43082523511489 5.734976216387437, -26.515494752796165 5.525840870740931 M-26.130601968252996 6.476533489958307 C-26.209898789710053 6.2806688078596355, -26.289195611167106 6.0848041257609635, -26.515494752796165 5.525840870740931 M-26.515494752796165 5.525840870740931 C-26.62408298268733 5.198790423493627, -26.732671212578495 4.871739976246323, -26.83868564858657 4.552441386096519 M-26.515494752796165 5.525840870740931 C-26.640475430139283 5.1494189835501585, -26.7654561074824 4.772997096359386, -26.83868564858657 4.552441386096519 M-26.83868564858657 4.552441386096519 C-26.900907784293175 4.315161415403036, -26.963129919999776 4.077881444709553, -27.098846594909176 3.5603349433010343 M-26.83868564858657 4.552441386096519 C-26.928749863309847 4.208987501279085, -27.018814078033124 3.8655336164616525, -27.098846594909176 3.5603349433010343 M-27.098846594909176 3.5603349433010343 C-27.157049969900296 3.261472914009299, -27.215253344891416 2.962610884717563, -27.2949085346312 2.5535983205340753 M-27.098846594909176 3.5603349433010343 C-27.16100893577601 3.2411444609652342, -27.223171276642844 2.9219539786294337, -27.2949085346312 2.5535983205340753 M-27.2949085346312 2.5535983205340753 C-27.335747781947244 2.236857182972387, -27.37658702926329 1.9201160454106991, -27.42606580718717 1.5363684145229202 M-27.2949085346312 2.5535983205340753 C-27.345747595680088 2.1593006023470522, -27.39658665672897 1.7650028841600292, -27.42606580718717 1.5363684145229202 M-27.42606580718717 1.5363684145229202 C-27.450550707673443 1.1549963255932965, -27.475035608159715 0.7736242366636726, -27.491779459211006 0.5128252411464846 M-27.42606580718717 1.5363684145229202 C-27.452107848122704 1.1307426061948758, -27.47814988905824 0.7251167978668316, -27.491779459211006 0.5128252411464846 M-27.491779459211006 0.5128252411464846 C-27.491779459211006 0.2570576882274098, -27.491779459211006 0.0012901353083349942, -27.491779459211006 -0.5128252411464769 M-27.491779459211006 0.5128252411464846 C-27.491779459211006 0.20347850100044024, -27.491779459211006 -0.10586823914560417, -27.491779459211006 -0.5128252411464769 M-27.491779459211006 -0.5128252411464769 C-27.46591264871571 -0.9157216939243338, -27.440045838220414 -1.3186181467021907, -27.42606580718717 -1.5363684145228982 M-27.491779459211006 -0.5128252411464769 C-27.469440982948907 -0.8607650402221692, -27.447102506686807 -1.2087048392978614, -27.42606580718717 -1.5363684145228982 M-27.42606580718717 -1.5363684145228982 C-27.377599808044437 -1.9122611331799122, -27.3291338089017 -2.288153851836926, -27.294908534631205 -2.5535983205340678 M-27.42606580718717 -1.5363684145228982 C-27.37428622167772 -1.9379606546985273, -27.32250663616827 -2.3395528948741564, -27.294908534631205 -2.5535983205340678 M-27.294908534631205 -2.5535983205340678 C-27.22651428832963 -2.904788320163576, -27.158120042028052 -3.255978319793084, -27.098846594909176 -3.5603349433010267 M-27.294908534631205 -2.5535983205340678 C-27.25005921247194 -2.7838901109142946, -27.205209890312673 -3.0141819012945215, -27.098846594909176 -3.5603349433010267 M-27.098846594909176 -3.5603349433010267 C-27.031587362023558 -3.8168235486298165, -26.964328129137943 -4.073312153958606, -26.838685648586573 -4.552441386096511 M-27.098846594909176 -3.5603349433010267 C-27.018128438756094 -3.868148256182903, -26.93741028260301 -4.175961569064779, -26.838685648586573 -4.552441386096511 M-26.838685648586573 -4.552441386096511 C-26.75051528871503 -4.817996461990516, -26.66234492884349 -5.08355153788452, -26.515494752796172 -5.525840870740911 M-26.838685648586573 -4.552441386096511 C-26.748578020236952 -4.823831205984676, -26.658470391887327 -5.09522102587284, -26.515494752796172 -5.525840870740911 M-26.515494752796172 -5.525840870740911 C-26.36461838273504 -5.898508421788083, -26.213742012673904 -6.271175972835256, -26.130601968253 -6.476533489958299 M-26.515494752796172 -5.525840870740911 C-26.38501816137227 -5.848120574151233, -26.25454156994837 -6.170400277561555, -26.130601968253 -6.476533489958299 M-26.130601968253 -6.476533489958299 C-25.988780420250958 -6.771028968879552, -25.846958872248916 -7.065524447800805, -25.685588901968003 -7.400612643853359 M-26.130601968253 -6.476533489958299 C-26.03622925957652 -6.672500438777503, -25.941856550900035 -6.868467387596706, -25.685588901968003 -7.400612643853359 M-25.685588901968003 -7.400612643853359 C-25.554813091210402 -7.632818338340284, -25.424037280452804 -7.8650240328272085, -25.182284208085537 -8.294281092968404 M-25.685588901968003 -7.400612643853359 C-25.559077586208044 -7.6252462956450255, -25.43256627044809 -7.849879947436693, -25.182284208085537 -8.294281092968404 M-25.182284208085537 -8.294281092968404 C-25.05974647506209 -8.482531956881004, -24.93720874203865 -8.670782820793603, -24.622756073551294 -9.153866561954715 M-25.182284208085537 -8.294281092968404 C-24.984534825919074 -8.598077247120345, -24.78678544375261 -8.901873401272288, -24.622756073551294 -9.153866561954715 M-24.622756073551294 -9.153866561954715 C-24.47634001136769 -9.350050746503076, -24.329923949184085 -9.546234931051437, -24.00930371948848 -9.975836829739734 M-24.622756073551294 -9.153866561954715 C-24.430009124946814 -9.412129913476464, -24.237262176342334 -9.670393264998214, -24.00930371948848 -9.975836829739734 M-24.00930371948848 -9.975836829739734 C-23.810973508597677 -10.208806780760767, -23.612643297706878 -10.441776731781802, -23.344447953205055 -10.756814244181063 M-24.00930371948848 -9.975836829739734 C-23.783835981348865 -10.240684064436266, -23.558368243209255 -10.505531299132798, -23.344447953205055 -10.756814244181063 M-23.344447953205055 -10.756814244181063 C-23.08300477230446 -11.026775793345271, -22.821561591403867 -11.296737342509479, -22.63092080965579 -11.493589601563633 M-23.344447953205055 -10.756814244181063 C-23.14868318093323 -10.958957444138434, -22.952918408661404 -11.161100644095807, -22.63092080965579 -11.493589601563633 M-22.63092080965579 -11.493589601563633 C-22.361726748244372 -11.73806452565292, -22.092532686832953 -11.982539449742205, -21.871654324924627 -12.18313533390614 M-22.63092080965579 -11.493589601563633 C-22.39310996218567 -11.709563121105772, -22.15529911471555 -11.925536640647909, -21.871654324924627 -12.18313533390614 M-21.871654324924627 -12.18313533390614 C-21.67261494501126 -12.341863942726704, -21.473575565097896 -12.50059255154727, -21.069768487859463 -12.822617949887302 M-21.871654324924627 -12.18313533390614 C-21.569204490500645 -12.424331028331155, -21.266754656076664 -12.665526722756171, -21.069768487859463 -12.822617949887302 M-21.069768487859463 -12.822617949887302 C-20.871025558314045 -12.961252414095428, -20.672282628768627 -13.099886878303554, -20.228558419368788 -13.409409678269444 M-21.069768487859463 -12.822617949887302 C-20.81528428644916 -13.000135112347603, -20.560800085038856 -13.177652274807906, -20.228558419368788 -13.409409678269444 M-20.228558419368788 -13.409409678269444 C-19.997717177685967 -13.549346995551284, -19.766875936003146 -13.689284312833124, -19.351480832063007 -13.941099265974229 M-20.228558419368788 -13.409409678269444 C-19.944961567625235 -13.581327756396476, -19.66136471588168 -13.75324583452351, -19.351480832063007 -13.941099265974229 M-19.351480832063007 -13.941099265974229 C-19.034733567778396 -14.106346110865205, -18.717986303493788 -14.271592955756182, -18.442139825880936 -14.415501886438705 M-19.351480832063007 -13.941099265974229 C-18.99188670995905 -14.128699289144835, -18.632292587855094 -14.316299312315444, -18.442139825880936 -14.415501886438705 M-18.442139825880936 -14.415501886438705 C-18.227657771856407 -14.510446729371287, -18.013175717831878 -14.60539157230387, -17.504272078069995 -14.830668117536344 M-18.442139825880936 -14.415501886438705 C-18.228379614188924 -14.510127191183374, -18.01461940249691 -14.604752495928043, -17.504272078069995 -14.830668117536344 M-17.504272078069995 -14.830668117536344 C-17.22837684159001 -14.932200114908587, -16.952481605110023 -15.03373211228083, -16.54173148837794 -15.184891952170695 M-17.504272078069995 -14.830668117536344 C-17.135577854255864 -14.966351000071988, -16.766883630441736 -15.102033882607632, -16.54173148837794 -15.184891952170695 M-16.54173148837794 -15.184891952170695 C-16.195740125437144 -15.287580372545799, -15.849748762496343 -15.390268792920903, -15.558473342552134 -15.476717808624466 M-16.54173148837794 -15.184891952170695 C-16.256583364356093 -15.269522418607334, -15.971435240334241 -15.354152885043971, -15.558473342552134 -15.476717808624466 M-15.558473342552134 -15.476717808624466 C-15.311632399398547 -15.533057643111583, -15.06479145624496 -15.589397477598698, -14.558538059221963 -15.704946511857043 M-15.558473342552134 -15.476717808624466 C-15.305811137946337 -15.534386308050768, -15.05314893334054 -15.592054807477071, -14.558538059221963 -15.704946511857043 M-14.558538059221963 -15.704946511857043 C-14.192520244396928 -15.764121433647409, -13.826502429571892 -15.823296355437774, -13.546034586952107 -15.868640221171937 M-14.558538059221963 -15.704946511857043 C-14.336855954946904 -15.740786355305842, -14.115173850671844 -15.776626198754638, -13.546034586952107 -15.868640221171937 M-13.546034586952107 -15.868640221171937 C-13.283299459308727 -15.893985962950472, -13.020564331665348 -15.919331704729007, -12.525123519691407 -15.967126284005381 M-13.546034586952107 -15.868640221171937 C-13.181817636779805 -15.90377579232009, -12.817600686607502 -15.938911363468243, -12.525123519691407 -15.967126284005381 M-12.525123519691407 -15.967126284005381 C-12.271040183175039 -15.975274242064248, -12.01695684665867 -15.983422200123117, -11.500000000000005 -16 M-12.525123519691407 -15.967126284005381 C-12.159255682454399 -15.978858953427029, -11.79338784521739 -15.990591622848676, -11.500000000000005 -16 M-11.500000000000005 -16 C-11.500000000000004 -16, -11.500000000000002 -16, -11.5 -16 M-11.500000000000005 -16 C-11.500000000000004 -16, -11.500000000000002 -16, -11.5 -16" stroke="#999" stroke-width="1.3" fill="none" stroke-dasharray="0 0" style=""/></g><g class="label" style="" transform="translate(0, -8.5)"><rect/><g><rect class="background" style="stroke: none"/><text y="-10.1" style=""><tspan class="text-outer-tspan row" x="0" y="-0.1em" dy="1.1em"><tspan font-style="normal" class="text-inner-tspan" font-weight="normal">开始</tspan></tspan></text></g></g></g><g class="node default" id="my-svg-flowchart-Request-1" data-look="classic" transform="translate(681.7890625, 113.5)"><rect class="basic label-container" style="" x="-86.08203125" y="-23.5" width="172.1640625" height="47"/><g class="label" style="" transform="translate(0, -8.5)"><rect/><g><rect class="background" style="stroke: none"/><text y="-10.1" style=""><tspan class="text-outer-tspan row" x="0" y="-0.1em" dy="1.1em"><tspan font-style="normal" class="text-inner-tspan" font-weight="normal">请求</tspan><tspan font-style="normal" class="text-inner-tspan" font-weight="normal"> DeepSeek</tspan></tspan></text></g></g></g><g class="node default" id="my-svg-flowchart-Check-3" data-look="classic" transform="translate(681.7890625, 266.5)"><polygon points="79.5,0 159,-79.5 79.5,-159 0,-79.5" class="label-container" transform="translate(-79, 79.5)"/><g class="label" style="" transform="translate(0, -8.5)"><rect/><g><rect class="background" style="stroke: none"/><text y="-10.1" style=""><tspan class="text-outer-tspan row" x="0" y="-0.1em" dy="1.1em"><tspan font-style="normal" class="text-inner-tspan" font-weight="normal">返回什么信号？</tspan></tspan></text></g></g></g><g class="node default" id="my-svg-flowchart-Done-5" data-look="classic" transform="translate(110, 488.5)"><rect class="basic label-container" style="" x="-102" y="-32.29999923706055" width="204" height="64.5999984741211"/><g class="label" style="" transform="translate(0, -17.299999237060547)"><rect/><g><rect class="background" style="stroke: none"/><text y="-10.1" style=""><tspan class="text-outer-tspan row" x="0" y="-0.1em" dy="1.1em"><tspan font-style="normal" class="text-inner-tspan" font-weight="normal">回到</tspan><tspan font-style="normal" class="text-inner-tspan" font-weight="normal"> Agent</tspan><tspan font-style="normal" class="text-inner-tspan" font-weight="normal"> Loop</tspan></tspan><tspan class="text-outer-tspan row" x="0" y="1em" dy="1.1em"><tspan font-style="normal" class="text-inner-tspan" font-weight="normal">执行工具或输出答案</tspan></tspan></text></g></g></g><g class="node default" id="my-svg-flowchart-L1-7" data-look="classic" transform="translate(333.5, 488.5)"><polygon points="71.5,0 143,-71.5 71.5,-143 0,-71.5" class="label-container" transform="translate(-71, 71.5)"/><g class="label" style="" transform="translate(0, -8.5)"><rect/><g><rect class="background" style="stroke: none"/><text y="-10.1" style=""><tspan class="text-outer-tspan row" x="0" y="-0.1em" dy="1.1em"><tspan font-style="normal" class="text-inner-tspan" font-weight="normal">第一次截断？</tspan></tspan></text></g></g></g><g class="node default" id="my-svg-flowchart-L2-9" data-look="classic" transform="translate(221.75, 710.5)"><rect class="basic label-container" style="" x="-118.9140625" y="-32.29999923706055" width="237.828125" height="64.5999984741211"/><g class="label" style="" transform="translate(0, -17.299999237060547)"><rect/><g><rect class="background" style="stroke: none"/><text y="-10.1" style=""><tspan class="text-outer-tspan row" x="0" y="-0.1em" dy="1.1em"><tspan font-style="normal" class="text-inner-tspan" font-weight="normal">扩大输出上限</tspan></tspan><tspan class="text-outer-tspan row" x="0" y="1em" dy="1.1em"><tspan font-style="normal" class="text-inner-tspan" font-weight="normal">用原</tspan><tspan font-style="normal" class="text-inner-tspan" font-weight="normal"> messages</tspan><tspan font-style="normal" class="text-inner-tspan" font-weight="normal"> 重新请求</tspan></tspan></text></g></g></g><g class="node default" id="my-svg-flowchart-L3-11" data-look="classic" transform="translate(470.1640625, 710.5)"><polygon points="79.5,0 159,-79.5 79.5,-159 0,-79.5" class="label-container" transform="translate(-79, 79.5)"/><g class="label" style="" transform="translate(0, -8.5)"><rect/><g><rect class="background" style="stroke: none"/><text y="-10.1" style=""><tspan class="text-outer-tspan row" x="0" y="-0.1em" dy="1.1em"><tspan font-style="normal" class="text-inner-tspan" font-weight="normal">工具调用完整？</tspan></tspan></text></g></g></g><g class="node default" id="my-svg-flowchart-Stop-13" data-look="classic" transform="translate(686.4140625, 1164.099998474121)"><rect class="basic label-container" style="" x="-62" y="-23.5" width="124" height="47"/><g class="label" style="" transform="translate(0, -8.5)"><rect/><g><rect class="background" style="stroke: none"/><text y="-10.1" style=""><tspan class="text-outer-tspan row" x="0" y="-0.1em" dy="1.1em"><tspan font-style="normal" class="text-inner-tspan" font-weight="normal">明确停止</tspan></tspan></text></g></g></g><g class="node default" id="my-svg-flowchart-L4-15" data-look="classic" transform="translate(540.4140625, 956.5)"><polygon points="95.5,0 191,-95.5 95.5,-191 0,-95.5" class="label-container" transform="translate(-95, 95.5)"/><g class="label" style="" transform="translate(0, -8.5)"><rect/><g><rect class="background" style="stroke: none"/><text y="-10.1" style=""><tspan class="text-outer-tspan row" x="0" y="-0.1em" dy="1.1em"><tspan font-style="normal" class="text-inner-tspan" font-weight="normal">续写次数还没用完？</tspan></tspan></text></g></g></g><g class="node default" id="my-svg-flowchart-L5-17" data-look="classic" transform="translate(170.0390625, 1164.099998474121)"><rect class="basic label-container" style="" x="-78" y="-41.099998474121094" width="156" height="82.19999694824219"/><g class="label" style="" transform="translate(0, -26.099998474121094)"><rect/><g><rect class="background" style="stroke: none"/><text y="-10.1" style=""><tspan class="text-outer-tspan row" x="0" y="-0.1em" dy="1.1em"><tspan font-style="normal" class="text-inner-tspan" font-weight="normal">保存文本片段</tspan></tspan><tspan class="text-outer-tspan row" x="0" y="1em" dy="1.1em"><tspan font-style="normal" class="text-inner-tspan" font-weight="normal">追加续写提示</tspan></tspan><tspan class="text-outer-tspan row" x="0" y="2.1em" dy="1.1em"><tspan font-style="normal" class="text-inner-tspan" font-weight="normal">重新请求</tspan></tspan></text></g></g></g><g class="node default" id="my-svg-flowchart-C1-21" data-look="classic" transform="translate(770.2890625, 956.5)"><polygon points="71.5,0 143,-71.5 71.5,-143 0,-71.5" class="label-container" transform="translate(-71, 71.5)"/><g class="label" style="" transform="translate(0, -8.5)"><rect/><g><rect class="background" style="stroke: none"/><text y="-10.1" style=""><tspan class="text-outer-tspan row" x="0" y="-0.1em" dy="1.1em"><tspan font-style="normal" class="text-inner-tspan" font-weight="normal">已经压缩过？</tspan></tspan></text></g></g></g><g class="node default" id="my-svg-flowchart-C2-23" data-look="classic" transform="translate(388.7890625, 1164.099998474121)"><rect class="basic label-container" style="" x="-90.75" y="-32.29999923706055" width="181.5" height="64.5999984741211"/><g class="label" style="" transform="translate(0, -17.299999237060547)"><rect/><g><rect class="background" style="stroke: none"/><text y="-10.1" style=""><tspan class="text-outer-tspan row" x="0" y="-0.1em" dy="1.1em"><tspan font-style="normal" class="text-inner-tspan" font-weight="normal">reactive</tspan><tspan font-style="normal" class="text-inner-tspan" font-weight="normal"> compact</tspan></tspan><tspan class="text-outer-tspan row" x="0" y="1em" dy="1.1em"><tspan font-style="normal" class="text-inner-tspan" font-weight="normal">重新请求</tspan></tspan></text></g></g></g><g class="node default" id="my-svg-flowchart-R1-27" data-look="classic" transform="translate(1001.7890625, 956.5)"><polygon points="95.5,0 191,-95.5 95.5,-191 0,-95.5" class="label-container" transform="translate(-95, 95.5)"/><g class="label" style="" transform="translate(0, -8.5)"><rect/><g><rect class="background" style="stroke: none"/><text y="-10.1" style=""><tspan class="text-outer-tspan row" x="0" y="-0.1em" dy="1.1em"><tspan font-style="normal" class="text-inner-tspan" font-weight="normal">重试次数还没用完？</tspan></tspan></text></g></g></g><g class="node default" id="my-svg-flowchart-R2-29" data-look="classic" transform="translate(1067.0390625, 1164.099998474121)"><rect class="basic label-container" style="" x="-94" y="-41.099998474121094" width="188" height="82.19999694824219"/><g class="label" style="" transform="translate(0, -26.099998474121094)"><rect/><g><rect class="background" style="stroke: none"/><text y="-10.1" style=""><tspan class="text-outer-tspan row" x="0" y="-0.1em" dy="1.1em"><tspan font-style="normal" class="text-inner-tspan" font-weight="normal">等待</tspan><tspan font-style="normal" class="text-inner-tspan" font-weight="normal"> +</tspan><tspan font-style="normal" class="text-inner-tspan" font-weight="normal"> 抖动</tspan></tspan><tspan class="text-outer-tspan row" x="0" y="1em" dy="1.1em"><tspan font-style="normal" class="text-inner-tspan" font-weight="normal">必要时切备用模型</tspan></tspan><tspan class="text-outer-tspan row" x="0" y="2.1em" dy="1.1em"><tspan font-style="normal" class="text-inner-tspan" font-weight="normal">重新请求</tspan></tspan></text></g></g></g></g></g></g><defs><filter id="my-svg-drop-shadow" height="130%" width="130%"><feDropShadow dx="4" dy="4" stdDeviation="0" flood-opacity="0.06" flood-color="#000000"/></filter></defs><defs><filter id="my-svg-drop-shadow-small" height="150%" width="150%"><feDropShadow dx="2" dy="2" stdDeviation="0" flood-opacity="0.06" flood-color="#000000"/></filter></defs><linearGradient id="my-svg-gradient" gradientUnits="objectBoundingBox" x1="0%" y1="0%" x2="100%" y2="0%"><stop offset="0%" stop-color="hsl(0, 0%, 83.3333333333%)" stop-opacity="1"/><stop offset="100%" stop-color="hsl(0, 0%, 88.9215686275%)" stop-opacity="1"/></linearGradient></svg>